<?xml version="1.0" standalone="no"?>
<!DOCTYPE svg PUBLIC "-//W3C//DTD SVG 20010904//EN"
 "http://www.w3.org/TR/2001/REC-SVG-20010904/DTD/svg10.dtd">
<svg version="1.0" xmlns="http://www.w3.org/2000/svg"
 width="5000.000000pt" height="5000.000000pt" viewBox="0 0 5000.000000 5000.000000"
 preserveAspectRatio="xMidYMid meet">

<g transform="translate(0.000000,5000.000000) scale(0.100000,-0.100000)"
fill="#000000" stroke="none">
<path d="M25840 39291 c0 -14 6 -17 25 -13 18 3 25 0 25 -12 0 -14 12 -21 33
-17 14 2 112 -32 127 -45 8 -7 39 -16 68 -20 29 -3 55 -10 58 -15 2 -4 29 -6
59 -3 44 4 56 2 61 -10 8 -21 24 -21 24 0 0 8 5 12 10 9 6 -4 8 -11 5 -16 -10
-16 27 -10 47 8 10 9 18 12 18 7 0 -6 16 -8 36 -6 22 3 39 0 44 -7 7 -13 80
-5 80 8 0 3 -20 15 -44 25 -25 11 -43 24 -40 28 3 4 -6 8 -19 8 -13 0 -27 3
-31 7 -3 4 -14 8 -24 9 -9 2 -54 12 -100 23 -45 12 -99 20 -120 19 -21 0 -48
4 -60 11 -32 17 -147 26 -156 12 -9 -14 -46 -15 -46 -1 0 6 -18 10 -40 10 -32
0 -40 -4 -40 -19z"/>
<path d="M28843 30802 c-10 -14 -14 -15 -21 -3 -7 9 -12 10 -16 2 -4 -6 -1
-11 6 -11 9 0 9 -3 2 -8 -6 -4 -7 -17 -3 -32 l7 -25 1 26 c1 17 9 28 26 35 16
6 22 13 17 21 -6 9 -11 8 -19 -5z"/>
<path d="M28852 30771 c-7 -4 -16 -31 -21 -60 -4 -29 -14 -58 -20 -64 -9 -9
-11 -9 -7 3 3 8 1 22 -4 30 -8 12 -13 13 -27 2 -10 -7 -26 -15 -35 -18 -10 -4
-18 -10 -18 -15 0 -5 8 -9 18 -9 14 -1 13 -4 -6 -20 -15 -12 -25 -34 -28 -62
-7 -55 -33 -139 -50 -159 -8 -8 -14 -21 -14 -27 0 -6 -7 -32 -16 -58 -8 -25
-16 -55 -16 -67 -1 -24 -35 -126 -48 -142 -4 -5 -10 -26 -13 -45 -3 -19 -12
-78 -20 -130 -16 -101 -22 -123 -57 -210 -13 -34 -20 -67 -17 -86 4 -22 0 -36
-13 -46 -13 -12 -18 -31 -19 -77 0 -34 -7 -85 -16 -114 -15 -54 -54 -291 -59
-365 -2 -23 -10 -50 -18 -60 -9 -9 -14 -22 -11 -28 2 -6 -3 -17 -11 -23 -8 -7
-12 -19 -9 -27 3 -8 1 -14 -4 -14 -6 0 -16 -18 -23 -40 -7 -22 -17 -40 -23
-40 -5 0 -6 -7 -3 -15 3 -9 -3 -32 -14 -53 -11 -20 -17 -45 -14 -55 3 -10 0
-24 -6 -32 -6 -8 -10 -22 -8 -32 1 -10 -1 -24 -6 -32 -5 -7 -10 -32 -11 -55
-4 -68 -17 -126 -28 -126 -5 0 -2 -10 9 -21 14 -16 15 -23 7 -26 -17 -6 -16
-23 1 -37 18 -15 29 -76 14 -76 -9 0 -9 -3 0 -12 7 -7 12 -19 12 -28 0 -16 50
-60 68 -60 4 0 27 -14 50 -31 28 -21 48 -28 62 -24 12 4 20 2 20 -5 0 -6 14 2
31 19 17 17 35 31 40 31 5 0 9 9 9 20 0 11 3 20 8 20 11 0 46 63 43 78 -4 24
30 127 47 141 16 13 16 13 0 8 -12 -4 -18 -1 -18 8 0 8 5 15 10 15 6 0 10 11
10 25 0 14 5 25 10 25 6 0 10 5 10 11 0 5 -4 7 -10 4 -5 -3 -10 -1 -10 4 0 6
5 11 10 11 6 0 10 12 10 26 0 17 -4 23 -12 19 -7 -4 -2 3 11 14 13 12 19 21
15 21 -5 0 -2 5 6 10 12 8 10 10 -8 10 -15 0 -21 -4 -16 -12 5 -7 3 -8 -6 -3
-10 6 -10 11 3 20 9 7 14 14 11 17 -3 3 0 35 6 69 14 83 20 100 29 95 4 -3 8
0 9 7 0 7 3 22 6 35 4 17 0 22 -14 22 -16 0 -17 3 -7 24 7 13 15 22 18 20 9
-5 6 17 -5 34 -4 7 -5 16 -1 20 3 3 10 0 15 -8 7 -11 9 -10 7 7 0 12 -4 20 -8
17 -10 -6 -5 24 6 33 4 4 5 1 0 -7 -7 -12 -6 -13 6 -2 12 11 11 15 -3 23 -10
6 -18 15 -18 22 0 8 3 8 9 -2 6 -9 11 -10 15 -2 4 6 5 11 2 11 -2 0 -1 13 4
29 5 19 4 33 -3 41 -9 10 -9 11 1 5 10 -5 13 0 10 21 -1 16 -7 32 -13 36 -6 5
-3 8 6 8 11 0 16 10 16 33 0 17 3 44 6 60 4 17 1 27 -6 27 -9 0 -9 2 -1 8 16
10 22 37 29 132 3 47 8 99 11 115 17 101 22 170 12 176 -7 4 -7 8 1 10 7 3 12
32 14 69 1 36 5 67 8 70 4 3 10 43 13 89 4 46 8 87 10 90 2 3 7 44 11 91 11
132 15 171 23 233 6 39 5 57 -2 57 -6 0 -5 4 2 9 7 4 13 23 12 42 0 40 6 98
16 153 5 29 4 37 -4 32 -7 -4 -12 -2 -12 3 0 6 4 11 9 11 5 0 11 9 14 20 6 22
-8 28 -16 8 -3 -8 -6 -6 -6 5 -1 10 6 17 17 17 13 0 14 2 3 9 -11 7 -11 9 0
13 8 3 12 8 9 11 -3 3 -11 2 -18 -2z m-28 -157 c3 -8 2 -12 -4 -9 -6 3 -10 10
-10 16 0 14 7 11 14 -7z m-157 -1556 c-3 -8 -6 -5 -6 6 -1 11 2 17 5 13 3 -3
4 -12 1 -19z m-27 -244 c0 -8 -5 -12 -10 -9 -6 4 -8 11 -5 16 9 14 15 11 15
-7z"/>
<path d="M28800 30713 c0 -4 5 -15 10 -23 8 -13 10 -13 10 2 0 9 -4 20 -10 23
-5 3 -10 3 -10 -2z"/>
<path d="M34046 29945 c-4 -17 -11 -23 -19 -19 -7 4 -9 3 -4 -1 4 -5 0 -19 -8
-32 -9 -13 -13 -23 -10 -23 3 0 -4 -19 -16 -41 -11 -23 -19 -50 -16 -60 3 -10
2 -18 -2 -18 -3 1 -16 -2 -29 -6 -21 -7 -21 -8 -5 -21 13 -9 14 -13 4 -14 -8
0 -11 -6 -7 -16 3 -8 2 -13 -3 -9 -10 6 -41 -49 -41 -72 0 -8 -5 -11 -12 -7
-7 4 -8 3 -4 -4 4 -6 -5 -29 -19 -51 -14 -23 -25 -44 -25 -48 0 -10 -103 -217
-111 -223 -4 -3 -10 -22 -14 -43 -4 -20 -11 -37 -16 -37 -5 0 -9 -6 -9 -12 0
-7 -6 -25 -14 -40 -8 -14 -17 -45 -21 -67 -4 -23 -11 -41 -16 -41 -5 0 -9 -7
-9 -15 0 -8 -9 -37 -21 -63 -12 -26 -25 -56 -30 -67 -5 -11 -17 -52 -28 -91
-10 -39 -24 -79 -29 -90 -26 -47 -52 -112 -52 -128 0 -9 -8 -34 -19 -54 -51
-101 -71 -149 -71 -168 0 -12 -6 -27 -13 -33 -8 -6 -20 -30 -27 -53 -7 -24
-17 -47 -22 -52 -4 -6 -8 -17 -8 -27 0 -9 -10 -29 -22 -44 -12 -15 -25 -47
-30 -71 -22 -116 -44 -194 -61 -210 -4 -4 -7 -20 -7 -35 0 -15 -7 -35 -16 -44
-9 -8 -13 -22 -10 -30 3 -8 -1 -27 -9 -42 -23 -48 -35 -125 -30 -198 3 -38 5
-83 5 -99 l-1 -30 20 22 c10 13 22 39 26 60 l8 37 14 -34 c13 -31 12 -35 -5
-55 -30 -33 -45 -66 -31 -66 7 0 20 -7 30 -16 16 -14 18 -13 24 16 4 17 13 34
21 37 8 3 14 11 14 18 0 21 19 28 38 13 16 -12 16 -11 2 6 -14 18 -13 19 8 14
19 -5 22 -3 16 14 -4 14 -2 18 5 14 6 -4 11 -2 11 3 0 6 -8 11 -17 12 -13 0
-14 2 -4 6 8 3 20 -2 28 -13 16 -21 17 -11 2 17 -5 11 -15 16 -21 13 -7 -4 -8
-3 -4 4 4 6 13 9 20 6 15 -6 34 14 39 42 2 10 9 30 14 44 23 55 26 73 12 65
-8 -5 -5 1 5 13 11 12 16 22 11 22 -4 0 -3 6 2 13 6 6 13 21 16 32 2 11 23 78
46 149 22 71 38 132 36 137 -3 4 -1 9 3 11 5 1 22 50 39 108 17 58 60 204 96
325 110 372 327 1140 332 1175 1 8 7 28 14 44 6 16 13 40 14 55 2 15 6 31 9
36 8 15 22 69 19 79 -1 4 2 13 7 20 11 12 26 76 19 76 -3 0 -8 -11 -11 -25z"/>
<path d="M33289 27403 c-13 -16 -12 -17 4 -4 16 13 21 21 13 21 -2 0 -10 -8
-17 -17z"/>
<path d="M13165 24259 c-6 -19 -8 -20 -26 -4 -12 12 -27 15 -44 11 -24 -6 -36
-26 -15 -26 6 0 10 -9 10 -20 0 -14 -11 -22 -40 -30 -21 -6 -42 -15 -46 -21
-4 -7 -12 -4 -24 6 -13 12 -19 13 -22 4 -2 -6 -22 -13 -43 -15 -22 -1 -43 -3
-46 -3 -4 -1 -9 -9 -13 -18 -8 -25 -29 -57 -43 -66 -7 -4 -13 -15 -13 -22 0
-8 -7 -15 -15 -15 -9 0 -19 -8 -22 -17 -4 -10 -15 -27 -25 -37 -10 -11 -18
-23 -18 -28 0 -12 -28 -9 -32 3 -6 17 -48 -7 -48 -26 0 -8 -8 -15 -18 -15 -11
0 -24 -11 -30 -25 -6 -14 -16 -25 -22 -25 -5 0 -10 -6 -10 -14 0 -8 -12 -28
-26 -45 -14 -17 -27 -42 -30 -55 -2 -14 -9 -37 -14 -51 -6 -15 -10 -42 -10
-61 0 -20 -6 -42 -14 -50 -8 -8 -20 -40 -26 -72 -16 -79 -17 -82 -39 -82 -15
0 -20 -9 -24 -47 -2 -27 1 -60 8 -75 10 -20 10 -37 2 -70 -7 -24 -15 -46 -20
-49 -5 -3 -11 -40 -14 -82 -5 -66 -8 -77 -24 -77 -15 0 -19 -7 -19 -32 0 -46
10 -78 24 -78 8 0 10 -27 7 -86 -2 -48 2 -112 9 -144 13 -62 7 -100 -16 -100
-8 0 -14 -9 -14 -20 0 -11 5 -20 11 -20 6 0 10 -33 9 -87 0 -88 6 -139 20
-158 4 -5 11 -25 15 -42 3 -18 13 -33 20 -33 8 0 11 -7 8 -20 -3 -11 1 -27 8
-36 8 -10 9 -18 3 -22 -18 -13 -44 -56 -44 -75 0 -10 -6 -25 -12 -32 -7 -8
-19 -21 -26 -30 -12 -14 -17 -82 -11 -140 2 -11 -1 -30 -5 -43 -4 -12 -4 -22
1 -21 24 4 33 -4 42 -38 15 -51 13 -62 -4 -39 -14 18 -15 17 -15 -22 0 -23 5
-42 11 -42 6 0 4 -7 -5 -15 -8 -8 -19 -15 -25 -15 -22 0 -177 -54 -192 -66 -8
-8 -23 -14 -33 -14 -24 0 -96 -38 -96 -51 0 -6 -11 -20 -25 -31 -20 -15 -23
-23 -15 -38 5 -9 17 -21 27 -25 49 -18 298 -57 373 -57 133 0 481 20 525 30
22 6 69 17 105 25 36 8 95 18 132 22 37 4 70 11 73 16 4 5 20 9 36 9 17 0 40
5 52 12 21 11 38 15 157 34 25 4 50 10 55 14 6 5 27 11 48 15 20 4 40 12 43
17 4 7 9 6 14 -1 5 -9 18 -9 51 -1 24 6 75 18 112 26 38 8 73 17 79 20 5 3 34
7 64 9 30 2 67 10 83 18 26 13 31 13 45 -1 13 -14 14 -13 9 8 -5 18 -3 21 8
16 8 -4 -18 23 -58 61 l-71 68 19 93 c72 353 107 890 89 1357 -9 226 -18 374
-26 415 -1 8 -3 27 -3 43 -1 23 -5 27 -31 27 -19 0 -33 7 -40 20 -9 16 -8 20
5 20 8 0 24 9 36 21 20 20 20 21 1 15 -26 -9 -59 4 -40 15 8 5 9 9 2 9 -13 0
-11 77 1 88 5 4 5 -3 2 -15 -3 -13 -1 -26 5 -29 5 -3 8 -15 5 -25 -3 -11 -1
-19 4 -19 5 0 9 5 9 11 0 5 4 8 9 4 5 -3 13 0 17 6 4 7 3 9 -3 6 -15 -9 -36
19 -31 41 5 18 -15 45 -26 35 -3 -4 -6 -15 -6 -25 0 -22 -12 -23 -50 -3 -29
15 -29 15 -32 -18 l-3 -32 -34 35 c-21 22 -35 31 -38 23 -13 -35 -47 0 -58 61
-6 29 -4 36 9 36 26 0 18 29 -9 36 -17 4 -25 13 -25 28 -1 20 -2 20 -14 4 -16
-22 -42 -23 -50 -3 -3 8 -11 14 -18 13 -6 -2 -18 9 -25 25 -16 31 -28 34 -37
10 -5 -11 -10 -13 -14 -7 -4 6 -14 13 -23 16 -9 4 -19 20 -22 37 -4 18 -13 31
-21 31 -8 0 -17 10 -19 23 -2 12 -3 4 -2 -18 2 -22 1 -34 -2 -27 -3 6 -17 12
-33 12 -16 0 -30 -6 -33 -12 -3 -7 -2 6 0 30 l6 42 -41 0 c-41 0 -41 0 -45
-42 l-4 -43 -1 43 c-2 43 -15 55 -26 25 -6 -15 -8 -15 -16 -3 -6 9 -5 17 3 22
9 5 9 10 1 18 -8 8 -16 7 -28 -5 -15 -15 -16 -15 -16 4 0 27 -27 27 -35 0z
m292 -179 c13 0 13 -3 2 -16 -12 -14 -14 -14 -20 3 -4 10 -7 25 -7 33 0 10 2
9 5 -2 2 -10 11 -18 20 -18z m83 -10 c0 -5 -4 -10 -10 -10 -5 0 -10 5 -10 10
0 6 5 10 10 10 6 0 10 -4 10 -10z m-850 -159 c0 -6 -4 -13 -10 -16 -5 -3 -10
1 -10 9 0 9 5 16 10 16 6 0 10 -4 10 -9z"/>
<path d="M13840 23941 c0 -12 5 -21 10 -21 6 0 10 6 10 14 0 8 -4 18 -10 21
-5 3 -10 -3 -10 -14z"/>
<path d="M13970 23769 c0 -5 5 -7 10 -4 6 3 10 8 10 11 0 2 -4 4 -10 4 -5 0
-10 -5 -10 -11z"/>
<path d="M19805 21393 c8 -18 18 -33 20 -33 10 0 4 16 -16 40 l-20 25 16 -32z"/>
<path d="M19790 21356 c0 -8 10 -16 22 -18 12 -2 22 -11 24 -23 3 -19 2 -19
-10 -2 -7 9 -15 17 -17 17 -2 0 -4 -66 -4 -147 0 -124 -4 -159 -22 -218 -54
-172 -168 -267 -403 -336 -36 -11 -155 -35 -265 -54 -110 -19 -254 -48 -320
-65 -136 -36 -407 -123 -475 -153 -25 -11 -52 -21 -60 -23 -37 -8 -130 -51
-123 -58 4 -4 0 -4 -10 0 -9 3 -17 1 -17 -5 0 -6 -7 -8 -15 -5 -8 4 -15 2 -15
-3 0 -5 -10 -9 -21 -10 -12 -1 -33 -12 -47 -25 -14 -13 -22 -17 -18 -11 5 9 2
11 -8 7 -9 -3 -13 -11 -9 -17 4 -7 0 -8 -12 -3 -15 5 -16 4 -5 -9 7 -8 9 -15
4 -15 -5 0 -2 -5 6 -10 9 -6 10 -10 3 -10 -7 0 -16 6 -20 13 -9 14 -43 19 -43
6 0 -5 5 -9 10 -9 6 0 9 -5 8 -12 -4 -16 30 -22 46 -8 8 6 12 20 9 30 -3 11 0
20 6 20 6 0 10 -3 10 -7 -1 -5 -1 -15 0 -23 1 -13 2 -13 11 0 9 13 10 13 10 0
0 -10 7 -7 19 10 16 20 23 22 43 13 12 -5 30 -7 38 -3 8 4 32 15 53 24 21 9
35 20 32 25 -3 6 5 8 17 6 68 -11 88 -9 88 10 0 17 9 19 30 5 8 -5 19 -5 25
-1 10 9 65 20 125 26 19 2 62 8 95 14 92 14 135 13 135 -3 0 -18 77 -35 185
-39 44 -2 93 -9 108 -16 16 -6 30 -11 33 -11 2 0 14 -10 25 -21 18 -18 20 -25
11 -40 -12 -19 -6 -49 8 -49 5 0 12 -9 15 -20 3 -11 13 -20 21 -20 11 0 14
-19 14 -97 0 -54 -5 -105 -10 -113 -9 -13 -10 -13 -10 0 0 11 -4 10 -12 -4 -8
-15 -8 -21 0 -24 7 -2 12 -21 12 -43 0 -28 4 -39 15 -39 16 0 19 -9 9 -34 -8
-21 -22 -20 -26 2 -3 11 -13 -1 -30 -35 -14 -29 -21 -53 -17 -53 5 0 9 5 9 10
0 6 7 10 15 10 8 0 15 5 15 12 0 6 3 8 6 5 4 -4 -10 -41 -31 -84 -20 -42 -40
-94 -43 -115 -5 -40 -16 -49 -26 -21 -5 13 -9 14 -19 4 -9 -9 -9 -14 1 -20 13
-8 7 -41 -7 -41 -11 0 -31 -47 -31 -70 0 -11 5 -20 10 -20 6 0 10 -7 10 -15 0
-8 -4 -15 -10 -15 -5 0 -10 7 -10 15 0 9 -7 18 -16 22 -18 7 -63 -42 -64 -69
0 -10 -4 -18 -10 -18 -5 0 -10 -13 -10 -29 0 -16 -6 -32 -12 -35 -10 -5 -10
-7 0 -12 6 -3 12 -12 12 -20 0 -8 10 -14 25 -14 14 0 25 -4 25 -10 0 -5 -9
-10 -21 -10 -14 0 -24 -10 -32 -30 -8 -21 -18 -30 -34 -30 -25 0 -29 -10 -11
-28 9 -9 9 -15 0 -24 -9 -9 -12 -8 -12 5 0 17 -11 22 -23 10 -9 -9 22 -43 40
-43 16 0 17 -14 2 -41 -5 -11 -14 -17 -20 -14 -5 4 -9 -1 -9 -9 0 -9 5 -16 10
-16 6 0 10 -4 10 -10 0 -5 -9 -10 -20 -10 -14 0 -22 -11 -30 -40 -14 -52 -5
-84 21 -77 12 3 19 0 19 -9 0 -8 5 -14 11 -14 19 0 69 -58 69 -80 0 -12 -13
-35 -30 -52 -16 -16 -30 -38 -30 -49 0 -10 -4 -19 -10 -19 -5 0 -10 -9 -10
-20 0 -11 5 -20 10 -20 6 0 10 9 10 20 0 18 7 20 70 20 63 0 70 -2 70 -20 0
-11 -4 -20 -10 -20 -16 0 -11 -27 6 -34 9 -3 31 -6 50 -6 31 0 34 3 34 30 0
28 2 30 40 30 l40 0 0 -50 c0 -29 5 -50 11 -50 6 0 25 -14 42 -31 28 -29 32
-30 43 -14 7 9 17 14 22 11 13 -8 22 -46 11 -46 -4 0 -6 -7 -3 -15 4 -8 9 -15
13 -15 4 0 27 -18 51 -40 24 -22 53 -40 66 -40 12 0 24 -7 28 -15 3 -8 12 -15
21 -15 11 0 15 11 15 40 0 39 1 40 36 40 42 0 64 -19 64 -56 0 -25 2 -26 40
-21 30 4 40 2 40 -9 0 -18 -76 -19 -84 -1 -5 10 -7 10 -12 0 -3 -7 -13 -13
-22 -13 -12 0 -13 -3 -4 -12 7 -7 32 -11 57 -9 36 2 45 -1 45 -14 0 -22 32 -4
50 29 12 23 11 28 -3 44 -23 25 -21 48 4 73 l20 20 21 -26 c18 -23 27 -26 57
-22 20 3 30 3 24 0 -27 -10 -11 -23 27 -23 22 0 40 5 40 10 0 6 -6 10 -12 10
-7 0 -4 6 6 12 15 8 21 8 24 0 2 -7 11 -12 20 -12 15 1 15 2 0 11 -10 5 -18
19 -18 29 0 10 8 24 18 29 16 10 16 10 0 11 -11 0 -18 8 -18 19 0 14 10 20 41
24 30 4 49 14 70 39 21 25 28 29 29 16 0 -10 5 -18 10 -18 6 0 10 -7 10 -15 0
-8 9 -15 20 -15 11 0 20 7 20 15 0 8 9 15 20 15 17 0 20 7 20 40 0 22 -4 40
-10 40 -16 0 -11 21 10 44 35 37 72 73 90 88 14 12 16 24 10 68 -6 45 -4 56
13 73 15 15 21 16 27 7 6 -10 14 -6 33 13 13 15 29 27 36 27 6 0 11 5 11 11 0
14 55 69 69 69 6 0 11 7 11 15 0 8 6 25 13 36 10 17 10 23 0 26 -19 7 -17 83
2 83 20 0 20 44 -1 64 -8 9 -19 16 -22 16 -4 0 -13 9 -20 20 -11 18 -10 25 8
49 11 16 20 43 20 60 0 22 5 31 16 31 14 0 15 10 9 80 -6 67 -5 80 8 80 10 0
16 17 21 63 3 34 11 64 16 65 13 5 13 32 1 32 -5 0 -12 -6 -14 -12 -13 -32
-27 24 -27 110 0 73 -3 94 -15 98 -8 4 -15 15 -15 25 0 15 7 19 40 19 38 0 40
-1 41 -32 1 -18 3 -25 6 -16 6 22 33 12 33 -13 0 -12 7 -19 19 -19 11 0 22 -6
24 -12 7 -17 25 7 33 44 8 34 35 60 42 40 6 -20 51 -34 84 -27 30 7 39 35 11
35 -16 1 -16 2 2 16 11 8 26 12 35 8 8 -3 24 -7 35 -9 35 -4 65 -17 66 -29 1
-6 5 0 9 14 5 17 8 19 9 8 1 -26 28 -22 35 5 6 22 6 22 24 -6 10 -17 23 -26
33 -24 9 3 28 -6 42 -19 15 -13 33 -24 42 -24 8 0 15 -7 15 -15 0 -8 9 -15 20
-15 25 0 57 -18 86 -47 12 -13 26 -23 32 -23 6 0 17 -9 25 -20 8 -11 21 -18
28 -15 8 3 29 -10 48 -31 22 -23 36 -31 41 -24 5 7 27 -9 64 -47 31 -32 56
-61 56 -65 0 -16 29 -7 33 10 3 9 5 2 6 -15 1 -30 4 -33 31 -33 17 0 30 2 30
4 0 13 -26 76 -42 98 -10 14 -18 33 -18 42 0 9 -6 16 -13 16 -7 0 -23 14 -37
32 -14 17 -35 42 -47 55 -13 13 -23 29 -23 36 0 7 -9 18 -20 25 -11 7 -20 17
-20 23 0 6 -6 16 -12 23 -7 7 -31 34 -53 61 -22 27 -51 58 -65 69 -13 12 -36
32 -50 46 -14 14 -47 43 -75 65 -27 21 -52 42 -55 45 -3 3 -17 11 -32 19 -15
8 -37 22 -47 33 -11 10 -24 18 -29 18 -5 0 -45 34 -88 75 -118 112 -121 115
-132 115 -5 0 -26 16 -45 35 -19 19 -42 35 -50 35 -8 0 -20 7 -28 16 -7 8 -29
24 -50 34 -20 11 -39 23 -41 28 -8 21 -99 80 -116 75 -12 -3 -33 10 -61 36
-24 23 -47 41 -52 41 -5 0 -9 9 -9 21 0 31 -18 59 -39 59 -16 0 -41 37 -41 61
0 10 -9 22 -40 57 -21 23 -40 68 -40 95 0 28 -50 105 -122 190 -27 30 -32 42
-29 60 1 5 -17 30 -39 57 -22 26 -40 53 -40 58 0 6 -20 25 -45 42 -32 22 -45
27 -45 16z m-1555 -1086 c-3 -5 -12 -10 -18 -10 -7 0 -6 4 3 10 19 12 23 12
15 0z m2150 -420 c3 -5 -1 -10 -9 -10 -9 0 -16 5 -16 10 0 6 4 10 9 10 6 0 13
-4 16 -10z m-1495 -690 c0 -5 -7 -10 -15 -10 -8 0 -15 5 -15 10 0 6 7 10 15
10 8 0 15 -4 15 -10z m970 -780 c0 -11 -4 -20 -10 -20 -14 0 -12 -38 3 -43 7
-2 8 -8 3 -13 -5 -5 -11 -4 -13 4 -3 6 -11 12 -19 12 -18 0 -18 24 1 40 8 7
15 19 15 26 0 8 5 14 10 14 6 0 10 -9 10 -20z"/>
<path d="M14724 20926 c0 -19 5 -38 9 -43 5 -4 8 -3 7 2 -5 23 1 36 13 29 6
-4 3 3 -8 17 -11 13 -20 25 -21 27 -1 2 -1 -13 0 -32z"/>
<path d="M14758 20888 c7 -9 8 -19 2 -28 -13 -20 -13 -82 0 -114 7 -19 6 -26
-3 -26 -12 0 -37 -44 -37 -67 0 -7 -4 -13 -9 -13 -5 0 -13 -17 -18 -38 -11
-41 -2 -80 21 -97 28 -21 8 -59 -42 -80 -30 -12 -41 -21 -29 -23 13 -3 17 -13
17 -43 0 -37 -2 -40 -22 -33 -20 6 -21 5 -6 -10 18 -18 48 -22 48 -6 0 6 9 10
20 10 11 0 20 -4 20 -10 0 -5 -9 -10 -20 -10 -18 0 -20 -7 -20 -87 0 -105 -20
-293 -32 -293 -12 0 -10 -94 3 -107 7 -7 0 -25 -22 -61 -34 -55 -53 -152 -30
-152 7 0 9 -4 6 -10 -3 -5 -15 -10 -26 -10 -25 0 -24 -10 6 -42 14 -15 25 -34
25 -43 0 -9 5 -26 12 -38 11 -21 11 -21 20 -2 6 16 7 14 3 -7 -4 -22 -1 -27
17 -30 19 -2 23 -10 24 -38 1 -61 14 -100 33 -100 24 0 43 -43 46 -107 3 -38
0 -53 -11 -57 -16 -6 -20 -71 -4 -81 6 -3 10 -19 10 -35 0 -16 5 -32 10 -35 7
-4 6 -13 -1 -26 -6 -12 -7 -25 -1 -32 16 -21 11 -55 -11 -79 -171 -187 -227
-263 -212 -288 8 -13 85 -9 128 6 22 8 43 12 47 9 5 -3 26 3 47 14 44 22 93
43 143 62 19 7 41 17 48 22 7 5 31 20 55 33 109 61 159 84 199 90 24 3 53 13
66 21 12 7 27 11 33 7 6 -3 21 -1 32 4 12 6 47 23 77 37 74 34 113 57 123 73
4 6 18 12 31 12 13 0 34 10 47 21 62 54 107 89 116 89 5 0 18 9 28 20 10 11
24 20 30 20 7 0 18 7 25 15 7 8 16 13 20 10 4 -3 14 2 21 11 8 10 21 13 36 9
13 -3 23 -2 23 3 0 5 22 19 50 32 27 13 57 32 67 42 9 10 22 18 28 18 7 0 18
7 25 15 7 9 49 38 93 65 43 27 94 63 113 80 19 16 54 43 80 59 25 16 58 42 73
58 15 16 32 28 38 26 6 -2 13 3 16 12 5 13 -6 15 -77 15 -177 0 -463 55 -551
105 -73 42 -248 234 -616 675 -147 176 -272 324 -338 400 -17 19 -31 38 -31
41 0 4 -8 10 -17 13 -13 5 -11 0 7 -21 l25 -28 -27 24 c-15 13 -24 29 -22 36
6 15 -29 38 -40 27 -4 -3 -4 1 -1 10 4 9 -3 25 -17 39 -25 26 -60 40 -40 17z
m90 -133 c-3 -3 -9 2 -12 12 -6 14 -5 15 5 6 7 -7 10 -15 7 -18z m-24 -1 c3
-8 2 -12 -4 -9 -6 3 -10 10 -10 16 0 14 7 11 14 -7z m-97 -616 c-3 -8 -6 -5
-6 6 -1 11 2 17 5 13 3 -3 4 -12 1 -19z"/>
<path d="M18060 20181 c0 -5 7 -11 14 -14 10 -4 13 -1 9 9 -6 15 -23 19 -23 5z"/>
<path d="M17810 20139 c0 -8 7 -24 15 -35 19 -25 19 -14 0 22 -8 16 -15 22
-15 13z"/>
<path d="M17790 20111 c0 -6 4 -13 10 -16 6 -3 7 1 4 9 -7 18 -14 21 -14 7z"/>
<path d="M14631 20064 c0 -11 3 -14 6 -6 3 7 2 16 -1 19 -3 4 -6 -2 -5 -13z"/>
<path d="M20393 19185 c-17 -18 -16 -33 1 -51 22 -21 26 -17 26 26 0 42 -7 48
-27 25z"/>
<path d="M18746 18945 c-6 -16 9 -21 19 -5 3 5 12 7 20 3 8 -3 15 0 15 6 0 17
-47 13 -54 -4z"/>
<path d="M19716 18145 c4 -9 15 -20 25 -26 16 -8 19 -6 19 16 0 20 -5 25 -25
25 -18 0 -23 -4 -19 -15z"/>
</g>
</svg>
