<?xml version="1.0" standalone="no"?>
<!DOCTYPE svg PUBLIC "-//W3C//DTD SVG 20010904//EN"
 "http://www.w3.org/TR/2001/REC-SVG-20010904/DTD/svg10.dtd">
<svg version="1.0" xmlns="http://www.w3.org/2000/svg"
 width="3000.000000pt" height="2000.000000pt" viewBox="0 0 3000.000000 2000.000000"
 preserveAspectRatio="xMidYMid meet">

<g transform="translate(0.000000,2000.000000) scale(0.100000,-0.100000)"
fill="#000000" stroke="none">
<path d="M5830 17779 c-236 -34 -440 -220 -495 -450 -13 -57 -15 -751 -15
-6281 0 -3420 -2 -6218 -4 -6218 -2 0 -11 44 -21 98 -79 462 -269 1368 -409
1957 -30 129 -50 232 -45 234 6 1 4 8 -4 15 -8 6 -42 126 -77 266 -174 714
-409 1574 -646 2358 l-94 313 32 46 c37 52 28 38 166 243 220 329 397 564 650
862 51 60 98 116 105 125 7 8 29 34 49 57 20 22 58 66 84 96 27 30 54 54 60
54 7 -1 10 5 7 14 -5 11 -3 13 7 7 8 -5 11 -4 6 3 -3 6 -2 13 4 17 6 4 8 11 4
16 -7 12 -182 -165 -325 -331 -213 -245 -358 -429 -507 -640 -94 -135 -281
-429 -318 -502 -14 -27 -27 -48 -28 -46 -2 1 -38 113 -80 248 -43 135 -123
385 -178 555 -127 391 -205 623 -393 1155 -43 122 -236 635 -311 825 -41 105
-80 203 -86 218 -6 15 -13 26 -15 23 -6 -5 14 -62 92 -271 31 -82 76 -204 100
-270 24 -66 71 -196 105 -290 245 -673 576 -1674 794 -2400 121 -404 138 -466
134 -471 -3 -2 -63 46 -134 107 -210 182 -233 202 -228 210 2 4 -1 11 -7 15
-8 4 -9 3 -5 -4 15 -25 -9 -9 -89 59 -47 40 -82 77 -78 82 3 6 1 7 -5 3 -6 -4
-26 6 -44 23 -18 16 -65 56 -105 88 -39 32 -167 137 -284 233 -116 96 -241
198 -278 226 -36 29 -65 57 -63 64 1 6 -2 9 -6 6 -5 -3 -63 37 -128 89 -135
107 -179 126 -77 33 59 -53 489 -419 627 -533 27 -22 57 -47 68 -57 10 -9 38
-31 60 -50 60 -47 172 -141 178 -148 4 -4 198 -161 330 -267 8 -6 53 -42 100
-80 47 -38 107 -85 134 -106 27 -20 45 -37 40 -37 -5 0 -3 -4 4 -9 13 -8 98
-288 90 -296 -2 -2 -98 25 -213 61 -666 207 -1653 490 -1679 481 -10 -4 316
-113 504 -169 286 -86 338 -103 334 -110 -3 -4 2 -5 10 -2 9 3 86 -15 173 -41
293 -87 347 -103 599 -174 138 -39 258 -71 266 -71 18 0 31 -40 127 -385 140
-505 381 -1441 381 -1479 0 -14 -3 -16 -13 -8 -63 53 -636 300 -917 396 -74
25 -144 50 -155 55 -28 13 -253 82 -420 130 -281 80 -762 186 -809 179 -12 -2
96 -32 239 -67 479 -117 891 -243 1300 -396 288 -109 369 -142 359 -147 -5 -3
-4 -3 3 -2 13 3 375 -150 369 -157 -2 -2 7 -5 20 -5 14 -1 28 -5 31 -8 24 -24
453 -1969 438 -1984 -2 -2 -11 11 -21 29 -31 61 -108 173 -183 267 -427 538
-1146 912 -1932 1007 -74 9 -164 15 -200 13 -57 -3 -51 -4 66 -16 180 -19 529
-85 566 -107 3 -2 -40 -51 -95 -107 -87 -88 -256 -275 -337 -372 -13 -16 -31
-37 -39 -45 -24 -27 -103 -122 -125 -152 -11 -15 -65 -85 -120 -156 -55 -70
-115 -150 -134 -178 -19 -27 -39 -53 -45 -57 -6 -4 -8 -8 -3 -8 4 0 0 -12 -10
-27 l-17 -28 23 20 c13 11 46 49 75 85 67 85 79 100 91 114 6 6 28 34 50 61
39 49 131 160 264 319 79 96 199 234 289 335 36 40 86 98 111 127 25 30 52 54
60 54 86 0 650 -237 747 -315 l27 -21 -37 -222 c-72 -439 -147 -993 -145
-1072 l1 -45 9 35 c28 112 134 805 175 1148 10 78 20 142 24 142 14 0 157 -98
260 -179 186 -145 393 -363 511 -538 105 -155 106 -157 149 -386 l40 -213 0
-386 c0 -240 -4 -406 -11 -438 l-11 -50 -944 0 -944 0 0 -380 0 -380 28 0 c15
0 73 -8 128 -17 l102 -17 31 -101 c223 -717 279 -890 288 -888 38 8 1523 13
1821 6 200 -4 366 -5 368 -1 3 4 54 164 115 355 60 191 133 419 160 507 l51
158 3386 -7 c1863 -4 3390 -10 3393 -14 27 -26 69 -342 69 -512 0 -488 -163
-914 -474 -1236 -155 -161 -269 -251 -470 -370 l-90 -53 -5060 -2 c-3111 -1
-4585 -5 -3826 -9 1610 -8 21556 -8 23150 0 808 5 -248 8 -3105 9 l-4330 2
-140 70 c-520 256 -889 651 -1034 1104 -90 280 -99 625 -26 940 8 32 15 59 17
61 2 1 1637 7 3633 12 l3630 8 65 24 c157 56 275 160 345 306 24 50 49 117 54
149 8 42 11 2110 11 6890 0 5941 -2 6840 -15 6900 -43 204 -194 370 -400 443
l-80 28 -9660 1 c-5313 1 -9685 -2 -9715 -7z m19358 -278 c56 -25 118 -87 148
-149 18 -36 19 -211 27 -5491 4 -2999 6 -5455 4 -5457 -4 -4 -9899 -6 -9902
-2 -2 2 0 1034 3 2295 l5 2292 4885 0 c2687 0 4887 3 4890 6 3 3 -862 5 -1922
5 l-1927 0 6 43 c3 23 21 204 40 401 19 198 37 361 39 364 5 4 134 32 635 137
194 41 355 76 357 78 2 2 -1 19 -5 38 -5 19 -17 68 -26 110 l-16 77 -71 -19
c-182 -48 -855 -189 -900 -189 -32 0 -16 10 43 26 98 26 541 122 709 154 91
17 176 33 189 36 21 5 23 8 17 47 -15 96 -142 584 -191 734 -92 281 -129 334
-288 411 -76 37 -229 91 -303 106 l-31 7 -7 132 c-3 72 -17 228 -30 347 -13
118 -29 278 -35 355 -6 77 -24 246 -40 375 -16 129 -35 303 -41 385 -18 227
-45 312 -136 441 -106 150 -365 344 -548 411 -114 42 -180 51 -528 70 -103 5
-167 -10 -270 -64 -215 -112 -359 -353 -437 -728 -95 -460 -158 -1091 -178
-1790 l-6 -230 -96 -45 c-124 -58 -228 -128 -284 -190 -83 -92 -153 -252 -202
-463 l-28 -117 43 -110 c33 -85 47 -109 59 -106 26 8 222 35 273 37 26 2 50 0
54 -3 14 -14 -159 -46 -269 -49 -32 -1 -60 -5 -62 -9 -2 -4 8 -38 24 -76 16
-38 47 -118 71 -179 48 -125 103 -269 104 -272 1 -1 68 7 150 18 82 10 152 17
156 14 8 -5 11 -13 155 -428 53 -154 95 -280 93 -282 -6 -6 -148 -6 -2130 1
l-1988 7 -1 1686 c-1 927 -5 2143 -8 2701 -5 771 -7 367 -9 -1686 l-2 -2701
-1957 -6 c-1077 -4 -3258 -8 -4848 -9 -2429 -3 -2117 -4 1955 -8 l4845 -5 0
-2294 0 -2293 -1024 1 c-564 1 -1026 3 -1027 4 -1 1 -41 115 -88 252 -118 337
-114 328 -148 369 -52 63 -107 91 -358 180 -135 49 -300 108 -367 132 -244 87
-369 132 -405 145 -20 7 -139 95 -265 195 -125 101 -229 182 -230 180 -1 -1
54 -130 122 -286 l125 -285 0 -441 0 -441 -717 -5 c-395 -3 -719 -4 -720 -4
-1 1 -18 105 -38 231 -20 127 -58 369 -85 539 l-50 308 115 226 c63 125 113
228 111 229 -1 2 -102 -66 -224 -150 l-222 -152 -168 -58 c-269 -95 -707 -254
-844 -308 -122 -48 -130 -53 -181 -112 -90 -104 -310 -409 -482 -667 -27 -41
-51 -77 -53 -80 -1 -2 -577 -3 -1280 -2 l-1277 1 0 5423 0 5423 27 57 c51 110
156 195 268 217 26 5 4184 8 9610 7 l9565 -1 53 -24z m-5115 -1705 c40 -125
142 -278 320 -478 l68 -77 -35 -15 c-61 -26 -48 -38 54 -51 41 -5 54 -14 130
-91 156 -157 216 -192 376 -217 76 -12 80 -12 113 10 49 33 110 31 152 -4 41
-35 59 -79 59 -146 0 -86 -24 -149 -73 -193 -23 -21 -46 -52 -52 -68 -14 -41
-56 -57 -85 -31 -11 10 -20 26 -20 37 0 10 -4 18 -8 18 -5 0 -12 -71 -15 -157
-4 -87 -20 -276 -36 -419 -38 -330 -66 -424 -177 -580 -86 -122 -179 -183
-318 -210 -76 -15 -100 -16 -171 -6 -116 17 -168 37 -226 89 -119 108 -166
309 -128 552 6 40 9 74 7 75 -1 1 -29 15 -61 30 -32 15 -86 53 -119 84 -201
186 -242 424 -178 1046 37 365 55 449 125 585 40 78 110 168 159 206 34 26
104 65 116 65 4 0 14 -24 23 -54z m-128 -2502 c-60 -22 -465 -130 -670 -179
-221 -52 -263 -60 -250 -47 13 13 351 106 640 177 276 67 255 63 290 63 29 1
28 0 -10 -14z m2335 -482 c0 -9 -19 -15 -315 -92 -284 -73 -502 -122 -524
-117 -22 5 93 39 364 107 189 48 435 105 468 109 4 1 7 -3 7 -7z m-870 -31
c-33 -19 -1678 -230 -2150 -276 -36 -3 -83 -8 -105 -11 -53 -6 -25 11 31 19
348 53 2088 269 2219 275 16 1 17 0 5 -7z m-32 -846 c-7 -7 -313 -31 -703 -55
-446 -27 -499 -30 -580 -36 -129 -9 -658 -34 -714 -34 -30 0 -52 3 -48 6 7 7
242 27 512 43 99 6 203 13 230 16 28 2 109 7 180 10 72 3 139 8 150 10 11 2
97 7 190 11 94 3 172 8 175 9 3 2 93 6 200 10 107 4 197 9 199 11 7 6 215 5
209 -1z m-31 -681 c-3 -3 -167 -17 -364 -30 -459 -30 -505 -33 -643 -45 -333
-27 -764 -58 -768 -55 -8 8 37 16 213 35 363 41 805 76 1110 87 94 4 172 8
174 10 7 7 285 4 278 -2z m-5845 -4915 c185 -40 308 -195 308 -390 0 -161
-103 -307 -260 -365 -69 -26 -201 -24 -271 4 -111 44 -198 137 -234 251 -26
79 -17 208 18 281 36 75 83 128 150 168 95 57 184 73 289 51z m-820 -99 c59
-17 120 -69 151 -129 103 -204 -85 -432 -304 -368 -69 21 -117 61 -154 128
-24 44 -29 66 -29 119 1 75 18 121 65 175 64 72 172 102 271 75z m1594 -5
c110 -33 189 -144 187 -265 -4 -286 -391 -381 -520 -126 -58 115 -35 246 58
330 80 72 171 92 275 61z"/>
<path d="M6235 17149 c-108 -31 -128 -191 -32 -249 90 -55 210 10 210 113 0
61 -26 105 -76 128 -46 20 -57 21 -102 8z"/>
<path d="M6630 17138 c-138 -70 -80 -273 72 -256 56 6 91 31 114 80 54 120
-68 236 -186 176z"/>
<path d="M7022 17140 c-77 -35 -103 -138 -51 -204 64 -82 197 -71 235 19 52
126 -62 242 -184 185z"/>
<path d="M6202 16099 c-75 -37 -108 -105 -93 -188 30 -154 237 -192 315 -59
53 91 21 204 -70 248 -52 26 -98 25 -152 -1z"/>
<path d="M16201 16098 c-73 -36 -108 -115 -87 -196 14 -56 38 -87 88 -113 69
-35 163 -16 213 43 10 13 24 43 31 68 21 84 -14 160 -92 200 -52 26 -98 25
-153 -2z"/>
<path d="M6568 15913 c7 -3 16 -2 19 1 4 3 -2 6 -13 5 -11 0 -14 -3 -6 -6z"/>
<path d="M6700 15910 c119 -10 516 -10 675 0 74 4 -51 7 -325 7 -264 0 -406
-3 -350 -7z"/>
<path d="M16568 15913 c7 -3 16 -2 19 1 4 3 -2 6 -13 5 -11 0 -14 -3 -6 -6z"/>
<path d="M16705 15909 c112 -9 510 -9 670 1 74 4 -48 7 -320 7 -261 0 -403 -3
-350 -8z"/>
<path d="M10851 15785 c-71 -20 -144 -60 -201 -112 -45 -41 -101 -131 -114
-184 l-6 -26 -51 25 c-63 31 -166 34 -249 7 -140 -45 -212 -149 -274 -395 -39
-155 -58 -210 -86 -255 -41 -66 -17 -117 45 -97 19 5 35 9 35 7 0 -1 -7 -19
-15 -38 -8 -20 -15 -39 -15 -43 0 -4 29 -4 63 -2 l64 5 36 -141 c20 -77 39
-152 43 -165 5 -16 4 -22 -3 -18 -17 11 -79 -20 -107 -53 -32 -39 -48 -97 -48
-175 0 -75 24 -136 68 -175 40 -34 128 -63 182 -58 l37 3 -4 -423 -4 -424 29
-25 c176 -152 475 -248 699 -222 124 14 228 76 294 176 26 38 31 56 31 104 0
59 10 76 42 71 40 -7 238 76 238 100 0 5 4 7 8 4 5 -3 35 22 67 54 33 33 56
60 52 60 -4 0 1 10 13 22 11 12 21 25 21 30 3 18 5 24 17 45 33 60 42 151 53
536 l11 389 69 129 c38 71 69 133 69 137 0 5 6 16 13 26 11 15 17 16 39 6 54
-25 123 44 99 98 -15 32 -14 33 13 26 39 -9 94 14 111 46 19 37 19 74 0 94
-22 21 -20 23 33 30 97 13 165 76 141 130 -15 32 -46 43 -149 51 -107 7 -187
28 -267 68 -51 25 -74 45 -122 106 -115 149 -292 310 -411 374 -105 57 -209
79 -395 83 -121 3 -173 0 -214 -11z"/>
<path d="M6251 10350 c-66 -15 -119 -72 -128 -138 -16 -117 54 -203 166 -204
140 -1 223 149 149 270 -33 54 -119 87 -187 72z"/>
<path d="M16245 10350 c-46 -10 -72 -27 -102 -66 -36 -48 -43 -133 -15 -184
75 -137 281 -115 323 34 34 124 -80 245 -206 216z"/>
<path d="M6680 10150 c-25 -4 137 -7 360 -7 229 0 383 3 355 7 -62 10 -653 10
-715 0z"/>
<path d="M16655 10150 c-33 -4 136 -7 375 -7 250 0 407 3 370 7 -78 10 -661 9
-745 0z"/>
<path d="M20433 10114 c-311 -50 -549 -221 -672 -484 -86 -184 -111 -365 -92
-675 12 -197 29 -350 51 -450 10 -48 50 -185 53 -185 1 0 3 134 4 298 1 380
16 624 43 720 59 211 212 397 404 491 123 60 120 60 135 1 31 -120 128 -216
301 -297 110 -52 147 -90 162 -169 28 -150 40 -170 129 -214 80 -41 128 -86
154 -145 29 -64 34 -97 45 -280 10 -179 25 -229 87 -294 l44 -46 -1 -90 c-2
-123 -3 -117 18 -104 16 10 25 6 60 -33 23 -24 65 -58 94 -74 48 -26 62 -29
143 -29 83 0 96 3 165 36 126 60 244 187 309 331 41 90 54 159 49 244 -9 132
-93 260 -205 311 -48 22 -65 25 -130 21 l-75 -5 6 29 c3 16 9 98 12 181 5 119
3 168 -10 226 -28 132 -106 269 -220 390 -141 147 -286 231 -490 282 -110 28
-436 35 -573 13z"/>
<path d="M10905 9453 c-26 -5 -72 -40 -63 -48 3 -3 33 -1 66 6 54 11 66 11
127 -10 37 -12 70 -19 73 -16 9 9 -31 47 -65 61 -31 13 -93 16 -138 7z"/>
<path d="M11641 9428 c-69 -37 -64 -64 6 -37 41 15 124 13 168 -5 46 -19 45
-19 45 -2 0 23 -66 57 -122 63 -43 4 -61 0 -97 -19z"/>
<path d="M11390 9405 c0 -18 121 -382 165 -496 25 -64 18 -76 -52 -84 -92 -12
-100 -27 -11 -22 43 2 84 10 93 17 30 25 18 72 -105 396 -65 169 -89 221 -90
189z"/>
<path d="M19905 9324 c-33 -19 -46 -34 -42 -49 2 -6 56 -10 130 -11 138 -2
148 3 102 46 -34 32 -143 40 -190 14z"/>
<path d="M20608 9284 c-38 -16 -57 -42 -35 -49 27 -8 257 -12 257 -4 0 16 -44
49 -79 59 -50 14 -100 12 -143 -6z"/>
<path d="M10940 9270 c-25 -25 -26 -72 -2 -93 25 -23 75 -21 97 3 56 62 -36
149 -95 90z"/>
<path d="M11667 9250 c-64 -51 -4 -144 70 -108 23 11 29 21 31 54 3 44 -7 58
-48 69 -18 4 -34 0 -53 -15z"/>
<path d="M20281 8995 c-78 -161 -161 -359 -161 -383 0 -34 37 -52 105 -51 67
1 65 3 -17 19 -46 9 -58 15 -58 30 0 10 25 76 56 147 83 189 135 324 131 336
-2 6 -27 -38 -56 -98z"/>
<path d="M19863 8983 c4 -6 29 -13 56 -17 27 -3 75 -20 107 -36 59 -29 86 -31
49 -3 -46 34 -102 56 -158 61 -40 3 -58 2 -54 -5z"/>
<path d="M20666 8945 c-33 -13 -71 -36 -85 -51 l-26 -26 55 28 c30 15 89 38
130 50 75 23 75 23 30 23 -25 0 -71 -10 -104 -24z"/>
<path d="M11229 8698 c-59 -95 40 -246 145 -222 l31 7 -39 9 c-48 10 -92 41
-111 78 -19 37 -19 63 0 100 17 32 20 32 132 -14 121 -51 133 -39 19 19 -60
30 -120 55 -133 55 -15 0 -30 -11 -44 -32z"/>
<path d="M20468 8480 c-33 -71 -114 -129 -180 -130 -39 0 -35 -17 5 -23 45 -7
120 10 146 34 33 31 52 77 49 117 l-4 37 -16 -35z"/>
<path d="M19846 15309 c-43 -10 -81 -38 -69 -50 13 -11 273 -21 273 -10 0 19
-52 50 -101 60 -27 6 -53 11 -57 10 -4 -1 -25 -5 -46 -10z"/>
<path d="M19830 15113 c-20 -7 -50 -34 -50 -44 0 -4 15 -3 32 2 48 13 114 11
155 -6 19 -8 40 -15 46 -15 15 0 -24 40 -55 56 -27 14 -99 18 -128 7z"/>
<path d="M20176 15063 c-32 -56 -180 -369 -190 -400 -13 -40 9 -61 68 -68 77
-10 92 0 23 14 -32 7 -61 19 -64 26 -2 8 10 45 27 82 109 228 174 382 167 390
-3 2 -17 -17 -31 -44z"/>
<path d="M20485 15053 c-25 -5 -72 -40 -64 -47 3 -3 30 0 61 6 50 10 62 9 112
-9 51 -19 57 -19 54 -5 -7 36 -101 68 -163 55z"/>
<path d="M19883 14989 c-26 -9 -41 -55 -26 -78 15 -23 60 -37 80 -25 66 41 18
130 -54 103z"/>
<path d="M20467 14922 c-25 -27 -21 -69 7 -87 29 -19 72 -11 87 16 30 57 -51
118 -94 71z"/>
<path d="M20190 14455 c-65 -18 -77 -23 -50 -24 19 0 63 5 98 13 58 12 64 11
72 -5 6 -10 10 -36 10 -58 0 -49 -24 -75 -89 -95 -38 -11 -41 -14 -19 -15 45
-2 102 27 122 60 21 35 17 86 -9 125 -18 28 -24 28 -135 -1z"/>
<path d="M3995 1955 c7 -22 25 -80 40 -130 15 -49 69 -225 120 -390 51 -165
110 -353 130 -418 l36 -117 752 2 751 3 143 450 c79 248 141 455 139 460 -2 6
-63 8 -172 4 -254 -9 -1856 -2 -1879 7 -14 6 11 11 80 15 144 8 1619 9 1816 1
l167 -7 22 70 c13 39 24 75 26 80 3 7 -365 10 -1090 10 l-1094 0 13 -40z"/>
</g>
</svg>
