<?xml version="1.0" encoding="utf-8"?>
<!-- Generator: Adobe Illustrator 27.5.0, SVG Export Plug-In . SVG Version: 6.00 Build 0)  -->
<svg version="1.1" id="Capa_1" xmlns="http://www.w3.org/2000/svg" xmlns:xlink="http://www.w3.org/1999/xlink" x="0px" y="0px"
	 viewBox="0 0 453.543 453.544" style="enable-background:new 0 0 453.543 453.544;" xml:space="preserve">
<rect y="0" style="fill:#FFFFFF;" width="453.543" height="453.544"/>
<path style="fill:#A7DEF1;" d="M393.977,332.639c19.816-18.706,32.5-44.923,30.512-72.826
	c-4.025-56.472-74.684-58.401-96.092-102.573c-11.324-23.363-4.199-51.309-18.42-74.031c-15.301-24.445-47.328-49.225-77.816-39.379
	c-38.725,12.505-26.918,73.219-69.766,82.584c-27.582,6.03-55.502-0.703-83.227-0.416c-54.217,0.559-60.42,73.33-38.463,109.594
	c20.105,33.204,53.232,56.584,92.967,55.127c34.967-1.281,86.785-45.035,117.891-12.277c7.963,8.387,6.955,22.537,6.49,32.982
	c-1.148,25.734,14.273,38.216,37.418,44.84c28.141,8.057,53.635,5.85,79.061-9.039C381.516,343.136,388.065,338.222,393.977,332.639
	z"/>
<g>
	<g>
		<path style="fill:#E5C7C0;" d="M380.836,414.676c0,4.389-29.254,7.947-65.336,7.947c-36.088,0-65.336-3.559-65.336-7.947
			c0-4.391,29.248-7.949,65.336-7.949C351.582,406.727,380.836,410.285,380.836,414.676z"/>
		<g>
			<path style="fill:#676C7B;" d="M297.732,86.378c0,0,0.599,14.875,2.632,22.93l4.903-24.113L297.732,86.378z"/>
			<g>
				<path style="fill:#F8B78F;" d="M348.724,158.132c-10.134,8.299-15.603,1.406-15.603,1.406
					c-6.469-6.385,0.976-14.234,0.976-14.234s24.368-24.211,34.263-95.122l5.158,0.146
					C373.518,50.327,376.956,112.862,348.724,158.132z"/>
				<g>
					<path style="fill:#F8B78F;" d="M377.38,41.071c0,0-0.702,2.885-3.862,9.256l-5.158-0.146l-3.023-8.187l-0.756-8.036
						l3.949,4.635l2.549-7.673l1.45,1.367l2.62-0.738c0.979,3.209,2.873,6.188,2.873,6.188L377.38,41.071z"/>
				</g>
				<path style="fill:#222B45;" d="M332.773,143.007c0,0-11.465,14.9,0,24.933c0,0,10.771,7.919,14.678-2.372l14.362-27.228
					c0,0-9.126-12.794-19.185-11.637L332.773,143.007z"/>
			</g>
			<g>
				<path style="fill:#F8B78F;" d="M287.764,158.132c10.133,8.299,15.602,1.406,15.602,1.406c6.469-6.385-0.975-14.234-0.975-14.234
					s-24.368-24.211-34.264-95.122l-5.158,0.146C262.969,50.327,259.531,112.862,287.764,158.132z"/>
				<g>
					<path style="fill:#F8B78F;" d="M259.107,41.071c0,0,0.701,2.885,3.861,9.256l5.158-0.146l3.024-8.187l0.755-8.036l-3.948,4.635
						l-2.55-7.673l-1.449,1.367l-2.621-0.738c-0.978,3.209-2.873,6.188-2.873,6.188L259.107,41.071z"/>
				</g>
				<path style="fill:#222B45;" d="M303.714,143.007c0,0,11.464,14.9,0,24.933c0,0-10.771,7.919-14.679-2.372l-14.361-27.228
					c0,0,9.126-12.794,19.184-11.637L303.714,143.007z"/>
			</g>
			<g>
				<g>
					<rect x="300.906" y="398.609" style="fill:#F8B78F;" width="7" height="9.184"/>
					<path style="fill:#6F422E;" d="M300.067,403.789l-20.265,8.145c-0.772,0.355-0.487,0.998-0.487,0.998
						c2.036,2.961,13.631,1.252,13.631,1.252l16.598-3.652c0.112-3.484-1.154-7.119-1.154-7.119h-0.539
						c-0.915,0.203-1.45,1.281-2.15,1.855c-0.716,0.588-1.707,0.66-2.597,0.642l0.555-0.791c0.178-0.256-0.045-0.393-0.045-0.393
						l-2.764-0.977C300.85,403.75,300.486,403.621,300.067,403.789z"/>
					<g>
						<path style="fill:#FFFFFF;" d="M296.633,404.637c1.032,0.387,2.096,1.408,2.372,2.494c0.159,0.627-0.806,0.891-0.964,0.266
							c-0.185-0.731-0.971-1.531-1.674-1.795C295.768,405.377,296.027,404.41,296.633,404.637L296.633,404.637z"/>
					</g>
					<g>
						<path style="fill:#FFFFFF;" d="M294.326,405.428c1.021,0.688,1.854,1.445,2.422,2.553c0.293,0.574-0.57,1.08-0.864,0.506
							c-0.49-0.959-1.177-1.6-2.063-2.195C293.289,405.934,293.789,405.066,294.326,405.428L294.326,405.428z"/>
					</g>
					<g>
						<path style="fill:#FFFFFF;" d="M292.453,406.338c0.877,0.68,1.863,1.424,2.103,2.572c0.132,0.629-0.832,0.897-0.964,0.266
							c-0.2-0.957-1.118-1.566-1.845-2.131C291.238,406.65,291.951,405.949,292.453,406.338L292.453,406.338z"/>
					</g>
					<g>
						<path style="fill:#FFFFFF;" d="M290.44,407.094c0.9,0.633,1.592,1.406,2.093,2.387c0.293,0.574-0.569,1.08-0.863,0.506
							c-0.422-0.826-0.974-1.494-1.734-2.029C289.412,407.59,289.911,406.723,290.44,407.094L290.44,407.094z"/>
					</g>
					<path style="fill:#FFFFFF;" d="M309.544,410.531l-16.598,3.652c0,0-12.31,1.676-13.683-1.574c0,0,0,3.25,4.418,3.707
						c0,0,4.242,0.709,9.537-0.541l16.325-3.5C309.544,412.275,309.744,412.035,309.544,410.531z"/>
				</g>
				<g>
					<g>
						<g>
							<path style="fill:#053C65;" d="M325.706,246.499l-11.257,80.173l0.153,13.685l-5.497,65.143c0,0-5.795,2.816-11.025-0.875
								l-4.193-85.768l-2.215-72.358H325.706z"/>
						</g>
					</g>
				</g>
				<path style="fill:#D1D3D4;" d="M323.1,261.884l-6.767,51.312c-0.268-5.857-1.829-15.555-2.372-21.4
					c-2.49-26.841-9.684-30.554-9.123-29.911H323.1z"/>
			</g>
			<g>
				<g>
					<rect x="331.174" y="398.609" style="fill:#F8B78F;" width="7" height="9.184"/>
					<path style="fill:#6F422E;" d="M339.012,403.789l20.266,8.145c0.771,0.355,0.486,0.998,0.486,0.998
						c-2.037,2.961-13.631,1.252-13.631,1.252l-16.598-3.652c-0.111-3.484,1.154-7.119,1.154-7.119h0.539
						c0.916,0.203,1.449,1.281,2.15,1.855c0.717,0.588,1.707,0.66,2.598,0.642l-0.555-0.791c-0.18-0.256,0.045-0.393,0.045-0.393
						l2.764-0.977C338.23,403.75,338.594,403.621,339.012,403.789z"/>
					<g>
						<path style="fill:#FFFFFF;" d="M342.447,404.637c-1.033,0.387-2.096,1.408-2.373,2.494c-0.158,0.627,0.807,0.891,0.965,0.266
							c0.186-0.731,0.971-1.531,1.674-1.795C343.311,405.377,343.053,404.41,342.447,404.637L342.447,404.637z"/>
					</g>
					<g>
						<path style="fill:#FFFFFF;" d="M344.754,405.428c-1.022,0.688-1.855,1.445-2.422,2.553c-0.293,0.574,0.57,1.08,0.863,0.506
							c0.49-0.959,1.178-1.6,2.063-2.195C345.791,405.934,345.291,405.066,344.754,405.428L344.754,405.428z"/>
					</g>
					<g>
						<path style="fill:#FFFFFF;" d="M346.625,406.338c-0.875,0.68-1.861,1.424-2.102,2.572c-0.131,0.629,0.832,0.897,0.965,0.266
							c0.199-0.957,1.117-1.566,1.844-2.131C347.842,406.65,347.129,405.949,346.625,406.338L346.625,406.338z"/>
					</g>
					<g>
						<path style="fill:#FFFFFF;" d="M348.641,407.094c-0.9,0.633-1.592,1.406-2.094,2.387c-0.293,0.574,0.57,1.08,0.863,0.506
							c0.422-0.826,0.975-1.494,1.734-2.029C349.668,407.59,349.168,406.723,348.641,407.094L348.641,407.094z"/>
					</g>
					<path style="fill:#FFFFFF;" d="M329.535,410.531l16.598,3.652c0,0,12.309,1.676,13.684-1.574c0,0,0,3.25-4.418,3.707
						c0,0-4.242,0.709-9.539-0.541l-16.324-3.5C329.535,412.275,329.336,412.035,329.535,410.531z"/>
				</g>
				<g>
					<g>
						<g>
							<path style="fill:#053C65;" d="M313.373,246.499l8.422,80.173l-0.152,13.685l8.331,65.143c0,0,5.794,2.816,8.19-0.875
								l4.195-85.768l3.324-72.358H313.373z"/>
						</g>
					</g>
				</g>
			</g>
			<g>
				<rect x="311.443" y="120.545" style="fill:#F8B78F;" width="14.74" height="20.475"/>
			</g>
			<g>
				<path style="fill:#F6A47A;" d="M326.184,130.061v-9.516h-14.74v10.238C316.713,131.336,321.563,131.842,326.184,130.061z"/>
			</g>
			<path style="fill:#F8B78F;" d="M344.746,148.967c-3.609-5.582-5.852-7.533-5.852-7.533l-13.594-5.037h-12.975l-13.588,5.037
				c0,0-1.852,1.724-5.46,7.306L344.746,148.967z"/>
			<path style="fill:#D8484F;" d="M328.527,137.592l11.926,4.241c0,0,9.885,6.906,7.57,18.348v91.785c0,0-28.006,7.342-59.199-0.625
				l3.252-81.085l-0.215-13.659c-0.12-10.5,6.877-15.163,6.877-15.163l10.055-3.729c0,0,0.403,4.216,8.307,4.758
				C317.1,142.463,326.184,143.173,328.527,137.592z"/>
			<path style="fill:#F8B78F;" d="M311.404,128.682c2.252-0.479,6.1-1.725,6.1-1.725c8.777-3.811,11.789-3.871,13.27-8.721
				c0.045-0.15,4.27-24.922,4.27-24.922c0.121-12.706-13.297-14.25-15.318-14.412c-2.008-0.293-14.867-2.756-17.588,9.658
				c0,0-4.332,14.481-0.057,31.699c2.211,6.41,5.307,7.973,5.307,7.973S309.004,129.102,311.404,128.682z"/>
			<g>
				<path style="fill:#F6A47A;" d="M310.509,109.958c0,0,0.518,0.18,0.989,0.479c0.139,0.053,0.287,0.09,0.413,0.15
					c0.135,0.043,0.258,0.141,0.392,0.141c0.128,0.025,0.257,0.031,0.362,0.088c0.123-0.008,0.235-0.01,0.35,0.006
					c0.118,0.021,0.247-0.031,0.376-0.029c0.124,0.008,0.273-0.049,0.414-0.078c0.305-0.035,0.553-0.16,0.852-0.211
					c0.287-0.084,0.565-0.219,0.761-0.262c0.199-0.055,0.329-0.074,0.329-0.074s-0.015,0.129-0.059,0.332
					c-0.059,0.201-0.094,0.48-0.281,0.777c-0.199,0.295-0.463,0.691-0.881,0.93c-0.21,0.117-0.393,0.305-0.672,0.346
					c-0.268,0.059-0.533,0.152-0.818,0.154c-0.291-0.029-0.58-0.078-0.855-0.133c-0.261-0.1-0.486-0.269-0.703-0.402
					c-0.241-0.117-0.344-0.344-0.483-0.512c-0.131-0.174-0.24-0.348-0.314-0.512C310.456,110.442,310.509,109.958,310.509,109.958z"
					/>
				<path style="fill:#676C7B;" d="M315.648,99.929c0.116,0.625,0.679,1.031,1.259,0.943c2.023-0.309,4.077-0.309,6.102,0
					c0.582,0.088,1.144-0.318,1.259-0.943l0,0c0.116-0.625-0.312-1.246-0.96-1.344c-2.223-0.338-4.475-0.338-6.697,0
					C315.962,98.683,315.532,99.304,315.648,99.929L315.648,99.929z"/>
				<path style="fill:#676C7B;" d="M301.982,99.929c0.117,0.625,0.678,1.031,1.258,0.943c2.027-0.309,4.077-0.309,6.105,0
					c0.579,0.088,1.14-0.318,1.259-0.943l0,0c0.111-0.625-0.317-1.246-0.966-1.344c-2.22-0.338-4.474-0.338-6.692,0
					C302.296,98.683,301.865,99.304,301.982,99.929L301.982,99.929z"/>
				<path style="fill:none;stroke:#27303B;stroke-linecap:round;stroke-linejoin:round;stroke-miterlimit:10;" d="M305.132,104.019
					c0-1.045,0.584-1.895,1.304-1.895c0.722,0,1.306,0.85,1.306,1.895"/>
				<path style="fill:none;stroke:#27303B;stroke-linecap:round;stroke-linejoin:round;stroke-miterlimit:10;" d="M319.016,104.019
					c0-1.045,0.584-1.895,1.308-1.895c0.721,0,1.303,0.85,1.303,1.895"/>
				<path style="fill:#FFFFFF;" d="M308.387,117.516c0.209,2.533,2.248,4.522,4.738,4.522c2.49,0,4.531-1.989,4.74-4.522H308.387z"
					/>
			</g>
			<path style="fill:#676C7B;" d="M331.339,113.788l1.01-7.428c-1.829,0.563-1.854,4.402-1.854,4.402l-2.516-0.02
				c-0.143-9.49-0.876-15.049-0.876-15.049s-3.168-5.666-5.668-9.316l12.171-2.508l3.731,4.484
				C337.338,88.354,339.338,97.251,331.339,113.788"/>
			<path style="fill:#F8B78F;" d="M330.309,107.406c0,0,1.834-5.049,5.58-2.453c0,0,1.699,1.115-0.002,4.531
				c0,0-2.473,4.916-6.109,2.604L330.309,107.406z"/>
			<path style="fill:#FFFFFF;" d="M308.793,137.705c0,0,0.403,4.216,8.307,4.758c0,0,9.084,0.71,11.428-4.871l2.662,0.855
				c0,0-2.185,7.477-14.09,6.643c0,0-9.762,0.064-11.092-6.35L308.793,137.705z"/>
			<path style="fill:#676C7B;" d="M296.088,87.513c1.762,1.516,5.287,0.202,7.5,0c3.547-0.322,3.725,2.279,7.75,2.326
				c3.846,0.044,7.479-1.504,11.5-1.5c4.139,0.004,8-0.43,11.963-0.788c0.1-2.104-0.525-3.536-0.713-5.462
				c-0.188-1.943,0.641-3.617-0.307-5.487c-1.584-3.133-7.234-5.835-10.456-5.013c-4.276,1.092-8.351,4.104-12.737,1
				c-3.779-2.674-6.535-5.336-11.518-3.244c-2.44,1.024-2.872,3.165-4.727,4.488c-1.416,1.008-2.57,0.779-3.202,2.508
				C290.274,78.718,294.24,85.925,296.088,87.513z"/>
		</g>
	</g>
	<g>
		<path style="fill:#E5C7C0;" d="M216.588,414.676c0,4.389-29.254,7.947-65.336,7.947c-36.088,0-65.336-3.559-65.336-7.947
			c0-4.391,29.248-7.949,65.336-7.949C187.334,406.727,216.588,410.285,216.588,414.676z"/>
		<g>
			<path style="fill:#005692;" d="M133.483,86.379c0,0,0.599,14.875,2.632,22.93l4.903-24.113L133.483,86.379z"/>
			<g>
				<polygon style="fill:#F8B78F;" points="169.791,382.795 173.195,404.211 180.016,404.211 179.055,382.795 				"/>
				<g>
					<path style="fill:#6F422E;" d="M184.813,414.916V412.9c0,0-2.582-4.828-3.828-8.785l-0.975-0.711l-1.158-2.172h-5.078
						l-0.639,1.957l-1.045,0.822c-1.176,4.402-2.299,8.889-2.299,8.889v2.016c0,0,3.631,3.775,6.977,3.963
						C176.768,418.879,183.926,419.816,184.813,414.916z"/>
					<path style="fill:#FFFFFF;" d="M184.813,413.066v1.85c-0.887,4.9-8.045,3.963-8.045,3.963
						c-3.346-0.188-6.977-3.963-6.977-3.963v-1.85c0,0,4.385,5,10.76,3.438C180.551,416.504,184.278,416.008,184.813,413.066z"/>
					<path style="fill:#FFFFFF;" d="M172.09,411.33c0.115-0.207,0.234-0.414,0.357-0.609l0.01-0.01
						c0.313-0.359,0.693-0.598,1.123-0.713c0.105-0.027,0.215-0.041,0.326-0.053l0.279-0.033l0.578-0.057
						c0.771-0.059,1.542-0.088,2.313-0.074c0.771,0.012,1.541,0.045,2.313,0.141l0.29,0.031c0.034,0.006,0.11,0.012,0.169,0.025
						l0.154,0.045c0.201,0.063,0.4,0.135,0.59,0.246c0.367,0.209,0.762,0.557,0.854,1.061c-0.256-0.383-0.621-0.496-0.977-0.566
						c-0.178-0.029-0.357-0.053-0.539-0.053l-0.131,0.004c-0.039,0-0.059,0.012-0.12,0.02l-0.29,0.029
						c-0.771,0.094-1.541,0.127-2.313,0.141c-0.771,0.012-1.541-0.016-2.313-0.074l-0.578-0.057l-0.548-0.061
						c-0.335-0.01-0.706,0.074-1.034,0.244l0.01-0.01C172.443,411.082,172.268,411.209,172.09,411.33z"/>
					<g>
						<path style="fill:#FFFFFF;" d="M174.553,405.322c0.828-1.045,2.715-1.041,3.522,0c0.409,0.529,1.055-0.275,0.646-0.805
							c-1.151-1.486-3.644-1.48-4.815,0C173.493,405.043,174.14,405.846,174.553,405.322L174.553,405.322z"/>
					</g>
					<g>
						<path style="fill:#FFFFFF;" d="M174.119,407.199c1.037-1.082,3.377-1.08,4.391,0c0.446,0.473,1.096-0.328,0.646-0.807
							c-1.427-1.52-4.238-1.506-5.685,0C173.02,406.863,173.669,407.664,174.119,407.199L174.119,407.199z"/>
					</g>
					<g>
						<path style="fill:#FFFFFF;" d="M173.5,409.162c1.42-1.223,4.23-1.23,5.627,0c0.484,0.426,0.939-0.563,0.463-0.982
							c-1.65-1.453-4.883-1.438-6.551,0C172.559,408.594,173.015,409.58,173.5,409.162L173.5,409.162z"/>
					</g>
				</g>
			</g>
			<g>
				<rect x="136.658" y="398.609" style="fill:#F8B78F;" width="7" height="9.184"/>
				<path style="fill:#6F422E;" d="M135.819,403.789l-20.267,8.145c-0.771,0.355-0.485,0.998-0.485,0.998
					c2.037,2.961,13.631,1.252,13.631,1.252l16.598-3.652c0.112-3.484-1.154-7.119-1.154-7.119h-0.539
					c-0.915,0.203-1.45,1.281-2.15,1.855c-0.716,0.588-1.707,0.66-2.597,0.642l0.555-0.791c0.179-0.256-0.045-0.393-0.045-0.393
					l-2.764-0.977C136.602,403.75,136.238,403.621,135.819,403.789z"/>
				<g>
					<path style="fill:#FFFFFF;" d="M132.385,404.637c1.032,0.387,2.096,1.408,2.372,2.494c0.159,0.627-0.806,0.891-0.964,0.266
						c-0.186-0.731-0.971-1.531-1.674-1.795C131.52,405.377,131.779,404.41,132.385,404.637L132.385,404.637z"/>
				</g>
				<g>
					<path style="fill:#FFFFFF;" d="M130.078,405.428c1.021,0.688,1.854,1.445,2.422,2.553c0.293,0.574-0.57,1.08-0.863,0.506
						c-0.491-0.959-1.178-1.6-2.063-2.195C129.041,405.934,129.541,405.066,130.078,405.428L130.078,405.428z"/>
				</g>
				<g>
					<path style="fill:#FFFFFF;" d="M128.206,406.338c0.876,0.68,1.862,1.424,2.102,2.572c0.132,0.629-0.832,0.897-0.964,0.266
						c-0.2-0.957-1.118-1.566-1.846-2.131C126.99,406.65,127.703,405.949,128.206,406.338L128.206,406.338z"/>
				</g>
				<g>
					<path style="fill:#FFFFFF;" d="M126.191,407.094c0.9,0.633,1.592,1.406,2.093,2.387c0.293,0.574-0.569,1.08-0.864,0.506
						c-0.422-0.826-0.973-1.494-1.734-2.029C125.164,407.59,125.663,406.723,126.191,407.094L126.191,407.094z"/>
				</g>
				<path style="fill:#FFFFFF;" d="M145.296,410.531l-16.598,3.652c0,0-12.309,1.676-13.683-1.574c0,0,0,3.25,4.418,3.707
					c0,0,4.242,0.709,9.538-0.541l16.324-3.5C145.296,412.275,145.496,412.035,145.296,410.531z"/>
			</g>
			<g>
				<path style="fill:#4772A7;" d="M161.5,246.135l-11.256,80.172l0.152,13.686l-5.496,65.143c0,0-5.795,2.816-11.025-0.875
					l-4.195-85.768l-0.489-72.357H161.5z"/>
			</g>
			<path style="fill:#D1D3D4;" d="M158.852,261.885l-6.767,51.311c-0.269-5.857-1.829-15.555-2.372-21.4
				c-2.49-26.84-9.684-30.553-9.123-29.91H158.852z"/>
			<path style="fill:#4772A7;" d="M180.369,246.135l-3.883,74.621l2.5,17.334l2.402,65.055c0,0-4.158,3.018-10.174,0.508
				l-12.041-83.813l-11.658-73.705H180.369z"/>
			<g>
				<path style="fill:#F8B78F;" d="M99.541,205.36c13.643-10.049,29.959-31.332,29.959-31.332s9.732-8.652,4.684-15.695
					c0,0-4.291-3.436-13.166,4.465c-13.127,11.971-21.365,21.242-30.57,33.553l1.66,3.91L99.541,205.36z"/>
			</g>
			<path style="fill:#F8B78F;" d="M95.979,208.866c-2.771-1.727-8.811-9-10.887-11.525c-9.079-11.047-14.466-18.396-21.742-25.631
				l2.644-3.547c14.12,7.678,31.935,26.132,31.935,26.132l8.906,4.94L95.979,208.866z"/>
			<path style="fill:#293351;" d="M105.848,173.333c-1.189,2.799,2.991,8.069,6.871,11.532c1.884,1.681,4.017,3.502,6.33,4.975
				c15.026-16.815,21.179-24.561,22.991-27.807c0,0,5.423-11.602-4.683-16.34c0,0-7.082-4.174-12.034,1.781
				C125.323,147.475,114.06,161.557,105.848,173.333z"/>
			<g>
				<rect x="147.195" y="120.546" style="fill:#F8B78F;" width="14.74" height="20.475"/>
			</g>
			<g>
				<path style="fill:#F6A47A;" d="M161.936,130.062v-9.516h-14.74v10.238C152.465,131.337,157.314,131.843,161.936,130.062z"/>
			</g>
			<path style="fill:#F8B78F;" d="M180.498,147.739c-3.609-5.582-5.852-6.304-5.852-6.304l-13.594-5.037h-12.975l-13.588,5.037
				c0,0-5.674,1.514-9.283,7.096L180.498,147.739z"/>
			<path style="fill:#262F4A;" d="M183.203,165.141l0.572,86.826c0,0-28.006,7.342-59.199-0.625l3.252-81.085l-3.432-20.49
				c0-4.957,8.047-7.918,8.047-7.918l12.102-4.143c0,0-1.052,5.475,5.416,5.975c0,0,14.389,2.199,14.318-6.088l16.219,5.209
				C180.498,142.802,185.063,153.27,183.203,165.141z"/>
			<path style="fill:#F8B78F;" d="M147.156,128.683c2.252-0.479,6.1-1.725,6.1-1.725c8.777-3.811,11.789-3.871,13.27-8.721
				c0.045-0.15,4.27-24.922,4.27-24.922c0.121-12.706-13.297-14.25-15.318-14.412c-2.008-0.293-14.867-2.756-17.588,9.658
				c0,0-4.332,14.481-0.057,31.699c2.211,6.41,5.307,7.973,5.307,7.973S144.756,129.104,147.156,128.683z"/>
			<g>
				<path style="fill:#F6A47A;" d="M146.261,109.96c0,0,0.518,0.18,0.989,0.479c0.138,0.053,0.288,0.09,0.413,0.15
					c0.135,0.043,0.257,0.141,0.39,0.141c0.13,0.025,0.259,0.031,0.364,0.088c0.123-0.008,0.235-0.01,0.351,0.006
					c0.119,0.021,0.247-0.031,0.376-0.029c0.124,0.008,0.273-0.049,0.414-0.078c0.305-0.035,0.553-0.16,0.852-0.211
					c0.287-0.084,0.564-0.219,0.761-0.262c0.199-0.055,0.328-0.074,0.328-0.074s-0.014,0.129-0.058,0.332
					c-0.059,0.201-0.094,0.48-0.281,0.777c-0.199,0.295-0.463,0.691-0.881,0.93c-0.21,0.117-0.392,0.305-0.672,0.346
					c-0.268,0.059-0.533,0.152-0.818,0.154c-0.291-0.029-0.58-0.078-0.856-0.133c-0.259-0.1-0.485-0.27-0.702-0.402
					c-0.24-0.117-0.343-0.344-0.482-0.512c-0.131-0.174-0.24-0.348-0.315-0.512C146.208,110.444,146.261,109.96,146.261,109.96z"/>
				<path style="fill:#005692;" d="M151.4,99.93c0.115,0.625,0.679,1.031,1.259,0.943c2.023-0.309,4.077-0.309,6.102,0
					c0.583,0.088,1.145-0.318,1.259-0.943l0,0c0.117-0.625-0.312-1.246-0.96-1.344c-2.224-0.338-4.475-0.338-6.697,0
					C151.714,98.684,151.284,99.305,151.4,99.93L151.4,99.93z"/>
				<path style="fill:#005692;" d="M137.732,99.93c0.118,0.625,0.679,1.031,1.259,0.943c2.027-0.309,4.077-0.309,6.104,0
					c0.58,0.088,1.141-0.318,1.26-0.943l0,0c0.111-0.625-0.316-1.246-0.966-1.344c-2.22-0.338-4.474-0.338-6.692,0
					C138.048,98.684,137.617,99.305,137.732,99.93L137.732,99.93z"/>
				<path style="fill:none;stroke:#27303B;stroke-linecap:round;stroke-linejoin:round;stroke-miterlimit:10;" d="M140.884,104.02
					c0-1.045,0.585-1.894,1.305-1.894c0.721,0,1.305,0.85,1.305,1.894"/>
				<path style="fill:none;stroke:#27303B;stroke-linecap:round;stroke-linejoin:round;stroke-miterlimit:10;" d="M154.768,104.02
					c0-1.045,0.584-1.894,1.308-1.894c0.721,0,1.303,0.85,1.303,1.894"/>
				<path style="fill:#FFFFFF;" d="M144.138,117.517c0.21,2.533,2.249,4.522,4.739,4.522c2.49,0,4.531-1.989,4.74-4.522H144.138z"/>
			</g>
			<g>
				<path style="fill:#F8B78F;" d="M56.205,152.237l4.656,6.637l2.76,2.247l1.131,1.278l2.652,6.764l-3.03,3.422
					c-4.886-1.488-8.745-5.078-8.745-5.078l0.274-5.188l-5.929-5.508l-0.587-1.205l1.371-0.116l7.274,4.925l-3.021-7.475
					l-0.172-1.271L56.205,152.237z"/>
			</g>
			<path style="fill:#005692;" d="M167.091,113.789l1.009-7.428c-1.827,0.563-1.852,4.402-1.852,4.402l-2.516-0.02
				c-0.143-9.49-0.876-15.049-0.876-15.049s-3.167-5.666-5.667-9.316l12.17-2.508l3.732,4.484
				C173.09,88.356,175.09,97.252,167.091,113.789"/>
			<path style="fill:#005692;" d="M169.691,76.86c0,0,5.188,5.83,1.105,9.52h-13.608l-9.993,1.186l-13.712-1.186l-1.128-6.063
				c0,0-0.199-5.787,5.483-9.455c0,0,0.046,1.834,2.28,2.668c0,0-1.223-4.674,3.374-6.84c0,0-0.818,6,7.89,7.167
				C151.383,73.857,166.957,71.2,169.691,76.86z"/>
			<path style="fill:#F8B78F;" d="M166.061,107.408c0,0,1.834-5.049,5.58-2.453c0,0,1.699,1.115-0.002,4.531
				c0,0-2.473,4.916-6.109,2.604L166.061,107.408z"/>
		</g>
		<g>
			<polygon style="fill:#F8B78F;" points="197.351,208.426 194.382,179.379 175.623,180.449 184.547,212.311 			"/>
			<g>
				<path style="fill:#F8B78F;" d="M197.351,208.426c0.86,14.47-1.488,55.589-1.488,55.589l-4.296,0.273l-5.08-31.949l-1.939-20.029
					l3.564-7.626L197.351,208.426z"/>
			</g>
			<g>
				<g>
					<g>
						<path style="fill:#262F4A;" d="M177.74,194.681c-4.428-21.798-6.943-33.561-6.943-33.561s-7.172-20.535,9.701-18.318
							c0,0,8.74,2.353,12.516,17.02c0,0,4.027,15.332,5.083,31.657C192.014,194.199,184.815,195.24,177.74,194.681z"/>
					</g>
				</g>
			</g>
			<polygon style="fill:#F8B78F;" points="195.862,264.016 197.54,273.127 194.721,278.117 189.238,284.127 189.238,282.381 
				191.611,275.877 190.922,270.334 191.566,264.289 			"/>
			<path style="fill:#F8B78F;" d="M191.293,266.853l-3.182,6.481c0,0,2.054,2.836,4.902-3.24L191.293,266.853z"/>
		</g>
	</g>
</g>
</svg>
