<?xml version="1.0" encoding="utf-8"?>
<!-- Generator: Adobe Illustrator 27.5.0, SVG Export Plug-In . SVG Version: 6.00 Build 0)  -->
<svg version="1.1" id="Layer_1" xmlns="http://www.w3.org/2000/svg" xmlns:xlink="http://www.w3.org/1999/xlink" x="0px" y="0px"
	 viewBox="0 0 800 800" style="enable-background:new 0 0 800 800;" xml:space="preserve">
<g>
	
		<radialGradient id="SVGID_1_" cx="378.6747" cy="1118.1367" r="90.9045" gradientTransform="matrix(4.0488 0 0 0.1079 -1133.1781 477.5957)" gradientUnits="userSpaceOnUse">
		<stop  offset="0" style="stop-color:#000000"/>
		<stop  offset="0.1683" style="stop-color:#434343"/>
		<stop  offset="0.3332" style="stop-color:#7C7C7C"/>
		<stop  offset="0.4909" style="stop-color:#ABABAB"/>
		<stop  offset="0.6401" style="stop-color:#CFCFCF"/>
		<stop  offset="0.7787" style="stop-color:#EAEAEA"/>
		<stop  offset="0.9027" style="stop-color:#F9F9F9"/>
		<stop  offset="1" style="stop-color:#FFFFFF"/>
	</radialGradient>
	<path style="fill:url(#SVGID_1_);" d="M768,598.24c0,5.424-164.758,9.813-367.993,9.813C196.761,608.053,32,603.664,32,598.24
		c0-5.42,164.761-9.808,368.006-9.808C603.242,588.433,768,592.82,768,598.24z"/>
	<g>
		<path style="fill:#E0E0E0;" d="M152.183,590.381c-10.181,0-18.462-8.281-18.462-18.46V231.049c0-10.179,8.281-18.46,18.462-18.46
			h509.065c10.179,0,18.461,8.281,18.461,18.46v340.872c0,10.179-8.282,18.46-18.461,18.46H152.183z"/>
		<path style="fill:#1C1F24;" d="M678.012,571.921c0,9.256-7.505,16.762-16.764,16.762H152.183c-9.261,0-16.766-7.506-16.766-16.762
			V231.049c0-9.259,7.504-16.763,16.766-16.763h509.065c9.259,0,16.764,7.504,16.764,16.763V571.921z"/>
		
			<linearGradient id="SVGID_00000005960614117144896580000002752606714277042612_" gradientUnits="userSpaceOnUse" x1="403.3237" y1="583.5049" x2="403.3237" y2="570.3643">
			<stop  offset="0" style="stop-color:#282B32"/>
			<stop  offset="0.3841" style="stop-color:#26292F"/>
			<stop  offset="0.6136" style="stop-color:#1F2227"/>
			<stop  offset="0.8023" style="stop-color:#141519"/>
			<stop  offset="0.968" style="stop-color:#040405"/>
			<stop  offset="1" style="stop-color:#000000"/>
		</linearGradient>
		
			<rect x="187.981" y="570.788" style="fill:url(#SVGID_00000005960614117144896580000002752606714277042612_);" width="430.685" height="12.717"/>
		<path style="fill:#3B3B3B;" d="M678.012,554.965c0,9.256-7.505,16.764-16.764,16.764H152.183c-9.261,0-16.766-7.508-16.766-16.764
			V231.049c0-9.259,7.504-16.763,16.766-16.763h509.065c9.259,0,16.764,7.504,16.764,16.763V554.965z"/>
		<path style="fill:#000004;" d="M152.183,570.032c-8.311,0-15.069-6.757-15.069-15.067V231.049c0-8.31,6.758-15.069,15.069-15.069
			h509.065c8.311,0,15.067,6.76,15.067,15.069v323.915c0,8.311-6.757,15.067-15.067,15.067H152.183z"/>
		<g>
			
				<linearGradient id="SVGID_00000087386465933354577530000004845886881142698380_" gradientUnits="userSpaceOnUse" x1="404.5938" y1="590.8745" x2="404.5938" y2="598.962">
				<stop  offset="0" style="stop-color:#525252"/>
				<stop  offset="0.2204" style="stop-color:#9FA0A4"/>
				<stop  offset="0.3398" style="stop-color:#96979B"/>
				<stop  offset="0.5337" style="stop-color:#7F8083"/>
				<stop  offset="0.7762" style="stop-color:#58595C"/>
				<stop  offset="1" style="stop-color:#2F3032"/>
			</linearGradient>
			<path style="fill:url(#SVGID_00000087386465933354577530000004845886881142698380_);" d="M743.716,591.734
				c0,7.124-17.993,7.739-27.551,7.739H93.023c-9.56,0-27.552-0.615-27.552-7.739H743.716z"/>
			<g>
				
					<linearGradient id="SVGID_00000044161953997716548330000006426692240323071162_" gradientUnits="userSpaceOnUse" x1="65.4717" y1="585.0581" x2="403.3164" y2="585.0581">
					<stop  offset="0" style="stop-color:#595959"/>
					<stop  offset="0.0108" style="stop-color:#EEEEF0"/>
					<stop  offset="0.043" style="stop-color:#808080"/>
					<stop  offset="0.2903" style="stop-color:#E8E8E8"/>
					<stop  offset="0.2975" style="stop-color:#EAEAEA"/>
					<stop  offset="0.3539" style="stop-color:#F0F0F0"/>
					<stop  offset="0.5108" style="stop-color:#F2F2F2"/>
				</linearGradient>
				
					<rect x="65.472" y="579.122" style="fill:url(#SVGID_00000044161953997716548330000006426692240323071162_);" width="337.845" height="11.872"/>
				
					<linearGradient id="SVGID_00000078010463349095021180000007913485962618763397_" gradientUnits="userSpaceOnUse" x1="-161.2158" y1="417.2739" x2="179.1836" y2="417.2739" gradientTransform="matrix(-1 0 0 -1 582.5 1002.332)">
					<stop  offset="0" style="stop-color:#121212"/>
					<stop  offset="0.0215" style="stop-color:#EEEEF0"/>
					<stop  offset="0.0237" style="stop-color:#D4D4D6"/>
					<stop  offset="0.0267" style="stop-color:#BABABB"/>
					<stop  offset="0.03" style="stop-color:#A5A5A5"/>
					<stop  offset="0.0339" style="stop-color:#949494"/>
					<stop  offset="0.0388" style="stop-color:#898989"/>
					<stop  offset="0.0456" style="stop-color:#828282"/>
					<stop  offset="0.0645" style="stop-color:#808080"/>
					<stop  offset="0.1188" style="stop-color:#9C9C9C"/>
					<stop  offset="0.1886" style="stop-color:#BABABA"/>
					<stop  offset="0.2483" style="stop-color:#CDCDCD"/>
					<stop  offset="0.2903" style="stop-color:#D4D4D4"/>
					<stop  offset="0.3075" style="stop-color:#DEDEDE"/>
					<stop  offset="0.3397" style="stop-color:#EAEAEA"/>
					<stop  offset="0.385" style="stop-color:#F0F0F0"/>
					<stop  offset="0.5108" style="stop-color:#F2F2F2"/>
				</linearGradient>
				
					<rect x="403.316" y="579.122" style="fill:url(#SVGID_00000078010463349095021180000007913485962618763397_);" width="340.399" height="11.872"/>
			</g>
			<g>
				
					<linearGradient id="SVGID_00000044884358553345792690000004056724815720040083_" gradientUnits="userSpaceOnUse" x1="65.4717" y1="591.1348" x2="403.3164" y2="591.1348">
					<stop  offset="0" style="stop-color:#595959"/>
					<stop  offset="0.0108" style="stop-color:#EEEEF0"/>
					<stop  offset="0.043" style="stop-color:#808080"/>
					<stop  offset="0.2903" style="stop-color:#E8E8E8"/>
					<stop  offset="0.2956" style="stop-color:#EBEBEB"/>
					<stop  offset="0.3305" style="stop-color:#F6F6F6"/>
					<stop  offset="0.3796" style="stop-color:#FDFDFD"/>
					<stop  offset="0.5161" style="stop-color:#FFFFFF"/>
				</linearGradient>
				
					<rect x="65.472" y="590.535" style="fill:url(#SVGID_00000044884358553345792690000004056724815720040083_);" width="337.845" height="1.199"/>
				
					<linearGradient id="SVGID_00000065777883957896609320000000015374936443083454_" gradientUnits="userSpaceOnUse" x1="-161.2158" y1="411.1972" x2="179.1836" y2="411.1972" gradientTransform="matrix(-1 0 0 -1 582.5 1002.332)">
					<stop  offset="0" style="stop-color:#121212"/>
					<stop  offset="0.0215" style="stop-color:#EEEEF0"/>
					<stop  offset="0.0237" style="stop-color:#D4D4D6"/>
					<stop  offset="0.0267" style="stop-color:#BABABB"/>
					<stop  offset="0.03" style="stop-color:#A5A5A5"/>
					<stop  offset="0.0339" style="stop-color:#949494"/>
					<stop  offset="0.0388" style="stop-color:#898989"/>
					<stop  offset="0.0456" style="stop-color:#828282"/>
					<stop  offset="0.0645" style="stop-color:#808080"/>
					<stop  offset="0.1188" style="stop-color:#9C9C9C"/>
					<stop  offset="0.1886" style="stop-color:#BABABA"/>
					<stop  offset="0.2483" style="stop-color:#CDCDCD"/>
					<stop  offset="0.2903" style="stop-color:#D4D4D4"/>
					<stop  offset="0.297" style="stop-color:#DADADA"/>
					<stop  offset="0.3212" style="stop-color:#EBEBEB"/>
					<stop  offset="0.3513" style="stop-color:#F6F6F6"/>
					<stop  offset="0.3935" style="stop-color:#FDFDFD"/>
					<stop  offset="0.5108" style="stop-color:#FFFFFF"/>
				</linearGradient>
				
					<rect x="403.316" y="590.535" style="fill:url(#SVGID_00000065777883957896609320000000015374936443083454_);" width="340.399" height="1.199"/>
			</g>
			
				<linearGradient id="SVGID_00000137810430559681426130000011724040942245408925_" gradientUnits="userSpaceOnUse" x1="361.7817" y1="582.0903" x2="450.4013" y2="582.0903">
				<stop  offset="0" style="stop-color:#4D4D4D"/>
				<stop  offset="0.0182" style="stop-color:#646565"/>
				<stop  offset="0.0473" style="stop-color:#838484"/>
				<stop  offset="0.0803" style="stop-color:#9E9EA0"/>
				<stop  offset="0.1176" style="stop-color:#B3B4B6"/>
				<stop  offset="0.1611" style="stop-color:#C4C5C7"/>
				<stop  offset="0.2149" style="stop-color:#D0D0D2"/>
				<stop  offset="0.2904" style="stop-color:#D6D7D9"/>
				<stop  offset="0.5" style="stop-color:#D8D9DB"/>
				<stop  offset="0.7073" style="stop-color:#D6D7D9"/>
				<stop  offset="0.782" style="stop-color:#D0D0D2"/>
				<stop  offset="0.8352" style="stop-color:#C4C5C7"/>
				<stop  offset="0.8783" style="stop-color:#B3B4B6"/>
				<stop  offset="0.9152" style="stop-color:#9E9EA0"/>
				<stop  offset="0.9478" style="stop-color:#838484"/>
				<stop  offset="0.9766" style="stop-color:#646565"/>
				<stop  offset="0.9946" style="stop-color:#4D4D4D"/>
			</linearGradient>
			<path style="fill:url(#SVGID_00000137810430559681426130000011724040942245408925_);" d="M403.316,579.122L403.316,579.122
				h-42.178c1.983,3.544,5.766,5.937,10.111,5.937h68.812c4.346,0,8.126-2.393,10.11-5.937H403.316z"/>
		</g>
	</g>
	<rect x="149.829" y="230.345" style="fill:#FFFFFF;" width="512.923" height="324.756"/>
</g>
</svg>
