<?xml version="1.0" standalone="no"?>
<!DOCTYPE svg PUBLIC "-//W3C//DTD SVG 20010904//EN"
 "http://www.w3.org/TR/2001/REC-SVG-20010904/DTD/svg10.dtd">
<svg version="1.0" xmlns="http://www.w3.org/2000/svg"
 width="2000.000000pt" height="2000.000000pt" viewBox="0 0 2000.000000 2000.000000"
 preserveAspectRatio="xMidYMid meet">

<g transform="translate(0.000000,2000.000000) scale(0.100000,-0.100000)"
fill="#000000" stroke="none">
<path d="M10070 18184 c-469 -39 -869 -195 -1220 -474 -105 -84 -285 -268
-364 -373 -292 -391 -438 -822 -439 -1307 -1 -266 28 -453 105 -685 l40 -120
-20 -40 c-11 -22 -135 -240 -276 -485 -140 -244 -254 -446 -252 -448 2 -2 256
35 565 83 l560 86 73 -62 c290 -244 699 -419 1098 -470 140 -17 422 -15 565 6
608 87 1161 435 1501 945 46 69 76 120 71 120 -3 0 -22 -26 -41 -58 -94 -156
-273 -361 -430 -495 -218 -186 -527 -349 -801 -423 -306 -83 -683 -95 -989
-33 -331 67 -683 240 -946 463 l-85 72 -493 -69 c-271 -38 -496 -67 -498 -64
-3 3 107 198 245 434 l250 428 -45 131 c-137 404 -150 849 -37 1254 180 645
674 1181 1305 1414 397 147 864 169 1275 61 434 -114 862 -399 1132 -753 108
-143 194 -289 261 -444 19 -43 35 -76 37 -74 2 2 -14 44 -36 94 -204 470 -585
860 -1064 1087 -194 92 -379 147 -598 179 -107 16 -364 27 -449 20z"/>
<path d="M10965 16972 c-11 -10 -53 -52 -93 -94 l-74 -76 54 -64 c78 -92 113
-146 163 -250 149 -312 148 -673 -3 -976 l-36 -72 99 -100 99 -100 30 48 c235
375 261 900 66 1310 -27 57 -70 134 -94 170 -48 73 -172 222 -184 222 -4 -1
-16 -8 -27 -18z"/>
<path d="M12237 16740 c3 -14 12 -41 20 -60 11 -30 12 -31 8 -6 -4 16 -13 43
-20 60 -11 23 -13 25 -8 6z"/>
<path d="M10025 16625 c-71 -30 -138 -58 -148 -63 -14 -6 12 -36 143 -167
l160 -160 0 223 c0 171 -3 222 -12 222 -7 -1 -71 -25 -143 -55z"/>
<path d="M12281 16594 c0 -11 3 -14 6 -6 3 7 2 16 -1 19 -3 4 -6 -2 -5 -13z"/>
<path d="M10501 16506 l-94 -94 41 -49 c98 -118 146 -289 122 -437 l-11 -70
103 -103 c56 -57 106 -103 110 -103 11 0 46 103 64 191 22 110 15 292 -16 399
-28 99 -102 237 -163 305 -27 30 -52 55 -55 55 -4 0 -50 -42 -101 -94z"/>
<path d="M12291 16554 c0 -11 3 -14 6 -6 3 7 2 16 -1 19 -3 4 -6 -2 -5 -13z"/>
<path d="M12301 16514 c0 -11 3 -14 6 -6 3 7 2 16 -1 19 -3 4 -6 -2 -5 -13z"/>
<path d="M9560 16427 l-95 -42 -202 -3 -203 -3 0 -375 0 -374 191 0 190 0 358
-150 c197 -82 363 -150 369 -150 9 0 12 81 12 308 l0 309 -260 259 c-143 142
-262 260 -263 261 -1 1 -45 -17 -97 -40z"/>
<path d="M12321 16424 c0 -11 3 -14 6 -6 3 7 2 16 -1 19 -3 4 -6 -2 -5 -13z"/>
<path d="M12331 16364 c0 -11 3 -14 6 -6 3 7 2 16 -1 19 -3 4 -6 -2 -5 -13z"/>
<path d="M10443 15637 c-11 -12 -23 -27 -26 -33 -3 -6 38 -54 92 -108 l98 -97
26 34 26 35 -95 93 c-52 52 -96 95 -98 96 -1 2 -12 -7 -23 -20z"/>
<path d="M5695 15565 c-195 -36 -375 -162 -481 -337 -38 -62 -34 -60 -154 -73
-84 -9 -196 -43 -288 -87 -155 -73 -270 -214 -308 -374 -17 -76 -20 -219 -5
-286 26 -115 101 -244 177 -305 l36 -29 -21 -42 c-51 -100 -66 -265 -36 -407
18 -87 72 -197 125 -257 22 -25 40 -53 40 -61 0 -31 52 -193 86 -266 47 -103
96 -181 107 -174 6 3 7 1 3 -5 -8 -13 42 -74 55 -67 5 4 6 0 3 -8 -5 -15 71
-91 110 -108 17 -8 30 -28 40 -60 16 -47 15 -53 -10 -161 -30 -134 -120 -466
-169 -628 -19 -63 -35 -128 -35 -143 -1 -99 256 -556 434 -772 22 -27 50 -61
61 -75 60 -75 260 -264 328 -308 144 -94 264 -121 347 -78 42 22 131 106 124
118 -3 4 -1 8 4 8 4 0 18 19 29 43 74 151 119 409 127 737 2 91 9 188 15 215
6 28 13 59 16 70 4 17 14 20 72 23 37 1 93 7 123 13 30 6 68 13 84 16 42 7
162 51 221 81 111 56 260 167 260 194 0 7 6 13 13 13 36 0 181 211 222 325 94
256 113 639 56 1090 -38 292 -111 654 -139 689 -9 11 -9 13 0 8 7 -4 27 6 47
23 50 44 69 110 64 219 -5 104 -40 186 -116 271 -40 45 -50 64 -56 105 -56
390 -303 695 -608 750 l-73 13 60 1 c125 1 261 -43 362 -120 92 -69 184 -210
243 -371 l20 -53 -6 45 c-20 140 -114 321 -214 407 -171 149 -431 173 -667 63
l-62 -29 -75 43 c-175 100 -395 137 -591 101z m-766 -488 c-216 -108 -329
-240 -365 -424 -30 -156 -12 -320 51 -468 l34 -80 -29 35 c-49 58 -100 173
-115 257 -18 98 -18 148 0 246 37 207 166 346 424 453 91 38 92 27 0 -19z
m1639 -2351 c64 -33 112 -108 81 -127 -19 -12 -126 -11 -150 1 -28 15 -49 63
-49 111 l0 42 45 -6 c25 -4 58 -13 73 -21z"/>
<path d="M13525 15430 c-261 -9 -377 -35 -550 -122 -284 -142 -518 -422 -668
-798 -52 -129 -111 -331 -105 -357 3 -14 13 -9 47 27 50 53 196 270 261 388
25 45 47 82 50 82 3 0 17 -24 33 -53 54 -103 177 -238 302 -328 59 -43 185
-114 185 -104 0 4 -9 20 -21 36 -43 61 -170 379 -169 424 0 5 21 -30 46 -80
156 -304 421 -553 780 -733 94 -47 256 -112 318 -128 l28 -7 -25 44 c-65 110
-113 292 -122 454 l-5 100 19 -90 c78 -367 259 -604 521 -686 l55 -17 7 -113
c4 -63 13 -138 20 -167 l13 -52 55 39 c133 94 268 141 350 121 136 -33 157
-179 59 -416 -46 -110 -155 -268 -242 -351 -82 -77 -151 -119 -216 -129 -23
-4 -41 -9 -41 -12 0 -3 27 -87 59 -186 108 -329 170 -531 182 -598 12 -64 4
-362 -18 -660 l-6 -88 92 91 c50 49 91 97 91 105 0 9 11 14 30 14 17 0 52 11
78 24 26 13 66 29 90 36 l42 13 0 532 0 533 -27 6 c-14 4 -63 7 -107 6 -115
-2 -109 -4 -95 23 17 32 354 617 399 690 l17 29 70 -124 c39 -68 134 -233 212
-367 78 -134 140 -245 138 -247 -1 -1 -54 -4 -117 -6 l-115 -3 -3 -370 c-2
-203 0 -461 3 -572 l7 -203 114 0 c74 0 114 -4 114 -11 0 -5 -84 -155 -187
-332 -103 -177 -198 -342 -211 -366 -22 -39 -27 -42 -37 -27 -11 15 -13 13
-19 -16 -3 -18 -8 -63 -12 -100 l-7 -66 69 -7 c95 -9 247 -40 317 -64 209 -72
295 -207 267 -419 -7 -48 -14 -110 -17 -139 l-5 -51 65 -70 c132 -140 187
-255 195 -403 9 -177 -43 -316 -155 -419 l-53 -49 0 -96 c0 -158 -37 -282
-119 -403 -51 -76 -108 -125 -193 -165 l-67 -32 0 -105 c-2 -233 -87 -383
-266 -465 -107 -49 -163 -60 -320 -59 -146 0 -228 12 -406 60 -389 103 -724
312 -755 470 -9 45 18 98 63 128 l39 26 55 -18 c257 -89 726 -141 1004 -112
66 6 126 15 133 19 7 4 -42 13 -110 20 -1162 117 -1061 101 -1174 184 -116 85
-177 221 -154 341 6 34 27 90 46 125 19 35 34 64 32 66 -2 1 -24 16 -49 33
-61 41 -106 94 -138 162 -23 48 -26 68 -26 160 0 92 4 112 27 162 32 68 92
135 159 179 49 31 52 32 372 65 643 68 1002 104 1042 104 28 1 35 3 25 9 -8 5
-87 15 -175 21 -232 18 -490 4 -755 -40 -125 -21 -368 -79 -440 -105 l-45 -16
-29 33 c-54 63 -80 134 -84 235 -4 85 -2 98 22 147 49 100 135 172 307 256
243 119 518 181 989 224 25 2 -16 2 -91 0 -380 -11 -800 -111 -1026 -246 -75
-44 -185 -152 -209 -205 l-19 -42 -90 -1 c-125 0 -135 4 -135 50 0 20 4 61 10
90 8 41 6 62 -6 101 -15 46 -15 53 1 94 9 25 24 49 32 54 11 6 25 57 45 167
16 88 54 290 84 449 l56 290 -11 110 c-6 61 -13 164 -16 230 -4 66 -8 130 -11
142 -3 18 6 26 61 52 76 35 220 133 286 194 77 71 159 168 221 261 32 49 56
91 54 94 -3 2 -32 -20 -66 -49 -248 -219 -609 -332 -962 -300 -138 13 -321 51
-417 87 -279 105 -503 301 -638 559 -23 44 -43 75 -43 69 0 -6 -9 -93 -20
-194 -11 -100 -19 -183 -18 -184 53 -21 152 -82 202 -126 71 -61 116 -115 170
-205 l35 -58 6 34 c21 117 24 122 18 29 -8 -119 -9 -102 16 -190 44 -152 37
-338 -20 -483 -32 -82 -27 -81 -179 -48 -196 43 -259 47 -90 6 561 -135 967
-352 1080 -577 52 -106 38 -240 -37 -348 -21 -29 -50 -62 -65 -73 l-27 -20
-88 40 c-288 133 -630 228 -957 268 -136 16 -364 30 -356 22 3 -3 93 -26 200
-51 107 -25 418 -100 690 -166 l495 -121 61 -62 c33 -35 74 -89 90 -122 26
-55 29 -69 29 -165 0 -97 -2 -110 -30 -164 -37 -74 -106 -146 -171 -179 l-49
-24 -80 23 c-410 120 -953 224 -1305 248 l-75 5 60 -20 c80 -27 371 -102 518
-133 220 -48 571 -101 793 -122 63 -6 71 -9 82 -33 52 -118 57 -232 16 -321
-34 -75 -109 -142 -212 -192 l-84 -41 -162 7 c-300 13 -1020 35 -1023 32 -7
-7 152 -47 260 -66 266 -45 637 -47 872 -5 l80 14 28 -27 c77 -72 70 -140 -22
-232 -171 -171 -658 -303 -1051 -287 -221 9 -366 58 -478 162 -110 101 -147
205 -140 389 3 67 8 128 12 138 6 12 -6 25 -48 53 -113 75 -197 196 -232 335
-18 71 -24 219 -11 315 7 59 7 61 -31 111 -46 61 -77 126 -97 197 -7 29 -14
43 -14 31 -2 -55 56 -195 104 -252 25 -30 26 -34 15 -86 -16 -79 -14 -260 5
-331 36 -140 140 -296 235 -352 27 -15 31 -22 26 -48 -3 -16 -9 -69 -12 -118
-6 -74 -9 -87 -23 -83 -23 8 -434 118 -579 156 -71 19 -127 29 -131 24 -5 -5
-12 -55 -15 -112 l-7 -102 28 -11 c66 -25 105 -100 83 -162 -16 -47 -59 -87
-101 -93 l-36 -6 -7 -72 c-30 -336 -36 -425 -36 -518 0 -273 76 -537 242 -846
106 -196 190 -313 308 -433 152 -154 380 -308 550 -370 94 -34 252 -69 311
-69 l39 0 0 555 0 555 -115 0 c-85 0 -115 3 -115 13 0 6 68 128 150 271 127
219 150 265 150 300 0 53 31 106 63 106 15 0 29 11 41 32 21 34 22 33 57 -30
13 -22 26 -31 58 -36 47 -7 58 -30 47 -96 -6 -36 3 -55 139 -290 80 -138 145
-255 145 -260 0 -6 -48 -10 -120 -10 l-120 0 0 -442 0 -441 25 23 c60 57 329
428 351 484 5 13 -1 16 -25 16 -70 0 -124 56 -124 130 0 67 47 123 108 130 56
6 79 -1 118 -40 22 -22 41 -39 43 -37 2 2 24 39 49 83 25 43 45 72 45 63 0 -8
-25 -118 -55 -245 -85 -352 -198 -826 -203 -852 -4 -22 -2 -24 32 -19 26 3 36
1 36 -9 0 -7 -126 -454 -279 -991 -154 -538 -420 -1472 -592 -2076 l-313
-1097 -1273 0 c-700 0 -1273 2 -1273 4 0 5 -98 421 -216 916 -140 590 -567
2290 -578 2304 -9 12 -140 15 -796 20 -432 4 -1134 11 -1560 16 -426 5 -896
10 -1045 11 -148 1 -278 4 -288 7 -12 3 10 18 72 48 162 76 379 209 581 354
34 25 88 63 120 85 31 22 72 52 91 68 19 15 106 82 194 149 88 66 232 177 320
246 88 69 180 141 204 159 24 18 75 60 115 92 39 31 112 88 161 126 50 37 108
83 130 101 22 18 67 55 100 81 33 26 67 53 75 60 162 130 295 228 332 245 26
12 45 25 42 29 -3 5 3 6 12 2 12 -4 15 -3 10 5 -4 7 -2 10 6 7 16 -7 142 65
250 142 96 68 293 260 361 351 28 39 49 59 52 50 2 -7 21 -83 41 -168 39 -162
67 -236 86 -224 6 4 8 3 5 -3 -7 -11 37 -75 46 -68 4 3 5 2 2 -1 -2 -4 5 -21
17 -38 31 -45 178 -227 202 -252 12 -11 44 -46 71 -77 59 -68 196 -186 281
-244 221 -149 437 -190 687 -129 59 14 118 31 130 38 12 7 24 13 27 13 55 8
276 215 410 385 153 193 334 541 423 815 91 277 219 839 332 1460 8 44 29 166
45 270 17 105 40 215 51 245 42 112 88 250 83 250 -2 0 2 10 10 23 29 45 371
1137 389 1241 2 12 7 28 10 36 16 37 77 315 91 415 40 284 50 421 51 710 0
302 -7 377 -46 501 -47 148 -167 203 -296 137 -29 -14 -51 -28 -50 -30 2 -2
-10 -18 -27 -36 -17 -18 -40 -58 -50 -88 l-20 -54 -18 91 c-30 155 -71 245
-142 319 -51 53 -70 66 -119 80 -145 42 -249 -39 -335 -260 -20 -50 -22 -58
-22 -74 0 -5 -9 -11 -20 -14 -14 -4 -20 0 -20 11 0 10 -11 49 -25 89 -72 213
-180 323 -319 323 -61 0 -121 -23 -110 -42 4 -6 3 -8 -4 -5 -14 10 -68 -66
-92 -129 -10 -29 -24 -83 -30 -121 -20 -125 -20 -125 -40 -46 -11 40 -25 83
-31 95 -7 13 -14 28 -15 35 -4 24 -67 92 -97 104 -100 42 -203 -22 -246 -153
-34 -104 -41 -177 -51 -514 -11 -380 -23 -477 -80 -646 -40 -121 -44 -128 -69
-128 -14 0 -42 -3 -62 -6 l-37 -6 -17 53 c-28 88 -81 174 -151 244 -109 111
-197 134 -271 70 -88 -75 -191 -304 -258 -570 -1 -6 -69 -39 -151 -74 -239
-102 -566 -269 -749 -381 -161 -98 -406 -332 -656 -625 -19 -22 -36 -42 -39
-45 -25 -25 -219 -265 -235 -291 -5 -9 -49 -68 -96 -130 -126 -168 -397 -543
-475 -657 l-22 -32 -6 47 c-3 27 -7 77 -10 113 -3 36 -15 160 -27 276 l-21
211 22 69 c24 76 40 246 22 229 -6 -6 -22 -50 -34 -98 l-24 -87 -23 173 c-40
287 -43 271 -26 -148 7 -166 28 -464 51 -698 l16 -168 -37 -54 c-23 -32 -67
-76 -109 -106 -63 -46 -133 -99 -161 -122 -5 -4 -53 -40 -105 -79 -52 -39
-123 -93 -158 -120 -37 -29 -78 -52 -98 -55 -19 -3 -34 -10 -34 -15 0 -5 -4
-7 -9 -4 -5 3 -179 -33 -387 -79 -209 -47 -470 -106 -582 -131 -246 -54 -249
-55 -256 -91 -33 -168 -106 -653 -131 -873 -74 -632 -84 -1260 -29 -1640 39
-265 108 -467 198 -580 l36 -45 -223 -3 c-122 -1 -458 2 -747 7 -289 5 -527 8
-529 6 -7 -8 -103 -327 -162 -538 -138 -499 -216 -904 -239 -1252 -17 -258 16
-683 85 -1090 29 -172 82 -435 88 -441 5 -5 6519 -24 8252 -24 1897 0 8187 19
8193 25 1 1 -17 169 -41 373 l-44 370 28 129 c59 267 79 507 60 708 -35 366
-172 1003 -370 1725 -69 252 -205 714 -235 799 -9 24 -16 47 -16 50 0 13 293
-49 404 -85 92 -30 122 -36 201 -35 359 0 567 313 589 881 3 77 1 88 -21 113
-30 37 -32 113 -3 150 20 25 20 25 0 133 -45 248 -132 498 -284 810 -278 569
-670 1142 -1225 1789 -235 274 -356 402 -678 722 -302 301 -303 302 -334 291
-88 -30 -172 39 -171 141 l1 46 -114 96 -115 96 -4 904 c-5 1006 -18 1420 -61
1929 -26 299 -69 472 -171 690 -164 347 -511 678 -844 804 -101 37 -166 46
-415 56 -126 5 -273 16 -325 25 -98 15 -167 16 -505 5z m-526 -4255 c-4 -104
-8 -245 -9 -312 0 -98 -3 -123 -14 -123 -31 0 -32 28 -8 315 13 160 26 296 28
304 11 35 11 -7 3 -184z m2667 -3 c-13 -13 -17 9 -10 50 l9 43 3 -44 c2 -23 1
-46 -2 -49z m-3003 -145 c-3 -84 -10 -147 -16 -147 -6 0 -7 31 -3 83 21 262
29 289 19 64z m-3095 -1011 l2 -676 120 0 c66 0 120 -2 120 -5 0 -7 -88 -162
-110 -195 -9 -14 -30 -50 -47 -80 -16 -30 -85 -151 -153 -268 -106 -183 -125
-210 -135 -195 -7 10 -40 68 -75 128 -34 61 -86 151 -115 200 -199 340 -236
407 -231 412 3 3 57 5 121 4 l115 -2 0 532 0 532 83 86 c45 48 96 113 114 146
l31 60 79 -2 78 -1 3 -676z m7248 45 c56 -34 79 -113 49 -171 -66 -127 -255
-84 -255 60 0 100 119 164 206 111z m-508 -523 c66 -43 91 -65 88 -77 -2 -9
-16 -58 -31 -109 -15 -50 -26 -107 -25 -125 4 -61 0 -75 -25 -106 -15 -17 -38
-71 -55 -128 -106 -361 -412 -1406 -480 -1638 -87 -300 -198 -627 -211 -620
-4 3 -13 20 -19 39 -9 29 -33 46 -173 132 -89 54 -212 130 -274 170 l-112 71
87 7 c358 28 550 215 569 553 l6 103 51 29 c121 68 217 190 269 340 26 73 31
106 35 214 l5 128 49 51 c83 86 130 184 147 309 26 188 -39 359 -200 533 l-77
82 14 114 c7 63 13 123 14 132 0 18 44 -8 348 -204z m1027 -212 c64 -27 95
-121 62 -186 -18 -35 -74 -70 -114 -70 -80 0 -136 57 -136 137 0 52 24 90 74
115 41 22 69 22 114 4z m-3740 -820 c18 -8 41 -26 51 -41 15 -23 16 -33 6 -76
-7 -28 -12 -61 -12 -75 0 -37 -53 -66 -111 -61 -58 5 -94 31 -115 83 -44 113
67 217 181 170z m3175 2 c0 -6 -19 -64 -41 -129 -38 -109 -43 -118 -61 -108
-36 19 -59 70 -55 120 4 53 29 92 72 113 36 18 85 21 85 4z m1137 -30 c18 -16
49 -78 40 -78 -2 0 -29 27 -62 61 -52 52 -56 59 -30 49 17 -6 40 -21 52 -32z
m-64 -69 c77 -80 85 -92 74 -110 -16 -25 -67 -49 -107 -49 -106 0 -166 122
-105 213 14 20 31 37 38 37 7 0 52 -41 100 -91z m-988 51 c26 -29 30 -98 8
-139 -19 -34 -86 -81 -98 -69 -8 8 55 228 65 228 4 0 15 -9 25 -20z m-4075
-222 c-1 -13 -6 -48 -13 -79 l-12 -56 -100 28 c-82 23 -96 29 -75 35 14 4 61
26 105 49 97 51 95 50 95 23z m-1817 -506 c80 -80 19 -225 -92 -224 -99 2
-161 85 -132 175 32 95 152 121 224 49z m5319 21 c60 -30 79 -126 37 -187 -29
-42 -56 -56 -112 -56 -87 0 -149 81 -126 164 13 48 38 75 84 91 42 14 72 11
117 -12z m1058 6 c40 -15 70 -68 70 -123 0 -43 -4 -53 -39 -87 -34 -34 -44
-39 -85 -39 -26 0 -60 7 -76 15 -67 35 -84 141 -32 205 21 25 89 51 117 44 11
-3 31 -10 45 -15z m1070 1 c8 -5 26 -20 40 -35 21 -22 25 -36 25 -86 0 -50 -4
-62 -26 -84 l-26 -26 -45 118 c-25 65 -44 121 -41 126 4 7 47 0 73 -13z
m-5310 -28 c84 -84 22 -222 -100 -222 -121 0 -172 134 -87 228 17 19 31 22 90
22 62 0 71 -3 97 -28z m5239 -97 c28 -63 51 -117 51 -120 0 -3 -20 -5 -44 -5
-84 0 -146 74 -130 156 7 39 39 84 58 84 8 0 37 -52 65 -115z m-11151 -539
c-61 -57 -218 -174 -218 -162 0 3 20 19 46 36 33 24 42 35 35 44 -8 9 -7 13 4
13 8 0 12 -4 9 -9 -16 -26 24 1 97 66 46 41 86 75 89 75 3 0 -25 -28 -62 -63z
m4288 -167 c28 -17 40 -35 57 -91 9 -27 -13 -89 -40 -114 -65 -61 -171 -44
-211 33 -15 28 -15 95 0 127 20 44 89 79 138 69 14 -3 39 -14 56 -24z m2111
16 c12 -3 36 -22 52 -41 26 -29 31 -43 31 -84 0 -43 -5 -56 -32 -86 -52 -56
-136 -61 -195 -13 -47 40 -52 130 -10 182 23 29 91 59 117 52 8 -2 25 -6 37
-10z m1091 -12 c69 -43 81 -148 25 -205 -73 -73 -196 -43 -225 54 -35 119 95
217 200 151z m1084 -10 c88 -80 41 -231 -73 -235 -56 -2 -82 10 -75 35 3 12
16 67 28 122 12 55 26 103 31 106 14 10 66 -7 89 -28z m1058 8 c77 -53 75
-175 -5 -227 -31 -20 -109 -20 -141 1 -35 23 -64 74 -64 113 0 109 121 174
210 113z m1077 -8 c43 -31 61 -88 45 -141 -30 -98 -152 -126 -226 -52 -28 27
-31 37 -31 90 0 53 3 63 31 91 52 51 122 56 181 12z m-10937 2 c0 -2 -10 -9
-22 -15 -22 -11 -22 -10 -4 4 21 17 26 19 26 11z m-59 -22 c8 -9 9 -14 2 -10
-6 4 -13 1 -16 -5 -3 -7 -4 -3 -4 10 1 26 1 26 18 5z m6174 -713 c91 -56 81
-184 -18 -233 -145 -72 -262 149 -124 233 41 26 101 25 142 0z m1085 -18 c49
-48 59 -96 34 -148 -50 -100 -178 -110 -234 -19 -56 91 9 205 119 205 37 0 49
-6 81 -38z m1077 -6 c32 -35 37 -51 34 -111 -5 -84 -105 -138 -186 -99 -48 23
-75 67 -75 124 0 81 60 134 144 127 42 -4 55 -10 83 -41z m1064 8 c102 -98 5
-266 -130 -225 -86 25 -124 142 -69 209 50 60 145 68 199 16z m1071 -1 c36
-36 48 -104 28 -153 -14 -34 -58 -70 -87 -70 -36 0 -145 44 -155 64 -17 31
-13 100 8 134 40 69 149 82 206 25z m1039 22 c94 -49 89 -194 -7 -240 -67 -32
-142 -3 -177 68 -56 113 70 230 184 172z"/>
<path d="M10825 15240 l-29 -31 100 -100 101 -100 26 34 26 34 -95 94 c-52 52
-96 95 -98 96 -1 2 -15 -11 -31 -27z"/>
<path d="M12186 15195 c-9 -26 -7 -32 5 -12 6 10 9 21 6 23 -2 3 -7 -2 -11
-11z"/>
<path d="M12156 15123 c-6 -14 -5 -15 5 -6 7 7 10 15 7 18 -3 3 -9 -2 -12 -12z"/>
<path d="M12117 15045 c-15 -30 -25 -55 -22 -55 7 0 57 101 53 106 -2 2 -16
-21 -31 -51z"/>
<path d="M12497 14109 c-54 -13 -91 -34 -121 -70 -40 -48 -16 -99 46 -99 38 0
165 36 194 54 48 32 38 87 -21 112 -38 16 -44 16 -98 3z"/>
<path d="M12836 14017 c-115 -201 -233 -479 -356 -845 -56 -165 -59 -158 56
-149 41 3 74 4 74 1 0 -2 -16 -57 -35 -121 -38 -124 -37 -132 15 -133 19 0 34
-13 59 -51 41 -60 92 -101 99 -78 3 7 22 30 42 50 37 36 99 59 156 59 25 0 26
2 20 38 -3 20 -6 47 -6 59 l0 21 -52 -20 c-59 -23 -252 -36 -277 -19 -12 8 -7
29 27 128 23 65 42 124 42 131 0 10 -20 13 -85 10 -47 -2 -85 0 -85 3 0 15 58
170 158 424 160 405 199 525 175 525 -5 0 -16 -15 -27 -33z"/>
<path d="M13250 13812 c-27 -13 -36 -24 -38 -48 -4 -43 32 -72 140 -108 83
-29 86 -29 112 -13 100 66 -101 226 -214 169z"/>
<path d="M12235 13677 c-5 -23 -3 -55 4 -79 10 -32 20 -43 50 -56 37 -16 37
-16 33 -67 -8 -97 41 -161 117 -153 32 3 38 1 28 -10 -6 -7 -24 -20 -41 -28
l-31 -14 35 5 c52 8 97 58 120 133 57 185 -23 302 -160 232 -68 -35 -97 -25
-133 45 l-15 30 -7 -38z"/>
<path d="M13224 13481 c-102 -44 -135 -322 -45 -371 32 -17 34 -12 7 21 -34
40 -33 56 0 30 33 -26 70 -27 111 -1 35 21 51 45 68 105 12 38 13 39 52 37 31
-3 47 2 71 23 28 24 60 90 49 101 -2 3 -22 -6 -42 -21 -21 -14 -46 -25 -57
-25 -11 0 -43 23 -73 50 -55 53 -99 69 -141 51z"/>
<path d="M14791 13084 c-81 -22 -148 -62 -221 -134 -96 -95 -170 -227 -193
-347 -10 -52 21 -42 69 21 78 100 155 135 234 107 38 -13 37 3 -1 32 -39 28
-97 32 -141 9 -21 -11 -35 -15 -31 -8 27 48 115 155 162 197 57 51 178 119
212 119 11 0 19 5 19 10 0 14 -45 11 -109 -6z"/>
<path d="M13026 12484 c-40 -38 -55 -40 -151 -18 -26 6 -28 5 -17 -8 20 -25
76 -48 115 -48 43 0 80 30 95 78 14 41 6 40 -42 -4z"/>
<path d="M12028 11023 c6 -2 18 -2 25 0 6 3 1 5 -13 5 -14 0 -19 -2 -12 -5z"/>
<path d="M15053 10163 c15 -2 37 -2 50 0 12 2 0 4 -28 4 -27 0 -38 -2 -22 -4z"/>
<path d="M3681 9998 c-45 -90 -79 -154 -76 -144 12 42 36 216 33 233 -5 23
-64 -152 -77 -231 -6 -33 -11 -79 -11 -102 0 -28 -18 -85 -56 -175 -197 -472
-408 -1148 -449 -1441 l-7 -47 88 24 c168 47 289 84 275 84 -14 1 -234 -34
-278 -44 -15 -4 -23 -1 -23 8 0 46 228 742 425 1297 222 623 246 693 241 697
-2 3 -41 -69 -85 -159z"/>
<path d="M10723 9910 c0 -36 2 -50 4 -32 2 17 2 47 0 65 -2 17 -4 3 -4 -33z"/>
<path d="M5045 8974 c-550 -85 -1166 -211 -1594 -326 -605 -161 278 -8 1454
253 197 44 361 82 364 85 20 20 -43 16 -224 -12z"/>
<path d="M14490 8613 c-253 -15 -700 -70 -700 -86 0 -15 786 -2 975 17 241 24
475 58 469 67 -5 8 -617 10 -744 2z"/>
</g>
</svg>
