<?xml version="1.0" encoding="utf-8"?>
<!-- Generator: Adobe Illustrator 27.5.0, SVG Export Plug-In . SVG Version: 6.00 Build 0)  -->
<svg version="1.1" xmlns="http://www.w3.org/2000/svg" xmlns:xlink="http://www.w3.org/1999/xlink" x="0px" y="0px"
	 viewBox="0 0 800 500" style="enable-background:new 0 0 800 500;" xml:space="preserve">
<g id="Layer_43">
	<g>
		<g>
			<defs>
				<rect id="SVGID_1_" width="800" height="500"/>
			</defs>
			
				<linearGradient id="SVGID_00000002385729438625255150000004152377322478450058_" gradientUnits="userSpaceOnUse" x1="75" y1="575" x2="725" y2="-75">
				<stop  offset="0" style="stop-color:#030104"/>
				<stop  offset="0.6628" style="stop-color:#080609"/>
				<stop  offset="1" style="stop-color:#0D0D0D"/>
			</linearGradient>
			<use xlink:href="#SVGID_1_"  style="overflow:visible;fill:url(#SVGID_00000002385729438625255150000004152377322478450058_);"/>
			<clipPath id="SVGID_00000065059635812902501560000003736836941960702875_">
				<use xlink:href="#SVGID_1_"  style="overflow:visible;"/>
			</clipPath>
			
				<linearGradient id="SVGID_00000144319517639624870800000000151762661097215107_" gradientUnits="userSpaceOnUse" x1="487.4092" y1="197.9707" x2="487.4092" y2="-239.0195" gradientTransform="matrix(0 -1 1 0 545.7705 686.709)">
				<stop  offset="0" style="stop-color:#030104"/>
				<stop  offset="0.6628" style="stop-color:#080609"/>
				<stop  offset="1" style="stop-color:#0D0D0D"/>
			</linearGradient>
			
				<path style="clip-path:url(#SVGID_00000065059635812902501560000003736836941960702875_);fill:url(#SVGID_00000144319517639624870800000000151762661097215107_);" d="
				M525.248-129.023c120.671,0,218.493,146.997,218.493,328.323c0,181.327-97.822,328.321-218.493,328.323
				C404.575,527.621,306.752,380.627,306.751,199.3C306.752,17.974,404.575-129.023,525.248-129.023z"/>
			<g style="clip-path:url(#SVGID_00000065059635812902501560000003736836941960702875_);">
				<g>
					
						<linearGradient id="SVGID_00000063594108925504952740000014065477537614319533_" gradientUnits="userSpaceOnUse" x1="80.8697" y1="115.8861" x2="477.4952" y2="-280.7394" gradientTransform="matrix(0 1 -1 0 483.0303 49.584)">
						<stop  offset="0.2252" style="stop-color:#040205"/>
						<stop  offset="0.2915" style="stop-color:#040B0D"/>
						<stop  offset="0.3977" style="stop-color:#052221"/>
						<stop  offset="0.5305" style="stop-color:#064843"/>
						<stop  offset="0.6847" style="stop-color:#087D72"/>
						<stop  offset="0.8547" style="stop-color:#0BC0AD"/>
						<stop  offset="1" style="stop-color:#0DFFE5"/>
					</linearGradient>
					<path style="fill:url(#SVGID_00000063594108925504952740000014065477537614319533_);" d="M565.457,658.59
						c-58.88,0-114.192-34.39-155.748-96.834c-41.43-62.256-64.246-145-64.246-232.99c0-87.99,22.816-170.734,64.246-232.989
						c41.556-62.443,96.867-96.833,155.748-96.833c58.881,0.001,114.193,34.391,155.748,96.834
						c41.431,62.255,64.248,144.999,64.248,232.989c0,87.99-22.817,170.734-64.248,232.99
						C679.649,624.2,624.337,658.59,565.457,658.59z M565.457,1.943C445.806,1.944,348.463,148.556,348.463,328.766
						c0,180.212,97.343,326.824,216.994,326.824c119.651,0,216.995-146.612,216.996-326.824
						C782.452,148.557,685.108,1.945,565.457,1.943z"/>
				</g>
				
					<linearGradient id="SVGID_00000176732149060083172430000014893360488505691537_" gradientUnits="userSpaceOnUse" x1="279.1826" y1="136.0674" x2="279.1826" y2="-300.9228" gradientTransform="matrix(0 1 -1 0 483.0303 49.584)">
					<stop  offset="0" style="stop-color:#030104"/>
					<stop  offset="0.6628" style="stop-color:#080609"/>
					<stop  offset="1" style="stop-color:#0D0D0D"/>
				</linearGradient>
				<path style="fill:url(#SVGID_00000176732149060083172430000014893360488505691537_);" d="M565.457,657.09
					c-120.672,0-218.494-146.999-218.494-328.324c0-181.326,97.822-328.321,218.494-328.322
					c120.672,0.002,218.495,146.996,218.496,328.322C783.952,510.091,686.129,657.09,565.457,657.09z"/>
			</g>
			
				<linearGradient id="SVGID_00000100345076439217223740000016156595808701029816_" gradientUnits="userSpaceOnUse" x1="481.8944" y1="119.2208" x2="141.1706" y2="-154.4571" gradientTransform="matrix(-0.7796 0.6262 -0.6262 -0.7796 698.7752 -26.764)">
				<stop  offset="0" style="stop-color:#0D0D0D"/>
				<stop  offset="0.3372" style="stop-color:#080609"/>
				<stop  offset="1" style="stop-color:#030104"/>
			</linearGradient>
			
				<path style="clip-path:url(#SVGID_00000065059635812902501560000003736836941960702875_);fill:url(#SVGID_00000100345076439217223740000016156595808701029816_);" d="
				M296.593,387.606c-75.567-141.369-60.558-348.025,33.521-461.575c94.081-113.553,231.606-91.003,307.174,50.366
				c75.568,141.371,60.561,348.024-33.52,461.578C509.689,551.524,372.162,528.977,296.593,387.606z"/>
			<g style="clip-path:url(#SVGID_00000065059635812902501560000003736836941960702875_);">
				<g>
					
						<linearGradient id="SVGID_00000059274761810320671300000000387867828053004416_" gradientUnits="userSpaceOnUse" x1="9.3002" y1="178.2359" x2="329.1974" y2="-141.6613" gradientTransform="matrix(0.2569 0.9664 -0.9664 0.2569 405.7903 102.7934)">
						<stop  offset="0.2252" style="stop-color:#040205"/>
						<stop  offset="0.2915" style="stop-color:#040B0D"/>
						<stop  offset="0.3977" style="stop-color:#052221"/>
						<stop  offset="0.5305" style="stop-color:#064843"/>
						<stop  offset="0.6847" style="stop-color:#087D72"/>
						<stop  offset="0.8547" style="stop-color:#0BC0AD"/>
						<stop  offset="1" style="stop-color:#0DFFE5"/>
					</linearGradient>
					<path style="fill:url(#SVGID_00000059274761810320671300000000387867828053004416_);" d="M376.965,592.31
						c-45.617,0-86.428-19.382-118.02-56.049c-32.21-37.385-52.307-90.115-58.119-152.49
						c-7.472-80.189,9.428-167.315,47.586-245.332c38.185-78.07,93.105-137.707,154.645-167.922
						c28.001-13.748,55.984-20.72,83.172-20.72c45.618,0,86.429,19.381,118.021,56.048c32.21,37.384,52.308,90.114,58.119,152.49
						c7.472,80.187-9.428,167.314-47.586,245.331c-38.185,78.071-93.106,137.708-154.647,167.925
						C432.137,585.339,404.153,592.31,376.965,592.31z M486.229-47.203c-26.726,0-54.264,6.868-81.85,20.413
						C278.468,35.033,188.494,219.085,203.814,383.493c11.47,123.105,81.055,205.817,173.152,205.817
						c26.726,0,54.264-6.868,81.849-20.413c125.913-61.824,215.887-245.877,200.568-410.284
						C647.912,35.509,578.327-47.203,486.229-47.203z"/>
				</g>
				
					<linearGradient id="SVGID_00000152977255650403325390000000080373610912422300_" gradientUnits="userSpaceOnUse" x1="51.274" y1="202.2361" x2="287.2241" y2="-165.6611" gradientTransform="matrix(0.2569 0.9664 -0.9664 0.2569 405.7903 102.7934)">
					<stop  offset="0" style="stop-color:#030104"/>
					<stop  offset="0.6628" style="stop-color:#080609"/>
					<stop  offset="1" style="stop-color:#0D0D0D"/>
				</linearGradient>
				<path style="fill:url(#SVGID_00000152977255650403325390000000080373610912422300_);" d="M459.476,570.244
					c-126.628,62.177-241.76-21.376-257.156-186.612C186.923,218.393,277.091,34.038,403.719-28.137
					C530.348-90.312,645.479-6.764,660.876,158.475C676.272,323.711,586.104,508.068,459.476,570.244z"/>
			</g>
			
				<linearGradient id="SVGID_00000031206736948741076520000003705337285295850151_" gradientUnits="userSpaceOnUse" x1="442.4092" y1="-24.0293" x2="442.4092" y2="-461.0195" gradientTransform="matrix(0 -1 1 0 545.7705 686.709)">
				<stop  offset="0" style="stop-color:#030104"/>
				<stop  offset="0.6628" style="stop-color:#080609"/>
				<stop  offset="1" style="stop-color:#0D0D0D"/>
			</linearGradient>
			
				<path style="clip-path:url(#SVGID_00000065059635812902501560000003736836941960702875_);fill:url(#SVGID_00000031206736948741076520000003705337285295850151_);" d="
				M303.248-84.023c120.671,0,218.493,146.997,218.493,328.323c0,181.327-97.822,328.321-218.493,328.323
				C182.575,572.621,84.752,425.627,84.751,244.3C84.752,62.974,182.575-84.023,303.248-84.023z"/>
			<g style="clip-path:url(#SVGID_00000065059635812902501560000003736836941960702875_);">
				<g>
					
						<linearGradient id="SVGID_00000009582254438021429960000006725243022940021419_" gradientUnits="userSpaceOnUse" x1="70.8365" y1="289.598" x2="534.2095" y2="-173.775" gradientTransform="matrix(-0.8071 0.5904 -0.5904 -0.8071 555.0644 172.2425)">
						<stop  offset="0.2252" style="stop-color:#040205"/>
						<stop  offset="0.2915" style="stop-color:#040B0D"/>
						<stop  offset="0.3977" style="stop-color:#052221"/>
						<stop  offset="0.5305" style="stop-color:#064843"/>
						<stop  offset="0.6847" style="stop-color:#087D72"/>
						<stop  offset="0.8547" style="stop-color:#0BC0AD"/>
						<stop  offset="1" style="stop-color:#0DFFE5"/>
					</linearGradient>
					<path style="fill:url(#SVGID_00000009582254438021429960000006725243022940021419_);" d="M276.884,633.955
						c-33.997,0-68.009-11.959-98.358-34.582c-31.282-23.319-58.778-58.161-79.516-100.76
						C64.431,427.585,50.329,340.589,59.3,253.652c8.976-86.979,39.978-163.524,87.296-215.537
						c37.999-41.77,82.93-63.847,129.936-63.847c33.996,0,68.007,11.958,98.357,34.581c31.281,23.319,58.776,58.161,79.515,100.759
						c34.578,71.029,48.682,158.025,39.711,244.961c-8.975,86.978-39.977,163.525-87.294,215.539
						C368.822,611.877,323.89,633.955,276.884,633.955z M276.532-22.731c-46.139,0-90.302,21.739-127.717,62.866
						C51.953,146.606,30.82,351.69,101.706,497.301c40.742,83.689,106.229,133.654,175.177,133.654
						c46.139,0,90.303-21.738,127.718-62.865c96.859-106.473,117.99-311.558,47.104-457.167
						C410.964,27.232,345.478-22.731,276.532-22.731z"/>
				</g>
				
					<linearGradient id="SVGID_00000116920659108130552120000001787143663354029481_" gradientUnits="userSpaceOnUse" x1="478.8845" y1="186.9245" x2="126.1618" y2="-71.1009" gradientTransform="matrix(-0.8071 0.5904 -0.5904 -0.8071 555.0644 172.2425)">
					<stop  offset="0" style="stop-color:#030104"/>
					<stop  offset="0.6628" style="stop-color:#080609"/>
					<stop  offset="1" style="stop-color:#0D0D0D"/>
				</linearGradient>
				<path style="fill:url(#SVGID_00000116920659108130552120000001787143663354029481_);" d="M100.358,497.957
					c-71.246-146.35-50.046-351.776,47.348-458.832C245.1-67.934,381.809-36.084,453.055,110.266s50.049,351.775-47.344,458.834
					C308.316,676.156,171.605,644.307,100.358,497.957z"/>
			</g>
			
				<linearGradient id="SVGID_00000157290435453012667700000010551293134822753930_" gradientUnits="userSpaceOnUse" x1="48.0923" y1="84.7946" x2="477.9377" y2="5.7023" gradientTransform="matrix(-0.9835 -0.181 0.181 -0.9835 420.6166 348.6778)">
				<stop  offset="0" style="stop-color:#030104"/>
				<stop  offset="0.6628" style="stop-color:#080609"/>
				<stop  offset="1" style="stop-color:#0D0D0D"/>
			</linearGradient>
			
				<path style="clip-path:url(#SVGID_00000065059635812902501560000003736836941960702875_);fill:url(#SVGID_00000157290435453012667700000010551293134822753930_);" d="
				M-44.757,197.154C-22.92,18.822,90.993-99.143,209.671-66.33C328.35-33.516,406.855,137.65,385.021,315.982
				c-21.839,178.334-135.75,296.301-254.428,263.488C11.914,546.656-66.594,375.488-44.757,197.154z"/>
			<g style="clip-path:url(#SVGID_00000065059635812902501560000003736836941960702875_);">
				<g>
					
						<linearGradient id="SVGID_00000171688450271589650400000003409695421675305892_" gradientUnits="userSpaceOnUse" x1="-243.8159" y1="386.9778" x2="161.2255" y2="-18.0636" gradientTransform="matrix(0.9488 0.3159 -0.3159 0.9488 225.4119 53.9794)">
						<stop  offset="0.2252" style="stop-color:#040205"/>
						<stop  offset="0.2915" style="stop-color:#040B0D"/>
						<stop  offset="0.3977" style="stop-color:#052221"/>
						<stop  offset="0.5305" style="stop-color:#064843"/>
						<stop  offset="0.6847" style="stop-color:#087D72"/>
						<stop  offset="0.8547" style="stop-color:#0BC0AD"/>
						<stop  offset="1" style="stop-color:#0DFFE5"/>
					</linearGradient>
					<path style="fill:url(#SVGID_00000171688450271589650400000003409695421675305892_);" d="M62.925,533.129
						c-15.423,0-30.521-2.196-44.875-6.526c-41.986-12.668-76.137-42.979-98.763-87.659
						c-38.274-75.583-39.151-182.773-2.345-286.735C-57.601,80.309-15.723,15.364,34.863-30.664
						C84.879-76.173,141.04-101.236,193-101.236c15.421,0,30.519,2.196,44.872,6.526c41.985,12.667,76.136,42.98,98.762,87.66
						c38.275,75.584,39.151,182.776,2.344,286.739c-25.456,71.899-67.333,136.844-117.918,182.87
						C171.045,508.066,114.885,533.129,62.925,533.129z M193-98.236c-51.212,0-106.656,24.786-156.119,69.791
						c-50.226,45.7-91.816,110.213-117.11,181.654c-36.538,103.204-35.718,209.513,2.193,284.378
						c22.246,43.93,55.771,73.718,96.953,86.142c14.073,4.246,28.879,6.399,44.008,6.399c51.211,0,106.654-24.785,156.116-69.789
						c50.226-45.699,91.815-110.212,117.109-181.653c36.539-103.204,35.719-209.515-2.192-284.381
						c-22.246-43.931-55.771-73.719-96.952-86.144C222.934-96.084,208.128-98.236,193-98.236z"/>
				</g>
				
					<linearGradient id="SVGID_00000044889952496812165490000014357133246347933864_" gradientUnits="userSpaceOnUse" x1="-259.4463" y1="172.0954" x2="176.8559" y2="196.8161" gradientTransform="matrix(0.9488 0.3159 -0.3159 0.9488 225.4119 53.9794)">
					<stop  offset="0" style="stop-color:#030104"/>
					<stop  offset="0.6628" style="stop-color:#080609"/>
					<stop  offset="1" style="stop-color:#0D0D0D"/>
				</linearGradient>
				<path style="fill:url(#SVGID_00000044889952496812165490000014357133246347933864_);" d="M337.564,279.188
					c-60.463,170.779-203.322,280.904-319.08,245.979C-97.276,490.24-142.105,323.487-81.643,152.709
					C-21.179-18.07,121.678-128.198,237.439-93.274C353.198-58.348,398.027,108.409,337.564,279.188z"/>
			</g>
			
				<linearGradient id="SVGID_00000056402537356134069700000002250414308044204945_" gradientUnits="userSpaceOnUse" x1="295.1086" y1="487.5707" x2="295.1086" y2="85.3257" gradientTransform="matrix(-0.2045 -0.9789 0.9789 -0.2045 -198.6437 524.1822)">
				<stop  offset="0" style="stop-color:#030104"/>
				<stop  offset="0.6628" style="stop-color:#080609"/>
				<stop  offset="1" style="stop-color:#0D0D0D"/>
			</linearGradient>
			
				<path style="clip-path:url(#SVGID_00000065059635812902501560000003736836941960702875_);fill:url(#SVGID_00000056402537356134069700000002250414308044204945_);" d="
				M-40.407-119.116c108.733-22.721,224.553,91.314,258.695,254.699C252.43,298.968,191.963,449.839,83.229,472.56
				c-108.732,22.721-224.553-91.313-258.695-254.697C-209.606,54.477-149.139-96.396-40.407-119.116z"/>
			<g style="clip-path:url(#SVGID_00000065059635812902501560000003736836941960702875_);">
				<g>
					
						<linearGradient id="SVGID_00000168090172094297541420000000722633769255761065_" gradientUnits="userSpaceOnUse" x1="10.9072" y1="883.8385" x2="407.425" y2="487.3206" gradientTransform="matrix(-0.2385 0.9711 -0.9711 -0.2385 667.193 253.4902)">
						<stop  offset="0.2252" style="stop-color:#040205"/>
						<stop  offset="0.2915" style="stop-color:#040B0D"/>
						<stop  offset="0.3977" style="stop-color:#052221"/>
						<stop  offset="0.5305" style="stop-color:#064843"/>
						<stop  offset="0.6847" style="stop-color:#087D72"/>
						<stop  offset="0.8547" style="stop-color:#0BC0AD"/>
						<stop  offset="1" style="stop-color:#0DFFE5"/>
					</linearGradient>
					<path style="fill:url(#SVGID_00000168090172094297541420000000722633769255761065_);" d="M-91.258,617.727
						c-12.124,0-24.195-1.455-35.877-4.324c-57.18-14.046-102.693-60.637-128.153-131.191
						c-25.383-70.341-27.804-156.14-6.814-241.589c18.752-76.347,55.112-145.81,102.381-195.595
						C-112.85-4.338-58.137-31.526-5.661-31.526c12.125,0,24.195,1.455,35.877,4.324C87.396-13.155,132.909,33.436,158.37,103.989
						c25.384,70.34,27.805,156.138,6.816,241.588c-18.753,76.347-55.113,145.811-102.383,195.596
						C15.931,590.54-38.783,617.727-91.258,617.727z M-5.661-28.526c-51.645,0-105.585,26.855-151.885,75.619
						C-204.462,96.506-240.56,165.49-259.19,241.338c-42.987,175.009,16.573,340.61,132.771,369.151
						c11.447,2.813,23.277,4.238,35.161,4.238c51.645,0,105.585-26.856,151.886-75.621
						c46.916-49.412,83.015-118.396,101.646-194.244C205.258,169.855,145.697,4.255,29.5-24.289
						C18.053-27.1,6.223-28.526-5.661-28.526z"/>
				</g>
				
					<linearGradient id="SVGID_00000156563463821685703490000007315145085757035447_" gradientUnits="userSpaceOnUse" x1="209.1661" y1="904.0831" x2="209.1661" y2="467.0745" gradientTransform="matrix(-0.2385 0.9711 -0.9711 -0.2385 667.193 253.4902)">
					<stop  offset="0" style="stop-color:#030104"/>
					<stop  offset="0.6628" style="stop-color:#080609"/>
					<stop  offset="1" style="stop-color:#0D0D0D"/>
				</linearGradient>
				<path style="fill:url(#SVGID_00000156563463821685703490000007315145085757035447_);" d="M-126.777,611.946
					c-117.189-28.785-177.122-194.875-133.869-370.966C-217.394,64.888-87.331-54.529,29.858-25.745
					C147.046,3.042,206.982,169.127,163.73,345.22C120.476,521.31-9.589,640.731-126.777,611.946z"/>
			</g>
		</g>
	</g>
</g>
<g id="Layer_1">
</g>
</svg>
