<?xml version="1.0" encoding="utf-8"?>
<!-- Generator: Adobe Illustrator 27.5.0, SVG Export Plug-In . SVG Version: 6.00 Build 0)  -->
<svg version="1.1" id="Layer_1" xmlns="http://www.w3.org/2000/svg" xmlns:xlink="http://www.w3.org/1999/xlink" x="0px" y="0px"
	 viewBox="0 0 7000 4081" style="enable-background:new 0 0 7000 4081;" xml:space="preserve">
<g>
	<g>
		<defs>
			<rect id="SVGID_1_" width="7000" height="4081"/>
		</defs>
		<clipPath id="SVGID_00000084512785495076173010000013113302543756163518_">
			<use xlink:href="#SVGID_1_"  style="overflow:visible;"/>
		</clipPath>
		
			<linearGradient id="SVGID_00000123421843200746331210000014891110091208184986_" gradientUnits="userSpaceOnUse" x1="1073.4885" y1="3634.0452" x2="6375.6401" y2="152.0017">
			<stop  offset="0" style="stop-color:#000000"/>
			<stop  offset="1" style="stop-color:#001E87"/>
		</linearGradient>
		
			<rect style="clip-path:url(#SVGID_00000084512785495076173010000013113302543756163518_);fill:url(#SVGID_00000123421843200746331210000014891110091208184986_);" width="7000" height="4081"/>
	</g>
	<g>
		<defs>
			<polygon id="SVGID_00000133494198430115367000000013420577439036196277_" points="1753.755,987.352 2346.47,1329.54 
				2939.186,1671.728 2939.186,2356.102 2939.186,3040.478 2346.47,3382.664 1753.755,3724.852 1161.039,3382.664 568.323,3040.478 
				568.323,2356.102 568.323,1671.728 1161.039,1329.54 			"/>
		</defs>
		<clipPath id="SVGID_00000076565173580390161630000005919665758454054331_">
			<use xlink:href="#SVGID_00000133494198430115367000000013420577439036196277_"  style="overflow:visible;"/>
		</clipPath>
		
			<linearGradient id="SVGID_00000104664035023998177820000005801965821792262068_" gradientUnits="userSpaceOnUse" x1="785.8313" y1="2612.5781" x2="5126.957" y2="1462.2834">
			<stop  offset="0" style="stop-color:#000E3E"/>
			<stop  offset="1" style="stop-color:#19B5FE"/>
		</linearGradient>
		
			<rect x="568.323" y="987.352" style="clip-path:url(#SVGID_00000076565173580390161630000005919665758454054331_);fill:url(#SVGID_00000104664035023998177820000005801965821792262068_);" width="2370.863" height="2737.5"/>
	</g>
	<g>
		<defs>
			<polygon id="SVGID_00000067939931762046710790000009781112257218558631_" points="0,0 1961.299,0 2195.422,135.163 
				2195.422,884.231 2195.422,1633.3 1546.678,2007.834 897.934,2382.369 249.188,2007.834 0,1863.972 			"/>
		</defs>
		<clipPath id="SVGID_00000098939755629685522610000004926699316737492880_">
			<use xlink:href="#SVGID_00000067939931762046710790000009781112257218558631_"  style="overflow:visible;"/>
		</clipPath>
		
			<linearGradient id="SVGID_00000169537318946149178180000002216226779046385085_" gradientUnits="userSpaceOnUse" x1="841.7056" y1="1634.5907" x2="2117.4778" y2="-575.0728">
			<stop  offset="0" style="stop-color:#004790"/>
			<stop  offset="1" style="stop-color:#19B5FE"/>
		</linearGradient>
		
			<rect style="clip-path:url(#SVGID_00000098939755629685522610000004926699316737492880_);fill:url(#SVGID_00000169537318946149178180000002216226779046385085_);" width="2195.422" height="2382.369"/>
	</g>
	<g>
		<defs>
			<polygon id="SVGID_00000016033334085521049140000009038530741937990043_" points="0,3886.158 0,1391.078 209.951,1269.868 
				802.667,1612.056 1395.382,1954.244 1395.382,2638.618 1395.382,3322.994 802.667,3665.18 209.951,4007.368 			"/>
		</defs>
		<clipPath id="SVGID_00000028313617005457289020000016712860128768259245_">
			<use xlink:href="#SVGID_00000016033334085521049140000009038530741937990043_"  style="overflow:visible;"/>
		</clipPath>
		
			<linearGradient id="SVGID_00000075859749773725846360000007452036099865548472_" gradientUnits="userSpaceOnUse" x1="505.9456" y1="2962.8684" x2="1758.7103" y2="844.3855">
			<stop  offset="0" style="stop-color:#003C78"/>
			<stop  offset="1" style="stop-color:#19B5FE"/>
		</linearGradient>
		
			<rect y="1269.868" style="clip-path:url(#SVGID_00000028313617005457289020000016712860128768259245_);fill:url(#SVGID_00000075859749773725846360000007452036099865548472_);" width="1395.382" height="2737.5"/>
	</g>
	<g>
		<defs>
			<polygon id="SVGID_00000109719146677919083780000013512602518779683219_" points="2357.93,4081 0,4081 0,3459.28 
				579.783,3124.558 1172.499,2782.37 1765.214,3124.558 2357.93,3466.746 			"/>
		</defs>
		<clipPath id="SVGID_00000099638158292808330390000015717544537607158692_">
			<use xlink:href="#SVGID_00000109719146677919083780000013512602518779683219_"  style="overflow:visible;"/>
		</clipPath>
		
			<linearGradient id="SVGID_00000096769101726357906700000009364136978152627134_" gradientUnits="userSpaceOnUse" x1="720.7131" y1="3967.3167" x2="2108.2559" y2="2345.4749">
			<stop  offset="0" style="stop-color:#004790"/>
			<stop  offset="1" style="stop-color:#19B5FE"/>
		</linearGradient>
		
			<rect y="2782.37" style="clip-path:url(#SVGID_00000099638158292808330390000015717544537607158692_);fill:url(#SVGID_00000096769101726357906700000009364136978152627134_);" width="2357.93" height="1298.63"/>
	</g>
	<defs>
		<filter id="Adobe_OpacityMaskFilter" filterUnits="userSpaceOnUse" x="1395.382" y="0" width="800.04" height="2095.18">
			<feColorMatrix  type="matrix" values="1 0 0 0 0  0 1 0 0 0  0 0 1 0 0  0 0 0 1 0"/>
		</filter>
	</defs>
	
		<mask maskUnits="userSpaceOnUse" x="1395.382" y="0" width="800.04" height="2095.18" id="SVGID_00000077322606452680509700000003062394416633713551_">
		<g style="filter:url(#Adobe_OpacityMaskFilter);">
			
				<linearGradient id="SVGID_00000140732008210000961410000007398633082032865962_" gradientUnits="userSpaceOnUse" x1="2389.8889" y1="1725.2587" x2="1230.374" y2="3011.7336" gradientTransform="matrix(1 0 0 1 334.8748 -1708.7902)">
				<stop  offset="0" style="stop-color:#FFFFFF"/>
				<stop  offset="1" style="stop-color:#000000"/>
			</linearGradient>
			
				<rect x="1395.382" style="fill:url(#SVGID_00000140732008210000961410000007398633082032865962_);" width="800.04" height="2095.18"/>
		</g>
	</mask>
	
		<polygon style="mask:url(#SVGID_00000077322606452680509700000003062394416633713551_);fill-rule:evenodd;clip-rule:evenodd;fill:#39D5FF;" points="
		2057.915,135.163 2057.915,884.231 2057.915,1162.95 2057.915,1633.3 1409.171,2007.834 1395.382,2015.794 1395.382,2095.18 
		1546.678,2007.834 2195.422,1633.3 2195.422,1242.336 2195.422,884.231 2195.422,135.163 1961.299,0 1823.792,0 	"/>
	<defs>
		
			<filter id="Adobe_OpacityMaskFilter_00000096761096153271677580000004908550374766900869_" filterUnits="userSpaceOnUse" x="2195.422" y="1242.336" width="743.764" height="2179.061">
			<feColorMatrix  type="matrix" values="1 0 0 0 0  0 1 0 0 0  0 0 1 0 0  0 0 0 1 0"/>
		</filter>
	</defs>
	
		<mask maskUnits="userSpaceOnUse" x="2195.422" y="1242.336" width="743.764" height="2179.061" id="SVGID_00000146497865517289919250000000289796650211625129_">
		<g style="filter:url(#Adobe_OpacityMaskFilter_00000096761096153271677580000004908550374766900869_);">
			
				<linearGradient id="SVGID_00000048469308159031185700000014195768900538470320_" gradientUnits="userSpaceOnUse" x1="3432.8857" y1="3423.2805" x2="1657.8308" y2="3804.5425" gradientTransform="matrix(1 0 0 1 526.8747 -1390.498)">
				<stop  offset="0" style="stop-color:#FFFFFF"/>
				<stop  offset="1" style="stop-color:#000000"/>
			</linearGradient>
			
				<rect x="2195.422" y="1242.336" style="fill:url(#SVGID_00000048469308159031185700000014195768900538470320_);" width="743.763" height="2179.061"/>
		</g>
	</mask>
	
		<polygon style="mask:url(#SVGID_00000146497865517289919250000000289796650211625129_);fill-rule:evenodd;clip-rule:evenodd;fill:#39D5FF;" points="
		2801.678,1671.728 2801.678,2356.102 2801.678,3040.478 2210.626,3381.704 2279.38,3421.397 2346.47,3382.664 2939.186,3040.478 
		2939.186,2356.102 2939.186,1671.728 2346.47,1329.54 2195.422,1242.336 2195.422,1321.722 2208.963,1329.54 	"/>
	<defs>
		
			<filter id="Adobe_OpacityMaskFilter_00000081632979838141349450000014762500004988317847_" filterUnits="userSpaceOnUse" x="0" y="1269.868" width="1395.382" height="1641.177">
			<feColorMatrix  type="matrix" values="1 0 0 0 0  0 1 0 0 0  0 0 1 0 0  0 0 0 1 0"/>
		</filter>
	</defs>
	
		<mask maskUnits="userSpaceOnUse" x="0" y="1269.868" width="1395.382" height="1641.177" id="SVGID_00000145751440624963544060000017793355664392346040_">
		<g style="filter:url(#Adobe_OpacityMaskFilter_00000081632979838141349450000014762500004988317847_);">
			
				<linearGradient id="SVGID_00000034076526178439525090000004083030843948896406_" gradientUnits="userSpaceOnUse" x1="1688.5282" y1="2539.5901" x2="640.7133" y2="3664.6152" gradientTransform="matrix(1 0 0 1 0 -1512.9825)">
				<stop  offset="0" style="stop-color:#FFFFFF"/>
				<stop  offset="1" style="stop-color:#000000"/>
			</linearGradient>
			
				<rect y="1269.868" style="fill:url(#SVGID_00000034076526178439525090000004083030843948896406_);" width="1395.382" height="1641.177"/>
		</g>
	</mask>
	
		<polygon style="mask:url(#SVGID_00000145751440624963544060000017793355664392346040_);fill-rule:evenodd;clip-rule:evenodd;fill:#39D5FF;" points="
		134.948,1394.868 591.415,1658.396 727.663,1737.056 1320.378,2079.243 1320.378,2138.481 1320.378,2763.618 1320.378,2867.744 
		1395.382,2911.045 1395.382,2638.618 1395.382,2095.18 1395.382,2015.794 1395.382,1954.244 802.667,1612.056 737.175,1574.245 
		209.951,1269.868 0,1391.078 0,1472.775 	"/>
	<defs>
		
			<filter id="Adobe_OpacityMaskFilter_00000061456608539349925480000004538034257107927999_" filterUnits="userSpaceOnUse" x="0" y="2782.37" width="2357.93" height="795.639">
			<feColorMatrix  type="matrix" values="1 0 0 0 0  0 1 0 0 0  0 0 1 0 0  0 0 0 1 0"/>
		</filter>
	</defs>
	
		<mask maskUnits="userSpaceOnUse" x="0" y="2782.37" width="2357.93" height="795.639" id="SVGID_00000043454816331787811140000006870051793705553572_">
		<g style="filter:url(#Adobe_OpacityMaskFilter_00000061456608539349925480000004538034257107927999_);">
			
				<linearGradient id="SVGID_00000005983476595735257680000003339411551034965145_" gradientUnits="userSpaceOnUse" x1="1178.9648" y1="2259.0032" x2="1178.9648" y2="4990.2534" gradientTransform="matrix(1 0 0 1 0 -1352.9113)">
				<stop  offset="0" style="stop-color:#FFFFFF"/>
				<stop  offset="1" style="stop-color:#000000"/>
			</linearGradient>
			
				<rect y="2782.37" style="fill:url(#SVGID_00000005983476595735257680000003339411551034965145_);" width="2357.93" height="795.639"/>
		</g>
	</mask>
	
		<polygon style="mask:url(#SVGID_00000043454816331787811140000006870051793705553572_);fill-rule:evenodd;clip-rule:evenodd;fill:#5EFAF7;" points="
		646.873,3085.826 579.783,3124.558 0,3459.28 0,3570.543 579.783,3235.821 743.234,3141.457 1172.499,2893.634 1395.382,3022.309 
		1765.214,3235.821 2183.019,3477.028 2357.93,3578.009 2357.93,3466.746 2279.38,3421.397 2210.626,3381.704 1765.214,3124.558 
		1395.382,2911.045 1320.378,2867.744 1172.499,2782.37 	"/>
</g>
</svg>
