<?xml version="1.0" encoding="utf-8"?>
<!-- Generator: Adobe Illustrator 27.5.0, SVG Export Plug-In . SVG Version: 6.00 Build 0)  -->
<svg version="1.1" xmlns="http://www.w3.org/2000/svg" xmlns:xlink="http://www.w3.org/1999/xlink" x="0px" y="0px"
	 viewBox="0 0 1200 800" style="enable-background:new 0 0 1200 800;" xml:space="preserve">
<g id="Background">
	<rect style="fill:#111C2E;" width="1200" height="800"/>
</g>
<g id="Object">
	<g>
		<defs>
			<rect id="SVGID_1_" width="1200" height="800"/>
		</defs>
		<clipPath id="SVGID_00000119830408236017155660000005737867719740225165_">
			<use xlink:href="#SVGID_1_"  style="overflow:visible;"/>
		</clipPath>
		<g style="clip-path:url(#SVGID_00000119830408236017155660000005737867719740225165_);">
			<g>
				<polygon style="fill:#1D2840;" points="1227.772,359.791 1100.502,359.791 1036.867,470.01 1100.502,580.23 1227.772,580.23 
					1291.408,470.01 				"/>
			</g>
			<g>
				<polygon style="fill:#203054;" points="1019.811,69.602 852.27,69.602 768.5,214.696 852.27,359.791 1019.811,359.791 
					1103.582,214.696 				"/>
			</g>
			<g>
				<polygon style="fill:#1A2140;" points="912.826,-115.702 745.285,-115.702 661.515,29.392 745.285,174.487 912.826,174.487 
					996.596,29.392 				"/>
			</g>
			<g>
				<polygon style="fill:#1A2140;" points="1247.908,69.602 1080.367,69.602 996.596,214.696 1080.367,359.791 1247.908,359.791 
					1331.678,214.696 				"/>
			</g>
			<g>
				<path style="fill:#343B57;" d="M1151.455,402.5h-109.872l-54.936-95.152l54.936-95.152h109.872l54.936,95.152L1151.455,402.5z
					 M1044.469,397.5h104.099l52.049-90.152l-52.049-90.152h-104.099l-52.049,90.152L1044.469,397.5z"/>
			</g>
			<g>
				<path style="fill:#343B57;" d="M1311.933,495.152h-109.872L1147.125,400l54.936-95.152h109.872L1366.869,400L1311.933,495.152z
					 M1204.947,490.152h104.099L1361.095,400l-52.049-90.152h-104.099L1152.898,400L1204.947,490.152z"/>
			</g>
			<g>
				<path style="fill:#343B57;" d="M990.977,495.152H881.105L826.169,400l54.936-95.152h109.872L1045.913,400L990.977,495.152z
					 M883.992,490.152H988.09L1040.139,400l-52.049-90.152H883.992L831.942,400L883.992,490.152z"/>
			</g>
			<g>
				<path style="fill:#343B57;" d="M830.498,402.5H720.626l-54.936-95.152l54.936-95.152h109.872l54.936,95.152L830.498,402.5z
					 M723.513,397.5h104.099l52.049-90.152l-52.049-90.152H723.513l-52.049,90.152L723.513,397.5z"/>
			</g>
			<g>
				<path style="fill:#343B57;" d="M990.977,309.848H881.105l-54.936-95.152l54.936-95.152h109.872l54.936,95.152L990.977,309.848z
					 M883.992,304.848H988.09l52.049-90.152l-52.049-90.152H883.992l-52.049,90.152L883.992,304.848z"/>
			</g>
			<g>
				<path style="fill:#343B57;" d="M990.977,124.544H881.105l-54.936-95.152l54.936-95.152h109.872l54.936,95.152L990.977,124.544z
					 M883.992,119.544H988.09l52.049-90.152L988.09-60.76H883.992l-52.049,90.152L883.992,119.544z"/>
			</g>
			<g>
				<path style="fill:#343B57;" d="M990.977,865.76H881.105l-54.936-95.152l54.936-95.152h109.872l54.936,95.152L990.977,865.76z
					 M883.992,860.76H988.09l52.049-90.152l-52.049-90.152H883.992l-52.049,90.152L883.992,860.76z"/>
			</g>
			<g>
				<path style="fill:#343B57;" d="M509.542,773.108H399.67l-54.936-95.152l54.936-95.152h109.872l54.936,95.152L509.542,773.108z
					 M402.557,768.108h104.098l52.049-90.152l-52.049-90.152H402.557l-52.049,90.152L402.557,768.108z"/>
			</g>
			<g>
				<path style="fill:#343B57;" d="M349.064,495.152H239.192L184.256,400l54.936-95.152h109.872L404,400L349.064,495.152z
					 M242.079,490.152h104.099L398.227,400l-52.049-90.152H242.079L190.03,400L242.079,490.152z"/>
			</g>
			<g>
				<path style="fill:#343B57;" d="M349.064,680.456H239.192l-54.936-95.152l54.936-95.152h109.872L404,585.304L349.064,680.456z
					 M242.079,675.456h104.099l52.049-90.152l-52.049-90.152H242.079l-52.049,90.152L242.079,675.456z"/>
			</g>
			<g>
				<path style="fill:#343B57;" d="M509.542,31.892H399.67L344.734-63.26l54.936-95.152h109.872l54.936,95.152L509.542,31.892z
					 M402.557,26.892h104.098l52.049-90.152l-52.049-90.152H402.557L350.508-63.26L402.557,26.892z"/>
			</g>
			<g>
				<path style="fill:#343B57;" d="M28.108,680.456H-81.764l-54.936-95.152l54.936-95.152H28.108l54.936,95.152L28.108,680.456z
					 M-78.877,675.456H25.221l52.049-90.152l-52.049-90.152H-78.877l-52.049,90.152L-78.877,675.456z"/>
			</g>
			<g>
				<path style="fill:#343B57;" d="M509.542,958.412H399.67l-54.936-95.152l54.936-95.152h109.872l54.936,95.152L509.542,958.412z
					 M402.557,953.412h104.098l52.049-90.152l-52.049-90.152H402.557l-52.049,90.152L402.557,953.412z"/>
			</g>
			<g>
				<path style="fill:#343B57;" d="M349.064,865.76H239.192l-54.936-95.152l54.936-95.152h109.872L404,770.608L349.064,865.76z
					 M242.079,860.76h104.099l52.049-90.152l-52.049-90.152H242.079l-52.049,90.152L242.079,860.76z"/>
			</g>
			<g>
				<polygon style="fill:#203054;" points="309.333,724.566 141.792,724.566 58.022,869.661 141.792,1014.755 309.333,1014.755 
					393.104,869.661 				"/>
			</g>
			<g>
				<polygon style="fill:#1A2140;" points="173.86,448.659 123.061,448.659 97.661,492.652 123.061,536.645 173.86,536.645 
					199.259,492.652 				"/>
			</g>
			<g>
				<polygon style="fill:#203054;" points="981.041,440.931 891.041,440.931 846.041,518.873 891.041,596.816 981.041,596.816 
					1026.041,518.873 				"/>
			</g>
			<g>
				<polygon style="fill:#1D2840;" points="83.77,106.174 -83.77,106.174 -167.541,251.269 -83.77,396.363 83.77,396.363 
					167.541,251.269 				"/>
			</g>
			<g>
				<polygon style="fill:#1A2140;" points="-29.484,585.305 56.607,585.305 99.652,659.861 56.607,734.418 -29.484,734.418 
					-72.529,659.861 				"/>
			</g>
		</g>
	</g>
</g>
</svg>
