<?xml version="1.0" encoding="utf-8"?>
<!-- Generator: Adobe Illustrator 27.5.0, SVG Export Plug-In . SVG Version: 6.00 Build 0)  -->
<svg version="1.1" xmlns="http://www.w3.org/2000/svg" xmlns:xlink="http://www.w3.org/1999/xlink" x="0px" y="0px"
	 viewBox="0 0 750 500" style="enable-background:new 0 0 750 500;" xml:space="preserve">
<g id="BACKGROUND">
	<linearGradient id="SVGID_1_" gradientUnits="userSpaceOnUse" x1="804.5198" y1="-87.1075" x2="-185.4318" y2="689.8533">
		<stop  offset="0" style="stop-color:#3D4351"/>
		<stop  offset="1" style="stop-color:#010214"/>
	</linearGradient>
	<rect style="fill:url(#SVGID_1_);" width="750" height="500"/>
</g>
<g id="OBJECTS">
	<g>
		<defs>
			<rect id="SVGID_00000021799728813697996800000002165605107411580089_" width="750" height="500"/>
		</defs>
		<clipPath id="SVGID_00000089541463823037691780000005589024023480852894_">
			<use xlink:href="#SVGID_00000021799728813697996800000002165605107411580089_"  style="overflow:visible;"/>
		</clipPath>
		<g style="clip-path:url(#SVGID_00000089541463823037691780000005589024023480852894_);">
			<path style="fill:none;stroke:#010214;stroke-miterlimit:10;" d="M-189.302,158.477c0.051,53.722,0.155,107.947,11.781,160.396
				c11.625,52.449,35.879,103.706,76.927,138.362c33.441,28.233,76.64,44.496,105.782,77.148
				c34.894,39.096,45.768,97.567,87.38,129.417c23.146,17.716,52.533,24.472,80.259,33.464c27.726,8.992,56.389,22.129,71.323,47.16
				"/>
			<path style="fill:none;stroke:#010214;stroke-miterlimit:10;" d="M245.872,744.321c-16.962-25.621-46.477-40.968-73.472-52.661
				c-26.874-11.641-53.739-21.542-77.42-40.82c-40.31-32.815-53.18-89.195-88.005-128.047
				c-30.251-33.634-71.743-53.649-104.121-83.272c-38.154-34.908-61.987-83.668-73.245-134.518
				c-11.258-50.85-11.972-103.382-12.922-154.719"/>
			<path style="fill:none;stroke:#010214;stroke-miterlimit:10;" d="M247.594,744.217c-18.99-26.211-49.347-43.748-75.62-58.161
				c-26.011-14.27-50.368-27.299-74.58-48.175c-39.057-33.675-53.873-88.068-88.629-126.678
				c-31.36-34.616-71.079-58.284-102.46-89.396c-35.305-35.003-58.672-81.422-69.563-130.673
				c-10.89-49.252-12.214-100.089-14.064-149.042"/>
			<path style="fill:none;stroke:#010214;stroke-miterlimit:10;" d="M249.316,744.114c-21.019-26.801-52.211-46.507-77.768-63.661
				c-25.145-16.878-47.003-33.02-71.741-55.531c-37.854-34.447-54.482-87.017-89.254-125.308
				c-32.391-35.669-70.361-62.816-100.799-95.52c-32.519-34.94-55.358-79.176-65.88-126.829
				c-10.523-47.654-12.456-96.797-15.205-143.365"/>
			<path style="fill:none;stroke:#010214;stroke-miterlimit:10;" d="M251.038,744.01c-23.047-27.391-55.077-49.247-79.917-69.162
				c-24.28-19.466-43.651-38.707-68.902-62.887c-36.699-35.142-55.156-85.908-89.878-123.938
				c-33.48-36.67-69.603-67.242-99.138-101.644c-29.809-34.72-52.043-76.93-62.198-122.985
				c-10.155-46.055-12.699-93.504-16.346-137.688"/>
			<path style="fill:none;stroke:#010214;stroke-miterlimit:10;" d="M252.76,743.907c-25.075-27.981-57.947-51.97-82.065-74.663
				c-23.42-22.036-40.315-44.362-66.063-70.242C69.044,563.23,48.797,514.207,14.13,476.434
				c-34.571-37.669-68.82-71.563-97.477-107.768c-27.188-34.35-48.728-74.684-58.515-119.14
				c-9.787-44.456-12.941-90.212-17.488-132.011"/>
			<path style="fill:none;stroke:#010214;stroke-miterlimit:10;" d="M254.482,743.803c-27.104-28.57-60.826-54.678-84.214-80.163
				c-22.569-24.593-36.999-49.986-63.223-77.598c-34.521-36.346-56.518-83.678-91.127-121.198
				c-35.665-38.665-68.032-75.777-95.815-113.892c-24.665-33.837-45.413-72.438-54.833-115.296
				c-9.42-42.858-13.184-86.919-18.629-126.334"/>
			<path style="fill:none;stroke:#010214;stroke-miterlimit:10;" d="M256.204,743.7c-29.132-29.16-63.715-57.376-86.362-85.664
				c-21.728-27.14-33.705-55.582-60.384-84.954c-33.494-36.874-57.204-82.558-91.751-119.828
				c-36.762-39.659-67.259-79.887-94.154-120.016c-22.247-33.194-42.098-70.192-51.15-111.452
				c-9.052-41.26-13.426-83.627-19.771-120.657"/>
			<path style="fill:none;stroke:#010214;stroke-miterlimit:10;" d="M257.926,743.596c-31.16-29.75-66.615-60.066-88.51-91.164
				c-20.897-29.679-30.437-61.15-57.545-92.309c-32.505-37.362-57.893-81.436-92.376-118.459
				c-37.862-40.65-66.522-83.894-92.493-126.14c-19.939-32.433-38.783-67.946-47.468-107.607
				c-8.685-39.661-13.668-80.334-20.912-114.98"/>
			<path style="fill:none;stroke:#010214;stroke-miterlimit:10;" d="M259.648,743.493c-33.188-30.34-69.525-62.752-90.659-96.665
				c-20.076-32.215-27.196-66.693-54.705-99.665c-31.551-37.817-58.584-80.311-93-117.089
				c-38.964-41.638-65.846-87.802-90.832-132.264c-17.74-31.569-35.468-65.7-43.785-103.763
				c-8.317-38.063-13.911-77.042-22.054-109.303"/>
			<path style="fill:none;stroke:#010214;stroke-miterlimit:10;" d="M261.37,743.389c-35.217-30.93-72.445-65.435-92.807-102.165
				c-19.263-34.748-23.986-72.211-51.866-107.021c-30.632-38.245-59.279-79.183-93.625-115.719
				c-40.07-42.624-74.033-88.085-89.171-138.388c-20.888-27.314-32.154-63.455-40.103-99.919s-14.153-73.749-23.195-103.626"/>
			<path style="fill:none;stroke:#010214;stroke-miterlimit:10;" d="M263.092,743.286c-37.245-31.52-75.373-68.118-94.956-107.666
				c-18.459-37.28-20.807-77.706-49.027-114.377C89.366,482.593,59.134,443.19,24.86,406.895
				c-41.178-43.607-74.202-92.002-87.51-144.512c-18.872-26.58-28.839-61.209-36.42-96.074
				c-7.582-34.865-14.395-70.456-24.337-97.948"/>
			<path style="fill:none;stroke:#010214;stroke-miterlimit:10;" d="M264.814,743.182c-39.273-32.11-78.31-70.8-97.104-113.166
				c-17.662-39.812-17.662-83.179-46.188-121.732c-28.885-39.038-60.674-76.922-94.873-112.979
				c-42.29-44.587-74.371-95.919-85.849-150.636c-16.856-25.845-25.524-58.963-32.738-92.23
				c-7.214-33.267-14.638-67.164-25.478-92.271"/>
			<path style="fill:none;stroke:#010214;stroke-miterlimit:10;" d="M266.536,743.079c-41.301-32.7-81.252-73.484-99.252-118.667
				c-16.87-42.346-14.551-88.632-43.349-129.088c-28.053-39.411-61.376-75.788-95.498-111.609
				c-43.404-45.565-74.54-99.837-84.187-156.76c-14.84-25.111-22.209-56.717-29.055-88.385c-6.846-31.668-14.88-63.871-26.62-86.594
				"/>
			<path style="fill:none;stroke:#010214;stroke-miterlimit:10;" d="M268.258,742.975c-43.33-33.289-84.2-76.169-101.401-124.167
				c-16.084-44.881-11.476-94.066-40.509-136.444c-27.248-39.772-62.078-74.652-96.122-110.239
				c-44.521-46.539-74.709-103.754-82.526-162.884c-12.824-24.377-18.894-54.471-25.373-84.541
				c-6.479-30.07-15.122-60.579-27.761-80.917"/>
			<path style="fill:none;stroke:#010214;stroke-miterlimit:10;" d="M269.98,742.872c-45.358-33.879-87.153-78.856-103.549-129.668
				c-15.301-47.419-8.438-99.482-37.67-143.799c-26.467-40.126-62.783-73.515-96.747-108.869
				c-45.642-47.511-64.841-109.499-80.865-169.008c-6.759-25.102-15.579-52.225-21.691-80.697
				c-6.111-28.472-15.365-57.286-28.903-75.24"/>
			<path style="fill:none;stroke:#010214;stroke-miterlimit:10;" d="M271.702,742.768c-47.386-34.469-90.109-81.544-105.698-135.168
				c-14.523-49.958-5.437-104.881-34.831-151.155c-25.71-40.474-63.489-72.376-97.371-107.5
				c-46.765-48.479-65.563-112.93-79.204-175.132c-5.256-23.968-12.264-49.979-18.008-76.852
				c-5.744-26.873-15.607-53.994-30.044-69.563"/>
			<path style="fill:none;stroke:#010214;stroke-miterlimit:10;" d="M273.424,742.665c-49.414-35.059-93.069-84.235-107.846-140.669
				c-13.747-52.499-2.474-110.265-31.991-158.511c-24.973-40.818-64.197-71.235-97.996-106.13
				C-12.301,287.911-31.084,220.988-41.952,156.1c-3.83-22.868-8.949-47.733-14.326-73.008
				c-5.376-25.275-15.85-50.701-31.186-63.886"/>
			<path style="fill:none;stroke:#010214;stroke-miterlimit:10;" d="M275.146,742.561c-51.443-35.649-96.032-86.928-109.995-146.169
				c-12.973-55.042,0.45-115.635-29.152-165.866c-24.258-41.161-64.962-70.039-98.62-104.76
				c-49.102-50.328-68.227-119.853-75.882-187.38c-2.474-21.822-5.635-45.487-10.643-69.163
				c-5.009-23.676-16.092-47.409-32.327-58.209"/>
			<path style="fill:none;stroke:#010214;stroke-miterlimit:10;" d="M276.867,742.458c-53.471-36.239-99.089-89.603-112.143-151.67
				c-12.288-57.568,3.336-120.993-26.313-173.222c-23.561-41.505-65.655-68.912-99.244-103.39
				c-50.211-51.31-70.268-123.438-74.22-193.504c-1.177-20.854-2.32-43.241-6.961-65.319c-4.641-22.078-16.334-44.116-33.468-52.532
				"/>
			<path style="fill:none;stroke:#010214;stroke-miterlimit:10;" d="M278.59,742.354c-55.499-36.829-102.01-92.31-114.291-157.171
				c-11.476-60.125,6.182-126.339-23.474-180.578c-22.882-41.85-66.348-67.785-99.869-102.02
				c-51.319-52.292-72.823-127.188-72.559-199.628c0.073-19.985,0.995-40.996-3.278-61.475C-39.155,21.004-51.459,0.66-69.492-5.371
				"/>
			<path style="fill:none;stroke:#010214;stroke-miterlimit:10;" d="M280.311,742.251c-57.527-37.419-104.931-95.017-116.44-162.671
				c-10.663-62.681,8.989-131.674-20.634-187.933c-22.22-42.199-67.041-66.658-100.493-100.65
				C-9.684,237.722-33.15,159.823-28.154,85.244c1.288-19.237,4.31-38.75,0.404-57.63C-31.656,8.734-44.569-9.917-63.501-13.564"/>
			<path style="fill:none;stroke:#040517;stroke-miterlimit:10;" d="M-62.714-14.436c19.165,3.508,32.475,21.941,36.912,40.824
				c1.253,5.341,1.954,10.748,2.287,16.193c0.851,13.803-0.63,27.849-1.315,41.778c-0.537,10.907-0.538,21.891,0.042,32.852
				c1.32,24.931,5.672,49.822,13.509,73.369c11.707,35.189,30.954,67.085,56.778,93.001c1.754,1.76,3.539,3.492,5.355,5.197
				c28.846,27.068,65.325,47.522,90.162,78.081c5.024,6.182,9.551,12.77,13.427,19.875c14.652,26.871,18.013,57.053,18.33,87.965
				c0.347,33.848-2.883,68.577,1.537,101.53c0.579,4.303,1.292,8.566,2.132,12.785c7.385,37.075,24.621,70.879,48.003,100.036
				c8.022,10.016,16.764,19.51,26.339,28.41c9.55,8.88,20.003,17.18,31.137,24.268"/>
			<path style="fill:none;stroke:#07081A;stroke-miterlimit:10;" d="M-61.927-15.308c19.398,3.369,33.105,21.585,38.073,40.47
				c1.4,5.337,2.251,10.756,2.726,16.221c1.216,13.867,0.069,28.025-0.377,42.091c-0.351,11.01-0.226,22.106,0.462,33.172
				c1.566,25.176,6.101,50.35,14.493,73.913c12.527,35.202,33.178,66.226,59.965,91.032c1.819,1.684,3.669,3.341,5.55,4.97
				c29.869,25.865,67.141,45.095,92.807,75.439c5.19,6.138,9.865,12.714,13.878,19.823c15.152,26.866,18.967,57.446,19.265,88.659
				c0.325,34.229-3.436,69.228-0.164,102.398c0.431,4.328,0.984,8.615,1.656,12.858c5.908,37.283,20.938,71.327,42.098,101.115
				c7.256,10.241,15.225,20.03,24.314,29.298c9.065,9.248,19.39,17.999,30.714,25.055"/>
			<path style="fill:none;stroke:#0A0B1D;stroke-miterlimit:10;" d="M-61.139-16.18c19.631,3.231,33.734,21.229,39.234,40.116
				c1.547,5.334,2.549,10.764,3.164,16.248c1.581,13.93,0.768,28.2,0.561,42.404c-0.165,11.114,0.087,22.321,0.881,33.492
				c1.812,25.42,6.531,50.877,15.477,74.457c13.348,35.215,35.402,65.366,63.153,89.063c1.885,1.609,3.8,3.19,5.745,4.743
				c30.893,24.662,68.957,42.668,95.452,72.798c5.357,6.094,10.179,12.658,14.328,19.77c15.653,26.862,19.922,57.841,20.199,89.353
				c0.303,34.61-3.988,69.879-1.866,103.266c0.283,4.353,0.677,8.664,1.181,12.932c4.431,37.491,17.255,71.774,36.194,102.195
				c6.49,10.465,13.687,20.551,22.288,30.185c8.58,9.616,18.778,18.817,30.29,25.841"/>
			<path style="fill:none;stroke:#0C0E20;stroke-miterlimit:10;" d="M-60.352-17.052C-40.488-13.96-25.989,3.821-19.958,22.71
				c1.694,5.33,2.847,10.773,3.603,16.276c1.946,13.993,1.467,28.376,1.499,42.718c0.021,11.218,0.399,22.537,1.301,33.812
				c2.058,25.665,6.96,51.405,16.461,75c14.168,35.228,37.626,64.507,66.34,87.094c1.951,1.534,3.931,3.039,5.939,4.516
				c31.916,23.459,70.773,40.241,98.097,70.156c5.523,6.049,10.493,12.602,14.778,19.717c16.153,26.857,20.876,58.234,21.133,90.047
				c0.28,34.991-4.54,70.531-3.567,104.134c0.134,4.377,0.37,8.713,0.705,13.005c2.954,37.699,13.571,72.221,30.289,103.275
				c5.724,10.69,12.148,21.072,20.263,31.073c8.095,9.984,18.165,19.636,29.866,26.628"/>
			<path style="fill:none;stroke:#0F1123;stroke-miterlimit:10;" d="M-59.565-17.924c20.097,2.954,34.993,20.517,41.555,39.408
				c1.841,5.326,3.144,10.781,4.042,16.303c2.311,14.056,2.166,28.552,2.436,43.031c0.207,11.322,0.711,22.752,1.721,34.132
				c2.304,25.909,7.389,51.933,17.446,75.544c14.988,35.241,39.85,63.648,69.528,85.125c2.017,1.458,4.062,2.888,6.134,4.289
				c32.94,22.256,72.589,37.813,100.742,67.515c5.689,6.005,10.807,12.546,15.228,19.664c16.653,26.852,21.831,58.628,22.067,90.741
				c0.258,35.372-5.093,71.182-5.268,105.002c-0.014,4.402,0.063,8.763,0.229,13.078c1.478,37.906,9.888,72.669,24.385,104.355
				c4.957,10.915,10.609,21.592,18.238,31.961c7.609,10.352,17.553,20.454,29.443,27.414"/>
			<path style="fill:none;stroke:#121525;stroke-miterlimit:10;" d="M-58.778-18.796c20.329,2.815,35.623,20.161,42.716,39.054
				c1.988,5.323,3.442,10.789,4.481,16.331c2.677,14.12,2.865,28.727,3.374,43.344c0.393,11.425,1.023,22.967,2.141,34.452
				c2.549,26.154,7.819,52.46,18.43,76.088c15.809,35.254,42.074,62.788,72.715,83.156c2.082,1.383,4.192,2.736,6.329,4.063
				c33.963,21.053,74.404,35.386,103.387,64.873c5.855,5.961,11.121,12.49,15.679,19.612c17.154,26.847,22.785,59.022,23.002,91.435
				c0.236,35.753-5.645,71.833-6.97,105.87c-0.162,4.427-0.245,8.812-0.246,13.151c0.001,38.114,6.205,73.116,18.48,105.435
				c4.191,11.139,9.07,22.113,16.213,32.849c7.124,10.72,16.94,21.273,29.019,28.201"/>
			<path style="fill:none;stroke:#151828;stroke-miterlimit:10;" d="M-57.99-19.669c20.562,2.677,36.252,19.805,43.877,38.7
				c2.134,5.319,3.739,10.797,4.92,16.359c3.042,14.183,3.563,28.903,4.312,43.657c0.58,11.529,1.335,23.183,2.56,34.772
				c2.795,26.399,8.248,52.988,19.414,76.632c16.629,35.267,44.298,61.929,75.903,81.187c2.148,1.308,4.323,2.585,6.523,3.836
				c34.987,19.85,76.22,32.959,106.032,62.231c6.022,5.916,11.435,12.434,16.129,19.559c17.654,26.842,23.74,59.416,23.936,92.13
				c0.214,36.134-6.198,72.484-8.671,106.738c-0.311,4.452-0.552,8.861-0.722,13.225c-1.476,38.322,2.521,73.563,12.576,106.515
				c3.425,11.364,7.532,22.634,14.188,33.737c6.639,11.089,16.328,22.091,28.595,28.987"/>
			<path style="fill:none;stroke:#181B2B;stroke-miterlimit:10;" d="M-57.203-20.541c20.795,2.538,36.882,19.448,45.037,38.346
				c2.282,5.315,4.037,10.805,5.359,16.386C-3.4,48.437-2.545,63.27-1.557,78.162c0.766,11.633,1.647,23.398,2.98,35.092
				c3.041,26.643,8.677,53.516,20.398,77.176c17.45,35.28,46.523,61.069,79.09,79.218c2.214,1.232,4.453,2.434,6.718,3.609
				c36.01,18.646,78.036,30.532,108.678,59.59c6.188,5.872,11.749,12.378,16.579,19.506c18.154,26.837,24.694,59.81,24.87,92.824
				c0.191,36.515-6.75,73.135-10.372,107.606c-0.459,4.477-0.86,8.91-1.197,13.298c-2.953,38.53-1.162,74.011,6.672,107.595
				c2.659,11.589,5.993,23.154,12.162,34.625c6.154,11.457,15.716,22.91,28.171,29.774"/>
			<path style="fill:none;stroke:#1B1E2E;stroke-miterlimit:10;" d="M-56.416-21.413c21.028,2.4,37.511,19.092,46.198,37.992
				c2.428,5.312,4.335,10.813,5.797,16.414c3.772,14.309,4.961,29.255,6.187,44.284c0.952,11.737,1.96,23.613,3.4,35.411
				c3.287,26.888,9.107,54.043,21.382,77.72c18.27,35.293,48.747,60.21,82.278,77.249c2.28,1.157,4.584,2.283,6.912,3.382
				c37.034,17.443,79.852,28.105,111.323,56.948c6.354,5.828,12.063,12.322,17.03,19.453c18.654,26.832,25.649,60.204,25.804,93.518
				c0.169,36.896-7.303,73.786-12.074,108.474c-0.608,4.501-1.167,8.959-1.673,13.372c-4.429,38.737-4.845,74.458,0.767,108.675
				c1.892,11.813,4.454,23.675,10.137,35.512c5.668,11.825,15.103,23.728,27.748,30.56"/>
			<path style="fill:none;stroke:#1E2131;stroke-miterlimit:10;" d="M-55.628-22.285c21.261,2.261,38.141,18.736,47.359,37.638
				c2.575,5.308,4.632,10.821,6.236,16.441c4.137,14.373,5.66,29.43,7.125,44.597c1.138,11.841,2.272,23.829,3.819,35.731
				c3.533,27.132,9.536,54.571,22.366,78.264c19.091,35.306,50.971,59.351,85.465,75.28c2.345,1.082,4.715,2.132,7.107,3.155
				c38.057,16.24,81.668,25.678,113.968,54.307c6.521,5.783,12.376,12.266,17.48,19.401c19.155,26.828,26.603,60.598,26.739,94.212
				c0.147,37.276-7.855,74.438-13.775,109.341c-0.756,4.526-1.474,9.009-2.149,13.445c-5.906,38.945-8.529,74.905-5.137,109.754
				c1.126,12.038,2.915,24.196,8.112,36.4c5.183,12.193,14.491,24.547,27.324,31.347"/>
			<path style="fill:none;stroke:#202434;stroke-miterlimit:10;" d="M-54.841-23.157c21.494,2.122,38.77,18.38,48.52,37.284
				c2.722,5.304,4.93,10.829,6.675,16.469c4.502,14.436,6.359,29.606,8.063,44.91C9.741,87.45,11,99.55,12.656,111.557
				c3.779,27.377,9.965,55.099,23.35,78.808c19.911,35.319,53.195,58.491,88.653,73.311c2.411,1.006,4.846,1.981,7.302,2.928
				c39.081,15.037,83.484,23.251,116.613,51.665c6.687,5.739,12.69,12.21,17.93,19.348c19.655,26.823,27.558,60.992,27.673,94.906
				c0.124,37.657-8.408,75.089-15.477,110.209c-0.904,4.551-1.781,9.058-2.624,13.518c-7.383,39.153-12.212,75.353-11.042,110.834
				c0.36,12.263,1.377,24.717,6.087,37.288c4.698,12.561,13.878,25.365,26.9,32.134"/>
			<path style="fill:none;stroke:#232737;stroke-miterlimit:10;" d="M-54.054-24.029c21.727,1.984,39.4,18.024,49.68,36.93
				c2.869,5.3,5.227,10.837,7.114,16.496c4.868,14.499,7.058,29.782,9.001,45.224c1.51,12.048,2.896,24.26,4.659,36.371
				c4.025,27.621,10.395,55.626,24.334,79.352c20.731,35.332,55.419,57.632,91.84,71.342c2.477,0.931,4.976,1.83,7.496,2.701
				c40.104,13.834,85.3,20.824,119.258,49.024c6.853,5.695,13.004,12.154,18.38,19.295c20.155,26.818,28.512,61.386,28.607,95.6
				c0.102,38.038-8.96,75.74-17.178,111.077c-1.053,4.576-2.089,9.107-3.1,13.591c-8.86,39.361-15.895,75.8-16.946,111.914
				c-0.406,12.487-0.162,25.237,4.061,38.176c4.213,12.929,13.266,26.184,26.477,32.92"/>
			<path style="fill:none;stroke:#262A3A;stroke-miterlimit:10;" d="M-53.266-24.901c21.96,1.845,40.029,17.668,50.841,36.576
				C0.591,16.971,3.1,22.52,5.127,28.198c5.233,14.562,7.756,29.957,9.938,45.537c1.697,12.152,3.208,24.475,5.078,36.691
				c4.271,27.866,10.824,56.154,25.318,79.895c21.552,35.345,57.643,56.772,95.028,69.373c2.543,0.856,5.107,1.679,7.691,2.474
				c41.128,12.631,87.116,18.397,121.903,46.382c7.019,5.65,13.318,12.098,18.831,19.242c20.655,26.813,29.467,61.78,29.542,96.294
				c0.08,38.419-9.512,76.391-18.879,111.945c-1.201,4.6-2.396,9.156-3.576,13.665c-10.336,39.568-19.579,76.247-22.85,112.994
				c-1.172,12.712-1.701,25.758,2.036,39.064c3.727,13.297,12.654,27.002,26.053,33.706"/>
			<path style="fill:none;stroke:#292D3D;stroke-miterlimit:10;" d="M-52.479-25.774c22.192,1.707,40.659,17.312,52.002,36.222
				C2.686,15.741,5.345,21.302,7.514,27c5.598,14.626,8.455,30.133,10.876,45.85c1.883,12.256,3.52,24.69,5.498,37.011
				c4.517,28.11,11.253,56.681,26.303,80.439c22.372,35.358,59.867,55.913,98.215,67.404c2.608,0.781,5.238,1.528,7.886,2.247
				c42.151,11.428,88.932,15.97,124.548,43.741c7.186,5.606,13.632,12.042,19.281,19.189c21.155,26.808,30.421,62.174,30.476,96.989
				c0.058,38.8-10.065,77.042-20.58,112.813c-1.35,4.625-2.704,9.206-4.051,13.738c-11.813,39.776-23.262,76.695-28.755,114.074
				c-1.939,12.937-3.24,26.279,0.011,39.952c3.242,13.666,12.041,27.821,25.629,34.493"/>
			<path style="fill:none;stroke:#2C3040;stroke-miterlimit:10;" d="M-51.692-26.646C-29.267-25.077-10.404-9.69,1.471,9.222
				c3.31,5.29,6.12,10.861,8.43,16.579c5.963,14.689,9.154,30.309,11.814,46.163c2.069,12.36,3.833,24.906,5.918,37.331
				c4.763,28.355,11.683,57.209,27.287,80.983c23.193,35.371,62.091,55.054,101.403,65.434c2.674,0.705,5.368,1.376,8.08,2.02
				c43.174,10.225,90.748,13.543,127.193,41.099c7.352,5.561,13.946,11.986,19.732,19.137c21.656,26.803,31.376,62.568,31.41,97.683
				c0.035,39.181-10.617,77.694-22.282,113.681c-1.498,4.65-3.011,9.255-4.527,13.811c-13.29,39.984-26.945,77.142-34.659,115.154
				c-2.705,13.161-4.778,26.799-2.014,40.839c2.757,14.034,11.429,28.639,25.205,35.279"/>
			<path style="fill:none;stroke:#2F3442;stroke-miterlimit:10;" d="M-50.905-27.518c22.658,1.43,41.918,16.6,54.323,35.514
				c3.457,5.286,6.418,10.87,8.869,16.607c6.328,14.752,9.853,30.485,12.752,46.477c2.255,12.463,4.145,25.121,6.338,37.651
				c5.009,28.599,12.112,57.737,28.271,81.527c24.013,35.384,64.315,54.194,104.59,63.465c2.74,0.63,5.499,1.225,8.275,1.793
				c44.198,9.022,92.564,11.116,129.839,38.457c7.518,5.517,14.26,11.93,20.182,19.084c22.156,26.799,32.33,62.962,32.344,98.377
				c0.013,39.562-11.17,78.345-23.983,114.548c-1.646,4.675-3.318,9.304-5.002,13.885c-14.767,40.191-30.629,77.589-40.564,116.234
				c-3.471,13.386-6.317,27.32-4.039,41.727c2.272,14.402,10.816,29.458,24.781,36.066"/>
			<path style="fill:none;stroke:#323745;stroke-miterlimit:10;" d="M-50.117-28.39C-27.226-27.099-7.57-12.146,5.367,6.77
				c3.604,5.282,6.716,10.878,9.308,16.634c6.693,14.815,10.552,30.66,13.69,46.79c2.441,12.567,4.457,25.337,6.757,37.971
				c5.255,28.844,12.541,58.264,29.255,82.071c24.834,35.398,66.539,53.335,107.778,61.496c2.806,0.555,5.63,1.074,8.47,1.566
				c45.221,7.819,94.38,8.689,132.484,35.816c7.684,5.473,14.574,11.874,20.632,19.031c22.656,26.794,33.285,63.355,33.278,99.071
				c-0.009,39.943-11.722,78.996-25.685,115.416c-1.795,4.7-3.625,9.353-5.478,13.958c-16.243,40.399-34.312,78.036-46.468,117.314
				c-4.237,13.611-7.856,27.841-6.065,42.615c1.786,14.77,10.204,30.276,24.358,36.852"/>
			<path style="fill:none;stroke:#343A48;stroke-miterlimit:10;" d="M-49.33-29.262C-26.206-28.109-6.153-13.375,7.315,5.544
				c3.751,5.278,7.013,10.886,9.747,16.662c7.058,14.878,11.251,30.836,14.627,47.103c2.627,12.671,4.769,25.552,7.177,38.291
				c5.501,29.089,12.971,58.792,30.239,82.615c25.654,35.411,68.764,52.475,110.965,59.527c2.871,0.479,5.76,0.923,8.664,1.339
				c46.245,6.615,96.195,6.262,135.129,33.174c7.851,5.428,14.888,11.818,21.082,18.979c23.156,26.789,34.239,63.749,34.213,99.765
				c-0.031,40.324-12.275,79.647-27.386,116.284c-1.943,4.724-3.933,9.403-5.954,14.031c-17.72,40.607-37.995,78.484-52.372,118.394
				c-5.004,13.836-9.395,28.362-8.09,43.503c1.301,15.138,9.592,31.095,23.934,37.639"/>
			<path style="fill:none;stroke:#373D4B;stroke-miterlimit:10;" d="M-48.543-30.134C-25.186-29.12-4.737-14.603,9.263,4.318
				c3.898,5.275,7.311,10.894,10.185,16.689c7.424,14.942,11.949,31.012,15.565,47.417c2.814,12.775,5.081,25.767,7.597,38.61
				c5.747,29.333,13.4,59.32,31.223,83.159c26.474,35.423,70.988,51.616,114.153,57.558c2.937,0.404,5.891,0.772,8.859,1.112
				c47.268,5.412,98.012,3.835,137.774,30.533c8.017,5.384,15.201,11.762,21.533,18.926c23.657,26.784,35.194,64.143,35.147,100.459
				c-0.053,40.705-12.827,80.298-29.087,117.152c-2.092,4.749-4.24,9.452-6.429,14.105c-19.197,40.815-41.678,78.931-58.277,119.474
				c-5.77,14.06-10.933,28.882-10.115,44.391c0.816,15.506,8.979,31.913,23.51,38.426"/>
			<path style="fill:none;stroke:#3A404E;stroke-miterlimit:10;" d="M-47.755-31.006c23.59,0.875,44.436,15.175,58.966,34.098
				c4.045,5.271,7.608,10.902,10.624,16.717c7.789,15.005,12.648,31.187,16.503,47.73c3,12.879,5.393,25.983,8.016,38.93
				c5.993,29.578,13.829,59.847,32.207,83.703c27.295,35.436,73.212,50.757,117.34,55.589c3.003,0.329,6.022,0.621,9.053,0.885
				c48.292,4.209,99.827,1.408,140.419,27.891c8.183,5.34,15.515,11.706,21.983,18.873c24.157,26.779,36.148,64.537,36.081,101.153
				c-0.076,41.086-13.379,80.95-30.789,118.02c-2.24,4.774-4.548,9.501-6.905,14.178c-20.674,41.023-45.362,79.378-64.181,120.553
				c-6.536,14.285-12.472,29.403-12.14,45.279c0.331,15.875,8.367,32.732,23.087,39.212"/>
			<g>
				<path style="fill:none;stroke:#3D4351;stroke-miterlimit:10;" d="M-46.968-31.878c30.453,0.942,56.69,23.692,71.19,50.488
					c14.5,26.796,19.638,57.471,25.877,87.293c6.239,29.822,14.258,60.375,33.191,84.246c28.115,35.449,75.436,49.897,120.528,53.62
					c51.951,4.29,108.291-2.01,152.313,25.908c39.525,25.067,59.559,73.864,59.449,120.668
					c-0.111,46.803-17.72,91.909-39.87,133.139c-22.15,41.23-49.045,79.826-70.086,121.633
					c-7.302,14.51-14.011,29.924-14.165,46.166c-0.155,16.243,7.754,33.55,22.663,39.999"/>
				<path style="fill:none;stroke:#3A404E;stroke-miterlimit:10;" d="M317.311,731.126c-14.574-6.488-22.201-23.412-22.423-39.357
					c-0.237-17.034,6.717-32.805,14.482-47.904c21.095-41.016,47.416-79.137,69.582-119.575
					c22.885-41.751,41.844-87.153,42.788-134.675c0.922-46.457-18.091-95.089-56.629-120.743
					c-42.777-28.284-98.176-23.368-149.444-28.08c-44.736-4.173-91.511-18.349-120.298-52.491
					C75.65,164.914,66,135.051,59.042,105.076C52.163,75.443,47.013,44.655,32.37,17.864C17.215-9.707-10.482-32.419-41.859-32.702"
					/>
				<path style="fill:none;stroke:#373D4B;stroke-miterlimit:10;" d="M320.477,730.971c-14.24-6.528-21.619-23.074-22.183-38.716
					c-0.643-17.836,6.565-33.954,14.799-49.641c21.119-40.237,46.912-77.864,69.079-117.517
					c23.63-42.269,43.914-87.964,45.706-136.212c1.712-46.106-16.178-94.691-53.809-120.818
					c-41.446-28.776-95.992-25.117-146.577-30.252c-44.38-4.623-90.638-18.52-120.068-51.361
					c-20.523-22.902-31.778-52.074-39.464-82.202C60.45,74.807,55.339,43.873,40.493,17.119C24.746-11.259-4.474-33.9-36.775-33.524
					"/>
				<path style="fill:none;stroke:#343A48;stroke-miterlimit:10;" d="M323.62,730.829c-13.905-6.568-21.069-22.74-21.943-38.075
					c-1.063-18.646,6.409-35.104,15.116-51.379c21.117-39.471,46.422-76.585,68.576-115.459
					c24.383-42.784,45.968-88.77,48.623-137.748c2.48-45.752-14.307-94.226-50.99-120.893
					c-40.16-29.195-93.806-26.865-143.709-32.424c-44.023-5.073-89.795-18.681-119.838-50.232
					c-21.343-22.414-34.179-50.897-42.6-81.18c-8.134-29.254-13.252-60.314-28.263-87.051C32.216-12.779,1.51-35.368-31.713-34.333"
					/>
				<path style="fill:none;stroke:#323745;stroke-miterlimit:10;" d="M326.739,730.7c-13.571-6.608-20.547-22.408-21.703-37.434
					c-1.498-19.462,6.247-36.256,15.432-53.116c21.092-38.714,45.946-75.3,68.073-113.4c25.145-43.296,48.005-89.572,51.541-139.285
					c3.228-45.395-12.436-93.756-48.17-120.969c-38.876-29.606-91.636-28.494-140.841-34.596
					c-43.68-5.416-88.979-18.83-119.608-49.103c-22.181-21.923-36.573-49.72-45.736-80.158C76.979,73.575,71.841,42.39,56.669,15.67
					C39.66-14.285,7.472-36.824-26.676-35.129"/>
				<path style="fill:none;stroke:#2F3442;stroke-miterlimit:10;" d="M329.835,730.583c-13.236-6.648-20.049-22.077-21.464-36.793
					c-1.95-20.282,6.08-37.411,15.749-54.854c21.046-37.968,45.481-74.01,67.57-111.342c25.918-43.805,50.026-90.372,54.459-140.821
					c3.957-45.036-10.567-93.279-45.35-121.044c-37.595-30.009-89.455-30.221-137.973-36.768
					c-43.328-5.846-88.19-18.965-119.378-47.973c-23.035-21.425-38.96-48.544-48.872-79.136
					C85.22,72.977,80.052,41.67,64.722,14.963c-17.645-30.74-51.312-53.23-86.383-50.876"/>
				<path style="fill:none;stroke:#2C3040;stroke-miterlimit:10;" d="M332.908,730.477c-12.902-6.687-19.572-21.747-21.224-36.152
					c-2.419-21.105,5.908-38.567,16.066-56.591c20.982-37.231,45.029-72.713,67.067-109.284c26.7-44.308,52.03-91.17,57.376-142.358
					c4.666-44.676-8.7-92.796-42.53-121.119c-36.316-30.405-87.274-31.951-135.105-38.939
					c-42.976-6.279-87.427-19.085-119.148-46.844c-23.906-20.92-41.339-47.368-52.008-78.114
					c-9.955-28.687-15.166-60.112-30.65-86.808C54.468-17.256,19.325-39.699-16.67-36.686"/>
				<path style="fill:none;stroke:#292D3D;stroke-miterlimit:10;" d="M335.956,730.381c-12.568-6.727-19.115-21.416-20.984-35.511
					c-2.908-21.929,5.731-39.726,16.383-58.329c20.902-36.502,44.588-71.41,66.564-107.226
					c27.493-44.807,54.017-91.967,60.294-143.894c5.357-44.316-6.836-92.305-39.71-121.194
					c-35.041-30.793-85.093-33.685-132.237-41.111c-42.624-6.714-86.686-19.188-118.918-45.715
					c-24.792-20.404-43.71-46.193-55.144-77.092c-10.547-28.501-15.811-60.041-31.445-86.727
					C61.831-18.723,25.215-41.12-11.703-37.448"/>
				<path style="fill:none;stroke:#262A3A;stroke-miterlimit:10;" d="M338.98,730.296c-12.233-6.767-18.675-21.084-20.744-34.87
					c-3.415-22.752,5.547-40.889,16.699-60.066c20.807-35.781,44.157-70.101,66.061-105.167
					c28.296-45.301,55.986-92.764,63.212-145.43c6.031-43.957-4.976-91.808-36.891-121.27
					c-33.77-31.174-82.912-35.423-129.369-43.283c-42.272-7.152-85.967-19.272-118.688-44.585
					c-25.694-19.876-46.075-45.02-58.281-76.07c-11.131-28.316-16.459-59.968-32.241-86.646
					C69.166-20.178,31.081-42.532-6.76-38.201"/>
				<path style="fill:none;stroke:#232737;stroke-miterlimit:10;" d="M341.978,730.219c-11.899-6.807-18.25-20.751-20.504-34.229
					c-3.943-23.574,5.358-42.054,17.016-61.804c20.699-35.067,43.737-68.787,65.558-103.109
					c29.111-45.788,57.936-93.563,66.129-146.967c6.689-43.599-3.12-91.305-34.071-121.345
					c-32.504-31.547-80.731-37.163-126.501-45.455c-41.919-7.594-85.266-19.337-118.458-43.456
					c-26.609-19.335-48.432-43.85-61.417-75.048c-11.709-28.133-17.11-59.894-33.036-86.565
					C76.472-21.622,36.921-43.935-1.844-38.945"/>
				<path style="fill:none;stroke:#202434;stroke-miterlimit:10;" d="M344.949,730.151c-11.564-6.847-17.838-20.415-20.264-33.587
					c-4.493-24.392,5.163-43.223,17.333-63.541c20.58-34.359,43.325-67.467,65.055-101.051
					c29.936-46.268,59.869-94.364,69.047-148.503c7.331-43.243-1.268-90.794-31.251-121.42
					c-31.243-31.913-78.549-38.908-123.634-47.627c-41.566-8.038-84.583-19.382-118.229-42.327
					c-27.537-18.779-50.782-42.682-64.553-74.026c-12.281-27.953-17.763-59.818-33.832-86.484
					C83.747-23.056,42.734-45.329,3.045-39.68"/>
				<path style="fill:none;stroke:#1E2131;stroke-miterlimit:10;" d="M347.892,730.091c-11.23-6.887-17.438-20.077-20.024-32.946
					c-5.067-25.206,4.961-44.396,17.65-65.279c20.451-33.658,42.923-66.142,64.552-98.993
					c30.773-46.741,61.783-95.168,71.965-150.039c7.958-42.889,0.577-90.278-28.431-121.495
					c-29.989-32.273-76.366-40.656-120.766-49.799c-41.213-8.486-83.913-19.407-117.999-41.197
					c-28.476-18.205-53.126-41.517-67.689-73.004c-12.847-27.776-18.418-59.741-34.627-86.403
					C90.991-24.48,48.519-46.715,7.906-40.407"/>
				<path style="fill:none;stroke:#1B1E2E;stroke-miterlimit:10;" d="M350.804,730.038c-10.896-6.926-17.048-19.737-19.785-32.305
					c-5.664-26.014,4.753-45.573,17.966-67.016c20.312-32.963,42.529-64.811,64.048-96.935
					c31.623-47.205,63.678-95.977,74.882-151.576c8.572-42.539,2.417-89.755-25.612-121.571
					c-28.741-32.625-74.183-42.408-117.898-51.97c-40.859-8.938-83.256-19.41-117.769-40.068
					c-29.426-17.614-55.463-40.356-70.825-71.982c-13.407-27.602-19.076-59.662-35.423-86.323
					C98.202-25.895,54.273-48.094,12.738-41.127"/>
				<path style="fill:none;stroke:#181B2B;stroke-miterlimit:10;" d="M353.685,729.992c-10.561-6.966-16.668-19.394-19.545-31.664
					c-6.287-26.815,4.538-46.754,18.283-68.753c20.165-32.274,42.142-63.474,63.545-94.876c32.485-47.661,65.555-96.79,77.8-153.112
					c9.173-42.192,4.249-89.226-22.792-121.646c-27.5-32.972-71.999-44.163-115.03-54.142
					c-40.504-9.393-82.608-19.392-117.539-38.939c-30.385-17.003-57.794-39.198-73.961-70.96
					c-13.962-27.43-19.736-59.582-36.218-86.242C105.379-27.301,59.996-49.466,17.537-41.84"/>
				<path style="fill:none;stroke:#151828;stroke-miterlimit:10;" d="M356.533,729.952c-10.227-7.006-16.296-19.047-19.305-31.023
					c-6.936-27.607,4.316-47.94,18.6-70.491c20.01-31.59,41.763-62.132,63.042-92.818c33.36-48.108,67.413-97.609,80.717-154.649
					c9.761-41.849,6.073-88.691-19.972-121.721c-26.268-33.313-69.814-45.923-112.162-56.314
					c-40.148-9.852-81.967-19.354-117.309-37.809c-31.351-16.372-60.12-38.044-77.098-69.938
					c-14.512-27.262-20.397-59.501-37.014-86.161c-23.514-37.726-70.347-59.86-113.73-51.574"/>
				<path style="fill:none;stroke:#121525;stroke-miterlimit:10;" d="M359.346,729.919c-9.892-7.046-15.931-18.697-19.065-30.382
					c-7.613-28.389,4.086-49.132,18.917-72.228c19.848-30.91,41.391-60.785,62.539-90.76
					c34.248-48.544,69.253-98.435,83.635-156.185c10.338-41.511,7.888-88.151-17.152-121.796
					c-25.043-33.649-67.628-47.686-109.294-58.486c-39.791-10.314-81.331-19.295-117.079-36.68
					c-32.324-15.72-62.439-36.895-80.234-68.916c-15.058-27.097-21.06-59.419-37.809-86.08
					C119.621-30.087,71.341-52.192,27.034-43.246"/>
				<path style="fill:none;stroke:#0F1123;stroke-miterlimit:10;" d="M362.122,729.891c-9.558-7.086-15.573-18.343-18.825-29.741
					c-8.32-29.159,3.848-50.329,19.233-73.966c19.68-30.236,41.025-59.432,62.036-88.701
					c35.151-48.969,71.073-99.268,86.553-157.722c10.904-41.177,9.694-87.607-14.333-121.872
					c-23.828-33.981-65.44-49.453-106.426-60.658c-39.432-10.78-80.698-19.215-116.849-35.551
					c-33.3-15.047-64.753-35.75-83.37-67.894c-15.6-26.936-21.725-59.335-38.605-85.999C126.684-31.469,76.959-53.546,31.729-43.941
					"/>
				<path style="fill:none;stroke:#0C0E20;stroke-miterlimit:10;" d="M364.86,729.868c-9.224-7.125-15.22-17.985-18.585-29.1
					c-9.057-29.916,3.602-51.532,19.55-75.703c19.507-29.566,40.665-58.074,61.533-86.643
					c36.068-49.381,72.875-100.109,89.47-159.258c11.461-40.849,11.49-87.059-11.513-121.947
					c-22.622-34.31-63.251-51.224-103.558-62.83c-39.072-11.25-80.065-19.117-116.619-34.421
					c-34.28-14.353-67.062-34.609-86.506-66.872c-16.139-26.779-22.391-59.251-39.4-85.918
					c-25.526-40.02-76.692-62.07-122.846-51.807"/>
				<path style="fill:none;stroke:#0A0B1D;stroke-miterlimit:10;" d="M367.558,729.85c-8.889-7.165-14.872-17.622-18.345-28.458
					c-9.827-30.658,3.348-52.741,19.867-77.441c19.329-28.901,40.311-56.71,61.03-84.585
					c37.001-49.781,74.659-100.959,92.388-160.794c12.008-40.526,13.276-86.507-8.693-122.022
					c-21.425-34.636-61.06-52.999-100.69-65.002c-38.711-11.724-79.43-18.999-116.389-33.292
					c-35.261-13.636-69.367-33.474-89.642-65.85c-16.674-26.625-23.058-59.165-40.196-85.837
					c-26.202-40.78-78.807-62.807-125.884-51.884"/>
				<path style="fill:none;stroke:#07081A;stroke-miterlimit:10;" d="M370.215,729.836c-8.555-7.205-14.528-17.255-18.105-27.817
					c-10.629-31.384,3.085-53.957,20.184-79.178c19.146-28.241,39.962-55.341,60.527-82.527
					c37.949-50.167,76.424-101.819,95.306-162.331c12.546-40.209,15.051-85.954-5.873-122.098
					c-20.239-34.96-58.845-54.848-97.823-67.173c-38.325-12.272-78.793-18.864-116.159-32.163
					c-36.242-12.899-71.666-32.343-92.778-64.828c-17.206-26.474-23.764-59.055-40.991-85.756
					C147.562-35.536,93.579-57.579,45.578-45.997"/>
				<path style="fill:none;stroke:#040517;stroke-miterlimit:10;" d="M372.831,729.828c-8.22-7.245-14.188-16.884-17.866-27.176
					c-11.467-32.091,2.812-55.181,20.5-80.916c18.96-27.584,39.617-53.967,60.024-80.469
					c38.914-50.538,78.172-102.689,98.223-163.867c13.077-39.898,16.814-85.398-3.054-122.173
					c-19.062-35.284-56.66-56.596-94.955-69.345c-37.969-12.722-78.15-18.711-115.929-31.033
					c-37.221-12.14-73.906-31.255-95.915-63.806c-17.69-26.358-24.416-58.979-41.787-85.675
					C154.48-36.908,99.036-58.913,50.112-46.672"/>
				<path style="fill:none;stroke:#010214;stroke-miterlimit:10;" d="M375.403,729.823c-7.886-7.285-13.851-16.507-17.626-26.535
					c-12.34-32.777,2.529-56.412,20.817-82.653c18.77-26.932,39.277-52.587,59.521-78.41
					c39.896-50.892,79.901-103.569,101.141-165.403c13.6-39.594,18.566-84.842-0.234-122.248
					c-17.896-35.608-54.474-58.345-92.087-71.517s-77.501-18.543-115.699-29.904c-38.198-11.361-76.253-30.097-99.051-62.784
					c-18.263-26.185-25.068-58.903-42.582-85.594c-28.248-43.049-85.152-65.017-135-52.117"/>
				<path style="fill:none;stroke:#040517;stroke-miterlimit:10;" d="M57.348-49.234c38.478-9.645,80.727,1.926,111.028,27.261
					c9.126,7.629,17.195,16.519,23.807,26.479c15.332,23.092,23.062,50.446,37.131,73.957c2.193,3.665,4.538,7.235,7.084,10.681
					c23.559,31.894,61.944,49.604,100.321,60.104c38.594,10.465,78.819,15.024,116.862,27.874
					c37.651,12.796,74.176,35.32,92.575,70.483c19.318,36.928,15.421,81.671,3.163,121.313
					c-16.713,54.051-48.047,102.253-82.787,147.211c-5.78,7.48-11.642,14.875-17.517,22.22
					c-17.874,22.346-36.077,44.436-52.971,67.555c-2.851,3.902-5.665,7.838-8.428,11.812c-8.77,12.613-16.649,24.778-20.958,37.609
					c-4.815,14.347-5.203,29.279,1.809,46.506c4.125,10.042,10.413,19.262,18.508,26.599"/>
				<path style="fill:none;stroke:#07081A;stroke-miterlimit:10;" d="M60.043-51.116c38.65-9.377,80.674,3.087,110.842,28.745
					c9.082,7.722,17.145,16.665,23.829,26.619c15.512,23.092,23.834,50.198,38.498,73.24c2.286,3.592,4.72,7.081,7.349,10.442
					c24.32,31.102,63.015,47.869,101.592,57.425c38.969,9.653,79.552,13.315,118.026,25.844
					c37.689,12.421,74.16,34.731,93.064,69.449c19.836,36.45,17.03,80.707,6.092,120.379
					c-15.196,55.116-45.882,105.213-81.46,150.931c-5.919,7.605-11.948,15.098-18.007,22.528
					c-18.429,22.599-37.322,44.81-54.659,68.297c-2.923,3.961-5.805,7.97-8.618,12.026c-8.903,12.834-16.788,25.353-20.799,38.549
					c-4.482,14.762-4.242,29.895,3.32,47.027c4.445,10.07,11.087,19.273,19.391,26.663"/>
				<path style="fill:none;stroke:#0A0B1D;stroke-miterlimit:10;" d="M62.68-52.989c38.821-9.109,80.621,4.248,110.656,30.229
					c9.038,7.815,17.094,16.811,23.85,26.758c15.691,23.092,24.606,49.951,39.865,72.523c2.379,3.519,4.903,6.928,7.615,10.204
					c25.081,30.309,64.101,46.086,102.863,54.745c39.359,8.793,80.314,11.509,119.188,23.814
					c37.758,11.951,74.145,34.142,93.552,68.415c20.354,35.972,18.663,79.762,9.021,119.444
					c-13.657,56.207-43.717,108.172-80.134,154.651c-6.057,7.731-12.254,15.321-18.497,22.835
					c-18.984,22.853-38.568,45.184-56.348,69.039c-2.996,4.021-5.944,8.102-8.807,12.24c-9.036,13.055-16.928,25.929-20.641,39.49
					c-4.148,15.177-3.25,30.5,4.831,47.549c4.783,10.091,11.76,19.285,20.273,26.726"/>
				<path style="fill:none;stroke:#0C0E20;stroke-miterlimit:10;" d="M65.252-54.854c38.993-8.841,80.567,5.409,110.47,31.713
					c8.995,7.908,17.043,16.957,23.872,26.898c15.87,23.091,25.378,49.703,41.231,71.806c2.472,3.446,5.085,6.775,7.881,9.965
					c25.842,29.516,65.19,44.298,104.133,52.066c39.751,7.929,81.053,9.775,120.352,21.784c37.803,11.552,74.13,33.553,94.04,67.38
					c20.872,35.495,20.321,78.832,11.951,118.509c-12.092,57.319-41.552,111.132-78.807,158.371
					c-6.196,7.856-12.56,15.544-18.987,23.143c-19.538,23.107-39.814,45.557-58.036,69.781c-3.068,4.08-6.083,8.233-8.997,12.454
					c-9.169,13.276-17.067,26.504-20.483,40.43c-3.815,15.591-2.255,31.104,6.341,48.071c5.123,10.112,12.433,19.297,21.156,26.79"
					/>
				<path style="fill:none;stroke:#0F1123;stroke-miterlimit:10;" d="M67.751-56.71c39.165-8.573,80.514,6.57,110.283,33.197
					c8.951,8.001,16.993,17.103,23.893,27.037c16.05,23.091,26.15,49.455,42.598,71.088c2.565,3.373,5.268,6.621,8.146,9.726
					c26.603,28.723,66.28,42.505,105.404,49.386c40.146,7.061,81.79,8.044,121.515,19.754
					c37.846,11.157,74.115,32.964,94.529,66.346c21.39,35.017,22.003,77.916,14.88,117.574
					C578.5,395.849,549.612,451.49,511.518,499.49c-6.334,7.981-12.867,15.768-19.476,23.451
					c-20.093,23.36-41.06,45.931-59.724,70.522c-3.141,4.14-6.222,8.365-9.187,12.668c-9.303,13.497-17.206,27.08-20.325,41.37
					c-3.482,16.006-1.256,31.707,7.852,48.592c5.465,10.133,13.106,19.308,22.039,26.854"/>
				<path style="fill:none;stroke:#121525;stroke-miterlimit:10;" d="M70.168-58.559c39.336-8.305,80.461,7.731,110.098,34.681
					c8.907,8.094,16.942,17.25,23.914,27.176c16.229,23.091,26.923,49.207,43.965,70.371c2.658,3.3,5.45,6.468,8.412,9.488
					c27.365,27.93,67.373,40.708,106.674,46.707c40.542,6.188,82.526,6.316,122.678,17.724
					c37.888,10.765,74.099,32.375,95.017,65.312c21.907,34.539,23.711,77.011,17.809,116.64
					c-8.876,59.598-37.221,117.051-76.154,165.811c-6.473,8.107-13.173,15.991-19.966,23.758
					c-20.648,23.614-42.306,46.305-61.413,71.264c-3.213,4.199-6.361,8.497-9.377,12.882c-9.436,13.719-17.346,27.655-20.167,42.31
					c-3.149,16.42-0.253,32.309,9.362,49.114c5.809,10.152,13.78,19.319,22.921,26.917"/>
				<path style="fill:none;stroke:#151828;stroke-miterlimit:10;" d="M72.495-60.401c39.508-8.037,80.408,8.892,109.911,36.164
					c8.863,8.188,16.892,17.396,23.936,27.316c16.409,23.091,27.695,48.959,45.332,69.654c2.751,3.227,5.633,6.315,8.678,9.249
					c28.126,27.137,68.467,38.906,107.945,44.027c40.94,5.31,83.261,4.592,123.841,15.694
					c37.928,10.376,74.084,31.786,95.506,64.277c22.426,34.061,25.444,76.115,20.738,115.705
					c-7.221,60.759-35.056,120.01-74.828,169.531c-6.611,8.232-13.479,16.214-20.456,24.066
					c-21.203,23.867-43.552,46.679-63.102,72.006c-3.285,4.259-6.5,8.628-9.566,13.096c-9.569,13.94-17.485,28.231-20.008,43.251
					c-2.816,16.835,0.752,32.91,10.873,49.635c6.155,10.172,14.453,19.331,23.804,26.981"/>
				<path style="fill:none;stroke:#181B2B;stroke-miterlimit:10;" d="M74.724-62.236c39.68-7.768,80.355,10.053,109.725,37.648
					c8.82,8.28,16.841,17.542,23.957,27.455c16.588,23.091,28.467,48.711,46.698,68.936c2.844,3.154,5.815,6.161,8.943,9.01
					c28.887,26.345,69.562,37.1,109.215,41.348c41.339,4.428,83.994,2.872,125.004,13.664c37.967,9.992,74.069,31.196,95.994,63.243
					c22.943,33.583,27.201,75.225,23.667,114.771c-5.533,61.929-32.891,122.97-73.501,173.25
					c-6.75,8.357-13.785,16.437-20.945,24.373c-21.758,24.121-44.798,47.053-64.79,72.749c-3.358,4.318-6.64,8.76-9.756,13.311
					c-9.703,14.161-17.624,28.807-19.85,44.191c-2.483,17.249,1.76,33.51,12.384,50.157c6.503,10.19,15.126,19.342,24.686,27.045"/>
				<path style="fill:none;stroke:#1B1E2E;stroke-miterlimit:10;" d="M76.846-64.066c39.851-7.5,80.302,11.214,109.539,39.132
					c8.776,8.374,16.79,17.688,23.978,27.594c16.768,23.091,29.239,48.464,48.065,68.219c2.936,3.081,5.998,6.008,9.209,8.772
					c29.648,25.552,70.658,35.289,110.486,38.668c41.74,3.541,84.727,1.155,126.167,11.634
					c38.005,9.611,74.054,30.607,96.483,62.209c23.461,33.105,28.981,74.339,26.596,113.836
					c-3.81,63.106-30.726,125.929-72.175,176.97c-6.888,8.483-14.091,16.66-21.435,24.681
					c-22.313,24.374-46.044,47.427-66.478,73.49c-3.431,4.377-6.779,8.892-9.946,13.525c-9.836,14.382-17.764,29.382-19.692,45.131
					c-2.15,17.664,2.771,34.108,13.894,50.679c6.852,10.207,15.8,19.354,25.569,27.109"/>
				<path style="fill:none;stroke:#1E2131;stroke-miterlimit:10;" d="M78.856-65.889c40.023-7.232,80.249,12.375,109.353,40.616
					c8.732,8.467,16.74,17.834,24,27.734c16.947,23.091,30.011,48.216,49.432,67.502c3.029,3.008,6.18,5.854,9.475,8.533
					c30.409,24.759,71.754,33.473,111.757,35.989c42.14,2.65,85.458-0.558,127.33,9.604c38.042,9.233,74.039,30.018,96.971,61.175
					c23.979,32.627,30.785,73.456,29.526,112.901c-2.052,64.287-28.561,128.889-70.848,180.69
					c-7.026,8.608-14.397,16.883-21.925,24.988c-22.868,24.628-47.29,47.801-68.167,74.232c-3.503,4.437-6.918,9.023-10.136,13.739
					c-9.969,14.603-17.903,29.958-19.533,46.071c-1.817,18.078,3.784,34.705,15.405,51.2c7.202,10.224,16.473,19.366,26.451,27.172"
					/>
				<path style="fill:none;stroke:#202434;stroke-miterlimit:10;" d="M80.755-67.707c40.194-6.964,80.195,13.536,109.167,42.1
					c8.689,8.56,16.689,17.98,24.021,27.873c17.126,23.091,30.783,47.968,50.799,66.785c3.122,2.935,6.363,5.701,9.741,8.294
					c31.17,23.966,72.851,31.653,113.027,33.309c42.541,1.753,86.188-2.267,128.493,7.575c38.079,8.858,74.023,29.429,97.46,60.141
					c24.497,32.15,32.61,72.573,32.455,111.966c-0.257,65.468-26.396,131.848-69.522,184.411
					c-7.165,8.733-14.703,17.106-22.414,25.296c-23.423,24.881-48.536,48.175-69.855,74.974c-3.575,4.496-7.057,9.155-10.326,13.953
					c-10.103,14.824-18.042,30.533-19.375,47.011c-1.484,18.493,4.8,35.299,16.915,51.722c7.554,10.239,17.146,19.377,27.334,27.236
					"/>
				<path style="fill:none;stroke:#232737;stroke-miterlimit:10;" d="M82.549-69.519c40.366-6.696,80.142,14.697,108.981,43.584
					c8.645,8.653,16.639,18.126,24.043,28.012c17.306,23.091,31.556,47.72,52.165,66.067c3.215,2.862,6.545,5.547,10.006,8.056
					c31.932,23.173,73.948,29.829,114.298,30.63c42.942,0.852,86.918-3.973,129.656,5.545c38.115,8.487,74.008,28.84,97.948,59.106
					c25.015,31.672,34.456,71.689,35.384,111.032c1.573,66.647-24.231,134.808-68.195,188.131
					c-7.304,8.859-15.01,17.329-22.904,25.604c-23.978,25.135-49.782,48.549-71.544,75.716c-3.648,4.556-7.196,9.287-10.515,14.167
					c-10.236,15.045-18.181,31.109-19.217,47.952c-1.151,18.907,5.817,35.892,18.426,52.243c7.907,10.253,17.819,19.389,28.216,27.3
					"/>
				<path style="fill:none;stroke:#262A3A;stroke-miterlimit:10;" d="M84.257-71.327c40.538-6.428,80.089,15.859,108.795,45.068
					c8.601,8.746,16.588,18.272,24.064,28.152c17.485,23.09,32.328,47.472,53.532,65.35c3.308,2.788,6.728,5.394,10.272,7.817
					c32.693,22.381,75.048,28.433,115.568,27.95c43.34-0.517,87.646-5.674,130.819,3.515c38.15,8.12,73.993,28.251,98.437,58.072
					c25.533,31.194,36.321,70.801,38.313,110.097c3.439,67.821-22.065,137.767-66.869,191.85
					c-7.442,8.984-15.316,17.553-23.394,25.911c-24.533,25.388-51.028,48.923-73.232,76.458c-3.72,4.615-7.335,9.418-10.705,14.381
					c-10.37,15.267-18.321,31.684-19.059,48.892c-0.818,19.322,6.836,36.484,19.937,52.765c8.261,10.267,18.493,19.4,29.099,27.363"
					/>
				<path style="fill:none;stroke:#292D3D;stroke-miterlimit:10;" d="M85.885-73.13c40.709-6.16,80.036,17.02,108.609,46.552
					c8.557,8.839,16.537,18.418,24.085,28.291c17.665,23.09,33.1,47.224,54.899,64.633c3.401,2.715,6.91,5.241,10.538,7.578
					c33.454,21.588,76.141,26.167,116.839,25.27c43.743-0.964,88.374-7.372,131.982,1.485c38.184,7.755,73.978,27.662,98.925,57.038
					c26.051,30.716,38.204,69.909,41.242,109.162c5.341,68.987-19.9,140.727-65.542,195.57
					c-7.581,9.109-15.622,17.776-23.884,26.219c-25.087,25.642-52.274,49.297-74.921,77.2c-3.793,4.675-7.475,9.55-10.895,14.595
					c-10.503,15.488-18.46,32.26-18.901,49.832c-0.484,19.736,7.857,37.074,21.447,53.287c8.616,10.279,19.166,19.412,29.981,27.427
					"/>
				<path style="fill:none;stroke:#2C3040;stroke-miterlimit:10;" d="M87.443-74.929c40.881-5.892,79.983,18.181,108.423,48.036
					c8.514,8.932,16.487,18.564,24.107,28.431c17.844,23.09,33.872,46.977,56.266,63.915c3.494,2.642,7.093,5.087,10.803,7.34
					c34.215,20.795,77.236,24.331,118.109,22.591c44.142-1.879,89.102-9.066,133.145-0.545
					c38.218,7.394,73.963,27.073,99.413,56.004c26.569,30.238,40.103,69.011,44.172,108.228
					c7.277,70.142-17.735,143.686-64.216,199.29c-7.719,9.235-15.928,17.999-24.373,26.526
					c-25.642,25.896-53.52,49.671-76.609,77.942c-3.865,4.734-7.614,9.682-11.085,14.809
					c-10.636,15.709-18.599,32.835-18.742,50.772c-0.151,20.151,8.878,37.661,22.958,53.808c8.972,10.29,19.84,19.423,30.864,27.491
					"/>
				<path style="fill:none;stroke:#2F3442;stroke-miterlimit:10;" d="M88.938-76.724c41.053-5.624,79.93,19.342,108.237,49.52
					c8.47,9.025,16.436,18.711,24.128,28.57c18.024,23.09,34.645,46.729,57.632,63.198c3.587,2.569,7.275,4.934,11.069,7.101
					c34.976,20.002,78.33,22.49,119.38,19.911c44.54-2.798,89.829-10.756,134.308-2.575c38.252,7.036,73.948,26.483,99.902,54.969
					c27.087,29.76,42.018,68.106,47.101,107.293c9.246,71.286-15.57,146.646-62.889,203.01c-7.857,9.36-16.234,18.222-24.863,26.834
					c-26.197,26.149-54.766,50.045-78.297,78.684c-3.938,4.794-7.753,9.813-11.274,15.024
					c-10.769,15.93-18.739,33.411-18.584,51.712c0.182,20.566,9.901,38.248,24.469,54.33c9.329,10.299,20.513,19.435,31.747,27.555"
					/>
				<path style="fill:none;stroke:#323745;stroke-miterlimit:10;" d="M90.376-78.515c41.224-5.355,79.877,20.503,108.051,51.004
					c8.426,9.118,16.385,18.857,24.149,28.709c18.203,23.09,35.417,46.481,58.999,62.481c3.68,2.496,7.458,4.78,11.335,6.862
					c35.738,19.209,79.423,20.646,120.651,17.232c44.937-3.721,90.556-12.442,135.471-4.605
					c38.286,6.681,73.932,25.894,100.39,53.935c27.605,29.283,43.947,67.193,50.03,106.358
					c11.248,72.415-13.405,149.605-61.563,206.73c-7.996,9.485-16.54,18.445-25.353,27.141
					c-26.752,26.403-56.012,50.419-79.986,79.426c-4.01,4.853-7.892,9.945-11.464,15.238
					c-10.903,16.151-18.878,33.986-18.426,52.653c0.515,20.98,10.925,38.832,25.979,54.851
					c9.687,10.308,21.186,19.446,32.629,27.618"/>
				<path style="fill:none;stroke:#343A48;stroke-miterlimit:10;" d="M91.762-80.303c41.396-5.087,79.824,21.664,107.865,52.488
					c8.383,9.211,16.335,19.003,24.171,28.849c18.383,23.09,36.189,46.233,60.366,61.764c3.773,2.423,7.64,4.627,11.6,6.624
					c36.499,18.416,80.515,18.798,121.921,14.552c45.333-4.648,91.283-14.125,136.634-6.635
					c38.319,6.328,73.917,25.305,100.879,52.901c28.123,28.805,45.888,66.271,52.959,105.423
					c13.28,73.528-11.24,152.565-60.236,210.45c-8.134,9.611-16.847,18.668-25.842,27.449
					c-27.307,26.656-57.257,50.793-81.674,80.168c-4.083,4.913-8.031,10.077-11.654,15.452
					c-11.036,16.372-19.017,34.562-18.268,53.593c0.848,21.395,11.95,39.415,27.49,55.373
					c10.045,10.316,21.859,19.458,33.512,27.682"/>
				<path style="fill:none;stroke:#373D4B;stroke-miterlimit:10;" d="M93.103-82.087c41.568-4.819,79.771,22.825,107.678,53.972
					c8.339,9.304,16.284,19.149,24.192,28.988c18.562,23.09,36.961,45.985,61.732,61.046c3.866,2.35,7.823,4.474,11.866,6.385
					c37.26,17.623,81.596,16.873,123.192,11.873c45.716-5.66,91.998-15.731,137.797-8.665c38.344,6.04,73.902,24.716,101.367,51.867
					c28.641,28.327,47.84,65.34,55.889,104.489c15.341,74.623-9.075,155.524-58.91,214.17c-8.273,9.736-17.153,18.891-26.332,27.757
					c-27.862,26.91-58.503,51.167-83.363,80.91c-4.155,4.972-8.171,10.208-11.844,15.666
					c-11.169,16.593-19.156,35.137-18.109,54.533c1.181,21.809,13.005,39.966,29,55.894c10.423,10.302,22.533,19.469,34.394,27.746"
					/>
				<path style="fill:none;stroke:#3A404E;stroke-miterlimit:10;" d="M94.403-83.868c41.739-4.551,79.717,23.986,107.493,55.456
					c8.295,9.398,16.234,19.295,24.213,29.127c18.742,23.09,37.733,45.738,63.099,60.329c3.958,2.277,8.005,4.32,12.132,6.146
					c38.021,16.831,82.688,15.055,124.462,9.193c46.112-6.556,92.73-17.439,138.96-10.695
					c38.382,5.664,73.887,24.127,101.856,50.832c29.159,27.849,49.802,64.398,58.818,103.554c17.43,75.7-6.91,158.484-57.583,217.89
					c-8.411,9.861-17.459,19.115-26.822,28.064c-28.417,27.163-59.749,51.54-85.051,81.652c-4.228,5.031-8.31,10.34-12.033,15.88
					c-11.303,16.815-19.296,35.713-17.951,55.473c1.514,22.224,14.017,40.56,30.511,56.416
					c10.773,10.317,23.206,19.481,35.277,27.81"/>
				<path style="fill:none;stroke:#3D4351;stroke-miterlimit:10;" d="M95.666-85.646c41.911-4.283,79.664,25.147,107.306,56.94
					c27.642,31.793,51.693,68.747,88.701,88.878c41.375,22.507,91.623,19.873,138.13,12.421
					c46.508-7.452,93.462-19.148,140.123-12.725c78.466,10.801,144.547,75.66,164.091,152.418
					c19.544,76.757-4.745,161.443-56.257,221.61c-34.497,40.294-79.824,70.243-114.051,110.766
					c-17.329,20.517-32.2,45.741-30.016,72.508c3.056,37.456,37.14,63.626,68.181,84.811"/>
				<path style="fill:none;stroke:#3A404E;stroke-miterlimit:10;" d="M98.492-87.289c35.79-4.085,68.904,16.38,95.319,42.002
					c4.783,4.638,9.355,9.446,13.699,14.31C226.958-9.2,244.761,14.96,266.299,34.16c9.86,8.789,20.464,16.527,32.292,22.594
					c42.083,21.602,92.718,18.134,139.622,10.169c47.646-8.212,96.204-20.281,143.729-12.444
					c32.906,5.424,63.017,20.66,88.218,41.891c36.004,30.352,61.667,73.266,71.605,119.355
					c16.45,76.288-8.449,159.331-58.291,219.807c-4.466,5.422-9.103,10.672-13.858,15.8c-30.781,33.171-66.518,61.125-95.268,96.339
					c-6.246,7.66-12.217,15.924-17.22,24.631c-8.452,14.711-14.084,30.634-13.298,47.139c0.51,10.518,3.446,20.155,8.079,29.08
					c11.503,22.267,33.559,40.364,55.226,55.747"/>
				<path style="fill:none;stroke:#373D4B;stroke-miterlimit:10;" d="M101.216-88.926c36.089-4.544,69.808,15.839,96.726,41.396
					c4.878,4.629,9.55,9.43,14.005,14.288c19.932,21.745,38.266,45.824,60.418,64.654c10.143,8.62,21.008,16.116,33.045,21.93
					c42.791,20.697,93.833,16.501,141.113,7.916c48.804-8.862,98.945-21.414,147.335-12.162c33.498,6.4,63.509,23.256,88.184,45.881
					c35.26,32.369,59.017,77.119,67.371,124.193c13.444,75.75-12.154,157.219-60.325,218.003
					c-4.318,5.453-8.782,10.748-13.341,15.932c-29.51,33.512-63.007,62.253-90.86,97.579c-6.056,7.701-11.901,15.96-16.898,24.618
					c-8.424,14.602-14.322,30.23-14.122,46.414c0.145,10.305,2.595,19.774,6.693,28.598c10.135,22.055,30.551,40.594,51.736,56.245"
					/>
				<path style="fill:none;stroke:#343A48;stroke-miterlimit:10;" d="M103.827-90.559c36.388-5.003,70.713,15.298,98.133,40.789
					c4.973,4.62,9.746,9.414,14.31,14.266c20.417,21.712,39.282,45.712,62.046,64.171c10.426,8.451,21.552,15.706,33.797,21.266
					c43.498,19.792,94.938,14.802,142.604,5.663c49.952-9.577,101.686-22.546,150.94-11.881
					c34.091,7.376,64.001,25.853,88.15,49.871c34.517,34.385,56.399,80.933,63.138,129.031
					c10.529,75.153-15.858,155.107-62.359,216.199c-4.169,5.483-8.461,10.823-12.824,16.065
					c-28.239,33.854-59.497,63.38-86.452,98.819c-5.865,7.742-11.585,15.995-16.576,24.604
					c-8.397,14.492-14.559,29.826-14.945,45.689c-0.22,10.092,1.77,19.382,5.306,28.115c8.834,21.816,27.542,40.824,48.247,56.744"
					/>
				<path style="fill:none;stroke:#323745;stroke-miterlimit:10;" d="M106.312-92.186c36.687-5.461,71.618,14.757,99.539,40.183
					c5.068,4.611,9.941,9.398,14.615,14.244c20.902,21.679,40.297,45.599,63.674,63.688c10.709,8.282,22.095,15.296,34.549,20.603
					c44.206,18.886,96.042,13.095,144.096,3.41c51.1-10.299,104.427-23.679,154.546-11.6c34.684,8.352,64.494,28.45,88.117,53.861
					c33.774,36.401,53.819,84.712,58.904,133.87c7.707,74.506-19.563,152.995-64.394,214.395
					c-4.02,5.514-8.139,10.899-12.307,16.197c-26.967,34.195-55.987,64.508-82.043,100.059c-5.675,7.783-11.27,16.031-16.253,24.591
					c-8.369,14.383-14.797,29.423-15.769,44.965c-0.585,9.879,0.927,19,3.92,27.633c7.488,21.599,24.534,41.054,44.758,57.242"/>
				<path style="fill:none;stroke:#2F3442;stroke-miterlimit:10;" d="M108.659-93.809c36.987-5.92,72.522,14.216,100.946,39.577
					c5.163,4.602,10.136,9.382,14.92,14.222c21.387,21.647,41.313,45.486,65.303,63.204c10.992,8.114,22.639,14.886,35.302,19.939
					c44.914,17.981,97.145,11.382,145.587,1.158c52.247-11.028,107.168-24.812,158.152-11.319
					c35.277,9.328,64.986,31.046,88.083,57.851c33.031,38.418,51.281,88.462,54.67,138.708
					c4.979,73.818-23.267,150.882-66.428,212.592c-3.871,5.545-7.818,10.974-11.79,16.33
					c-25.696,34.537-52.476,65.636-77.635,101.298c-5.485,7.824-10.954,16.067-15.931,24.578
					c-8.341,14.273-15.066,29.016-16.593,44.24c-0.97,9.664,0.083,18.618,2.533,27.15c6.141,21.386,21.525,41.284,41.268,57.74"/>
				<path style="fill:none;stroke:#2C3040;stroke-miterlimit:10;" d="M110.86-95.427c37.286-6.379,73.426,13.675,102.353,38.971
					c5.258,4.593,10.332,9.366,15.225,14.2c21.871,21.614,42.328,45.374,66.931,62.721c11.274,7.945,23.183,14.476,36.054,19.275
					c45.621,17.076,98.247,9.663,147.078-1.095C531.894,26.882,588.411,12.7,640.259,27.607
					c35.87,10.304,65.478,33.643,88.049,61.841c32.287,40.434,48.789,92.189,50.436,143.546
					c2.343,73.098-26.972,148.77-68.462,210.788c-3.722,5.576-7.496,11.05-11.272,16.462
					c-24.425,34.878-48.966,66.763-73.227,102.538c-5.295,7.865-10.638,16.102-15.609,24.564
					c-8.313,14.164-15.307,28.61-17.417,43.515c-1.338,9.45-0.761,18.238,1.147,26.668c4.792,21.176,18.517,41.514,37.779,58.239"/>
				<path style="fill:none;stroke:#292D3D;stroke-miterlimit:10;" d="M112.907-97.042c37.585-6.837,74.331,13.134,103.76,38.365
					c5.353,4.584,10.527,9.35,15.531,14.178c22.356,21.581,43.344,45.261,68.559,62.238c11.557,7.776,23.727,14.066,36.807,18.611
					c46.329,16.17,99.347,7.937,148.57-3.348c54.538-12.503,112.65-27.077,165.363-10.756c36.463,11.28,65.97,36.24,88.016,65.831
					c31.544,42.45,46.348,95.899,46.202,148.384c-0.202,72.356-30.677,146.658-70.496,208.984
					c-3.573,5.607-7.175,11.125-10.755,16.595c-23.154,35.22-45.456,67.891-68.819,103.779
					c-5.105,7.906-10.322,16.138-15.286,24.551c-8.286,14.055-15.549,28.204-18.241,42.791c-1.705,9.236-1.606,17.859-0.24,26.186
					c3.44,20.968,15.509,41.744,34.29,58.737"/>
				<path style="fill:none;stroke:#262A3A;stroke-miterlimit:10;" d="M114.792-98.652c37.884-7.296,75.235,12.593,105.166,37.759
					c5.448,4.575,10.722,9.334,15.836,14.155c22.841,21.548,44.359,45.148,70.187,61.755c11.84,7.607,24.271,13.655,37.559,17.947
					c47.036,15.265,100.447,6.206,150.061-5.6c55.681-13.25,115.391-28.21,168.969-10.475
					c37.056,12.256,66.462,38.836,87.982,69.821c30.801,44.467,43.96,99.599,41.968,153.222c-2.66,71.6-34.381,144.546-72.53,207.18
					c-3.424,5.638-6.854,11.201-10.238,16.727c-21.883,35.561-42.018,68.974-64.411,105.018
					c-4.931,7.937-10.006,16.174-14.964,24.538c-8.258,13.945-15.789,27.798-19.065,42.066c-2.072,9.021-2.453,17.481-1.627,25.703
					c2.086,20.764,12.5,41.975,30.8,59.235"/>
				<path style="fill:none;stroke:#232737;stroke-miterlimit:10;" d="M116.507-100.258c38.184-7.754,76.14,12.052,106.573,37.153
					c5.543,4.566,10.918,9.318,16.141,14.133c23.326,21.516,45.374,45.036,71.816,61.272c12.123,7.439,24.815,13.245,38.312,17.283
					c47.744,14.36,101.546,4.469,151.552-7.853C557.724,7.728,619.033-7.612,673.475,11.537
					c37.649,13.232,66.954,41.433,87.948,73.811c30.057,46.483,41.628,103.293,37.734,158.061
					c-5.036,70.839-38.086,142.434-74.565,205.376c-3.276,5.669-6.532,11.277-9.721,16.86
					c-20.612,35.903-38.512,70.101-60.003,106.258c-4.741,7.978-9.691,16.21-14.642,24.524
					c-8.23,13.836-16.028,27.392-19.889,41.341c-2.438,8.807-3.3,17.104-3.013,25.221c0.728,20.561,9.492,42.205,27.311,59.734"/>
				<path style="fill:none;stroke:#202434;stroke-miterlimit:10;" d="M118.056-101.86c38.483-8.213,77.044,11.511,107.98,36.547
					c5.638,4.557,11.113,9.302,16.446,14.111c23.811,21.483,46.39,44.923,73.444,60.788c12.406,7.27,25.359,12.835,39.064,16.62
					c48.452,13.455,102.644,2.728,153.044-10.106c57.965-14.76,120.874-30.476,176.18-9.912
					c38.242,14.208,67.447,44.03,87.914,77.801c29.314,48.499,39.352,106.99,33.5,162.899
					c-7.336,70.08-41.79,140.322-76.599,203.573c-3.127,5.699-6.211,11.352-9.204,16.992
					c-19.34,36.244-35.005,71.229-55.594,107.498c-4.552,8.018-9.375,16.245-14.319,24.511
					c-8.202,13.726-16.266,26.986-20.713,40.616c-2.803,8.592-4.15,16.727-4.4,24.739c-0.634,20.359,6.484,42.435,23.822,60.232"/>
				<path style="fill:none;stroke:#1E2131;stroke-miterlimit:10;" d="M119.446-103.458c38.782-8.672,77.949,10.97,109.387,35.941
					c5.733,4.548,11.308,9.287,16.751,14.089c24.295,21.45,47.405,44.81,75.072,60.305c12.689,7.101,25.903,12.425,39.816,15.956
					c49.16,12.549,103.74,0.983,154.535-12.359c59.105-15.523,123.615-31.608,179.786-9.631
					c38.835,15.184,67.939,46.626,87.881,81.79c28.571,50.516,37.135,110.694,29.266,167.737
					c-9.564,69.33-45.495,138.21-78.633,201.769c-2.978,5.73-5.89,11.428-8.687,17.125c-18.069,36.586-31.496,72.358-51.186,108.738
					c-4.362,8.06-9.059,16.281-13.997,24.498c-8.174,13.617-16.503,26.58-21.537,39.892c-3.168,8.378-5.002,16.351-5.786,24.256
					c-2.001,20.158,3.475,42.665,20.332,60.73"/>
				<path style="fill:none;stroke:#1B1E2E;stroke-miterlimit:10;" d="M120.691-105.053c39.081-9.13,78.853,10.429,110.793,35.335
					c5.828,4.539,11.504,9.271,17.057,14.067c24.78,21.417,48.421,44.698,76.701,59.822c12.972,6.932,26.447,12.014,40.569,15.292
					c49.867,11.644,104.835-0.767,156.026-14.611C582.079-11.44,648.193-27.89,705.228-4.498
					c39.428,16.16,68.431,49.223,87.847,85.78c27.827,52.532,34.976,114.41,25.032,172.575
					c-11.727,68.596-49.2,136.097-80.667,199.965c-2.829,5.761-5.568,11.503-8.17,17.258
					c-16.798,36.927-27.986,73.488-46.778,109.978c-4.172,8.101-8.744,16.317-13.675,24.484
					c-8.146,13.507-16.739,26.175-22.361,39.167c-3.532,8.164-5.855,15.974-7.173,23.774c-3.372,19.957,0.467,42.895,16.843,61.229"
					/>
				<path style="fill:none;stroke:#181B2B;stroke-miterlimit:10;" d="M121.802-106.644c39.38-9.589,79.758,9.888,112.2,34.729
					c5.923,4.53,11.699,9.255,17.362,14.045c25.265,21.385,49.436,44.585,78.329,59.339c13.254,6.763,26.99,11.604,41.321,14.628
					c50.575,10.739,105.928-2.521,157.518-16.864c61.379-17.065,129.097-33.874,186.997-9.068
					c40.021,17.136,68.923,51.82,87.813,89.77c27.084,54.548,32.875,118.146,20.798,177.414
					c-13.831,67.882-52.904,133.985-82.701,198.161c-2.68,5.792-5.247,11.579-7.653,17.39
					c-15.527,37.269-24.474,74.618-42.37,111.218c-3.981,8.143-8.428,16.353-13.352,24.471
					c-8.119,13.398-16.975,25.77-23.185,38.442c-3.896,7.95-6.71,15.597-8.559,23.292c-4.748,19.754-2.542,43.125,13.354,61.727"/>
				<path style="fill:none;stroke:#151828;stroke-miterlimit:10;" d="M122.794-108.232c39.68-10.047,80.662,9.347,113.607,34.123
					c6.018,4.521,11.895,9.239,17.667,14.023c25.75,21.352,50.452,44.472,79.957,58.856c13.537,6.595,27.534,11.194,42.074,13.964
					c51.283,9.833,107.021-4.278,159.009-19.117c62.514-17.843,131.838-35.007,190.603-8.787
					c40.614,18.112,69.415,54.417,87.78,93.76c26.341,56.565,30.83,121.904,16.564,182.252
					c-15.884,67.194-56.609,131.873-84.736,196.358c-2.531,5.823-4.926,11.654-7.135,17.523
					c-14.256,37.61-20.96,75.75-37.962,112.458c-3.791,8.184-8.112,16.388-13.03,24.458c-8.091,13.288-17.209,25.365-24.009,37.718
					c-4.259,7.736-7.566,15.219-9.946,22.809c-6.128,19.549-5.55,43.356,9.864,62.225"/>
				<path style="fill:none;stroke:#121525;stroke-miterlimit:10;" d="M123.681-109.817c39.979-10.506,81.567,8.806,115.014,33.516
					c6.114,4.512,12.09,9.223,17.972,14.001c26.234,21.319,51.467,44.36,81.586,58.373c13.82,6.426,28.078,10.784,42.826,13.3
					c51.99,8.928,108.112-6.039,160.501-21.369c63.648-18.625,134.579-36.139,194.208-8.505
					c41.207,19.088,69.908,57.013,87.746,97.75c25.597,58.581,28.84,125.691,12.331,187.09
					c-17.891,66.535-60.313,129.761-86.77,194.554c-2.382,5.854-4.604,11.73-6.618,17.655
					c-12.985,37.952-17.374,76.913-33.553,113.698c-3.583,8.233-7.796,16.424-12.708,24.445
					c-8.063,13.179-17.442,24.962-24.833,36.993c-4.621,7.524-8.424,14.84-11.332,22.327c-7.512,19.34-8.558,43.586,6.375,62.724"/>
				<path style="fill:none;stroke:#0F1123;stroke-miterlimit:10;" d="M124.473-111.398c40.278-10.965,82.471,8.265,116.42,32.91
					c6.209,4.503,12.285,9.207,18.277,13.979c26.719,21.286,52.482,44.247,83.214,57.889c14.103,6.257,28.622,10.374,43.578,12.636
					c52.698,8.023,109.202-7.803,161.992-23.622c64.779-19.412,137.32-37.272,197.814-8.224c41.8,20.064,70.4,59.61,87.712,101.74
					c24.854,60.598,26.903,129.508,8.097,191.928c-19.857,65.909-64.018,127.649-88.804,192.75
					c-2.234,5.884-4.283,11.805-6.101,17.788c-11.714,38.293-13.864,78.04-29.145,114.938c-3.393,8.274-7.48,16.46-12.385,24.431
					c-8.035,13.069-17.675,24.559-25.656,36.268c-4.984,7.311-9.283,14.459-12.719,21.845c-8.898,19.129-11.567,43.816,2.886,63.222
					"/>
				<path style="fill:none;stroke:#0C0E20;stroke-miterlimit:10;" d="M125.183-112.976c40.578-11.423,83.376,7.724,117.827,32.304
					c6.304,4.494,12.481,9.191,18.583,13.957c27.204,21.254,53.498,44.134,84.842,57.406c14.386,6.088,29.166,9.963,44.331,11.973
					c53.405,7.117,110.29-9.569,163.483-25.875c65.909-20.203,140.062-38.405,201.42-7.943
					c42.393,21.04,70.892,62.207,87.679,105.73c24.111,62.614,25.016,133.361,3.863,196.766
					c-21.791,65.318-67.722,125.537-90.838,190.946c-2.085,5.915-3.961,11.881-5.584,17.92
					c-10.443,38.634-10.353,79.168-24.737,116.178c-3.203,8.315-7.165,16.495-12.063,24.418
					c-8.007,12.96-17.907,24.157-26.48,35.543c-5.345,7.099-10.143,14.077-14.105,21.362c-10.287,18.913-14.575,44.046-0.604,63.72"
					/>
				<path style="fill:none;stroke:#0A0B1D;stroke-miterlimit:10;" d="M125.821-114.551c40.877-11.882,84.28,7.183,119.234,31.698
					c6.399,4.485,12.676,9.175,18.888,13.935c27.689,21.221,54.513,44.022,86.47,56.923c14.669,5.919,29.71,9.553,45.083,11.309
					c54.113,6.212,111.346-11.443,164.975-28.128c66.996-21.129,142.803-39.538,205.025-7.662
					c42.986,22.016,71.384,64.803,87.645,109.72c23.367,64.63,23.175,137.251-0.371,201.605
					c-23.696,64.764-71.427,123.424-92.872,189.142c-1.936,5.946-3.64,11.957-5.067,18.053
					c-9.171,38.976-6.843,80.296-20.329,117.418c-3.013,8.356-6.849,16.531-11.741,24.405c-7.98,12.85-18.121,23.771-27.304,34.819
					c-5.696,6.897-11.003,13.694-15.492,20.88c-11.677,18.694-17.583,44.276-4.093,64.219"/>
				<path style="fill:none;stroke:#07081A;stroke-miterlimit:10;" d="M126.394-116.123c41.176-12.34,85.185,6.642,120.641,31.092
					c6.494,4.476,12.871,9.159,19.193,13.913c28.173,21.188,55.529,43.909,88.099,56.44c14.952,5.751,30.254,9.143,45.836,10.645
					c54.821,5.307,112.441-13.183,166.466-30.38c68.135-21.889,145.544-40.671,208.631-7.38
					c43.578,22.992,71.876,67.4,87.611,113.71c22.624,66.647,21.378,141.18-4.605,206.443
					c-25.579,64.248-75.132,121.312-94.907,187.339c-1.787,5.977-3.319,12.032-4.55,18.185c-7.9,39.317-3.333,81.423-15.921,118.658
					c-2.823,8.397-6.533,16.567-11.418,24.391c-7.952,12.741-18.359,23.368-28.128,34.094c-6.061,6.684-11.864,13.309-16.879,20.398
					c-13.067,18.47-20.592,44.506-7.582,64.717"/>
				<path style="fill:none;stroke:#040517;stroke-miterlimit:10;" d="M126.911-117.693c41.475-12.799,86.089,6.101,122.048,30.486
					c6.589,4.467,13.067,9.143,19.498,13.891c28.658,21.155,56.544,43.796,89.727,55.957c15.234,5.582,30.797,8.733,46.588,9.981
					c55.529,4.402,113.537-14.922,167.957-32.633c69.273-22.648,148.285-41.803,212.237-7.099
					c44.171,23.969,72.369,69.997,87.578,117.7c21.881,68.663,19.62,145.15-8.839,211.281
					c-27.444,63.771-78.836,119.2-96.941,185.535c-1.638,6.008-2.997,12.108-4.033,18.318
					c-6.629,39.659,0.177,82.551-11.513,119.898c-2.633,8.438-6.217,16.603-11.096,24.378
					c-7.924,12.632-18.596,22.964-28.952,33.369c-6.426,6.471-12.732,12.916-18.265,19.915
					c-14.478,18.226-23.6,44.737-11.072,65.215"/>
				<path style="fill:none;stroke:#010214;stroke-miterlimit:10;" d="M127.378-119.259c41.774-13.257,86.994,5.56,123.454,29.88
					s69.777,54.906,111.159,69.342c70.06,24.44,146.378-2.16,216.789-25.569s151.026-42.936,215.842-6.818
					c44.764,24.944,72.861,72.593,87.544,121.69c21.138,70.679,17.898,149.163-13.073,216.119
					c-31.95,69.072-92.387,126.751-102.491,202.181c-6.571,49.054,8.521,103.639-17.878,145.503
					c-12.797,20.293-33.582,34.064-49.428,52.078c-15.846,18.014-26.608,44.967-14.561,65.714"/>
			</g>
		</g>
	</g>
</g>
</svg>
