<?xml version="1.0" encoding="utf-8"?>
<!-- Generator: Adobe Illustrator 27.5.0, SVG Export Plug-In . SVG Version: 6.00 Build 0)  -->
<svg version="1.1" xmlns="http://www.w3.org/2000/svg" xmlns:xlink="http://www.w3.org/1999/xlink" x="0px" y="0px"
	 viewBox="0 0 675 1200" style="enable-background:new 0 0 675 1200;" xml:space="preserve">
<g id="Background">
	<rect style="fill:#0C1F3B;" width="675" height="1200"/>
</g>
<g id="Graphic_Elements">
	<g>
		<defs>
			<rect id="SVGID_1_" width="673" height="1200"/>
		</defs>
		<clipPath id="SVGID_00000035495757898861996670000003620376725651483531_">
			<use xlink:href="#SVGID_1_"  style="overflow:visible;"/>
		</clipPath>
		<g style="clip-path:url(#SVGID_00000035495757898861996670000003620376725651483531_);">
			<polygon style="fill:#636885;" points="206.122,-65.116 49.641,139.879 138.768,109.546 			"/>
			<polygon style="fill:#BBBCC4;" points="411.297,139.879 206.122,-65.116 138.768,109.546 			"/>
			<polygon style="fill:#BBBCC4;" points="138.768,230.914 49.641,139.879 138.768,109.544 			"/>
			<polygon style="fill:#2B3759;" points="411.297,139.879 138.768,230.914 138.768,109.544 			"/>
		</g>
		<g style="clip-path:url(#SVGID_00000035495757898861996670000003620376725651483531_);">
			<polygon style="fill:#2B3759;" points="-26.215,212.746 88.479,320.583 -85.489,302.669 			"/>
			<polygon style="fill:#BBBCC4;" points="-45.784,402.785 88.479,320.583 -85.489,302.669 			"/>
		</g>
		<g style="clip-path:url(#SVGID_00000035495757898861996670000003620376725651483531_);">
			<polygon style="fill:#636885;" points="337.5,1129.315 196.878,1058.539 225.122,1108.592 			"/>
			<polygon style="fill:#BBBCC4;" points="237.639,1275.513 337.5,1129.315 225.122,1108.592 			"/>
			<polygon style="fill:#BBBCC4;" points="152.307,1122.271 196.878,1058.539 225.122,1108.591 			"/>
			<polygon style="fill:#2B3759;" points="237.639,1275.513 152.307,1122.271 225.122,1108.591 			"/>
		</g>
		<g style="clip-path:url(#SVGID_00000035495757898861996670000003620376725651483531_);">
			<polygon style="fill:#2B3759;" points="707.812,603.204 787.038,513.907 781.888,638.976 687.137,720.776 			"/>
			<polygon style="fill:#636885;" points="687.137,720.776 707.812,603.204 624.402,562.924 			"/>
			<polygon style="fill:#BBBCC4;" points="624.402,562.924 707.812,603.204 787.038,513.907 			"/>
		</g>
		<g style="clip-path:url(#SVGID_00000035495757898861996670000003620376725651483531_);">
			<polygon style="fill:#636885;" points="787.489,740.208 630.43,750.993 680.242,779.659 			"/>
			<polygon style="fill:#BBBCC4;" points="756.481,894.552 787.489,740.208 680.242,779.659 			"/>
			<polygon style="fill:#2B3759;" points="680.242,779.659 756.481,894.552 630.43,750.993 			"/>
		</g>
		<g style="clip-path:url(#SVGID_00000035495757898861996670000003620376725651483531_);">
			<polygon style="fill:#BBBCC4;" points="582.043,1133.234 494.683,1237.048 600.032,1218.637 			"/>
		</g>
		<g style="clip-path:url(#SVGID_00000035495757898861996670000003620376725651483531_);">
			<polygon style="fill:#BBBCC4;" points="22.43,40.422 -23.022,101.758 35.258,93.8 			"/>
		</g>
		<g style="clip-path:url(#SVGID_00000035495757898861996670000003620376725651483531_);">
			<polygon style="fill:#636885;" points="436.996,947.049 548.977,836.397 524.679,1009.589 			"/>
			<polygon style="fill:#BBBCC4;" points="626.187,973.592 548.977,836.397 524.679,1009.589 			"/>
		</g>
		<g style="clip-path:url(#SVGID_00000035495757898861996670000003620376725651483531_);">
			
				<polygon style="fill:none;stroke:#FFFFFF;stroke-width:2;stroke-linecap:round;stroke-linejoin:round;stroke-miterlimit:10;" points="
				441.946,135.383 540.729,114.812 483.769,206.219 376.22,211.943 			"/>
			
				<polygon style="fill:none;stroke:#FFFFFF;stroke-width:2;stroke-linecap:round;stroke-linejoin:round;stroke-miterlimit:10;" points="
				376.22,211.943 441.946,135.383 394.852,55.622 			"/>
			
				<polygon style="fill:none;stroke:#FFFFFF;stroke-width:2;stroke-linecap:round;stroke-linejoin:round;stroke-miterlimit:10;" points="
				394.852,55.622 441.946,135.383 540.729,114.812 			"/>
		</g>
		<g style="clip-path:url(#SVGID_00000035495757898861996670000003620376725651483531_);">
			
				<polygon style="fill:none;stroke:#FFFFFF;stroke-width:2;stroke-linecap:round;stroke-linejoin:round;stroke-miterlimit:10;" points="
				549.936,1045.463 631.971,911.098 650.101,1085.044 			"/>
			
				<polygon style="fill:none;stroke:#FFFFFF;stroke-width:2;stroke-linecap:round;stroke-linejoin:round;stroke-miterlimit:10;" points="
				739.951,1025.658 631.971,911.098 650.101,1085.044 			"/>
		</g>
		<g style="clip-path:url(#SVGID_00000035495757898861996670000003620376725651483531_);">
			
				<polygon style="fill:none;stroke:#FFFFFF;stroke-width:2;stroke-linecap:round;stroke-linejoin:round;stroke-miterlimit:10;" points="
				197.78,1157.062 162.329,1310.447 90.243,1151.106 			"/>
			
				<polygon style="fill:none;stroke:#FFFFFF;stroke-width:2;stroke-linecap:round;stroke-linejoin:round;stroke-miterlimit:10;" points="
				23.719,1235.807 162.329,1310.447 90.243,1151.106 			"/>
		</g>
		<g style="clip-path:url(#SVGID_00000035495757898861996670000003620376725651483531_);">
			
				<polygon style="fill:none;stroke:#FFFFFF;stroke-width:2;stroke-linecap:round;stroke-linejoin:round;stroke-miterlimit:10;" points="
				2.853,351.31 50.006,501.51 -92.876,400.662 			"/>
			
				<polygon style="fill:none;stroke:#FFFFFF;stroke-width:2;stroke-linecap:round;stroke-linejoin:round;stroke-miterlimit:10;" points="
				-107.312,507.391 50.006,501.51 -92.876,400.662 			"/>
		</g>
	</g>
</g>
</svg>
