<?xml version="1.0" encoding="utf-8"?>
<!-- Generator: Adobe Illustrator 27.5.0, SVG Export Plug-In . SVG Version: 6.00 Build 0)  -->
<svg version="1.1" xmlns="http://www.w3.org/2000/svg" xmlns:xlink="http://www.w3.org/1999/xlink" x="0px" y="0px"
	 viewBox="0 0 800 500" style="enable-background:new 0 0 800 500;" xml:space="preserve">
<g id="_x34_7">
	<g>
		<g>
			<defs>
				<rect id="SVGID_1_" width="800" height="500"/>
			</defs>
			<use xlink:href="#SVGID_1_"  style="overflow:visible;fill:#000422;"/>
			<clipPath id="SVGID_00000008847009905964186550000001407794431256338353_">
				<use xlink:href="#SVGID_1_"  style="overflow:visible;"/>
			</clipPath>
			<g style="clip-path:url(#SVGID_00000008847009905964186550000001407794431256338353_);">
				<g>
					<g>
						<g>
							
								<linearGradient id="SVGID_00000057833733337735353350000008352957275851261880_" gradientUnits="userSpaceOnUse" x1="-160.5503" y1="391.1371" x2="820.8561" y2="391.1371">
								<stop  offset="0" style="stop-color:#FF25B6"/>
								<stop  offset="0.013" style="stop-color:#F720C0"/>
								<stop  offset="0.0526" style="stop-color:#E112DB"/>
								<stop  offset="0.093" style="stop-color:#D208EE"/>
								<stop  offset="0.1345" style="stop-color:#C902F9"/>
								<stop  offset="0.1787" style="stop-color:#C600FD"/>
								<stop  offset="0.475" style="stop-color:#432AF3"/>
								<stop  offset="0.6457" style="stop-color:#2747ED"/>
								<stop  offset="1" style="stop-color:#000422"/>
							</linearGradient>
							<path style="fill:url(#SVGID_00000057833733337735353350000008352957275851261880_);" d="M820.217,641.878
								c-0.42,0-0.822-0.508-1.989-3.117l0.912-0.408c0.169,0.377,0.317,0.699,0.448,0.975
								c-2.768-12.31-26.227-80.865-60.433-150.818c-33.526-68.563-84.494-152.787-136.91-164.665
								c-48.587-11.016-89.708,42.055-122.246,157.71c-29.801,105.917-58.485,157.899-87.694,158.917
								c-0.287,0.01-0.575,0.015-0.862,0.015c-38.847,0.002-71.588-91.423-100.501-172.155
								c-22.453-62.696-43.662-121.915-63.384-125.015c-4.725-0.747-9.175,1.695-13.605,7.456
								c-5.822,7.571-13.585,11.925-23.074,12.94c-1.483,0.159-3.008,0.237-4.564,0.237
								c-42.838,0.006-112.622-59.017-180.192-116.162c-68.669-58.074-133.536-112.932-167.865-105.765
								c-7.946,1.658-13.804,6.517-17.908,14.854l-0.897-0.441c4.191-8.512,10.449-13.691,18.602-15.392
								c34.803-7.263,99.855,47.744,168.715,105.98c69.863,59.085,142.099,120.172,184.004,115.694
								c9.206-0.985,16.738-5.21,22.387-12.556c4.609-5.992,9.508-8.629,14.554-7.835c20.309,3.192,40.635,59.948,64.17,125.666
								c28.8,80.417,61.419,171.493,99.554,171.493c0.278,0,0.554-0.005,0.833-0.015c28.718-1.001,57.1-52.744,86.767-158.189
								c31.1-110.54,70.228-164.236,116.315-159.582c53.598,5.407,106.188,89.239,140.868,158.614
								c37.95,75.918,64.091,153.236,64.628,160.574c0.016,0.206,0.062,0.835-0.452,0.964
								C820.334,641.868,820.275,641.878,820.217,641.878z"/>
						</g>
					</g>
					<g>
						<g>
							
								<linearGradient id="SVGID_00000007388782165003861430000002227610721532099218_" gradientUnits="userSpaceOnUse" x1="-167.4175" y1="385.0255" x2="834.0232" y2="385.0255">
								<stop  offset="0" style="stop-color:#FF25B6"/>
								<stop  offset="0.013" style="stop-color:#F720C0"/>
								<stop  offset="0.0526" style="stop-color:#E112DB"/>
								<stop  offset="0.093" style="stop-color:#D208EE"/>
								<stop  offset="0.1345" style="stop-color:#C902F9"/>
								<stop  offset="0.1787" style="stop-color:#C600FD"/>
								<stop  offset="0.475" style="stop-color:#432AF3"/>
								<stop  offset="0.6457" style="stop-color:#2747ED"/>
								<stop  offset="1" style="stop-color:#000422"/>
							</linearGradient>
							<path style="fill:url(#SVGID_00000007388782165003861430000002227610721532099218_);" d="M833.39,640.394
								c-0.418,0-0.834-0.514-2.053-3.101l0.904-0.426c0.181,0.384,0.34,0.712,0.48,0.99
								c-3.027-12.322-28.141-81.111-64.148-151.084c-35.307-68.61-88.622-152.777-142.115-164.122
								c-48.711-10.33-89.053,41.549-119.864,154.211c-28.255,103.311-56.226,154.221-85.511,155.642
								c-0.413,0.019-0.831,0.029-1.242,0.03c-39.495,0.008-74.212-91.166-104.885-171.705
								c-23.807-62.51-46.293-121.553-66.378-124.585c-4.731-0.714-9.133,1.635-13.467,7.179
								c-5.628,7.201-13.17,11.356-22.417,12.352c-1.497,0.161-3.037,0.24-4.612,0.24c-43.293,0.003-115.309-59.773-185.037-117.649
								c-70.889-58.839-137.845-114.415-172.313-107.061c-7.695,1.642-13.339,6.305-17.253,14.254l-0.897-0.441
								c4.002-8.128,10.039-13.104,17.942-14.791c34.946-7.448,102.08,48.271,173.16,107.269
								c72.104,59.848,146.669,121.721,188.903,117.184c8.967-0.966,16.28-4.994,21.735-11.974
								c4.513-5.772,9.357-8.311,14.404-7.552c20.663,3.118,42.212,59.701,67.164,125.218
								c30.871,81.061,65.861,172.949,105.144,171.031c13.544-0.657,27.146-12.709,40.426-35.823
								c14.689-25.563,29.55-65.629,44.169-119.083c29.452-107.689,67.736-160.175,113.908-156.008
								c54.574,4.936,109.522,88.75,146.008,158.191c39.245,74.695,67.858,153.608,68.468,160.636c0.018,0.2,0.07,0.811-0.437,0.948
								C833.512,640.384,833.451,640.394,833.39,640.394z"/>
						</g>
					</g>
					<g>
						<g>
							
								<linearGradient id="SVGID_00000032635975619272714600000007274996506740190892_" gradientUnits="userSpaceOnUse" x1="-174.5562" y1="379.0271" x2="847.3342" y2="379.0271">
								<stop  offset="0" style="stop-color:#FF25B6"/>
								<stop  offset="0.013" style="stop-color:#F720C0"/>
								<stop  offset="0.0526" style="stop-color:#E112DB"/>
								<stop  offset="0.093" style="stop-color:#D208EE"/>
								<stop  offset="0.1345" style="stop-color:#C902F9"/>
								<stop  offset="0.1787" style="stop-color:#C600FD"/>
								<stop  offset="0.475" style="stop-color:#432AF3"/>
								<stop  offset="0.6457" style="stop-color:#2747ED"/>
								<stop  offset="1" style="stop-color:#000422"/>
							</linearGradient>
							<path style="fill:url(#SVGID_00000032635975619272714600000007274996506740190892_);" d="M846.706,639.131
								c-0.416,0-0.847-0.52-2.117-3.087l0.896-0.443c0.193,0.391,0.363,0.724,0.512,1.006
								c-3.293-12.343-30.108-81.405-67.969-151.447c-37.134-68.696-92.852-152.847-147.418-163.617
								c-48.809-9.63-88.31,41.101-117.416,150.793c-26.732,100.74-53.984,150.599-83.313,152.426
								c-0.548,0.033-1.102,0.051-1.648,0.051c-40.144,0.011-76.868-90.95-109.327-171.331
								c-25.18-62.355-48.963-121.252-69.412-124.217c-4.727-0.685-9.083,1.574-13.321,6.905
								c-5.442,6.846-12.767,10.811-21.773,11.784c-1.506,0.163-3.057,0.243-4.645,0.243
								c-43.737,0.003-118.035-60.558-189.973-119.192c-73.156-59.627-142.259-115.948-176.829-108.407
								c-7.447,1.624-12.881,6.097-16.612,13.674l-0.897-0.441c3.821-7.76,9.64-12.54,17.296-14.21
								c35.049-7.643,104.326,48.825,177.673,108.608c74.39,60.634,151.311,123.312,193.878,118.731
								c8.73-0.943,15.829-4.783,21.098-11.413c4.418-5.556,9.213-7.999,14.248-7.271c21.017,3.047,43.807,59.483,70.196,124.832
								c32.774,81.161,69.938,173.144,109.986,170.656c13.574-0.846,27.03-12.771,39.995-35.445
								c14.322-25.047,28.592-64.155,42.413-116.238c27.83-104.879,65.319-156.188,111.456-152.509
								c55.545,4.433,112.9,88.263,151.235,157.807c41.331,74.979,71.703,153.823,72.402,160.787
								c0.019,0.196,0.08,0.791-0.421,0.935C846.834,639.118,846.771,639.131,846.706,639.131z"/>
						</g>
					</g>
					<g>
						<g>
							
								<linearGradient id="SVGID_00000132787194125569723090000013915560101679239809_" gradientUnits="userSpaceOnUse" x1="-181.9565" y1="373.1497" x2="860.7896" y2="373.1497">
								<stop  offset="0" style="stop-color:#FF25B6"/>
								<stop  offset="0.013" style="stop-color:#F720C0"/>
								<stop  offset="0.0526" style="stop-color:#E112DB"/>
								<stop  offset="0.093" style="stop-color:#D208EE"/>
								<stop  offset="0.1345" style="stop-color:#C902F9"/>
								<stop  offset="0.1787" style="stop-color:#C600FD"/>
								<stop  offset="0.475" style="stop-color:#432AF3"/>
								<stop  offset="0.6457" style="stop-color:#2747ED"/>
								<stop  offset="1" style="stop-color:#000422"/>
							</linearGradient>
							<path style="fill:url(#SVGID_00000132787194125569723090000013915560101679239809_);" d="M860.17,638.098
								c-0.414,0-0.859-0.525-2.182-3.072l0.887-0.461c0.206,0.396,0.385,0.73,0.541,1.015
								c-3.575-12.392-32.146-81.771-71.902-151.916c-39.011-68.831-97.191-153.008-152.823-163.146
								c-48.792-8.896-87.453,40.715-114.88,147.449c-25.237,98.206-51.767,147.032-81.107,149.268
								c-0.692,0.053-1.39,0.079-2.081,0.079c-40.798,0.007-79.566-90.779-113.841-171.036
								c-26.574-62.225-51.674-120.997-72.484-123.894c-4.715-0.656-9.026,1.515-13.17,6.637
								c-6.417,7.936-15.176,11.469-25.789,11.47c-44.187,0.007-120.615-61.207-195.007-120.785
								c-75.465-60.438-146.753-117.516-181.407-109.808c-7.2,1.603-12.428,5.892-15.983,13.111l-0.897-0.441
								c3.646-7.405,9.252-11.997,16.663-13.646c35.132-7.818,106.591,49.412,182.249,110.003
								c91.878,73.583,186.887,149.671,219.394,109.467c4.323-5.343,9.062-7.698,14.086-6.998
								c21.37,2.974,45.419,59.286,73.266,124.491c34.724,81.308,74.087,173.452,114.926,170.353
								c13.589-1.035,26.892-12.838,39.539-35.081c13.953-24.539,27.639-62.705,40.676-113.437
								c26.236-102.101,62.867-152.257,108.963-149.077c108.308,7.48,231.53,305.865,232.972,318.502
								c0.059,0.511-0.078,0.821-0.406,0.921C860.302,638.084,860.236,638.098,860.17,638.098z"/>
						</g>
					</g>
					<g>
						<g>
							
								<linearGradient id="SVGID_00000131338236228262451720000014320424230927138719_" gradientUnits="userSpaceOnUse" x1="-189.6362" y1="367.3823" x2="874.3996" y2="367.3823">
								<stop  offset="0" style="stop-color:#FF25B6"/>
								<stop  offset="0.013" style="stop-color:#F720C0"/>
								<stop  offset="0.0526" style="stop-color:#E112DB"/>
								<stop  offset="0.093" style="stop-color:#D208EE"/>
								<stop  offset="0.1345" style="stop-color:#C902F9"/>
								<stop  offset="0.1787" style="stop-color:#C600FD"/>
								<stop  offset="0.475" style="stop-color:#432AF3"/>
								<stop  offset="0.6457" style="stop-color:#2747ED"/>
								<stop  offset="1" style="stop-color:#000422"/>
							</linearGradient>
							<path style="fill:url(#SVGID_00000131338236228262451720000014320424230927138719_);" d="M873.785,637.29
								c-0.413,0-0.873-0.529-2.248-3.059l0.879-0.478c0.217,0.4,0.406,0.739,0.571,1.025
								c-3.863-12.446-34.239-82.182-75.947-152.486c-40.938-69.005-101.637-153.251-158.321-162.723
								c-48.74-8.137-86.508,40.366-112.28,144.178c-23.766,95.716-49.569,143.529-78.886,146.175
								c-0.845,0.076-1.695,0.114-2.539,0.114c-41.455,0.008-82.295-90.644-118.417-170.813
								c-27.99-62.12-54.427-120.795-75.597-123.624c-4.713-0.626-8.964,1.458-13.015,6.375
								c-6.222,7.559-14.768,10.934-25.171,10.935c-44.613,0.003-123.434-62.06-200.14-122.455
								C-65.146,149.182-138.65,91.31-173.374,99.188c-6.857,1.556-12.027,5.783-15.365,12.562l-0.897-0.441
								c3.478-7.063,8.875-11.469,16.042-13.095c35.189-7.983,108.876,50.032,186.888,111.455
								c94.215,74.181,191.637,150.883,223.92,111.671c4.23-5.136,8.912-7.4,13.919-6.732
								c21.721,2.902,47.049,59.115,76.376,124.204c36.721,81.498,78.356,173.859,119.954,170.114
								c13.588-1.226,26.727-12.911,39.052-34.73c13.58-24.042,26.687-61.283,38.953-110.689
								c24.668-99.361,60.474-148.401,106.421-145.716c57.445,3.339,119.77,87.319,161.937,157.182
								c45.684,75.686,79.683,154.522,80.559,161.372c0.064,0.498-0.068,0.804-0.392,0.908
								C873.922,637.275,873.853,637.29,873.785,637.29z"/>
						</g>
					</g>
					<g>
						<g>
							
								<linearGradient id="SVGID_00000128447462188594306080000009852767176248363441_" gradientUnits="userSpaceOnUse" x1="-197.5835" y1="361.7295" x2="888.1722" y2="361.7295">
								<stop  offset="0" style="stop-color:#FF25B6"/>
								<stop  offset="0.013" style="stop-color:#F720C0"/>
								<stop  offset="0.0526" style="stop-color:#E112DB"/>
								<stop  offset="0.093" style="stop-color:#D208EE"/>
								<stop  offset="0.1345" style="stop-color:#C902F9"/>
								<stop  offset="0.1787" style="stop-color:#C600FD"/>
								<stop  offset="0.475" style="stop-color:#432AF3"/>
								<stop  offset="0.6457" style="stop-color:#2747ED"/>
								<stop  offset="1" style="stop-color:#000422"/>
							</linearGradient>
							<path style="fill:url(#SVGID_00000128447462188594306080000009852767176248363441_);" d="M887.552,636.712
								c-0.375,0-0.841-0.479-2.303-3.053l0.869-0.494c0.229,0.403,0.428,0.743,0.601,1.031
								c-4.164-12.516-36.402-82.65-80.117-153.157c-42.92-69.223-106.198-153.577-163.92-162.328
								c-48.578-7.366-85.447,40.067-109.592,140.978c-22.32,93.259-47.395,140.077-76.653,143.13
								c-1.005,0.105-2.017,0.157-3.021,0.157c-42.116,0.01-85.063-90.548-123.065-170.665
								c-29.427-62.041-57.223-120.642-78.75-123.402c-4.695-0.605-8.896,1.4-12.855,6.12c-6.029,7.189-14.361,10.409-24.543,10.41
								c-45.021,0.004-126.286-62.938-205.36-124.18c-80.223-62.131-156-120.818-190.764-112.78
								c-6.619,1.53-11.586,5.578-14.763,12.031l-0.897-0.441c3.316-6.736,8.51-10.963,15.435-12.564
								c35.239-8.139,111.187,50.683,191.602,112.964c96.584,74.803,196.458,152.153,228.525,113.918
								c4.138-4.932,8.758-7.105,13.748-6.47c22.07,2.831,48.696,58.966,79.527,123.966
								c37.87,79.839,80.683,170.095,122.143,170.095c0.981,0,1.955-0.05,2.936-0.152c13.571-1.416,26.537-12.986,38.536-34.39
								c13.205-23.552,25.737-59.882,37.249-107.978c23.127-96.656,58.028-144.56,103.83-142.422
								c58.37,2.746,123.258,86.856,167.413,156.933c50.049,79.43,84.041,156.493,84.794,161.804
								c0.068,0.485-0.059,0.786-0.378,0.896C887.7,636.692,887.628,636.712,887.552,636.712z"/>
						</g>
					</g>
					<g>
						<g>
							
								<linearGradient id="SVGID_00000001653582248720312140000004079728374638668949_" gradientUnits="userSpaceOnUse" x1="-205.814" y1="356.1833" x2="902.1041" y2="356.1833">
								<stop  offset="0" style="stop-color:#FF25B6"/>
								<stop  offset="0.013" style="stop-color:#F720C0"/>
								<stop  offset="0.0526" style="stop-color:#E112DB"/>
								<stop  offset="0.093" style="stop-color:#D208EE"/>
								<stop  offset="0.1345" style="stop-color:#C902F9"/>
								<stop  offset="0.1787" style="stop-color:#C600FD"/>
								<stop  offset="0.475" style="stop-color:#432AF3"/>
								<stop  offset="0.6457" style="stop-color:#2747ED"/>
								<stop  offset="1" style="stop-color:#000422"/>
							</linearGradient>
							<path style="fill:url(#SVGID_00000001653582248720312140000004079728374638668949_);" d="M901.49,636.354
								c-0.374,0-0.854-0.484-2.372-3.043l0.86-0.51c0.241,0.405,0.449,0.748,0.63,1.036c-4.476-12.598-38.629-83.17-84.404-153.922
								c-44.952-69.482-110.867-153.984-169.606-161.975c-48.357-6.574-84.296,39.802-106.849,137.843
								c-20.901,90.842-45.24,136.684-74.406,140.143c-1.171,0.139-2.352,0.208-3.526,0.208
								c-42.777,0.01-87.868-90.494-127.781-170.597c-30.888-61.989-60.064-120.541-81.947-123.237
								c-4.669-0.568-8.82,1.346-12.689,5.87c-32.477,37.992-135.222-40.32-234.583-116.056
								C-77.857,129.099-155.947,69.583-190.739,77.761c-6.384,1.502-11.154,5.377-14.177,11.519l-0.897-0.441
								c3.162-6.423,8.157-10.477,14.846-12.05c35.254-8.3,113.525,51.369,196.391,114.532
								c98.992,75.456,201.352,153.478,233.217,116.201c4.047-4.732,8.614-6.824,13.571-6.212
								c22.417,2.762,50.362,58.845,82.72,123.783c40.862,82.007,87.196,174.973,130.294,169.842
								c13.537-1.605,26.319-13.065,37.989-34.059c12.825-23.07,24.79-58.504,35.561-105.315
								c21.623-93.994,55.66-140.801,101.21-139.193c59.274,2.124,126.777,86.402,172.968,156.728
								c52.486,79.913,88.311,157.054,89.132,162.327c0.092,0.589-0.148,0.806-0.364,0.883
								C901.643,636.333,901.568,636.354,901.49,636.354z"/>
						</g>
					</g>
					<g>
						<g>
							
								<linearGradient id="SVGID_00000110445946105860309290000009108163832895884194_" gradientUnits="userSpaceOnUse" x1="-214.3218" y1="350.7384" x2="916.2089" y2="350.7384">
								<stop  offset="0" style="stop-color:#FF25B6"/>
								<stop  offset="0.013" style="stop-color:#F720C0"/>
								<stop  offset="0.0526" style="stop-color:#E112DB"/>
								<stop  offset="0.093" style="stop-color:#D208EE"/>
								<stop  offset="0.1345" style="stop-color:#C902F9"/>
								<stop  offset="0.1787" style="stop-color:#C600FD"/>
								<stop  offset="0.475" style="stop-color:#432AF3"/>
								<stop  offset="0.6457" style="stop-color:#2747ED"/>
								<stop  offset="1" style="stop-color:#000422"/>
							</linearGradient>
							<path style="fill:url(#SVGID_00000110445946105860309290000009108163832895884194_);" d="M915.602,636.217
								c-0.374,0-0.869-0.488-2.441-3.034l0.852-0.525c0.249,0.404,0.466,0.746,0.653,1.034
								c-4.812-12.711-40.944-83.762-88.831-154.794c-47.048-69.788-115.669-154.482-175.398-161.646
								c-48.038-5.751-83.013,39.585-104.002,134.771c-19.511,88.469-43.11,133.351-72.147,137.212
								c-1.346,0.179-2.7,0.267-4.054,0.268c-43.439,0.006-90.707-90.478-132.564-170.595
								c-32.374-61.965-62.951-120.493-85.19-123.126c-4.647-0.544-8.741,1.291-12.522,5.626c-5.658,6.49-13.562,9.416-23.291,9.417
								C170.874,310.826,84.551,246.03,0.582,183.004C-84.583,119.08-165.029,58.7-199.82,67.021
								c-6.151,1.471-10.728,5.179-13.604,11.02l-0.897-0.441c3.014-6.122,7.814-10.008,14.269-11.551
								c35.259-8.427,115.877,52.087,201.235,116.156c101.444,76.144,206.344,154.875,238.021,118.546
								c3.959-4.541,8.466-6.545,13.394-5.963c22.763,2.695,52.049,58.75,85.959,123.656
								c43.009,82.322,91.74,175.616,135.599,169.799c13.486-1.793,26.073-13.144,37.411-33.735
								c12.444-22.599,23.847-57.152,33.892-102.7c19.908-90.287,52.52-136.045,96.94-136.045c0.532,0,1.064,0.006,1.6,0.02
								c60.154,1.474,130.329,85.961,178.606,156.577c52.469,76.748,92.571,156.973,93.583,162.935
								c0.097,0.574-0.138,0.79-0.351,0.871C915.757,636.194,915.682,636.217,915.602,636.217z"/>
						</g>
					</g>
					<g>
						<g>
							
								<linearGradient id="SVGID_00000016766732367802230940000014302068571686295977_" gradientUnits="userSpaceOnUse" x1="-223.1245" y1="345.4018" x2="930.4904" y2="345.4018">
								<stop  offset="0" style="stop-color:#FF25B6"/>
								<stop  offset="0.013" style="stop-color:#F720C0"/>
								<stop  offset="0.0526" style="stop-color:#E112DB"/>
								<stop  offset="0.093" style="stop-color:#D208EE"/>
								<stop  offset="0.1345" style="stop-color:#C902F9"/>
								<stop  offset="0.1787" style="stop-color:#C600FD"/>
								<stop  offset="0.475" style="stop-color:#432AF3"/>
								<stop  offset="0.6457" style="stop-color:#2747ED"/>
								<stop  offset="1" style="stop-color:#000422"/>
							</linearGradient>
							<path style="fill:url(#SVGID_00000016766732367802230940000014302068571686295977_);" d="M929.89,636.31
								c-0.374,0-0.884-0.494-2.512-3.027l0.842-0.541c0.259,0.403,0.483,0.745,0.679,1.033
								c-5.157-12.83-43.327-84.397-93.39-155.761c-49.198-70.132-120.584-155.055-181.273-161.354
								c-47.613-4.946-81.633,39.387-101.091,131.765C535,534.557,512.144,578.496,483.27,582.753
								c-1.524,0.226-3.062,0.336-4.601,0.336c-44.104,0.01-93.589-90.501-137.43-170.675
								c-33.884-61.966-65.889-120.494-88.48-123.068c-4.616-0.527-8.655,1.235-12.349,5.385
								c-5.478,6.156-13.169,8.941-22.662,8.943c-46.152,0.009-135.094-65.767-221.602-129.736
								c-87.709-64.857-170.554-126.112-205.33-117.67c-5.922,1.438-10.311,4.984-13.044,10.538l-0.897-0.441
								c2.871-5.832,7.482-9.556,13.706-11.068c35.23-8.56,118.258,52.837,206.16,117.838
								c103.941,76.86,211.421,156.332,242.922,120.933c3.871-4.35,8.314-6.271,13.209-5.715
								c23.106,2.633,53.755,58.683,89.244,123.582c45.212,82.682,96.439,176.42,141.007,169.83
								c13.419-1.978,25.802-13.222,36.804-33.418c12.059-22.134,22.905-55.821,32.239-100.129
								c18.58-88.211,50.53-132.933,94.961-132.933c0.289,0,0.573,0.002,0.863,0.006c61.004,0.791,133.906,85.522,184.321,156.463
								c54.935,77.302,97.065,157.716,98.152,163.642c0.104,0.56-0.127,0.776-0.337,0.859
								C930.048,636.285,929.972,636.31,929.89,636.31z"/>
						</g>
					</g>
					<g>
						<g>
							
								<linearGradient id="SVGID_00000129905354755343425020000016044509796503272588_" gradientUnits="userSpaceOnUse" x1="-232.2085" y1="340.1748" x2="944.9558" y2="340.1748">
								<stop  offset="0" style="stop-color:#FF25B6"/>
								<stop  offset="0.013" style="stop-color:#F720C0"/>
								<stop  offset="0.0526" style="stop-color:#E112DB"/>
								<stop  offset="0.093" style="stop-color:#D208EE"/>
								<stop  offset="0.1345" style="stop-color:#C902F9"/>
								<stop  offset="0.1787" style="stop-color:#C600FD"/>
								<stop  offset="0.475" style="stop-color:#432AF3"/>
								<stop  offset="0.6457" style="stop-color:#2747ED"/>
								<stop  offset="1" style="stop-color:#000422"/>
							</linearGradient>
							<path style="fill:url(#SVGID_00000129905354755343425020000016044509796503272588_);" d="M944.36,636.638
								c-0.374,0-0.899-0.498-2.583-3.021l0.832-0.555c0.204,0.307,0.389,0.577,0.554,0.815
								c-5.908-13.147-44.228-82.946-97.921-156.603c-51.403-70.515-125.611-155.707-187.223-161.119
								c-47.15-4.144-80.172,39.194-98.137,128.804c-16.812,83.846-38.924,126.863-67.6,131.509
								c-1.71,0.276-3.435,0.412-5.166,0.413c-44.769,0.005-96.516-90.57-142.376-170.835
								c-35.417-61.988-68.871-120.539-91.81-123.057c-4.579-0.502-8.564,1.182-12.172,5.15c-5.303,5.835-12.773,8.482-22.028,8.483
								c-46.492,0.004-138.107-66.773-227.196-131.707C-98.771,99.098-184.072,36.929-218.807,45.495
								c-5.698,1.405-9.905,4.794-12.504,10.072l-0.897-0.441c2.736-5.556,7.164-9.123,13.162-10.601
								c35.199-8.679,120.672,53.625,211.169,119.585c106.468,77.6,216.562,157.842,247.896,123.36
								c3.786-4.164,8.169-6.009,13.021-5.473c23.445,2.573,55.479,58.638,92.57,123.555
								c47.473,83.087,101.279,177.277,146.513,169.931c13.336-2.16,25.505-13.3,36.169-33.107
								c11.672-21.678,21.971-54.52,30.61-97.611c17.277-86.179,48.563-129.88,92.982-129.88c0.029,0,0.055,0,0.084,0.001
								c61.821,0.077,137.507,85.089,190.112,156.391c57.474,77.898,101.681,158.561,102.847,164.454
								c0.108,0.547-0.117,0.764-0.325,0.85C944.521,636.612,944.445,636.638,944.36,636.638z"/>
						</g>
					</g>
					<g>
						<g>
							
								<linearGradient id="SVGID_00000154413617708640421210000014524196135508286346_" gradientUnits="userSpaceOnUse" x1="-241.5894" y1="335.0378" x2="959.6071" y2="335.0378">
								<stop  offset="0" style="stop-color:#FF25B6"/>
								<stop  offset="0.013" style="stop-color:#F720C0"/>
								<stop  offset="0.0526" style="stop-color:#E112DB"/>
								<stop  offset="0.093" style="stop-color:#D208EE"/>
								<stop  offset="0.1345" style="stop-color:#C902F9"/>
								<stop  offset="0.1787" style="stop-color:#C600FD"/>
								<stop  offset="0.475" style="stop-color:#432AF3"/>
								<stop  offset="0.6457" style="stop-color:#2747ED"/>
								<stop  offset="1" style="stop-color:#000422"/>
							</linearGradient>
							<path style="fill:url(#SVGID_00000154413617708640421210000014524196135508286346_);" d="M959.019,637.177
								c-0.374,0-0.915-0.503-2.655-3.016l0.822-0.568c0.208,0.3,0.395,0.564,0.564,0.8
								c-6.304-13.306-46.709-83.682-102.752-157.753c-53.677-70.943-130.778-156.444-193.268-160.892
								c-46.604-3.313-78.575,39.046-95.078,125.906c-15.504,81.596-36.867,123.704-65.309,128.729
								c-46.572,8.241-103.187-86.758-153.141-170.564c-36.979-62.039-71.907-120.638-95.193-123.104
								c-4.544-0.481-8.47,1.128-11.995,4.922c-5.131,5.525-12.385,8.04-21.398,8.04C172.799,289.68,78.445,221.86-13.293,155.922
								C-106.238,89.116-194.025,26.018-228.715,34.688c-5.478,1.37-9.507,4.607-11.977,9.622l-0.898-0.441
								c2.605-5.291,6.855-8.706,12.631-10.151c35.134-8.783,123.109,54.446,216.249,121.392
								c109.046,78.378,221.805,159.426,252.991,125.847c3.701-3.985,8.017-5.743,12.833-5.237
								c23.783,2.52,57.225,58.624,95.946,123.587c49.788,83.528,106.246,178.187,152.107,170.092
								c13.235-2.338,25.18-13.373,35.502-32.797c11.281-21.23,21.038-53.237,28.999-95.135
								c15.909-83.736,46.28-126.431,90.271-126.897c0.241-0.002,0.485-0.004,0.727-0.004c62.48,0,140.61,84.949,195.252,156.375
								c60.087,78.543,106.417,159.476,107.659,165.335c0.119,0.562-0.145,0.767-0.313,0.839
								C959.184,637.149,959.105,637.177,959.019,637.177z"/>
						</g>
					</g>
					<g>
						<g>
							
								<linearGradient id="SVGID_00000123430655232477681490000017534784829509074096_" gradientUnits="userSpaceOnUse" x1="-251.2651" y1="330.0067" x2="974.447" y2="330.0067">
								<stop  offset="0" style="stop-color:#FF25B6"/>
								<stop  offset="0.013" style="stop-color:#F720C0"/>
								<stop  offset="0.0526" style="stop-color:#E112DB"/>
								<stop  offset="0.093" style="stop-color:#D208EE"/>
								<stop  offset="0.1345" style="stop-color:#C902F9"/>
								<stop  offset="0.1787" style="stop-color:#C600FD"/>
								<stop  offset="0.475" style="stop-color:#432AF3"/>
								<stop  offset="0.6457" style="stop-color:#2747ED"/>
								<stop  offset="1" style="stop-color:#000422"/>
							</linearGradient>
							<path style="fill:url(#SVGID_00000123430655232477681490000017534784829509074096_);" d="M973.858,637.951
								c-0.377,0-0.926-0.511-2.722-3.014l0.813-0.583c0.213,0.297,0.404,0.56,0.578,0.793c-6.698-13.453-49.24-84.44-107.71-158.99
								c-56.002-71.404-136.051-157.249-199.373-160.72c-45.985-2.52-76.915,38.883-91.997,123.057
								c-14.227,79.393-34.839,120.608-63.013,126.001c-2.089,0.4-4.206,0.595-6.341,0.596
								c-46.094,0.007-102.48-90.82-152.495-171.376c-38.564-62.112-74.989-120.78-98.615-123.198
								c-4.506-0.465-8.371,1.075-11.812,4.699c-4.964,5.226-12.002,7.611-20.769,7.611
								c-47.124,0.004-144.279-68.893-238.727-135.867C-113.96,79.143-204.29,15.091-238.903,23.859
								c-5.262,1.334-9.12,4.425-11.464,9.188l-0.897-0.441c2.48-5.038,6.557-8.307,12.116-9.716
								c35.063-8.89,125.573,55.3,221.402,123.254C93.925,225.332,209.396,307.22,240.446,274.526
								c3.618-3.809,7.875-5.489,12.639-5.005c24.114,2.469,58.985,58.633,99.362,123.666
								c52.162,84.012,111.3,179.229,157.798,170.326c13.118-2.512,24.829-13.442,34.807-32.489
								c10.89-20.788,20.112-51.979,27.41-92.706c14.563-81.277,43.981-122.987,87.438-123.973c0.523-0.012,1.053-0.018,1.576-0.018
								c63.108,0,143.654,84.862,200.336,156.401c62.773,79.229,111.282,160.491,112.602,166.324c0.125,0.549-0.135,0.756-0.3,0.83
								C974.029,637.922,973.948,637.951,973.858,637.951z"/>
						</g>
					</g>
					<g>
						<g>
							
								<linearGradient id="SVGID_00000093150954649903358840000006695582346321297817_" gradientUnits="userSpaceOnUse" x1="-261.2437" y1="325.0622" x2="989.4883" y2="325.0622">
								<stop  offset="0" style="stop-color:#FF25B6"/>
								<stop  offset="0.013" style="stop-color:#F720C0"/>
								<stop  offset="0.0526" style="stop-color:#E112DB"/>
								<stop  offset="0.093" style="stop-color:#D208EE"/>
								<stop  offset="0.1345" style="stop-color:#C902F9"/>
								<stop  offset="0.1787" style="stop-color:#C600FD"/>
								<stop  offset="0.475" style="stop-color:#432AF3"/>
								<stop  offset="0.6457" style="stop-color:#2747ED"/>
								<stop  offset="1" style="stop-color:#000422"/>
							</linearGradient>
							<path style="fill:url(#SVGID_00000093150954649903358840000006695582346321297817_);" d="M988.906,638.941
								c-0.377,0-0.941-0.515-2.796-3.011l0.803-0.596c0.215,0.289,0.408,0.546,0.584,0.774
								c-7.127-13.637-51.872-85.265-112.82-160.317c-58.395-71.908-141.457-158.136-205.557-160.57
								c-0.919-0.035-1.839-0.053-2.746-0.053c-43.717,0-72.668,40.45-86.088,120.305c-12.979,77.234-32.84,117.575-60.715,123.326
								c-2.281,0.471-4.602,0.7-6.945,0.7c-46.758,0.01-105.533-91.011-157.689-171.771
								c-40.177-62.21-78.125-120.971-102.089-123.35c-4.465-0.446-8.268,1.021-11.628,4.478c-4.799,4.938-11.626,7.199-20.142,7.2
								c-47.408,0.009-147.429-70.002-244.652-138.048C-121.95,69.157-214.873,4.121-249.381,12.982
								c-5.05,1.296-8.74,4.246-10.965,8.766l-0.898-0.441c2.361-4.794,6.268-7.92,11.614-9.293
								c34.946-8.972,128.058,56.188,226.628,125.177c114.346,80.031,232.585,162.79,263.504,130.97
								c3.537-3.638,7.727-5.241,12.444-4.776c24.444,2.427,60.769,58.674,102.83,123.803
								c54.595,84.537,116.469,180.337,163.592,170.634c12.985-2.68,24.454-13.508,34.086-32.184
								c10.497-20.353,19.192-50.745,25.845-90.33c13.252-78.858,41.705-119.602,84.569-121.096
								c0.813-0.028,1.637-0.043,2.456-0.043c63.717,0,146.703,84.811,205.457,156.493
								c64.185,78.31,116.321,161.782,117.671,167.389c0.129,0.536-0.125,0.744-0.288,0.82
								C989.079,638.911,988.998,638.941,988.906,638.941z"/>
						</g>
					</g>
					<g>
						<g>
							
								<linearGradient id="SVGID_00000120523415291049238580000016415858677571523254_" gradientUnits="userSpaceOnUse" x1="-271.5229" y1="320.2206" x2="1004.7395" y2="320.2206">
								<stop  offset="0" style="stop-color:#FF25B6"/>
								<stop  offset="0.013" style="stop-color:#F720C0"/>
								<stop  offset="0.0526" style="stop-color:#E112DB"/>
								<stop  offset="0.093" style="stop-color:#D208EE"/>
								<stop  offset="0.1345" style="stop-color:#C902F9"/>
								<stop  offset="0.1787" style="stop-color:#C600FD"/>
								<stop  offset="0.475" style="stop-color:#432AF3"/>
								<stop  offset="0.6457" style="stop-color:#2747ED"/>
								<stop  offset="1" style="stop-color:#000422"/>
							</linearGradient>
							<path style="fill:url(#SVGID_00000120523415291049238580000016415858677571523254_);" d="M1004.165,640.169
								c-0.378,0-0.959-0.518-2.872-3.009l0.793-0.609c0.19,0.246,0.362,0.47,0.522,0.672
								c-7.892-14.181-56.039-87.864-118.008-161.65c-60.848-72.45-146.985-159.102-211.805-160.472
								c-0.516-0.012-1.032-0.017-1.544-0.017c-43.596,0-71.883,39.52-84.095,117.507c-11.763,75.126-30.869,114.608-58.412,120.704
								c-2.475,0.548-4.998,0.813-7.557,0.814c-47.414,0.004-108.62-91.238-162.951-172.228
								c-41.816-62.333-81.313-121.21-105.614-123.555c-4.42-0.427-8.164,0.971-11.446,4.267c-4.64,4.661-11.249,6.801-19.515,6.802
								c-47.675,0.005-150.625-71.149-250.677-140.297C-130.184,59.176-225.745-6.864-260.142,2.074
								c-4.845,1.259-8.372,4.072-10.484,8.361l-0.897-0.441c2.246-4.562,5.991-7.552,11.13-8.888
								c34.852-9.058,130.584,57.114,231.946,127.168c117.063,80.904,238.111,164.563,268.915,133.613
								c3.459-3.474,7.581-5.003,12.251-4.557c24.771,2.39,62.575,58.742,106.348,123.993
								c57.086,85.095,121.785,181.564,169.461,170.994c12.839-2.841,24.055-13.566,33.339-31.877
								c10.103-19.928,18.279-49.537,24.302-88.005c11.976-76.484,39.455-116.277,81.671-118.273
								c64.723-3.057,152.06,83.453,213.983,156.565c66.972,79.072,121.455,162.971,122.88,168.555
								c0.14,0.544-0.147,0.749-0.276,0.813C1004.34,640.138,1004.259,640.169,1004.165,640.169z"/>
						</g>
					</g>
					<g>
						<g>
							
								<linearGradient id="SVGID_00000052083051975668305440000012061331206007752580_" gradientUnits="userSpaceOnUse" x1="-282.1108" y1="315.4669" x2="1020.2068" y2="315.4669">
								<stop  offset="0" style="stop-color:#FF25B6"/>
								<stop  offset="0.013" style="stop-color:#F720C0"/>
								<stop  offset="0.0526" style="stop-color:#E112DB"/>
								<stop  offset="0.093" style="stop-color:#D208EE"/>
								<stop  offset="0.1345" style="stop-color:#C902F9"/>
								<stop  offset="0.1787" style="stop-color:#C600FD"/>
								<stop  offset="0.475" style="stop-color:#432AF3"/>
								<stop  offset="0.6457" style="stop-color:#2747ED"/>
								<stop  offset="1" style="stop-color:#000422"/>
							</linearGradient>
							<path style="fill:url(#SVGID_00000052083051975668305440000012061331206007752580_);" d="M1019.639,641.616
								c-0.379,0-0.977-0.522-2.948-3.009l0.783-0.621c0.187,0.234,0.358,0.448,0.516,0.644
								c-8.375-14.396-58.898-88.79-123.415-163.147c-63.366-73.03-152.644-160.141-218.115-160.401
								c-0.096,0-0.196-0.001-0.292-0.001c-43.453,0-71.069,38.612-82.094,114.778c-10.575,73.06-28.93,111.697-56.111,118.123
								c-2.669,0.631-5.397,0.937-8.175,0.938c-48.07,0.003-111.759-91.508-168.316-172.768
								c-43.484-62.478-84.558-121.491-109.19-123.809c-4.37-0.416-8.055,0.917-11.261,4.059
								c-4.482,4.393-10.876,6.416-18.888,6.417c-47.915,0.005-153.853-72.329-256.793-142.612
								C-138.677,49.187-236.931-17.894-271.195-8.881c-4.645,1.221-8.016,3.904-10.019,7.973l-0.897-0.441
								c2.137-4.341,5.724-7.2,10.662-8.499c34.71-9.125,133.143,58.077,237.352,129.228
								C85.721,201.187,209.622,285.783,240.32,255.686c3.382-3.313,7.44-4.77,12.055-4.339
								c25.094,2.36,64.402,58.837,109.917,124.232c59.643,85.695,127.246,182.81,175.44,171.43
								c12.676-2.997,23.633-13.618,32.566-31.568c9.709-19.509,17.375-48.351,22.784-85.725
								c10.734-74.158,37.227-113.02,78.741-115.507c65.247-3.905,155.719,83.071,220.116,156.726
								c69.838,79.878,126.727,164.238,128.227,169.801c0.143,0.532-0.138,0.739-0.266,0.804
								C1019.815,641.583,1019.733,641.616,1019.639,641.616z"/>
						</g>
					</g>
					<g>
						<g>
							
								<linearGradient id="SVGID_00000085233178912456634160000015781082752187430801_" gradientUnits="userSpaceOnUse" x1="-293.0093" y1="310.8071" x2="1035.8796" y2="310.8071">
								<stop  offset="0" style="stop-color:#FF25B6"/>
								<stop  offset="0.013" style="stop-color:#F720C0"/>
								<stop  offset="0.0526" style="stop-color:#E112DB"/>
								<stop  offset="0.093" style="stop-color:#D208EE"/>
								<stop  offset="0.1345" style="stop-color:#C902F9"/>
								<stop  offset="0.1787" style="stop-color:#C600FD"/>
								<stop  offset="0.475" style="stop-color:#432AF3"/>
								<stop  offset="0.6457" style="stop-color:#2747ED"/>
								<stop  offset="1" style="stop-color:#000422"/>
							</linearGradient>
							<path style="fill:url(#SVGID_00000085233178912456634160000015781082752187430801_);" d="M1035.307,643.303
								c-0.353,0-0.953-0.501-3.016-3.021l0.773-0.633c0.185,0.226,0.355,0.432,0.514,0.621
								c-8.864-14.605-61.812-89.736-128.947-164.717c-65.614-73.281-157.505-160.395-223.495-160.395
								c-0.323,0-0.641,0.002-0.964,0.006c-42.721,0.554-69.347,38.273-79.137,112.11c-9.422,71.037-27.024,108.846-53.814,115.585
								c-49.353,12.408-120.115-85.737-182.562-172.331c-45.175-62.645-87.846-121.816-112.802-124.112
								c-4.318-0.402-7.943,0.863-11.075,3.855c-4.329,4.136-10.514,6.046-18.269,6.048
								c-48.143,0.01-157.148-73.547-263.057-145.009C-147.45,39.175-248.431-28.957-282.547-19.887
								c-4.448,1.183-7.666,3.738-9.565,7.596l-0.898-0.441c2.032-4.128,5.466-6.861,10.205-8.121
								c34.561-9.197,135.719,59.068,242.821,131.335c122.641,82.752,249.459,168.316,280.075,139.068
								c3.307-3.16,7.294-4.547,11.857-4.128c25.409,2.337,66.242,58.96,113.522,124.523
								c62.262,86.338,132.84,184.193,181.506,171.946c12.499-3.144,23.189-13.66,31.772-31.255
								c9.315-19.095,16.479-47.186,21.294-83.491c9.531-71.881,35.032-109.831,75.796-112.796
								c65.793-4.785,159.369,82.697,226.293,156.927c72.777,80.722,132.128,165.596,133.705,171.142
								c0.148,0.521-0.128,0.73-0.254,0.796C1035.491,643.26,1035.409,643.303,1035.307,643.303z"/>
						</g>
					</g>
					<g>
						<g>
							
								<linearGradient id="SVGID_00000156579157162120459110000000652377898382359177_" gradientUnits="userSpaceOnUse" x1="-304.2378" y1="306.239" x2="1051.7838" y2="306.239">
								<stop  offset="0" style="stop-color:#FF25B6"/>
								<stop  offset="0.013" style="stop-color:#F720C0"/>
								<stop  offset="0.0526" style="stop-color:#E112DB"/>
								<stop  offset="0.093" style="stop-color:#D208EE"/>
								<stop  offset="0.1345" style="stop-color:#C902F9"/>
								<stop  offset="0.1787" style="stop-color:#C600FD"/>
								<stop  offset="0.475" style="stop-color:#432AF3"/>
								<stop  offset="0.6457" style="stop-color:#2747ED"/>
								<stop  offset="1" style="stop-color:#000422"/>
							</linearGradient>
							<path style="fill:url(#SVGID_00000156579157162120459110000000652377898382359177_);" d="M1051.217,645.217
								c-0.354,0-0.97-0.505-3.095-3.023l0.764-0.645c0.183,0.216,0.353,0.415,0.51,0.598
								c-9.368-14.821-64.804-90.721-134.632-166.371c-67.804-73.458-162.151-160.462-228.616-160.462
								c-0.75,0-1.492,0.011-2.235,0.033c-41.77,1.252-67.295,38.087-75.867,109.48c-8.295,69.067-25.146,106.063-51.518,113.102
								c-3.046,0.813-6.191,1.206-9.411,1.206c-49.373,0.01-118.171-92.178-179.317-174.105
								c-46.899-62.837-91.197-122.189-116.476-124.472c-4.267-0.386-7.831,0.811-10.889,3.658
								c-31.119,28.96-161.227-57.834-287.053-141.771C-156.479,29.158-260.239-40.068-294.209-30.942
								c-4.259,1.144-7.331,3.579-9.131,7.235l-0.897-0.441c1.934-3.927,5.22-6.537,9.77-7.76
								c34.395-9.24,138.349,60.104,248.403,133.521c125.502,83.723,255.276,170.295,285.816,141.871
								c3.233-3.008,7.153-4.328,11.661-3.921c25.724,2.324,68.109,59.114,117.188,124.871
								c64.945,87.015,138.565,185.653,187.67,172.529c12.309-3.285,22.725-13.695,30.957-30.94
								c8.921-18.69,15.592-46.048,19.827-81.314c8.362-69.648,32.864-106.701,72.825-110.13
								c66.261-5.707,163.017,82.337,232.527,157.179c75.799,81.609,137.678,167.043,139.333,172.576
								c0.153,0.511-0.119,0.723-0.244,0.79C1051.403,645.172,1051.321,645.217,1051.217,645.217z"/>
						</g>
					</g>
					<g>
						<g>
							
								<linearGradient id="SVGID_00000105426868995914833310000004516732641966219705_" gradientUnits="userSpaceOnUse" x1="-315.7769" y1="301.7504" x2="1067.9154" y2="301.7504">
								<stop  offset="0" style="stop-color:#FF25B6"/>
								<stop  offset="0.013" style="stop-color:#F720C0"/>
								<stop  offset="0.0526" style="stop-color:#E112DB"/>
								<stop  offset="0.093" style="stop-color:#D208EE"/>
								<stop  offset="0.1345" style="stop-color:#C902F9"/>
								<stop  offset="0.1787" style="stop-color:#C600FD"/>
								<stop  offset="0.475" style="stop-color:#432AF3"/>
								<stop  offset="0.6457" style="stop-color:#2747ED"/>
								<stop  offset="1" style="stop-color:#000422"/>
							</linearGradient>
							<path style="fill:url(#SVGID_00000105426868995914833310000004516732641966219705_);" d="M1067.355,647.346
								c-0.354,0-0.987-0.508-3.176-3.027l0.755-0.656c0.175,0.201,0.338,0.388,0.49,0.561
								c-9.923-15.084-67.914-91.77-140.475-168.101c-71.273-74.976-170.326-163.678-237.299-160.498
								c-40.75,1.936-65.161,37.898-72.557,106.887c-7.197,67.146-23.299,103.344-49.225,110.664
								c-3.232,0.913-6.579,1.352-10.024,1.354c-50.012,0.003-121.446-92.579-184.955-174.888
								c-48.651-63.053-94.604-122.608-120.204-124.89c-4.213-0.376-7.716,0.757-10.705,3.463
								C208.934,266.34,75.814,178.515-52.924,93.577C-165.788,19.112-272.386-51.232-306.17-42.053
								c-4.073,1.105-7.003,3.423-8.709,6.887l-0.897-0.441c1.838-3.733,4.982-6.227,9.345-7.411
								c34.214-9.284,141.002,61.168,254.059,135.761C76.046,177.47,208.832,265.084,239.311,237.473
								c3.162-2.863,7.016-4.115,11.465-3.718c26.035,2.32,69.999,59.299,120.906,125.274
								c67.691,87.728,144.399,187.169,193.916,173.184c12.107-3.418,22.239-13.722,30.118-30.623
								c8.527-18.292,14.712-44.934,18.384-79.186c7.231-67.466,30.733-103.638,69.851-107.513
								c66.667-6.612,166.657,82.002,238.818,157.494c78.904,82.545,143.365,168.564,145.098,174.081
								c0.157,0.501-0.11,0.715-0.233,0.783C1067.543,647.301,1067.462,647.346,1067.355,647.346z"/>
						</g>
					</g>
					<g>
						<g>
							
								<linearGradient id="SVGID_00000062172113240185848900000012647783326582490529_" gradientUnits="userSpaceOnUse" x1="-327.644" y1="297.344" x2="1084.2853" y2="297.344">
								<stop  offset="0" style="stop-color:#FF25B6"/>
								<stop  offset="0.013" style="stop-color:#F720C0"/>
								<stop  offset="0.0526" style="stop-color:#E112DB"/>
								<stop  offset="0.093" style="stop-color:#D208EE"/>
								<stop  offset="0.1345" style="stop-color:#C902F9"/>
								<stop  offset="0.1787" style="stop-color:#C600FD"/>
								<stop  offset="0.475" style="stop-color:#432AF3"/>
								<stop  offset="0.6457" style="stop-color:#2747ED"/>
								<stop  offset="1" style="stop-color:#000422"/>
							</linearGradient>
							<path style="fill:url(#SVGID_00000062172113240185848900000012647783326582490529_);" d="M1083.733,649.706
								c-0.355,0-1.005-0.512-3.259-3.033l0.746-0.666c0.166,0.187,0.323,0.36,0.47,0.522
								c-10.487-15.344-71.094-92.843-146.46-169.902c-74.033-75.695-176.434-164.968-243.772-160.625
								c-39.689,2.583-62.987,37.685-69.247,104.333c-6.136,65.276-21.493,100.695-46.953,108.279
								c-3.412,1.017-6.96,1.506-10.631,1.506c-50.65,0.002-124.775-93.023-190.698-175.757
								c-50.429-63.287-98.061-123.064-123.974-125.351c-4.159-0.367-7.602,0.704-10.521,3.276
								c-3.892,3.428-9.443,5.024-16.434,5.024c-48.689,0.003-167.284-77.418-282.451-152.601
								C-175.371,9.039-284.871-62.438-318.444-53.233c-3.894,1.067-6.688,3.272-8.303,6.553l-0.897-0.441
								c1.747-3.549,4.754-5.93,8.936-7.077c34.018-9.319,143.692,62.273,259.805,138.072
								c131.39,85.771,267.254,174.463,297.677,147.663c3.093-2.723,6.884-3.91,11.27-3.521
								c26.34,2.324,71.907,59.509,124.668,125.724c70.504,88.48,150.405,188.763,200.262,173.916
								c11.893-3.543,21.74-13.738,29.269-30.302c8.137-17.901,13.848-43.846,16.974-77.113
								c6.137-65.332,28.633-100.641,66.863-104.943c66.97-7.55,170.28,81.682,245.148,157.858
								c80.336,81.737,149.26,170.356,151.009,175.676c0.166,0.505-0.128,0.722-0.223,0.776
								C1083.923,649.66,1083.842,649.706,1083.733,649.706z"/>
						</g>
					</g>
					<g>
						<g>
							
								<linearGradient id="SVGID_00000079463375495440431860000007420687750725372577_" gradientUnits="userSpaceOnUse" x1="-339.8491" y1="293.0299" x2="1100.8966" y2="293.0299">
								<stop  offset="0" style="stop-color:#FF25B6"/>
								<stop  offset="0.013" style="stop-color:#F720C0"/>
								<stop  offset="0.0526" style="stop-color:#E112DB"/>
								<stop  offset="0.093" style="stop-color:#D208EE"/>
								<stop  offset="0.1345" style="stop-color:#C902F9"/>
								<stop  offset="0.1787" style="stop-color:#C600FD"/>
								<stop  offset="0.475" style="stop-color:#432AF3"/>
								<stop  offset="0.6457" style="stop-color:#2747ED"/>
								<stop  offset="1" style="stop-color:#000422"/>
							</linearGradient>
							<path style="fill:url(#SVGID_00000079463375495440431860000007420687750725372577_);" d="M1100.345,652.312
								c-0.36,0-1.021-0.522-3.336-3.042l0.736-0.676c0.161,0.175,0.313,0.339,0.456,0.493
								c-11.043-15.582-74.312-93.921-152.571-171.773c-76.843-76.443-182.631-166.414-250.266-160.836
								c-38.617,3.177-60.82,37.436-65.995,101.826c-5.1,63.453-19.716,98.105-44.684,105.936
								c-3.582,1.124-7.332,1.663-11.225,1.663c-51.275,0.006-128.141-93.505-196.528-176.699
								C324.694,285.654,275.352,225.63,249.127,223.33c-4.101-0.362-7.487,0.651-10.341,3.093
								C207.833,252.912,68.521,162.899-66.203,75.85C-185.235-1.061-297.66-73.703-331.042-64.476
								c-3.72,1.029-6.381,3.125-7.91,6.232l-0.897-0.441c1.661-3.374,4.535-5.646,8.542-6.754
								C-297.506-74.781-184.886-2.025-65.66,75.01c134.417,86.851,273.412,176.662,303.796,150.653
								c3.026-2.589,6.759-3.71,11.079-3.33c26.643,2.337,73.841,59.753,128.491,126.235
								c73.38,89.266,156.553,190.431,206.682,174.717c11.667-3.659,21.223-13.744,28.399-29.974
								c7.746-17.518,12.99-42.78,15.587-75.088c5.082-63.254,26.577-97.715,63.887-102.429
								c67.217-8.467,173.886,81.38,251.518,158.271c83.526,82.73,155.237,172.056,157.066,177.369
								c0.171,0.497-0.119,0.717-0.213,0.772C1100.538,652.262,1100.455,652.312,1100.345,652.312z"/>
						</g>
					</g>
					<g>
						<g>
							
								<linearGradient id="SVGID_00000085209596808297727290000011996603899066806943_" gradientUnits="userSpaceOnUse" x1="-352.3921" y1="288.7953" x2="1117.7629" y2="288.7953">
								<stop  offset="0" style="stop-color:#FF25B6"/>
								<stop  offset="0.013" style="stop-color:#F720C0"/>
								<stop  offset="0.0526" style="stop-color:#E112DB"/>
								<stop  offset="0.093" style="stop-color:#D208EE"/>
								<stop  offset="0.1345" style="stop-color:#C902F9"/>
								<stop  offset="0.1787" style="stop-color:#C600FD"/>
								<stop  offset="0.475" style="stop-color:#432AF3"/>
								<stop  offset="0.6457" style="stop-color:#2747ED"/>
								<stop  offset="1" style="stop-color:#000422"/>
							</linearGradient>
							<path style="fill:url(#SVGID_00000085209596808297727290000011996603899066806943_);" d="M1117.219,655.144
								c-0.362,0-1.039-0.525-3.42-3.05l0.728-0.686c0.146,0.155,0.285,0.302,0.418,0.44
								c-11.678-15.893-77.679-95.081-158.851-173.714c-79.729-77.234-189.01-167.873-256.802-161.076
								c-37.479,3.757-58.575,37.184-62.701,99.351c-4.095,61.68-17.975,95.58-42.432,103.639
								c-3.745,1.234-7.692,1.825-11.805,1.826c-51.893,0.012-131.554-94.026-202.459-177.718
								c-31.868-37.614-61.968-73.143-86.838-96.918c-27.615-26.4-45.101-34.857-55.025-26.616
								c-3.614,3.001-8.756,4.407-15.232,4.407c-48.933,0.004-174.268-80.182-295.95-158.029
								C-195.364-11.185-310.799-85.044-343.96-75.786c-3.552,0.991-6.087,2.984-7.535,5.924l-0.897-0.441
								c1.579-3.207,4.326-5.376,8.164-6.446c33.59-9.37,149.209,64.597,271.617,142.908
								c137.484,87.956,279.649,178.91,310.005,153.694c22.599-18.768,78.517,47.233,143.265,123.657
								c76.319,90.082,162.818,192.191,213.188,175.588c11.433-3.767,20.69-13.739,27.518-29.64
								c7.358-17.141,12.146-41.74,14.229-73.115c4.064-61.227,24.558-94.858,60.912-99.957
								c67.408-9.442,177.477,81.114,257.935,158.759c90.104,86.953,161.789,175.014,163.267,179.126
								c0.176,0.487-0.11,0.709-0.202,0.766C1117.412,655.094,1117.33,655.144,1117.219,655.144z"/>
						</g>
					</g>
					<g>
						<g>
							
								<linearGradient id="SVGID_00000182528832387964860960000012421652817420385963_" gradientUnits="userSpaceOnUse" x1="-365.269" y1="284.6393" x2="1134.8877" y2="284.6393">
								<stop  offset="0" style="stop-color:#FF25B6"/>
								<stop  offset="0.013" style="stop-color:#F720C0"/>
								<stop  offset="0.0526" style="stop-color:#E112DB"/>
								<stop  offset="0.093" style="stop-color:#D208EE"/>
								<stop  offset="0.1345" style="stop-color:#C902F9"/>
								<stop  offset="0.1787" style="stop-color:#C600FD"/>
								<stop  offset="0.475" style="stop-color:#432AF3"/>
								<stop  offset="0.6457" style="stop-color:#2747ED"/>
								<stop  offset="1" style="stop-color:#000422"/>
							</linearGradient>
							<path style="fill:url(#SVGID_00000182528832387964860960000012421652817420385963_);" d="M1134.35,658.205
								c-0.363,0-1.057-0.528-3.506-3.059l0.719-0.695c0.132,0.136,0.257,0.265,0.377,0.388
								c-12.324-16.2-81.111-96.262-165.268-175.721c-82.67-78.056-195.486-169.407-263.357-161.386
								c-36.321,4.296-56.319,36.903-59.441,96.917c-3.12,59.959-16.27,93.125-40.199,101.394
								c-3.902,1.348-8.035,1.992-12.368,1.993c-52.504,0.006-135.029-94.602-208.503-178.83
								c-32.865-37.675-63.908-73.261-89.469-97.149c-28.393-26.536-46.236-35.176-56.158-27.186
								c-3.479,2.802-8.423,4.118-14.644,4.119c-49.021,0.009-177.839-81.622-302.887-160.857
								C-205.796-21.354-324.276-96.427-357.201-87.168c-3.389,0.953-5.802,2.847-7.171,5.628l-0.897-0.441
								c1.5-3.047,4.124-5.116,7.798-6.15c33.346-9.39,152.017,65.809,277.652,145.418
								C60.799,146.389,206.204,238.526,236.55,214.091c22.577-18.181,80.241,47.919,147.007,124.458
								c79.33,90.939,169.229,194.006,219.792,176.549c23.175-8.007,36.474-41.82,39.527-100.501
								c3.082-59.254,22.579-92.069,57.95-97.534c67.523-10.436,181.042,80.874,264.387,159.307
								c93.591,88.075,168.077,176.86,169.616,180.967c0.18,0.479-0.103,0.703-0.193,0.76
								C1134.544,658.154,1134.463,658.205,1134.35,658.205z"/>
						</g>
					</g>
					<g>
						<g>
							
								<linearGradient id="SVGID_00000171688704969557582350000007256798175760838591_" gradientUnits="userSpaceOnUse" x1="-378.5073" y1="280.5674" x2="1152.2689" y2="280.5674">
								<stop  offset="0" style="stop-color:#FF25B6"/>
								<stop  offset="0.013" style="stop-color:#F720C0"/>
								<stop  offset="0.0526" style="stop-color:#E112DB"/>
								<stop  offset="0.093" style="stop-color:#D208EE"/>
								<stop  offset="0.1345" style="stop-color:#C902F9"/>
								<stop  offset="0.1787" style="stop-color:#C600FD"/>
								<stop  offset="0.475" style="stop-color:#432AF3"/>
								<stop  offset="0.6457" style="stop-color:#2747ED"/>
								<stop  offset="1" style="stop-color:#000422"/>
							</linearGradient>
							<path style="fill:url(#SVGID_00000171688704969557582350000007256798175760838591_);" d="M1151.731,661.512
								c-0.367,0-1.074-0.539-3.588-3.071l0.709-0.705c0.121,0.122,0.237,0.239,0.35,0.35
								c-12.953-16.477-84.572-97.438-171.807-177.793c-85.654-78.901-202.004-171.027-269.918-161.797
								c-35.171,4.776-54.1,36.582-56.263,94.532c-2.175,58.289-14.6,90.735-37.986,99.193c-4.045,1.464-8.363,2.162-12.909,2.163
								c-53.102,0.011-138.543-95.216-214.642-180.02c-33.878-37.753-65.876-73.412-92.14-97.426
								c-29.182-26.683-47.396-35.505-57.316-27.766c-30.9,24.102-179.901-69.447-324-159.913
								c-128.733-80.819-250.328-157.152-283.007-147.89c-3.233,0.917-5.529,2.715-6.824,5.346l-0.897-0.442
								c1.426-2.895,3.932-4.869,7.449-5.866c33.108-9.399,154.884,67.064,283.811,148.004
								C56.562,138.697,205.269,232.05,235.606,208.385c22.574-17.607,82,48.624,150.815,125.312
								c82.401,91.829,175.792,195.921,226.467,177.584c22.641-8.189,35.199-41.258,37.326-98.29
								c2.14-57.337,20.648-89.355,55.014-95.164c67.553-11.425,184.579,80.657,270.864,159.908
								c97.152,89.233,174.512,178.8,176.114,182.904c0.185,0.472-0.094,0.699-0.183,0.757
								C1151.93,661.458,1151.848,661.512,1151.731,661.512z"/>
						</g>
					</g>
					<g>
						<g>
							
								<linearGradient id="SVGID_00000090268926100571469310000005302417300966339723_" gradientUnits="userSpaceOnUse" x1="-392.0815" y1="276.5693" x2="1169.9349" y2="276.5693">
								<stop  offset="0" style="stop-color:#FF25B6"/>
								<stop  offset="0.013" style="stop-color:#F720C0"/>
								<stop  offset="0.0526" style="stop-color:#E112DB"/>
								<stop  offset="0.093" style="stop-color:#D208EE"/>
								<stop  offset="0.1345" style="stop-color:#C902F9"/>
								<stop  offset="0.1787" style="stop-color:#C600FD"/>
								<stop  offset="0.475" style="stop-color:#432AF3"/>
								<stop  offset="0.6457" style="stop-color:#2747ED"/>
								<stop  offset="1" style="stop-color:#000422"/>
							</linearGradient>
							<path style="fill:url(#SVGID_00000090268926100571469310000005302417300966339723_);" d="M1169.404,665.049
								c-0.369,0-1.094-0.543-3.677-3.083l0.701-0.713c0.102,0.1,0.2,0.196,0.296,0.289c-13.651-16.81-88.16-98.674-178.5-179.925
								c-88.712-79.788-208.687-172.706-276.509-162.263c-33.983,5.233-51.845,36.247-53.085,92.178
								c-1.258,56.678-12.968,88.424-35.8,97.055c-4.183,1.581-8.671,2.335-13.43,2.335
								c-53.693,0.002-142.125-95.886-220.902-181.304c-34.902-37.844-67.868-73.588-94.842-97.735
								c-29.98-26.838-48.566-35.848-58.493-28.355C204.263,226.86,51.9,132.049-95.45,40.364
								c-132.076-82.181-256.832-159.803-289.247-150.542c-3.08,0.88-5.263,2.587-6.487,5.074l-0.897-0.442
								c1.354-2.751,3.747-4.632,7.11-5.593c32.834-9.384,157.779,68.353,290.05,150.654
								C52.143,131.023,204.214,225.645,234.562,202.73c22.567-17.035,83.786,49.349,154.672,126.21
								c85.544,92.756,182.502,197.89,233.244,178.711c22.097-8.353,33.924-40.699,35.153-96.141
								c1.23-55.472,18.758-86.706,52.094-92.834c67.492-12.419,188.092,80.483,277.382,160.592
								c98.549,88.415,181.156,180.953,182.764,184.911c0.188,0.464-0.085,0.692-0.174,0.752
								C1169.603,664.994,1169.521,665.049,1169.404,665.049z"/>
						</g>
					</g>
					<g>
						<g>
							
								<linearGradient id="SVGID_00000122699781028042656340000015431419658540678311_" gradientUnits="userSpaceOnUse" x1="-406.021" y1="272.6461" x2="1187.871" y2="272.6461">
								<stop  offset="0" style="stop-color:#FF25B6"/>
								<stop  offset="0.013" style="stop-color:#F720C0"/>
								<stop  offset="0.0526" style="stop-color:#E112DB"/>
								<stop  offset="0.093" style="stop-color:#D208EE"/>
								<stop  offset="0.1345" style="stop-color:#C902F9"/>
								<stop  offset="0.1787" style="stop-color:#C600FD"/>
								<stop  offset="0.475" style="stop-color:#432AF3"/>
								<stop  offset="0.6457" style="stop-color:#2747ED"/>
								<stop  offset="1" style="stop-color:#000422"/>
							</linearGradient>
							<path style="fill:url(#SVGID_00000122699781028042656340000015431419658540678311_);" d="M1187.348,668.823
								c-0.371,0-1.112-0.546-3.767-3.096l0.693-0.721c0.032,0.031,0.065,0.063,0.098,0.094
								c-14.929-17.625-94.036-101.873-185.178-181.978C907.375,402.42,783.722,308.654,716.088,320.31
								c-32.798,5.647-49.61,35.884-49.971,89.87c-0.369,55.109-11.372,86.169-33.638,94.953c-4.306,1.698-8.96,2.507-13.924,2.507
								c-54.271,0.002-145.75-96.593-227.267-182.665c-69.644-73.536-135.42-142.992-157.289-127.044
								c-3.096,2.259-7.453,3.329-12.924,3.329c-49.152,0.01-188.865-86.18-324.432-169.807
								C-238.842-52.123-366.815-131.064-398.96-121.812c-2.934,0.844-5.007,2.464-6.164,4.813l-0.897-0.441
								c1.287-2.613,3.569-4.408,6.784-5.333c32.581-9.375,160.726,69.679,296.405,153.375
								c150.376,92.762,305.87,188.684,336.242,166.521c22.574-16.472,85.612,50.094,158.604,127.165
								c88.755,93.716,189.354,199.933,240.098,179.915c21.539-8.497,32.644-40.133,33.005-94.028
								c0.358-53.664,16.915-84.131,49.208-90.555c67.359-13.389,191.571,80.343,283.923,161.34
								c102.197,89.632,187.887,183.039,189.557,186.995c0.197,0.469-0.103,0.706-0.165,0.749
								C1187.547,668.768,1187.466,668.823,1187.348,668.823z"/>
						</g>
					</g>
					<g>
						<g>
							
								<linearGradient id="SVGID_00000067919277691178579400000012301384028577645477_" gradientUnits="userSpaceOnUse" x1="-420.3276" y1="268.7981" x2="1206.0916" y2="268.7981">
								<stop  offset="0" style="stop-color:#FF25B6"/>
								<stop  offset="0.013" style="stop-color:#F720C0"/>
								<stop  offset="0.0526" style="stop-color:#E112DB"/>
								<stop  offset="0.093" style="stop-color:#D208EE"/>
								<stop  offset="0.1345" style="stop-color:#C902F9"/>
								<stop  offset="0.1787" style="stop-color:#C600FD"/>
								<stop  offset="0.475" style="stop-color:#432AF3"/>
								<stop  offset="0.6457" style="stop-color:#2747ED"/>
								<stop  offset="1" style="stop-color:#000422"/>
							</linearGradient>
							<path style="fill:url(#SVGID_00000067919277691178579400000012301384028577645477_);" d="M1205.569,672.837
								c-0.375,0-1.13-0.557-3.853-3.113l0.685-0.728c0.009,0.009,0.018,0.017,0.027,0.025
								c-15.687-17.974-97.831-103.169-192.122-184.222c-94.982-81.647-222.351-176.282-289.721-163.451
								c-31.612,6.021-47.397,35.497-46.918,87.61c0.492,53.597-9.813,83.987-31.503,92.906c-4.414,1.814-9.23,2.678-14.39,2.679
								c-54.834,0.011-149.427-97.344-233.745-184.117c-71.688-73.774-139.399-143.458-161.287-128.041
								c-2.975,2.096-7.141,3.089-12.369,3.09c-49.155,0.007-192.654-87.782-331.875-172.95
								c-138.957-85.007-270.206-165.308-302.075-156.063c-2.831,0.821-4.747,2.314-5.854,4.565l-0.897-0.441
								c1.222-2.482,3.4-4.193,6.474-5.084c32.294-9.347,163.724,71.045,302.875,156.17
								C42.773,115.73,201.762,212.992,232.167,191.568c22.587-15.907,87.461,50.855,162.581,128.162
								c92.031,94.709,196.338,202.055,247.038,181.21c20.974-8.625,31.364-39.568,30.883-91.972
								c-0.478-51.914,15.121-81.631,46.363-88.326c29.507-6.322,73.282,7.845,130.1,42.112
								c45.732,27.582,99.696,67.974,160.394,120.055c105.925,90.89,194.763,185.202,196.496,189.159
								c0.203,0.462-0.094,0.701-0.155,0.745C1205.771,672.779,1205.69,672.837,1205.569,672.837z"/>
						</g>
					</g>
					<g>
						<g>
							
								<linearGradient id="SVGID_00000108311040406426145510000016850462465794015646_" gradientUnits="userSpaceOnUse" x1="-435.0015" y1="265.0233" x2="1224.6063" y2="265.0233">
								<stop  offset="0" style="stop-color:#FF25B6"/>
								<stop  offset="0.013" style="stop-color:#F720C0"/>
								<stop  offset="0.0526" style="stop-color:#E112DB"/>
								<stop  offset="0.093" style="stop-color:#D208EE"/>
								<stop  offset="0.1345" style="stop-color:#C902F9"/>
								<stop  offset="0.1787" style="stop-color:#C600FD"/>
								<stop  offset="0.475" style="stop-color:#432AF3"/>
								<stop  offset="0.6457" style="stop-color:#2747ED"/>
								<stop  offset="1" style="stop-color:#000422"/>
							</linearGradient>
							<path style="fill:url(#SVGID_00000108311040406426145510000016850462465794015646_);" d="M1224.091,677.093
								c-0.377,0-1.15-0.561-3.946-3.129l0.672-0.732c-16.365-18.234-101.658-104.473-199.238-186.575
								C923.38,404.032,792.245,308.47,725.232,322.474c-30.431,6.354-45.211,35.087-43.93,85.398
								c1.326,52.135-8.29,81.87-29.399,90.907c-51.217,21.918-159.554-86.836-255.145-182.787
								c-73.773-74.053-143.461-144.004-165.387-129.102c-2.856,1.94-6.835,2.862-11.822,2.862
								c-49.131,0.004-196.484-89.422-339.422-176.167c-142.496-86.477-277.094-168.148-308.67-158.942
								c-2.695,0.786-4.514,2.202-5.56,4.328l-0.897-0.441c1.161-2.358,3.24-3.989,6.177-4.846
								c32.014-9.336,166.781,72.453,309.47,159.047c157.179,95.388,319.713,194.021,350.163,173.333
								c22.617-15.36,89.367,51.64,166.658,129.223c95.368,95.728,203.451,204.228,254.043,182.573
								c20.402-8.734,30.09-39.002,28.793-89.962c-1.279-50.222,13.378-79.206,43.563-86.147
								c29.376-6.757,73.786,7.313,131.988,41.821c46.839,27.772,102.386,68.566,165.099,121.253
								c109.732,92.188,201.782,187.442,203.581,191.399c0.207,0.455-0.085,0.698-0.146,0.742
								C1224.293,677.034,1224.213,677.093,1224.091,677.093z"/>
						</g>
					</g>
					<g>
						<g>
							
								<linearGradient id="SVGID_00000057845187894889692380000011690762287814844820_" gradientUnits="userSpaceOnUse" x1="-450.0562" y1="261.3215" x2="1243.4232" y2="261.3215">
								<stop  offset="0" style="stop-color:#FF25B6"/>
								<stop  offset="0.013" style="stop-color:#F720C0"/>
								<stop  offset="0.0526" style="stop-color:#E112DB"/>
								<stop  offset="0.093" style="stop-color:#D208EE"/>
								<stop  offset="0.1345" style="stop-color:#C902F9"/>
								<stop  offset="0.1787" style="stop-color:#C600FD"/>
								<stop  offset="0.475" style="stop-color:#432AF3"/>
								<stop  offset="0.6457" style="stop-color:#2747ED"/>
								<stop  offset="1" style="stop-color:#000422"/>
							</linearGradient>
							<path style="fill:url(#SVGID_00000057845187894889692380000011690762287814844820_);" d="M1242.907,681.6
								c-0.382,0-1.169-0.57-4.036-3.148l0.658-0.733c-16.981-18.427-105.495-105.76-206.493-189.005
								c-101.463-83.628-236.395-180.132-302.985-165.032c-29.276,6.644-43.082,34.649-41.036,83.24
								c2.136,50.725-6.804,79.823-27.328,88.96c-4.596,2.046-9.695,3.016-15.227,3.017
								c-55.92,0.012-156.942-98.986-247.036-187.266c-75.879-74.351-147.556-144.58-169.524-130.205
								c-2.738,1.791-6.538,2.645-11.285,2.646c-49.08,0.011-200.385-91.106-347.143-179.479
								c-146.089-87.971-284.086-171.064-315.356-161.877c-2.561,0.752-4.287,2.093-5.274,4.099l-0.898-0.442
								c1.103-2.239,3.085-3.792,5.89-4.616c31.69-9.314,169.871,73.892,316.153,161.979
								c160.688,96.763,326.846,196.815,357.364,176.854c22.652-14.815,91.29,52.446,170.771,130.328
								c98.78,96.789,210.741,206.502,261.157,184.05c19.828-8.826,28.823-38.436,26.736-88.005
								c-2.046-48.586,11.684-76.854,40.809-84.02c29.209-7.186,74.24,6.794,133.835,41.559
								c47.953,27.973,105.105,69.187,169.869,122.498c113.613,93.52,208.951,189.765,210.818,193.726
								c0.212,0.45-0.077,0.695-0.138,0.74C1243.113,681.539,1243.031,681.6,1242.907,681.6z"/>
						</g>
					</g>
					<g>
						<g>
							
								<linearGradient id="SVGID_00000011004768965193042850000003404788313674945967_" gradientUnits="userSpaceOnUse" x1="-465.4858" y1="257.6927" x2="1262.5487" y2="257.6927">
								<stop  offset="0" style="stop-color:#FF25B6"/>
								<stop  offset="0.013" style="stop-color:#F720C0"/>
								<stop  offset="0.0526" style="stop-color:#E112DB"/>
								<stop  offset="0.093" style="stop-color:#D208EE"/>
								<stop  offset="0.1345" style="stop-color:#C902F9"/>
								<stop  offset="0.1787" style="stop-color:#C600FD"/>
								<stop  offset="0.475" style="stop-color:#432AF3"/>
								<stop  offset="0.6457" style="stop-color:#2747ED"/>
								<stop  offset="1" style="stop-color:#000422"/>
							</linearGradient>
							<path style="fill:url(#SVGID_00000011004768965193042850000003404788313674945967_);" d="M1262.04,686.348
								c-0.384,0-1.19-0.575-4.132-3.166l0.643-0.729c-17.62-18.632-109.45-107.105-213.922-191.516
								c-104.793-84.671-243.57-182.192-309.65-165.952c-28.108,6.91-40.953,34.203-38.177,81.123
								c2.922,49.366-5.35,77.845-25.286,87.066c-50.803,23.489-166.963-87.689-269.445-185.786
								c-78.026-74.687-151.72-145.229-173.755-131.37c-2.624,1.651-6.24,2.439-10.754,2.439
								C168.55,178.46,13.228,85.625-137.401-4.404c-149.758-89.509-291.202-174.05-322.185-164.901
								c-2.434,0.72-4.07,1.989-5.002,3.882l-0.897-0.441c1.047-2.128,2.937-3.608,5.616-4.399
								c31.392-9.273,173.029,75.377,322.982,165.002C27.359,92.906,197.197,194.422,227.783,175.17
								c22.69-14.273,93.264,53.275,174.979,131.494c102.251,97.877,218.138,208.818,268.335,185.6
								c19.248-8.902,27.56-37.87,24.707-86.099c-2.781-47.011,10.041-74.58,38.11-81.942c29.015-7.611,74.65,6.298,135.648,41.337
								c49.076,28.191,107.858,69.846,174.714,123.806c117.58,94.902,216.259,192.147,218.192,196.11
								c0.217,0.443-0.069,0.692-0.128,0.737C1262.245,686.286,1262.165,686.348,1262.04,686.348z"/>
						</g>
					</g>
					<g>
						<g>
							
								<linearGradient id="SVGID_00000034795919373842565500000015651446088839578795_" gradientUnits="userSpaceOnUse" x1="-481.3101" y1="254.1268" x2="1281.9905" y2="254.1268">
								<stop  offset="0" style="stop-color:#FF25B6"/>
								<stop  offset="0.013" style="stop-color:#F720C0"/>
								<stop  offset="0.0526" style="stop-color:#E112DB"/>
								<stop  offset="0.093" style="stop-color:#D208EE"/>
								<stop  offset="0.1345" style="stop-color:#C902F9"/>
								<stop  offset="0.1787" style="stop-color:#C600FD"/>
								<stop  offset="0.475" style="stop-color:#432AF3"/>
								<stop  offset="0.6457" style="stop-color:#2747ED"/>
								<stop  offset="1" style="stop-color:#000422"/>
							</linearGradient>
							<path style="fill:url(#SVGID_00000034795919373842565500000015651446088839578795_);" d="M1281.488,691.338
								c-0.387,0-1.212-0.579-4.23-3.186l0.628-0.728c-18.262-18.833-113.449-108.456-221.467-194.075
								c-108.171-85.741-250.85-184.315-316.327-166.985c-26.967,7.138-38.879,33.737-35.406,79.061
								c3.682,48.056-3.935,75.932-23.283,85.219c-4.721,2.266-10.058,3.338-15.927,3.339
								c-56.938,0.01-164.673-100.813-260.791-190.756c-80.202-75.051-155.952-145.943-178.055-132.585
								C195.455,189.483,21.596,86.324-146.533-13.444c-153.493-91.082-298.481-177.119-329.137-168
								c-2.312,0.687-3.863,1.889-4.742,3.674l-0.897-0.441c0.995-2.021,2.796-3.431,5.354-4.191
								c31.089-9.24,176.246,76.902,329.933,168.099c167.876,99.617,341.47,202.628,372.135,184.089
								c22.747-13.749,95.275,54.125,179.256,132.711C511.16,401.493,631.08,513.694,680.97,489.741
								c18.671-8.961,26.315-37.304,22.719-84.24c-3.486-45.493,8.447-72.382,35.468-79.919
								c28.778-8.027,75.012,5.819,137.421,41.15c50.205,28.423,110.638,70.534,179.619,125.164
								c118.799,94.083,223.776,194.74,225.711,198.571c0.221,0.438-0.061,0.689-0.12,0.734
								C1281.693,691.275,1281.614,691.338,1281.488,691.338z"/>
						</g>
					</g>
					<g>
						<g>
							
								<linearGradient id="SVGID_00000085937259975507204520000011217707779122925981_" gradientUnits="userSpaceOnUse" x1="-497.5308" y1="250.6326" x2="1301.7543" y2="250.6326">
								<stop  offset="0" style="stop-color:#FF25B6"/>
								<stop  offset="0.013" style="stop-color:#F720C0"/>
								<stop  offset="0.0526" style="stop-color:#E112DB"/>
								<stop  offset="0.093" style="stop-color:#D208EE"/>
								<stop  offset="0.1345" style="stop-color:#C902F9"/>
								<stop  offset="0.1787" style="stop-color:#C600FD"/>
								<stop  offset="0.475" style="stop-color:#432AF3"/>
								<stop  offset="0.6457" style="stop-color:#2747ED"/>
								<stop  offset="1" style="stop-color:#000422"/>
							</linearGradient>
							<path style="fill:url(#SVGID_00000085937259975507204520000011217707779122925981_);" d="M1301.252,696.584
								c-0.391,0-1.23-0.59-4.325-3.21l0.614-0.726c-18.909-19.035-117.5-109.823-229.135-196.692
								C956.806,409.113,810.164,309.449,745.373,327.82c-25.852,7.329-36.864,33.253-32.729,77.051
								c4.42,46.799-2.552,74.089-21.314,83.427c-4.762,2.371-10.201,3.491-16.223,3.492
								c-57.421,0.012-168.624-101.799-267.854-192.64C324.845,223.708,247.011,152.442,224.834,165.3
								c-2.401,1.392-5.671,2.06-9.729,2.06c-48.794,0.009-212.4-96.405-371.027-189.879
								c-157.3-92.694-305.878-180.246-336.219-171.177c-2.195,0.656-3.665,1.793-4.493,3.476l-0.897-0.441
								c0.945-1.92,2.663-3.263,5.104-3.993c30.752-9.185,179.518,78.466,337.013,171.274
								c171.57,101.103,348.98,205.649,379.747,187.816c22.797-13.222,97.318,54.996,183.595,133.978
								c109.398,100.149,233.395,213.66,282.956,188.99c18.094-9.007,25.08-36.742,20.764-82.438
								c-4.157-44.032,6.91-70.257,32.894-77.945c28.511-8.435,75.327,5.362,139.162,41.006
								c51.345,28.671,113.45,71.258,184.592,126.578c122.818,95.505,231.369,197.272,233.371,201.107
								c0.227,0.433-0.053,0.686-0.11,0.733C1301.461,696.519,1301.381,696.583,1301.252,696.584z"/>
						</g>
					</g>
				</g>
			</g>
		</g>
	</g>
</g>
<g id="Layer_1">
</g>
</svg>
