<?xml version="1.0" encoding="utf-8"?>
<!-- Generator: Adobe Illustrator 27.5.0, SVG Export Plug-In . SVG Version: 6.00 Build 0)  -->
<svg version="1.1" id="Layer_1" xmlns="http://www.w3.org/2000/svg" xmlns:xlink="http://www.w3.org/1999/xlink" x="0px" y="0px"
	 viewBox="0 0 1320 990" style="enable-background:new 0 0 1320 990;" xml:space="preserve">

<g>
	<path style="fill:#EFECCE;" d="M91.128,741.126c-22.714-42.735-44.849-88.06-45.045-136.456
		c-0.211-51.99,25.833-101.877,63.349-137.871s85.644-59.267,135.208-74.966c33.253-10.533,67.912-18.09,98.281-35.25
		c106.623-60.248,131.218-219.426,243.644-267.991c33.885-14.638,71.714-16.911,108.625-17.081
		c72.048-0.332,144.596,6.67,213.606,27.376c85.045,25.516,162.466,71.045,238.944,116.155
		c26.261,15.49,52.858,31.239,74.163,53.048s37.054,50.777,36.482,81.261c-0.99,52.793-47.403,91.629-74.324,137.054
		c-33.247,56.1-36.898,124.495-36.032,189.701c0.5,37.646,1.641,77.64-17.539,110.038c-18.375,31.038-52.447,49.456-86.737,60.646
		c-153.756,50.175-325.909-17.426-481.682,26.086c-34.435,9.619-67.549,24.58-102.94,29.655c-20.187,2.895-40.699,2.501-61.066,1.46
		c-58.714-3-121.637,1.131-174.366-24.868C180.792,857.966,119.199,793.939,91.128,741.126z"/>
</g>
<g>
	<g>
		<rect x="705.911" y="538.379" style="fill:#565556;" width="163.211" height="104.326"/>
		<rect x="705.911" y="538.379" style="fill:#767577;" width="132.514" height="104.326"/>
	</g>
	<g>
		<path style="fill:#565556;" d="M661.324,639.737v10.671c0,4.018,4.033,7.276,9.008,7.276h235.411c4.976,0,9.008-3.257,9.008-7.276
			v-10.671c0-4.019-4.032-7.276-9.008-7.276H670.331C665.356,632.46,661.324,635.718,661.324,639.737z"/>
		<path style="fill:#767577;" d="M661.324,639.737v10.671c0,4.018,3.771,7.276,8.425,7.276h174.121c4.654,0,8.425-3.257,8.425-7.276
			v-10.671c0-4.019-3.772-7.276-8.425-7.276H669.748C665.095,632.46,661.324,635.718,661.324,639.737z"/>
	</g>
</g>
<g>
	<path style="fill:#565556;" d="M476.593,572.823c0,8.152,6.502,14.762,14.522,14.762h601.101c8.02,0,14.522-6.609,14.522-14.762
		V150.731c0-8.153-6.502-14.762-14.522-14.762H491.116c-8.02,0-14.522,6.609-14.522,14.762V572.823z"/>
	<path style="fill:#939393;" d="M448.44,572.823c0,8.152,6.405,14.762,14.305,14.762h592.119c7.9,0,14.305-6.609,14.305-14.762
		V150.731c0-8.153-6.405-14.762-14.305-14.762H462.745c-7.9,0-14.305,6.609-14.305,14.762V572.823z"/>
	<path style="fill:#54666B;" d="M469.299,163.178v359.166c0,5.976,4.785,10.82,10.686,10.82h559.694
		c5.901,0,10.685-4.844,10.685-10.82V163.178c0-5.976-4.784-10.823-10.685-10.823H479.985
		C474.084,152.355,469.299,157.202,469.299,163.178z"/>
	<path style="fill:#063748;" d="M469.299,163.592v19.185h581.065v-19.185c0-6.205-4.784-11.237-10.685-11.237H479.985
		C474.084,152.355,469.299,157.387,469.299,163.592z"/>
	<path style="fill:#063748;" d="M469.299,517.864v19.262c0,6.205,4.785,11.234,10.686,11.234h559.694
		c5.901,0,10.685-5.029,10.685-11.234v-19.262H469.299z"/>
	<g>
		<g>
			<path style="fill:#0794E4;" d="M802.806,533.215c0,4.564,3.7,8.263,8.263,8.263c4.565,0,8.264-3.7,8.264-8.263
				c0-4.564-3.699-8.264-8.264-8.264C806.506,524.951,802.806,528.651,802.806,533.215z"/>
			<g>
				<rect x="808.034" y="530.622" style="fill:#FFFFFF;" width="8.296" height="5.185"/>
				<polygon style="fill:#FFFFFF;" points="808.186,532.729 805.809,531 805.809,535.429 808.294,534.133 				"/>
			</g>
		</g>
		<g>
			<path style="fill:#0794E4;" d="M770.452,533.215c0,4.564,3.7,8.263,8.264,8.263c4.564,0,8.264-3.7,8.264-8.263
				c0-4.564-3.7-8.264-8.264-8.264C774.151,524.951,770.452,528.651,770.452,533.215z"/>
			<g>
				<rect x="782.227" y="532.29" style="fill:#FFFFFF;" width="1.897" height="5.691"/>
				<rect x="779.381" y="530.629" style="fill:#FFFFFF;" width="1.897" height="7.352"/>
				<rect x="776.535" y="528.969" style="fill:#FFFFFF;" width="1.898" height="9.011"/>
				<rect x="773.848" y="527.626" style="fill:#FFFFFF;" width="1.897" height="10.355"/>
			</g>
		</g>
		<g>
			<path style="fill:#0794E4;" d="M738.208,533.215c0,4.564,3.699,8.263,8.264,8.263c4.564,0,8.264-3.7,8.264-8.263
				c0-4.564-3.7-8.264-8.264-8.264C741.907,524.951,738.208,528.651,738.208,533.215z"/>
			<g>
				<path style="fill:#FFFFFF;" d="M742.003,532.85c0,1.79,2.008,3.241,4.483,3.241c2.476,0,4.483-1.451,4.483-3.241
					c0-1.79-2.007-3.241-4.483-3.241C744.01,529.609,742.003,531.06,742.003,532.85z"/>
				<path style="fill:#FFFFFF;" d="M748.376,534.146c0.304,1.331,2.199,3.05,3.197,4.007c-2.333-0.659-3.979-2.134-5.034-3.576
					L748.376,534.146z"/>
			</g>
		</g>
		<g>
			<path style="fill:#EF1616;" d="M704.396,533.787c0.316,4.553,4.264,7.987,8.816,7.671c4.552-0.316,7.987-4.263,7.671-8.816
				c-0.316-4.553-4.263-7.988-8.816-7.671C707.514,525.287,704.08,529.234,704.396,533.787z"/>
			<g>
				<path style="fill:#FFFFFF;" d="M708.2,536.029c-0.355,0.319-0.385,0.865-0.067,1.22l0,0c0.319,0.355,0.865,0.385,1.22,0.067
					l7.727-6.916c0.356-0.318,0.385-0.865,0.068-1.22l0,0c-0.319-0.356-0.865-0.386-1.221-0.067L708.2,536.029z"/>
				<path style="fill:#FFFFFF;" d="M715.454,537.654c0.319,0.355,0.865,0.386,1.22,0.067l0,0c0.355-0.318,0.386-0.865,0.068-1.22
					l-6.917-7.727c-0.318-0.356-0.865-0.386-1.22-0.068l0,0c-0.356,0.319-0.386,0.865-0.067,1.22L715.454,537.654z"/>
			</g>
		</g>
	</g>
</g>
<g>
	<path style="fill:#71CFF4;" d="M944.563,496.977c0,4.279,3.469,7.747,7.747,7.747h66.108c4.279,0,7.747-3.468,7.747-7.747V199.492
		c0-4.279-3.468-7.747-7.747-7.747H952.31c-4.278,0-7.747,3.469-7.747,7.747V496.977z"/>
	<g>
		<g>
			<path style="fill:#FFFFFF;" d="M962.812,205.689c0,1.997,1.619,3.615,3.615,3.615h48.548c1.997,0,3.615-1.618,3.615-3.615l0,0
				c0-1.997-1.619-3.615-3.615-3.615h-48.548C964.431,202.074,962.812,203.692,962.812,205.689L962.812,205.689z"/>
			<path style="fill:#FFFFFF;" d="M962.812,218.086c0,1.997,1.619,3.615,3.615,3.615h48.548c1.997,0,3.615-1.618,3.615-3.615l0,0
				c0-1.997-1.619-3.615-3.615-3.615h-48.548C964.431,214.47,962.812,216.089,962.812,218.086L962.812,218.086z"/>
			<path style="fill:#FFFFFF;" d="M962.812,256.819c0,1.997,1.619,3.615,3.615,3.615h48.548c1.997,0,3.615-1.618,3.615-3.615l0,0
				c0-1.997-1.619-3.615-3.615-3.615h-48.548C964.431,253.204,962.812,254.823,962.812,256.819L962.812,256.819z"/>
			<path style="fill:#FFFFFF;" d="M962.812,269.216c0,1.997,1.619,3.615,3.615,3.615h48.548c1.997,0,3.615-1.619,3.615-3.615l0,0
				c0-1.997-1.619-3.615-3.615-3.615h-48.548C964.431,265.6,962.812,267.219,962.812,269.216L962.812,269.216z"/>
			<path style="fill:#FFFFFF;" d="M962.812,281.094c0,1.996,1.619,3.615,3.615,3.615h48.548c1.997,0,3.615-1.618,3.615-3.615l0,0
				c0-1.997-1.619-3.616-3.615-3.616h-48.548C964.431,277.478,962.812,279.097,962.812,281.094L962.812,281.094z"/>
			<path style="fill:#FFFFFF;" d="M962.812,360.113c0,1.997,1.619,3.616,3.615,3.616h48.548c1.997,0,3.615-1.619,3.615-3.616l0,0
				c0-1.996-1.619-3.615-3.615-3.615h-48.548C964.431,356.498,962.812,358.116,962.812,360.113L962.812,360.113z"/>
			<path style="fill:#FFFFFF;" d="M962.812,373.025c0,1.997,1.619,3.615,3.615,3.615h48.548c1.997,0,3.615-1.619,3.615-3.615l0,0
				c0-1.997-1.619-3.615-3.615-3.615h-48.548C964.431,369.409,962.812,371.028,962.812,373.025L962.812,373.025z"/>
			<path style="fill:#FFFFFF;" d="M962.812,385.936c0,1.997,1.619,3.615,3.615,3.615h48.548c1.997,0,3.615-1.619,3.615-3.615l0,0
				c0-1.997-1.619-3.615-3.615-3.615h-48.548C964.431,382.321,962.812,383.94,962.812,385.936L962.812,385.936z"/>
			<path style="fill:#FFFFFF;" d="M962.812,307.95c0,1.997,1.619,3.615,3.615,3.615h48.548c1.997,0,3.615-1.619,3.615-3.615l0,0
				c0-1.997-1.619-3.615-3.615-3.615h-48.548C964.431,304.334,962.812,305.953,962.812,307.95L962.812,307.95z"/>
			<path style="fill:#FFFFFF;" d="M977.527,438.395c0,2.353,1.908,4.261,4.262,4.261h32.541c2.353,0,4.261-1.908,4.261-4.261l0,0
				c0-2.353-1.908-4.261-4.261-4.261h-32.541C979.435,434.134,977.527,436.042,977.527,438.395L977.527,438.395z"/>
			<path style="fill:#FFFFFF;" d="M987.603,451.786c0,2.14,1.734,3.874,3.873,3.874h23.242c2.139,0,3.873-1.734,3.873-3.874l0,0
				c0-2.139-1.735-3.873-3.873-3.873h-23.242C989.336,447.912,987.603,449.647,987.603,451.786L987.603,451.786z"/>
		</g>
		<g>
			<g>
				<path style="fill:#35B5D3;" d="M951.019,232.324c0,2.354,1.907,4.261,4.261,4.261h32.541c2.354,0,4.262-1.908,4.262-4.261l0,0
					c0-2.353-1.908-4.261-4.262-4.261H955.28C952.927,228.063,951.019,229.971,951.019,232.324L951.019,232.324z"/>
			</g>
			<g>
				<path style="fill:#35B5D3;" d="M951.019,294.301c0,2.354,1.907,4.261,4.261,4.261h32.541c2.354,0,4.262-1.908,4.262-4.261l0,0
					c0-2.353-1.908-4.261-4.262-4.261H955.28C952.927,290.04,951.019,291.947,951.019,294.301L951.019,294.301z"/>
			</g>
			<g>
				<path style="fill:#35B5D3;" d="M951.019,346.98c0,2.353,1.907,4.261,4.261,4.261h32.541c2.354,0,4.262-1.908,4.262-4.261l0,0
					c0-2.353-1.908-4.261-4.262-4.261H955.28C952.927,342.719,951.019,344.627,951.019,346.98L951.019,346.98z"/>
			</g>
			<g>
				<path style="fill:#35B5D3;" d="M951.019,321.673c0,2.353,1.907,4.261,4.261,4.261h32.541c2.354,0,4.262-1.908,4.262-4.261l0,0
					c0-2.353-1.908-4.261-4.262-4.261H955.28C952.927,317.412,951.019,319.32,951.019,321.673L951.019,321.673z"/>
			</g>
			<g>
				<path style="fill:#35B5D3;" d="M951.019,245.199c0,2.139,1.734,3.873,3.873,3.873h23.241c2.139,0,3.873-1.734,3.873-3.873l0,0
					c0-2.139-1.735-3.873-3.873-3.873h-23.241C952.753,241.325,951.019,243.06,951.019,245.199L951.019,245.199z"/>
			</g>
			<g>
				<path style="fill:#35B5D3;" d="M951.019,334.031c0,2.139,1.734,3.874,3.873,3.874h23.241c2.139,0,3.873-1.734,3.873-3.874l0,0
					c0-2.139-1.735-3.874-3.873-3.874h-23.241C952.753,330.158,951.019,331.892,951.019,334.031L951.019,334.031z"/>
			</g>
			<g>
				<path style="fill:#35B5D3;" d="M951.019,423.934c0,2.353,1.907,4.261,4.261,4.261h32.541c2.354,0,4.262-1.908,4.262-4.261l0,0
					c0-2.354-1.908-4.262-4.262-4.262H955.28C952.927,419.673,951.019,421.581,951.019,423.934L951.019,423.934z"/>
			</g>
			<g>
				<path style="fill:#35B5D3;" d="M951.019,464.735c0,2.354,1.907,4.261,4.261,4.261h32.541c2.354,0,4.262-1.908,4.262-4.261l0,0
					c0-2.353-1.908-4.261-4.262-4.261H955.28C952.927,460.474,951.019,462.382,951.019,464.735L951.019,464.735z"/>
			</g>
			<g>
				<path style="fill:#35B5D3;" d="M951.019,398.628c0,2.353,1.907,4.261,4.261,4.261h32.541c2.354,0,4.262-1.908,4.262-4.261l0,0
					c0-2.354-1.908-4.262-4.262-4.262H955.28C952.927,394.366,951.019,396.274,951.019,398.628L951.019,398.628z"/>
			</g>
			<g>
				<path style="fill:#35B5D3;" d="M951.019,410.985c0,2.139,1.734,3.874,3.873,3.874h23.241c2.139,0,3.873-1.734,3.873-3.874l0,0
					c0-2.139-1.735-3.873-3.873-3.873h-23.241C952.753,407.112,951.019,408.846,951.019,410.985L951.019,410.985z"/>
			</g>
			<g>
				<path style="fill:#35B5D3;" d="M951.019,477.609c0,2.139,1.734,3.874,3.873,3.874h23.241c2.139,0,3.873-1.734,3.873-3.874l0,0
					c0-2.139-1.735-3.874-3.873-3.874h-23.241C952.753,473.736,951.019,475.47,951.019,477.609L951.019,477.609z"/>
			</g>
			<g>
				<path style="fill:#35B5D3;" d="M951.019,489.488c0,2.139,1.734,3.873,3.873,3.873h23.241c2.139,0,3.873-1.734,3.873-3.873l0,0
					c0-2.139-1.735-3.874-3.873-3.874h-23.241C952.753,485.614,951.019,487.349,951.019,489.488L951.019,489.488z"/>
			</g>
		</g>
	</g>
</g>
<g>
	<rect x="491.085" y="188.786" style="fill:#E6FAFF;" width="429.615" height="321.614"/>
	<g>
		<path style="fill:#771531;" d="M648.009,387.372V510.4h179.642V387.372c0-32.503-30.159-58.849-67.368-58.849h-44.908
			C678.169,328.523,648.009,354.869,648.009,387.372z"/>
		<g>
			<path style="fill:#1FB474;" d="M534.855,209.277c0,5.031,4.078,9.108,9.108,9.108c5.03,0,9.108-4.077,9.108-9.108
				c0-5.03-4.078-9.108-9.108-9.108C538.933,200.169,534.855,204.247,534.855,209.277z"/>
			<path style="fill:#EF1616;" d="M508.746,209.277c0,5.031,4.078,9.108,9.108,9.108c5.031,0,9.108-4.077,9.108-9.108
				c0-5.03-4.077-9.108-9.108-9.108C512.823,200.169,508.746,204.247,508.746,209.277z"/>
		</g>
		<g>
			<g>
				<path style="fill:#301F23;" d="M642.564,291.337c-6.031-4.856-9.82-20.54,2.013-19.96c-1.789-2.69-1.695-7.266-0.198-10.226
					c0.197-0.386,0.417-0.733,0.658-1.053c-0.495-2.977,0.063-8.253,3.837-7.586c-2.625-4.868,3.447-13.265,8.049-8.843
					c-0.91-4.204,2.006-8.083,6.283-8.148c1.54-0.023,4.169,1.434,5.88,2.949c-0.137-1.668,0.144-3.346,1.024-4.854
					c1.648-2.826,6.574-5.524,8.069-1.317c-1.766-8.059,8.508-7.797,11.89-2.376c1.706-6.106,13.354-6.08,13.083,0.376
					c4.496-8.836,17.072-2.641,14.104,3.524c3.293,1.898,5.83,6.266,5.289,10.907c6.395-5.917,12.985,0.908,11.519,8.474
					c9.703-2.775,5.716,14.938,1.011,12.996c4.28,2.62-7.076,11.854-11.849,9.686c-0.155,6.918-12.57,7.562-16.748,6.089
					c3.558,5.27-9.737,14.527-13.487,9.713c1.296,4.739-5.645,8.772-9.239,8.15c0.311,2.906-0.872,6.728-2.987,9.282l0.447,0.335
					c13.618-3.534,16.851,23.023,6.117,19.994c8.145,7.195-0.669,25.647-7.482,14.999c2.628,12.258-16.517,16.237-15.74,5.053
					c-2.585,6.025-11.39,3.927-11.764-2.617c-8.436,3.656-11.344-9.052-5.903-13.81c-4.546,3.2-4.954-4.943-4.44-7.354
					c0.414-1.943,1.167-3.606,2.215-5.07c-4.205-2.421-6.915-7.874-1.312-10.768C636.781,305.853,635.093,294.892,642.564,291.337z"
					/>
				<path style="fill:#301F23;" d="M765.016,301.33c6.03-4.856,9.82-20.539-2.014-19.959c1.789-2.69,1.696-7.266,0.199-10.226
					c-0.195-0.385-0.417-0.733-0.658-1.052c0.496-2.977-0.061-8.253-3.836-7.587c2.625-4.868-3.448-13.265-8.05-8.843
					c0.911-4.204-2.007-8.084-6.283-8.148c-1.541-0.023-4.169,1.434-5.879,2.95c0.136-1.668-0.146-3.346-1.026-4.855
					c-1.646-2.824-6.573-5.523-8.067-1.316c1.765-8.059-8.509-7.798-11.891-2.376c-1.705-6.107-13.353-6.08-13.084,0.377
					c-4.495-8.836-17.072-2.641-14.102,3.524c-3.293,1.898-5.83,6.265-5.29,10.906c-6.395-5.917-12.985,0.908-11.52,8.473
					c-9.704-2.775-5.716,14.938-1.009,12.997c-4.281,2.62,7.076,11.854,11.848,9.686c0.155,6.918,12.571,7.562,16.749,6.089
					c-3.558,5.27,9.737,14.527,13.486,9.714c-1.296,4.739,5.643,8.772,9.24,8.15c-0.31,2.906,0.872,6.727,2.987,9.281l-0.447,0.335
					c-13.618-3.534-16.852,23.024-6.116,19.995c-8.146,7.194,0.668,25.646,7.482,14.998c-2.627,12.259,16.517,16.237,15.74,5.054
					c2.586,6.024,11.39,3.927,11.764-2.618c8.437,3.655,11.343-9.052,5.902-13.81c4.547,3.2,4.954-4.942,4.441-7.354
					c-0.413-1.943-1.166-3.606-2.214-5.07c4.205-2.421,6.914-7.874,1.312-10.768C770.801,315.846,772.487,304.885,765.016,301.33z"
					/>
				<g>
					<path style="fill:#F49C60;" d="M783.425,394.595c-3.783-12.804-15.848-16.022-28.877-17.917
						c-5.032-0.733-14.102-2.189-21.342-4.691c0.038-0.103,0.076-0.206,0.113-0.31c-0.27,0.04-0.529,0.062-0.786,0.072
						c-1.708-0.616-3.294-1.294-4.692-2.041c-6.116-6.472-6.021-26.402-6.646-32.029c-0.095-0.831-0.19-1.73-0.28-2.678
						c-0.674-7.388-1.005-17.89,2.243-23.436l-36.242,17.293l-4.419,2.103c0.202,0.508,0.397,1.034,0.575,1.582
						c1.752,5.258,2.584,12.183,2.356,17.98c-0.005,0.058-0.005,0.117-0.015,0.176c0,0.049-0.003,0.098-0.012,0.153
						c0,0.012,0,0.022-0.005,0.03c-0.111,1.083-0.547,3.384-1.258,6.224c-0.566,2.247-1.302,4.831-2.188,7.415l-0.161-0.014
						c-6.741,12.807-46.538,2.851-54.628,15.435C606.028,412.816,768.192,409.181,783.425,394.595z"/>
					<path style="fill:#D87A3A;" d="M685.396,350.882c-0.111,1.083-0.547,3.384-1.258,6.224
						c8.288,10.225,28.959,3.334,34.069-16.821c0.475-1.882,1.91-3.433,2.708-5.285c-0.674-7.388-1.005-17.89,2.243-23.436
						l-36.242,17.293l-3.843,3.685c1.752,5.258,2.584,12.183,2.356,17.98c-0.005,0.058-0.005,0.117-0.015,0.176
						c0,0.054-0.003,0.103-0.012,0.153C685.401,350.864,685.401,350.874,685.396,350.882z"/>
				</g>
				<g>
					<g>
						<path style="fill:#F49C60;" d="M656.112,303.091c0.638-5.074,4.312-9.318,7.643-7.388c9.77,5.657,5.689,18.615,5.689,18.615
							c-0.973,5.056-6.565,4.668-8.826,2.704C657.753,314.531,655.497,307.987,656.112,303.091z"/>
						<path style="fill:#D87A3A;" d="M664.936,300.882c0.898,2.395,2.399,7.767,2.399,7.767c0.02,4.073-5.85,2.972-5.699-1.856
							c0.066-2.16,1.877-3.936,0.132-5.475c-1.205-1.055-2.629,0.237-3.418,1.802C658.453,298.5,663.526,297.115,664.936,300.882z"
							/>
					</g>
					<path style="fill:#FFFFFF;" d="M660.485,315.169c-0.078,0.927,0.611,1.741,1.539,1.819c0.928,0.077,1.743-0.612,1.819-1.54
						c0.077-0.927-0.612-1.742-1.54-1.818C661.375,313.551,660.56,314.241,660.485,315.169z"/>
				</g>
				<path style="fill:#F49C60;" d="M686.099,258.654c27.433-18.603,52.521,6.216,52.921,35.539c0,0-0.44,27.171-7.604,39.201
					c-5.427,9.113-32.27,24.646-43.104,22.645c-6.661-1.231-20.351-18.124-22.697-29.922
					C661.664,306.247,664.312,273.428,686.099,258.654z"/>
				<g>
					<g>
						<path style="fill:#F72828;" d="M683.128,333.875c5.502,3.436,12.374,4.497,18.931,2.643c1.119,5.04-5.639,7.933-12.373,6.712
							C681.237,341.701,680.613,333.642,683.128,333.875z"/>
						<path style="fill:#E52323;" d="M685.807,332.9c2.639,0.109,2.595,2.12,5.453,2.592c3.217,0.311,3.829-2.28,6.901-0.288
							c3.427,2.069,7.979,0.523,7.898,0.475c-7.509,5.706-20.898,5.742-28.062-3.986C681.836,334.026,684.187,332.711,685.807,332.9
							z"/>
					</g>
					<path style="fill:#D87A3A;" d="M698.733,324.299c0,0-0.22-0.007-0.59,0.022c-0.186,0.022-0.41,0.012-0.652,0.035
						c-0.241,0.02-0.523,0.02-0.82,0.039c-0.295,0.026-0.62,0.022-0.951,0.046c-0.332,0.011-0.681,0.022-1.04,0.034
						c-0.357-0.003-0.724,0.015-1.089,0.001c-0.369,0.002-0.732-0.029-1.097-0.046c-0.179-0.012-0.356-0.038-0.534-0.055
						c-0.179-0.016-0.352-0.038-0.521-0.073c-0.166-0.038-0.344-0.048-0.504-0.091c-0.159-0.044-0.316-0.088-0.477-0.122
						c-0.163-0.032-0.293-0.11-0.445-0.153c-0.15-0.047-0.295-0.098-0.419-0.172c-0.135-0.064-0.266-0.128-0.395-0.189
						c-0.123-0.069-0.226-0.155-0.342-0.227c-0.242-0.137-0.423-0.31-0.598-0.467c-0.091-0.081-0.174-0.155-0.252-0.224
						c-0.068-0.08-0.132-0.152-0.186-0.218c-0.233-0.27-0.396-0.435-0.396-0.435s-0.008,0.211,0.027,0.596
						c0.011,0.098,0.022,0.207,0.035,0.323c0.022,0.116,0.072,0.23,0.113,0.361c0.048,0.133,0.097,0.274,0.15,0.421
						c0.048,0.154,0.155,0.278,0.242,0.432c0.095,0.146,0.193,0.305,0.313,0.455c0.128,0.138,0.269,0.275,0.415,0.42
						c0.141,0.154,0.315,0.268,0.49,0.386c0.175,0.117,0.358,0.252,0.555,0.345c0.394,0.188,0.811,0.376,1.251,0.473
						c0.435,0.143,0.883,0.169,1.328,0.23c0.445,0.012,0.89,0.037,1.318-0.014c0.431-0.023,0.845-0.105,1.242-0.184
						c0.395-0.089,0.77-0.201,1.119-0.321c0.345-0.135,0.669-0.255,0.955-0.408c0.286-0.143,0.544-0.288,0.766-0.438
						c0.221-0.139,0.412-0.271,0.55-0.391C698.578,324.455,698.733,324.299,698.733,324.299z"/>
					<g>
						<path style="fill:#301F23;" d="M689.056,295.008c0.047-3.623-5.375-5.59-10.198-6.07c-4.544-0.452-8.039,1.92-9.172,4.871
							c2.591-2.195,6.76-1.975,9.463-1.038C681.954,293.745,689.165,297.935,689.056,295.008z"/>
						<path style="fill:#301F23;" d="M710.243,298.522c0.083-3.623,5.571-5.392,10.41-5.7c4.556-0.29,7.964,2.206,8.991,5.195
							c-2.512-2.285-6.684-2.217-9.419-1.376C717.386,297.513,710.028,301.445,710.243,298.522z"/>
						<g>
							<path style="fill:#D87A3A;" d="M670.924,298.899c1.54-1.173,3.747-2.605,6.927-2.782c2.728-0.195,5.286,1.26,6.73,3.237
								c0.517,0.696,0.971,1.731,1.275,2.55c0.536,1.414,0.245,4.305,0.233,4.685c-1.06,0.475-1.709-1.437-2.815-1.089
								c-2.144,0.709-4.559,0.897-6.116,0.611c-1.951-0.352-3.342-0.967-4.875-1.862c-1.222-0.679-3.042,0.753-5.238,0.013
								C667.538,301.897,669.386,300.126,670.924,298.899z"/>
							<g>
								<path style="fill:#FFFFFF;" d="M667.044,304.261c2.195,0.74,3.543,1.67,4.764,2.348c1.534,0.895,2.924,1.51,4.876,1.862
									c1.557,0.287,3.971,0.099,6.116-0.61c1.105-0.349,2.228-0.797,3.288-1.273c-0.007-0.019-0.171-0.91-0.706-2.323
									c-0.305-0.82-0.758-1.855-1.274-2.549c-1.444-1.98-4.003-3.435-6.73-3.238c-3.182,0.177-5.386,1.608-6.929,2.782
									C668.912,302.487,667.946,303.526,667.044,304.261z"/>
								<path style="fill:#1E0C0C;" d="M671.808,306.609c1.534,0.895,2.924,1.51,4.876,1.862c1.557,0.287,3.971,0.099,6.116-0.61
									c0.535-0.678,1.824-5.451,1.308-6.145c-1.444-1.98-4.003-3.435-6.73-3.238c-3.182,0.177-5.386,1.608-6.929,2.782
									C670.329,302.447,671.486,305.932,671.808,306.609z"/>
							</g>
							<path style="fill:#FFFFFF;" d="M673.762,303.775c-0.084,0.999,0.202,1.839,0.639,1.875c0.439,0.037,0.86-0.744,0.943-1.743
								c0.084-1-0.204-1.84-0.641-1.877C674.266,301.994,673.845,302.775,673.762,303.775z"/>
						</g>
						<g>
							<path style="fill:#D87A3A;" d="M711.066,304.228c1.541-1.173,3.747-2.606,6.929-2.784c2.726-0.194,5.286,1.261,6.729,3.24
								c0.516,0.694,0.971,1.73,1.274,2.55c0.536,1.413,0.247,4.304,0.234,4.684c-1.06,0.476-1.709-1.438-2.815-1.088
								c-2.144,0.709-4.558,0.897-6.116,0.61c-1.952-0.353-3.343-0.966-4.877-1.862c-1.221-0.678-3.041,0.754-5.237,0.013
								C707.682,307.225,709.529,305.455,711.066,304.228z"/>
							<g>
								<path style="fill:#FFFFFF;" d="M707.188,309.59c2.195,0.741,3.543,1.669,4.765,2.348c1.533,0.895,2.923,1.51,4.876,1.862
									c1.557,0.286,3.971,0.098,6.115-0.611c1.106-0.348,2.229-0.796,3.288-1.272c-0.008-0.019-0.172-0.911-0.706-2.324
									c-0.304-0.82-0.758-1.854-1.275-2.55c-1.443-1.977-4.002-3.433-6.729-3.237c-3.182,0.178-5.387,1.609-6.929,2.784
									C709.056,307.815,708.09,308.854,707.188,309.59z"/>
								<path style="fill:#1E0C0C;" d="M711.953,311.938c1.533,0.895,2.923,1.51,4.876,1.862c1.557,0.286,3.971,0.098,6.115-0.611
									c0.534-0.677,1.824-5.451,1.307-6.147c-1.443-1.977-4.002-3.433-6.729-3.237c-3.182,0.178-5.387,1.609-6.929,2.784
									C710.474,307.775,711.63,311.26,711.953,311.938z"/>
							</g>
							<path style="fill:#FFFFFF;" d="M713.906,309.102c-0.084,1.002,0.202,1.839,0.64,1.877c0.437,0.036,0.859-0.745,0.943-1.745
								c0.083-1-0.205-1.84-0.641-1.876C714.41,307.323,713.989,308.103,713.906,309.102z"/>
						</g>
					</g>
				</g>
				<path style="fill:#301F23;" d="M695.564,235.656c0.748-7.776,8.33-14.225,13.616-2.314c-2.652-13.46,12.978-17.131,15.087-6.068
					c3.798-3.294,13.502,0.025,11.929,7.197c3.951-2.868,10.537-3.309,9.623,3.818c4.59-4.287,15.318-3.357,13.156,5.565
					c10.429-0.365,16.974,9.856,11.928,20.385c4.519,0.982,8.806,1.832,9.866,7.593c0.609,3.309-0.618,7.783-3.14,9.883
					c11.72,2.847,9.197,23.103-3.787,19.982c6.27,5.61,5.867,18.969-5.668,15.37c7.199,6.876-4.837,23.414-11.498,10.859
					l-11.374,0.865c-2.896,1.001-7.399-0.424-9.49-2.89c-2.495-2.941-5.608-11.486-1.054-14.088
					c-4.258-2.09-5.346-9.488-3.582-13.72c-3.689-0.433-9.304-6.353-6.671-10.586c-5.048,3.599-15.363-9.231-10.369-13.328
					c-10.687,3.614-16.44-3.977-14.599-10.746c-6.331,5.16-21.161-5.668-8.776-12.829
					C675.355,248.646,686.889,230.162,695.564,235.656z"/>
				<g>
					<g>
						<path style="fill:#F49C60;" d="M748.668,319.322c1.243-5.511-1.283-11.4-5.815-10.755
							c-13.285,1.885-13.679,16.96-13.679,16.96c-0.854,5.631,5.644,7.5,8.973,6.388C742.367,330.5,747.467,324.643,748.668,319.322
							z"/>
						<path style="fill:#D87A3A;" d="M739.503,313.449c-1.947,2.115-5.734,7.068-5.734,7.068c-1.602,4.209,5.488,5.455,7.19,0.394
							c0.762-2.262-0.605-4.838,1.974-5.72c1.776-0.604,2.891,1.314,3.181,3.255C747.79,313.62,742.566,310.122,739.503,313.449z"/>
					</g>
					<path style="fill:#FFFFFF;" d="M734.943,328.301c-0.086,1.025,0.675,1.925,1.701,2.01c1.024,0.085,1.924-0.676,2.011-1.701
						c0.086-1.025-0.677-1.924-1.701-2.009C735.928,326.514,735.027,327.277,734.943,328.301z"/>
				</g>
				<path style="fill:#E8CEB8;" d="M568.061,510.4h70.834c0.431-0.741,0.851-1.494,1.245-2.247c0.244-0.461,0.48-0.923,0.711-1.384
					c3.18-6.321,5.58-12.988,7.517-19.849c0.139-0.486,0.272-0.978,0.413-1.476c1.851-6.794,3.291-13.765,4.638-20.754
					c0.091-0.498,0.19-1.002,0.286-1.506c1.342-7.019,2.61-14.044,4.14-20.911c0.11-0.504,0.225-0.996,0.334-1.493
					c1.494-6.503,3.243-12.86,5.532-18.932l0.219-0.571l0.546-1.445l5.337-13.959v-0.006l0.565-1.482l0.547-1.427
					c1.827-4.797,3.959-9.836,5.391-14.566c-1.153-0.279-2.307-0.559-3.454-0.857c-0.006,0-0.006,0-0.013,0
					c-7.171-1.803-14.287-3.886-21.069-6.892c-2.739-1.214-5.27-2.337-7.658-3.212c-8.263-3.029-14.827-3.145-22.332,5.799
					c-0.333,0.4-0.667,0.813-1.001,1.232c-3.249,4.117-6.412,9.259-9.46,14.998c-0.237,0.449-0.479,0.904-0.717,1.366
					c-2.945,5.689-5.774,11.907-8.452,18.258c-0.206,0.48-0.407,0.954-0.601,1.433c-0.528,1.269-1.05,2.538-1.566,3.813
					c-2.053,5.088-4.008,10.183-5.84,15.101c-0.177,0.486-0.358,0.971-0.541,1.457c-0.576,1.56-1.142,3.096-1.695,4.608
					c-0.771,2.125-1.524,4.19-2.24,6.181c-0.911,2.52-1.779,4.924-2.599,7.164c-0.133,0.377-0.273,0.753-0.406,1.118
					c-0.176,0.492-0.358,0.983-0.535,1.463c-0.098,0.255-0.189,0.51-0.279,0.765v0.006c-1.117,3.018-2.125,5.659-3.018,7.82
					c-0.06,0.146-0.115,0.291-0.176,0.431c-0.183,0.443-0.365,0.874-0.541,1.299c-0.005,0.018-0.017,0.031-0.025,0.049
					c-1.298,3.091-2.488,5.811-3.575,8.294c-2.265,5.179-5.338,11.397-7.584,17.809C569.482,502.057,568.377,506.301,568.061,510.4z
					"/>
				<path style="fill:#E8CEB8;" d="M623.965,472.366v0.006c0.079,0.322,0.182,0.613,0.292,0.892
					c4.061,10.031,12.277,8.325,11.84,20.032c-0.219,5.677-0.182,11.397-0.127,17.104h158.76
					c-0.388-6.157-0.856-12.296-1.347-18.379c-0.031-0.371-0.061-0.741-0.091-1.112c-0.025-0.231-0.043-0.467-0.061-0.698
					c-0.03-0.358-0.055-0.692-0.091-1.05v-0.006c-0.692-8.161-1.487-16.194-2.35-23.99c-0.055-0.601-0.133-1.196-0.195-1.791
					c-0.983-8.695-2.069-17.043-3.236-24.894c-0.09-0.595-0.175-1.19-0.26-1.779c-1.233-8.13-2.556-15.696-3.959-22.472
					c-0.121-0.589-0.249-1.178-0.382-1.761c-1.208-5.701-2.477-10.814-3.795-15.21c-0.316-1.063-0.644-2.089-0.965-3.06
					c-0.201-0.589-0.395-1.166-0.595-1.719c-2.186-6.163-4.475-10.298-6.831-11.816c0-0.006-0.006-0.006-0.006-0.006
					c0-0.006-0.006-0.006-0.006-0.006c-0.013-0.006-0.018-0.012-0.031-0.018c-0.316-0.194-0.626-0.346-0.935-0.449
					c-0.036-0.012-0.073-0.025-0.109-0.031c-0.006-0.006-0.006-0.006-0.013-0.006c-0.139-0.049-0.272-0.085-0.412-0.104h-0.006
					c-0.006,0-0.018,0-0.024-0.006h-0.006c-0.098-0.012-0.182-0.024-0.274-0.031c0,0-0.115,0.018-0.333,0.061
					c-0.006,0-0.006,0-0.013,0c-0.018,0-0.031,0.006-0.048,0.006c-0.273,0.055-0.662,0.115-1.19,0.207h-0.006
					c-8.938,1.493-37.279,17.446-112.675,2.393c-0.025-0.005-7.147,1.328-7.165,1.316c-1.421-0.382-2.775-0.795-4.068-1.245
					c-0.006,0-0.03-0.012-0.042-0.012c-0.632-0.224-1.263-0.455-1.864-0.692c-0.188-0.079-0.364-0.079-0.523,0.012
					c-1.445,0.723-4.263,2.21-4.481,12.544c-0.006,0.273,0.45,1.622,0.953,3.079c0.608,1.773,1.288,3.71,1.288,4.062
					c-0.116,5.932-0.134,12.903-0.176,20.486v0.049c-0.572,2.975-1.258,5.895-2.229,8.834c-2.38,7.177-6.424,13.358-9.223,20.207
					c-1.293,3.163-2.434,7.487-3.011,11.603v0.006C623.418,466.561,623.339,470.022,623.965,472.366z"/>
				<path style="fill:#E8CEB8;" d="M753.908,427.246c0.407,2.793,0.699,5.623,0.911,8.47c0.037,0.522,0.067,1.05,0.109,1.573
					c0.352,5.641,0.389,11.385,0.316,17.171c1.482,2.945,3.091,5.847,4.706,8.732c2.629,4.681,5.203,9.368,7.742,14.087
					c3.006,5.598,4.584,11.712,5.757,17.778c0.971,5.07,1.341,10.195,1.518,15.344h55.727c-0.57-1.743-1.178-3.497-1.802-5.271
					c-0.231-0.656-0.455-1.317-0.687-1.986c0-0.006-0.012-0.006-0.012-0.006c-0.297-0.88-0.601-1.773-0.898-2.678
					c-1.274-3.837-2.471-7.869-3.321-12.277c-0.078-0.358-0.145-0.723-0.206-1.087c-0.31-1.712-0.638-3.437-1.002-5.161
					c-0.152-0.735-0.304-1.481-0.467-2.222c-0.145-0.668-0.297-1.354-0.443-2.022c-1.385-6.084-3.018-12.204-4.815-18.312
					c-0.499-1.725-1.021-3.449-1.55-5.167c-0.182-0.607-0.37-1.214-0.565-1.822c-2.397-7.718-4.96-15.344-7.48-22.788
					c-0.182-0.547-0.37-1.087-0.54-1.634h-0.006c-0.225-0.631-0.437-1.263-0.65-1.894c-1.73-5.113-2.792-12.047-4.887-18.987
					c-0.152-0.51-0.316-1.033-0.486-1.542c-1.628-5.003-3.868-9.934-7.341-14.111c-0.474-0.577-0.978-1.135-1.5-1.676h-0.006
					c-4.875-5.046-11.919-8.713-22.436-9.6c-0.036-0.006-0.073-0.006-0.109-0.006c-0.006-0.006-0.006-0.006-0.013-0.006
					c-0.06-0.006-0.12-0.006-0.182-0.012c-0.006,0-0.006,0-0.011,0c-0.28-0.024-0.577-0.048-0.862-0.067c-0.006,0-0.006,0-0.013,0
					c-0.018-0.006-0.031-0.006-0.048-0.006c-0.37-0.018-0.741-0.036-1.124-0.055l-0.06,0.231l-0.013,0.043l-3.77,13.364
					l-0.486,1.718l-1.894,6.709l-3.188,11.312l-0.474,1.669L753.908,427.246z"/>
				<g>
					<path style="fill:#F49C60;" d="M611.647,445.418c1.476,6.634,6.474,13.483,8.746,20.131c2.635,7.71,3.153,14.183-1.312,21.275
						c-4.185,6.643-11.055,11.258-19.083,8.611c-7.09-2.337-11.843-11.493-13.827-18.31c-1.311-4.507-0.914-8.513-0.556-12.659
						L611.647,445.418z"/>
					<g>
						<path style="fill:#F49C60;" d="M600.825,506.186c1.249-1.531,1.627-3.058,2.419-6.967c0.722-3.559,1.01-7.246,1.762-10.75
							c0.399-1.849,1.308-3.732,2.338-5.556c0.92-1.638,1.934-3.222,2.761-4.682c3.13-5.522,10.293-16.152,6.381-22.631
							c-1.16-1.923-3.003-3.38-4.027-5.196c-0.427-0.763-0.762-1.557-1.035-2.369c-0.443-1.309-0.736-2.671-1.036-4.033
							c-1.072-4.841-1.977-8.382-6.352-11.13c-3.462-2.173-7.132-3.762-10.825-5.339c-3.63-1.553-5.718-5.859-8.776-8.439
							c-1.824-1.542-6.002-6.444-8.932-5.702c-3.954,0.999-3.151,7.006-1.984,9.008c2.018,3.474,5.18,5.114,7.759,7.819
							c2.403,2.516,3.583,5.016,3.936,8.495c0,0-0.45,2.088-3.006,5.004c-0.141,0.162-0.289,0.325-0.444,0.488
							c-1.563,1.685-3.813,3.599-7.047,5.535c-1.247,0.744-2.461,1.506-3.662,2.289c-0.178,0.108-0.354,0.226-0.532,0.34
							c-2.3,1.504-4.56,3.069-6.902,4.696c-3.729,2.593-7.56,5.088-10.936,8.026c-2.019,1.75-7.957,7.126-7.264,10.348
							c1.412,6.553,18.772-6.6,21.648-8.207c2.25-1.255,9.037-6.589,9.007-1.903c-0.018,3.727-3.879,8.237-5.926,11.072
							c-4.815,6.667-10.849,14.859-13.176,23.312c-0.995,3.616,0.136,9.12,5.524,5.663c3.005-1.93,5.16-6.705,7.25-9.605
							c4.527-6.283,9.3-12.812,14.604-18.382c-1.059,3.584-12.206,16.302-13.989,19.69c-1.8,3.417-3.402,9.368,2.749,7.183
							c4.193-1.489,7.155-5.813,9.796-9.076c2.161-2.668,11.625-14.479,13.657-14.133c0.433,3.745-1.428,15.43-1.574,19.609
							C594.878,503.951,597.035,510.839,600.825,506.186z"/>
						<path style="fill:#D87A3A;" d="M607.345,482.913c0.92-1.638,1.934-3.222,2.761-4.682c3.13-5.522,10.293-16.152,6.381-22.631
							c-1.16-1.923-3.003-3.38-4.027-5.196c-0.427-0.763-0.762-1.557-1.035-2.369c-0.665,0.876-1.365,1.641-1.976,2.216
							c-3.018,2.85-6.593,4.474-10.841,4.007c-7.159-0.788-12.216-5.205-16.399-10.541c-0.141,0.162-0.289,0.325-0.444,0.488
							c3.058,17.118,17.023,18.999,28.138,16.467c-2.784,3.164-4.434,16.286-3.864,21.805
							C606.088,482.95,606.926,482.768,607.345,482.913z"/>
					</g>
				</g>
			</g>
			<g>
				<path style="fill:#CCAF9A;" d="M630.456,510.4h8.209c4.317-22.884,10.626-55.624,12.174-69.438
					c1.003-8.968-10.813,31.039-14.772,45.581C634.433,492.579,632.702,501.754,630.456,510.4z"/>
			</g>
			<g>
				<path style="fill:#CCAF9A;" d="M764.687,510.4h7.432c-0.049-3.771-0.11-7.225-0.256-10.116c-0.2-3.904-0.522-9.308-0.911-15.259
					c-1.39-21.385-3.643-49.856-4.31-41.392c-0.529,6.764-0.924,17.353-1.239,29.424C765.105,484.831,764.88,498.013,764.687,510.4z
					"/>
			</g>
		</g>
	</g>
</g>
<g>
	<g>
		<g>
			<g>
				<g>
					<path style="fill:#639358;" d="M958.627,645.344c0,6.585,2.717,11.923,6.068,11.923h132.293c3.351,0,6.068-5.338,6.068-11.923
						v-13.12c0-6.585-2.717-11.923-6.068-11.923H964.695c-3.351,0-6.068,5.339-6.068,11.923V645.344z"/>
					<path style="fill:#86CC75;" d="M1081.212,657.266h8.9c3.349,0,6.068-5.336,6.068-11.922v-13.118
						c0-6.587-2.718-11.925-6.068-11.925h-8.9c3.35,0,6.068,5.338,6.068,11.925v13.118
						C1087.28,651.93,1084.561,657.266,1081.212,657.266z"/>
					<path style="fill:#86CC75;" d="M992.218,657.266h8.899c3.349,0,6.068-5.336,6.068-11.922v-13.118
						c0-6.587-2.718-11.925-6.068-11.925h-8.899c3.349,0,6.068,5.338,6.068,11.925v13.118
						C998.285,651.93,995.567,657.266,992.218,657.266z"/>
					<path style="fill:#3C6333;" d="M866.952,655.777c-0.746,0.948-1.604,1.489-2.518,1.489h110.839c2.872,0,5.2-5.336,5.2-11.922
						v-13.118c0-6.587-2.328-11.925-5.2-11.925H864.434c1.196,0,2.298,0.925,3.173,2.481c0.522,0.925,0.965,2.071,1.304,3.379
						c0.132,0.506,0.247,1.037,0.344,1.59c0.12,0.677,0.213,1.387,0.278,2.121c0.044,0.518,0.075,1.049,0.089,1.59
						c0.008,0.253,0.012,0.508,0.012,0.764v13.118c0,1.066-0.061,2.101-0.176,3.083c-0.063,0.548-0.144,1.079-0.238,1.593
						c-0.103,0.554-0.224,1.084-0.36,1.59c-0.152,0.563-0.324,1.097-0.514,1.591C867.951,654.234,867.48,655.108,866.952,655.777z"
						/>
					<path style="fill:#FFFFFF;" d="M866.952,655.777h105.581c2.955,0,5.35-4.763,5.35-10.642v-11.709
						c0-5.88-2.394-10.645-5.35-10.645H867.607c0.522,0.925,0.965,2.071,1.304,3.379c0.132,0.506,0.247,1.037,0.344,1.59
						c0.12,0.677,0.213,1.387,0.278,2.121c0.044,0.518,0.075,1.049,0.089,1.59c0.008,0.253,0.012,0.508,0.012,0.764v13.118
						c0,1.066-0.061,2.101-0.176,3.083c-0.063,0.548-0.144,1.079-0.238,1.593c-0.103,0.554-0.224,1.084-0.36,1.59
						c-0.152,0.563-0.324,1.097-0.514,1.591C867.951,654.234,867.48,655.108,866.952,655.777z"/>
					<g>
						<path style="fill:#B2AC96;" d="M868.911,626.159c0.132,0.506,0.247,1.037,0.344,1.59h101.284v-1.59H868.911z"/>
						<path style="fill:#B2AC96;" d="M868.346,653.2h103.003v-1.591H868.859C868.708,652.173,868.536,652.706,868.346,653.2z"/>
						<path style="fill:#B2AC96;" d="M869.533,629.871c0.044,0.518,0.075,1.049,0.089,1.59H974.18v-1.59H869.533z"/>
						<rect x="869.634" y="634.113" style="fill:#B2AC96;" width="104.142" height="1.59"/>
						<rect x="869.634" y="638.883" style="fill:#B2AC96;" width="104.142" height="1.593"/>
						<rect x="869.634" y="643.656" style="fill:#B2AC96;" width="104.142" height="1.59"/>
						<path style="fill:#B2AC96;" d="M869.219,650.019h104.556v-1.593H869.458C869.395,648.975,869.314,649.506,869.219,650.019z"/>
					</g>
				</g>
				<g>
					<path style="fill:#FF1D1D;" d="M578.007,576.404v63.229c0,10.582-8.58,19.16-19.16,19.16h-25.549
						c-10.579,0-19.159-8.578-19.159-19.16v-63.229H578.007z"/>
					<path style="fill:#FF5050;" d="M555.058,596.66c0,26.487-12.105,47.957-27.038,47.957c-5.076,0-9.824-2.48-13.882-6.797
						v-61.416h38.396C554.155,582.557,555.058,589.421,555.058,596.66z"/>
					<path style="fill:#FF1D1D;" d="M578.232,638.18c-0.586-0.014-1.17-0.039-1.754-0.078c-0.279-0.019-0.556-0.045-0.833-0.071
						c-0.128-0.012-1.037-0.125-0.211-0.013c-1.058-0.143-2.103-0.37-3.128-0.669c-0.432-0.126-0.857-0.277-1.277-0.437
						c-0.715-0.272,0.66,0.296-0.027-0.01c-0.192-0.086-0.38-0.18-0.568-0.274c-0.366-0.183-0.719-0.389-1.067-0.605
						c-0.17-0.105-0.334-0.217-0.499-0.33c-0.74-0.507,0.302,0.26-0.13-0.089c-0.6-0.485-1.141-1.038-1.64-1.625
						c-0.129-0.152-0.539-0.706,0.027,0.047c-0.116-0.155-0.226-0.314-0.335-0.474c-0.258-0.376-0.49-0.771-0.712-1.17
						c-0.194-0.35-0.368-0.711-0.536-1.074c-0.305-0.66,0.281,0.696,0.004,0.017c-0.079-0.193-0.151-0.388-0.223-0.583
						c-0.327-0.881-0.58-1.789-0.799-2.702c-0.218-0.904-0.382-1.821-0.524-2.74c-0.024-0.158-0.134-0.982-0.019-0.108
						c-0.032-0.246-0.061-0.492-0.089-0.739c-0.069-0.591-0.122-1.183-0.172-1.776c-0.191-2.295-0.252-4.599-0.28-6.901
						c-0.029-2.418-0.024-4.838,0.101-7.254c0.05-0.966,0.129-1.931,0.239-2.893c0.022-0.188,0.133-0.968-0.001-0.019
						c0.029-0.21,0.063-0.419,0.098-0.628c0.076-0.463,0.169-0.923,0.272-1.38c0.161-0.716,0.37-1.42,0.62-2.109
						c0.059-0.162,0.123-0.322,0.188-0.482c-0.38,0.94-0.147,0.356-0.052,0.152c0.162-0.347,0.346-0.684,0.539-1.015
						c0.163-0.279,0.343-0.547,0.528-0.81c0.129-0.184,0.516-0.663-0.115,0.138c0.1-0.127,0.205-0.25,0.31-0.372
						c0.469-0.548,0.997-1.044,1.547-1.51c0.133-0.112,0.269-0.22,0.406-0.329c-0.771,0.611-0.251,0.198-0.08,0.073
						c0.301-0.22,0.611-0.427,0.923-0.631c0.739-0.483,1.509-0.918,2.286-1.336c1.82-0.98,3.709-1.83,5.598-2.667
						c1.085-0.481,2.173-0.952,3.263-1.421c0.836-0.359-0.603,0.25,0.227-0.095c0.245-0.101,0.49-0.201,0.736-0.3
						c0.557-0.225,1.119-0.442,1.681-0.655c1.835-0.694,3.701-1.308,5.593-1.828c1.634-0.45,3.292-0.812,4.967-1.072
						c0.218-0.034,0.91-0.128-0.117,0.01c0.181-0.024,0.362-0.046,0.543-0.067c0.353-0.042,0.707-0.075,1.062-0.105
						c0.726-0.062,1.455-0.091,2.183-0.096c0.626-0.004,1.252,0.021,1.876,0.067c0.296,0.022,0.593,0.053,0.888,0.087
						c0.595,0.069-0.87-0.124-0.282-0.038c0.187,0.027,0.373,0.06,0.56,0.093c1.086,0.193,2.153,0.497,3.177,0.909
						c-1.15-0.463-0.242-0.099,0.023,0.028c0.219,0.104,0.433,0.218,0.646,0.334c0.449,0.246,0.879,0.524,1.296,0.822
						c0.576,0.413-0.7-0.572-0.012-0.008c0.177,0.146,0.348,0.298,0.516,0.454c0.363,0.334,0.7,0.695,1.019,1.069
						c0.074,0.086,0.145,0.175,0.216,0.263c0.322,0.399-0.534-0.702-0.226-0.292c0.136,0.182,0.266,0.37,0.392,0.559
						c0.277,0.413,0.525,0.845,0.755,1.286c0.107,0.206,0.208,0.416,0.306,0.626c0.38,0.82-0.269-0.68-0.002-0.012
						c0.193,0.482,0.357,0.974,0.504,1.472c0.139,0.471,0.255,0.95,0.357,1.431c0.052,0.245,0.097,0.492,0.14,0.739
						c0.022,0.125,0.041,0.25,0.061,0.375c0.118,0.757-0.095-0.758-0.027-0.222c0.138,1.095,0.189,2.201,0.184,3.304
						c-0.005,1.167-0.088,2.333-0.222,3.491c-0.116,1.008,0.096-0.64-0.017,0.148c-0.042,0.289-0.088,0.579-0.137,0.867
						c-0.107,0.636-0.233,1.268-0.37,1.899c-0.552,2.534-1.348,5.013-2.31,7.42c-0.099,0.249-0.56,1.339-0.104,0.268
						c-0.126,0.297-0.256,0.592-0.388,0.886c-0.286,0.641-0.589,1.276-0.9,1.906c-0.605,1.22-1.26,2.414-1.956,3.585
						c-0.698,1.175-1.445,2.319-2.232,3.436c-0.377,0.535-0.766,1.06-1.164,1.579c0.689-0.901-0.038,0.042-0.202,0.246
						c-0.237,0.296-0.479,0.588-0.723,0.878c-1.444,1.715-3.018,3.321-4.71,4.792c-0.395,0.343-0.799,0.676-1.208,1.003
						c-0.658,0.526,0.583-0.439-0.087,0.07c-0.247,0.187-0.498,0.37-0.75,0.55c-0.911,0.654-1.86,1.257-2.834,1.812
						c-0.913,0.521-1.857,0.986-2.821,1.403c1.07-0.462,0.19-0.083-0.056,0.013c-0.276,0.108-0.554,0.209-0.833,0.308
						c-0.509,0.18-1.026,0.339-1.547,0.485c-0.99,0.278-1.999,0.483-3.016,0.626c1.209-0.17,0.256-0.04-0.021-0.012
						c-0.293,0.03-0.587,0.05-0.881,0.068C579.319,638.182,578.775,638.189,578.232,638.18c-1.755-0.028-3.219,1.485-3.219,3.219
						c0,1.775,1.464,3.19,3.219,3.218c11.543,0.182,21.182-7.625,27.659-16.508c3.31-4.54,5.867-9.654,7.649-14.977
						c1.594-4.76,2.552-9.952,2.167-14.981c-0.359-4.69-1.879-9.372-5.319-12.723c-3.764-3.667-9.103-4.934-14.226-4.773
						c-8.032,0.252-15.586,3.399-22.823,6.606c-3.54,1.569-7.02,3.222-10.046,5.672c-2.538,2.055-4.223,4.93-5.12,8.043
						c-1.174,4.075-1.187,8.518-1.184,12.723c0.002,4.69,0.141,9.385,0.915,14.02c0.651,3.896,2.04,7.565,4.518,10.664
						c2.45,3.064,6.261,4.867,10.037,5.631c1.895,0.383,3.842,0.559,5.773,0.604c1.754,0.041,3.218-1.495,3.218-3.218
						C581.45,639.613,579.985,638.221,578.232,638.18z"/>
				</g>
				<g>
					<g>
						
							<rect x="1018.519" y="583.475" transform="matrix(0.1483 -0.9889 0.9889 0.1483 342.1637 1570.1465)" style="fill:#FF9022;" width="128.27" height="5.899"/>
						<polygon style="fill:#CCC2B8;" points="1089.248,522.562 1095.082,523.436 1094.512,513.273 1094.308,509.647 
							1094.222,508.11 1092.546,512.978 						"/>
						<polygon style="fill:#545352;" points="1092.546,512.978 1094.512,513.273 1094.308,509.647 1094.222,508.11 						"/>
						<polygon style="opacity:0.5;fill:#FF9022;" points="1089.248,522.562 1070.227,649.413 1072.486,649.752 1091.546,522.642 
							1093.567,513.132 1094.308,509.647 1094.222,508.11 1092.546,512.978 						"/>
					</g>
					<g>
						<path style="fill:#51B5BF;" d="M1054.846,530.714v115.784c0,1.638,1.225,2.99,2.81,3.19c0.135,0.016,0.269,0.025,0.408,0.025
							c0.891,0,1.691-0.359,2.275-0.939c0.584-0.584,0.943-1.389,0.943-2.275V530.714c0-1.776-1.442-3.214-3.218-3.214
							c-0.139,0-0.273,0.008-0.408,0.024c-0.727,0.094-1.372,0.425-1.866,0.915C1055.205,529.024,1054.846,529.828,1054.846,530.714
							z"/>
						<path style="fill:#6FE9EF;" d="M1054.846,530.714v16.1h6.436v-16.1c0-1.776-1.442-3.214-3.218-3.214
							c-0.139,0-0.273,0.008-0.408,0.024c-0.727,0.094-1.372,0.425-1.866,0.915C1055.205,529.024,1054.846,529.828,1054.846,530.714
							z"/>
						<rect x="1054.846" y="546.267" style="fill:#303535;" width="6.436" height="2.724"/>
						<path style="fill:#303535;" d="M1060.378,546.541c3.226-0.144,6.099,1.086,7.026,4.376c0.924,3.282-0.086,7.086-0.867,10.291
							c-0.852,3.492-2.104,6.991-2.453,10.584c-0.085,0.879-0.18,2.227,0.391,2.858c0.709,0.782,2.573,0.132,3.473-0.158
							c1.509-0.486,2.15,1.88,0.652,2.363c-2.578,0.831-5.724,1.001-6.756-2.044c-0.977-2.882,0.355-6.657,1.079-9.448
							c0.962-3.705,2.196-7.47,2.339-11.321c0.126-3.412-1.391-5.206-4.883-5.05
							C1058.798,549.061,1058.804,546.611,1060.378,546.541L1060.378,546.541z"/>
						<path style="opacity:0.3;fill:#303535;" d="M1054.846,530.714v115.784c0,1.638,1.225,2.99,2.81,3.19V527.525
							c-0.727,0.094-1.372,0.425-1.866,0.915C1055.205,529.024,1054.846,529.828,1054.846,530.714z"/>
					</g>
					<g>
						<path style="fill:#4996EA;" d="M1035.875,517.762l12.203,129.909c0.173,1.837,1.69,3.225,3.489,3.282
							c0.153,0.004,0.305,0,0.461-0.016c0.999-0.094,1.859-0.581,2.454-1.293c0.594-0.717,0.911-1.658,0.818-2.652l-12.203-129.908
							c-0.187-1.992-1.957-3.454-3.949-3.267c-0.156,0.014-0.306,0.038-0.455,0.071c-0.806,0.182-1.496,0.621-1.998,1.223
							C1036.1,515.827,1035.781,516.768,1035.875,517.762z"/>
						<path style="fill:#FF2B15;" d="M1035.875,517.762l1.697,18.063l7.221-0.678l-1.697-18.064
							c-0.187-1.992-1.957-3.454-3.949-3.267c-0.156,0.014-0.306,0.038-0.455,0.071c-0.806,0.182-1.496,0.621-1.998,1.223
							C1036.1,515.827,1035.781,516.768,1035.875,517.762z"/>
						
							<rect x="1037.641" y="534.866" transform="matrix(0.9956 -0.0935 0.0935 0.9956 -45.6133 99.7614)" style="fill:#FF9022;" width="7.253" height="3.07"/>
						<path style="fill:#FF9022;" d="M1043.75,534.935c3.605-0.501,6.957,0.577,8.344,4.17c1.383,3.585,0.651,7.959,0.112,11.638
							c-0.587,4.008-1.623,8.066-1.636,12.134c-0.003,0.995,0.033,2.518,0.74,3.165c0.878,0.804,2.901-0.123,3.88-0.543
							c1.641-0.704,2.609,1.882,0.98,2.582c-2.805,1.203-6.317,1.726-7.796-1.581c-1.399-3.131-0.304-7.507,0.215-10.715
							c0.688-4.258,1.677-8.612,1.43-12.949c-0.218-3.841-2.11-5.694-6.011-5.152C1042.242,537.93,1041.991,535.18,1043.75,534.935
							L1043.75,534.935z"/>
						<path style="opacity:0.3;fill:#303535;" d="M1035.875,517.762l12.203,129.909c0.173,1.837,1.69,3.225,3.489,3.282
							l-12.875-137.066c-0.806,0.182-1.496,0.621-1.998,1.223C1036.1,515.827,1035.781,516.768,1035.875,517.762z"/>
					</g>
					<g>
						<path style="fill:#FF2B15;" d="M1058.556,645.176l-24.506-109.815l-4.193-10.061l-3.226,0.72l0.722,10.837l24.505,109.815
							c0.413,1.848,2.246,3.01,4.095,2.598c0.146-0.032,0.283-0.071,0.421-0.121c0.735-0.267,1.331-0.761,1.73-1.384
							C1058.575,647.022,1058.762,646.101,1058.556,645.176z"/>
						<path style="fill:#F9A826;" d="M1058.557,645.177l-3.739-16.753l-6.697,1.495l3.739,16.753
							c0.412,1.848,2.247,3.01,4.095,2.597c0.144-0.033,0.282-0.073,0.419-0.121c0.735-0.267,1.33-0.761,1.73-1.385
							C1058.576,647.021,1058.763,646.1,1058.557,645.177z"/>
						
							<rect x="1045.766" y="627.101" transform="matrix(0.976 -0.2178 0.2178 0.976 -111.6823 243.8235)" style="fill:#303535;" width="8.971" height="2.904"/>
						<polygon style="fill:#303535;" points="1029.857,525.3 1025.961,515.957 1026.631,526.019 						"/>
						<polygon style="fill:#FFFFFF;" points="1034.05,535.361 1029.857,525.3 1026.631,526.019 1027.353,536.856 						"/>
						<path style="opacity:0.3;fill:#303535;" d="M1058.556,645.176l-24.506-109.815l-4.193-10.061l-1.067,0.238l27.584,123.61
							c0.735-0.267,1.331-0.761,1.73-1.384C1058.575,647.022,1058.762,646.101,1058.556,645.176z"/>
						<path style="fill:#303535;" d="M1038.896,590.643c-0.139-0.619-0.753-1.011-1.373-0.872l0,0
							c-0.62,0.139-1.01,0.754-0.872,1.373l8.683,38.911c0.139,0.62,0.753,1.01,1.373,0.872l0,0c0.62-0.138,1.011-0.753,0.872-1.373
							L1038.896,590.643z"/>
					</g>
					<g>
						<g>
							<g>
								<path style="fill:#151D2B;" d="M1036.744,578.031v74.026c0,3.245,2.63,5.875,5.875,5.875h40.734
									c3.245,0,5.875-2.63,5.875-5.875v-74.026H1036.744z M1055.231,586.832h-2.503v-1.751h2.503V586.832z M1055.231,592.637
									h-2.503v-3.87h2.503V592.637z M1055.231,598.441h-2.503v-3.87h2.503V598.441z M1055.231,604.246h-2.503v-3.87h2.503V604.246
									z M1055.231,610.049h-2.503v-3.87h2.503V610.049z M1055.231,615.853h-2.503v-3.87h2.503V615.853z M1058.987,586.832h-2.505
									v-1.751h2.505V586.832z M1058.987,592.637h-2.505v-3.87h2.505V592.637z M1058.987,598.441h-2.505v-3.87h2.505V598.441z
									 M1058.987,604.246h-2.505v-3.87h2.505V604.246z M1058.987,610.049h-2.505v-3.87h2.505V610.049z M1058.987,615.853h-2.505
									v-3.87h2.505V615.853z M1058.987,621.658h-2.505v-3.87h2.505V621.658z M1058.987,627.461h-2.505v-3.868h2.505V627.461z
									 M1062.741,586.832h-2.503v-1.751h2.503V586.832z M1062.741,592.637h-2.503v-3.87h2.503V592.637z M1062.741,598.441h-2.503
									v-3.87h2.503V598.441z M1062.741,604.246h-2.503v-3.87h2.503V604.246z M1062.741,610.049h-2.503v-3.87h2.503V610.049z
									 M1062.741,615.853h-2.503v-3.87h2.503V615.853z M1062.741,621.658h-2.503v-3.87h2.503V621.658z M1062.741,627.461h-2.503
									v-3.868h2.503V627.461z M1062.741,633.265h-2.503v-3.87h2.503V633.265z M1062.741,639.07h-2.503v-3.87h2.503V639.07z
									 M1066.496,586.832h-2.503v-1.751h2.503V586.832z M1066.496,592.637h-2.503v-3.87h2.503V592.637z M1066.496,598.441h-2.503
									v-3.87h2.503V598.441z M1066.496,604.246h-2.503v-3.87h2.503V604.246z M1066.496,610.049h-2.503v-3.87h2.503V610.049z
									 M1066.496,615.853h-2.503v-3.87h2.503V615.853z M1066.496,621.658h-2.503v-3.87h2.503V621.658z M1066.496,627.461h-2.503
									v-3.868h2.503V627.461z M1066.496,633.265h-2.503v-3.87h2.503V633.265z M1066.496,639.07h-2.503v-3.87h2.503V639.07z
									 M1066.496,644.874h-2.503v-3.87h2.503V644.874z M1070.25,586.832h-2.503v-1.751h2.503V586.832z M1070.25,592.637h-2.503
									v-3.87h2.503V592.637z M1070.25,598.441h-2.503v-3.87h2.503V598.441z M1070.25,604.246h-2.503v-3.87h2.503V604.246z
									 M1070.25,610.049h-2.503v-3.87h2.503V610.049z M1070.25,615.853h-2.503v-3.87h2.503V615.853z M1070.25,621.658h-2.503
									v-3.87h2.503V621.658z M1070.25,627.461h-2.503v-3.868h2.503V627.461z M1070.25,633.265h-2.503v-3.87h2.503V633.265z
									 M1070.25,639.07h-2.503v-3.87h2.503V639.07z M1070.25,644.874h-2.503v-3.87h2.503V644.874z M1070.25,648.532h-2.503v-1.723
									h2.503V648.532z M1074.006,586.832h-2.505v-1.751h2.505V586.832z M1074.006,592.637h-2.505v-3.87h2.505V592.637z
									 M1074.006,598.441h-2.505v-3.87h2.505V598.441z M1074.006,604.246h-2.505v-3.87h2.505V604.246z M1074.006,610.049h-2.505
									v-3.87h2.505V610.049z M1074.006,615.853h-2.505v-3.87h2.505V615.853z M1074.006,621.658h-2.505v-3.87h2.505V621.658z
									 M1074.006,627.461h-2.505v-3.868h2.505V627.461z M1074.006,633.265h-2.505v-3.87h2.505V633.265z M1074.006,639.07h-2.505
									v-3.87h2.505V639.07z M1074.006,644.874h-2.505v-3.87h2.505V644.874z M1074.006,648.532h-2.505v-1.723h2.505V648.532z
									 M1077.76,586.832h-2.503v-1.751h2.503V586.832z M1077.76,592.637h-2.503v-3.87h2.503V592.637z M1077.76,598.441h-2.503
									v-3.87h2.503V598.441z M1077.76,604.246h-2.503v-3.87h2.503V604.246z M1077.76,610.049h-2.503v-3.87h2.503V610.049z
									 M1077.76,615.853h-2.503v-3.87h2.503V615.853z M1077.76,621.658h-2.503v-3.87h2.503V621.658z M1077.76,627.461h-2.503
									v-3.868h2.503V627.461z M1077.76,633.265h-2.503v-3.87h2.503V633.265z M1077.76,639.07h-2.503v-3.87h2.503V639.07z
									 M1077.76,644.874h-2.503v-3.87h2.503V644.874z M1077.76,648.532h-2.503v-1.723h2.503V648.532z M1081.515,586.832h-2.503
									v-1.751h2.503V586.832z M1081.515,592.637h-2.503v-3.87h2.503V592.637z M1081.515,598.441h-2.503v-3.87h2.503V598.441z
									 M1081.515,604.246h-2.503v-3.87h2.503V604.246z M1081.515,610.049h-2.503v-3.87h2.503V610.049z M1081.515,615.853h-2.503
									v-3.87h2.503V615.853z M1081.515,621.658h-2.503v-3.87h2.503V621.658z M1081.515,627.461h-2.503v-3.868h2.503V627.461z
									 M1081.515,633.265h-2.503v-3.87h2.503V633.265z M1081.515,639.07h-2.503v-3.87h2.503V639.07z M1081.515,644.874h-2.503
									v-3.87h2.503V644.874z M1081.515,648.532h-2.503v-1.723h2.503V648.532z M1084.137,586.832h-1.371v-1.751h1.371V586.832z
									 M1084.137,592.637h-1.371v-3.87h1.371V592.637z M1084.137,598.441h-1.371v-3.87h1.371V598.441z M1084.137,604.246h-1.371
									v-3.87h1.371V604.246z M1084.137,610.049h-1.371v-3.87h1.371V610.049z M1084.137,615.853h-1.371v-3.87h1.371V615.853z
									 M1084.137,621.658h-1.371v-3.87h1.371V621.658z M1084.137,627.461h-1.371v-3.868h1.371V627.461z M1084.137,633.265h-1.371
									v-3.87h1.371V633.265z M1084.137,639.07h-1.371v-3.87h1.371V639.07z M1084.137,644.874h-1.371v-3.87h1.371V644.874z
									 M1084.137,648.532h-1.371v-1.723h1.371V648.532z M1063.993,646.809h2.503v1.723h-2.503V646.809z M1060.239,646.809h2.503
									v1.723h-2.503V646.809z M1060.239,641.005h2.503v3.87h-2.503V641.005z M1056.483,646.809h2.505v1.723h-2.505V646.809z
									 M1056.483,641.005h2.505v3.87h-2.505V641.005z M1056.483,635.2h2.505v3.87h-2.505V635.2z M1056.483,629.396h2.505v3.87
									h-2.505V629.396z M1052.729,646.809h2.503v1.723h-2.503V646.809z M1052.729,641.005h2.503v3.87h-2.503V641.005z
									 M1052.729,635.2h2.503v3.87h-2.503V635.2z M1052.729,629.396h2.503v3.87h-2.503V629.396z M1052.729,623.593h2.503v3.868
									h-2.503V623.593z M1052.729,617.788h2.503v3.87h-2.503V617.788z M1048.974,646.809h2.503v1.723h-2.503V646.809z
									 M1048.974,641.005h2.503v3.87h-2.503V641.005z M1048.974,635.2h2.503v3.87h-2.503V635.2z M1048.974,629.396h2.503v3.87
									h-2.503V629.396z M1048.974,623.593h2.503v3.868h-2.503V623.593z M1048.974,617.788h2.503v3.87h-2.503V617.788z
									 M1048.974,611.984h2.503v3.87h-2.503V611.984z M1048.974,606.179h2.503v3.87h-2.503V606.179z M1048.974,600.376h2.503v3.87
									h-2.503V600.376z M1048.974,594.571h2.503v3.87h-2.503V594.571z M1048.974,588.767h2.503v3.87h-2.503V588.767z
									 M1048.974,585.081h2.503v1.751h-2.503V585.081z M1045.22,646.809h2.503v1.723h-2.503V646.809z M1045.22,641.005h2.503v3.87
									h-2.503V641.005z M1045.22,635.2h2.503v3.87h-2.503V635.2z M1045.22,629.396h2.503v3.87h-2.503V629.396z M1045.22,623.593
									h2.503v3.868h-2.503V623.593z M1045.22,617.788h2.503v3.87h-2.503V617.788z M1045.22,611.984h2.503v3.87h-2.503V611.984z
									 M1045.22,606.179h2.503v3.87h-2.503V606.179z M1045.22,600.376h2.503v3.87h-2.503V600.376z M1045.22,594.571h2.503v3.87
									h-2.503V594.571z M1045.22,588.767h2.503v3.87h-2.503V588.767z M1045.22,585.081h2.503v1.751h-2.503V585.081z
									 M1042.619,646.809h1.349v1.723h-1.349V646.809z M1042.619,641.005h1.349v3.87h-1.349V641.005z M1042.619,635.2h1.349v3.87
									h-1.349V635.2z M1042.619,629.396h1.349v3.87h-1.349V629.396z M1042.619,623.593h1.349v3.868h-1.349V623.593z
									 M1042.619,617.788h1.349v3.87h-1.349V617.788z M1042.619,611.984h1.349v3.87h-1.349V611.984z M1042.619,606.179h1.349v3.87
									h-1.349V606.179z M1042.619,600.376h1.349v3.87h-1.349V600.376z M1042.619,594.571h1.349v3.87h-1.349V594.571z
									 M1042.619,588.767h1.349v3.87h-1.349V588.767z M1042.619,585.081h1.349v1.751h-1.349V585.081z"/>
							</g>
							<g style="opacity:0.5;">
								<path style="fill:#243144;" d="M1051.246,604.246c0.008,0.648,0.024,1.292,0.045,1.933h0.186v3.597
									c0.245,3.437,0.668,6.761,1.252,9.931v-1.919h2.503v3.87h-2.119c0.135,0.652,0.278,1.299,0.429,1.935h1.69v3.868h-0.672
									c0.19,0.654,0.39,1.3,0.595,1.935c0.025,0.078,0.051,0.156,0.077,0.233c0.392,1.195,0.809,2.354,1.251,3.472v-3.705h2.505
									v3.87h-2.44c0.262,0.66,0.533,1.304,0.811,1.935h1.63v3.357c0.452,0.85,0.922,1.667,1.408,2.448h2.346v3.357
									c0.701,0.885,1.426,1.702,2.172,2.448h1.582v1.441c2.957,2.452,6.204,3.807,9.612,3.807c4.816,0,9.312-2.706,13.121-7.391
									v-66.636h-34.577c-0.668,2.242-1.248,4.598-1.729,7.05h2.309v1.751h-2.503v-0.734c-0.584,3.171-1.007,6.494-1.252,9.931
									v2.413h-0.141c-0.027,0.641-0.051,1.287-0.067,1.935h0.208v3.87H1051.246z M1082.766,646.809h1.371v1.723h-1.371V646.809z
									 M1082.766,641.005h1.371v3.87h-1.371V641.005z M1082.766,635.2h1.371v3.87h-1.371V635.2z M1082.766,629.396h1.371v3.87
									h-1.371V629.396z M1082.766,623.593h1.371v3.868h-1.371V623.593z M1082.766,617.788h1.371v3.87h-1.371V617.788z
									 M1082.766,611.984h1.371v3.87h-1.371V611.984z M1082.766,606.179h1.371v3.87h-1.371V606.179z M1082.766,600.376h1.371v3.87
									h-1.371V600.376z M1082.766,594.571h1.371v3.87h-1.371V594.571z M1082.766,588.767h1.371v3.87h-1.371V588.767z
									 M1082.766,585.081h1.371v1.751h-1.371V585.081z M1079.012,646.809h2.503v1.723h-2.503V646.809z M1079.012,641.005h2.503
									v3.87h-2.503V641.005z M1079.012,635.2h2.503v3.87h-2.503V635.2z M1079.012,629.396h2.503v3.87h-2.503V629.396z
									 M1079.012,623.593h2.503v3.868h-2.503V623.593z M1079.012,617.788h2.503v3.87h-2.503V617.788z M1079.012,611.984h2.503
									v3.87h-2.503V611.984z M1079.012,606.179h2.503v3.87h-2.503V606.179z M1079.012,600.376h2.503v3.87h-2.503V600.376z
									 M1079.012,594.571h2.503v3.87h-2.503V594.571z M1079.012,588.767h2.503v3.87h-2.503V588.767z M1079.012,585.081h2.503
									v1.751h-2.503V585.081z M1075.258,646.809h2.503v1.723h-2.503V646.809z M1075.258,641.005h2.503v3.87h-2.503V641.005z
									 M1075.258,635.2h2.503v3.87h-2.503V635.2z M1075.258,629.396h2.503v3.87h-2.503V629.396z M1075.258,623.593h2.503v3.868
									h-2.503V623.593z M1075.258,617.788h2.503v3.87h-2.503V617.788z M1075.258,611.984h2.503v3.87h-2.503V611.984z
									 M1075.258,606.179h2.503v3.87h-2.503V606.179z M1075.258,600.376h2.503v3.87h-2.503V600.376z M1075.258,594.571h2.503v3.87
									h-2.503V594.571z M1075.258,588.767h2.503v3.87h-2.503V588.767z M1075.258,585.081h2.503v1.751h-2.503V585.081z
									 M1071.501,641.005h2.505v3.87h-2.505V641.005z M1071.501,635.2h2.505v3.87h-2.505V635.2z M1071.501,629.396h2.505v3.87
									h-2.505V629.396z M1071.501,623.593h2.505v3.868h-2.505V623.593z M1071.501,617.788h2.505v3.87h-2.505V617.788z
									 M1071.501,611.984h2.505v3.87h-2.505V611.984z M1071.501,606.179h2.505v3.87h-2.505V606.179z M1071.501,600.376h2.505v3.87
									h-2.505V600.376z M1071.501,594.571h2.505v3.87h-2.505V594.571z M1071.501,588.767h2.505v3.87h-2.505V588.767z
									 M1071.501,585.081h2.505v1.751h-2.505V585.081z M1067.747,646.809h2.503v1.723h-2.503V646.809z M1067.747,641.005h2.503
									v3.87h-2.503V641.005z M1067.747,635.2h2.503v3.87h-2.503V635.2z M1067.747,629.396h2.503v3.87h-2.503V629.396z
									 M1067.747,623.593h2.503v3.868h-2.503V623.593z M1067.747,617.788h2.503v3.87h-2.503V617.788z M1067.747,611.984h2.503
									v3.87h-2.503V611.984z M1067.747,606.179h2.503v3.87h-2.503V606.179z M1067.747,600.376h2.503v3.87h-2.503V600.376z
									 M1067.747,594.571h2.503v3.87h-2.503V594.571z M1067.747,588.767h2.503v3.87h-2.503V588.767z M1067.747,585.081h2.503
									v1.751h-2.503V585.081z M1063.993,641.005h2.503v3.87h-2.503V641.005z M1063.993,635.2h2.503v3.87h-2.503V635.2z
									 M1063.993,629.396h2.503v3.87h-2.503V629.396z M1063.993,623.593h2.503v3.868h-2.503V623.593z M1063.993,617.788h2.503
									v3.87h-2.503V617.788z M1063.993,611.984h2.503v3.87h-2.503V611.984z M1063.993,606.179h2.503v3.87h-2.503V606.179z
									 M1063.993,600.376h2.503v3.87h-2.503V600.376z M1063.993,594.571h2.503v3.87h-2.503V594.571z M1063.993,588.767h2.503v3.87
									h-2.503V588.767z M1063.993,585.081h2.503v1.751h-2.503V585.081z M1060.239,635.2h2.503v3.87h-2.503V635.2z
									 M1060.239,629.396h2.503v3.87h-2.503V629.396z M1060.239,623.593h2.503v3.868h-2.503V623.593z M1060.239,617.788h2.503
									v3.87h-2.503V617.788z M1060.239,611.984h2.503v3.87h-2.503V611.984z M1060.239,606.179h2.503v3.87h-2.503V606.179z
									 M1060.239,600.376h2.503v3.87h-2.503V600.376z M1060.239,594.571h2.503v3.87h-2.503V594.571z M1060.239,588.767h2.503v3.87
									h-2.503V588.767z M1060.239,585.081h2.503v1.751h-2.503V585.081z M1056.483,623.593h2.505v3.868h-2.505V623.593z
									 M1056.483,617.788h2.505v3.87h-2.505V617.788z M1056.483,611.984h2.505v3.87h-2.505V611.984z M1056.483,606.179h2.505v3.87
									h-2.505V606.179z M1056.483,600.376h2.505v3.87h-2.505V600.376z M1056.483,594.571h2.505v3.87h-2.505V594.571z
									 M1056.483,588.767h2.505v3.87h-2.505V588.767z M1056.483,585.081h2.505v1.751h-2.505V585.081z M1052.729,611.984h2.503
									v3.87h-2.503V611.984z M1052.729,606.179h2.503v3.87h-2.503V606.179z M1052.729,600.376h2.503v3.87h-2.503V600.376z
									 M1052.729,594.571h2.503v3.87h-2.503V594.571z M1052.729,588.767h2.503v3.87h-2.503V588.767z"/>
							</g>
						</g>
						<g style="opacity:0.5;">
							<path style="fill:#243144;" d="M1046.928,580.381c0,0.649,0.526,1.175,1.175,1.175h36.817c0.649,0,1.175-0.526,1.175-1.175
								l0,0c0-0.649-0.526-1.175-1.175-1.175h-36.817C1047.454,579.206,1046.928,579.732,1046.928,580.381L1046.928,580.381z"/>
						</g>
					</g>
				</g>
				<g>
					<g>
						<path style="fill:#FFFFFF;" d="M679.167,653.784h121.068c0.029-0.157,0.054-0.311,0.074-0.462
							c0.368-2.713-0.801-4.872-3.175-6.558c-2.447-1.74-6.173-2.978-10.813-3.805c-17.725-3.166-48.802-0.359-72.976,3.306
							c-7.114,1.078-13.632,2.231-19.034,3.326c-2.236,0.456-4.281,0.901-6.098,1.326c-0.006,0-0.009,0-0.011,0.003
							c-1.378,0.322-2.624,0.633-3.722,0.93c-0.402,0.108-0.784,0.214-1.144,0.319c-0.154,0.043-0.302,0.089-0.448,0.131
							c-0.63,0.185-1.19,0.365-1.677,0.536c-0.485,0.171-0.899,0.334-1.232,0.485C679.612,653.487,679.338,653.644,679.167,653.784z
							"/>
						<path style="fill:#B3BAB1;" d="M689.203,653.954c5.182-3.15,111.837-16.426,107.547,0H689.203z"/>
						<path style="fill:#B3BAB1;" d="M713.345,646.265c24.174-3.665,55.251-6.472,72.976-3.306
							c-4.139-1.697-8.369-3.058-12.596-4.133c-8.195-2.085-16.33-1.312-24.591-0.214
							C737.097,640.212,725.188,643.031,713.345,646.265z"/>
						<path style="fill:#FFFFFF;" d="M684.107,653.322c0.003,0.157,0.029,0.317,0.08,0.462c0.017,0.048,0.037,0.094,0.06,0.14
							c0.168,0.351,0.479,0.588,0.879,0.471c0.083-0.023,0.163-0.048,0.245-0.071c0.348-0.1,0.699-0.202,1.047-0.305
							c0.271-0.077,0.539-0.154,0.81-0.234c0.043-0.011,0.083-0.023,0.125-0.037c0.488-0.14,0.976-0.282,1.464-0.425
							c0.006-0.003,0.014-0.006,0.02-0.006c0.408-0.12,0.819-0.24,1.227-0.359c0.494-0.146,0.99-0.288,1.483-0.434
							c0.981-0.288,1.966-0.576,2.947-0.861c0.003-0.003,0.003-0.003,0.006-0.003c6.269-1.834,12.548-3.674,18.846-5.394
							c11.843-3.235,23.752-6.053,35.789-7.653c8.261-1.098,16.396-1.871,24.591,0.214c4.227,1.075,8.457,2.436,12.596,4.133
							c3.266,1.338,6.475,2.887,9.578,4.669c0.602,0.348,1.155-0.242,1.235-0.864c0.048-0.357-0.063-0.724-0.413-0.927
							c-2.188-1.258-4.424-2.385-6.686-3.4c-1.486-0.668-2.989-1.315-4.507-1.928c-5.947-2.407-12.103-4.31-18.284-4.992
							c-0.003,0-0.008-0.003-0.014,0c-3.959-0.439-7.964-0.071-11.917,0.308c-4.621,0.448-9.23,1.095-13.82,1.905
							c-15.894,2.804-31.551,7.294-47.182,11.86c-1.983,0.579-3.968,1.158-5.95,1.737c-0.759,0.222-1.515,0.442-2.273,0.662h-0.003
							c-0.225,0.066-0.445,0.131-0.67,0.194c-0.24,0.071-0.482,0.143-0.721,0.211c-0.091,0.026-0.171,0.066-0.24,0.117
							c-0.16,0.117-0.259,0.291-0.308,0.488C684.119,653.102,684.107,653.211,684.107,653.322z"/>
						<path style="fill:#B3BAB1;" d="M688.212,650.917c1.817-0.425,3.862-0.87,6.098-1.326c15.631-4.567,31.288-9.056,47.182-11.86
							c4.589-0.81,9.199-1.458,13.82-1.905c3.954-0.379,7.958-0.747,11.917-0.308c-1.868-0.385-3.739-0.687-5.602-0.918
							c-8.315-1.021-16.926,0.063-25.207,1.158C719.843,637.948,703.709,643.219,688.212,650.917z"/>
						<path style="fill:#FFFFFF;" d="M682.887,652.301c0.037,0.607,0.411,1.144,0.967,0.85c0.097-0.051,0.194-0.103,0.291-0.151
							c0.228-0.123,0.456-0.242,0.688-0.362c0.248-0.131,0.499-0.263,0.753-0.391c0.165-0.088,0.331-0.174,0.499-0.257h0.003
							c0.704-0.365,1.409-0.719,2.114-1.067c0.003-0.006,0.008-0.009,0.011-0.006c15.497-7.699,31.63-12.97,48.208-15.16
							c8.281-1.096,16.892-2.179,25.207-1.158c1.863,0.231,3.734,0.533,5.602,0.918c0.006-0.003,0.011,0,0.014,0
							c5.87,1.21,11.698,3.223,17.081,6.304c0.75,0.431,1.423-0.593,1.204-1.312c-0.06-0.191-0.183-0.362-0.382-0.476
							c-7.211-4.13-15.163-6.478-23.016-7.445c-8.492-1.044-17.251-0.057-25.709,1.092c-16.955,2.305-33.402,7.61-49.239,15.534
							c-1.258,0.628-2.51,1.275-3.759,1.937c-0.108,0.057-0.2,0.134-0.271,0.225c-0.151,0.183-0.234,0.419-0.26,0.665
							C682.884,652.127,682.881,652.215,682.887,652.301z"/>
					</g>
					<g>
						<path style="fill:#FFFFFF;" d="M577.567,644.248c0.114,0.605,0.636,1.115,1.198,0.725c1.09-0.759,2.245-1.378,3.434-1.894
							c2.359-1.024,4.855-1.652,7.256-2.202c13.991-3.195,28.57-3.42,42.689-1.683c13.332,1.643,26.262,5.645,39.121,10.12
							c2.222,0.773,4.441,1.56,6.66,2.35c1.095,0.391,2.188,0.782,3.283,1.172c0.45,0.163,0.901,0.325,1.352,0.485
							c0.434,0.154,0.864,0.308,1.295,0.462c0.131,0.046,0.26,0.094,0.391,0.14c0.374,0.134,0.75,0.265,1.124,0.399
							c0.065,0.023,0.134,0.049,0.199,0.071c0.379,0.134,0.676-0.06,0.847-0.377c0.04-0.071,0.071-0.151,0.097-0.234
							c0.046-0.145,0.069-0.305,0.065-0.462c0-0.006,0-0.009-0.003-0.014c-0.009-0.396-0.185-0.776-0.573-0.913
							c-0.14-0.048-0.28-0.1-0.419-0.148c-0.057-0.02-0.114-0.043-0.171-0.063c-0.314-0.111-0.625-0.223-0.935-0.334
							c-0.442-0.157-0.884-0.314-1.327-0.474c-1.455-0.519-2.907-1.041-4.361-1.563c-4.786-1.72-9.573-3.431-14.385-5.032
							c-16.019-5.325-32.409-8.842-49.013-8.7c-6.8,0.06-13.629,0.551-20.378,1.646c-5.691,0.921-11.957,1.894-17.072,5.454
							C577.584,643.433,577.49,643.861,577.567,644.248z"/>
						<path style="fill:#B3BAB1;" d="M582.2,643.079c21.752-4.247,65.32,1.42,89.067,6.235c-12.859-4.475-25.789-8.477-39.121-10.12
							c-14.119-1.737-28.698-1.512-42.689,1.683C587.054,641.427,584.558,642.055,582.2,643.079z"/>
						<path style="fill:#FFFFFF;" d="M569.187,653.322c0.02,0.151,0.046,0.305,0.074,0.462h118.141
							c-0.014-0.011-0.031-0.026-0.049-0.037c-0.168-0.131-0.416-0.274-0.742-0.425c-0.011-0.006-0.023-0.009-0.034-0.014
							c-0.445-0.206-1.033-0.431-1.746-0.67c-0.123-0.04-0.248-0.083-0.379-0.125c-0.348-0.111-0.719-0.225-1.118-0.342
							c-0.143-0.043-0.291-0.086-0.442-0.128c-1.312-0.379-2.875-0.782-4.652-1.204c-2.054-0.488-4.398-1.001-6.974-1.523
							c-23.746-4.815-67.314-10.483-89.067-6.235c-1.68,0.328-3.232,0.716-4.632,1.169
							C571.848,646.091,568.619,649.003,569.187,653.322z"/>
						<path style="fill:#B3BAB1;" d="M679.914,652.862c-4.925-2.914-106.284-15.197-102.207,0H679.914z"/>
					</g>
					<path style="fill:#4996EA;" d="M566.373,656.099c0,1.381,1.008,2.501,2.25,2.501h233.144c1.243,0,2.25-1.12,2.25-2.501l0,0
						c0-1.382-1.008-2.502-2.25-2.502H568.623C567.38,653.597,566.373,654.717,566.373,656.099L566.373,656.099z"/>
					<path style="fill:#4996EA;" d="M678.251,656.567c-0.353-0.944-0.556-1.996-0.556-3.111c0-4.009,2.551-7.259,5.697-7.259
						c3.147,0,5.698,3.25,5.698,7.259c0,1.115-0.203,2.167-0.556,3.111H678.251z"/>
				</g>
			</g>
			<g>
				<path style="fill:#FF2B15;" d="M600.839,658.563l112.515,0.276l10.738-1.874l0.008-3.305l-10.729-1.682l-112.516-0.277
					c-1.894-0.004-3.431,1.529-3.435,3.422c-0.001,0.15,0.007,0.292,0.024,0.437c0.099,0.775,0.449,1.466,0.969,1.992
					C599.033,658.176,599.89,658.561,600.839,658.563z"/>
				<path style="fill:#F9A826;" d="M600.837,658.564l17.165,0.042l0.016-6.862l-17.165-0.042c-1.893-0.005-3.431,1.529-3.435,3.422
					c0,0.148,0.009,0.292,0.026,0.436c0.099,0.776,0.45,1.464,0.971,1.992C599.034,658.177,599.891,658.562,600.837,658.564z"/>
				
					<rect x="614.396" y="652.671" transform="matrix(0.0025 -1 1 0.0025 -36.7742 1271.3811)" style="fill:#303535;" width="8.971" height="2.904"/>
				<polygon style="fill:#303535;" points="724.091,656.965 734.063,655.222 724.1,653.66 				"/>
				<polygon style="fill:#FFFFFF;" points="713.354,658.839 724.091,656.965 724.1,653.66 713.371,651.978 				"/>
				<path style="opacity:0.3;fill:#303535;" d="M600.839,658.563l112.515,0.276l10.738-1.874l0.003-1.094l-126.65-0.311
					c0.099,0.775,0.449,1.466,0.969,1.992C599.033,658.176,599.89,658.561,600.839,658.563z"/>
				<path style="fill:#303535;" d="M658.362,651.394c0.635,0,1.152-0.512,1.152-1.148l0,0c0.001-0.635-0.512-1.151-1.147-1.153
					l-39.868-0.098c-0.635-0.002-1.151,0.512-1.153,1.147l0,0c-0.002,0.636,0.512,1.152,1.147,1.153L658.362,651.394z"/>
			</g>
		</g>
		<g>
			<g>
				<g>
					<g>
						<polygon style="fill:#AFAEA7;" points="1258.001,692.885 1270.5,756.383 1270.5,926.265 1258.967,926.265 1203.328,692.885 
													"/>
					</g>
					<polygon style="fill:#91908A;" points="1270.5,894.808 1226.09,692.885 1258.001,692.885 1270.5,756.383 					"/>
				</g>
				<g>
					<g>
						<polygon style="fill:#AFAEA7;" points="1022.352,926.265 984.286,689.364 1038.892,689.364 1067.125,926.265 						"/>
					</g>
					<polygon style="fill:#91908A;" points="1040.716,926.265 1007.02,689.364 1038.892,689.364 1067.125,926.265 					"/>
				</g>
				<g>
					<g>
						<polygon style="fill:#AFAEA7;" points="60.658,926.265 109.878,692.885 164.552,692.885 105.631,926.265 						"/>
					</g>
					<polygon style="fill:#91908A;" points="60.658,926.265 109.878,692.885 141.79,692.885 87.179,926.265 					"/>
				</g>
				<g>
					<g>
						<polygon style="fill:#AFAEA7;" points="297.086,926.265 328.68,689.364 383.285,689.364 341.859,926.265 						"/>
					</g>
					<polygon style="fill:#91908A;" points="297.086,926.265 328.68,689.364 360.552,689.364 323.495,926.265 					"/>
				</g>
			</g>
			<g>
				<rect x="110.621" y="668.549" style="fill:#91908A;" width="1146.687" height="45.054"/>
				<g>
					<path style="fill:#AFAEA7;" d="M93.069,664.326v9.853c0,3.889,3.985,7.041,8.901,7.041h1062.58
						c4.916,0,8.901-3.152,8.901-7.041v-9.853c0-3.889-3.985-7.041-8.901-7.041H101.97
						C97.054,657.285,93.069,660.437,93.069,664.326z"/>
					<path style="fill:#91908A;" d="M982.769,657.285h283.857c1.355,0,2.657,0.131,3.874,0.369v23.198
						c-1.217,0.238-2.519,0.369-3.874,0.369H982.769c-6.702,0-12.133-3.152-12.133-7.041v-9.853
						C970.636,660.437,976.068,657.285,982.769,657.285z"/>
				</g>
			</g>
		</g>
	</g>
	<g>
		<path style="fill:#DDE1E8;" d="M414.063,634.096l134.634,49.061c-10.168,14.766-16.582,22.755-35.374,26.179
			c-16.759,3.054-35.939,1.456-52.48-1.019c-15.769-2.36-34.303-6.618-42.529-21.741
			C411.614,674.258,409.175,647.383,414.063,634.096z"/>
		<g>
			<g>
				<g>
					<path style="fill:#FFB278;" d="M395.143,298.227l0.328,34.317l0.043,4.555c5.246-0.639,11.002-1.289,15.469-3.508
						c2.938-1.461,4.669-2.776,5.208-4.35c0.568-1.66-0.194-3.605-2.268-6.315C409.177,316.725,395.189,305.615,395.143,298.227z"/>
					<path style="fill:#E5804E;" d="M394.096,330.029l1.418,7.071c5.246-0.639,11.002-1.289,15.469-3.508
						c2.938-1.461,4.669-2.776,5.208-4.35C409.539,332.978,400.183,332.256,394.096,330.029z"/>
					<path style="fill:#FFB278;" d="M247.736,316.081c3.648,11.758,8.406,24.134,14.602,35.424
						c3.203,5.833,6.789,11.378,10.805,16.398c10.765,13.461,25.492,19.217,41.38,23.319c5.839,1.506,11.21,3.146,16.461,4.766
						c3.985,1.229,7.895,2.453,11.877,3.594c4.672,1.344,9.444,2.579,14.544,3.597c0.12,0.023,0.24,0.048,0.359,0.071
						c6.449,1.269,19.125,3.771,28.992,1.743c3.369-0.696,6.41-1.917,8.763-3.896c2.211-1.86,3.816-4.384,4.515-7.767
						c1.358-6.561,0.978-17.525,0.978-18.78c0-3.497,3.377-7.2,4.872-10.785c0.739-1.78,1.018-3.529,0.191-5.211
						c-0.918-1.871-5.391-0.408-5.639-2.618c-0.003-0.026-0.003-0.054-0.006-0.083c-0.014-0.248,7.299,1.192,6.786-3.004
						c-0.186-1.517-0.371-3.217-0.554-5.009c-0.77-7.57-1.483-16.766-1.874-20.76c-2.179-22.326-9.333-19.165-9.952-27.352
						c-0.293-3.905,2.288-8.74,4.267-13.267c3.314-7.567-1.791-13.241-4.638-20.126c-2.336-5.662-20.557-43.26-22.038-42.247
						l-7.878-6.161c-10.211-5.922-17.046-8.292-28.515-9.085c-16.792-1.164-30.415-2.137-46.731,4.452
						c-22.029,8.897-41.343,22.842-46.009,47.421C239.547,280.457,241.889,297.237,247.736,316.081z"/>
					<g>
						<path style="fill:#E5804E;" d="M385.362,300.367c0.58-1.684,1.448-3.663,2.044-4.61c1.353-2.152,3.596-4.374,5.877-5.018
							c0.628-0.177,1.252-0.103,1.857,0.152c0.034,0.871,0.083,1.722,0.132,2.527c0.188,3.131,0.552,6.237,1.164,9.3
							c-3.324,0.725-7.164,0.809-10.162,0.503c-0.669-0.063-0.764,2.589-1.333,2.485
							C384.942,305.707,384.187,303.775,385.362,300.367z"/>
						<g>
							<path style="fill:#FFFFFF;" d="M385.984,303.857c0.664-1.348,1.53-2.979,2.147-3.754c0.613-0.775,1.398-1.558,2.276-2.246
								c1.131-0.883,2.417-1.607,3.705-1.928c0.457-0.114,0.909-0.122,1.351-0.047c0.296,3.232,0.8,6.433,1.597,9.58
								c-1.709,0.346-3.551,0.562-5.346,0.663c-1.731,0.097-3.418,0.09-4.89,0.005c-0.664-0.034-1.283-0.091-1.849-0.16
								C384.975,305.97,385.408,305.018,385.984,303.857z"/>
							<path style="fill:#260F0E;" d="M390.407,297.857c1.131-0.883,2.417-1.607,3.705-1.928c0.457-0.114,0.909-0.122,1.351-0.047
								c0.296,3.232,0.8,6.433,1.597,9.58c-1.709,0.346-3.551,0.562-5.346,0.663C391.083,304.217,390.417,301.459,390.407,297.857z"
								/>
							<path style="fill:#FFFFFF;" d="M393.699,301.51c0.142,1.159-0.144,2.147-0.636,2.207c-0.494,0.061-1.009-0.83-1.151-1.989
								c-0.141-1.159,0.144-2.147,0.638-2.208C393.042,299.461,393.557,300.351,393.699,301.51z"/>
						</g>
					</g>
					<path style="fill:#E5804E;" d="M335.625,343.913c0.195,12.512,6.646,43.28,7.236,55.67c4.674,1.343,9.443,2.578,14.544,3.595
						c0.119,0.023,0.241,0.049,0.36,0.073c6.449,1.27,19.124,3.77,28.991,1.741C367.388,399.295,341.615,369.583,335.625,343.913z"
						/>
					<g>
						<path style="fill:#260F0E;" d="M400.694,280.784c-0.164,3.335-0.097,6.689,0.132,10.028c-2.075,0.68-4.855,0.711-6.78,1.063
							c-6.76,1.236-13.985,2.557-20.085,5.565c-0.875-2.613-1.8-5.206-2.832-7.757C377.41,281.728,393.905,275.098,400.694,280.784z
							"/>
					</g>
					<path style="fill:#FFB278;" d="M258.017,439.072c6.105-0.224,81.168,5.721,96.493,2.906
						c1.163-31.389-20.888-101.349-20.345-105.212c-10.496-7.11-28.653,1.46-32.103-0.519l-39.723,15.256l-4.952,1.903
						c-0.514,2.135,1.097,5.53,1.709,7.904c0.966,3.744,1.815,7.58,2.479,11.398c1.018,5.839,1.238,11.82,1.436,17.65
						C263.376,401.02,260.619,428.917,258.017,439.072z"/>
					<g>
						<path style="fill:#260F0E;" d="M399.958,208.236c-0.034,0.015-0.069,0.028-0.103,0.044c0.012-0.032,0.024-0.064,0.037-0.095
							C400.159,207.911,400.181,207.928,399.958,208.236z"/>
						<path style="fill:#260F0E;" d="M220.219,271.014c0.108,2.209,0.291,4.479,0.552,6.807c0.082,0.735,0.172,1.482,0.27,2.232
							c1.503,11.408,5.205,28.349,10.565,38.867c5.804,11.387,9.652,14.942,15.77,25.844c5.351,9.542,10.315,19.973,13.373,30.157
							c3.185-0.041,31.552,10.033,60.046-2.697c0.038-0.02-3.037-60.631-0.982-56.187c7.252-2.331,9.405-0.419,9.76-9.1
							c0.485-11.751-3.962-23.612-4.351-35.281c-0.413-12.349,12.187-13.91,21.996-15.945c0.241-0.047,0.479-0.099,0.718-0.151
							c3.555-0.758,7.618-1.718,11.884-2.927c0.021-0.006,0.041-0.011,0.064-0.017c0.102-0.029,0.206-0.058,0.308-0.09
							c0.79-0.224,1.59-0.459,2.392-0.706c15.959-4.859,33.729-13.297,37.792-28.023c-2.148,0.869-4.496,1.058-7.039,0.642
							c2.689-5.182,4.383-10.771,6.516-16.16c-4.534,2.011-9.353,3.238-14.384,4.153c3.938-4.854,6.333-9.443,8.591-15.064
							c-18.441,2.346-50.365-7.766-72.315-7.874C296.917,189.373,216.531,196.718,220.219,271.014z"/>
					</g>
					<path style="fill:#260F0E;" d="M232.272,226.608c-3.887-4.432-8.699-8.463-14.157-10.244
						c6.364-1.058,13.021-3.825,18.979-0.323c1.192-5.657,4.906-12.34,9.009-16.295c-0.658,3.818,7.499,19.734,9.008,23.665
						c2.67,6.956-7.577,19.927-13.506,19.554c-8.821-0.556-15.253-8.368-23.744-7.483
						C221.184,230.897,226.972,227.55,232.272,226.608z"/>
					<path style="fill:#160808;" d="M362.648,251.318c-0.633,0.512-1.462,0.91-2.456,1.209c0.79-0.224,1.59-0.459,2.392-0.706
						L362.648,251.318z"/>
					<path style="fill:#160808;" d="M220.219,271.014c0.108,2.209,0.291,4.479,0.552,6.807c0.082,0.735,0.172,1.482,0.27,2.232
						c1.503,11.408,5.205,28.349,10.565,38.867c5.804,11.387,9.652,14.942,15.77,25.844c5.351,9.542,10.315,19.973,13.373,30.157
						c3.185-0.041,31.552,10.033,60.046-2.697c0.038-0.02-3.037-60.631-0.982-56.187c7.252-2.331,16.249,11.05,19.662,3.06
						c7.271-17.023,5.378-31.596,4.989-43.265c-0.413-12.349-7.055-18.086,2.754-20.121c0.241-0.047,0.479-0.099,0.718-0.151
						c3.555-0.758,7.618-1.718,11.884-2.927c-9.088,2.45-30.337-2.322-38.588-0.604c-12.713,2.648-18.735,14.474-27.207,22.993
						c-7.754,7.795-19.136,8.865-29.471,10.024c-12.951,1.453-24.144-1.593-35.47-8.28
						C226.122,275.017,223.102,273.119,220.219,271.014z"/>
					<g>
						<path style="fill:#E5804E;" d="M341.38,333.989c-1.133-5.954-3.665-13.511-3.665-13.511
							c-4.204-12.989-18.585-21.665-23.799-13.652c-5.236,8.043-3.275,21.364,0.159,29.216c3.392,7.754,12.956,21.015,21.901,17.412
							C343.614,350.376,342.592,340.366,341.38,333.989z"/>
						<path style="fill:#FFB278;" d="M341.38,330.138c-1.133-5.954-3.665-13.511-3.665-13.511
							c-4.204-12.989-18.585-21.665-23.799-13.652c-5.236,8.043-3.275,21.364,0.159,29.216c3.392,7.754,12.956,21.015,21.901,17.412
							C343.614,346.526,342.592,336.515,341.38,330.138z"/>
						<path style="fill:#E5804E;" d="M333.789,318.373c-0.345-1.437-3.824-5.933-4.688-7.122
							c-6.593-9.083-15.033-4.884-13.989,5.841c1.884-9.681,8.546-3.029,12.659,1.538c-2.904,0.358-3.253,7.059-2.263,9.574
							c1.746,4.433,5.152,5,8.651,5.271l-0.091-0.368c-1.064-3.317-5.163-7.284-3.521-11.911
							C331.448,318.66,334.431,321.044,333.789,318.373z"/>
					</g>
				</g>
				<path style="fill:#160808;" d="M310.356,808.762c0.746-4.132,1.966-8.43,1.743-10.534l122.045-19.312
					c176.05-3.194,284.046,67.385,294.46,98.954c5.641,13.096,4.112,27.492,3.159,39.657c-0.232,2.966-0.476,5.846-0.727,8.655
					H586.656c-57.189-5.314-117.104-21.985-173.433-22.614c-28.966-0.324-62.965-2.326-85.903-22.383
					C303.452,860.315,305.389,836.262,310.356,808.762z"/>
				<g>
					<path style="fill:#FFB278;" d="M525.693,606.059c6.059,0.469,14.941,1.591,18.94,7.258c4.497,6.375,4.594,19.317,3.34,26.405
						c-1.075,6.074-6.51,14.989-10.231,3.612c-2.052-6.271-1.132-16.354-4.035-21.29L525.693,606.059z"/>
					<path style="fill:#FFB278;" d="M488.252,526.744c14.561-12.232,11.859,37.431,23.721,33.697l-10.869,9.977
						C488.685,567.424,477.618,535.677,488.252,526.744z"/>
					<path style="fill:#FFFFFF;" d="M387.42,424.859c52.212-0.214,67.983,58.25,93.896,102.72
						c21.148,36.292,38.011,57.82,54.137,95.583c4.49,10.515,19.459,49.263,13.986,60.025
						c-47.968,94.312-189.2-145.921-202.847-152.416L387.42,424.859z"/>
					<path style="fill:#FFB278;" d="M507.215,570.949c6.81,0.526,16.794,1.788,21.289,8.158c5.054,7.165,5.163,21.712,3.754,29.678
						c-1.208,6.828-7.317,16.848-11.5,4.06c-2.305-7.048-1.272-18.382-4.535-23.93L507.215,570.949z"/>
					<path style="fill:#FFB278;" d="M517.69,587.713c6.811,0.527,16.795,1.787,21.289,8.158c5.054,7.166,5.163,21.712,3.754,29.678
						c-1.208,6.828-7.317,16.848-11.5,4.06c-2.306-7.048-1.272-18.382-4.535-23.93L517.69,587.713z"/>
					<path style="fill:#FFB278;" d="M500.488,557.106c6.79,0.747,16.728,2.331,21.013,8.844c4.82,7.326,4.456,21.868,2.79,29.785
						c-1.429,6.785-7.859,16.602-11.625,3.685c-2.076-7.119-0.676-18.414-3.757-24.064L500.488,557.106z"/>
				</g>
				<path style="fill:#FFFFFF;" d="M171.563,445.783c17.207-18.179,52.865-51.363,77.735-48.568l55.803,5.813
					c12.788,1.163,129.045,13.951,131.37,54.641c3.138,54.924,7.986,126.464,16.276,181.36
					c10.208,67.597,20.09,92.583,42.42,156.475c-75.437,47.982-165.713,124.873-249.945,85.281
					c-16.448-7.731-21.789-9.436-25.73-26.59c-6.043-26.296-12.535-53.081-17.333-79.767
					c-12.879-71.631-25.907-143.193-37.582-214.923C158.871,524.447,144.956,473.894,171.563,445.783z"/>
				<path style="fill:#E5804E;" d="M405.885,363.764c0.739-1.78,1.018-3.529,0.191-5.211c-0.918-1.871-5.391-0.408-5.639-2.618
					C398.891,355.698,402.368,365.113,405.885,363.764z"/>
			</g>
			<g>
				<g>
					<g>
						<g>
							<rect x="204.694" y="755.698" style="fill:#151D2B;" width="31.437" height="145.464"/>
							<rect x="195.504" y="755.698" style="fill:#222E44;" width="31.438" height="145.464"/>
						</g>
						<g>
							<path style="fill:#B22043;" d="M126.203,758.747c0,11.419,5.119,20.68,11.433,20.68h117.797
								c6.317,0,11.438-9.261,11.438-20.68v-2.067c0-11.425-5.12-20.687-11.438-20.687H137.637c-6.315,0-11.433,9.262-11.433,20.687
								V758.747z"/>
							<path style="fill:#3F2516;" d="M210.353,758.747c0,11.419,3.538,20.68,7.899,20.68h81.375c4.368,0,7.901-9.261,7.901-20.68
								v-2.067c0-11.425-3.533-20.687-7.901-20.687h-81.375c-4.361,0-7.899,9.262-7.899,20.687V758.747z"/>
						</g>
					</g>
					<g>
						<path style="fill:#B22043;" d="M469.464,926.183c-1.372-4.595-2.172-10.108-2.172-16.038v-2.898
							c0-16.03,5.84-29.02,13.035-29.02h134.25c7.203,0,13.036,12.99,13.036,29.02v2.898c0,5.93-0.799,11.443-2.171,16.038H469.464z
							"/>
						<path style="fill:#771531;" d="M147.626,926.183c-3.354-4.595-5.31-10.108-5.31-16.038v-2.898
							c0-16.03,14.271-29.02,31.878-29.02h328.378c17.612,0,31.883,12.99,31.883,29.02v2.898c0,5.93-1.956,11.443-5.31,16.038
							H147.626z"/>
					</g>
					<g>
						<g>
							<path style="fill:#771531;" d="M170.142,926.183c4.392-93.996-60.375-469.205-42.03-497.063
								c7.562-11.476,66.03-34.138,105.013-36.143c26.793-1.369,127.792-15.911,176.61,59.059
								c43.27,66.45,54.224,403.542,66.284,474.148H170.142z"/>
						</g>
						<g>
							<path style="fill:#B22043;" d="M168.453,926.183c-4.776-141.828-63.641-470.509-39.604-496.572
								c42.028-45.572,152.305-35.983,176.277-33.367c95.893,10.461,100.502,250.317,105.524,380.71
								c1.408,36.938,3.038,100.854,4.17,149.23H168.453z"/>
						</g>
					</g>
					<g>
						<g>
							<rect x="542.767" y="769.262" style="fill:#151D2B;" width="31.441" height="110.383"/>
							<rect x="533.578" y="769.262" style="fill:#222E44;" width="31.439" height="110.383"/>
						</g>
						<g>
							<path style="fill:#771531;" d="M433.807,772.312c0,11.419,6.227,20.681,13.911,20.681h143.314
								c7.682,0,13.913-9.262,13.913-20.681v-2.067c0-11.427-6.231-20.687-13.913-20.687H447.718
								c-7.684,0-13.911,9.26-13.911,20.687V772.312z"/>
							<path style="fill:#B22043;" d="M526.706,772.312c0,11.419,4.325,20.681,9.667,20.681h99.556c5.35,0,9.671-9.262,9.671-20.681
								v-2.067c0-11.427-4.321-20.687-9.671-20.687h-99.556c-5.342,0-9.667,9.26-9.667,20.687V772.312z"/>
						</g>
					</g>
				</g>
			</g>
		</g>
	</g>
</g>
</svg>
