<?xml version="1.0" encoding="utf-8"?>
<!-- Generator: Adobe Illustrator 27.5.0, SVG Export Plug-In . SVG Version: 6.00 Build 0)  -->
<svg version="1.1" id="Layer_1" xmlns="http://www.w3.org/2000/svg" xmlns:xlink="http://www.w3.org/1999/xlink" x="0px" y="0px"
	 viewBox="0 0 550 400" style="enable-background:new 0 0 550 400;" xml:space="preserve">
<g>
	<path style="fill:#FFF6EB;" d="M392.793,306.221c0,0,76.703,21.431,116.232,1.445c39.529-19.986-53.887-51.942-53.887-51.942
		s75.252,13.904,81.904-17.863c6.652-31.767-66.668-16.165-66.668-16.165s64.524-28.269,49.009-54.583
		s-237.787,44.307-227.812,97.193C301.546,317.192,392.793,306.221,392.793,306.221z"/>
	<path style="fill:#FFF6EB;" d="M148.333,306.88c0,0-74.06,17.782-109.437-6.592C3.52,275.914,98.541,255.57,98.541,255.57
		s-72.11,4.544-73.967-27.516s64.128-7.791,64.128-7.791s-58.374-35.5-39.563-59.557s138.504,10.397,192.141,119.269
		S148.333,306.88,148.333,306.88z"/>
	<path style="fill:#FFF6EB;" d="M149.591,119.991c0,0-51.944-34.56-47.775-68.963c4.17-34.403,67.964,26.302,67.964,26.302
		s-38.891-50.093-11.773-63.271c27.118-13.177,57.457,51.02,57.457,51.02S198.627,2.198,228.759,6.817
		c30.133,4.618,51.076,151.543,51.076,151.543L149.591,119.991z"/>
	<path style="fill:#FFF6EB;" d="M376.395,118.927c0,0,51.944-34.56,47.775-68.963C420,15.561,356.206,76.267,356.206,76.267
		s38.891-50.093,11.773-63.271c-27.118-13.177-57.365,47.282-57.365,47.282S327.36,1.134,297.227,5.753
		c-30.133,4.618-51.076,151.543-51.076,151.543L376.395,118.927z"/>
	<g>
		<path style="fill:#FFDCD1;" d="M420.345,265.523c0.146-0.156,14.763-15.928,27.671-42.576
			c7.579-15.647,13.096-31.928,16.395-48.388c4.124-20.573,4.777-41.489,1.941-62.167l0.508-0.07
			c2.844,20.738,2.188,41.715-1.949,62.349c-3.309,16.505-8.841,32.828-16.442,48.516c-6.762,13.957-13.945,24.817-18.779,31.47
			c-5.241,7.212-8.934,11.177-8.97,11.216L420.345,265.523z"/>
		<path style="fill:#FFDCD1;" d="M472.653,111.54c1.645,15.371-0.139,28.165-3.985,28.577c-3.845,0.411-8.296-11.716-9.941-27.087
			c-1.645-15.371,0.139-28.165,3.985-28.576C466.558,84.042,471.008,96.169,472.653,111.54z"/>
		<path style="fill:#FFDCD1;" d="M462.862,154.074c1.326,6.703,1.94,12.963,1.885,17.928c-0.07,6.268-3.317,14.22-3.317,14.22
			s-9.307-14.266-12.307-29.431c-3-15.165-2.356-28.067,1.438-28.817C454.355,127.224,459.862,138.909,462.862,154.074z"/>
		<path style="fill:#FFDCD1;" d="M451.902,196.483c1.02,5.158,1.619,10.054,1.816,14.3c0,0-5.13,14.184-6.155,13.105
			c-3.341-3.517-7.104-13.083-9.399-24.687c-3-15.165-2.356-28.067,1.438-28.817C443.395,169.633,448.902,181.319,451.902,196.483z"
			/>
		<path style="fill:#FFDCD1;" d="M484.317,183.108c-10.288,8.782-25.782,15.2-25.782,15.2l4.824-15.786c0,0,6.5-5.486,11.866-10.065
			c11.758-10.036,23.325-15.788,25.836-12.846C503.571,162.551,496.075,173.072,484.317,183.108z"/>
		<path style="fill:#FFDCD1;" d="M471.342,227.203c-14.526,5.288-27.801,4.361-27.801,4.361l6.54-12.479
			c0,0,9.394-2.466,16.469-5.042c14.526-5.288,27.374-6.629,28.697-2.995C496.571,214.682,485.868,221.915,471.342,227.203z"/>
	</g>
	<g>
		<path style="fill:#FFDCD1;" d="M317.405,84.15c-0.077-0.116-7.882-11.714-22.823-23.851c-8.773-7.126-18.255-13.041-28.181-17.58
			c-12.405-5.673-25.545-9.201-39.052-10.485l0.031-0.332c13.547,1.288,26.725,4.827,39.166,10.517
			c9.952,4.552,19.458,10.483,28.255,17.629c7.826,6.358,13.629,12.52,17.119,16.57c3.784,4.39,5.743,7.318,5.762,7.347
			L317.405,84.15z"/>
		<path style="fill:#FFDCD1;" d="M227.748,28.12c9.972,1.248,17.803,4.282,17.491,6.777c-0.312,2.495-8.649,3.506-18.621,2.258
			c-9.972-1.248-17.803-4.282-17.491-6.777C209.439,27.882,217.776,26.872,227.748,28.12z"/>
		<path style="fill:#FFDCD1;" d="M253.207,40.649c4.439,0.159,8.493,0.703,11.626,1.477c3.956,0.977,8.505,4.216,8.505,4.216
			s-10.414,3.766-20.457,3.406c-10.043-0.36-18.112-2.688-18.022-5.201C234.949,42.035,243.164,40.289,253.207,40.649z"/>
		<path style="fill:#FFDCD1;" d="M278.413,53.9c3.416,0.122,6.604,0.473,9.32,0.98c0,0,8.212,5.359,7.377,5.847
			c-2.723,1.59-9.337,2.548-17.022,2.272c-10.043-0.36-18.112-2.688-18.022-5.201C260.155,55.285,268.37,53.54,278.413,53.9z"/>
		<path style="fill:#FFDCD1;" d="M274.775,31.395c4.025,7.818,5.78,18.579,5.78,18.579l-9.272-5.403c0,0-2.504-4.93-4.603-9.008
			c-4.6-8.935-6.518-17.112-4.283-18.262C264.633,16.149,270.175,22.46,274.775,31.395z"/>
		<path style="fill:#FFDCD1;" d="M300.748,46.171c1.184,9.98-1.38,18.243-1.38,18.243l-6.923-5.997c0,0-0.162-6.312-0.738-11.173
			c-1.184-9.98-0.119-18.31,2.377-18.607C296.581,28.341,299.565,36.191,300.748,46.171z"/>
	</g>
	<g>
		<path style="fill:#FFDCD1;" d="M442.41,282.446c0.097,0.001,9.887,0.062,22.804-3.793c7.585-2.264,14.748-5.415,21.29-9.367
			c8.177-4.938,15.402-11.148,21.475-18.456l0.18,0.149c-6.091,7.329-13.337,13.557-21.538,18.509
			c-6.56,3.962-13.743,7.121-21.348,9.39c-6.766,2.019-12.621,2.945-16.341,3.366c-4.033,0.456-6.5,0.435-6.524,0.435
			L442.41,282.446z"/>
		<path style="fill:#FFDCD1;" d="M510.201,252.684c-4.657,5.277-9.502,8.61-10.822,7.445c-1.32-1.165,1.385-6.387,6.041-11.664
			c4.657-5.277,9.502-8.61,10.822-7.445C517.563,242.185,514.858,247.408,510.201,252.684z"/>
		<path style="fill:#FFDCD1;" d="M492.907,262.47c-1.844,2.505-3.757,4.636-5.442,6.143c-2.126,1.903-5.795,3.257-5.795,3.257
			s1.93-7.511,6.101-13.179c4.171-5.669,8.702-9.418,10.12-8.374C499.309,251.36,497.078,256.801,492.907,262.47z"/>
		<path style="fill:#FFDCD1;" d="M475.296,271.824c-1.419,1.928-2.879,3.634-4.244,5.005c0,0-6.341,2.637-6.293,1.961
			c0.154-2.203,2.21-6.407,5.402-10.745c4.171-5.669,8.702-9.418,10.12-8.374C481.698,260.714,479.467,266.155,475.296,271.824z"/>
		<path style="fill:#FFDCD1;" d="M489.751,278.599c-6.111-0.756-13.029-3.987-13.029-3.987l6.784-3.232c0,0,3.84,0.497,7.027,0.891
			c6.984,0.864,12.471,2.981,12.255,4.728C502.572,278.747,496.735,279.463,489.751,278.599z"/>
		<path style="fill:#FFDCD1;" d="M470.954,287.795c-6.241-3.253-10.009-7.996-10.009-7.996l6.201-1.639c0,0,3.716,2.397,6.756,3.981
			c6.241,3.253,10.64,7.156,9.826,8.717C482.914,292.419,477.195,291.048,470.954,287.795z"/>
	</g>
	<g>
		<path style="fill:#FFDCD1;" d="M138.741,234.579c-0.181-0.114-18.324-11.656-37.578-34.152
			c-11.305-13.209-20.776-27.554-28.148-42.637c-9.214-18.851-15.158-38.915-17.668-59.635l-0.509,0.061
			c2.516,20.78,8.479,40.903,17.721,59.809c7.393,15.124,16.889,29.506,28.226,42.749c10.085,11.782,19.791,20.461,26.157,25.668
			c6.901,5.644,11.479,8.541,11.525,8.57L138.741,234.579z"/>
		<path style="fill:#FFDCD1;" d="M49.038,98.932c2.313,15.285,7.289,27.206,11.113,26.627c3.824-0.579,5.048-13.439,2.735-28.723
			c-2.313-15.285-7.289-27.206-11.113-26.627C47.949,70.787,46.724,83.647,49.038,98.932z"/>
		<path style="fill:#FFDCD1;" d="M69.311,137.584c0.42,6.82,1.416,13.031,2.731,17.819c1.659,6.045,6.82,12.912,6.82,12.912
			s5.379-16.162,4.428-31.592c-0.95-15.429-4.85-27.745-8.71-27.507C70.719,109.454,68.36,122.155,69.311,137.584z"/>
		<path style="fill:#FFDCD1;" d="M90.683,175.819c0.323,5.248,0.988,10.136,1.876,14.292c0,0,8.564,12.416,9.282,11.112
			c2.338-4.25,3.548-14.459,2.821-26.265c-0.951-15.429-4.85-27.745-8.71-27.507C92.091,147.689,89.732,160.39,90.683,175.819z"/>
		<path style="fill:#FFDCD1;" d="M55.934,171.115c12.181,5.881,28.797,8.153,28.797,8.153l-8.675-14.044
			c0,0-7.68-3.655-14.033-6.722c-13.921-6.721-26.57-9.346-28.251-5.863C32.09,156.123,42.013,164.395,55.934,171.115z"/>
		<path style="fill:#FFDCD1;" d="M79.683,210.469c15.393,1.426,27.997-2.844,27.997-2.844l-9.495-10.408
			c0,0-9.712,0.001-17.21-0.694c-15.393-1.426-28.16,0.541-28.517,4.392C52.101,204.766,64.29,209.044,79.683,210.469z"/>
	</g>
	<g>
		<path style="fill:#FFDCD1;" d="M121.069,275.226c-0.135,0.015-13.7,1.475-32.151-2.056c-10.834-2.073-21.209-5.437-30.835-9.996
			c-12.031-5.699-22.921-13.293-32.368-22.572l-0.228,0.232c9.474,9.307,20.397,16.923,32.464,22.637
			c9.652,4.572,20.055,7.943,30.918,10.021c9.665,1.849,17.913,2.31,23.13,2.371c5.656,0.066,9.073-0.31,9.107-0.313
			L121.069,275.226z"/>
		<path style="fill:#FFDCD1;" d="M22.894,243.484c7.198,6.662,14.384,10.603,16.051,8.802c1.667-1.801-2.817-8.661-10.015-15.324
			s-14.384-10.603-16.051-8.802C11.212,229.962,15.696,236.822,22.894,243.484z"/>
		<path style="fill:#FFDCD1;" d="M48.247,254.622c2.908,3.215,5.861,5.9,8.408,7.753c3.216,2.34,8.493,3.702,8.493,3.702
			s-3.732-10.142-10.311-17.416s-13.388-11.836-15.208-10.189C37.809,240.118,41.668,247.349,48.247,254.622z"/>
		<path style="fill:#FFDCD1;" d="M73.98,265.118c2.238,2.474,4.502,4.634,6.588,6.343c0,0,9.162,2.765,9.001,1.835
			c-0.523-3.033-3.965-8.573-8.999-14.139c-6.579-7.274-13.388-11.836-15.208-10.189C63.542,250.614,67.4,257.845,73.98,265.118z"/>
		<path style="fill:#FFDCD1;" d="M54.889,276.543c8.368-1.907,17.505-7.358,17.505-7.358l-9.861-3.529c0,0-5.255,1.229-9.619,2.223
			c-9.563,2.179-16.873,5.885-16.328,8.277C37.132,278.549,45.326,278.722,54.889,276.543z"/>
		<path style="fill:#FFDCD1;" d="M82.243,286.652c8.196-5.387,12.755-12.493,12.755-12.493l-8.828-1.401
			c0,0-4.815,3.845-8.807,6.469c-8.196,5.387-13.748,11.416-12.4,13.467C66.311,294.744,74.047,292.039,82.243,286.652z"/>
	</g>
	<path style="fill:#8BC7FF;" d="M435.23,283.068H108.691c-4.312,0-7.807-3.495-7.807-7.807V80.435c0-4.312,3.495-7.807,7.807-7.807
		H435.23c4.312,0,7.807,3.496,7.807,7.807v194.826C443.037,279.573,439.541,283.068,435.23,283.068z"/>
	<rect x="106.985" y="78.729" style="fill:#FFF0C9;" width="118.474" height="99.284"/>
	<rect x="107.016" y="178.013" style="fill:#FFFFFF;" width="118.474" height="99.284"/>
	<path style="fill:#522D34;" d="M181.488,100.555c0,0,10.492,6.627,9.83,16.788c-0.663,10.161,13.656,15.68,5.061,29.653
		s-24.607,6.446-27.481-1.379C166.023,137.792,181.488,100.555,181.488,100.555z"/>
	<path style="fill:#2E6589;" d="M117.751,177.658c0,0,6.179-37.189,48.271-37.189c42.092,0,50.992,37.379,50.992,37.379
		L117.751,177.658z"/>
	<circle style="fill:#2E6589;" cx="118.93" cy="264.306" r="8.84"/>
	<rect x="114.052" y="261.466" style="fill:#1B3C51;" width="8.042" height="6.528"/>
	<path style="fill:#FFC857;" d="M170.71,160.281c0.576,0,1.167-0.043,1.771-0.133c3.295-0.49,5.744-1.954,7.279-4.352
		c3.091-4.828,1.569-11.866,1.131-13.579c-0.19-0.048-0.377-0.099-0.569-0.145c0.243,0.901,2.161,8.522-0.995,13.448
		c-1.452,2.267-3.78,3.653-6.921,4.12c-12.436,1.842-18.629-17.125-18.69-17.317c-0.043-0.135-0.187-0.21-0.322-0.167
		c-0.135,0.043-0.209,0.187-0.166,0.322C153.286,142.667,159.037,160.281,170.71,160.281z"/>
	<path style="fill:#FFC857;" d="M145.958,177.647c0.347-14.559-7.972-24.121-11.347-27.384c-0.136,0.106-0.274,0.21-0.408,0.317
		c3.278,3.152,11.592,12.614,11.242,27.067L145.958,177.647z"/>
	<path style="fill:#FFC857;" d="M207.485,177.623c0.805-15.066-8.063-25.304-13.101-29.853c-0.767-0.462-1.56-0.909-2.378-1.339
		c3.95,3.091,15.901,13.939,14.965,31.193H207.485z"/>
	<polygon style="fill:#1B3C51;" points="118.855,264.73 124.469,267.971 124.469,261.489 	"/>
	<path style="fill:#FFFFFF;" d="M110.863,272.125c-0.066,0-0.131-0.025-0.181-0.075c-0.1-0.1-0.1-0.262,0-0.362l15.126-15.125
		c0.1-0.1,0.262-0.1,0.362,0c0.1,0.1,0.1,0.262,0,0.362l-15.125,15.126C110.994,272.1,110.928,272.125,110.863,272.125z"/>
	<path style="fill:#FAA88D;" d="M158.403,142.885l0.593-17.571h17.385c0,0,4.443,21.222-1.44,26.19
		C169.059,156.473,161.984,149.22,158.403,142.885z"/>
	<path style="fill:#EC8777;" d="M158.909,133.28l0.492,2.176c1.742,8.112,10.127,11.72,14.803,11.401
		c4.676-0.319,3.888-5.793,3.719-9.31l-12.642-4.573C165.281,132.975,160.399,130.443,158.909,133.28z"/>
	<path style="fill:#FAA88D;" d="M184.908,118.776c0,13.133,0.455,24.964-9.304,24.964c-9.759,0-23.86-10.646-23.86-23.779
		s7.911-23.779,17.67-23.779C179.172,96.181,184.908,105.643,184.908,118.776z"/>
	<path style="fill:#522D34;" d="M159.997,104.589c0,0,5.366,3.697,16.521,2.813c11.155-0.884,14.137-11.376,12.48-13.474
		c-1.657-2.099-7.696,2.54-13.899,0c-6.203-2.54-15.701-4.639-22.77,3.313c-7.069,7.952-4.418,14.027-3.534,20.433
		c0.884,6.406-18.445,11.265-18.224,24.077c0.221,12.812,16.818,14.725,22.089,10.492c5.271-4.232,8.768-7.774,6.601-22.734
		C157.095,114.55,159.997,104.589,159.997,104.589z"/>
	<polygon style="fill:#EC8777;" points="176.889,113.553 176.782,117.203 183.921,116.905 184.334,113.16 	"/>
	<polygon style="fill:#EC8777;" points="162.759,114.442 163.533,118.411 170.763,117.761 171.307,114.121 	"/>
	<rect x="343.934" y="98.963" style="fill:#FFFFFF;" width="93.001" height="178.003"/>
	<rect x="343.934" y="78.729" style="fill:#FFFFFF;" width="93.001" height="20.234"/>
	<rect x="348.086" y="256.02" style="fill:#FFF6EB;" width="66.271" height="17.386"/>
	<rect x="414.18" y="256.02" style="fill:#B7DCFF;" width="18.869" height="17.386"/>
	<rect x="225.459" y="78.729" style="fill:#FFFFFF;" width="118.474" height="99.284"/>
	<rect x="225.716" y="78.729" style="fill:#FFF6EB;" width="58.161" height="100.652"/>
	<path style="fill:#FFF0C9;" d="M343.677,178.251h-34.95v-15.212c0-19.302,15.648-34.95,34.95-34.95l0,0V178.251z"/>
	<path style="fill:#FFDCD1;" d="M335.598,179.512c0,0-7.988-41.16-50.081-41.16c-42.092,0-50.773,39.9-50.773,39.9L335.598,179.512z
		"/>
	<path style="fill:#FFDCD1;" d="M335.598,179.512c0,0-7.988-41.16-50.081-41.16c-42.092,0-50.773,39.9-50.773,39.9L335.598,179.512z
		"/>
	<path style="fill:#FAA88D;" d="M294.742,139.146l-0.593-17.571h-17.385c0,0-4.443,21.222,1.44,26.19
		C284.087,152.734,291.162,145.481,294.742,139.146z"/>
	<path style="fill:#EC8777;" d="M294.623,129.391l-0.158,2.597c-1.742,8.112-9.287,10.816-14.883,11.006
		c-5.597,0.19-4.529-5.669-4.36-9.186l12.643-4.573C287.864,129.236,293.133,126.554,294.623,129.391z"/>
	<path style="fill:#FAA88D;" d="M268.284,116.736c0.904,13.102,1.265,24.936,11.001,24.264c9.736-0.672,20.884-9.333,17.136-25.541
		c-0.904-13.102-4.499-23.003-14.235-22.331C272.45,93.8,267.379,103.634,268.284,116.736z"/>
	<polygon style="fill:#EC8777;" points="275.924,110.974 276.282,114.608 269.086,114.844 268.469,111.094 	"/>
	<polygon style="fill:#EC8777;" points="290.081,110.887 289.583,114.901 282.325,114.75 281.532,111.156 	"/>
	<path style="fill:#6F3D47;" d="M281.189,110.586c0.05,1.754,3.864,1.175,6.609,0.753c1.594-0.245,2.169-0.221,2.284-0.451
		c0.115-0.23-0.42-0.996-1.978-1.413C285.316,108.729,281.138,108.808,281.189,110.586z"/>
	<path style="fill:#6F3D47;" d="M276.717,110.755c0.108,1.752-3.684,0.867-6.456,0.692c-1.609-0.101-1.91,0.185-2.045-0.034
		c-0.135-0.219,0.049-1.136,1.564-1.691C272.489,108.73,276.608,108.979,276.717,110.755z"/>
	<path style="fill:#EC8777;" d="M279.573,125.056c-0.137,0.545-1.561,0.656-3.18,0.247c-1.619-0.408-2.762-1.054-2.624-1.599
		c0.137-0.545,1.254,0.036,2.873,0.445C278.26,124.557,279.71,124.511,279.573,125.056z"/>
	<path style="fill:#FFFFFF;" d="M283.877,128.168l-9.628,0.028c0,0,1.476,2.409,5.071,2.283
		C282.916,130.355,283.877,128.168,283.877,128.168z"/>
	<path style="fill:#FFFFFF;" d="M282.249,114.887c0.028,1.048,1.697,1.854,3.727,1.799c2.03-0.055,3.653-0.949,3.625-1.997
		c-0.028-1.048-1.501-0.718-3.531-0.664C284.038,114.08,282.22,113.839,282.249,114.887z"/>
	<path style="fill:#522D34;" d="M282.25,115.156c-0.014,0-0.027-0.001-0.041-0.003c-0.14-0.021-0.234-0.163-0.214-0.303
		c0.027-0.187,0.344-1.125,3.909-1.199c3.472-0.066,3.9,0.74,3.948,0.991c0.026,0.139-0.065,0.273-0.204,0.299
		c-0.129,0.024-0.256-0.054-0.293-0.179c-0.028-0.048-0.444-0.655-3.439-0.599c-3.117,0.064-3.416,0.777-3.418,0.785
		C282.478,115.075,282.373,115.156,282.25,115.156z"/>
	<path style="fill:#FFFFFF;" d="M269.083,114.572c-0.053,1.047,1.547,1.98,3.575,2.084s3.716-0.661,3.769-1.708
		c0.054-1.047-1.441-0.833-3.469-0.937C270.931,113.907,269.137,113.525,269.083,114.572z"/>
	<path style="fill:#522D34;" d="M276.428,115.204c-0.106,0-0.204-0.066-0.241-0.17c-0.018-0.037-0.449-0.843-3.44-0.95
		c-3.017-0.113-3.426,0.585-3.43,0.592c-0.048,0.134-0.191,0.191-0.323,0.147c-0.133-0.048-0.199-0.203-0.152-0.336
		c0.062-0.174,0.541-1.029,3.923-0.915c3.447,0.124,3.871,1.18,3.908,1.3c0.042,0.135-0.034,0.279-0.169,0.32
		C276.479,115.201,276.453,115.204,276.428,115.204z"/>
	<path style="fill:#EC8777;" d="M273.985,124.074c-0.046,0-0.093-0.013-0.135-0.038c-0.12-0.074-0.158-0.232-0.084-0.353
		c1.957-3.176,4.489-7.856,3.889-11.808c-0.021-0.14,0.075-0.271,0.215-0.292c0.137-0.018,0.271,0.075,0.292,0.215
		c0.625,4.119-1.96,8.909-3.959,12.155C274.155,124.031,274.071,124.074,273.985,124.074z"/>
	<path style="fill:#522D34;" d="M284.029,115.431c-0.037-0.542,0.175-1.04,0.533-1.395c0.469-0.002,0.98,0.003,1.507-0.011
		c0.339-0.009,0.66-0.026,0.964-0.043c0.329,0.3,0.55,0.72,0.583,1.2c0.037,0.535-0.17,1.027-0.519,1.382
		c-0.353,0.068-0.729,0.11-1.12,0.121c-0.499,0.013-0.976-0.026-1.413-0.107C284.262,116.282,284.06,115.885,284.029,115.431z"/>
	<path style="fill:#522D34;" d="M271.313,115.293c-0.036-0.525,0.161-1.009,0.498-1.362c0.366,0.029,0.752,0.06,1.148,0.08
		c0.57,0.029,1.096,0.034,1.56,0.048c0.216,0.274,0.355,0.613,0.381,0.987c0.041,0.6-0.219,1.148-0.649,1.505
		c-0.486,0.094-1.024,0.135-1.591,0.106c-0.219-0.011-0.431-0.034-0.638-0.063C271.624,116.29,271.35,115.83,271.313,115.293z"/>
	<path style="fill:#EC8777;" d="M276.566,132.885c0.033,0.479,1.107,0.795,2.399,0.706c1.292-0.089,2.313-0.55,2.28-1.029
		c-0.033-0.479-1.107-0.795-2.399-0.706C277.553,131.945,276.533,132.406,276.566,132.885z"/>
	<path style="fill:#FFC6B5;" d="M279.517,157.819c0.595,0.066,1.176,0.086,1.745,0.065c10.233-0.383,16.249-14.206,17.696-17.961
		c-0.167-0.041-0.332-0.084-0.501-0.124c-1.534,3.972-7.989,18.713-18.885,17.511c-3.058-0.339-5.316-1.597-6.71-3.74
		c-3.004-4.617-1.194-12.047-0.732-13.714c-0.191,0.045-0.382,0.089-0.571,0.136c-0.579,2.15-2.143,9.221,0.873,13.856
		C273.914,156.126,276.298,157.462,279.517,157.819z"/>
	<path style="fill:#FFC6B5;" d="M317.22,149.038c-0.132-0.109-0.261-0.219-0.395-0.326c-3.359,4.342-11.332,16.17-11.217,30.425
		l0.512,0.006C306.003,165.046,313.896,153.335,317.22,149.038z"/>
	<path style="fill:#FFC6B5;" d="M259.041,145.038c-0.58,0.337-1.151,0.681-1.705,1.036c-4.98,5.362-14.096,17.283-13.646,32.289
		l0.513,0.006C243.703,162.06,254.669,149.412,259.041,145.038z"/>
	<path style="fill:#2E6589;" d="M295.667,113.532l-0.742,4.275c0,0-0.774-9.588-1.349-10.92c-1.416-3.281-3.66-6.623-7.03-7.188
		c-6.92-1.16-12.993,8.81-19.507,3.325c-6.514-5.485-6.137-12.878-1.781-13.997c4.357-1.119,6.734,1.309,14.569,1.859
		c7.835,0.551,13.493-3.455,19.121-0.979c5.628,2.477,2.913,10.577,2.913,10.577s4.481-2.287,7.426,4.808
		c2.946,7.096-8.761,16.367-8.761,16.367L295.667,113.532z"/>
	<rect x="225.459" y="178.013" style="fill:#EFFADC;" width="118.474" height="99.284"/>
	<path style="fill:#FAA88D;" d="M302.779,119.693c-0.657,3.47-3.468,5.851-6.279,5.319c-2.811-0.532-4.556-3.776-3.9-7.246
		c0.657-3.47,3.468-5.851,6.279-5.319C301.69,112.979,303.436,116.224,302.779,119.693z"/>
	<path style="fill:#EC8777;" d="M299.855,118.27c2.24,2.588-1,4.133-3.458,3.85l-0.514-4.763c0,0-0.213-2.715,2.008-2.947
		C300.111,114.178,297.615,115.682,299.855,118.27z"/>
	<g>
		<path style="fill:#8BC7FF;" d="M343.934,277.223c-0.142,0-0.256-0.115-0.256-0.256V78.729c0-0.142,0.115-0.256,0.256-0.256
			c0.142,0,0.256,0.115,0.256,0.256v198.237C344.19,277.108,344.075,277.223,343.934,277.223z"/>
		<path style="fill:#8BC7FF;" d="M225.46,262.705c-0.142,0-0.256-0.115-0.256-0.256V78.729c0-0.142,0.115-0.256,0.256-0.256
			c0.142,0,0.256,0.115,0.256,0.256v183.719C225.716,262.59,225.601,262.705,225.46,262.705z"/>
		<path style="fill:#8BC7FF;" d="M343.934,178.269H106.985c-0.142,0-0.256-0.115-0.256-0.256c0-0.142,0.115-0.256,0.256-0.256
			h236.949c0.142,0,0.256,0.115,0.256,0.256C344.19,178.154,344.075,178.269,343.934,178.269z"/>
		<path style="fill:#8BC7FF;" d="M436.935,99.219h-93.002c-0.142,0-0.256-0.115-0.256-0.256c0-0.142,0.115-0.256,0.256-0.256h93.002
			c0.142,0,0.256,0.115,0.256,0.256C437.191,99.105,437.077,99.219,436.935,99.219z"/>
	</g>
	<rect x="96.242" y="387.331" style="fill:#A8D8FF;" width="343.538" height="2.683"/>
	<polygon style="fill:#FFDCD1;" points="439.78,387.331 96.242,387.331 136.5,297.663 411.549,297.663 	"/>
	<path style="fill:#FFC6B5;" d="M377.072,345.746c0,13.971-46.338,22.319-113.557,22.319s-111.79-5.936-111.79-22.319
		c0-16.383,52.918-42.41,112.397-42.41S377.072,331.774,377.072,345.746z"/>
	<path style="fill:#112633;" d="M297.543,351.483c-1.161,7.127-3.16,12.612-4.983,12.315c-1.823-0.297-2.781-6.264-1.62-13.391
		c1.161-7.127,3.928-12.474,5.752-12.176C298.515,338.528,298.704,344.357,297.543,351.483z"/>
	<path style="fill:#FFC6B5;" d="M328.62,356.41c4.418,14.503-1.78,25.655-8.125,30.989l-11.754-0.063l8.624-29.312L328.62,356.41z"
		/>
	<g>
		<path style="fill:#FAA88D;" d="M285.384,360.206l9.612,2.594l6.707,1.667c2.745,0.404,5.478-17.22,4.519-17.419
			c-6.942-1.44-15.535-4.148-15.535-4.148L285.384,360.206z"/>
		<path style="fill:#EC8777;" d="M293.608,343.785l-3.186,17.781l4.514,1.218l0.55,0.138c-1.584-1.94,1.29-15.583,6.462-16.842
			C298.972,345.331,295.64,344.384,293.608,343.785z"/>
		<path style="fill:#FFFFFF;" d="M327.013,356.188c-1.925-8.336-10.876-7.472-18.036-8.626c-0.869-0.14-1.797-0.315-2.756-0.514
			c-3.182,1.98-6.475,12.722-4.519,17.423c2.745,0.404,4.518,3.014,4.515,5.869c-0.008,6.836-9.444,20.81-0.165,21.659
			C315.331,392.847,328.939,364.524,327.013,356.188z"/>
		<path style="fill:#FFDCD1;" d="M318.958,348.926c-0.519,0.835-0.931,1.756-1.206,2.751c-1.556,5.614,1.733,11.427,7.347,12.983
			c0.305,0.085,0.612,0.152,0.917,0.209c1.033-3.583,1.455-6.698,0.997-8.681C325.957,351.616,322.786,349.814,318.958,348.926z"/>
		<path style="fill:#FFDCD1;" d="M302.578,383.695c-1.125,4.328-1.068,7.888,3.474,8.303c2.879,0.263,6.173-2.282,9.292-6.166
			C309.866,381.699,305.485,382.288,302.578,383.695z"/>
		<path style="fill:#FFDCD1;" d="M305.522,367.353c0.42-6.965,2.884-13.737,7.017-19.343c-0.244-0.026-0.487-0.052-0.73-0.079
			c-3.901,5.412-6.297,11.838-6.867,18.496C305.162,366.715,305.357,367.024,305.522,367.353z"/>
	</g>
	<path style="fill:#FFC6B5;" d="M240.934,367.815c-10.922,1.125-2.521,13.823,0.347,19.516l-13.559,0l-1.812-25.706L240.934,367.815
		z"/>
	<path style="fill:#FAA88D;" d="M257.092,180.857c0,0-5.179-4.889-7.111-0.854c-1.932,4.035,4.293,11.6,7.659,10.119
		C261.005,188.64,257.092,180.857,257.092,180.857z"/>
	<path style="fill:#EC8777;" d="M256.658,182.303c0,0-3.776-3.564-5.185-0.623c-1.409,2.942,3.13,8.458,5.584,7.378
		C259.511,187.978,256.658,182.303,256.658,182.303z"/>
	<path style="fill:#522D34;" d="M256.073,180.652c0,0-6.346-5.905-4.897-16.446c1.448-10.542,10.272-7.134,10.272-7.134
		s3.142-7.995,10.879-7.512c7.737,0.483,13.809,8.369,19.826,9.495c6.017,1.127,9.96-1.449,9.96-1.449s0,17.336-13.841,23.797
		S256.073,180.652,256.073,180.652z"/>
	<path style="fill:#FAA88D;" d="M289.372,180.857c0,0,5.179-4.889,7.111-0.854s-4.293,11.6-7.659,10.119
		C285.459,188.64,289.372,180.857,289.372,180.857z"/>
	<path style="fill:#EC8777;" d="M289.289,182.056c0,0,3.939-3.718,5.408-0.65s-3.265,8.822-5.824,7.695
		C286.313,187.975,289.289,182.056,289.289,182.056z"/>
	<path style="fill:#2E6589;" d="M378.053,323.885c-0.207-33.135-51.644-35.16-51.644-35.16s-85.727-1.79-119.426,2.387
		c0,0-61.45,6.259-58.55,37.323c1.828,19.584,58.512,28.484,100.159,32.387c-0.107,1.574-0.435,2.913-1.039,3.871
		c0,0,9.714-0.57,23.841-2.071c12.581,0.814,20.856,1.06,20.856,1.06c-0.507-0.778-0.611-2.024-0.412-3.567
		C329.731,354.804,378.179,344.069,378.053,323.885z M316.186,325.297l-45.572,6.571l-63.631-6.821L316.186,325.297z"/>
	<path style="fill:#719FD1;" d="M261.223,349.609c-0.137,0-0.25-0.108-0.256-0.245c-0.006-0.142,0.104-0.261,0.245-0.267
		c0.843-0.036,84.436-3.829,99.344-22.362c1.862-2.315,2.578-4.795,2.127-7.371c-2.46-14.067-66.128-19.851-124.05-16.432
		c-45.156,2.668-73.521,10.014-74.026,19.171c-0.182,3.299,1.018,6.304,3.565,8.93c6.037,6.223,20.014,10.599,40.422,12.656
		c15.452,1.557,29.269,1.24,29.407,1.236c0.139,0.004,0.259,0.109,0.262,0.25c0.004,0.142-0.108,0.259-0.25,0.263
		c-0.138,0.004-13.983,0.323-29.466-1.238c-20.826-2.098-34.534-6.407-40.744-12.809c-2.651-2.734-3.899-5.868-3.709-9.315
		c0.279-5.055,7.901-9.419,22.656-12.97c13.043-3.14,30.972-5.451,51.851-6.684c28.241-1.668,58.885-1.095,81.973,1.535
		c33.675,3.835,41.759,10.448,42.611,15.32c0.477,2.728-0.274,5.346-2.233,7.78c-6.327,7.865-25.037,14.051-55.613,18.387
		c-22.738,3.224-43.898,4.157-44.109,4.167C261.231,349.609,261.227,349.609,261.223,349.609z"/>
	<path style="fill:#E08035;" d="M168.176,244.53c-5.699,0.927-10.6,0.994-10.802-0.25c-0.202-1.245,4.37-3.33,10.069-4.258
		c5.699-0.927,10.84-1.909,11.043-0.664C178.451,241.696,173.875,243.603,168.176,244.53z"/>
	<path style="fill:#FAA88D;" d="M177.371,247.473c0,0-1.855-14.658,6.505-24.176c2.869-4.083,6.286-1.478,5.709-4.588
		c-0.577-3.11-7.148-1.72-8.619-1.198c-1.471,0.522-4.602,2.972-4.602,2.972l-6.168-10.27c0,0-4.59-8.734-7.038-10.076
		c-2.447-1.342,0.562,8.396,0.562,8.396l2.628,5.073c0,0-10.882-10.191-15.734-9.631c-1.418,0.267-0.914,1.354-0.914,1.354
		s-2.152-1.286-2.736,0.504c-0.584,1.79,9.447,12.827,9.447,12.827s-10.988-6.437-12.328-4.463
		c-1.34,1.974,19.066,18.536,19.066,18.536l0.478,20.133L177.371,247.473z"/>
	<path style="fill:#EC8777;" d="M163.477,246.617c2.245,0.057,11.203,0.143,13.727-1.957c-0.031-1.632,0.029-3.855,0.37-6.357
		c-4.95,2.824-12.163,3.576-14.24,2.266L163.477,246.617z"/>
	<path style="fill:#FFC857;" d="M206.932,291.138l3.921-16.488c0,0-20.919,30.568-46.4,21.246
		c-25.481-9.322-7.049-51.914-7.049-51.914c1.151,2.656,21.566-1.398,21.072-4.759l2.99,23.049c0,0,24.83-31.54,53.418-40.241
		c28.588-8.701,55.934-6.629,70.85,1.865c40.013,21.882,62.469,56.786,60.022,72.922c-2.447,16.136-44.759,23.248-44.759,23.248
		l-12.125-12.74l16.112-20.126L206.932,291.138z"/>
	<path style="fill:#FFDC94;" d="M331.238,241.321l-6.811,6.811l-9.515-9.515l-9.515,9.515l-9.515-9.515l-9.515,9.515l-9.515-9.515
		l-9.651,9.63l-9.63-9.63l-9.515,9.515l-9.515-9.515l-9.515,9.515l-9.515-9.515l-9.515,9.515l-7.308-7.308
		c-3.766,3.157-7.158,6.32-10.07,9.211l7.863,7.863l9.515-9.515l9.515,9.515l9.515-9.515l9.515,9.515l9.515-9.515l9.515,9.515
		l9.63-9.63l9.651,9.63l9.515-9.515l9.515,9.515l9.515-9.515l9.515,9.515l9.515-9.515l9.515,9.515l7.317-7.317
		C338.183,247.454,334.84,244.351,331.238,241.321z"/>
	<polygon style="fill:#EC8777;" points="259.693,209.198 259.693,199.953 284.158,200.988 283.87,211.146 272.121,221.917 	"/>
	<path style="fill:#FAA88D;" d="M262.689,165.962c-0.605,7.334-2.915,11.219-6.616,14.69l2.152,20.902c0,0,8.714,8.267,10.6,8.366
		c1.886,0.099,3.51-0.324,5.135-0.324s3.029,0.526,5.311,0.328c2.282-0.198,8.873-8.267,8.873-8.267l1.229-20.799l-2.152-8.402
		C287.22,172.455,268.734,176.003,262.689,165.962z"/>
	<path style="fill:#EC8777;" d="M275.036,189.813h-5.324c-0.138,0-0.251-0.109-0.256-0.247l-0.499-14.141
		c-0.005-0.142,0.106-0.26,0.247-0.265c0.126-0.011,0.26,0.105,0.265,0.247l0.491,13.894h5.076c0.142,0,0.256,0.115,0.256,0.256
		C275.292,189.699,275.177,189.813,275.036,189.813z"/>
	<polygon style="fill:#FF9B39;" points="260.177,230.738 271.926,224.587 282.825,230.705 273.887,221.917 272.327,220.428 	"/>
	<path style="fill:#FF9B39;" d="M319.247,292.641l16.082-11.157c-7.929-4.792-20.657-16.77-27.187-24.782
		c0,0,6.207,11.114,9.687,17.097C321.309,279.78,319.247,292.641,319.247,292.641z"/>
	<path style="fill:#EC8777;" d="M259.53,178.544c0,0-1.335,5.548,4.624,4.79c5.959-0.757,3.144-6.583,3.144-6.583L259.53,178.544z"
		/>
	<path style="fill:#FF9B39;" d="M210.775,275.297l6.111-23.446c0,0-10.671,37.775-42.645,37.628
		c-9.099-0.042-15.989-1.75-21.104-4.257c1.982,4.686,5.503,8.545,11.313,10.672c0.001,0,0.002,0.001,0.003,0.001
		c0.466,0.17,0.93,0.324,1.393,0.468c0.139,0.043,0.277,0.082,0.416,0.123c0.333,0.099,0.665,0.191,0.997,0.276
		c0.147,0.038,0.294,0.076,0.44,0.111c0.364,0.088,0.727,0.167,1.089,0.239c0.095,0.019,0.19,0.041,0.284,0.059
		c0.458,0.087,0.915,0.162,1.37,0.224c0.09,0.013,0.179,0.021,0.269,0.033c0.367,0.047,0.733,0.088,1.098,0.12
		c0.129,0.012,0.258,0.021,0.387,0.031c0.347,0.026,0.692,0.045,1.037,0.058c0.106,0.004,0.212,0.009,0.318,0.012
		c0.906,0.024,1.803,0.004,2.689-0.057c0.084-0.006,0.167-0.014,0.25-0.02c0.37-0.029,0.738-0.064,1.104-0.106
		c0.086-0.01,0.172-0.02,0.257-0.03c0.429-0.053,0.856-0.114,1.28-0.185c0.001,0,0.003-0.001,0.004-0.001
		c0.902-0.152,1.792-0.345,2.67-0.572c0.046-0.012,0.092-0.024,0.138-0.036c0.416-0.11,0.83-0.226,1.24-0.351
		c0.01-0.003,0.02-0.006,0.03-0.009c1.322-0.405,2.612-0.887,3.867-1.431C201.028,288.253,210.775,275.297,210.775,275.297z"/>
	<path style="fill:#E08035;" d="M328.424,286.184c-0.055,0-0.11-0.018-0.157-0.054c-9.491-7.363-21.144-30.865-21.261-31.102
		c-0.063-0.127-0.01-0.28,0.117-0.343c0.125-0.062,0.28-0.01,0.343,0.117c0.116,0.235,11.718,23.632,21.116,30.922
		c0.112,0.087,0.132,0.248,0.046,0.36C328.576,286.15,328.5,286.184,328.424,286.184z"/>
	<path style="fill:#E08035;" d="M324.14,289.454c-0.081,0-0.161-0.039-0.211-0.111c-0.08-0.117-0.051-0.276,0.066-0.357
		l12.177-8.396c0.116-0.08,0.275-0.052,0.357,0.066c0.08,0.117,0.05,0.276-0.066,0.357l-12.177,8.396
		C324.241,289.44,324.19,289.454,324.14,289.454z"/>
	<path style="fill:#6F3D47;" d="M267.761,176.123c0.436,1.749-3.497,2.231-6.328,2.572c-1.644,0.198-2.206,0.381-2.383,0.185
		c-0.177-0.196,0.14-1.101,1.566-1.944C263.166,175.427,267.319,174.35,267.761,176.123z"/>
	<path style="fill:#EC8777;" d="M275.146,175.415c0,0-2.437,7.449,3.897,7.196c6.334-0.254,4.373-6.616,4.373-6.616L275.146,175.415
		z"/>
	<path style="fill:#E08035;" d="M270.973,284.361c-0.002,0-0.003,0-0.005,0c-0.142-0.003-0.254-0.12-0.251-0.262l1.321-63.197
		c0.003-0.142,0.125-0.234,0.262-0.251c0.142,0.003,0.254,0.12,0.251,0.262l-1.321,63.197
		C271.227,284.25,271.113,284.361,270.973,284.361z"/>
	<polygon style="fill:#FFC857;" points="249.617,218.407 260.036,230.626 272.327,220.428 283.044,230.575 295.037,219.5 
		283.87,211.146 272.327,220.428 259.693,209.198 	"/>
	<path style="fill:#6F3D47;" d="M274.651,175.931c0.013,1.802,3.836,0.628,6.663,0.253c1.642-0.218,1.97,0.054,2.093-0.179
		c0.123-0.234-0.131-1.16-1.722-1.622C278.84,173.557,274.638,174.104,274.651,175.931z"/>
	<path style="fill:#6F3D47;" d="M171.61,113.529c0.071,1.753-3.774,1.439-6.541,1.206c-1.607-0.135-2.179-0.072-2.309-0.293
		c-0.13-0.221,0.35-1.022,1.876-1.545C167.365,111.96,171.538,111.751,171.61,113.529z"/>
	<path style="fill:#6F3D47;" d="M176.652,113.35c0.013,1.755,3.735,0.611,6.488,0.246c1.599-0.212,1.918,0.053,2.038-0.174
		c0.12-0.228-0.127-1.13-1.676-1.579C180.731,111.039,176.639,111.571,176.652,113.35z"/>
	<path style="fill:#EC8777;" d="M277.251,204.316c0,0.589-1.577,0.336-3.522,0.336c-1.945,0-3.522,0.253-3.522-0.336
		c0-0.589,1.577-1.621,3.522-1.621C275.674,202.695,277.251,203.727,277.251,204.316z"/>
	<path style="fill:#FFC857;" d="M242.844,261.031c-3.281,0-6.37-1.076-9.245-3.227c-0.068-0.051-0.107-0.133-0.103-0.218
		l0.624-12.461c0.003-0.07,0.036-0.136,0.089-0.181c0.054-0.046,0.124-0.067,0.193-0.061c6.238,0.625,11.781,0.913,18.558,0.273
		c0.073-0.004,0.149,0.02,0.203,0.072c0.054,0.052,0.082,0.126,0.077,0.2l-0.831,12.71c-0.006,0.088-0.056,0.167-0.134,0.209
		C248.986,260.137,245.835,261.031,242.844,261.031z"/>
	<path style="fill:#E08035;" d="M242.844,261.031c-3.281,0-6.37-1.076-9.245-3.227c-0.068-0.051-0.107-0.133-0.103-0.218
		l0.624-12.461c0.003-0.07,0.036-0.136,0.089-0.181c0.054-0.046,0.124-0.067,0.193-0.061c6.238,0.625,11.781,0.913,18.558,0.273
		c0.073-0.004,0.149,0.02,0.203,0.072c0.054,0.052,0.082,0.126,0.077,0.2l-0.831,12.71c-0.006,0.088-0.056,0.167-0.134,0.209
		C248.986,260.137,245.835,261.031,242.844,261.031z M234.015,257.475c5.335,3.934,11.191,4.095,17.891,0.488l0.803-12.269
		c-6.586,0.596-12.023,0.325-18.09-0.275L234.015,257.475z"/>
	<path style="fill:#E08035;" d="M210.287,278.658c-0.022,0.001-0.044-0.001-0.066-0.007c-0.138-0.033-0.223-0.171-0.19-0.309
		l7.079-29.889c0.033-0.137,0.173-0.224,0.308-0.19c0.138,0.033,0.223,0.171,0.19,0.309l-7.079,29.889
		C210.503,278.577,210.401,278.655,210.287,278.658z"/>
	<path style="fill:#E08035;" d="M249.422,218.573l10.42,12.219c0.051,0.06,0.123,0.09,0.195,0.09c0.058,0,0.116-0.02,0.164-0.059
		l12.115-10.052l10.509,10.032c0.098,0.095,0.251,0.096,0.351,0.003l12.037-11.118c0.033-0.03,0.066-0.108,0.066-0.108l-0.486-0.265
		l-11.787,10.951l-10.5-10.024c-0.094-0.09-0.241-0.096-0.341-0.012l-12.096,10.036l-10.262-12.032l-0.426,0.263
		C249.38,218.498,249.402,218.551,249.422,218.573z"/>
	<path style="fill:#522D34;" d="M261.734,157.925c-1.017-4.62,4.486-7.872,8.389-8.162c4.056-0.301,7.942,1.926,9.859,5.489
		c0.195,0.363,0.749,0.04,0.553-0.323c-1.616-3.002-4.633-5.206-8.021-5.712c-3.467-0.518-7.18,0.692-9.589,3.264
		c-1.421,1.516-2.269,3.53-1.81,5.614C261.205,158.498,261.823,158.328,261.734,157.925L261.734,157.925z"/>
	<path style="fill:#522D34;" d="M257.376,156.542c-3.615,0.64-5.977,4.211-6.892,7.52c-1.064,3.846-0.303,8,1.992,11.253
		c0.236,0.334,0.792,0.015,0.553-0.323c-2.156-3.056-2.925-6.912-1.985-10.547c0.824-3.183,3.027-6.67,6.502-7.285
		C257.952,157.088,257.78,156.47,257.376,156.542L257.376,156.542z"/>
	<path style="fill:#EC8777;" d="M150.288,206.154c4.088,2.966,8.056,6.092,11.897,9.372c0.313,0.267,0.663-0.27,0.354-0.535
		c-3.84-3.28-7.809-6.406-11.896-9.372C150.307,205.376,149.955,205.912,150.288,206.154L150.288,206.154z"/>
	<path style="fill:#EC8777;" d="M275.607,189.557c0,0.491-1.379,0.889-3.081,0.889s-2.992-0.302-2.992-0.793
		c0-0.491,1.248-0.237,2.95-0.237S275.607,189.066,275.607,189.557z"/>
	<path style="fill:#EC8777;" d="M174.218,127.853c0.175,0.534,1.603,0.547,3.19,0.028c1.587-0.519,2.683-1.242,2.508-1.776
		c-0.175-0.534-1.249,0.122-2.835,0.641C175.494,127.265,174.043,127.319,174.218,127.853z"/>
	<path style="fill:#112633;" d="M248.308,348.716c2.675,7.781,3.302,14.476,0.766,15.348c-2.536,0.872-7.277-4.409-9.952-12.19
		s-2.225-14.831,0.311-15.703C241.97,335.299,245.633,340.935,248.308,348.716z"/>
	<path style="fill:#FAA88D;" d="M255.721,359.999c-0.312,0.546-7.652,4.561-7.652,4.561s-12.303,1.987-15.654,4.637
		c-3.352,2.65-3.503-19.264,1.509-19.938c6.003-0.807,12.617-5.14,16.441-7.18C257.379,338.338,255.721,359.999,255.721,359.999z"/>
	<g>
		<path style="fill:#EC8777;" d="M173.322,230.666c0.326,0.252,0.734-0.242,0.407-0.495c-1.823-1.409-2.66-3.969-1.878-6.165
			c0.686-1.927,2.492-3.286,4.486-3.566l-0.354-0.589c-2.147,0.391-4.07,1.938-4.765,4.033
			C170.413,226.311,171.309,229.109,173.322,230.666z"/>
	</g>
	<path style="fill:#EC8777;" d="M161.331,227.031c3.103-1.39,6.53-1.913,9.907-1.531c0.41,0.046,0.439-0.594,0.03-0.64
		c-3.485-0.394-7.027,0.167-10.227,1.6C160.664,226.628,160.956,227.199,161.331,227.031L161.331,227.031z"/>
	<path style="fill:#EC8777;" d="M240.41,347.31c4.69-0.888,8.617,14.234,7.659,17.249h0c0.001,0,0.862-0.472,2.007-1.113
		c1.859-1.271,4.335-3.685,4.308-7.518c-0.029-4.21-3.399-9.886-5.506-13.028C246.282,344.364,240.41,347.31,240.41,347.31z"/>
	<path style="fill:#EC8777;" d="M156.524,223.164c3.247-4.404,7.705-7.808,12.799-9.801c0.384-0.15,0.091-0.72-0.29-0.571
		c-5.196,2.032-9.734,5.529-13.044,10.018C155.744,223.143,156.28,223.494,156.524,223.164L156.524,223.164z"/>
	<path style="fill:#EC8777;" d="M163.147,232.732c0.891,0.907,3.163,1.423,2.951,2.071c-0.212,0.649-2.905-0.118-2.905-0.118
		L163.147,232.732z"/>
	<path style="fill:#E08035;" d="M173.684,248.352c-0.706-0.318-1.119-1.16-0.948-2.035c0.094-0.48,0.349-0.901,0.718-1.184
		c0.378-0.29,0.83-0.402,1.272-0.315c0.442,0.087,0.818,0.361,1.059,0.773c0.234,0.401,0.311,0.887,0.217,1.367l0,0
		c-0.197,1.003-1.09,1.675-1.99,1.499C173.897,248.434,173.788,248.398,173.684,248.352z M174.846,245.391
		c-0.07-0.031-0.143-0.055-0.219-0.07c-0.295-0.059-0.601,0.019-0.861,0.219c-0.27,0.207-0.457,0.518-0.527,0.875
		c-0.143,0.726,0.246,1.418,0.871,1.538c0.623,0.122,1.246-0.369,1.388-1.094c0.07-0.358,0.015-0.717-0.157-1.01
		C175.22,245.639,175.048,245.481,174.846,245.391z"/>
	<path style="fill:#2E6589;" d="M242.483,335.923l-2.805,0.185c7.615,0.949,12.33,25.714,7.746,28.585l13.847-1.12l-2.515-29.273
		L242.483,335.923z"/>
	<path style="fill:#E08035;" d="M244.402,251.207c-3.353,0-6.641-0.453-10.285-1.149c-0.139-0.027-0.23-0.161-0.204-0.3
		c0.027-0.139,0.16-0.231,0.3-0.204c6.48,1.237,11.822,1.7,18.419,0.185c0.138-0.033,0.275,0.054,0.307,0.192
		c0.032,0.138-0.055,0.276-0.193,0.307C249.783,250.92,247.072,251.207,244.402,251.207z"/>
	<path style="fill:#E08035;" d="M234.384,244.956c6.071,0.965,11.595,1.109,18.59,0.272
		C246.729,244.762,240.531,244.666,234.384,244.956z"/>
	<path style="fill:#719FD1;" d="M270.184,332.137c-0.009,0-0.018,0-0.028-0.001l-82.448-8.858c-0.141-0.015-0.242-0.142-0.227-0.282
		c0.015-0.141,0.141-0.243,0.282-0.227l82.448,8.858c0.141,0.015,0.242,0.142,0.227,0.282
		C270.425,332.039,270.313,332.137,270.184,332.137z"/>
	<path style="fill:#719FD1;" d="M261.385,363.607c1.578-3.979,1.002-9.067,0.379-12.207c-1.41-7.102-4.767-13.95-8.139-17.1
		l-0.567,0.183c3.332,2.964,6.802,9.959,8.203,17.017c0.624,3.143,1.2,8.277-0.458,12.16
		C260.995,363.642,261.19,363.625,261.385,363.607z"/>
	<path style="fill:#719FD1;" d="M239.602,336.123c0.029-0.017,0.066-0.045,0.101-0.05l93.715-13.535
		c0.14-0.018,0.27,0.077,0.29,0.217c0.02,0.14-0.077,0.27-0.217,0.29l-92.677,13.385
		C240.814,336.43,240.312,336.194,239.602,336.123z"/>
	<path style="fill:#FFFFFF;" d="M233.924,349.26c-7.031,1.075-13.385-1.55-18.813,0.968c-11.926,5.534-1.286,43.906,11.672,44.272
		c12.958,0.366,2.28-22.653,5.632-25.303c0.9-0.712,2.449-1.375,4.23-1.966C240.302,362.327,235.632,349.966,233.924,349.26z"/>
	<path style="fill:#FFDCD1;" d="M215.111,350.228c-3.258,1.512-4.829,5.478-5.132,10.448c0.471,0.065,0.952,0.101,1.441,0.101
		c5.826,0,10.549-4.723,10.549-10.549c0-0.379-0.021-0.753-0.06-1.122C219.511,349.045,217.239,349.24,215.111,350.228z"/>
	<path style="fill:#FFDCD1;" d="M216.635,386.393c2.866,4.73,6.41,8.001,10.148,8.107c5.25,0.148,6.62-3.542,6.615-8.161
		C230.273,384.32,224.348,382.069,216.635,386.393z"/>
	<path style="fill:#FFDCD1;" d="M229.119,349.519c-0.262-0.007-0.523-0.016-0.783-0.027c3.828,5.802,4.112,12.992,3.978,19.8
		c0.033-0.033,0.066-0.068,0.102-0.096c0.16-0.126,0.347-0.251,0.546-0.374C233.069,362.185,232.712,355.213,229.119,349.519z"/>
	<polygon style="fill:#FFFFFF;" points="423.892,266.774 426.648,267.941 426.61,261.506 419.436,264.683 421.94,265.961 
		422.502,268.512 	"/>
	<polygon style="fill:#FFF6EB;" points="421.94,265.961 425.803,262.448 423.028,266.434 422.502,268.512 	"/>
	<path style="fill:#FFFFFF;" d="M268.003,181.04c0.138,1.147-1.55,2.294-3.771,2.561c-2.221,0.268-4.134-0.445-4.272-1.592
		c-0.138-1.147,1.521-1.025,3.742-1.293C265.922,180.449,267.864,179.893,268.003,181.04z"/>
	<path style="fill:#FFFFFF;" d="M283.283,180.143c0.141,1.146-1.545,2.297-3.766,2.57c-2.221,0.273-4.135-0.435-4.276-1.582
		c-0.141-1.146,1.518-1.029,3.739-1.301C281.201,179.557,283.142,178.996,283.283,180.143z"/>
	<path style="fill:#EC8777;" d="M267.211,193.517c0,0,3.413-1.109,4.29-1.221c0.877-0.112,0.929,0.376,1.428,0.304
		c0.499-0.071,0.138-0.435,1.408-0.622c1.27-0.187,4.608-0.112,4.608-0.112s1.473,3.738-0.247,5.478
		c-1.72,1.74-7.586,2.47-9.484,1.215C267.316,197.304,267.211,193.517,267.211,193.517z"/>
	<path style="fill:#FFFFFF;" d="M267.616,193.791l11.131-1.539c0,0,0.262,2.883-1.176,4.3c-1.438,1.417-6.137,1.866-7.723,0.843
		C268.262,196.372,267.616,193.791,267.616,193.791z"/>
	<path style="fill:#FFFFFF;" d="M170.138,131.255l9.607-0.635c0,0-1.306,2.505-4.902,2.627
		C171.248,133.37,170.138,131.255,170.138,131.255z"/>
	<path style="fill:#522D34;" d="M259.958,182.262c-0.135,0-0.247-0.101-0.255-0.236c-0.003-0.048-0.045-1.163,2.074-1.374
		c0.424-0.043,0.933-0.128,1.472-0.219c1.978-0.332,4.219-0.707,4.97,0.469c0.076,0.119,0.041,0.278-0.079,0.354
		c-0.118,0.076-0.277,0.041-0.354-0.079c-0.567-0.89-2.721-0.529-4.453-0.239c-0.548,0.092-1.065,0.179-1.506,0.223
		c-1.274,0.127-1.612,0.606-1.613,0.84c-0.001,0.139-0.111,0.256-0.249,0.26C259.964,182.262,259.961,182.262,259.958,182.262z"/>
	<path style="fill:#1B3C51;" d="M319.331,338.848H217.547c-1.668,0-3.066-1.263-3.235-2.923l-6.556-64.521
		c-0.195-1.916,1.309-3.58,3.235-3.58h113.157c1.891,0,3.383,1.608,3.242,3.494l-4.818,64.521
		C322.446,337.536,321.032,338.848,319.331,338.848z"/>
	<path style="fill:#2E6589;" d="M207.867,272.484c0.384-1.353,1.624-2.365,3.125-2.365h113.157c1.527,0,2.792,1.048,3.15,2.444
		l0.093-1.245c0.141-1.886-1.351-3.493-3.242-3.493H210.992c-1.926,0-3.429,1.664-3.235,3.58L207.867,272.484z"/>
	<path style="fill:#FFFFFF;" d="M271.582,304.892c0,3.305-2.679,5.985-5.985,5.985c-3.305,0-5.985-2.679-5.985-5.985
		c0-3.305,2.679-5.985,5.985-5.985C268.903,298.907,271.582,301.587,271.582,304.892z"/>
	<path style="fill:#522D34;" d="M275.245,181.414c-0.134,0-0.246-0.1-0.255-0.235c-0.003-0.048-0.052-1.162,2.066-1.387
		c0.423-0.045,0.932-0.134,1.471-0.227c1.975-0.343,4.216-0.733,4.972,0.438c0.077,0.119,0.043,0.278-0.076,0.354
		c-0.118,0.077-0.277,0.044-0.354-0.076c-0.573-0.887-2.725-0.513-4.454-0.211c-0.548,0.095-1.064,0.185-1.505,0.232
		c-1.273,0.136-1.609,0.616-1.608,0.851c0,0.139-0.109,0.257-0.248,0.261C275.251,181.414,275.248,181.414,275.245,181.414z"/>
	<path style="fill:#522D34;" d="M264.525,181.184c-1.274,0-2.307,1.033-2.307,2.307c0,0.027,0.007,0.053,0.008,0.08
		c0.604,0.1,1.287,0.117,2.005,0.03c0.967-0.117,1.833-0.4,2.491-0.778C266.435,181.878,265.566,181.184,264.525,181.184z"/>
	<path style="fill:#FFFFFF;" d="M170.849,117.893c0.044,1.048-1.565,1.966-3.594,2.051c-2.029,0.085-3.709-0.695-3.753-1.742
		c-0.044-1.048,1.448-0.82,3.477-0.905C169.007,117.211,170.805,116.845,170.849,117.893z"/>
	<path style="fill:#522D34;" d="M163.501,118.406c-0.057,0-0.115-0.018-0.162-0.058c-0.109-0.09-0.126-0.248-0.038-0.357
		c0.037-0.046,0.945-1.132,3.995-1.132c2.998,0,3.683,0.738,3.751,0.823c0.089,0.11,0.072,0.271-0.038,0.36
		c-0.11,0.089-0.271,0.072-0.36-0.038l0,0c-0.001,0-0.621-0.633-3.353-0.633c-2.768,0-3.589,0.934-3.597,0.943
		C163.648,118.375,163.575,118.406,163.501,118.406z"/>
	<path style="fill:#FFFFFF;" d="M183.961,116.672c0.126,1.041-1.407,2.082-3.423,2.325c-2.016,0.243-3.752-0.404-3.878-1.445
		c-0.126-1.041,1.38-0.93,3.396-1.174C182.072,116.135,183.835,115.631,183.961,116.672z"/>
	<path style="fill:#522D34;" d="M176.661,117.815c-0.019,0-0.038-0.002-0.058-0.006c-0.139-0.031-0.224-0.174-0.194-0.312
		c0.043-0.198,0.426-1.201,3.749-1.532c3.302-0.331,3.929,0.42,4.022,0.574c0.073,0.122,0.035,0.279-0.087,0.352
		c-0.121,0.074-0.278,0.036-0.352-0.087l0,0c-0.003,0.001-0.558-0.625-3.532-0.329c-2.983,0.298-3.3,1.137-3.303,1.145
		C176.881,117.739,176.777,117.815,176.661,117.815z"/>
	<path style="fill:#522D34;" d="M277.466,182.679c0.615,0.105,1.316,0.125,2.052,0.034c0.962-0.118,1.823-0.402,2.48-0.778
		c-0.257-1.125-1.31-1.909-2.485-1.783C278.25,180.288,277.338,181.418,277.466,182.679z"/>
	<rect x="347.661" y="103.583" style="fill:#2E6589;" width="36.874" height="5.211"/>
	<rect x="389.9" y="103.583" style="fill:#B7DCFF;" width="43.596" height="5.211"/>
	<rect x="347.661" y="115.47" style="fill:#2E6589;" width="25.675" height="5.211"/>
	<rect x="347.661" y="137.033" style="fill:#2E6589;" width="25.675" height="5.211"/>
	<rect x="379.452" y="115.47" style="fill:#B7DCFF;" width="30.356" height="5.211"/>
	<rect x="413.294" y="115.47" style="fill:#B7DCFF;" width="20.202" height="5.211"/>
	<rect x="347.661" y="124.427" style="fill:#B7DCFF;" width="37.893" height="5.211"/>
	<circle style="fill:#B7DCFF;" cx="394.108" cy="126.557" r="3.548"/>
	<path style="fill:#FFFFFF;" d="M392.689,126.559c0,0-1.907-1.228-1.471-1.632c0.436-0.404,0.995,0.472,0.995,0.472
		s-0.237-1.189,0.444-1.144C393.336,124.299,392.689,126.559,392.689,126.559z"/>
	<path style="fill:#FFFFFF;" d="M395.447,126.467c0,0-0.813-2.118-0.222-2.186c0.59-0.068,0.587,1.049,0.587,1.049
		s0.448-1.18,0.97-0.742C397.305,125.026,395.447,126.467,395.447,126.467z"/>
	<path style="fill:#FFFFFF;" d="M394.79,127.001c0,0.392-0.318,0.71-0.71,0.71c-0.392,0-0.71-0.318-0.71-0.71
		c0-0.392,0.318-0.326,0.71-0.326C394.472,126.675,394.79,126.609,394.79,127.001z"/>
	<path style="fill:#B7DCFF;" d="M385.939,139.139c0,1.959-1.588,3.548-3.548,3.548c-1.959,0-3.548-1.588-3.548-3.548
		c0-1.959,1.588-3.548,3.548-3.548C384.35,135.591,385.939,137.18,385.939,139.139z"/>
	<path style="fill:#FFFFFF;" d="M380.972,139.141c0,0-1.907-1.228-1.471-1.632c0.436-0.404,0.995,0.472,0.995,0.472
		s-0.237-1.189,0.444-1.144C381.619,136.881,380.972,139.141,380.972,139.141z"/>
	<path style="fill:#FFFFFF;" d="M383.73,139.049c0,0-0.813-2.118-0.223-2.186c0.59-0.068,0.587,1.049,0.587,1.049
		s0.448-1.18,0.97-0.742C385.588,137.608,383.73,139.049,383.73,139.049z"/>
	<path style="fill:#FFFFFF;" d="M383.073,139.583c0,0.392-0.318,0.71-0.71,0.71s-0.71-0.318-0.71-0.71
		c0-0.392,0.318-0.326,0.71-0.326S383.073,139.191,383.073,139.583z"/>
	<circle style="fill:#B7DCFF;" cx="392.447" cy="139.139" r="3.548"/>
	<path style="fill:#FFFFFF;" d="M391.028,139.141c0,0-1.907-1.228-1.471-1.632c0.436-0.404,0.995,0.472,0.995,0.472
		s-0.237-1.189,0.444-1.144C391.676,136.881,391.028,139.141,391.028,139.141z"/>
	<path style="fill:#FFFFFF;" d="M393.787,139.049c0,0-0.813-2.118-0.223-2.186c0.59-0.068,0.588,1.049,0.588,1.049
		s0.448-1.18,0.97-0.742C395.645,137.608,393.787,139.049,393.787,139.049z"/>
	<path style="fill:#FFFFFF;" d="M393.129,139.583c0,0.392-0.318,0.71-0.71,0.71c-0.392,0-0.71-0.318-0.71-0.71
		c0-0.392,0.318-0.326,0.71-0.326C392.811,139.257,393.129,139.191,393.129,139.583z"/>
	<circle style="fill:#B7DCFF;" cx="402.956" cy="139.139" r="3.548"/>
	<path style="fill:#FFFFFF;" d="M401.536,139.141c0,0-1.907-1.228-1.471-1.632c0.436-0.404,0.995,0.472,0.995,0.472
		s-0.237-1.189,0.444-1.144C402.184,136.881,401.536,139.141,401.536,139.141z"/>
	<path style="fill:#FFFFFF;" d="M404.295,139.049c0,0-0.813-2.118-0.222-2.186c0.59-0.068,0.587,1.049,0.587,1.049
		s0.448-1.18,0.97-0.742C406.153,137.608,404.295,139.049,404.295,139.049z"/>
	<path style="fill:#FFFFFF;" d="M403.637,139.583c0,0.392-0.318,0.71-0.71,0.71c-0.392,0-0.71-0.318-0.71-0.71
		c0-0.392,0.318-0.326,0.71-0.326C403.32,139.257,403.637,139.191,403.637,139.583z"/>
	<path style="fill:#EC8777;" d="M179.707,126.49c-0.08,0-0.158-0.037-0.208-0.107c-2.218-3.1-5.127-7.7-4.786-11.853
		c0.012-0.141,0.137-0.243,0.276-0.234c0.141,0.011,0.246,0.135,0.234,0.276c-0.326,3.985,2.522,8.479,4.692,11.513
		c0.083,0.115,0.056,0.275-0.059,0.357C179.811,126.474,179.759,126.49,179.707,126.49z"/>
	<path style="fill:#522D34;" d="M169.11,118.558c0-0.544-0.246-1.025-0.628-1.354c-0.468,0.03-0.978,0.071-1.504,0.093
		c-0.339,0.014-0.66,0.02-0.964,0.024c-0.307,0.322-0.499,0.757-0.499,1.238c0,0.537,0.24,1.013,0.613,1.343
		c0.356,0.044,0.734,0.06,1.126,0.044c0.499-0.021,0.972-0.093,1.402-0.204C168.936,119.423,169.11,119.013,169.11,118.558z"/>
	<path style="fill:#522D34;" d="M181.786,117.544c0-0.526-0.23-0.995-0.591-1.324c-0.364,0.054-0.746,0.111-1.14,0.159
		c-0.567,0.068-1.091,0.109-1.552,0.155c-0.196,0.288-0.312,0.636-0.312,1.011c0,0.601,0.298,1.13,0.751,1.456
		c0.491,0.06,1.031,0.064,1.595-0.004c0.217-0.026,0.428-0.063,0.632-0.107C181.545,118.56,181.786,118.083,181.786,117.544z"/>
	<path style="fill:#FAA88D;" d="M197.117,160.418c0,0,8.215-18.25,10.235-18.213c2.021,0.037-1.92,12.362-1.92,12.362
		s8.249-15.193,10.445-14.771s-5.257,15.416-5.257,15.416s7.789-11.784,8.445-10.458c0.656,1.326-4.855,14.966-4.855,14.966
		s5.987-7.3,7.5-6.143c1.513,1.157-8.963,19.789-14.706,20.931c-5.742,1.143-11.324-0.997-14.845-6.762
		c-1.597-2.614-0.873-4.446-0.447-7.814c0.514-4.059-1.252-7.764,0.098-8.178c1.35-0.414,4.026,2.391,4.23,4.573
		C196.248,158.509,197.117,160.418,197.117,160.418z"/>
	<path style="fill:#FAA88D;" d="M90.473,43.736c-0.066,0-0.131-0.025-0.181-0.075l-4.302-4.302
		c-0.048-0.048-0.075-0.113-0.075-0.181c0-0.068,0.027-0.133,0.075-0.181l4.302-4.302c0.1-0.1,0.262-0.1,0.363,0l4.302,4.302
		c0.1,0.1,0.1,0.262,0,0.362l-4.302,4.302C90.604,43.711,90.538,43.736,90.473,43.736z M86.533,39.178l3.94,3.939l3.939-3.939
		l-3.939-3.94L86.533,39.178z"/>
	<path style="fill:#FAA88D;" d="M451.511,118.903c-0.066,0-0.131-0.025-0.181-0.075l-1.958-1.958c-0.1-0.1-0.1-0.262,0-0.362
		l1.958-1.958c0.1-0.1,0.262-0.1,0.362,0l1.958,1.958c0.1,0.1,0.1,0.262,0,0.362l-1.958,1.958
		C451.642,118.878,451.576,118.903,451.511,118.903z M449.915,116.689l1.596,1.596l1.596-1.596l-1.596-1.596L449.915,116.689z"/>
	<path style="fill:#FAA88D;" d="M441.299,333.484c-0.066,0-0.131-0.025-0.181-0.075l-3.744-3.744c-0.1-0.1-0.1-0.262,0-0.362
		l3.744-3.744c0.1-0.1,0.262-0.1,0.362,0l3.744,3.744c0.1,0.1,0.1,0.262,0,0.362l-3.744,3.744
		C441.43,333.459,441.365,333.484,441.299,333.484z M437.917,329.483l3.382,3.382l3.382-3.382l-3.382-3.382L437.917,329.483z"/>
	<g>
		<path style="fill:#FAA88D;" d="M38.488,192.631c-0.066,0-0.131-0.025-0.181-0.075l-3.858-3.859c-0.1-0.1-0.1-0.262,0-0.362
			c0.1-0.1,0.262-0.1,0.362,0l3.858,3.858c0.1,0.1,0.1,0.262,0,0.362C38.619,192.606,38.553,192.631,38.488,192.631z"/>
		<path style="fill:#FAA88D;" d="M34.63,192.631c-0.066,0-0.131-0.025-0.181-0.075c-0.1-0.1-0.1-0.262,0-0.362l3.858-3.858
			c0.1-0.1,0.262-0.1,0.362,0c0.1,0.1,0.1,0.262,0,0.362l-3.858,3.859C34.761,192.606,34.695,192.631,34.63,192.631z"/>
	</g>
	<g>
		<path style="fill:#FAA88D;" d="M52.194,299.845c-0.066,0-0.131-0.025-0.181-0.075l-3.858-3.858c-0.1-0.1-0.1-0.262,0-0.362
			c0.1-0.1,0.262-0.1,0.362,0l3.858,3.858c0.1,0.1,0.1,0.262,0,0.362C52.325,299.82,52.259,299.845,52.194,299.845z"/>
		<path style="fill:#FAA88D;" d="M48.335,299.845c-0.066,0-0.131-0.025-0.181-0.075c-0.1-0.1-0.1-0.262,0-0.362l3.858-3.858
			c0.1-0.1,0.262-0.1,0.362,0c0.1,0.1,0.1,0.262,0,0.362l-3.858,3.858C48.466,299.82,48.401,299.845,48.335,299.845z"/>
	</g>
	<g>
		<path style="fill:#FAA88D;" d="M194.545,64.09c-0.066,0-0.131-0.025-0.181-0.075l-3.858-3.858c-0.1-0.1-0.1-0.262,0-0.362
			c0.1-0.1,0.262-0.1,0.362,0l3.858,3.859c0.1,0.1,0.1,0.262,0,0.362C194.676,64.065,194.611,64.09,194.545,64.09z"/>
		<path style="fill:#FAA88D;" d="M190.687,64.09c-0.066,0-0.131-0.025-0.181-0.075c-0.1-0.1-0.1-0.262,0-0.362l3.858-3.859
			c0.1-0.1,0.262-0.1,0.362,0c0.1,0.1,0.1,0.262,0,0.362l-3.858,3.858C190.818,64.065,190.753,64.09,190.687,64.09z"/>
	</g>
	<g>
		<path style="fill:#FAA88D;" d="M451.958,304.892c-0.066,0-0.131-0.025-0.181-0.075l-7.737-7.737c-0.1-0.1-0.1-0.262,0-0.362
			s0.262-0.1,0.362,0l7.737,7.737c0.1,0.1,0.1,0.262,0,0.362C452.089,304.867,452.024,304.892,451.958,304.892z"/>
		<path style="fill:#FAA88D;" d="M444.221,304.892c-0.066,0-0.131-0.025-0.181-0.075c-0.1-0.1-0.1-0.262,0-0.362l7.737-7.737
			c0.1-0.1,0.262-0.1,0.362,0s0.1,0.262,0,0.362l-7.737,7.737C444.352,304.867,444.287,304.892,444.221,304.892z"/>
	</g>
	<g>
		<path style="fill:#FAA88D;" d="M492.443,197.489c-0.066,0-0.131-0.025-0.181-0.075l-4.262-4.262c-0.1-0.1-0.1-0.262,0-0.362
			c0.1-0.1,0.262-0.1,0.363,0l4.262,4.262c0.1,0.1,0.1,0.262,0,0.362C492.574,197.464,492.508,197.489,492.443,197.489z"/>
		<path style="fill:#FAA88D;" d="M488.18,197.489c-0.065,0-0.131-0.025-0.181-0.075c-0.1-0.1-0.1-0.262,0-0.362l4.262-4.262
			c0.1-0.1,0.262-0.1,0.362,0c0.1,0.1,0.1,0.262,0,0.362l-4.262,4.262C488.312,197.464,488.246,197.489,488.18,197.489z"/>
	</g>
	<path style="fill:#FAA88D;" d="M327.197,38.696c-1.907,0-3.458-1.551-3.458-3.458s1.552-3.458,3.458-3.458
		c1.907,0,3.458,1.551,3.458,3.458S329.104,38.696,327.197,38.696z M327.197,32.292c-1.624,0-2.946,1.321-2.946,2.946
		s1.322,2.946,2.946,2.946c1.624,0,2.946-1.321,2.946-2.946S328.822,32.292,327.197,32.292z"/>
	<path style="fill:#FAA88D;" d="M84.303,323.251c-3.894,0-7.062-3.168-7.062-7.062c0-3.894,3.168-7.062,7.062-7.062
		c3.894,0,7.062,3.168,7.062,7.062C91.365,320.083,88.197,323.251,84.303,323.251z M84.303,309.639c-3.611,0-6.549,2.938-6.549,6.55
		c0,3.612,2.938,6.55,6.549,6.55c3.611,0,6.55-2.938,6.55-6.55C90.852,312.577,87.914,309.639,84.303,309.639z"/>
	<path style="fill:#EC8777;" d="M166.92,126.142c-0.416,1.276-2.085,1.876-3.726,1.341c-1.641-0.536-2.634-2.004-2.218-3.28
		c0.416-1.276,2.085-1.876,3.726-1.34C166.344,123.397,167.337,124.866,166.92,126.142z"/>
	<ellipse style="fill:#EC8777;" cx="175.412" cy="135.456" rx="2.345" ry="0.87"/>
	<path style="fill:#EC8777;" d="M183.186,121.795c-1.495,0.864-2.163,2.506-1.492,3.668c0.563,0.975,1.889,1.293,3.184,0.864
		c0.032-1.631,0.035-3.32,0.033-5.046C184.346,121.303,183.748,121.471,183.186,121.795z"/>
	<path style="fill:#FFF6EB;" d="M359.458,88.815c0,3.174-2.573,5.748-5.748,5.748s-5.748-2.573-5.748-5.748
		c0-3.174,2.573-5.748,5.748-5.748S359.458,85.641,359.458,88.815z"/>
	<rect x="350.538" y="86.969" style="fill:#1B3C51;" width="5.229" height="4.245"/>
	<polygon style="fill:#1B3C51;" points="353.662,89.091 357.312,91.199 357.312,86.984 	"/>
	<path style="fill:#FFF6EB;" d="M374.609,88.815c0,3.174-2.573,5.748-5.748,5.748c-3.174,0-5.748-2.573-5.748-5.748
		c0-3.174,2.573-5.748,5.748-5.748C372.036,83.067,374.609,85.641,374.609,88.815z"/>
	<path style="fill:#1B3C51;" d="M368.861,91.471L368.861,91.471c-0.89,0-1.611-0.721-1.611-1.611v-2.783
		c0-0.89,0.721-1.611,1.611-1.611l0,0c0.89,0,1.611,0.721,1.611,1.611v2.783C370.473,90.75,369.751,91.471,368.861,91.471z"/>
	<path style="fill:#1B3C51;" d="M368.9,92.551c-0.863,0-1.551-0.277-2.046-0.823c-0.99-1.093-0.826-2.863-0.819-2.938
		c0.014-0.141,0.143-0.243,0.28-0.229c0.141,0.014,0.244,0.139,0.23,0.28c-0.002,0.016-0.147,1.622,0.69,2.544
		c0.393,0.433,0.953,0.653,1.664,0.653c0.709,0,1.263-0.219,1.643-0.65c0.816-0.924,0.628-2.525,0.626-2.541
		c-0.018-0.14,0.082-0.268,0.223-0.286c0.137-0.022,0.268,0.083,0.286,0.223c0.009,0.075,0.217,1.849-0.75,2.944
		C370.445,92.274,369.763,92.551,368.9,92.551z"/>
	<path style="fill:#1B3C51;" d="M368.861,94.881c-0.142,0-0.256-0.115-0.256-0.256V92.45c0-0.142,0.115-0.256,0.256-0.256
		c0.142,0,0.256,0.115,0.256,0.256v2.175C369.118,94.766,369.003,94.881,368.861,94.881z"/>
	<rect x="380.238" y="84.394" style="fill:#FFF6EB;" width="51.599" height="9.394"/>
	<rect x="348.086" y="243.657" style="fill:#B7DCFF;" width="84.789" height="7.36"/>
	<path style="fill:#E08035;" d="M179.841,249.751c-2.518,2.466-8.408,4.965-15.737,5.706c-6.529,0.66-9.2-0.547-10.201-1.303
		c-0.049,0.175-0.099,0.355-0.148,0.533c0.963,0.663,2.935,1.473,6.831,1.473c1.045,0,2.23-0.059,3.569-0.194
		c6.717-0.678,12.867-2.95,15.769-5.572L179.841,249.751z"/>
</g>
</svg>
