<?xml version="1.0" encoding="utf-8"?>
<!-- Generator: Adobe Illustrator 27.5.0, SVG Export Plug-In . SVG Version: 6.00 Build 0)  -->
<svg version="1.1" xmlns="http://www.w3.org/2000/svg" xmlns:xlink="http://www.w3.org/1999/xlink" x="0px" y="0px"
	 viewBox="0 0 500 500" style="enable-background:new 0 0 500 500;" xml:space="preserve">
<g id="Background_Complete">
	<g>
		
		
		
	</g>
	<g>
		<g>
			<path style="fill:#F5F5F5;" d="M309.487,376.574h-21.108l11.097-90.375c0.47-3.826,3.952-6.927,7.778-6.927h7.254h84.848
				l-13.502,97.302H309.487z"/>
			<path style="fill:#F0F0F0;" d="M376.432,376.574h21.108l11.097-90.375c0.47-3.826-2.251-6.927-6.076-6.927h-7.254
				c-3.826,0-7.308,3.101-7.777,6.927L376.432,376.574z"/>
			<g>
				<path style="fill:#E6E6E6;" d="M368.655,376.467l3.824-43.713c0.171-1.952,1.679-3.522,3.624-3.77l1.573-0.201
					c2.608-0.333,4.632-2.438,4.861-5.057l0.697-7.97c0.286-3.267-2.289-6.077-5.568-6.077h35.276c3.279,0,5.854,2.81,5.568,6.077
					l-0.697,7.97c-0.229,2.619-2.253,4.724-4.86,5.057l-1.573,0.201c-1.944,0.248-3.453,1.818-3.623,3.77l-3.824,43.713
					c-0.279,3.187-2.947,5.632-6.146,5.632h-35.276C365.708,382.099,368.377,379.654,368.655,376.467z"/>
			</g>
			<path style="fill:#E6E6E6;" d="M271.578,321.811c-0.601-6.865-6.348-12.131-13.239-12.131h17.069h13.642
				c6.891,0,12.638,5.267,13.239,12.131l3.032,34.651H274.61L271.578,321.811z"/>
			<path style="fill:#F0F0F0;" d="M244.697,309.68h13.642c6.891,0,12.639,5.267,13.239,12.132l3.031,34.651h73.143l3.032-34.651
				c0.601-6.865,6.348-12.131,13.239-12.131h13.642c3.279,0,5.854,2.81,5.568,6.077l-0.697,7.97
				c-0.229,2.619-2.253,4.724-4.861,5.057l-1.573,0.201c-1.944,0.248-3.453,1.818-3.623,3.77l-3.824,43.713
				c-0.279,3.187-2.947,5.632-6.146,5.632H259.854c-3.199,0-5.868-2.445-6.146-5.632l-3.824-43.713
				c-0.171-1.952-1.679-3.522-3.623-3.77l-1.573-0.201c-2.608-0.333-4.632-2.438-4.861-5.057l-0.697-7.97
				C238.844,312.49,241.418,309.68,244.697,309.68z"/>
		</g>
		<g>
			<path style="fill:#E6E6E6;" d="M92.511,131.347c0,0-1.172-7.726,4.463-12.68c5.635-4.954,5.14-7.901,3.53-8.285
				c-1.61-0.384-3.096,4.57-5.573,5.932c0,0-0.078-7.059,2.438-9.66c2.516-2.601,3.836-9.301,1.442-9.418
				c-2.394-0.118-2.642,3.979-3.137,6.885c-0.495,2.905-3.163,6.992-3.163,6.992s-0.521-6.316-2.147-8.917
				c-1.626-2.601,2.709-8.546,1.037-11.146c-1.672-2.601-4.644,2.353-4.397,7.926c0.248,5.573,3.963,11.518,3.096,17.339
				c0,0-1.639-4.087-3.111-4.459c-1.472-0.372-2.958-3.075-3.949-4.076c-0.991-1.002-2.229,2.466,0,5.686
				c2.229,3.22,7.926,11.835,7.059,18.798L92.511,131.347z"/>
			<path style="fill:#E6E6E6;" d="M95.88,127.832l1.845,11.58c0.57,3.576-2.193,6.814-5.815,6.814h-1.968
				c-3.621,0-6.384-3.238-5.815-6.814l1.845-11.58H95.88z"/>
			
				<rect x="67.97" y="141.953" transform="matrix(-1 -1.224647e-16 1.224647e-16 -1 266.3775 290.6076)" style="fill:#E0E0E0;" width="130.438" height="6.702"/>
			
				<rect x="186.658" y="117.249" transform="matrix(-1 -1.224647e-16 1.224647e-16 -1 379.0618 259.2019)" style="fill:#EBEBEB;" width="5.746" height="24.704"/>
			
				<rect x="158.871" y="117.249" transform="matrix(-1 -1.224647e-16 1.224647e-16 -1 323.4884 259.2019)" style="fill:#EBEBEB;" width="5.747" height="24.704"/>
			
				<rect x="125.187" y="116.94" transform="matrix(-0.9855 -0.1698 0.1698 -0.9855 232.3003 278.4561)" style="fill:#EBEBEB;" width="5.747" height="24.704"/>
			
				<rect x="179.537" y="120.505" transform="matrix(-1 -1.224647e-16 1.224647e-16 -1 364.8208 262.4574)" style="fill:#EBEBEB;" width="5.747" height="21.448"/>
			
				<rect x="166.329" y="120.505" transform="matrix(-1 -1.224647e-16 1.224647e-16 -1 338.4039 262.4574)" style="fill:#EBEBEB;" width="5.747" height="21.448"/>
			
				<rect x="132.989" y="120.505" transform="matrix(-1 -1.224647e-16 1.224647e-16 -1 271.7251 262.4574)" style="fill:#EBEBEB;" width="5.747" height="21.448"/>
			
				<rect x="148.929" y="120.137" transform="matrix(-0.9762 -0.2169 0.2169 -0.9762 271.6071 291.5313)" style="fill:#EBEBEB;" width="5.747" height="21.448"/>
			
				<rect x="174.568" y="116.022" transform="matrix(-1 -1.224647e-16 1.224647e-16 -1 352.0096 257.9754)" style="fill:#EBEBEB;" width="2.873" height="25.93"/>
			
				<rect x="140.388" y="116.022" transform="matrix(-1 -1.224647e-16 1.224647e-16 -1 283.6486 257.9754)" style="fill:#EBEBEB;" width="2.873" height="25.93"/>
		</g>
		<g>
			<rect x="67.97" y="191.984" style="fill:#E0E0E0;" width="130.438" height="6.702"/>
			<rect x="73.973" y="167.281" style="fill:#EBEBEB;" width="5.747" height="24.704"/>
			<rect x="101.76" y="167.281" style="fill:#EBEBEB;" width="5.747" height="24.704"/>
			
				<rect x="135.444" y="166.972" transform="matrix(0.9855 -0.1698 0.1698 0.9855 -28.4473 26.0976)" style="fill:#EBEBEB;" width="5.746" height="24.704"/>
			<rect x="81.094" y="170.536" style="fill:#EBEBEB;" width="5.746" height="21.448"/>
			<rect x="94.302" y="170.536" style="fill:#EBEBEB;" width="5.747" height="21.448"/>
			<rect x="127.642" y="170.536" style="fill:#EBEBEB;" width="5.747" height="21.448"/>
			
				<rect x="111.702" y="170.168" transform="matrix(0.9762 -0.2169 0.2169 0.9762 -36.5069 29.1568)" style="fill:#EBEBEB;" width="5.747" height="21.449"/>
			<rect x="88.936" y="166.054" style="fill:#EBEBEB;" width="2.873" height="25.93"/>
			<rect x="123.117" y="166.054" style="fill:#EBEBEB;" width="2.873" height="25.93"/>
			<rect x="157.892" y="172.432" style="fill:#EBEBEB;" width="28" height="19.331"/>
		</g>
		<g>
			<rect x="298.139" y="124.211" style="fill:#E0E0E0;" width="112.188" height="124.078"/>
			<rect x="297.55" y="124.211" style="fill:#F0F0F0;" width="116.359" height="124.078"/>
			<rect x="302.287" y="128.169" style="fill:#FFFFFF;" width="106.701" height="114.419"/>
			<rect x="405.902" y="128.169" style="fill:#E0E0E0;" width="3.086" height="114.419"/>
			
				<rect x="352.58" y="159.882" transform="matrix(6.123234e-17 -1 1 6.123234e-17 142.1315 566.1136)" style="fill:#E0E0E0;" width="3.086" height="104.218"/>
			<rect x="300.632" y="205.268" style="fill:#F0F0F0;" width="108.356" height="5.18"/>
		</g>
	</g>
</g>
<g id="Background_Simple" style="display:none;">
	<g style="display:inline;">
		<path style="fill:#407BFF;" d="M137.439,82.477c11.174-5.147,23.252-8.922,35.819-11.472c13.655-2.771,27.702-4.009,41.625-3.152
			c32.56,2.006,64.562,19.292,77.914,50.039c14.77,34.014,8.296,73.089,10.573,109.011c1.35,21.295,7.318,43.797,23.529,57.673
			c21.886,18.733,63.369,11.51,76.637,40.401c14.799,32.226-24.178,66.417-50.962,76.136c-17.342,6.293-39.593,6.22-55.397-4.33
			c-15.908-10.619-24.324-30.909-30.368-48.331c-5.736-16.534-10.479-41.842-26.459-51.641c-9.948-6.1-22.496-5.159-34.129-4.24
			c-42.082,3.324-82.166-4.999-110.125-39.283c-24.566-30.122-30.732-72.582-17.34-109.189
			C89.561,114.562,110.964,94.671,137.439,82.477z"/>
		<path style="opacity:0.9;fill:#FFFFFF;" d="M137.439,82.477c11.174-5.147,23.252-8.922,35.819-11.472
			c13.655-2.771,27.702-4.009,41.625-3.152c32.56,2.006,64.562,19.292,77.914,50.039c14.77,34.014,8.296,73.089,10.573,109.011
			c1.35,21.295,7.318,43.797,23.529,57.673c21.886,18.733,63.369,11.51,76.637,40.401c14.799,32.226-24.178,66.417-50.962,76.136
			c-17.342,6.293-39.593,6.22-55.397-4.33c-15.908-10.619-24.324-30.909-30.368-48.331c-5.736-16.534-10.479-41.842-26.459-51.641
			c-9.948-6.1-22.496-5.159-34.129-4.24c-42.082,3.324-82.166-4.999-110.125-39.283c-24.566-30.122-30.732-72.582-17.34-109.189
			C89.561,114.562,110.964,94.671,137.439,82.477z"/>
	</g>
</g>
<g id="Shadow_1_">
	<ellipse id="_x3C_Path_x3E__359_" style="fill:#F5F5F5;" cx="250" cy="416.238" rx="193.889" ry="11.323"/>
</g>
<g id="Trash_bin">
	<g>
		<g>
			<path style="fill:#407BFF;" d="M327.165,399.751c0.717-1.204-0.294-3.015-1.696-3.036c0.614-1.728,0.008-3.816-1.435-4.947
				c-0.182-0.143-0.391-0.276-0.623-0.277c-0.248,0-0.468,0.15-0.669,0.295c-1.32,0.949-2.641,1.897-3.961,2.846
				c-0.302,0.217-0.615,0.447-0.786,0.777c-0.81,1.569,2.109,3.579,0.909,4.873c-0.344,0.372-0.9,0.449-1.329,0.717
				c-0.943,0.589-1.056,1.884-1.496,2.905c-0.439,1.021-1.971,1.814-2.557,0.869c0.433-0.98-0.877-1.824-1.94-1.948
				c-1.049-0.123-2.174-0.183-2.762-1.181c-1.509,1.319-4.888-2.361-4.811-3.845c-1.24,0.094-2.085,1.256-2.357,2.418
				c-0.282,1.205-0.107,2.462-0.127,3.698c-0.038,2.402-0.813,4.755-0.771,7.158c0.033,1.87,0.755,3.945,2.467,4.698
				c0.824,0.362,1.755,0.362,2.655,0.357c6.497-0.042,12.993-0.083,19.49-0.125c0.468-0.003,0.956-0.011,1.37-0.227
				c0.879-0.459,1.065-1.614,1.147-2.603c0.349-4.234,0.698-8.468,1.046-12.703C328.341,400.231,327.753,399.991,327.165,399.751z"
				/>
			<path style="opacity:0.3;fill:#FFFFFF;enable-background:new    ;" d="M327.165,399.751c0.717-1.204-0.294-3.015-1.696-3.036
				c0.614-1.728,0.008-3.816-1.435-4.947c-0.182-0.143-0.391-0.276-0.623-0.277c-0.248,0-0.468,0.15-0.669,0.295
				c-1.32,0.949-2.641,1.897-3.961,2.846c-0.302,0.217-0.615,0.447-0.786,0.777c-0.81,1.569,2.109,3.579,0.909,4.873
				c-0.344,0.372-0.9,0.449-1.329,0.717c-0.943,0.589-1.056,1.884-1.496,2.905c-0.439,1.021-1.971,1.814-2.557,0.869
				c0.433-0.98-0.877-1.824-1.94-1.948c-1.049-0.123-2.174-0.183-2.762-1.181c-1.509,1.319-4.888-2.361-4.811-3.845
				c-1.24,0.094-2.085,1.256-2.357,2.418c-0.282,1.205-0.107,2.462-0.127,3.698c-0.038,2.402-0.813,4.755-0.771,7.158
				c0.033,1.87,0.755,3.945,2.467,4.698c0.824,0.362,1.755,0.362,2.655,0.357c6.497-0.042,12.993-0.083,19.49-0.125
				c0.468-0.003,0.956-0.011,1.37-0.227c0.879-0.459,1.065-1.614,1.147-2.603c0.349-4.234,0.698-8.468,1.046-12.703
				C328.341,400.231,327.753,399.991,327.165,399.751z"/>
		</g>
		<g>
			<g>
				<path style="fill:#407BFF;" d="M328.303,379.151h-2.189h-6.025h-2.196h-6.018h-2.196h-6.018h-2.196h-3.404l0.249,3.055
					l0.178,2.181l0.462,5.677l0.263,3.261l0.348,4.341l0.149,1.862l0.05,0.554l0.178,2.188l0.242,2.999l0.149,1.862l0.156,1.89
					l0.178,2.189l0.135,1.656l0.149,1.862l0.064,0.81h3.979h3.361h4.853h3.361h4.853h3.361h3.986l0.064-0.81l0.149-1.854l0.135-1.67
					l0.178-2.189l0.156-1.883l0.149-1.862l0.241-3.006l0.178-2.181l0.043-0.554l0.149-1.862l0.355-4.341l0.263-3.254l0.455-5.684
					l0.178-2.181l0.249-3.055H328.303z M330.122,381.154L330.122,381.154l-0.583-0.583h0.632L330.122,381.154z M329.973,383.009
					l-0.057,0.739l-2.707,2.707l-3.105-3.105l2.778-2.778h0.654L329.973,383.009z M329.191,392.686l-1.983,1.982l-3.105-3.105
					l3.105-3.098l2.146,2.146L329.191,392.686z M300.414,390.612L300.414,390.612l2.146-2.146l3.105,3.098l-3.105,3.105
					l-1.975-1.982L300.414,390.612z M326.207,387.457l-3.105,3.105l-3.105-3.105l3.105-3.105L326.207,387.457z M321.325,380.572
					h3.553l-1.776,1.776L321.325,380.572z M322.093,391.564l-3.098,3.105l-3.105-3.105l3.105-3.098L322.093,391.564z
					 M311.783,395.671l3.105-3.098l3.098,3.098l-3.098,3.105L311.783,395.671z M313.879,399.778l-3.105,3.105l-3.098-3.098
					l3.105-3.105L313.879,399.778z M318.995,396.68l3.098,3.105l-3.098,3.098l-3.105-3.105L318.995,396.68z M314.888,390.562
					l-3.105-3.105l3.105-3.105l3.098,3.105L314.888,390.562z M313.879,391.564l-3.098,3.105l-3.105-3.105l3.105-3.098
					L313.879,391.564z M306.667,390.562l-3.098-3.105l3.098-3.105l3.105,3.105L306.667,390.562z M306.667,392.573l3.105,3.098
					l-3.105,3.105l-3.098-3.105L306.667,392.573z M309.772,403.892l-3.105,3.098l-3.098-3.098l3.098-3.105L309.772,403.892z
					 M310.773,404.894l3.105,3.105l-3.098,3.105l-3.105-3.105L310.773,404.894z M311.783,403.892l3.105-3.105l3.098,3.105
					l-3.098,3.098L311.783,403.892z M318.995,404.894l3.098,3.105l-3.098,3.105l-3.105-3.105L318.995,404.894z M323.102,409.001
					l3.105,3.105l-2.011,2.011h-2.189l-2.011-2.011L323.102,409.001z M319.996,403.892l3.105-3.105l3.105,3.105l-3.105,3.098
					L319.996,403.892z M319.996,395.671l3.105-3.098l3.105,3.098l-3.105,3.105L319.996,395.671z M322.093,383.35l-3.098,3.105
					l-3.105-3.105l2.778-2.778h0.654L322.093,383.35z M314.888,382.348l-1.776-1.776h3.546L314.888,382.348z M313.879,383.35
					l-3.098,3.105l-3.105-3.105l2.778-2.778h0.654L313.879,383.35z M308.443,380.572l-1.776,1.776l-1.769-1.776H308.443z
					 M302.887,380.572l2.778,2.778l-3.105,3.105l-2.7-2.707l-0.057-0.739l2.43-2.437H302.887z M300.229,380.572l-0.576,0.576v0
					l-0.05-0.576H300.229z M300.037,385.936l1.521,1.521l-1.293,1.293L300.037,385.936z M300.883,396.346l-0.121-1.471v0
					l0.796,0.796L300.883,396.346L300.883,396.346z M301.032,398.215l1.528-1.535l3.105,3.105l-3.105,3.098l-1.25-1.251
					L301.032,398.215z M301.494,403.956l-0.007-0.135l0.071,0.071L301.494,403.956L301.494,403.956z M302.034,410.571l-0.391-4.761
					l0.917-0.917l3.105,3.105l-3.105,3.098L302.034,410.571L302.034,410.571z M302.318,414.117l-0.057-0.711l0.298-0.298
					l1.009,1.009H302.318z M303.569,412.106l3.098-3.105l3.105,3.105l-2.011,2.011h-2.189L303.569,412.106z M309.772,414.117
					l1.009-1.009l1.009,1.009H309.772z M313.793,414.117l-2.011-2.011l3.105-3.105l3.098,3.105l-2.004,2.011H313.793z
					 M317.986,414.117l1.009-1.009l1.009,1.009H317.986z M327.45,414.117H326.2l1.009-1.009l0.299,0.298L327.45,414.117z
					 M327.741,410.571l-0.533,0.526l-3.105-3.098l3.105-3.105l0.917,0.917L327.741,410.571z M328.289,403.814l-0.014,0.142
					l-0.064-0.064L328.289,403.814L328.289,403.814z M328.466,401.632l-1.258,1.251l-3.105-3.098l3.105-3.105l1.535,1.535
					L328.466,401.632z M328.892,396.353l-0.682-0.682l0.803-0.796L328.892,396.353z M329.738,385.929l-0.227,2.828l-1.3-1.3
					L329.738,385.929L329.738,385.929z"/>
			</g>
			<g style="opacity:0.6;enable-background:new    ;">
				<path style="fill:#FFFFFF;" d="M328.303,379.151h-2.189h-6.025h-2.196h-6.018h-2.196h-6.018h-2.196h-3.404l0.249,3.055
					l0.178,2.181l0.462,5.677l0.263,3.261l0.348,4.341l0.149,1.862l0.05,0.554l0.178,2.188l0.242,2.999l0.149,1.862l0.156,1.89
					l0.178,2.189l0.135,1.656l0.149,1.862l0.064,0.81h3.979h3.361h4.853h3.361h4.853h3.361h3.986l0.064-0.81l0.149-1.854l0.135-1.67
					l0.178-2.189l0.156-1.883l0.149-1.862l0.241-3.006l0.178-2.181l0.043-0.554l0.149-1.862l0.355-4.341l0.263-3.254l0.455-5.684
					l0.178-2.181l0.249-3.055H328.303z M330.122,381.154L330.122,381.154l-0.583-0.583h0.632L330.122,381.154z M329.973,383.009
					l-0.057,0.739l-2.707,2.707l-3.105-3.105l2.778-2.778h0.654L329.973,383.009z M329.191,392.686l-1.983,1.982l-3.105-3.105
					l3.105-3.098l2.146,2.146L329.191,392.686z M300.414,390.612L300.414,390.612l2.146-2.146l3.105,3.098l-3.105,3.105
					l-1.975-1.982L300.414,390.612z M326.207,387.457l-3.105,3.105l-3.105-3.105l3.105-3.105L326.207,387.457z M321.325,380.572
					h3.553l-1.776,1.776L321.325,380.572z M322.093,391.564l-3.098,3.105l-3.105-3.105l3.105-3.098L322.093,391.564z
					 M311.783,395.671l3.105-3.098l3.098,3.098l-3.098,3.105L311.783,395.671z M313.879,399.778l-3.105,3.105l-3.098-3.098
					l3.105-3.105L313.879,399.778z M318.995,396.68l3.098,3.105l-3.098,3.098l-3.105-3.105L318.995,396.68z M314.888,390.562
					l-3.105-3.105l3.105-3.105l3.098,3.105L314.888,390.562z M313.879,391.564l-3.098,3.105l-3.105-3.105l3.105-3.098
					L313.879,391.564z M306.667,390.562l-3.098-3.105l3.098-3.105l3.105,3.105L306.667,390.562z M306.667,392.573l3.105,3.098
					l-3.105,3.105l-3.098-3.105L306.667,392.573z M309.772,403.892l-3.105,3.098l-3.098-3.098l3.098-3.105L309.772,403.892z
					 M310.773,404.894l3.105,3.105l-3.098,3.105l-3.105-3.105L310.773,404.894z M311.783,403.892l3.105-3.105l3.098,3.105
					l-3.098,3.098L311.783,403.892z M318.995,404.894l3.098,3.105l-3.098,3.105l-3.105-3.105L318.995,404.894z M323.102,409.001
					l3.105,3.105l-2.011,2.011h-2.189l-2.011-2.011L323.102,409.001z M319.996,403.892l3.105-3.105l3.105,3.105l-3.105,3.098
					L319.996,403.892z M319.996,395.671l3.105-3.098l3.105,3.098l-3.105,3.105L319.996,395.671z M322.093,383.35l-3.098,3.105
					l-3.105-3.105l2.778-2.778h0.654L322.093,383.35z M314.888,382.348l-1.776-1.776h3.546L314.888,382.348z M313.879,383.35
					l-3.098,3.105l-3.105-3.105l2.778-2.778h0.654L313.879,383.35z M308.443,380.572l-1.776,1.776l-1.769-1.776H308.443z
					 M302.887,380.572l2.778,2.778l-3.105,3.105l-2.7-2.707l-0.057-0.739l2.43-2.437H302.887z M300.229,380.572l-0.576,0.576v0
					l-0.05-0.576H300.229z M300.037,385.936l1.521,1.521l-1.293,1.293L300.037,385.936z M300.883,396.346l-0.121-1.471v0
					l0.796,0.796L300.883,396.346L300.883,396.346z M301.032,398.215l1.528-1.535l3.105,3.105l-3.105,3.098l-1.25-1.251
					L301.032,398.215z M301.494,403.956l-0.007-0.135l0.071,0.071L301.494,403.956L301.494,403.956z M302.034,410.571l-0.391-4.761
					l0.917-0.917l3.105,3.105l-3.105,3.098L302.034,410.571L302.034,410.571z M302.318,414.117l-0.057-0.711l0.298-0.298
					l1.009,1.009H302.318z M303.569,412.106l3.098-3.105l3.105,3.105l-2.011,2.011h-2.189L303.569,412.106z M309.772,414.117
					l1.009-1.009l1.009,1.009H309.772z M313.793,414.117l-2.011-2.011l3.105-3.105l3.098,3.105l-2.004,2.011H313.793z
					 M317.986,414.117l1.009-1.009l1.009,1.009H317.986z M327.45,414.117H326.2l1.009-1.009l0.299,0.298L327.45,414.117z
					 M327.741,410.571l-0.533,0.526l-3.105-3.098l3.105-3.105l0.917,0.917L327.741,410.571z M328.289,403.814l-0.014,0.142
					l-0.064-0.064L328.289,403.814L328.289,403.814z M328.466,401.632l-1.258,1.251l-3.105-3.098l3.105-3.105l1.535,1.535
					L328.466,401.632z M328.892,396.353l-0.682-0.682l0.803-0.796L328.892,396.353z M329.738,385.929l-0.227,2.828l-1.3-1.3
					L329.738,385.929L329.738,385.929z"/>
			</g>
		</g>
		<path style="fill:#407BFF;" d="M297.769,381.839h34.232c0.908,0,1.643-0.736,1.643-1.643v-0.669c0-0.908-0.736-1.643-1.643-1.643
			h-34.232c-0.908,0-1.643,0.736-1.643,1.643v0.669C296.126,381.103,296.861,381.839,297.769,381.839z"/>
		<path style="fill:#407BFF;" d="M329.296,417.366h-28.822c-0.908,0-1.643-0.736-1.643-1.643v-0.669
			c0-0.908,0.736-1.643,1.643-1.643h28.822c0.908,0,1.643,0.736,1.643,1.643v0.669C330.939,416.631,330.203,417.366,329.296,417.366
			z"/>
	</g>
</g>
<g id="Interface">
	<g>
		<path style="fill:#407BFF;" d="M429.424,280.726H181.355c-2.278,0-4.125-1.847-4.125-4.125V97.638
			c0-2.278,1.847-4.125,4.125-4.125h248.069c2.278,0,4.125,1.847,4.125,4.125v178.963
			C433.55,278.879,431.703,280.726,429.424,280.726z"/>
		<rect x="177.23" y="103.633" style="opacity:0.4;enable-background:new    ;" width="256.32" height="168.982"/>
		<g>
			<circle style="fill:#FFFFFF;" cx="427.554" cy="98.436" r="2.412"/>
			<circle style="fill:#FFFFFF;" cx="419.42" cy="98.436" r="2.412"/>
			<circle style="fill:#FFFFFF;" cx="411.285" cy="98.436" r="2.412"/>
		</g>
		<g>
			<rect x="178.177" y="191.453" style="fill:#263238;" width="83.292" height="72.985"/>
			<rect x="178.177" y="116.858" style="fill:#263238;" width="83.292" height="72.985"/>
			<rect x="263.382" y="116.858" style="fill:#407BFF;" width="83.292" height="72.985"/>
			<rect x="348.586" y="116.858" style="fill:#FFFFFF;" width="83.292" height="72.985"/>
			<rect x="263.382" y="191.453" style="fill:#263238;" width="83.292" height="72.985"/>
			<rect x="348.586" y="191.453" style="fill:#407BFF;" width="83.292" height="72.985"/>
			<g id="_x3C_Group_x3E__45_">
				<path style="fill:#263238;" d="M417.615,189.842l1.889-15.926c0.505-4.254-2.271-8.239-6.453-9.169
					c-21.622-4.806-34.519-0.048-34.519-0.048c-5.579,9.095-9.01,17.729-11.111,25.143H417.615z"/>
				<g>
					<path style="fill:#E4897B;" d="M402.033,164.059c1.585-0.353,5.577-0.113,5.577-0.113c-4.697-3.931-2.367-13.905-0.464-19.328
						l-14.529,8.215c0.163,0.698,0.3,1.406,0.363,2.104c0.138,1.329,0.063,2.62-0.438,3.768c-0.431,0.982-2.284,3.196-3.448,3.894
						l5.813,2.595L402.033,164.059z"/>
					<path style="opacity:0.2;enable-background:new    ;" d="M403.789,149.84c-0.576,6.656-7.741,8.492-11.248,8.865
						c0.501-1.148,0.576-2.439,0.438-3.768L403.789,149.84z"/>
				</g>
				<g>
					<path style="fill:#263238;" d="M384.684,129.693c0,0-1.147,9.467,4.352,13.452c5.499,3.985,4.319-19.19,4.319-19.19
						L384.684,129.693z"/>
					<path style="fill:#E4897B;" d="M406,149.696c-0.268,0.564-0.602,1.128-0.995,1.683c-2.487,3.567-6.427,4.686-10.013,3.864
						c-0.268-0.067-0.526-0.134-0.784-0.22c-2.353-0.736-4.476-2.333-5.834-4.629c-0.048-0.076-0.096-0.162-0.143-0.239
						c-0.182-0.316-0.344-0.65-0.497-0.995c-0.296-0.698-0.574-1.454-0.813-2.247c-1.989-6.436-1.76-17.186,4.208-20.877
						c4.753-2.993,12.26-1.989,15.254,2.773c0.861,1.349-0.105,4.877,0.048,6.475C407.147,141.74,407.874,145.852,406,149.696z"/>
					<path style="fill:#263238;" d="M395.635,139.239c0.143,0.585-0.128,1.133-0.524,1.201c-0.397,0.067-0.789-0.369-0.894-0.963
						c-0.105-0.594,0.137-1.136,0.524-1.201C395.129,138.211,395.527,138.635,395.635,139.239z"/>
					<path style="fill:#263238;" d="M388.879,140.393c0.142,0.586-0.137,1.136-0.525,1.201c-0.388,0.065-0.789-0.369-0.894-0.963
						c-0.105-0.594,0.137-1.136,0.525-1.201C388.372,139.364,388.78,139.826,388.879,140.393z"/>
					<path style="fill:#DE5753;" d="M391.076,140.32c-0.399,1.95-1.066,3.834-1.982,5.601c0.933,0.452,2.018,0.469,2.964,0.046
						L391.076,140.32z"/>
					<path style="fill:#263238;" d="M397.358,136.693c-0.127,0.04-0.265,0.01-0.364-0.079c-0.645-0.635-1.552-0.929-2.447-0.792
						c-0.19,0.047-0.381-0.069-0.428-0.259c-0.047-0.19,0.069-0.381,0.259-0.428c0.001,0,0.001,0,0.002,0
						c1.127-0.202,2.282,0.155,3.098,0.958c0.146,0.13,0.16,0.353,0.031,0.5c-0.002,0.002-0.004,0.004-0.006,0.006
						C397.459,136.638,397.41,136.669,397.358,136.693z"/>
					<path style="fill:#263238;" d="M385.577,138.559c-0.061,0.038-0.133,0.055-0.204,0.05c-0.189-0.052-0.299-0.246-0.248-0.435
						c0.001-0.003,0.001-0.005,0.002-0.007c0.295-1.11,1.113-2.007,2.19-2.404c0.187-0.057,0.384,0.049,0.441,0.236
						c0,0,0,0.001,0,0.001c0.051,0.187-0.053,0.381-0.237,0.442l0,0c-0.842,0.338-1.474,1.054-1.705,1.931
						C385.768,138.467,385.681,138.535,385.577,138.559z"/>
					<path style="fill:#263238;" d="M409.244,130.73c0.04-0.195,0.077-0.402,0.109-0.621c1.041-7.094-9.391-11.261-18.777-10.379
						c-4.089,0.385-3.14,7.378-3.14,7.378s-2.323,0-3.373,1.415c-1.851,2.492,0.994,7.967,0.994,7.967
						c-1.428-7.967,2.717-8.439,2.717-8.439s0.961,3.098,2.853,2.814c1.892-0.284,6.522-4.808,8.822-4.262
						c1.881,0.447,2.746,1.7,3.144,2.831c0.101,1.03-0.194,2.341-1.521,3.828c-1.969,2.207,1.356,6.93,3.666,8.368
						c0,0-0.08-1.195,0.956-1.036c1.036,0.159,1.514,6.376-0.08,9.564c0,0,2.63-3.028,3.507-9.723
						C409.619,136.624,409.647,133.263,409.244,130.73z"/>
					<path style="fill:#263238;" d="M393.557,148.896L393.557,148.896c1.781-0.033,3.433-0.933,4.428-2.41
						c0.051-0.09,0.022-0.205-0.067-0.258c-0.084-0.054-0.197-0.03-0.251,0.055c-0.003,0.004-0.005,0.008-0.007,0.012
						c-0.948,1.347-2.475,2.169-4.122,2.219c-0.1,0-0.182,0.08-0.183,0.181c0,0.007,0,0.014,0.001,0.02
						c-0.001,0.1,0.08,0.182,0.181,0.183C393.543,148.897,393.55,148.897,393.557,148.896z"/>
					<path style="fill:#E4897B;" d="M410.66,140.755c-0.531,1.8-1.753,3.316-3.4,4.215c-2.189,1.176-3.825-0.654-3.676-3.005
						c0.152-2.088,1.45-5.281,3.875-5.464C409.883,136.318,411.284,138.538,410.66,140.755z"/>
					<path style="opacity:0.1;enable-background:new    ;" d="M394.992,155.243c-0.268-0.067-0.526-0.134-0.784-0.22
						c-2.353-0.736-4.476-2.333-5.834-4.629c1.731-0.191,5.365-0.555,6.101-0.239C395.231,150.48,395.098,153.761,394.992,155.243z"
						/>
				</g>
				<polygon style="fill:#407BFF;" points="384.017,189.842 388.887,189.842 394.192,170.301 399.006,165.194 390.575,165.194 
					392.542,170.112 				"/>
				<g>
					<path style="fill:#407BFF;" d="M366.088,186.191l-0.313,3.651h7.92c6.766-16.077,13.054-27.726,13.054-27.726l-8.217,2.583
						c-18.96,5.559-20.606,18.026-17.36,21.177C364.418,189.027,366.088,186.191,366.088,186.191z"/>
					<path style="opacity:0.5;fill:#FFFFFF;enable-background:new    ;" d="M366.088,186.191l-0.313,3.651h7.92
						c6.766-16.077,13.054-27.726,13.054-27.726l-8.217,2.583c-18.96,5.559-20.606,18.026-17.36,21.177
						C364.418,189.027,366.088,186.191,366.088,186.191z"/>
					<path style="fill:#407BFF;" d="M371.96,189.842h1.845c6.239-13.272,16.422-28.81,16.422-28.81
						c-6.447-0.189-12.266,2.356-12.266,2.356l2.111,5.882l-5.089,1.031L371.96,189.842z"/>
					<path style="opacity:0.4;fill:#FFFFFF;enable-background:new    ;" d="M371.96,189.842h1.845
						c6.239-13.272,16.422-28.81,16.422-28.81c-6.447-0.189-12.266,2.356-12.266,2.356l2.111,5.882l-5.089,1.031L371.96,189.842z"/>
					<path style="opacity:0.2;enable-background:new    ;" d="M369.861,189.842c1.796-4.173,1.641-7.182,1.641-7.182l-5.413,3.531
						l-0.313,3.651H369.861z"/>
				</g>
				<g>
					<polygon style="fill:#263238;" points="387.553,162.935 391.439,159.424 394.906,164.153 405.91,159.424 408.668,163.88 
						398.01,169.166 394.466,165.761 390.575,168.221 					"/>
					<polygon style="opacity:0.2;fill:#FFFFFF;enable-background:new    ;" points="387.553,162.935 391.439,159.424 
						394.906,164.153 405.91,159.424 408.668,163.88 398.01,169.166 394.466,165.761 390.575,168.221 					"/>
				</g>
				<path style="fill:#E4897B;" d="M375.014,174.686l11.735-12.57c0,0,2.365,0.051,4.111-1.592c1.745-1.643,4.105-8.905,3.531-9.371
					c-0.574-0.466-7.577-1.052-8.242-0.232c-0.665,0.82-3.562,8.157-3.562,8.157l-12.58,9.844L375.014,174.686z"/>
				<g>
					<g>
						<polygon style="fill:#263238;" points="376.303,163.702 378.622,161.654 384.178,165.962 381.656,169.305 						"/>
						<polygon style="opacity:0.2;fill:#FFFFFF;enable-background:new    ;" points="376.303,163.702 378.622,161.654 
							384.178,165.962 381.656,169.305 						"/>
					</g>
					<g>
						<path style="fill:#407BFF;" d="M376.934,162.389l6.659,5.271c0,0-15.483,24.517-21.115,19.342
							C356.846,181.827,359.734,173.712,376.934,162.389z"/>
						<path style="opacity:0.6;fill:#FFFFFF;enable-background:new    ;" d="M376.934,162.389l6.659,5.271
							c0,0-15.483,24.517-21.115,19.342C356.846,181.827,359.734,173.712,376.934,162.389z"/>
					</g>
				</g>
				<g>
					<path style="fill:#407BFF;" d="M419.629,189.842l0.978-17.581c0.167-3.498-1.942-6.705-5.22-7.938l-8.751-3.291
						c0,0,0.378,13.201,1.394,28.81H419.629z"/>
					<path style="opacity:0.5;fill:#FFFFFF;enable-background:new    ;" d="M419.629,189.842l0.978-17.581
						c0.167-3.498-1.942-6.705-5.22-7.938l-8.751-3.291c0,0,0.378,13.201,1.394,28.81H419.629z"/>
					<path style="fill:#407BFF;" d="M411.615,189.842l3.235-9.074l-4.809-4.414l5.549-1.668
						c-3.531-10.874-9.252-14.572-9.252-14.572c-1.417,6.954-0.025,20.809,1.135,29.728H411.615z"/>
					<path style="opacity:0.4;fill:#FFFFFF;enable-background:new    ;" d="M411.615,189.842l3.235-9.074l-4.809-4.414l5.549-1.668
						c-3.531-10.874-9.252-14.572-9.252-14.572c-1.417,6.954-0.025,20.809,1.135,29.728H411.615z"/>
				</g>
				<path style="fill:#E4897B;" d="M367.478,187.697c0.983,0.384,8.854,0.905,8.854,0.905l1.825,1.24h12.782l-12.982-6.131
					c0,0-0.673-2.268-2.77-3.429c-2.097-1.161-9.733-1.195-10.002-0.506C364.917,180.465,366.494,187.313,367.478,187.697z"/>
				<g>
					<polygon style="fill:#263238;" points="386.917,189.842 388.097,187.719 383.242,185.592 381.515,189.842 					"/>
					<polygon style="opacity:0.2;fill:#FFFFFF;enable-background:new    ;" points="386.917,189.842 388.097,187.719 
						383.242,185.592 381.515,189.842 					"/>
					<path style="fill:#407BFF;" d="M413.35,189.842c5.798-9.069,9.88-20.116,5.14-23.324c0,0-3.64-1.039-18.667,21.933
						c0,0-1.658,3.542-14.025-2.007l-1.611,3.399H413.35z"/>
					<path style="opacity:0.6;fill:#FFFFFF;enable-background:new    ;" d="M413.35,189.842c5.798-9.069,9.88-20.116,5.14-23.324
						c0,0-3.64-1.039-18.667,21.933c0,0-1.658,3.542-14.025-2.007l-1.611,3.399H413.35z"/>
				</g>
			</g>
			<rect x="263.382" y="191.453" style="opacity:0.3;fill:#FFFFFF;enable-background:new    ;" width="83.292" height="72.985"/>
			<g id="_x3C_Group_x3E__46_">
				<path style="fill:#407BFF;" d="M192.511,189.842c2.008-5.213,13.75-15.361,13.75-15.361v-10.449
					c-6.009,1.116-20.693,13.759-21.069,25.809H192.511z"/>
				<path style="opacity:0.6;fill:#FFFFFF;enable-background:new    ;" d="M192.514,189.842c0.951-2.48,4.102-6.072,7.139-9.159
					c3.366-3.405,6.608-6.197,6.608-6.197v-10.453c-6.01,1.115-20.698,13.761-21.07,25.809H192.514z"/>
				<path style="opacity:0.2;enable-background:new    ;" d="M199.653,180.683c3.366-3.405,6.608-6.197,6.608-6.197v-3.041
					C206.261,171.445,200.475,174.314,199.653,180.683z"/>
				<path style="fill:#407BFF;" d="M248.584,189.842c1.493-9.219,2.959-16.827,3.642-20.261c0.219-1.1-0.475-2.183-1.571-2.421
					c-2.149-0.466-4.363-0.871-6.599-1.215c-11.237-1.741-23.076-2.056-30.45-2.047c-4.514,0.01-7.345,0.134-7.345,0.134
					c-2.065,7.379-3.289,16.562-3.988,25.809H248.584z"/>
				<path style="opacity:0.7;fill:#FFFFFF;enable-background:new    ;" d="M248.589,189.842c0.042-0.257,0.083-0.518,0.125-0.772
					c1.444-8.865,2.85-16.153,3.51-19.49c0.038-0.182,0.048-0.363,0.029-0.545c-0.048-0.889-0.679-1.674-1.597-1.874
					c-2.152-0.469-4.361-0.87-6.599-1.215c-11.237-1.741-23.076-2.056-30.45-2.047c-4.514,0.01-7.345,0.134-7.345,0.134
					c-2.065,7.379-3.289,16.562-3.988,25.809H248.589z"/>
				<path style="fill:#407BFF;" d="M222.519,175.777c13.026,1.38,21.709-9.697,21.709-9.697l-0.172-0.134
					c-11.237-1.741-23.077-2.056-30.45-2.047C213.606,163.899,210.29,174.482,222.519,175.777z"/>
				<path style="fill:#E4897B;" d="M236.925,164.934c-3.663,3.328-12.636,2.098-12.636,2.098s-5.601-1.533-4.425-3.283
					c3.299-0.545,4.897-2.085,5.557-4.055c0.383-1.148,0.44-2.439,0.335-3.768c-0.048-0.698-0.153-1.406-0.277-2.104l11.093-8.215
					C235.117,151.029,233.338,161.004,236.925,164.934z"/>
				<path style="opacity:0.2;enable-background:new    ;" d="M234.008,150.828c-0.44,6.656-5.91,8.492-8.588,8.865
					c0.383-1.148,0.44-2.439,0.335-3.768L234.008,150.828z"/>
				<g>
					<path style="fill:#407BFF;" d="M235.289,160.71l-10.604,4.782l-0.622-3.833l-3.898,1.371c-1.399,0.492-2.278,1.88-2.124,3.356
						l0.44,4.207l5.38-2.944l2.68,3.792l12.737-6.135L235.289,160.71z"/>
					<path style="opacity:0.3;fill:#FFFFFF;enable-background:new    ;" d="M235.289,160.71l-10.604,4.782l-0.622-3.833
						l-3.898,1.371c-1.399,0.492-2.278,1.88-2.124,3.356l0.44,4.207l5.38-2.944l2.68,3.792l12.737-6.135L235.289,160.71z"/>
				</g>
				<g>
					<path style="fill:#263238;" d="M217.077,128.91c0,0-3.011,10.381,2.074,15.199c5.084,4.818,7.691-14.903,7.691-14.903
						L217.077,128.91z"/>
					<path style="opacity:0.2;fill:#FFFFFF;enable-background:new    ;" d="M217.077,128.91c0,0-3.011,10.381,2.074,15.199
						c5.084,4.818,7.691-14.903,7.691-14.903L217.077,128.91z"/>
					<path style="fill:#E4897B;" d="M217.001,150.08c0.105,0.373,0.23,0.736,0.373,1.09c0.507,1.291,1.253,2.429,2.152,3.385
						c0.947,1.023,2.075,1.826,3.299,2.4c2.228,1.042,4.772,1.301,7.154,0.564c1.578-0.488,3.089-1.406,4.38-2.831
						c3.739-4.064,3.471-8.588,3.634-16.267c0.057-1.654-0.258-3.299-0.956-4.791c-2.419-5.279-8.664-7.584-13.924-5.164
						C215.71,131.804,215.088,143.242,217.001,150.08z"/>
					<path style="fill:#263238;" d="M226.426,141.006c0.067,0.618-0.283,1.142-0.699,1.157c-0.415,0.015-0.757-0.484-0.784-1.106
						c-0.027-0.622,0.293-1.143,0.699-1.157C226.047,139.886,226.397,140.374,226.426,141.006z"/>
					<path style="fill:#263238;" d="M219.361,141.273c0.067,0.618-0.293,1.143-0.699,1.157c-0.405,0.014-0.757-0.484-0.784-1.106
						c-0.027-0.622,0.293-1.143,0.699-1.157C218.982,140.153,219.337,140.68,219.361,141.273z"/>
					<path style="fill:#DE5753;" d="M221.617,141.496c-0.672,1.939-1.608,3.777-2.784,5.46c0.893,0.589,2,0.752,3.025,0.447
						L221.617,141.496z"/>
					<path style="fill:#263238;" d="M216.627,138.354c0.122,0.062,0.268,0.054,0.383-0.021c0.76-0.542,1.732-0.693,2.621-0.408
						c0.186,0.079,0.4-0.008,0.478-0.194c0.078-0.186-0.008-0.4-0.194-0.478c-0.001,0-0.001,0-0.002-0.001
						c-1.115-0.389-2.349-0.213-3.311,0.472c-0.17,0.108-0.221,0.334-0.112,0.504c0.001,0.003,0.003,0.005,0.005,0.007
						C216.533,138.281,216.578,138.321,216.627,138.354z"/>
					<path style="fill:#263238;" d="M227.717,138.128c0.074-0.005,0.144-0.033,0.202-0.08c0.127-0.156,0.104-0.386-0.052-0.514
						c-0.002-0.002-0.004-0.003-0.006-0.005c-0.912-0.755-2.135-1.02-3.279-0.708c-0.191,0.064-0.294,0.271-0.229,0.462l0,0.001
						c0.069,0.188,0.272,0.289,0.463,0.229l0,0c0.909-0.22,1.869,0.004,2.588,0.602C227.501,138.165,227.615,138.17,227.717,138.128
						z"/>
					<path style="fill:#263238;" d="M232.001,129.058l-0.447,3.381c1.104,0.603,1.762,1.862,1.236,3.191
						c-1.121,2.837,0.451,7.269,2.618,9.052c0,0,0.08-1.233,1.118-0.93c1.038,0.303,0.687,6.724-1.374,9.768
						c0,0,3.098-2.741,4.899-9.468c1.666-6.221,1.917-11.417,0.659-13.843L232.001,129.058z"/>
					
						<path style="fill:none;stroke:#263238;stroke-width:0.5;stroke-linecap:round;stroke-linejoin:round;stroke-miterlimit:10;" d="
						M226.255,148.838c0,0-1.988,0.411-3.286,2.341"/>
					<path style="opacity:0.1;enable-background:new    ;" d="M219.526,154.556c0.947,1.023,2.075,1.826,3.299,2.4
						c2.228,1.042,4.772,1.301,7.154,0.564c-0.564-0.593-1.655-1.32-3.72-1.903C223.992,154.967,221.458,154.68,219.526,154.556z"/>
					<path style="opacity:0.2;fill:#FFFFFF;enable-background:new    ;" d="M232.001,129.058l-0.447,3.381
						c1.104,0.603,1.762,1.862,1.236,3.191c-1.121,2.837,0.451,7.269,2.618,9.052c0,0,0.08-1.233,1.118-0.93
						c1.038,0.303,0.687,6.724-1.374,9.768c0,0,3.098-2.741,4.899-9.468c1.666-6.221,1.917-11.417,0.659-13.843L232.001,129.058z"/>
					<path style="fill:#263238;" d="M241.238,131.76c0,0,0.833-4.437-6.157-7.914c-6.99-3.477-14.655,0.493-19.324-2.494
						c-4.669-2.987-4.836,9.294,5.148,10.678C230.889,133.414,241.238,131.76,241.238,131.76z"/>
					<path style="opacity:0.3;fill:#FFFFFF;enable-background:new    ;" d="M241.238,131.76c0,0,0.833-4.437-6.157-7.914
						c-6.99-3.477-14.655,0.493-19.324-2.494c-4.669-2.987-4.836,9.294,5.148,10.678C230.889,133.414,241.238,131.76,241.238,131.76
						z"/>
					<path style="fill:#E4897B;" d="M241.584,144.587c-0.786,1.769-2.241,3.154-4.046,3.851c-2.397,0.906-3.822-1.185-3.353-3.569
						c0.437-2.115,2.197-5.204,4.701-5.064C241.39,139.945,242.522,142.404,241.584,144.587z"/>
				</g>
				<path style="fill:#E4897B;" d="M229.714,169.343l-1.062-5.64c0,0,2.194-2.084,1.943-4.01
					c-0.251-1.926-10.028-5.105-11.761-5.232s-1.077,6.91-0.547,8.197c0.53,1.288,6.399,2.833,6.399,2.833l0.734,5.948
					L229.714,169.343z"/>
				<path style="opacity:0.2;enable-background:new    ;" d="M247.272,189.842c0.504-0.25,0.989-0.51,1.441-0.772
					c1.444-8.865,2.85-16.153,3.51-19.49c0.038-0.182,0.048-0.363,0.029-0.545c-6.322,6.435-16.166,17.202-14.98,20.808H247.272z"/>
				<path style="fill:#407BFF;" d="M243.839,189.842c7.27-6.523,13.594-15.508,9.124-21.587
					c-3.923-5.336-14.046,14.014-17.072,15.338c-3.027,1.324-5.729-16.417-5.729-16.417l-6,1.788c0,0,1.101,12.779,4.182,20.878
					H243.839z"/>
				<path style="opacity:0.6;fill:#FFFFFF;enable-background:new    ;" d="M243.839,189.842c7.27-6.523,13.594-15.508,9.124-21.587
					c-3.923-5.336-14.046,14.014-17.072,15.338c-3.027,1.324-5.729-16.417-5.729-16.417l-6,1.788c0,0,1.101,12.779,4.182,20.878
					H243.839z"/>
			</g>
			<g>
				<g>
					<path style="fill:#407BFF;" d="M289.155,189.842c2.115-2.129,3.48-3.635,3.48-3.635l-1.152-17.723
						c-3.342,1.772-13.354,15.14-18.61,21.358H289.155z"/>
					<path style="opacity:0.5;fill:#FFFFFF;enable-background:new    ;" d="M289.155,189.842c2.115-2.129,3.48-3.635,3.48-3.635
						l-1.152-17.723c-3.342,1.772-13.354,15.14-18.61,21.358H289.155z"/>
				</g>
				<path style="opacity:0.2;enable-background:new    ;" d="M289.151,189.842c2.118-2.128,3.484-3.632,3.484-3.632l-0.268-4.208
					l-1.329-4.083c0,0-4.829,4.476-4.702,11.924H289.151z"/>
				<g>
					<path style="fill:#407BFF;" d="M324.21,189.842c0.492-1.762,1.043-3.636,1.677-5.673c0.616-1.974,1.295-4.093,2.056-6.376
						c0.571-1.73,1.187-3.568,1.866-5.506c-4.066-1.295-8.205-2.3-12.407-2.998c-4.428-0.788-8.92-1.259-13.421-1.413
						c-5.814-0.045-12.497,0.607-12.497,0.607s-0.951,0.226-1.549,6.394c-0.293,3.116-0.582,7.915-0.601,14.965H324.21z"/>
					<path style="opacity:0.5;fill:#FFFFFF;enable-background:new    ;" d="M324.21,189.842c0.492-1.762,1.043-3.636,1.677-5.673
						c0.616-1.974,1.295-4.093,2.056-6.376c0.571-1.73,1.187-3.568,1.866-5.506c-4.066-1.295-8.205-2.3-12.407-2.998
						c-4.428-0.788-8.92-1.259-13.421-1.413c-5.814-0.045-12.497,0.607-12.497,0.607s-0.951,0.226-1.549,6.394
						c-0.293,3.116-0.582,7.915-0.601,14.965H324.21z"/>
				</g>
				<polygon style="fill:#263238;" points="305.632,189.842 313.834,175.165 304.35,180.465 298.851,173.572 300.858,189.842 				
					"/>
				<g>
					<path style="fill:#263238;" d="M314.153,167.435c5.415,1.271,7.053,5.618,6.455,9.563l-3.945-1.315
						c0,0-7.292,2.51-12.672,6.934c0,0-2.988-5.499-5.858-7.292l-4.064,0.478C294.07,175.803,300.405,164.207,314.153,167.435z"/>
					<path style="opacity:0.1;fill:#FFFFFF;" d="M314.153,167.435c5.415,1.271,7.053,5.618,6.455,9.563l-3.945-1.315
						c0,0-7.292,2.51-12.672,6.934c0,0-2.988-5.499-5.858-7.292l-4.064,0.478C294.07,175.803,300.405,164.207,314.153,167.435z"/>
				</g>
				<path style="fill:#EEC1BB;" d="M304.32,169.16c0.263-0.145,0.577-0.271,0.91-0.39c0.69-0.545,1.527-1.856,1.487-5.045
					c-0.014-1.038-0.113-2.268-0.346-3.733l8.867-1.656c0,0-3.023,5.967-0.501,10.399c0.868,0.386,1.385,0.931,1.291,1.653
					c-0.663,5.125-11.678,10.077-11.678,10.077S298.971,172.097,304.32,169.16z"/>
				<path style="opacity:0.2;enable-background:new    ;" d="M306.37,159.992c0.233,1.465,0.332,2.695,0.346,3.733
					c5.99,0,8.521-5.389,8.521-5.389L306.37,159.992z"/>
				<g>
					<path style="fill:#263238;" d="M310.328,130.735c0,0-10.4-1.315-12.313,7.053c-1.913,8.368,4.543,13.03,4.543,13.03
						L310.328,130.735z"/>
					<path style="fill:#EEC1BB;" d="M311.272,135.198c-7.708-0.422-10.415,3.569-11.415,11.481
						c-1.25,9.888,0.565,17.061,10.319,15.469C323.423,159.986,324.073,135.899,311.272,135.198z"/>
					<path style="fill:#D4827D;" d="M304.863,146.521c0,0-1.178,1.955-2.418,3.074c0,0,0.602,1.084,1.984,0.983L304.863,146.521z"/>
					<g>
						<path style="fill:#263238;" d="M309.616,146.149c-0.049,0.632,0.252,1.172,0.674,1.205c0.422,0.033,0.803-0.453,0.853-1.085
							c0.05-0.632-0.252-1.172-0.674-1.205C310.047,145.031,309.665,145.517,309.616,146.149z"/>
						<path style="fill:#263238;" d="M310.642,145.108l-1.333-0.647C309.309,144.461,309.903,145.672,310.642,145.108z"/>
					</g>
					<g>
						<path style="fill:#263238;" d="M301.765,145.402c-0.049,0.633,0.252,1.172,0.674,1.205c0.422,0.033,0.803-0.453,0.853-1.085
							c0.049-0.632-0.252-1.172-0.674-1.205C302.196,144.284,301.814,144.77,301.765,145.402z"/>
						<path style="fill:#263238;" d="M302.791,144.361l-1.333-0.647C301.458,143.714,302.052,144.925,302.791,144.361z"/>
					</g>
					
						<path style="fill:none;stroke:#263238;stroke-width:0.6862;stroke-linecap:round;stroke-linejoin:round;stroke-miterlimit:10;" d="
						M309.985,140.83c0,0,2.181-0.163,3.279,1.348"/>
					
						<path style="fill:none;stroke:#263238;stroke-width:0.6862;stroke-linecap:round;stroke-linejoin:round;stroke-miterlimit:10;" d="
						M304.4,140.198c0,0-1.334-0.579-3.107,0.465"/>
					<path style="fill:#263238;" d="M318.984,148.651c0,0-3.257-6.531-2.443-11.39c0,0-14.933-7.077-16.536,8.386
						c0,0-0.738-13.849,12.529-13.43c13.246,0.418,12.149,19.801,4.99,25.202C317.523,157.419,320.997,152.734,318.984,148.651z"/>
					<path style="fill:#263238;" d="M309.013,130.137c0,0-6.336-1.554-8.129,0.12c-1.793,1.674,10.998,13.508,17.692,14.704
						c0,0,2.271,7.412,0.478,10.878c0,0,7.531-2.63,7.89-14.106C327.303,130.257,315.229,125.953,309.013,130.137z"/>
					<path style="fill:#EEC1BB;" d="M317.636,150.209c0.12-1.238,1.515-3.269,3.809-2.89c2.374,0.391,3.244,5.358-2.762,6.211
						C317.822,153.652,317.387,152.792,317.636,150.209z"/>
					<path style="fill:#263238;" d="M320.967,134.68c0,0,2.63-6.694,9.683-6.216c7.053,0.478,8.129,11.476,4.423,19.605
						c-3.706,8.129-1.195,10.759-1.195,10.759s-3.945-0.478-3.945-7.77c0,0-0.359,2.391-0.239,4.662c0,0-2.63-3.706-0.12-10.759
						c2.51-7.053-5.499-3.825-5.499-3.825L320.967,134.68z"/>
					
						<path style="fill:none;stroke:#263238;stroke-width:0.6862;stroke-linecap:round;stroke-linejoin:round;stroke-miterlimit:10;" d="
						M301.481,130.855c0,0,3.347,10.759,12.313,13.986"/>
					
						<path style="fill:none;stroke:#263238;stroke-width:0.6862;stroke-linecap:round;stroke-linejoin:round;stroke-miterlimit:10;" d="
						M310.447,153.329c0,0-1.793,1.913-4.423,1.793"/>
					
						<path style="fill:none;stroke:#263238;stroke-width:0.5;stroke-linecap:round;stroke-linejoin:round;stroke-miterlimit:10;" d="
						M305.665,147.232c0,1.023,0.763,1.853,1.703,1.853c0.941,0,1.703-0.83,1.703-1.853c0-1.023-0.763-1.853-1.703-1.853
						C306.428,145.379,305.665,146.209,305.665,147.232z"/>
					
						<path style="fill:none;stroke:#263238;stroke-width:0.5;stroke-linecap:round;stroke-linejoin:round;stroke-miterlimit:10;" d="
						M299.628,146.933c0,1.023,0.763,1.853,1.704,1.853c0.941,0,1.703-0.83,1.703-1.853c0-1.023-0.763-1.853-1.703-1.853
						C300.391,145.08,299.628,145.91,299.628,146.933z"/>
					
						<path style="fill:none;stroke:#263238;stroke-width:0.5;stroke-linecap:round;stroke-linejoin:round;stroke-miterlimit:10;" d="
						M305.665,147.232c0,0-0.897-1.913-2.63-0.299"/>
					
						<path style="fill:none;stroke:#263238;stroke-width:0.5;stroke-linecap:round;stroke-linejoin:round;stroke-miterlimit:10;" d="
						M309.072,147.232c0,0,9.564-0.299,10.699-0.239"/>
				</g>
				<g>
					<path style="fill:#407BFF;" d="M337.183,189.842c-3.644-9.558-7.374-17.555-7.374-17.555s-6.094,8.86-6.637,17.555H337.183z"/>
					<path style="opacity:0.5;fill:#FFFFFF;enable-background:new    ;" d="M337.183,189.842
						c-3.644-9.558-7.374-17.555-7.374-17.555s-6.094,8.86-6.637,17.555H337.183z"/>
				</g>
			</g>
			<g id="_x3C_Group_x3E__47_">
				<path style="fill:#E4897B;" d="M339.457,264.437c-2.04-5.477-3.984-10.119-3.984-10.119l-8.364,7.32c0,0,0.585,1.114,1.46,2.798
					H339.457z"/>
				<path style="fill:#E4897B;" d="M280.433,264.437c1.985-2.415,3.405-4.195,3.405-4.195l-8.163-6.78c0,0-3.967,6.167-7.268,10.975
					H280.433z"/>
				<g>
					<path style="fill:#407BFF;" d="M282.432,264.437l4.852-3.401l-1.887-22.577c-6.18,1.048-15.16,19.014-15.16,19.014l7.014,6.964
						H282.432z"/>
					<path style="opacity:0.2;fill:#FFFFFF;enable-background:new    ;" d="M277.251,264.437h5.181l3.48-2.439l1.371-0.96
						l-1.884-22.583c-6.182,1.054-15.161,19.021-15.161,19.021l6.182,6.135L277.251,264.437z"/>
					<polygon style="fill:#407BFF;" points="278.766,264.437 270.236,255.487 268.766,257.951 275.601,264.437 					"/>
					<path style="opacity:0.2;enable-background:new    ;" d="M282.432,264.437l3.48-2.439l-1.651-9.79
						c0,0-6.461,4.084-7.841,11.403l0.831,0.826H282.432z"/>
				</g>
				<g>
					<path style="fill:#407BFF;" d="M327.64,264.437c2.057-12.716,4.071-22.401,4.071-22.401
						c-19.795-4.773-46.365-3.577-46.365-3.577c-2.076,7.424-3.303,16.674-4.001,25.978H327.64z"/>
					<path style="opacity:0.2;fill:#FFFFFF;enable-background:new    ;" d="M327.637,264.437c0.143-0.887,0.286-1.77,0.427-2.624
						c1.902-11.4,3.644-19.777,3.644-19.777c-19.792-4.772-46.361-3.577-46.361-3.577c-2.075,7.424-3.302,16.674-4,25.978H327.637z"
						/>
					<path style="opacity:0.2;enable-background:new    ;" d="M327.637,264.437c0.143-0.887,0.286-1.77,0.427-2.624l-2.923-2.745
						c0,0-0.991,2.154-1.337,5.369H327.637z"/>
				</g>
				<path style="fill:#263238;" d="M296.616,264.437h3.144c0.508-6.377,1.276-12.796,2.433-17.03l5.544-4.539l-4.363-1.412
					l-3.96,0.223l1.068,5.251C300.482,246.929,298.544,255.012,296.616,264.437z"/>
				<path style="fill:#E4897B;" d="M316.01,239.358c-3.663,3.328-12.636,2.097-12.636,2.097s-5.601-1.533-4.425-3.283
					c3.299-0.545,4.897-2.085,5.556-4.055c0.382-1.148,0.44-2.439,0.335-3.768c-0.048-0.698-0.153-1.406-0.277-2.104l11.093-8.215
					C314.202,225.453,312.423,235.428,316.01,239.358z"/>
				<path style="opacity:0.2;enable-background:new    ;" d="M313.093,225.252c-0.44,6.656-5.91,8.492-8.588,8.865
					c0.382-1.148,0.44-2.439,0.335-3.768L313.093,225.252z"/>
				<g>
					<path style="fill:#407BFF;" d="M314.374,235.134l-10.604,4.782l-0.622-3.833l-3.898,1.371c-1.399,0.492-2.278,1.88-2.124,3.356
						l0.44,4.207l5.38-2.944l2.68,3.792l12.737-6.135L314.374,235.134z"/>
					<path style="opacity:0.3;fill:#FFFFFF;enable-background:new    ;" d="M314.374,235.134l-10.604,4.782l-0.622-3.833
						l-3.898,1.371c-1.399,0.492-2.278,1.88-2.124,3.356l0.44,4.207l5.38-2.944l2.68,3.792l12.737-6.135L314.374,235.134z"/>
				</g>
				<g>
					<path style="fill:#263238;" d="M292.913,204.622c0,0-1.657,10.681,4.002,14.808c5.659,4.127,5.72-15.765,5.72-15.765
						L292.913,204.622z"/>
					<path style="fill:#E4897B;" d="M313.356,227.973c-2.764,3.947-7.255,4.969-11.148,3.724c-2.503-0.797-4.757-2.54-6.15-5.039
						c-0.187-0.326-0.353-0.672-0.51-1.027c-2.772-6.538-3.625-17.964,3.293-22.224c4.912-3.073,11.398-1.583,14.47,3.338
						c0.884,1.393,1.411,2.983,1.564,4.631C315.701,219.014,316.546,223.465,313.356,227.973z"/>
					<path style="fill:#263238;" d="M303.734,215.422c0.145,0.604-0.135,1.169-0.545,1.236c-0.41,0.068-0.813-0.383-0.919-0.996
						c-0.107-0.613,0.145-1.171,0.545-1.237C303.215,214.36,303.625,214.799,303.734,215.422z"/>
					<path style="fill:#263238;" d="M296.761,216.591c0.145,0.604-0.145,1.171-0.545,1.237c-0.4,0.066-0.812-0.383-0.919-0.996
						c-0.107-0.613,0.145-1.171,0.545-1.237C296.242,215.529,296.661,216.006,296.761,216.591z"/>
					<path style="fill:#DE5753;" d="M299.028,216.523c-0.418,2.01-1.112,3.952-2.062,5.771c0.961,0.469,2.08,0.49,3.057,0.057
						L299.028,216.523z"/>
					<path style="fill:#263238;" d="M293.677,214.046c0.129,0.046,0.273,0.019,0.378-0.07c0.685-0.635,1.629-0.909,2.547-0.74
						c0.194,0.054,0.395-0.059,0.449-0.254c0.054-0.194-0.06-0.395-0.254-0.45c0,0-0.001,0-0.002,0
						c-1.155-0.243-2.357,0.089-3.223,0.892c-0.155,0.129-0.176,0.359-0.047,0.514c0.002,0.002,0.004,0.005,0.006,0.007
						C293.574,213.985,293.623,214.02,293.677,214.046z"/>
					<path style="fill:#263238;" d="M304.646,212.402c0.073-0.014,0.139-0.051,0.19-0.105c0.106-0.171,0.054-0.396-0.117-0.503
						c-0.002-0.002-0.005-0.003-0.007-0.004c-1.002-0.633-2.249-0.738-3.342-0.283c-0.181,0.088-0.257,0.307-0.168,0.488l0,0.001
						c0.092,0.178,0.307,0.251,0.489,0.168l0,0c0.874-0.334,1.854-0.236,2.644,0.266
						C304.437,212.467,304.551,212.457,304.646,212.402z"/>
					<path style="fill:#263238;" d="M307.734,202.858l-0.01,3.411c1.172,0.456,1.986,1.621,1.635,3.006
						c-0.749,2.957,1.377,7.152,3.755,8.642c0,0-0.078-1.233,0.99-1.066c1.068,0.168,1.542,6.581-0.112,9.864
						c0,0,2.722-3.115,3.647-10.017c0.856-6.383,0.439-11.569-1.119-13.813L307.734,202.858z"/>
					<path style="fill:#E4897B;" d="M319.226,217.033c-0.553,1.855-1.819,3.415-3.52,4.337c-2.261,1.206-3.943-0.686-3.783-3.111
						c0.163-2.153,1.512-5.442,4.014-5.624C318.439,212.454,319.876,214.747,319.226,217.033z"/>
					<g>
						<path style="fill:#263238;" d="M300.824,224.224c0.629,0.859,1.421,2.548,1.421,2.548c0.166-0.044,0.332-0.088,0.495-0.141
							c2.236-0.656,3.056-1.699,3.288-2.656c0.125-0.524,0.067-1.027-0.033-1.422c-0.11-0.458-0.293-0.759-0.293-0.759
							c-0.977,1.056-3.014,1.828-4.12,2.195C301.121,224.147,300.824,224.224,300.824,224.224z"/>
						<path style="fill:#FFFFFF;" d="M301.582,223.989l0.439,0.741c2.104-0.623,3.502-1.344,3.974-2.176
							c-0.11-0.458-0.293-0.759-0.293-0.759C304.725,222.85,302.688,223.622,301.582,223.989z"/>
						<path style="fill:#DE5753;" d="M302.74,226.632c2.236-0.656,3.056-1.699,3.288-2.656c-0.753,0.253-1.633,0.642-2.338,1.22
							C303.149,225.636,302.879,226.15,302.74,226.632z"/>
					</g>
					<g>
						<path style="fill:#263238;" d="M312.29,215.306l-1-0.582c0,0,0.628,4.087-0.668,5.235c0,0-4.504,0.479-6.074,0.903
							c-1.57,0.425-2.512,2.23-2.512,2.23s-3.523-0.755-5.057,1.894c0,0-1.946-1.625-2.935-4.092c0,0,0.115,7.474,4.305,11.456
							c4.19,3.983,11.035,2.005,14.206-1.11C315.725,228.125,312.29,215.306,312.29,215.306z M309.326,227.1
							c-1.381,1.863-3.746,1.481-4.768-0.296l-1.401,0.766c0,0,1.54,1.301,0.371,2.495c-1.17,1.194-4.791,0.771-5.155-2.676
							c-0.375-3.549,3.987-3.838,3.987-3.838s1.454-1.688,4.168-1.709C309.242,221.821,310.706,225.238,309.326,227.1z"/>
					</g>
					<path style="fill:#263238;" d="M307.724,206.269c0,0-16.997,5.8-15.036-5.658c0,0,9.168-5.405,17.166-3.892
						c7.998,1.513,7.368,9.798,7.368,9.798L307.724,206.269z"/>
				</g>
				<g>
					<path style="fill:#407BFF;" d="M341.649,264.437c-1.024-3.262-6.614-20.653-9.941-22.401c0,0-2.381,1.93-4.65,6.551
						s-2.758,13.886-2.758,13.886l1.469,1.964H341.649z"/>
					<path style="opacity:0.2;fill:#FFFFFF;enable-background:new    ;" d="M341.649,264.437
						c-1.024-3.262-6.614-20.653-9.941-22.401c0,0-2.381,1.93-4.65,6.551s-2.758,13.886-2.758,13.886l1.469,1.964H341.649z"/>
				</g>
			</g>
			<rect x="348.586" y="191.453" style="opacity:0.6;fill:#FFFFFF;enable-background:new    ;" width="83.292" height="72.985"/>
			<g>
				<g>
					<path style="fill:#263238;" d="M369.493,264.437c3.15-3.053,5.343-5.476,5.343-5.476l-1.152-17.723
						c-3.728,1.977-15.758,18.386-20.225,23.199H369.493z"/>
					<path style="opacity:0.3;fill:#FFFFFF;enable-background:new    ;" d="M369.493,264.437c3.15-3.053,5.343-5.476,5.343-5.476
						l-1.152-17.723c-3.728,1.977-15.758,18.386-20.225,23.199H369.493z"/>
				</g>
				<path style="opacity:0.2;enable-background:new    ;" d="M369.487,264.437c3.15-3.052,5.349-5.473,5.349-5.473l-0.268-4.208
					l-1.329-4.083c0,0-5.631,5.218-4.569,13.764H369.487z"/>
				<path style="fill:#263238;" d="M407.203,218.216c-0.863,3.307,3.855,12.426,1.942,29.016
					c-1.913,16.59-20.107,15.578-28.284,10.047c-8.177-5.531-6.762-35.544-3.95-41.462
					C379.723,209.899,407.203,218.216,407.203,218.216z"/>
				<g>
					<path style="fill:#263238;" d="M405.905,264.437c0.606-2.272,1.324-4.754,2.183-7.514c0.616-1.974,1.295-4.093,2.056-6.376
						c0.571-1.73,1.187-3.568,1.866-5.506c-4.066-1.295-8.205-2.3-12.407-2.998c-4.429-0.788-8.921-1.259-13.421-1.413
						c-5.814-0.045-12.498,0.607-12.498,0.607s-0.951,0.226-1.548,6.394c-0.318,3.38-0.631,8.74-0.599,16.805H405.905z"/>
					<path style="opacity:0.3;fill:#FFFFFF;enable-background:new    ;" d="M405.905,264.437c0.606-2.272,1.324-4.754,2.183-7.514
						c0.616-1.974,1.295-4.093,2.056-6.376c0.571-1.73,1.187-3.568,1.866-5.506c-4.066-1.295-8.205-2.3-12.407-2.998
						c-4.429-0.788-8.921-1.259-13.421-1.413c-5.814-0.045-12.498,0.607-12.498,0.607s-0.951,0.226-1.548,6.394
						c-0.318,3.38-0.631,8.74-0.599,16.805H405.905z"/>
				</g>
				<path style="fill:#FFFFFF;" d="M391.551,239.771c3.584,0.214,9.324,0.179,13.041,5.917h-6.803l3.706,4.525
					c0,0-11.912,2.838-15.639,10.649c0,0-5.334-9.258-8.236-11.41c0,0,2.789-2.856,6.04-4.41c0,0-2.779-1.255-6.04-1.785
					C377.619,243.256,386.701,239.481,391.551,239.771z"/>
				<g>
					<path style="fill:#407BFF;" d="M398.229,243.143c0,0-9.223,10.4-12.064,15.42c0,0-2.245-8.194,0.386-16.649L398.229,243.143z"
						/>
					<path style="opacity:0.6;fill:#FFFFFF;enable-background:new    ;" d="M398.229,243.143c0,0-9.223,10.4-12.064,15.42
						c0,0-2.245-8.194,0.386-16.649L398.229,243.143z"/>
				</g>
				<path style="fill:#EEC1BB;" d="M388.648,247.232c7.367-0.943,9.581-4.09,9.581-4.09c-4.674-4.41-0.791-12.052-0.791-12.052
					l-8.867,1.656c0.233,1.465,0.332,2.695,0.346,3.733c0.067,5.382-2.367,5.435-2.367,5.435
					C384.995,244.829,388.648,247.232,388.648,247.232z"/>
				<path style="opacity:0.2;enable-background:new    ;" d="M388.571,232.746c0.233,1.465,0.332,2.695,0.346,3.733
					c5.99,0,8.521-5.389,8.521-5.389L388.571,232.746z"/>
				<g>
					<path style="fill:#EEC1BB;" d="M393.473,207.952c-7.708-0.422-10.415,3.569-11.415,11.481
						c-1.249,9.888,0.565,17.061,10.319,15.469C405.624,232.74,406.274,208.653,393.473,207.952z"/>
					<path style="fill:#D4827D;" d="M387.064,219.275c0,0-1.178,1.955-2.418,3.074c0,0,0.602,1.084,1.984,0.983L387.064,219.275z"/>
					<g>
						<path style="fill:#263238;" d="M391.817,218.903c-0.049,0.632,0.252,1.172,0.674,1.205c0.421,0.033,0.803-0.453,0.853-1.085
							c0.05-0.632-0.252-1.172-0.674-1.205C392.248,217.785,391.866,218.271,391.817,218.903z"/>
						<path style="fill:#263238;" d="M392.843,217.862l-1.333-0.647C391.51,217.215,392.104,218.426,392.843,217.862z"/>
					</g>
					<g>
						<path style="fill:#263238;" d="M383.966,218.156c-0.049,0.633,0.252,1.172,0.674,1.205c0.422,0.033,0.803-0.453,0.853-1.085
							c0.049-0.632-0.252-1.172-0.674-1.205C384.397,217.038,384.015,217.524,383.966,218.156z"/>
						<path style="fill:#263238;" d="M384.992,217.115l-1.333-0.647C383.659,216.468,384.253,217.679,384.992,217.115z"/>
					</g>
					
						<path style="fill:none;stroke:#263238;stroke-width:0.6862;stroke-linecap:round;stroke-linejoin:round;stroke-miterlimit:10;" d="
						M392.186,213.585c0,0,2.181-0.163,3.279,1.348"/>
					
						<path style="fill:none;stroke:#263238;stroke-width:0.6862;stroke-linecap:round;stroke-linejoin:round;stroke-miterlimit:10;" d="
						M386.601,212.952c0,0-1.334-0.579-3.107,0.465"/>
					<g>
						<path style="fill:#263238;" d="M387.588,226.426c0.395,0.954,0.753,2.726,0.753,2.726c0.167-0.003,0.333-0.007,0.499-0.019
							c2.256-0.104,3.268-0.897,3.706-1.745c0.238-0.465,0.299-0.952,0.296-1.346c0.002-0.456-0.101-0.782-0.101-0.782
							c-1.163,0.77-3.259,1.028-4.384,1.12C387.886,226.422,387.588,226.426,387.588,226.426z"/>
						<path style="fill:#FFFFFF;" d="M388.357,226.379l0.243,0.798c2.125-0.103,3.607-0.461,4.242-1.135
							c0.002-0.456-0.101-0.782-0.101-0.782C391.578,226.029,389.482,226.288,388.357,226.379z"/>
						<path style="fill:#DE5753;" d="M388.84,229.133c2.256-0.104,3.268-0.897,3.706-1.745c-0.767,0.065-1.685,0.229-2.482,0.612
							C389.453,228.29,389.081,228.712,388.84,229.133z"/>
					</g>
					<path style="fill:#263238;" d="M401.185,221.405c0,0-3.257-6.53-2.443-11.39c0,0-14.933-7.077-16.536,8.386
						c0,0-0.738-13.849,12.529-13.43c13.246,0.418,12.149,19.801,4.99,25.202C399.725,230.174,403.198,225.488,401.185,221.405z"/>
					<path style="fill:#EEC1BB;" d="M399.837,222.963c0.12-1.238,1.515-3.269,3.809-2.89c2.374,0.391,3.244,5.358-2.762,6.211
						C400.023,226.406,399.588,225.546,399.837,222.963z"/>
				</g>
				<path style="fill:#263238;" d="M396.688,209.245c0,0-1.223,9.51,4.495,18.143c4.337,6.547-0.646,12.287-0.646,12.287
					s10.289-3.55,5.802-18.152c0,0,4.837-13.048-4.676-16.561c0,0-0.054-3.978-8.659-3.221c-8.605,0.757-15.538,8.132-16.853,17.535
					c-1.315,9.402,3.586,19.886,3.586,19.886S374.526,205.844,396.688,209.245z"/>
				<g>
					<path style="fill:#263238;" d="M397.165,209.396c-0.607,2.144-0.728,4.536-0.635,6.84c0.127,2.323,0.507,4.638,1.113,6.898
						c0.596,2.262,1.464,4.453,2.584,6.512c1.146,2.035,2.533,3.987,4.365,5.477c-1.886-1.425-3.352-3.339-4.582-5.352
						c-1.204-2.038-2.162-4.226-2.848-6.498c-0.695-2.268-1.167-4.61-1.381-6.987c-0.171-2.387-0.162-4.77,0.431-7.192
						L397.165,209.396z"/>
				</g>
				<path style="opacity:0.2;enable-background:new    ;" d="M405.912,264.437c0.129-0.478,0.258-0.957,0.398-1.456
					c-0.928-3.261-1.886-0.712-1.886-0.712s-0.191,0.794-0.341,2.169H405.912z"/>
				<g>
					<path style="fill:#263238;" d="M418.919,264.437c-3.484-9.28-6.909-19.396-6.909-19.396
						c-7.137,2.816-7.527,17.426-7.527,17.426s0.417,0.744,1.112,1.969H418.919z"/>
					<path style="opacity:0.3;fill:#FFFFFF;enable-background:new    ;" d="M418.919,264.437c-3.484-9.28-6.909-19.396-6.909-19.396
						c-7.137,2.816-7.527,17.426-7.527,17.426s0.417,0.744,1.112,1.969H418.919z"/>
				</g>
			</g>
			<rect x="178.177" y="191.453" style="opacity:0.5;fill:#FFFFFF;enable-background:new    ;" width="83.292" height="72.985"/>
			<g>
				<g>
					<polygon style="fill:#FFFFFF;" points="220.97,203.32 212.61,211.69 210.88,211.69 210.88,203.32 					"/>
					<polygon style="fill:#FFFFFF;" points="222.72,205.82 222.72,211.69 216.85,211.69 					"/>
					<polygon style="fill:#FFFFFF;" points="226.938,210.88 223.773,209.88 223.773,205.265 226.938,204.265 					"/>
				</g>
				<g>
					<circle style="fill:none;stroke:#FFFFFF;stroke-miterlimit:10;" cx="218.909" cy="207.505" r="11.357"/>
					<line style="fill:none;stroke:#FFFFFF;stroke-miterlimit:10;" x1="226.939" y1="199.475" x2="210.878" y2="215.536"/>
				</g>
			</g>
		</g>
	</g>
</g>
<g id="Character">
	<g>
		<path style="fill:#263238;" d="M83.747,397.804l24.785-2.436v-34.832h9.823v34.822l24.885,2.446
			c2.47,0.243,4.354,2.32,4.354,4.802v3.722h-33.189h-1.821H79.394v-3.722C79.394,400.124,81.277,398.047,83.747,397.804z"/>
		<path style="opacity:0.3;fill:#FFFFFF;enable-background:new    ;" d="M83.747,397.804l24.785-2.436v-34.832h9.823v34.822
			l24.885,2.446c2.47,0.243,4.354,2.32,4.354,4.802v3.722h-33.189h-1.821H79.394v-3.722
			C79.394,400.124,81.277,398.047,83.747,397.804z"/>
		<path style="fill:#407BFF;" d="M138.548,410.944c0,3.547,2.875,6.422,6.422,6.422c3.547,0,6.422-2.875,6.422-6.422
			c0-3.547-2.875-6.422-6.422-6.422C141.423,404.522,138.548,407.397,138.548,410.944z"/>
		<path style="fill:#407BFF;" d="M88.439,410.944c0,3.547-2.875,6.422-6.422,6.422c-3.547,0-6.422-2.875-6.422-6.422
			c0-3.547,2.875-6.422,6.422-6.422C85.564,404.522,88.439,407.397,88.439,410.944z"/>
		<path style="fill:#263238;" d="M110.974,368.023h4.939c2.283,0,4.133-1.85,4.133-4.133v-26.891h-13.206v26.891
			C106.841,366.173,108.691,368.023,110.974,368.023z"/>
		<path style="opacity:0.5;fill:#FFFFFF;enable-background:new    ;" d="M110.974,368.023h4.939c2.283,0,4.133-1.85,4.133-4.133
			v-26.891h-13.206v26.891C106.841,366.173,108.691,368.023,110.974,368.023z"/>
		<path style="fill:#263238;" d="M89.96,282.554c0,0-1.872,46.448,11.06,54.445H86.256c0,0-11.439-15.824-8.206-54.445H89.96z"/>
		<path style="opacity:0.5;fill:#FFFFFF;enable-background:new    ;" d="M89.96,282.554c0,0-1.872,46.448,11.06,54.445H86.256
			c0,0-11.439-15.824-8.206-54.445H89.96z"/>
		<path style="fill:#407BFF;" d="M142.395,330.504H86.228c-2.761,0-5,2.239-5,5v5.055h66.167v-5.055
			C147.395,332.742,145.156,330.504,142.395,330.504z"/>
		<g>
			<path style="fill:#407BFF;" d="M148.142,335.531H80.481c-1.111,0-2.011,0.901-2.011,2.011v1.005c0,1.111,0.901,2.011,2.011,2.011
				h67.661c1.111,0,2.011-0.9,2.011-2.011v-1.005C150.153,336.432,149.252,335.531,148.142,335.531z"/>
			<path style="opacity:0.6;fill:#FFFFFF;enable-background:new    ;" d="M148.142,335.531H80.481c-1.111,0-2.011,0.901-2.011,2.011
				v1.005c0,1.111,0.901,2.011,2.011,2.011h67.661c1.111,0,2.011-0.9,2.011-2.011v-1.005
				C150.153,336.432,149.252,335.531,148.142,335.531z"/>
		</g>
		<path style="fill:#407BFF;" d="M76.469,291.992h19.573c8.054,0,14.584-6.529,14.584-14.584v-5.171
			c0-8.055-6.53-14.584-14.584-14.584H76.469c-8.054,0-14.584,6.529-14.584,14.584v5.171
			C61.886,285.462,68.415,291.992,76.469,291.992z"/>
	</g>
	<g>
		<path style="fill:#263238;" d="M138.637,250.521c2.648,1.088,17.678,20.262,18.077,24.301c0.483,4.894-4.483,5.829-9.89,4.561
			c-5.407-1.268-1.319-6.579-1.319-6.579l-8.326-11.66L138.637,250.521z"/>
		<path style="fill:#263238;" d="M136.242,298.258h-18.989c0,0,3.659-25.094,4.253-25.453c0.593-0.36,13.889-1.25,13.889-1.25
			v13.989L136.242,298.258z"/>
		<path style="fill:#263238;" d="M114.582,243.711c0.692-0.146,7.936-3.137,11.88-0.109c3.944,3.029,8.377,13.117,1.314,16.776
			c-7.063,3.659-16.069,1.749-17.15-3.758C109.545,251.113,114.582,243.711,114.582,243.711z"/>
		<path style="fill:#263238;" d="M108.931,221.084c0,0-4.761,10.975-1.427,15.08c3.334,4.105,25.044,7.318,28.821,3.487
			c3.777-3.832-1.17-19-1.17-19L108.931,221.084z"/>
		<polygon style="fill:#E4897B;" points="194.309,382.377 188.653,383.739 185.79,375.93 183.191,368.828 189.633,366.079 
			192.11,374.699 		"/>
		<polygon style="opacity:0.2;enable-background:new    ;" points="192.11,374.699 185.79,375.93 183.191,368.828 189.633,366.079 
					"/>
		<g>
			<path style="fill:#263238;" d="M191.542,370.577l-7.845,2.916c0,0-20.929-52.326-25.23-52.507
				c-4.301-0.181-48.094,19.948-59.07,8.783c-10.976-11.157,4.895-38.055,4.895-38.055s26.4-3.768,28.387,2.193
				c0.387,1.153,0.809,3.415,1.118,5.35c0.301,1.824,0.508,3.355,0.508,3.355s0.009,0,0.017-0.009
				c0.817-0.206,27.32-7.045,37.763,0.009C182.691,309.786,191.542,370.577,191.542,370.577z"/>
			<path style="opacity:0.2;fill:#FFFFFF;enable-background:new    ;" d="M191.542,370.577l-7.845,2.916
				c0,0-20.929-52.326-25.23-52.507c-4.301-0.181-48.094,19.948-59.07,8.783c-10.976-11.157,4.895-38.055,4.895-38.055
				s26.4-3.768,28.387,2.193c0.387,1.153,0.809,3.415,1.118,5.35c0.301,1.824,0.508,3.355,0.508,3.355s0.009,0,0.017-0.009
				c0.817-0.206,27.32-7.045,37.763,0.009C182.691,309.786,191.542,370.577,191.542,370.577z"/>
		</g>
		<polygon style="fill:#E4897B;" points="146.419,404.697 140.783,403.254 141.867,395.168 142.874,387.752 149.844,388.377 
			148.034,397.018 		"/>
		<polygon style="opacity:0.2;enable-background:new    ;" points="147.989,397.192 141.827,395.323 142.854,387.829 
			149.834,388.416 		"/>
		<polygon style="fill:#263238;" points="180.457,370.591 191.883,366.707 192.372,371.388 183.705,374.452 		"/>
		<g>
			<path style="fill:#263238;" d="M118.356,332.453c0,0,1.788,0.042,29.478-1.248c0,0-4.138,34.619-6.396,60.534l8.28,1.411
				c0,0,19.785-55.495,19.57-64.311c-0.215-8.817-10.322-11.398-10.322-11.398S139.238,328.84,118.356,332.453z"/>
			<path style="opacity:0.1;fill:#FFFFFF;enable-background:new    ;" d="M118.356,332.453c0,0,1.788,0.042,29.478-1.248
				c0,0-4.138,34.619-6.396,60.534l8.28,1.411c0,0,19.785-55.495,19.57-64.311c-0.215-8.817-10.322-11.398-10.322-11.398
				S139.238,328.84,118.356,332.453z"/>
		</g>
		<polygon style="fill:#263238;" points="140.228,389.229 151.608,390.523 149.413,394.984 140.2,393.803 		"/>
		<path style="opacity:0.3;enable-background:new    ;" d="M134.304,302.612l-15.441,3.217c0,0,8.533-4.714,14.933-6.572
			C134.098,301.081,134.304,302.612,134.304,302.612z"/>
		<g>
			<g>
				<polygon style="fill:#263238;" points="104.93,287.61 104.294,291.717 132.68,293.906 133.431,289.049 				"/>
				<polygon style="opacity:0.2;enable-background:new    ;" points="104.93,287.61 104.294,291.717 132.68,293.906 
					133.431,289.049 				"/>
			</g>
			
				<rect x="112.841" y="287.249" transform="matrix(0.9948 0.1023 -0.1023 0.9948 30.3439 -10.0885)" style="fill:#263238;" width="1.41" height="7.181"/>
			
				<rect x="120.414" y="288.842" transform="matrix(0.9979 0.0641 -0.0641 0.9979 18.9318 -7.3234)" style="fill:#FFFFFF;" width="6.232" height="4.726"/>
			
				<rect x="130.27" y="288.018" transform="matrix(0.9948 0.1023 -0.1023 0.9948 30.5184 -11.8687)" style="fill:#263238;" width="1.41" height="7.181"/>
			
				<rect x="112.841" y="287.249" transform="matrix(0.9948 0.1023 -0.1023 0.9948 30.3439 -10.0885)" style="opacity:0.2;fill:#FFFFFF;enable-background:new    ;" width="1.41" height="7.181"/>
			
				<rect x="130.27" y="288.018" transform="matrix(0.9948 0.1023 -0.1023 0.9948 30.5184 -11.8687)" style="opacity:0.2;fill:#FFFFFF;enable-background:new    ;" width="1.41" height="7.181"/>
		</g>
		<path style="fill:#407BFF;" d="M136.78,249.9c0,0-6.655-4.654-15.762-5.122s-17.294,4.548-17.294,4.548l1.207,38.284l28.502,1.439
			C133.431,289.049,142.415,263.512,136.78,249.9z"/>
		<path style="fill:#263238;" d="M135.388,224.323c0,0,4.113-18.495-12.996-16.665c-21.476,2.298-13.317,28.949-2.672,27.335
			C130.365,233.38,135.388,224.323,135.388,224.323z"/>
		<path style="opacity:0.2;enable-background:new    ;" d="M131.857,249.092l0.511,8.056l-6.183-5.538c0,0-0.413,4.022-1.845,10.649
			c0,0-0.396-4.452-2.901-10.003l-5.836,5.948l-3.821-9.111C111.783,249.092,123.483,240.609,131.857,249.092z"/>
		<path style="fill:#E4897B;" d="M124.073,255.631l-3.083-7.582l-5.669-2.537c5.028-3.461,2.493-11.198,2.493-11.198l8.083,2.842
			c-0.432,1.342-0.703,2.481-0.867,3.454c-0.845,5.042,1.432,5.445,1.432,5.445l-1.563,2.258L124.073,255.631z"/>
		<path style="opacity:0.2;enable-background:new    ;" d="M125.897,237.155c-0.432,1.342-0.703,2.481-0.867,3.454
			c-3.869-1.551-7.216-6.296-7.216-6.296L125.897,237.155z"/>
		<g>
			<path style="fill:#E4897B;" d="M126.181,212.998c7.306,0.628,9.321,4.741,9.21,12.315c-0.139,9.466-2.8,15.971-11.762,13.177
				C111.457,234.695,114.048,211.955,126.181,212.998z"/>
			<path style="fill:#DE5753;" d="M130.703,224.499c0,0,0.848,1.995,1.865,3.213c0,0-0.711,0.94-1.997,0.661L130.703,224.499z"/>
			<g>
				<path style="fill:#263238;" d="M126.282,223.518c-0.038,0.601-0.393,1.068-0.794,1.044c-0.401-0.025-0.695-0.533-0.658-1.134
					c0.038-0.601,0.393-1.068,0.794-1.043C126.025,222.409,126.32,222.916,126.282,223.518z"/>
				<path style="fill:#263238;" d="M125.455,222.402l1.34-0.431C126.795,221.971,126.075,223.031,125.455,222.402z"/>
			</g>
			<g>
				<path style="fill:#263238;" d="M133.766,223.859c-0.038,0.601-0.393,1.069-0.794,1.044c-0.401-0.025-0.696-0.533-0.658-1.134
					c0.038-0.601,0.393-1.069,0.794-1.044C133.508,222.75,133.803,223.258,133.766,223.859z"/>
				<path style="fill:#263238;" d="M132.939,222.743l1.34-0.431C134.278,222.312,133.559,223.372,132.939,222.743z"/>
			</g>
			
				<path style="fill:none;stroke:#263238;stroke-width:0.7247;stroke-linecap:round;stroke-linejoin:round;stroke-miterlimit:10;" d="
				M126.642,218.466c0,0-2.03-0.443-3.263,0.832"/>
			
				<path style="fill:none;stroke:#263238;stroke-width:0.7247;stroke-linecap:round;stroke-linejoin:round;stroke-miterlimit:10;" d="
				M131.979,218.614c0,0,1.331-0.367,2.86,0.851"/>
			<path style="fill:#263238;" d="M117.138,224.625c0,0,3.931-5.709,3.812-10.387c0,0,14.985-4.671,14.438,10.085
				c0,0,2.536-12.927-9.998-14.296c-12.514-1.368-14.059,17.008-8.043,23.04C117.347,233.066,114.703,228.197,117.138,224.625z"/>
			<path style="fill:#E4897B;" d="M118.199,226.27c0.052-1.181-0.991-3.276-3.199-3.225c-2.285,0.053-3.763,4.608,1.772,6.209
				C117.567,229.483,118.09,228.733,118.199,226.27z"/>
			<g>
				<path style="fill:#263238;" d="M130.981,231.351c-0.525,0.828-1.149,2.428-1.149,2.428c-0.155-0.03-0.311-0.061-0.464-0.099
					c-2.094-0.465-2.912-1.373-3.183-2.238c-0.147-0.474-0.124-0.939-0.057-1.308c0.073-0.427,0.222-0.715,0.222-0.715
					c0.963,0.91,2.881,1.494,3.919,1.763C130.703,231.299,130.981,231.351,130.981,231.351z"/>
				<path style="fill:#FFFFFF;" d="M130.27,231.181l-0.357,0.707c-1.971-0.443-3.3-1.02-3.784-1.755
					c0.073-0.427,0.222-0.715,0.222-0.715C127.313,230.328,129.232,230.912,130.27,231.181z"/>
				<path style="fill:#DE5753;" d="M129.368,233.68c-2.094-0.465-2.912-1.373-3.183-2.238c0.707,0.186,1.54,0.489,2.223,0.978
					C128.932,232.791,129.212,233.247,129.368,233.68z"/>
			</g>
			<path style="fill:#263238;" d="M125.982,213.536c0,0-3.976,11.768-11.532,10.964c-7.556-0.804,5.432-15.021,5.432-15.021
				s12.753-3.6,18.284,3.484c5.531,7.084-2.778,11.361-2.778,11.361S136.654,215.054,125.982,213.536z"/>
			<path style="fill:none;stroke:#263238;stroke-width:0.5;stroke-linecap:round;stroke-linejoin:round;stroke-miterlimit:10;" d="
				M125.982,212.676c0,0,0.188,8.285-6.048,10.651"/>
		</g>
		<polygon style="fill:#407BFF;" points="117.509,242.553 120.99,248.049 116.626,255.631 113.466,245.898 		"/>
		<polygon style="fill:#407BFF;" points="124.9,243.603 124.9,248.313 130.051,254.002 128.369,245.832 		"/>
		<path style="fill:#263238;" d="M203.675,393.363c-0.86-0.396-1.785-0.631-2.73-0.694l0,0c0,0-3.267-1.923-6.505-9.393
			l-3.641-0.021c-1.261,0.014-2.378,0.815-2.797,2.004c-0.06,0.162-0.095,0.332-0.103,0.504c0.037,0.88,0.13,1.756,0.28,2.624
			c0.328,2.724,2.129,8.566,2.129,8.566l0.617-0.157l-1.122-5.433c-0.373-1.846,1.567-0.063,2.466,1.799
			c0.899,1.861,2.28,3.735,6.301,2.816C203.255,394.881,205.144,394.206,203.675,393.363z"/>
		<path style="fill:#E4897B;" d="M193.781,381.319c0,0,4.546,9.514,7.164,11.351c0,0-3.51,2.093-7.164-2.565
			c-4.726-6.024-5.882-4.341-5.882-4.341s0.2-2.061,0.569-3.07C189.178,380.749,193.781,381.319,193.781,381.319z"/>
		<path style="fill:#263238;" d="M153.593,416.032c-0.742-0.588-1.585-1.036-2.488-1.321l0,0c0,0-2.718-2.643-4.092-10.668
			l-3.532-0.884c-1.228-0.285-2.503,0.228-3.193,1.283c-0.096,0.143-0.171,0.3-0.22,0.465c-0.173,0.863-0.29,1.737-0.35,2.616
			c-0.328,2.724,0.036,8.827,0.036,8.827l0.637-0.006l0.199-5.544c0.076-1.882,1.537,0.31,1.969,2.332
			c0.432,2.022,1.329,4.169,5.454,4.23C152.826,417.407,154.82,417.199,153.593,416.032z"/>
		<path style="fill:#E4897B;" d="M146.838,401.985c0,0,2.16,10.321,4.268,12.726c0,0-3.906,1.201-6.352-4.191
			c-3.162-6.973-4.685-5.613-4.685-5.613s0.683-1.955,1.281-2.848C142.501,400.339,146.838,401.985,146.838,401.985z"/>
		<path style="fill:#263238;" d="M112.549,245.451c0,0,8.872,26.349-3.625,56.268l-12.144-1.582l7.514-17.034l-1.646-34.244
			L112.549,245.451z"/>
		<path style="fill:#263238;" d="M129.368,246.387c0,0,4.063,6.544,3.57,26.417l2.456,28.124l2.352-1.671l-1.924-13.714
			c0,0,5.128-24.152,2.816-35.022L129.368,246.387z"/>
		<g>
			<path style="fill:#263238;" d="M126.462,243.603c0,0,6.891,3.622,10.412,8.567l-2.572,2.374l3.444,5.044l-4.807,13.217
				C132.939,272.804,130.332,247.992,126.462,243.603z"/>
			<path style="opacity:0.2;fill:#FFFFFF;enable-background:new    ;" d="M126.462,243.603c0,0,6.891,3.622,10.412,8.567
				l-2.572,2.374l3.444,5.044l-4.807,13.217C132.939,272.804,130.332,247.992,126.462,243.603z"/>
		</g>
		<g>
			<path style="fill:#263238;" d="M114.582,243.711c0,0,3.159,18.052,0.739,30.513l-7.563-17.131l4.33-4.163l-5.77-4.124
				C106.319,248.807,109.736,245.143,114.582,243.711z"/>
			<path style="opacity:0.2;fill:#FFFFFF;enable-background:new    ;" d="M114.582,243.711c0,0,3.159,18.052,0.739,30.513
				l-7.563-17.131l4.33-4.163l-5.77-4.124C106.319,248.807,109.736,245.143,114.582,243.711z"/>
		</g>
		<path style="fill:#E4897B;" d="M123.53,275.434l10.232,0.712c0,0,1.433-0.954,2.679-1.253c1.245-0.298,8.523-1.097,9.835-0.579
			c1.312,0.519,2.506,4.814,2.386,5.709c-0.119,0.895-11.116,1.187-11.464,1.22c-0.348,0.033-1.595-1.135-1.595-1.135l-12.074-0.119
			V275.434z"/>
		<path style="fill:#263238;" d="M102.648,248.859c-6.659,4.002-10.286,25.552-5.868,28.921c4.418,3.369,34.79,3.464,34.79,3.464
			l0.998-6.421c0,0-26.088-2.609-27.414-5.147c-1.326-2.538-0.86-12.527-0.86-12.527L102.648,248.859z"/>
	</g>
</g>
<g id="Table">
	<g>
		<g>
			<g>
				<polygon style="fill:#263238;" points="220.442,417.366 225.711,417.366 235.18,285.544 228.188,285.544 				"/>
				<polygon style="opacity:0.7;fill:#FFFFFF;enable-background:new    ;" points="220.439,417.366 225.711,417.366 
					234.718,292.091 235.182,285.756 228.189,285.756 227.81,292.091 				"/>
				<polygon style="opacity:0.2;enable-background:new    ;" points="227.81,291.777 234.718,291.777 235.182,285.756 
					228.189,285.756 				"/>
			</g>
			<g>
				<polygon style="fill:#263238;" points="181.768,417.366 187.038,417.366 187.898,285.544 180.907,285.544 				"/>
				<polygon style="opacity:0.7;fill:#FFFFFF;enable-background:new    ;" points="180.904,285.756 181.041,307.024 
					181.764,417.366 187.037,417.366 187.759,307.024 187.897,285.756 				"/>
				<polygon style="opacity:0.2;enable-background:new    ;" points="180.904,285.756 181.041,307.261 187.759,307.261 
					187.897,285.756 				"/>
			</g>
			<g>
				<polygon style="fill:#263238;" points="125.82,417.366 131.089,417.366 140.558,285.544 133.566,285.544 				"/>
				<polygon style="opacity:0.7;fill:#FFFFFF;enable-background:new    ;" points="125.817,417.366 131.089,417.366 
					140.096,292.091 140.56,285.756 133.567,285.756 133.188,292.091 				"/>
				<polygon style="opacity:0.2;enable-background:new    ;" points="133.188,291.777 140.096,291.777 140.56,285.756 
					133.567,285.756 				"/>
			</g>
			<g>
				<polygon style="fill:#263238;" points="280.726,417.366 285.996,417.366 278.249,285.544 271.258,285.544 				"/>
				<polygon style="opacity:0.7;fill:#FFFFFF;enable-background:new    ;" points="271.259,285.756 271.723,292.091 280.73,417.366 
					285.994,417.366 278.631,292.091 278.252,285.756 				"/>
				<polygon style="opacity:0.2;enable-background:new    ;" points="278.252,285.756 271.259,285.756 271.723,291.777 
					278.631,291.777 				"/>
			</g>
			<g>
				<path style="fill:#407BFF;" d="M130.187,288.845h151.442c1.194,0,2.162-0.968,2.162-2.162v-4.44H128.025v4.44
					C128.025,287.877,128.993,288.845,130.187,288.845z"/>
				<path style="opacity:0.6;fill:#FFFFFF;enable-background:new    ;" d="M130.187,288.845h151.442
					c1.194,0,2.162-0.968,2.162-2.162v-4.44H128.025v4.44C128.025,287.877,128.993,288.845,130.187,288.845z"/>
			</g>
			
				<rect x="128.025" y="282.242" transform="matrix(-1 -1.224647e-16 1.224647e-16 -1 411.8155 567.786)" style="opacity:0.2;enable-background:new    ;" width="155.766" height="3.301"/>
			<g>
				<path style="fill:#407BFF;" d="M124.758,283.103h162.299c1.027,0,1.86-0.833,1.86-1.86l0,0c0-1.027-0.833-1.86-1.86-1.86
					H124.758c-1.027,0-1.86,0.833-1.86,1.86l0,0C122.899,282.27,123.731,283.103,124.758,283.103z"/>
				<path style="opacity:0.6;fill:#FFFFFF;enable-background:new    ;" d="M124.758,283.103h162.299c1.027,0,1.86-0.833,1.86-1.86
					l0,0c0-1.027-0.833-1.86-1.86-1.86H124.758c-1.027,0-1.86,0.833-1.86,1.86l0,0C122.899,282.27,123.731,283.103,124.758,283.103z
					"/>
			</g>
		</g>
		<g>
			<g>
				<polygon style="fill:#263238;" points="220.499,279.383 219.65,276.175 184.768,276.175 168.705,277.779 168.093,279.383 				
					"/>
				<polygon style="opacity:0.4;enable-background:new    ;" points="184.768,276.175 184.768,279.383 220.499,279.383 
					219.65,276.175 				"/>
			</g>
			<g>
				<path style="fill:#263238;" d="M191.775,260.816c-0.155,1.694,1.084,3.071,2.77,3.071h53.436c1.695,0,3.191-1.376,3.346-3.071
					l3.174-34.21c0.035-0.353,0.009-0.688-0.069-0.998c-0.301-1.204-1.359-2.073-2.701-2.073h-53.435
					c-1.695,0-3.191,1.376-3.346,3.071L191.775,260.816z"/>
				<path style="opacity:0.4;enable-background:new    ;" d="M194.734,263.887h53.246c1.695,0,3.191-1.376,3.346-3.071l3.174-34.21
					c0.035-0.353,0.009-0.688-0.069-0.998h-53.246c-1.686,0-3.183,1.376-3.346,3.071l-3.174,34.21
					C194.631,263.242,194.657,263.578,194.734,263.887z"/>
				<polygon style="fill:#263238;" points="231.446,242.905 220.391,242.905 223.338,274.555 205.857,277.179 205.857,279.383 
					242.674,279.383 242.674,277.179 235.132,274.555 				"/>
				<polygon style="opacity:0.1;fill:#FFFFFF;enable-background:new    ;" points="220.391,242.905 228.581,278.881 
					235.132,278.686 231.446,242.905 				"/>
			</g>
			<rect x="224.165" y="221.214" style="fill:#263238;" width="2.126" height="3.709"/>
			<path style="fill:#263238;" d="M224.165,221.065h-2.571c0,0-0.371-0.618-0.371-1.681c0-1.113,0.371-1.681,0.371-1.681h2.571
				V221.065z"/>
			<path style="fill:#263238;" d="M228.546,219.236c0,1.711-1.387,3.099-3.099,3.099c-1.712,0-3.099-1.387-3.099-3.099
				c0-1.711,1.387-3.099,3.099-3.099C227.158,216.137,228.546,217.524,228.546,219.236z"/>
			<path style="opacity:0.1;fill:#FFFFFF;enable-background:new    ;" d="M228.546,219.236c0,1.711-1.387,3.099-3.099,3.099
				c-1.712,0-3.099-1.387-3.099-3.099c0-1.711,1.387-3.099,3.099-3.099C227.158,216.137,228.546,217.524,228.546,219.236z"/>
			<g>
				<path style="fill:#263238;" d="M263.23,255.492v23.89h-11.91c0-10.94,2.38-20.68,3.47-24.55c0.3-1.05,1.25-1.77,2.34-1.77h3.67
					C262.14,253.061,263.23,254.152,263.23,255.492z"/>
				<path style="opacity:0.4;enable-background:new    ;" d="M263.23,255.491v23.89h-5.96v-23.011c0-1.828,1.482-3.309,3.309-3.309
					h0.221C262.142,253.061,263.23,254.149,263.23,255.491z"/>
			</g>
			<g>
				<path style="fill:#263238;" d="M187.23,255.492v23.89h-11.91c0-10.94,2.38-20.68,3.47-24.55c0.3-1.05,1.25-1.77,2.34-1.77h3.67
					C186.14,253.061,187.23,254.152,187.23,255.492z"/>
				<path style="opacity:0.4;enable-background:new    ;" d="M187.23,255.491v23.89h-5.96v-23.011c0-1.828,1.482-3.309,3.309-3.309
					h0.221C186.142,253.061,187.23,254.149,187.23,255.491z"/>
			</g>
		</g>
	</g>
</g>
</svg>
