<?xml version="1.0" encoding="utf-8"?>
<!-- Generator: Adobe Illustrator 27.5.0, SVG Export Plug-In . SVG Version: 6.00 Build 0)  -->
<svg version="1.1" xmlns="http://www.w3.org/2000/svg" xmlns:xlink="http://www.w3.org/1999/xlink" x="0px" y="0px"
	 viewBox="0 0 500 500" style="enable-background:new 0 0 500 500;" xml:space="preserve">
<g id="Floor">
	<path style="fill:#F5F5F5;" d="M415.943,251.08c-92.248-53.26-241.324-53.259-332.972,0.001
		c-91.654,53.264-91.168,139.614,1.08,192.873c92.254,53.263,241.33,53.262,332.984-0.002
		C508.683,390.693,508.197,304.342,415.943,251.08z"/>
</g>
<g id="Shadows_1_">
	<path style="fill:#E0E0E0;" d="M38.805,341.354c6.54-3.776,17.107-3.775,23.604,0c6.497,3.776,6.463,9.897-0.077,13.673
		c-6.54,3.776-17.108,3.776-23.605,0C32.231,351.251,32.265,345.13,38.805,341.354z"/>
	<path style="fill:#E0E0E0;" d="M377.547,397.134c-18.265-10.545-47.781-10.545-65.927,0c-18.147,10.546-18.051,27.643,0.214,38.188
		c18.266,10.546,47.782,10.546,65.929,0C395.91,424.777,395.813,407.68,377.547,397.134z"/>
	<path style="fill:#E0E0E0;" d="M431.592,317.137c6.858-3.959,17.94-3.959,24.754,0c6.814,3.96,6.778,10.379-0.08,14.339
		c-6.858,3.96-17.941,3.96-24.755,0C424.697,327.516,424.733,321.097,431.592,317.137z"/>
	<path style="fill:#E0E0E0;" d="M304.154,247.428l-13.55-7.811c-4.238-2.443-9.458-2.441-13.694,0.006l-75.17,43.564l-6.632-3.818
		l-54.414,31.837l6.281,3.618l-88.98,51.373c-3.044,1.758-3.044,6.151,0,7.909l13.693,7.906c4.241,2.449,9.468,2.447,13.707-0.005
		l88.928-51.431l10.393,5.986c8.473,4.88,18.905,4.875,27.373-0.014l31.967-18.456c4.062-2.345,4.058-8.209-0.007-10.549
		l-14.985-8.626l12.621-7.324l4.375-2.539l58.1-33.717C307.203,253.577,307.2,249.184,304.154,247.428z"/>
</g>
<g id="Window">
	<g>
		<g>
			<g>
				<g>
					<g>
						<g style="enable-background:new    ;">
							<g>
								<polygon style="fill:#F0F0F0;" points="380.411,78.471 383.398,76.735 383.223,183.261 380.236,184.996 								"/>
							</g>
							<g>
								<polygon style="fill:#F5F5F5;" points="380.236,184.996 383.223,183.261 417.608,202.999 414.621,204.734 								"/>
							</g>
							<g>
								<path style="fill:#E0E0E0;" d="M376.986,72.538l41.258,23.706l-0.197,114.423l-41.258-23.706L376.986,72.538z
									 M414.621,204.734l0.175-106.526l-34.385-19.738l-0.175,106.525L414.621,204.734"/>
							</g>
							<g>
								<polygon style="fill:#F5F5F5;" points="376.986,72.538 379.973,70.802 421.231,94.508 418.244,96.244 								"/>
							</g>
							<g>
								<polygon style="fill:#F0F0F0;" points="418.244,96.244 421.231,94.508 421.033,208.931 418.047,210.667 								"/>
							</g>
						</g>
					</g>
				</g>
				<g>
					<polygon style="fill:#F5F5F5;" points="380.242,111.649 383.229,109.913 414.796,128.07 414.796,131.524 					"/>
					<polygon style="fill:#E0E0E0;" points="380.242,111.649 380.242,111.649 380.242,111.649 414.796,131.524 414.796,135.468 
						380.236,115.612 					"/>
					
						<rect x="397.519" y="101.655" transform="matrix(0.4986 -0.8668 0.8668 0.4986 93.9248 405.5495)" style="fill:#E0E0E0;" width="0" height="39.862"/>
				</g>
			</g>
			<g>
				<g>
					<g>
						<g style="enable-background:new    ;">
							<g>
								<polygon style="fill:#F0F0F0;" points="418.244,100.212 421.231,98.476 421.056,205.002 418.069,206.738 								"/>
							</g>
							<g>
								<polygon style="fill:#F5F5F5;" points="418.069,206.738 421.056,205.002 455.441,224.74 452.454,226.476 								"/>
							</g>
							<g>
								<path style="fill:#E0E0E0;" d="M414.819,94.28l41.258,23.706l-0.198,114.423l-41.258-23.706L414.819,94.28z
									 M452.454,226.476l0.175-106.526l-34.385-19.738l-0.175,106.525L452.454,226.476"/>
							</g>
							<g>
								<polygon style="fill:#F5F5F5;" points="414.819,94.28 417.806,92.544 459.064,116.25 456.077,117.985 								"/>
							</g>
							<g>
								<polygon style="fill:#F0F0F0;" points="456.077,117.985 459.064,116.25 458.866,230.672 455.88,232.408 								"/>
							</g>
						</g>
					</g>
				</g>
				<g>
					<polygon style="fill:#F5F5F5;" points="418.075,133.39 421.062,131.654 452.629,149.811 452.629,153.265 					"/>
					<polygon style="fill:#E0E0E0;" points="418.075,133.39 418.075,133.39 418.075,133.39 452.629,153.265 452.629,157.21 
						418.069,137.353 					"/>
					
						<rect x="435.352" y="123.396" transform="matrix(0.4986 -0.8668 0.8668 0.4986 94.049 449.2462)" style="fill:#E0E0E0;" width="0" height="39.862"/>
				</g>
			</g>
		</g>
		<g>
			<g>
				<g>
					<g>
						<g style="enable-background:new    ;">
							<g>
								<polygon style="fill:#F0F0F0;" points="288.161,25.342 291.148,23.606 290.973,130.132 287.986,131.867 								"/>
							</g>
							<g>
								<polygon style="fill:#F5F5F5;" points="287.986,131.867 290.973,130.132 325.358,149.869 322.371,151.605 								"/>
							</g>
							<g>
								<path style="fill:#E0E0E0;" d="M284.736,19.409l41.258,23.706l-0.197,114.423l-41.258-23.706L284.736,19.409z
									 M322.371,151.605l0.175-106.526l-34.385-19.738l-0.175,106.525L322.371,151.605"/>
							</g>
							<g>
								<polygon style="fill:#F5F5F5;" points="284.736,19.409 287.723,17.673 328.981,41.379 325.994,43.115 								"/>
							</g>
							<g>
								<polygon style="fill:#F0F0F0;" points="325.994,43.115 328.981,41.379 328.783,155.802 325.797,157.538 								"/>
							</g>
						</g>
					</g>
				</g>
				<g>
					<polygon style="fill:#F5F5F5;" points="287.992,58.52 290.979,56.784 322.546,74.941 322.546,78.394 					"/>
					<polygon style="fill:#E0E0E0;" points="287.992,58.52 287.992,58.52 287.992,58.52 322.546,78.394 322.546,82.339 
						287.986,62.482 					"/>
					
						<rect x="305.269" y="48.526" transform="matrix(0.4986 -0.8668 0.8668 0.4986 93.7238 298.9439)" style="fill:#E0E0E0;" width="0" height="39.862"/>
				</g>
			</g>
			<g>
				<g>
					<g>
						<g style="enable-background:new    ;">
							<g>
								<polygon style="fill:#F0F0F0;" points="325.994,47.083 328.981,45.347 328.806,151.873 325.819,153.608 								"/>
							</g>
							<g>
								<polygon style="fill:#F5F5F5;" points="325.819,153.608 328.806,151.873 363.191,171.611 360.204,173.346 								"/>
							</g>
							<g>
								<path style="fill:#E0E0E0;" d="M322.569,41.15l41.258,23.706l-0.198,114.423l-41.258-23.706L322.569,41.15z
									 M360.204,173.346l0.175-106.526l-34.385-19.738l-0.175,106.525L360.204,173.346"/>
							</g>
							<g>
								<polygon style="fill:#F5F5F5;" points="322.569,41.15 325.556,39.414 366.814,63.12 363.827,64.856 								"/>
							</g>
							<g>
								<polygon style="fill:#F0F0F0;" points="363.827,64.856 366.814,63.12 366.616,177.543 363.63,179.279 								"/>
							</g>
						</g>
					</g>
				</g>
				<g>
					<polygon style="fill:#F5F5F5;" points="325.825,80.26 328.812,78.525 360.379,96.682 360.379,100.135 					"/>
					<polygon style="fill:#E0E0E0;" points="325.825,80.26 325.825,80.26 325.825,80.261 360.379,100.135 360.379,104.08 
						325.819,84.223 					"/>
					
						<rect x="343.102" y="70.267" transform="matrix(0.4986 -0.8668 0.8668 0.4986 93.8483 342.6408)" style="fill:#E0E0E0;" width="0" height="39.862"/>
				</g>
			</g>
		</g>
	</g>
</g>
<g id="Plant">
	<g>
		<g>
			<path style="fill:#FFFFFF;" d="M34.736,319.629l15.833,0.461l15.833-0.461c0.682,10.692-1.406,21.589-4.284,26.912l-0.011-0.002
				c-0.515,1.168-1.551,2.276-3.134,3.189c-4.672,2.697-12.222,2.697-16.863,0c-1.609-0.935-2.644-2.073-3.132-3.272
				C36.122,341.105,34.057,330.268,34.736,319.629z"/>
			<g>
				<path style="fill:#EBEBEB;" d="M39.41,313.144c-6.204,3.582-6.236,9.388-0.073,12.97c6.163,3.582,16.188,3.582,22.392,0
					c6.203-3.582,6.236-9.388,0.073-12.97C55.638,309.563,45.613,309.562,39.41,313.144z"/>
			</g>
			<g>
				<path style="fill:#E0E0E0;" d="M41.863,314.569c-4.84,2.794-4.865,7.325-0.057,10.119c4.808,2.794,12.629,2.794,17.469,0
					c4.84-2.794,4.865-7.324,0.057-10.119C54.523,311.775,46.702,311.775,41.863,314.569z"/>
			</g>
			<g style="opacity:0.15;">
				<path d="M41.863,314.569c-4.84,2.794-4.865,7.325-0.057,10.119c4.808,2.794,12.629,2.794,17.469,0
					c4.84-2.794,4.865-7.324,0.057-10.119C54.523,311.775,46.702,311.775,41.863,314.569z"/>
			</g>
		</g>
		<g>
			<path style="fill:#BA68C8;" d="M24.537,252.066c35.681,11.683,36.004,35.553,27.96,52.552
				c-2.029,3.441-8.168,5.289-13.512-15.852l9.372,1.202l-10.922-5.536l-2.837-8.48l9.106,0.676l-11.559-4.862
				C27.888,258.885,24.537,252.066,24.537,252.066z"/>
			<path style="opacity:0.2;" d="M24.537,252.066c35.681,11.683,36.004,35.553,27.96,52.552c-2.029,3.441-8.168,5.289-13.512-15.852
				l9.372,1.202l-10.922-5.536l-2.837-8.48l9.106,0.676l-11.559-4.862C27.888,258.885,24.537,252.066,24.537,252.066z"/>
			<path style="opacity:0.2;fill:#FFFFFF;" d="M24.537,252.066c35.681,11.683,36.004,35.553,27.96,52.552
				c-2.029,3.441-8.168,5.289-13.512-15.852l9.372,1.202l-10.922-5.536l-2.837-8.48l9.106,0.676l-11.559-4.862
				C27.888,258.885,24.537,252.066,24.537,252.066z"/>
			<path style="fill:#FFFFFF;" d="M34.629,258.035c18.816,14.281,20.515,30.654,15.199,47.746
				C51.708,290.731,53.741,275.513,34.629,258.035z"/>
		</g>
		<g>
			<path style="fill:#BA68C8;" d="M84.971,276.314C49.8,281.266,45.533,303.443,50.2,320.61c1.318,3.542,6.728,6.283,15.217-12.518
				l-8.928-0.438l11.091-3.341l4.051-7.426l-8.593-0.883l11.573-2.607C80.717,282.107,84.971,276.314,84.971,276.314z"/>
			<path style="opacity:0.2;fill:#FFFFFF;" d="M84.971,276.314C49.8,281.266,45.533,303.443,50.2,320.61
				c1.318,3.542,6.728,6.283,15.217-12.518l-8.928-0.438l11.091-3.341l4.051-7.426l-8.593-0.883l11.573-2.607
				C80.717,282.107,84.971,276.314,84.971,276.314z"/>
			<path style="opacity:0.1;" d="M84.971,276.314C49.8,281.266,45.533,303.443,50.2,320.61c1.318,3.542,6.728,6.283,15.217-12.518
				l-8.928-0.438l11.091-3.341l4.051-7.426l-8.593-0.883l11.573-2.607C80.717,282.107,84.971,276.314,84.971,276.314z"/>
			<path style="fill:#FFFFFF;" d="M74.58,280.196c-19.896,10.174-24.199,25.14-22.088,41.942
				C53.242,307.808,53.878,293.298,74.58,280.196z"/>
		</g>
		<g>
			<path style="fill:#BA68C8;" d="M14.243,284.624c32.254,0.527,38.582,20.038,36.297,36.033c-0.791,3.34-5.361,6.416-15.116-9.58
				l7.998-1.394l-10.37-1.77l-4.482-6.24l7.646-1.758l-10.722-1.055C18.725,289.37,14.243,284.624,14.243,284.624z"/>
			<path style="fill:#FFFFFF;" d="M24.043,286.961c19.071,6.943,24.624,19.95,24.602,35.33
				C46.366,309.46,44.169,296.452,24.043,286.961z"/>
			<path style="opacity:0.2;fill:#FFFFFF;" d="M14.243,284.624c32.254,0.527,38.582,20.038,36.297,36.033
				c-0.791,3.34-5.361,6.416-15.116-9.58l7.998-1.394l-10.37-1.77l-4.482-6.24l7.646-1.758l-10.722-1.055
				C18.725,289.37,14.243,284.624,14.243,284.624z"/>
		</g>
	</g>
	<g>
		<g>
			<path style="fill:#FFFFFF;" d="M427.324,294.354l16.604,0.484l16.604-0.484c0.715,11.213-1.474,22.64-4.492,28.222l-0.012-0.002
				c-0.54,1.225-1.627,2.387-3.287,3.345c-4.899,2.829-12.817,2.829-17.684,0c-1.688-0.981-2.773-2.174-3.285-3.431
				C428.777,316.876,426.612,305.512,427.324,294.354z"/>
			<g>
				<path style="fill:#EBEBEB;" d="M432.226,287.553c-6.506,3.756-6.54,9.845-0.077,13.601c6.463,3.756,16.976,3.756,23.482,0
					c6.505-3.756,6.539-9.845,0.076-13.601C449.244,283.798,438.731,283.797,432.226,287.553z"/>
			</g>
			<g>
				<path style="fill:#E0E0E0;" d="M434.798,289.048c-5.076,2.931-5.102,7.681-0.06,10.612c5.043,2.93,13.244,2.931,18.32,0
					c5.075-2.93,5.102-7.681,0.059-10.611C448.075,286.118,439.874,286.118,434.798,289.048z"/>
			</g>
			<g style="opacity:0.15;">
				<path d="M434.798,289.048c-5.076,2.931-5.102,7.681-0.06,10.612c5.043,2.93,13.244,2.931,18.32,0
					c5.075-2.93,5.102-7.681,0.059-10.611C448.075,286.118,439.874,286.118,434.798,289.048z"/>
			</g>
		</g>
		<g>
			<path style="fill:#BA68C8;" d="M452.397,260.374c2.7-3.357,5.837-6.365,8.313-9.891c1.689-2.406,3.102-5.35,2.391-8.202
				c-0.659-2.646-3.132-4.615-5.813-5.117c-2.681-0.502-5.487,0.3-7.803,1.741c-2.316,1.441-4.198,3.48-5.897,5.613
				c-9.29,11.659-13.816,27.006-12.339,41.841c0.169,1.701,0.454,3.489,1.541,4.808c1.165,1.415,3.206,2.038,4.963,1.517
				c4.523-1.342,3.923-7.452,4.663-11.047c1.013-4.926,2.773-9.699,5.195-14.106C448.995,265.013,450.596,262.614,452.397,260.374z"
				/>
			<path style="opacity:0.2;fill:#FFFFFF;" d="M452.397,260.374c2.7-3.357,5.837-6.365,8.313-9.891
				c1.689-2.406,3.102-5.35,2.391-8.202c-0.659-2.646-3.132-4.615-5.813-5.117c-2.681-0.502-5.487,0.3-7.803,1.741
				c-2.316,1.441-4.198,3.48-5.897,5.613c-9.29,11.659-13.816,27.006-12.339,41.841c0.169,1.701,0.454,3.489,1.541,4.808
				c1.165,1.415,3.206,2.038,4.963,1.517c4.523-1.342,3.923-7.452,4.663-11.047c1.013-4.926,2.773-9.699,5.195-14.106
				C448.995,265.013,450.596,262.614,452.397,260.374z"/>
			<g>
				<path style="fill:#F0F0F0;" d="M437.472,288.131c0.175-0.035,0.311-0.185,0.319-0.371c0.317-7.261,2.677-32.044,19.757-46.106
					c0.169-0.139,0.193-0.389,0.054-0.557c-0.139-0.169-0.388-0.192-0.557-0.054c-17.332,14.27-19.724,39.339-20.045,46.682
					c-0.009,0.218,0.161,0.403,0.378,0.413C437.41,288.139,437.441,288.137,437.472,288.131z"/>
			</g>
			<g>
				<path style="fill:#BA68C8;" d="M434.976,288.917c0.517,2.85,2.965,6.377,5.546,7.691c2.559,1.302,5.529,1.651,8.392,1.405
					c2.915-0.251,5.746-1.087,8.519-2.02c1.369-0.461,2.892-1.083,3.037-2.78c0.077-0.895-0.325-1.762-0.969-2.389
					c-0.27-0.263-0.567-0.519-0.884-0.761c-0.645-0.492-0.342-1.517,0.467-1.572c0.815-0.056,1.626-0.147,2.428-0.3
					c1.854-0.354,3.679-1.061,5.097-2.306c1.065-0.935,1.872-2.154,2.354-3.487c0.412-1.141,0.528-2.572-0.336-3.423
					c-0.496-0.488-1.208-0.674-1.888-0.821c-0.607-0.131-1.216-0.243-1.826-0.338c-0.811-0.126-0.946-1.233-0.188-1.549l2.576-1.073
					c0.715-0.298,1.46-0.617,1.955-1.214c0.789-0.951,0.732-2.336,0.496-3.548c-0.315-1.613-0.872-3.168-1.251-4.766
					c-0.38-1.599-0.579-3.286-0.17-4.877c-4.81-0.487-9.752-0.258-14.429,0.963c-1.397,0.365-2.81,0.822-3.938,1.724
					c-1.606,1.285-2.024,3.214-1.854,5.304c0.032,0.396-0.512,0.546-0.702,0.197l-1.646-3.035c-0.496-0.914-1.618-1.259-2.559-0.818
					c-1.42,0.667-2.688,1.734-3.764,2.96c-1.16,1.322-1.753,3.064-1.611,4.818c0.192,2.371,0.606,4.772,1.2,7.073
					c0.156,0.603-0.52,1.056-1.024,0.692l-0.078-0.057c-0.45-0.325-1.001-0.52-1.552-0.452c-1.455,0.181-1.827,1.655-1.923,2.91
					C434.311,284.884,434.633,287.026,434.976,288.917z"/>
				<path style="opacity:0.2;" d="M434.976,288.917c0.517,2.85,2.965,6.377,5.546,7.691c2.559,1.302,5.529,1.651,8.392,1.405
					c2.915-0.251,5.746-1.087,8.519-2.02c1.369-0.461,2.892-1.083,3.037-2.78c0.077-0.895-0.325-1.762-0.969-2.389
					c-0.27-0.263-0.567-0.519-0.884-0.761c-0.645-0.492-0.342-1.517,0.467-1.572c0.815-0.056,1.626-0.147,2.428-0.3
					c1.854-0.354,3.679-1.061,5.097-2.306c1.065-0.935,1.872-2.154,2.354-3.487c0.412-1.141,0.528-2.572-0.336-3.423
					c-0.496-0.488-1.208-0.674-1.888-0.821c-0.607-0.131-1.216-0.243-1.826-0.338c-0.811-0.126-0.946-1.233-0.188-1.549l2.576-1.073
					c0.715-0.298,1.46-0.617,1.955-1.214c0.789-0.951,0.732-2.336,0.496-3.548c-0.315-1.613-0.872-3.168-1.251-4.766
					c-0.38-1.599-0.579-3.286-0.17-4.877c-4.81-0.487-9.752-0.258-14.429,0.963c-1.397,0.365-2.81,0.822-3.938,1.724
					c-1.606,1.285-2.024,3.214-1.854,5.304c0.032,0.396-0.512,0.546-0.702,0.197l-1.646-3.035c-0.496-0.914-1.618-1.259-2.559-0.818
					c-1.42,0.667-2.688,1.734-3.764,2.96c-1.16,1.322-1.753,3.064-1.611,4.818c0.192,2.371,0.606,4.772,1.2,7.073
					c0.156,0.603-0.52,1.056-1.024,0.692l-0.078-0.057c-0.45-0.325-1.001-0.52-1.552-0.452c-1.455,0.181-1.827,1.655-1.923,2.91
					C434.311,284.884,434.633,287.026,434.976,288.917z"/>
				<path style="opacity:0.2;fill:#FFFFFF;" d="M434.976,288.917c0.517,2.85,2.965,6.377,5.546,7.691
					c2.559,1.302,5.529,1.651,8.392,1.405c2.915-0.251,5.746-1.087,8.519-2.02c1.369-0.461,2.892-1.083,3.037-2.78
					c0.077-0.895-0.325-1.762-0.969-2.389c-0.27-0.263-0.567-0.519-0.884-0.761c-0.645-0.492-0.342-1.517,0.467-1.572
					c0.815-0.056,1.626-0.147,2.428-0.3c1.854-0.354,3.679-1.061,5.097-2.306c1.065-0.935,1.872-2.154,2.354-3.487
					c0.412-1.141,0.528-2.572-0.336-3.423c-0.496-0.488-1.208-0.674-1.888-0.821c-0.607-0.131-1.216-0.243-1.826-0.338
					c-0.811-0.126-0.946-1.233-0.188-1.549l2.576-1.073c0.715-0.298,1.46-0.617,1.955-1.214c0.789-0.951,0.732-2.336,0.496-3.548
					c-0.315-1.613-0.872-3.168-1.251-4.766c-0.38-1.599-0.579-3.286-0.17-4.877c-4.81-0.487-9.752-0.258-14.429,0.963
					c-1.397,0.365-2.81,0.822-3.938,1.724c-1.606,1.285-2.024,3.214-1.854,5.304c0.032,0.396-0.512,0.546-0.702,0.197l-1.646-3.035
					c-0.496-0.914-1.618-1.259-2.559-0.818c-1.42,0.667-2.688,1.734-3.764,2.96c-1.16,1.322-1.753,3.064-1.611,4.818
					c0.192,2.371,0.606,4.772,1.2,7.073c0.156,0.603-0.52,1.056-1.024,0.692l-0.078-0.057c-0.45-0.325-1.001-0.52-1.552-0.452
					c-1.455,0.181-1.827,1.655-1.923,2.91C434.311,284.884,434.633,287.026,434.976,288.917z"/>
				<path style="fill:#F0F0F0;" d="M442.628,296.211c0.02-0.101,1.016-4.93,3.881-11.247c0-0.113,0.048-0.219,0.137-0.296
					c0.09-0.195,0.178-0.39,0.272-0.588c-0.823-7.555-3.814-12.825-3.844-12.877c-0.109-0.19-0.044-0.431,0.145-0.541
					c0.189-0.107,0.431-0.044,0.54,0.146c0.029,0.051,2.782,4.899,3.79,11.97c3.285-6.588,8.525-14.293,16.615-19.923
					c0.181-0.124,0.426-0.081,0.551,0.099c0.125,0.179,0.08,0.426-0.099,0.551c-8.344,5.807-13.611,13.857-16.81,20.538
					c6.52-3.174,13.446-1.919,13.754-1.861c0.214,0.04,0.355,0.247,0.315,0.463c-0.031,0.164-0.158,0.284-0.312,0.314
					c-0.048,0.009-0.099,0.01-0.15,0c-0.076-0.014-7.627-1.387-14.157,2.263c-2.843,6.254-3.831,11.042-3.851,11.142
					c-0.032,0.162-0.159,0.282-0.312,0.312c-0.049,0.01-0.101,0.01-0.153,0C442.725,296.633,442.585,296.425,442.628,296.211z"/>
			</g>
		</g>
	</g>
</g>
<g id="Screen">
	<g>
		<g>
			<g>
				<g>
					<g>
						<path style="fill:#BA68C8;" d="M232.978,309.8l-26.062,14.912c-7.626,4.363-16.995,4.349-24.608-0.039l-19.339-11.146
							c-2.293-1.322-3.707-3.765-3.711-6.412l-0.018-13.193l-4.034,2.332v11.467c0,3.092,1.651,5.948,4.329,7.492l22.961,13.233
							c7.495,4.32,16.72,4.334,24.229,0.038l26.252-15.021c3.92-2.243,5.512-6.51,4.787-10.411
							C237.266,305.741,235.68,308.254,232.978,309.8z"/>
						<path style="opacity:0.1;" d="M232.978,309.8l-26.062,14.912c-7.626,4.363-16.995,4.349-24.608-0.039l-19.339-11.146
							c-2.293-1.322-3.707-3.765-3.711-6.412l-0.018-13.193l-4.034,2.332v11.467c0,3.092,1.651,5.948,4.329,7.492l22.961,13.233
							c7.495,4.32,16.72,4.334,24.229,0.038l26.252-15.021c3.92-2.243,5.512-6.51,4.787-10.411
							C237.266,305.741,235.68,308.254,232.978,309.8z"/>
						<path style="fill:#BA68C8;" d="M162.969,313.528l19.339,11.146c7.612,4.387,16.982,4.402,24.608,0.039l26.062-14.912
							c2.702-1.546,4.288-4.058,4.787-6.746c-0.486-2.622-2.009-5.08-4.612-6.642l-21.382-12.825
							c-2.605-1.563-4.199-4.378-4.199-7.416v-3.665v-6.521l-48.332,27.939l0.018,13.193
							C159.262,309.763,160.676,312.206,162.969,313.528z"/>
					</g>
					<g>
						<path style="opacity:0.4;" d="M162.969,313.528c-2.293-1.322-3.707-3.765-3.711-6.412l-0.018-13.193l-4.034,2.332v11.467
							c0,3.092,1.651,5.948,4.329,7.492l8.146,4.695v-3.665L162.969,313.528z"/>
						<path style="opacity:0.3;" d="M162.969,313.528l4.712,2.716v0l50.458-28.837l-6.368-3.82
							c-2.605-1.563-4.199-4.378-4.199-7.416v-3.665v-6.521l-48.332,27.939l0.018,13.193
							C159.262,309.763,160.676,312.206,162.969,313.528z"/>
					</g>
				</g>
				<g>
					<path style="fill:#FFA8A7;" d="M77.545,346.367v-0.006c-0.018-0.009-0.038-0.016-0.056-0.026L77.545,346.367z"/>
					<path style="fill:#BA68C8;" d="M75.251,341.55L74.88,176.256c-0.013-4.691,3.286-10.412,7.374-12.773L287.717,45.162
						c2.029-1.172,3.871-1.291,5.213-0.539l-7.736-4.483l0.001,0.007c-1.354-0.858-3.26-0.787-5.375,0.434L74.357,158.902
						c-4.089,2.361-7.388,8.082-7.374,12.773l0.372,165.294c0.006,2.213,0.755,3.795,1.967,4.611l-0.001,0.001l0.009,0.005
						c0.133,0.089,0.27,0.168,0.414,0.239l7.63,4.444C76.068,345.486,75.258,343.858,75.251,341.55z"/>
					<path style="opacity:0.3;fill:#FFFFFF;" d="M285.194,40.14l0.001,0.007c-1.354-0.858-3.26-0.787-5.375,0.434L74.357,158.902
						c-2.272,1.312-4.299,3.663-5.65,6.298l7.904,4.569c1.351-2.629,3.374-4.975,5.643-6.285L287.717,45.162
						c2.029-1.172,3.871-1.291,5.213-0.539L285.194,40.14z"/>
					<path style="opacity:0.2;" d="M66.983,171.675l0.372,165.294c0.006,2.213,0.755,3.795,1.967,4.611l-0.001,0.001l0.009,0.005
						c0.133,0.089,0.27,0.168,0.414,0.239l7.63,4.444c-1.305-0.782-2.115-2.409-2.122-4.717L74.88,176.256
						c-0.006-2.088,0.647-4.379,1.731-6.488l-7.904-4.569C67.627,167.305,66.977,169.591,66.983,171.675z"/>
					<path style="fill:#FFA8A7;" d="M293.018,44.674l-0.038-0.022c0.013,0.007,0.023,0.017,0.036,0.024L293.018,44.674z"/>
					<path style="fill:#BA68C8;" d="M295.139,49.392c-0.007-2.308-0.818-3.935-2.124-4.716c-0.012-0.007-0.023-0.017-0.036-0.024
						c-0.016-0.009-0.033-0.019-0.049-0.028c-1.342-0.752-3.184-0.633-5.213,0.539L82.254,163.484
						c-4.089,2.361-7.388,8.082-7.374,12.773l0.372,165.294c0.007,2.308,0.816,3.935,2.122,4.717
						c0.038,0.023,0.076,0.046,0.116,0.068c0.018,0.01,0.038,0.017,0.056,0.026c1.333,0.701,3.138,0.569,5.129-0.581
						l205.463-118.321c4.082-2.357,7.388-8.082,7.374-12.773L295.139,49.392z M284.486,221.137L82.541,337.427l-0.36-161.191
						c-0.006-2.076,1.908-5.38,3.723-6.429L287.85,53.516l0.361,161.191C288.216,216.783,286.302,220.088,284.486,221.137z"/>
					<path style="fill:#BA68C8;" d="M287.85,53.516l-5.226,3.014l0.348,155.625c0.006,2.076-1.908,5.381-3.724,6.429L82.529,331.861
						l0.012,5.566l201.945-116.29c1.816-1.049,3.73-4.353,3.724-6.429L287.85,53.516z"/>
					<path style="opacity:0.3;" d="M287.85,53.516l-5.226,3.014l0.348,155.625c0.006,2.076-1.908,5.381-3.724,6.429L82.529,331.861
						l0.012,5.566l201.945-116.29c1.816-1.049,3.73-4.353,3.724-6.429L287.85,53.516z"/>
					<path style="fill:#263238;" d="M282.971,212.156l-0.348-155.625L85.904,169.807c-1.815,1.048-3.729,4.352-3.723,6.429
						l0.348,155.625l196.719-113.276C281.064,217.537,282.977,214.232,282.971,212.156z"/>
				</g>
			</g>
		</g>
		<g>
			<g>
				<g>
					<path style="fill:#455A64;" d="M106.383,349.905l-0.351-156.232c-0.013-4.434,3.105-9.841,6.97-12.073L307.201,69.765
						c1.918-1.107,3.659-1.22,4.927-0.509l-7.312-4.237l0,0.006c-1.28-0.811-3.082-0.744-5.08,0.41L105.538,177.269
						c-3.865,2.231-6.983,7.639-6.97,12.073l0.351,156.232c0.006,2.092,0.714,3.587,1.859,4.358l-0.001,0l0.008,0.005
						c0.125,0.084,0.256,0.159,0.391,0.225l7.211,4.2C107.155,353.624,106.39,352.086,106.383,349.905z"/>
					<path style="opacity:0.2;fill:#FFFFFF;" d="M304.816,65.019l0,0.006c-1.28-0.811-3.082-0.744-5.08,0.41L105.538,177.269
						c-2.148,1.24-4.063,3.462-5.34,5.952l7.471,4.318c1.277-2.485,3.189-4.702,5.334-5.94L307.201,69.765
						c1.918-1.107,3.659-1.22,4.927-0.509L304.816,65.019z"/>
				</g>
				<path style="opacity:0.1;fill:#FFFFFF;" d="M98.568,189.342l0.351,156.232c0.006,2.092,0.714,3.587,1.859,4.358l-0.001,0
					l0.008,0.005c0.125,0.084,0.256,0.159,0.391,0.225l7.211,4.2c-1.234-0.739-1.999-2.277-2.005-4.458l-0.351-156.232
					c-0.006-1.973,0.612-4.139,1.636-6.132l-7.471-4.318C99.177,185.212,98.562,187.372,98.568,189.342z"/>
			</g>
			<path style="fill:#455A64;" d="M106.052,202.729l0.331,147.175c0.006,2.181,0.772,3.72,2.005,4.458
				c0.036,0.022,0.072,0.043,0.109,0.064c0.017,0.009,0.036,0.016,0.053,0.025c1.26,0.663,2.966,0.538,4.848-0.549l194.199-111.835
				c3.858-2.227,6.982-7.639,6.97-12.073l-0.331-147.42L106.052,202.729z"/>
			<path style="fill:#455A64;" d="M116.066,208.497L304.276,99.87l0.292,130.148c-0.036,0.93-1.182,2.9-1.977,3.394L116.362,340.657
				L116.066,208.497z"/>
			<path style="opacity:0.2;fill:#FFFFFF;" d="M106.052,202.729l0.331,147.175c0.006,2.181,0.772,3.72,2.005,4.458
				c0.036,0.022,0.072,0.043,0.109,0.064c0.017,0.009,0.036,0.016,0.053,0.025c1.26,0.663,2.966,0.538,4.848-0.549l194.199-111.835
				c3.858-2.227,6.982-7.639,6.97-12.073l-0.331-147.42L106.052,202.729z"/>
			<g>
				<g>
					<g>
						<path style="fill:#455A64;" d="M306.181,92.371c1.799-1.039,3.268-0.207,3.274,1.866c0.006,2.073-1.454,4.595-3.253,5.634
							l-166.467,96.231c-1.799,1.039-3.268,0.207-3.274-1.866c-0.006-2.073,1.454-4.595,3.253-5.634L306.181,92.371z"/>
					</g>
					<g style="opacity:0.8;">
						<path style="fill:#FFFFFF;" d="M306.181,92.371c1.799-1.039,3.268-0.207,3.274,1.866c0.006,2.073-1.454,4.595-3.253,5.634
							l-166.467,96.231c-1.799,1.039-3.268,0.207-3.274-1.866c-0.006-2.073,1.454-4.595,3.253-5.634L306.181,92.371z"/>
					</g>
				</g>
				<g>
					<g>
						<g>
							<path style="fill:#455A64;" d="M115.26,204.411c0.079-0.045,0.158-0.059,0.221-0.029c0.134,0.063,0.145,0.297,0.021,0.522
								l-1.052,1.933l3.55-2.05c0.181-0.104,0.329-0.02,0.329,0.188c0.001,0.208-0.146,0.462-0.327,0.567l-3.55,2.05l1.059,0.714
								c0.124,0.082,0.115,0.327-0.018,0.544c-0.063,0.102-0.141,0.181-0.22,0.226c-0.09,0.052-0.179,0.063-0.242,0.018
								l-1.566-1.055c-0.03-0.024-0.049-0.048-0.063-0.081c-0.016-0.043-0.024-0.079-0.024-0.124c0-0.045,0.008-0.09,0.019-0.138
								c0.018-0.062,0.037-0.11,0.063-0.156l1.559-2.868C115.083,204.554,115.171,204.462,115.26,204.411z"/>
						</g>
						<g>
							<path style="fill:#455A64;" d="M124.224,199.236c0.089-0.051,0.178-0.062,0.243-0.019l1.566,1.055
								c0.028,0.025,0.047,0.05,0.063,0.081c0.014,0.044,0.022,0.08,0.022,0.125c0,0.045-0.008,0.09-0.019,0.138
								c-0.018,0.062-0.037,0.11-0.061,0.155l-1.559,2.868c-0.065,0.119-0.153,0.211-0.241,0.262
								c-0.079,0.045-0.159,0.058-0.223,0.029c-0.132-0.064-0.143-0.298-0.021-0.522l1.054-1.934l-3.55,2.049
								c-0.181,0.104-0.329,0.02-0.329-0.188c-0.001-0.208,0.146-0.462,0.327-0.567l3.55-2.05l-1.061-0.713
								c-0.122-0.083-0.113-0.328,0.018-0.544C124.065,199.36,124.144,199.282,124.224,199.236z"/>
						</g>
						<g>
							<path style="fill:#455A64;" d="M130.781,195.449c0.391-0.226,0.767-0.314,1.09-0.263c0.02-0.196,0.156-0.416,0.322-0.512
								c0.005-0.003,0.01-0.006,0.015-0.008c0.181-0.095,0.321-0.002,0.314,0.21l-0.027,0.839c-0.007,0.201-0.143,0.435-0.314,0.541
								l-0.715,0.449l-0.014,0.008c-0.175,0.101-0.319,0.028-0.327-0.171c-0.008-0.178,0.099-0.399,0.249-0.526
								c-0.183,0.006-0.382,0.067-0.59,0.187c-0.759,0.438-1.374,1.501-1.372,2.373c0.003,0.872,0.622,1.222,1.38,0.784
								c0.503-0.29,0.966-0.875,1.207-1.522c0.059-0.16,0.171-0.296,0.287-0.364c0.053-0.031,0.106-0.047,0.156-0.044
								c0.16,0.008,0.219,0.202,0.133,0.435c-0.356,0.959-1.036,1.82-1.781,2.25c-1.12,0.647-2.033,0.124-2.037-1.161
								C128.754,197.669,129.661,196.096,130.781,195.449z"/>
						</g>
					</g>
					<g style="opacity:0.7;">
						<g>
							<path style="fill:#FFFFFF;" d="M115.26,204.411c0.079-0.045,0.158-0.059,0.221-0.029c0.134,0.063,0.145,0.297,0.021,0.522
								l-1.052,1.933l3.55-2.05c0.181-0.104,0.329-0.02,0.329,0.188c0.001,0.208-0.146,0.462-0.327,0.567l-3.55,2.05l1.059,0.714
								c0.124,0.082,0.115,0.327-0.018,0.544c-0.063,0.102-0.141,0.181-0.22,0.226c-0.09,0.052-0.179,0.063-0.242,0.018
								l-1.566-1.055c-0.03-0.024-0.049-0.048-0.063-0.081c-0.016-0.043-0.024-0.079-0.024-0.124c0-0.045,0.008-0.09,0.019-0.138
								c0.018-0.062,0.037-0.11,0.063-0.156l1.559-2.868C115.083,204.554,115.171,204.462,115.26,204.411z"/>
						</g>
						<g>
							<path style="fill:#FFFFFF;" d="M124.224,199.236c0.089-0.051,0.178-0.062,0.243-0.019l1.566,1.055
								c0.028,0.025,0.047,0.05,0.063,0.081c0.014,0.044,0.022,0.08,0.022,0.125c0,0.045-0.008,0.09-0.019,0.138
								c-0.018,0.062-0.037,0.11-0.061,0.155l-1.559,2.868c-0.065,0.119-0.153,0.211-0.241,0.262
								c-0.079,0.045-0.159,0.058-0.223,0.029c-0.132-0.064-0.143-0.298-0.021-0.522l1.054-1.934l-3.55,2.049
								c-0.181,0.104-0.329,0.02-0.329-0.188c-0.001-0.208,0.146-0.462,0.327-0.567l3.55-2.05l-1.061-0.713
								c-0.122-0.083-0.113-0.328,0.018-0.544C124.065,199.36,124.144,199.282,124.224,199.236z"/>
						</g>
						<g>
							<path style="fill:#FFFFFF;" d="M130.781,195.449c0.391-0.226,0.767-0.314,1.09-0.263c0.02-0.196,0.156-0.416,0.322-0.512
								c0.005-0.003,0.01-0.006,0.015-0.008c0.181-0.095,0.321-0.002,0.314,0.21l-0.027,0.839c-0.007,0.201-0.143,0.435-0.314,0.541
								l-0.715,0.449l-0.014,0.008c-0.175,0.101-0.319,0.028-0.327-0.171c-0.008-0.178,0.099-0.399,0.249-0.526
								c-0.183,0.006-0.382,0.067-0.59,0.187c-0.759,0.438-1.374,1.501-1.372,2.373c0.003,0.872,0.622,1.222,1.38,0.784
								c0.503-0.29,0.966-0.875,1.207-1.522c0.059-0.16,0.171-0.296,0.287-0.364c0.053-0.031,0.106-0.047,0.156-0.044
								c0.16,0.008,0.219,0.202,0.133,0.435c-0.356,0.959-1.036,1.82-1.781,2.25c-1.12,0.647-2.033,0.124-2.037-1.161
								C128.754,197.669,129.661,196.096,130.781,195.449z"/>
						</g>
					</g>
				</g>
			</g>
			<path style="fill:#455A64;" d="M314.217,73.763c-0.006-2.181-0.773-3.719-2.008-4.457c-0.012-0.007-0.022-0.016-0.034-0.023
				c-0.016-0.009-0.031-0.018-0.047-0.027c-1.268-0.71-3.009-0.598-4.927,0.509L113.002,181.6c-3.865,2.231-6.983,7.639-6.97,12.073
				l0.02,9.057L314.236,82.575L314.217,73.763z"/>
			<path style="opacity:0.3;" d="M314.217,73.763c-0.006-2.181-0.773-3.719-2.008-4.457c-0.012-0.007-0.022-0.016-0.034-0.023
				c-0.016-0.009-0.031-0.018-0.047-0.027c-1.268-0.71-3.009-0.598-4.927,0.509L113.002,181.6c-3.865,2.231-6.983,7.639-6.97,12.073
				l0.02,9.057L314.236,82.575L314.217,73.763z"/>
			<g style="opacity:0.5;">
				<g>
					<path style="fill:#FFFFFF;" d="M115.279,187.931c1.053-0.608,1.91-0.12,1.913,1.09c0.003,1.21-0.848,2.684-1.901,3.292
						c-1.053,0.608-1.91,0.12-1.913-1.09C113.375,190.013,114.226,188.539,115.279,187.931z"/>
				</g>
				<g>
					<path style="fill:#FFFFFF;" d="M120.487,184.924c1.053-0.608,1.91-0.12,1.913,1.09c0.003,1.21-0.848,2.684-1.901,3.292
						c-1.053,0.608-1.91,0.12-1.913-1.09C118.583,187.006,119.434,185.532,120.487,184.924z"/>
				</g>
				<g>
					<path style="fill:#FFFFFF;" d="M125.695,181.917c1.053-0.608,1.91-0.12,1.913,1.09c0.003,1.21-0.848,2.684-1.901,3.292
						c-1.053,0.608-1.91,0.12-1.913-1.09C123.791,183.999,124.642,182.525,125.695,181.917z"/>
				</g>
			</g>
			<g>
				<g>
					<path style="fill:#455A64;" d="M115.279,187.931c1.053-0.608,1.91-0.12,1.913,1.09c0.003,1.21-0.848,2.684-1.901,3.292
						c-1.053,0.608-1.91,0.12-1.913-1.09C113.375,190.013,114.226,188.539,115.279,187.931z"/>
				</g>
				<g>
					<path style="fill:#455A64;" d="M120.487,184.924c1.053-0.608,1.91-0.12,1.913,1.09c0.003,1.21-0.848,2.684-1.901,3.292
						c-1.053,0.608-1.91,0.12-1.913-1.09C118.583,187.006,119.434,185.532,120.487,184.924z"/>
				</g>
				<g>
					<path style="fill:#455A64;" d="M125.695,181.917c1.053-0.608,1.91-0.12,1.913,1.09c0.003,1.21-0.848,2.684-1.901,3.292
						c-1.053,0.608-1.91,0.12-1.913-1.09C123.791,183.999,124.642,182.525,125.695,181.917z"/>
				</g>
			</g>
			<g>
				<path style="fill:#37474F;" d="M304.421,164.571l-0.119-53.249c-0.004-1.537-1.667-2.495-2.998-1.729l-81.212,46.768
					c-1.55,0.892-2.505,2.545-2.505,4.333v53.324c0,1.539,1.665,2.501,2.998,1.733l81.331-46.837
					C303.47,168.021,304.425,166.363,304.421,164.571z"/>
				<path style="fill:#37474F;" d="M209.051,162.72l-90.456,52.092c-1.553,0.895-2.509,2.552-2.505,4.344l0.12,53.249
					c0.003,1.537,1.666,2.496,2.998,1.729l90.337-52.023c1.55-0.892,2.505-2.545,2.505-4.333v-53.324
					C212.049,162.914,210.384,161.952,209.051,162.72z"/>
				<path style="opacity:0.1;fill:#FFFFFF;" d="M209.051,162.72l-90.456,52.092c-1.553,0.895-2.509,2.552-2.505,4.344l0.12,53.249
					c0.003,1.537,1.666,2.496,2.998,1.729l90.337-52.023c1.55-0.892,2.505-2.545,2.505-4.333v-53.324
					C212.049,162.914,210.384,161.952,209.051,162.72z"/>
				<path style="fill:#37474F;" d="M217.587,224.077v54.827c0,1.539,1.665,2.501,2.998,1.733l82.006-47.226
					c0.795-0.494,1.94-2.464,1.977-3.394l-0.118-52.508c-0.003-1.537-1.666-2.495-2.998-1.729L217.587,224.077z"/>
				<path style="opacity:0.1;fill:#FFFFFF;" d="M217.587,224.077v54.827c0,1.539,1.665,2.501,2.998,1.733l82.006-47.226
					c0.795-0.494,1.94-2.464,1.977-3.394l-0.118-52.508c-0.003-1.537-1.666-2.495-2.998-1.729L217.587,224.077z"/>
				<path style="fill:#37474F;" d="M116.238,285.343l0.116,51.863c0.004,1.537,1.666,2.495,2.998,1.729l90.191-51.939
					c1.55-0.892,2.505-2.545,2.505-4.333v-51.937c0-1.539-1.665-2.501-2.998-1.733l-90.308,52.006
					C117.19,281.893,116.234,283.551,116.238,285.343z"/>
			</g>
			<g>
				<path style="fill:#FFFFFF;" d="M156.516,227.488l-9.668,7.279c-5.527,4.161-8.99,10.505-9.499,17.405l-0.888,12.026
					l53.219-30.648l-2.885-4.279c-3-4.45-8.426-6.6-13.66-5.411l-5.44,1.236L156.516,227.488z"/>
				<g>
					<path style="fill:#8C5C5B;" d="M150.678,213.319c0.305-0.707,0.861-1.316,1.555-1.627c0.151-0.068,0.3-0.139,0.464-0.174
						c0.927-0.199,1.917,0.195,2.588,0.865c0.671,0.67,1.057,1.581,1.261,2.507c0.204,0.926,0.243,1.879,0.314,2.825
						c0.126,1.678,0.406,3.337,0.778,4.977c0.41,1.807,1.584,3.348,3.224,4.211l0.111,0.058c2.201,1.162,4.896,1.805,7.526,1.999
						l-0.012,2.232v0.624c2.076,2.826,2.655,8.224-2.815,6.611c-5.47-1.612-9.034-5.252-9.034-8.829
						c-0.031-1.509-0.073-3.449-0.111-5.185c-0.052-2.334-0.096-4.29-0.096-4.29c-0.436,0.57-1.22,0.947-1.997,1.045
						c-0.364,0.046-0.726,0.036-1.049-0.053c-1.015-0.281-1.84-1.067-2.335-1.996c-0.495-0.929-0.689-1.992-0.747-3.043
						C150.25,215.143,150.307,214.179,150.678,213.319z"/>
					<path style="fill:#263238;" d="M152.454,203.442c1.654-2.061,4.302-2.282,4.302-2.282l22.467,2.085
						c2.59,5.491,0.522,9.119,0.522,9.119c0.35,8.374,0.64,13.697-3.042,15.46c-2.005,0.96-5.059,1.371-8.205,1.137
						c-2.63-0.195-5.324-0.837-7.526-1.999l-0.12-0.063c-1.643-0.867-2.81-2.417-3.22-4.229c-0.369-1.633-0.646-3.284-0.772-4.954
						c-0.071-0.946-0.11-1.899-0.314-2.825c-0.204-0.926-0.59-1.837-1.261-2.507c-0.671-0.67-1.661-1.064-2.588-0.865
						c-0.163,0.035-0.313,0.106-0.464,0.174C151.594,207.973,151.406,204.748,152.454,203.442z"/>
					<path style="fill:#8C5C5B;" d="M160.682,204.083c0.493,1.52,0.192,3.184-0.296,4.706c-0.488,1.522-1.161,2.995-1.428,4.571
						c-0.263,1.557-0.104,3.21,0.617,4.614c0.721,1.404,2.038,2.53,3.582,2.858c2.412,0.513,4.771-0.896,7.192-1.365
						c2.248-0.435,4.738,0.037,6.762,1.196c0.763,0.437,1.715-0.056,1.768-0.934c0.287-4.819,0.283-12.371-0.43-15.919
						L160.682,204.083z"/>
					<path style="fill:#263238;" d="M178.068,199.718c0.931-0.647,1.862-1.293,2.792-1.94c0.636,1.833,0.15,3.988-1.068,5.498
						c-1.217,1.511-3.035,2.456-4.923,2.899c-1.888,0.443-3.856,0.421-5.79,0.264c-2.828-0.23-5.633-0.742-8.36-1.527
						c-1.205-0.347-2.454-0.785-3.285-1.724c-1.215-1.374-1.178-3.584-0.172-5.119c1.006-1.535,2.8-2.428,4.618-2.674
						c1.85-0.251,3.723,0.098,5.559,0.439c1.836,0.341,3.713,0.676,5.56,0.399c1.847-0.277,3.689-1.279,4.484-2.969
						C179.059,195.815,178.068,199.718,178.068,199.718z"/>
					<g>
						<polygon style="fill:#F28F8F;" points="171.02,212.628 175.117,217.591 171.358,218.919 						"/>
						<polygon style="fill:#7D4B4A;" points="171.02,212.628 175.117,217.591 171.358,218.919 						"/>
						<path style="fill:#F28F8F;" d="M167.918,221.383c1.055,0.324,2.11,0.649,3.165,0.973c-0.325,0.735-1.358,1.193-2.133,0.981
							C168.176,223.125,167.822,222.181,167.918,221.383z"/>
						<path style="fill:#7D4B4A;" d="M167.918,221.383c1.055,0.324,2.11,0.649,3.165,0.973c-0.325,0.735-1.358,1.193-2.133,0.981
							C168.176,223.125,167.822,222.181,167.918,221.383z"/>
						<path style="fill:#F28F8F;" d="M169.987,223.275c-0.344,0.117-0.712,0.151-1.037,0.062c-0.608-0.167-0.953-0.785-1.028-1.429
							c0.418-0.063,0.858,0.008,1.222,0.223C169.565,222.38,169.865,222.804,169.987,223.275z"/>
						<path style="fill:#263238;" d="M165.446,213.717c0.033,0.621,0.564,1.097,1.184,1.064c0.621-0.034,1.097-0.564,1.064-1.184
							c-0.034-0.621-0.564-1.097-1.184-1.064C165.889,212.566,165.413,213.096,165.446,213.717z"/>
						<path style="fill:#263238;" d="M174.862,212.846c0.033,0.621,0.564,1.097,1.184,1.063c0.621-0.033,1.097-0.564,1.064-1.184
							c-0.033-0.621-0.564-1.097-1.184-1.064C175.305,211.695,174.829,212.225,174.862,212.846z"/>
						<path style="fill:#263238;" d="M175.715,208.314c0.861,0.53,1.723,1.059,2.584,1.589c0.215-0.604-0.064-1.359-0.581-1.737
							C177.2,207.787,176.226,207.927,175.715,208.314z"/>
						<path style="fill:#263238;" d="M166.085,208.696c-0.8,0.619-1.599,1.238-2.399,1.857c-0.278-0.578-0.082-1.358,0.392-1.79
							C164.552,208.331,165.535,208.366,166.085,208.696z"/>
					</g>
					<path style="fill:#7D4B4A;" d="M159.457,226.81c-0.622-0.799-1.076-1.738-1.31-2.722c0.586,1.189,1.52,2.187,2.714,2.816
						c0.038,0.02,0.075,0.039,0.111,0.058c2.202,1.162,4.896,1.804,7.526,1.999l-0.01,1.926c-1.513-0.16-3.017-0.422-4.447-0.934
						C162.273,229.321,160.612,228.291,159.457,226.81z"/>
				</g>
			</g>
			<g>
				<g>
					<path style="fill:#BA68C8;" d="M258.214,233.792l-10.042,7.561c-3.551,2.674-5.733,6.784-5.958,11.224l-0.815,16.075
						l48.835-28.123l-7.166-7.046c-2.671-2.627-6.496-3.713-10.149-2.883l-3.523,0.8L258.214,233.792z"/>
					<path style="opacity:0.2;" d="M258.214,233.792l-10.042,7.561c-3.551,2.674-5.733,6.784-5.958,11.224l-0.815,16.075
						l48.835-28.123l-7.166-7.046c-2.671-2.627-6.496-3.713-10.149-2.883l-3.523,0.8L258.214,233.792z"/>
				</g>
				<g>
					<path style="fill:#263238;" d="M279.012,221.508c1.683-1.209,2.892-3.062,3.32-5.09c0.428-2.028,0.072-4.211-0.979-5.997
						c0.912-0.437,1.797-1.164,2.212-2.087c0.4-0.888,0.202-2.012-0.478-2.71c-0.68-0.698-1.798-0.925-2.696-0.549
						c0.561-1.379-0.085-3.253-1.369-4.006c-1.284-0.753-3.098-0.417-4.027,0.745c0.062-0.947-0.595-1.859-1.497-2.155
						c-0.902-0.296-1.894-0.133-2.791,0.175c-0.898,0.307-1.745,0.754-2.649,1.04c-1.528,0.484-3.158,0.494-4.757,0.607
						c-1.599,0.113-3.25,0.354-4.596,1.225c-1.346,0.871-2.534,2.907-1.808,4.66c-0.453-0.575-1.177-0.988-1.909-1.012
						c-0.731-0.025-1.467,0.288-1.958,0.831c1.001,0.62,1.969,1.287,2.969,1.907c-1.007-0.453-2.509,0.258-3.054,1.218
						s-0.571,2.121-0.538,3.225c0.124,4.193,0.888,8.363,2.212,12.343c0.685,2.058,1.674,4.238,3.624,5.188L279.012,221.508z"/>
					<g>
						<path style="fill:#FFA8A7;" d="M268.399,231.416l-0.44,4.921c-0.034,0.383,0.087,0.751,0.278,1.085
							c0.553,0.964,0.382,2.504-0.434,3.215c-0.594,0.517-1.412,0.688-2.198,0.745c-3.035,0.221-6.131-1.089-8.131-3.137
							c-0.436-0.447-0.66-1.06-0.644-1.684l0.323-12.478L268.399,231.416z"/>
						<path style="fill:#F28F8F;" d="M258.143,224.729l10.256,6.688l-0.39,4.364c-2.384-0.559-4.783-1.247-6.669-2.781
							C258.94,231.047,257.691,227.785,258.143,224.729z"/>
					</g>
					<g>
						<path style="fill:#FFA8A7;" d="M279.58,211.369c0.753,5.688,0.375,11.523-1.104,17.066c-0.324,1.214-0.706,2.428-1.354,3.505
							c-0.648,1.077-1.589,2.017-2.766,2.457c-1.448,0.542-3.057,0.28-4.58,0.012c-2.784-0.491-5.641-1.008-8.059-2.472
							c-2.419-1.464-4.336-4.109-4.102-6.926c-1.409,0.809-3.191,1.021-4.623,0.256c-1.433-0.766-2.425-2.299-2.536-3.92
							c-0.108-1.577,0.804-3.335,2.354-3.648c0.947-0.191,1.937,0.188,2.695,0.788c0.757,0.6,1.323,1.402,1.879,2.193
							c0.265,0.377,0.541,0.764,0.936,1.001c0.395,0.237,0.943,0.284,1.293-0.015c0.382-0.327,0.39-0.905,0.367-1.408l-0.163-3.572
							c-0.026-0.562,0.291-1.074,0.792-1.329c0.727-0.37,1.283-1.051,1.6-1.841c0.275-0.684,0.392-1.412,0.452-2.149
							c0.048-0.594,0.652-0.972,1.204-0.749C268.659,212.553,274.636,212.639,279.58,211.369z"/>
						<g>
							<polygon style="fill:#F28F8F;" points="271.723,220.031 274.935,225.438 271.106,226.157 							"/>
							<path style="fill:#F28F8F;" d="M267.414,228.02c0.97,0.472,1.94,0.943,2.91,1.415c-0.424,0.661-1.49,0.949-2.206,0.627
								C267.402,229.741,267.202,228.776,267.414,228.02z"/>
							<path style="opacity:0.3;" d="M267.414,228.02c0.97,0.472,1.94,0.943,2.91,1.415c-0.424,0.661-1.49,0.949-2.206,0.627
								C267.402,229.741,267.202,228.776,267.414,228.02z"/>
							<path style="fill:#F28F8F;" d="M269.128,230.158c-0.35,0.062-0.71,0.039-1.01-0.095c-0.562-0.252-0.802-0.901-0.779-1.534
								c0.413,0.002,0.827,0.137,1.147,0.399C268.855,229.229,269.081,229.685,269.128,230.158z"/>
							<path style="fill:#263238;" d="M266.177,220.246c-0.061,0.604,0.38,1.144,0.984,1.205c0.605,0.061,1.144-0.38,1.205-0.984
								c0.061-0.604-0.38-1.144-0.984-1.204C266.778,219.201,266.238,219.642,266.177,220.246z"/>
							<path style="fill:#263238;" d="M275.401,220.818c-0.061,0.604,0.38,1.144,0.984,1.205c0.604,0.061,1.144-0.38,1.205-0.984
								c0.061-0.604-0.38-1.144-0.984-1.205C276.001,219.773,275.462,220.213,275.401,220.818z"/>
							<path style="fill:#263238;" d="M276.905,216.57c0.752,0.641,1.504,1.281,2.257,1.922c0.298-0.551,0.142-1.322-0.301-1.765
								C278.418,216.283,277.456,216.273,276.905,216.57z"/>
							<path style="fill:#263238;" d="M267.547,215.494c-0.865,0.478-1.73,0.955-2.595,1.433c-0.182-0.6,0.124-1.323,0.647-1.669
								C266.122,214.911,267.066,215.092,267.547,215.494z"/>
						</g>
					</g>
				</g>
			</g>
			<g>
				<path style="fill:#263238;" d="M185.346,273.462c-0.429,1.003-1.608,1.481-2.175,2.413c-0.435,0.715-0.443,1.67-0.019,2.392
					c0.424,0.722,1.261,1.181,2.097,1.149c0.837-0.031,1.637-0.552,2.005-1.303c0.156,0.883,0.22,1.797,0.013,2.669
					c-0.207,0.872-0.805,1.703-1.666,1.95c1.312,1.223,1.663,3.257,1.064,4.947c-0.598,1.69-2.257,2.952-4.046,3.077
					c0.343,2.436-1.244,5.069-3.253,6.489c-2.008,1.42-4.588,1.866-7.036,1.638c-2.449-0.228-4.797-1.08-7.049-2.069
					c-3.419,1.199-7.103,1.944-10.709,1.598c-2.309-0.221-4.725-0.841-6.324-2.521c-1.599-1.68-1.973-4.673-0.263-6.241
					c-0.938,0.765-2.569,0.607-3.637,0.037c-1.068-0.57-1.735-1.813-1.621-3.018c0.114-1.205,1.003-2.3,2.159-2.66
					c-0.773-0.515-1.37-1.524-1.234-2.443c0.135-0.919,0.834-1.73,1.723-2c-0.214,0.768-0.04,1.78,0.597,2.26
					c0.637,0.479,1.571,0.522,2.25,0.104c0.662-0.408,1.033-1.175,1.154-1.943c0.122-0.768,0.028-1.551-0.043-2.325
					c-0.247-2.674-0.22-5.447,0.77-7.943c0.99-2.496,3.102-4.677,5.747-5.139c0.993-3.091,3.216-5.796,6.033-7.409
					c2.817-1.614,6.243-2.133,9.411-1.426c2.663,0.594,5.259,2.186,6.328,4.696c1.117-0.26,2.353-0.321,3.5-0.297
					c1.146,0.025,2.329,0.367,3.15,1.166c0.822,0.8,1.191,2.113,0.69,3.145c-0.35,0.72-1.097,1.369-0.919,2.15
					c0.153,0.671,0.918,1,1.286,1.582c0.347,0.548,0.298,1.273,0.04,1.868c-0.257,0.595-0.696,1.09-1.121,1.579
					c-0.391,0.451-0.804,1.039-0.584,1.594C183.893,273.809,185.04,274.004,185.346,273.462z"/>
				<path style="fill:#F28F8F;" d="M175.035,300.694c-0.855,0.705-2.039,0.838-3.147,0.838c-3.023-0.002-6.042-0.795-8.677-2.278
					c-2.089-1.177-3.925-2.79-5.381-4.695l3.124-0.271v-10.047l10.856,4.19v5.803h2.779c0.559,0.724,1.046,1.492,1.332,2.357
					C176.388,298.003,176.183,299.748,175.035,300.694z"/>
				<path style="fill:#D96E6E;" d="M161.715,284.534c3.253,6.313,5.277,6.449,10.095,7.013v-3.116L161.715,284.534z"/>
				<path style="fill:#F28F8F;" d="M181.395,269.938c0.945,4.747,1.006,9.67,0.172,14.438c-0.314,1.797-0.837,3.706-2.259,4.849
					c-1.753,1.408-4.261,1.198-6.492,0.915c-2.431-0.308-4.901-0.627-7.148-1.606c-2.247-0.979-4.28-2.728-5.016-5.066
					c-1.163,0.765-2.829,0.373-3.809-0.616c-0.98-0.988-1.368-2.436-1.404-3.827c-0.033-1.264,0.296-2.69,1.38-3.341
					c0.738-0.443,1.689-0.419,2.491-0.105c0.802,0.314,1.475,0.886,2.078,1.5c0.306,0.311,0.605,0.643,0.991,0.848
					c0.385,0.205,0.886,0.258,1.244,0.009c0.442-0.309,0.504-0.926,0.53-1.465c0.107-2.193,0.331-4.468,1.452-6.356
					c1.122-1.888,3.388-3.267,5.508-2.694c0.971,0.262,1.848,0.904,2.854,0.932c0.804,0.022,1.56-0.354,2.264-0.743
					c0.013-0.007,0.027-0.015,0.04-0.022C178.558,266.32,180.886,267.376,181.395,269.938z"/>
				<g>
					<polygon style="fill:#F28F8F;" points="174.553,275.855 177.441,280.716 173.998,281.363 					"/>
					<polygon style="fill:#D96E6E;" points="174.553,275.855 177.441,280.716 173.998,281.363 					"/>
					<path style="fill:#F28F8F;" d="M170.679,283.038c0.872,0.424,1.744,0.848,2.617,1.272c-0.381,0.594-1.34,0.853-1.984,0.564
						C170.667,284.585,170.488,283.718,170.679,283.038z"/>
					<path style="fill:#D96E6E;" d="M170.679,283.038c0.872,0.424,1.744,0.848,2.617,1.272c-0.381,0.594-1.34,0.853-1.984,0.564
						C170.667,284.585,170.488,283.718,170.679,283.038z"/>
					<path style="fill:#F28F8F;" d="M172.22,284.96c-0.315,0.055-0.639,0.035-0.909-0.086c-0.505-0.227-0.721-0.81-0.7-1.379
						c0.371,0.002,0.743,0.123,1.031,0.359C171.974,284.125,172.177,284.535,172.22,284.96z"/>
					<path style="fill:#C75555;" d="M172.22,284.96c-0.315,0.055-0.639,0.035-0.909-0.086c-0.505-0.227-0.721-0.81-0.7-1.379
						c0.371,0.002,0.743,0.123,1.031,0.359C171.974,284.125,172.177,284.535,172.22,284.96z"/>
					<path style="fill:#263238;" d="M169.566,276.048c-0.055,0.543,0.341,1.028,0.885,1.083c0.544,0.055,1.028-0.341,1.083-0.885
						c0.055-0.543-0.341-1.028-0.885-1.083C170.106,275.109,169.621,275.505,169.566,276.048z"/>
					<path style="fill:#263238;" d="M177.859,276.562c-0.055,0.543,0.341,1.028,0.885,1.083c0.544,0.055,1.028-0.341,1.083-0.885
						c0.055-0.543-0.341-1.028-0.885-1.083C178.399,275.623,177.914,276.019,177.859,276.562z"/>
					<path style="fill:#263238;" d="M179.212,272.743c0.676,0.576,1.353,1.152,2.029,1.728c0.268-0.496,0.128-1.188-0.271-1.587
						C180.572,272.485,179.707,272.475,179.212,272.743z"/>
					<path style="fill:#263238;" d="M170.798,271.775c-0.778,0.429-1.555,0.859-2.333,1.288c-0.163-0.539,0.112-1.19,0.582-1.501
						C169.516,271.252,170.365,271.414,170.798,271.775z"/>
				</g>
				<path style="fill:#F28F8F;" d="M177.291,294.234l0.865,10.837l7.357-4.237C183.963,296.9,181.55,294.234,177.291,294.234z"/>
				<path style="fill:#BA68C8;" d="M177.291,294.234h-2.702c0.559,0.724,1.046,1.492,1.332,2.357
					c0.467,1.413,0.262,3.157-0.886,4.104c-0.855,0.705-2.039,0.838-3.147,0.838c-3.023-0.002-6.043-0.795-8.677-2.278
					c-2.089-1.177-3.925-2.79-5.381-4.695l-9.276,0.804c0,0,0.208,19.556,0.155,22.38c-0.026,1.364,0.042,2.768,0.309,4.109
					l34.355-19.784C181.801,299.134,179.76,296.43,177.291,294.234z"/>
				<path style="opacity:0.6;fill:#FFFFFF;" d="M177.291,294.234h-2.702c0.559,0.724,1.046,1.492,1.332,2.357
					c0.467,1.413,0.262,3.157-0.886,4.104c-0.855,0.705-2.039,0.838-3.147,0.838c-3.023-0.002-6.043-0.795-8.677-2.278
					c-2.089-1.177-3.925-2.79-5.381-4.695l-9.276,0.804c0,0,0.208,19.556,0.155,22.38c-0.026,1.364,0.042,2.768,0.309,4.109
					l34.355-19.784C181.801,299.134,179.76,296.43,177.291,294.234z"/>
				<path style="fill:#F28F8F;" d="M148.554,295.362c-8.9,3.015-6.821,10.589-2.288,18.705c1.131,2.026,2.494,4.521,3.901,7.122
					l9.581-5.518C156.311,307.24,151.591,296.902,148.554,295.362z"/>
			</g>
			<g>
				<path style="fill:#455A64;" d="M275.848,176.24c1.161,1.903,2.079,3.937,2.927,6.002l3.553-2.046l-3.245-6.332
					c-1.238-2.416-3.944-3.699-6.598-3.13l-1.123,0.241C273.153,172.426,274.642,174.264,275.848,176.24z"/>
				<path style="fill:#455A64;" d="M251.44,186.588c-0.515-1.201-1.431-2.292-2.668-2.713c-1.3-0.442-2.772-0.076-3.924,0.674
					c-0.442,0.287-0.835,0.636-1.208,1.006c-1.442,2.335-2.239,5.056-2.239,7.883v10.326l11.726-6.753
					c-0.279-2.203-0.559-4.407-0.839-6.611C252.125,189.105,251.955,187.789,251.44,186.588z"/>
				<path style="fill:#455A64;" d="M275.848,176.24c-1.206-1.976-2.695-3.814-4.486-5.265l-7.799,1.673l-7.969,3.315l-7.497,4.984
					c-1.828,1.215-3.337,2.795-4.457,4.608c0.373-0.37,0.766-0.718,1.208-1.006c1.151-0.749,2.623-1.116,3.924-0.674
					c1.237,0.421,2.153,1.512,2.668,2.713c0.515,1.201,0.685,2.516,0.849,3.812c0.279,2.204,0.559,4.407,0.839,6.611l25.647-14.77
					C277.927,180.177,277.009,178.143,275.848,176.24z"/>
				<path style="opacity:0.3;fill:#FFFFFF;" d="M275.848,176.24c1.161,1.903,2.079,3.937,2.927,6.002l3.553-2.046l-3.245-6.332
					c-1.238-2.416-3.944-3.699-6.598-3.13l-1.123,0.241C273.153,172.426,274.642,174.264,275.848,176.24z"/>
				<path style="opacity:0.3;fill:#FFFFFF;" d="M251.44,186.588c-0.515-1.201-1.431-2.292-2.668-2.713
					c-1.3-0.442-2.772-0.076-3.924,0.674c-0.442,0.287-0.835,0.636-1.208,1.006c-1.442,2.335-2.239,5.056-2.239,7.883v10.326
					l11.726-6.753c-0.279-2.203-0.559-4.407-0.839-6.611C252.125,189.105,251.955,187.789,251.44,186.588z"/>
				<path style="opacity:0.4;fill:#FFFFFF;" d="M275.848,176.24c-1.206-1.976-2.695-3.814-4.486-5.265l-7.799,1.673l-7.969,3.315
					l-7.497,4.984c-1.828,1.215-3.337,2.795-4.457,4.608c0.373-0.37,0.766-0.718,1.208-1.006c1.151-0.749,2.623-1.116,3.924-0.674
					c1.237,0.421,2.153,1.512,2.668,2.713c0.515,1.201,0.685,2.516,0.849,3.812c0.279,2.204,0.559,4.407,0.839,6.611l25.647-14.77
					C277.927,180.177,277.009,178.143,275.848,176.24z"/>
				<g>
					<path style="fill:#263238;" d="M275.468,158.74c1.583-1.606,2.592-3.766,2.807-6.01c0.215-2.244-0.365-4.557-1.614-6.435
						c1.355-0.49,2.24-2.006,2.116-3.442c-0.124-1.436-1.296-2.715-2.716-2.965c-1.205-0.212-2.411,0.251-3.606,0.511
						c-2.032,0.441-4.146,0.293-6.204-0.004c-2.058-0.298-4.098-0.743-6.172-0.894c-2.074-0.151-4.218,0.008-6.111,0.868
						c-1.893,0.86-3.504,2.506-3.951,4.536c-1.598-0.429-3.501,0.597-4.527,1.895c-1.025,1.298-1.42,2.996-1.488,4.649
						c-0.067,1.653,0.163,3.302,0.247,4.954c0.084,1.652,0.012,3.354-0.623,4.882c-0.744,1.787-2.222,3.243-2.696,5.12
						c-0.436,1.726,0.104,3.666,1.37,4.918c1.266,1.252,3.211,1.771,4.933,1.316c-0.344-1.321-0.535-2.655-0.479-4.019
						c0.157,1.82,1.971,3.241,3.692,3.853c1.721,0.612,3.598,0.548,5.423,0.476c2.142-0.084,4.283-0.169,6.425-0.253
						c2.494-0.098,4.989-0.196,7.483-0.295c1.332-0.052,2.704-0.114,3.914-0.674c2.138-0.988,3.351-3.4,3.485-5.751
						C277.312,163.626,276.391,160.907,275.468,158.74z"/>
					<g>
						<path style="fill:#FFA8A7;" d="M266.302,169.169v6.832c0,0,5.585,3.57,3.233,5.459c-4.435,3.563-13.941-5.497-13.941-5.497
							v-11.37L266.302,169.169z"/>
						<path style="fill:#F28F8F;" d="M255.594,164.593c1.643,4.894,7.633,8.605,10.708,9.347v-4.771L255.594,164.593z"/>
					</g>
					<path style="fill:#FFA8A7;" d="M256.872,156.825c0.111,0.642,0.225,1.931,0.12,2.574c-0.105,0.643-0.381,1.271-0.853,1.719
						c-0.472,0.448-1.096,0.645-1.734,0.511c0.338-1.677-0.83-3.516-2.492-3.922c-1.662-0.407-3.547,0.685-4.021,2.329
						c-0.34,1.18,0.002,2.485,0.702,3.493c0.7,1.009,1.723,1.753,2.803,2.337c1.278,0.467,2.71-0.148,3.385-1.329
						c3.264,4.138,8.956,7.243,14.289,6.798c1.449-0.121,2.907-0.54,4.056-1.43c2.017-1.562,2.166-3.916,2.422-6.242
						c0.324-2.944,0.405-5.936-0.068-8.868c-0.654-4.053-2.458-8.037-5.605-10.674C268.048,152.934,259.965,156.176,256.872,156.825
						z"/>
					<g>
						<polygon style="fill:#F28F8F;" points="267.977,155.823 271.629,160.324 268.233,161.491 						"/>
						<path style="fill:#F28F8F;" d="M265.116,163.683c0.948,0.301,1.895,0.601,2.843,0.901c-0.298,0.66-1.232,1.064-1.928,0.867
							C265.334,165.254,265.023,164.401,265.116,163.683z"/>
						<path style="opacity:0.3;" d="M265.116,163.683c0.948,0.301,1.895,0.601,2.843,0.901c-0.298,0.66-1.232,1.064-1.928,0.867
							C265.334,165.254,265.023,164.401,265.116,163.683z"/>
						<path style="fill:#F28F8F;" d="M266.964,165.404c-0.311,0.103-0.642,0.131-0.934,0.048c-0.546-0.155-0.852-0.714-0.915-1.294
							c0.377-0.053,0.772,0.014,1.099,0.21C266.591,164.594,266.858,164.978,266.964,165.404z"/>
						<path style="fill:#263238;" d="M262.949,156.76c0.025,0.559,0.499,0.992,1.058,0.967c0.559-0.025,0.992-0.499,0.967-1.058
							c-0.025-0.559-0.499-0.992-1.058-0.967C263.357,155.726,262.924,156.2,262.949,156.76z"/>
						<path style="fill:#263238;" d="M271.436,156.048c0.025,0.559,0.499,0.992,1.058,0.967c0.559-0.025,0.992-0.499,0.967-1.058
							c-0.025-0.559-0.499-0.992-1.058-0.967C271.844,155.016,271.411,155.489,271.436,156.048z"/>
						<path style="fill:#263238;" d="M272.24,151.974c0.772,0.484,1.543,0.968,2.315,1.451c0.198-0.542-0.047-1.224-0.51-1.569
							C273.581,151.511,272.703,151.629,272.24,151.974z"/>
						<path style="fill:#263238;" d="M263.563,152.243c-0.725,0.551-1.45,1.102-2.175,1.653c-0.246-0.523-0.063-1.223,0.367-1.609
							C262.185,151.902,263.071,151.941,263.563,152.243z"/>
					</g>
				</g>
			</g>
		</g>
	</g>
</g>
<g id="Speech_bubble">
	<g>
		<g>
			<path style="fill:none;" d="M341.632,159.781c-0.001,0.001-0.002,0.002-0.003,0.003
				C341.63,159.783,341.631,159.782,341.632,159.781z"/>
			<path style="fill:#BA68C8;" d="M335.922,158.746c0.393-0.699,0.965-1.296,1.684-1.708l36.832-20.887
				c2.029-1.164,6.831,0.414,6.831,3.675v26.489c0,1.622-0.869,3.12-2.278,3.925l-17.155,9.803l2.37-1.354l-1.482,4.202
				c-0.048,0.136-0.188,0.186-0.308,0.152l0.006,0.017c-0.262-0.135-1.427-0.76-2.09-1.199c-0.004-0.002-0.007-0.005-0.011-0.007
				c-0.014-0.009-0.031-0.02-0.044-0.029l0.003-0.008c-0.02-0.017-0.044-0.029-0.059-0.053l-0.364-0.59l-17.694,9.899
				c-3.393,1.939-6.829-0.643-6.829-3.677v-26.436C335.335,160.169,335.547,159.411,335.922,158.746z"/>
			<path style="opacity:0.2;fill:#FFFFFF;" d="M360.222,181.763c0.015,0.025,0.039,0.036,0.059,0.053l-0.003,0.008
				c0.013,0.009,0.03,0.019,0.044,0.029c0.004,0.002,0.007,0.005,0.011,0.007c0.663,0.439,1.828,1.064,2.09,1.199l-0.006-0.017
				c-0.057-0.016-0.11-0.045-0.146-0.103l-1.435-2.325l0.284-0.162l0,0l-1.263,0.721L360.222,181.763z"/>
			<path style="opacity:0.4;fill:#FFFFFF;" d="M340.418,161.3c0.294-0.581,0.698-1.103,1.211-1.517
				c0.001-0.001,0.002-0.002,0.003-0.003c0.171-0.138,0.354-0.264,0.549-0.375l36.832-20.887c1.005-0.576,2.257,0.149,2.257,1.307
				c0-3.261-4.802-4.839-6.831-3.675l-36.832,20.887c-0.719,0.413-1.291,1.01-1.684,1.708L340.418,161.3z"/>
			<path style="opacity:0.2;fill:#FFFFFF;" d="M339.909,189.764v-26.436c0-0.18,0.012-0.359,0.036-0.534
				c0.07-0.525,0.238-1.027,0.473-1.493l-4.497-2.554c-0.374,0.665-0.587,1.423-0.587,2.213v26.436c0,3.034,3.436,5.616,6.829,3.677
				C341.159,191.646,339.909,190.921,339.909,189.764z"/>
		</g>
		<g>
			<g>
				<polygon style="fill:#FFFFFF;" points="361.263,158.991 361.297,171.242 358.281,172.983 358.267,168.204 354.154,170.579 
					354.167,175.358 351.162,177.093 351.127,164.843 354.133,163.108 354.146,167.704 358.259,165.329 358.246,160.733 				"/>
			</g>
			<g>
				<path style="fill:#FFFFFF;" d="M364.718,158.719c-1.063,0.614-1.773,0.248-1.776-0.75c-0.003-0.998,0.703-2.181,1.766-2.795
					c1.063-0.614,1.773-0.3,1.776,0.698C366.487,156.922,365.781,158.106,364.718,158.719z"/>
			</g>
			<g>
				<polygon style="fill:#FFFFFF;" points="363.297,170.087 363.27,160.607 366.172,158.932 366.199,168.411 				"/>
			</g>
			<g>
				<polygon style="fill:#FFFFFF;" points="370.575,161.414 368.266,162.747 367.684,155.284 371.124,153.298 				"/>
			</g>
			<g>
				<path style="fill:#FFFFFF;" d="M369.423,163.065c1.028-0.594,1.728-0.235,1.73,0.803c0.003,1.011-0.692,2.24-1.72,2.834
					c-1.017,0.587-1.728,0.169-1.731-0.842C367.7,164.823,368.406,163.652,369.423,163.065z"/>
			</g>
		</g>
	</g>
</g>
<g id="Character">
	<g>
		<path style="fill:#FFA8A7;" d="M370.349,270.595l6.691,12.923l-6.076,10.176l6.717,10.628l10.147-15.751
			c1.39-2.157,1.755-4.812,1.037-7.275c-3.21-11.014-6.592-17.941-6.592-17.941L370.349,270.595z"/>
		<path style="opacity:0.2;" d="M375.766,267.306l-5.417,3.289l5.082,9.815c0.101-3.849,0.201-7.698,0.302-11.546
			C375.747,268.346,375.758,267.827,375.766,267.306z"/>
		<path style="fill:#BA68C8;" d="M365.034,245.632c7.699-1.432,12.098,1.134,18.605,18.548c-2.658,5.957-13.931,8.157-13.931,8.157
			L365.034,245.632z"/>
		<path style="opacity:0.2;" d="M374.914,259.531c-1.545-4.737-5.449-8.194-9.423-11.288l4.217,24.093c0,0,2.827-0.552,5.983-1.85
			c0.014-0.541,0.028-1.081,0.042-1.622C375.815,265.726,375.887,262.516,374.914,259.531z"/>
		<g>
			<path style="fill:#263238;" d="M353.168,428.097c-0.629,1.32-2.625,2.54-4.81,2.9c-2.185,0.36-4.407-0.113-6.6-0.419
				c-3.26-0.455-6.571-0.539-9.85-0.252c-2.042,0.179-4.08,0.502-6.129,0.438c-2.048-0.064-4.155-0.554-5.762-1.826
				c-1.14-0.902-1.96-2.257-2.163-3.676c-0.267,1.85,0.68,3.784,2.163,4.958c1.607,1.272,3.713,1.761,5.762,1.826
				c2.049,0.064,4.087-0.259,6.129-0.438c3.279-0.287,6.59-0.203,9.85,0.252c2.193,0.306,4.571,0.935,6.756,0.574
				c2.184-0.36,4.18-1.58,4.81-2.9L353.168,428.097z"/>
			<g>
				<path style="fill:#FFFFFF;" d="M329.258,424.2c1.838,0,1.162-2.72,2.911-4.542c-0.711,0.041-1.426,0.053-2.14,0.051
					C328.458,421.973,328.017,424.2,329.258,424.2z"/>
				<path style="fill:#FFFFFF;" d="M333.076,424.058c1.849,0,1.363-3.242,3.18-5.133c-0.414,0.142-0.834,0.267-1.258,0.362
					c-0.362,0.081-0.727,0.143-1.093,0.197C332.286,421.777,331.82,424.058,333.076,424.058z"/>
				<path style="fill:#455A64;" d="M351.268,417.843c-0.124-0.599-0.465-1.132-0.956-1.497l-9.933-0.247
					c-1.016,1.356-2.509,2.272-4.123,2.827c-1.817,1.891-1.331,5.133-3.18,5.133c-1.257,0-0.79-2.281,0.829-4.574
					c-0.575,0.085-1.154,0.14-1.736,0.174c-1.749,1.822-1.073,4.542-2.911,4.542c-1.241,0-0.801-2.227,0.771-4.491
					c-0.464-0.001-0.928-0.007-1.391-0.014c-0.421-0.006-0.845-0.035-1.271-0.07c-3.652,2.888-3.963,6.022-3.491,10.94
					c0.629,0.112,1.268,0.179,1.903,0.199c2.049,0.064,4.087-0.259,6.129-0.438c3.279-0.288,6.59-0.203,9.85,0.252
					c2.193,0.306,4.415,0.779,6.6,0.419c2.185-0.36,4.181-1.58,4.81-2.9L351.268,417.843z"/>
				<path style="fill:#FFFFFF;" d="M327.368,419.626c-1.67-0.136-3.36-0.392-4.966,0c-2.015,0.492-3.944,1.883-4.469,3.89
					c-0.151,0.577-0.161,1.167-0.078,1.748c0.202,1.418,1.022,2.773,2.163,3.676c1.109,0.878,2.457,1.377,3.858,1.626
					C323.404,425.648,323.716,422.514,327.368,419.626z"/>
			</g>
			<path style="fill:#FFA8A7;" d="M340.096,413.268v4.785c0,1.086,0.88,1.966,1.966,1.966h5.007c1.74,0,3.167-1.381,3.224-3.12
				l0.119-3.631H340.096z"/>
		</g>
		<g>
			<path style="fill:#263238;" d="M373.194,411.14c-0.597,1.196-1.682,2.003-3.013,2.11c-1.304,0.105-2.708-0.236-3.813-0.938
				c-1.723-1.094-2.395-2.815-3.57-4.366c-1.172-1.547-2.674-2.811-4.154-4.056c-1.564-1.316-3.132-2.738-3.969-4.602
				c-0.238-0.529-0.391-1.104-0.47-1.688c-0.152,1.08,0.021,2.238,0.47,3.238c0.837,1.865,2.405,3.286,3.969,4.602
				c1.48,1.245,2.982,2.509,4.154,4.056c1.175,1.551,1.847,3.273,3.57,4.367c1.105,0.702,2.509,1.043,3.813,0.938
				c1.331-0.107,2.416-0.914,3.013-2.11c0.205-0.411,0.215-1.629,0.181-2.667C373.352,410.517,373.298,410.932,373.194,411.14z"/>
			<g>
				<path style="fill:#FFFFFF;" d="M361.91,400.637c-0.142,0.249-0.301,0.538-0.242,0.819c0.059,0.281,0.272,0.524,0.543,0.618
					c0.38,0.132,0.809-0.03,1.117-0.289c0.308-0.259,0.527-0.606,0.775-0.922c0.659-0.841,1.554-1.494,2.556-1.864
					c0.491-0.182,1.006-0.293,1.528-0.337c-0.414-0.378-0.828-0.755-1.242-1.133c-0.781,0.048-1.555,0.224-2.264,0.556
					C363.523,398.624,362.542,399.529,361.91,400.637z"/>
				<path style="fill:#FFFFFF;" d="M362.174,396.689c-1.155,0.541-2.137,1.446-2.769,2.554c-0.142,0.249-0.3,0.538-0.242,0.819
					c0.059,0.281,0.272,0.524,0.543,0.618c0.38,0.132,0.809-0.03,1.117-0.289c0.308-0.259,0.527-0.605,0.775-0.922
					c0.659-0.841,1.554-1.494,2.555-1.864c0.799-0.296,1.662-0.403,2.51-0.331c-0.41-0.374-0.819-0.747-1.228-1.12
					C364.324,396.042,363.186,396.216,362.174,396.689z"/>
				<path style="fill:#FFFFFF;" d="M364.651,395.446c-1.183-1.052-2.429-2.046-3.899-2.605c-1.779-0.676-3.987-0.579-5.359,0.74
					c-1.055,1.014-1.387,2.546-1.187,4.019c0.079,0.583,0.233,1.159,0.47,1.688c0.318,0.708,0.742,1.353,1.232,1.952
					C356.384,396.961,360.098,394.959,364.651,395.446z"/>
				<path style="fill:#455A64;" d="M373.294,406.945c-0.111-1.533-0.193-2.857-0.972-4.181l-2.415-2.533
					c-0.574-0.523-1.148-1.047-1.722-1.57c-0.521,0.044-1.037,0.156-1.528,0.337c-1.001,0.371-1.897,1.024-2.556,1.864
					c-0.248,0.317-0.467,0.663-0.775,0.922c-0.308,0.259-0.737,0.421-1.117,0.289c-0.271-0.094-0.484-0.337-0.543-0.618
					c-0.058-0.28,0.1-0.57,0.242-0.819c0.632-1.108,1.614-2.013,2.769-2.554c0.709-0.332,1.483-0.508,2.264-0.556
					c-0.093-0.085-0.186-0.17-0.28-0.255c-0.848-0.071-1.712,0.036-2.51,0.331c-1.001,0.371-1.897,1.024-2.555,1.864
					c-0.248,0.317-0.467,0.663-0.775,0.922c-0.308,0.259-0.737,0.421-1.117,0.289c-0.271-0.094-0.484-0.337-0.543-0.618
					c-0.058-0.281,0.1-0.57,0.242-0.819c0.632-1.108,1.614-2.013,2.769-2.554c1.011-0.473,2.15-0.647,3.261-0.537
					c-0.015-0.014-0.03-0.028-0.045-0.042c-0.244-0.223-0.49-0.445-0.738-0.665c-4.554-0.486-8.267,1.516-8.744,5.794
					c0.797,0.977,1.768,1.834,2.737,2.65c1.48,1.245,2.982,2.509,4.154,4.056c1.175,1.551,1.847,3.273,3.57,4.366
					c1.105,0.702,2.509,1.043,3.813,0.938c1.331-0.107,2.416-0.914,3.013-2.11c0.104-0.208,0.157-0.623,0.181-1.117
					C373.428,408.904,373.326,407.38,373.294,406.945z"/>
			</g>
			<path style="fill:#FFA8A7;" d="M364.579,399.381l0.284,5.134c3.242,1.869,6.649,0.852,7.785-0.331l0.213-4.803H364.579z"/>
		</g>
		<path style="fill:#FFA8A7;" d="M370.964,288.379c-0.274-0.552-0.452-1.149-0.491-1.768l-0.277-4.406l-31.405,2.016
			c-0.416,2.203-0.836,4.901-1.247,7.957C348.634,295.129,360.815,293.727,370.964,288.379z"/>
		<path style="fill:#BA68C8;" d="M350.616,247.68l-8.404,1.653c-1.857,3.399-3.75,6.591-5.608,9.99
			c-1.399,2.56-2.839,5.282-2.733,8.199c0.089,2.438,1.374,4.782,3.313,6.251c1.023,0.775,1.638,1.973,1.53,3.252l-0.779,9.214
			c13.198,4.033,29.328,0.489,32.872-2.566c1.042-4.81,1.965-9.923,3.007-14.733c1.11-5.124,2.229-10.312,0.629-15.673
			c-0.288-0.964-0.725-1.879-1.262-2.73l0,0c-2.24-3.552-6.382-5.428-10.529-4.768L350.616,247.68z"/>
		<path style="opacity:0.2;" d="M336.825,258.926c-0.073,0.133-0.147,0.262-0.22,0.396c-1.399,2.56-2.839,5.282-2.733,8.199
			c0.089,2.438,1.374,4.782,3.313,6.251c1.023,0.775,1.638,1.973,1.53,3.252l-0.26,3.076c2.631-5.181,6.188-12.71,7.687-18.261
			L336.825,258.926z"/>
		<path style="fill:#455A64;" d="M371.451,289.183c-0.191-0.251-0.348-0.523-0.487-0.803c-10.149,5.348-22.33,6.75-33.42,3.799
			c-2.368,17.619-4.402,47.453-3.153,67.136c1.039,22.913,5.255,55.357,5.255,55.357c5.499,1.65,9.623,0.641,11.181-0.55
			c1.833-22.729,5.865-38.31,2.749-53.341c2.078-10.509,3.422-23.707,3.422-23.707l1.589,23.218l5.376,40.816
			c5.255,2.688,9.654-0.489,9.654-0.489c3.91-23.34,5.377-39.156,1.955-50.739C380.795,311.577,381.061,301.778,371.451,289.183z"/>
		<path style="opacity:0.3;" d="M359.312,332.484l2.881-12.091c3.361-0.55,8.615-2.75,11.377-7.36
			c-3.95,3.061-8.946,4.916-13.943,4.916l-2.627,19.125l0.559,8.173l0.226-2.974C358.034,338.974,358.545,335.701,359.312,332.484z"
			/>
		<g>
			<path style="fill:#37474F;" d="M340.38,225.091c-1.164-2.405-1.92-5.082-1.647-7.74c0.273-2.658,1.702-5.283,4.058-6.543
				c2.357-1.26,5.626-0.839,7.264,1.272c4.335-2.156,9.765-2.192,13.795,0.491c4.03,2.683,6.461,7.602,6.144,12.433
				c-0.182,2.781-1.202,5.519-0.888,8.288c0.185,1.629,0.827,3.278,0.399,4.86c-0.357,1.322-1.428,2.359-2.643,2.992
				c-1.215,0.633-4.054,0.469-5.395,0.747c-4.095,3.723-9.243,2.329-12.514-0.995C345.684,237.571,340.38,225.091,340.38,225.091z"
				/>
			<polygon style="fill:#FF9192;" points="339.529,228.789 336.97,233.236 339.773,234.271 			"/>
			<path style="fill:#FFA8A7;" d="M339.24,226.805c0.411-3.901,1.553-7.58,4.093-9.445c-0.88,5.114,0.88,10.964,2.925,13.961
				c0.247-1.286,0.923-2.464,1.891-3.345c0.968-0.881,2.431-1.289,3.635-0.776c0.851,0.363,1.481,1.134,1.828,1.991
				c0.676,1.672,0.288,3.721-0.951,5.031c-1.239,1.31-3.264,1.81-4.971,1.228c0.575,3.483,3.549,6.322,6.996,7.086
				c2.258,0.5,4.619,0.2,6.783-0.645l1.057,5.258c-4.281,4.566-11.594,1.498-11.594,1.498l-0.963-5.173
				c-8.419,0.499-9.204,0.357-10.131-4.281C339.327,236.646,338.739,231.56,339.24,226.805z"/>
			<path style="opacity:0.3;" d="M357.884,221.143c1.202-3.351,3.591-6.331,6.701-8.005c3.576,2.77,5.707,7.344,5.41,11.866
				c-0.182,2.781-1.202,5.519-0.888,8.288c0.185,1.629,0.827,3.278,0.399,4.86c-0.357,1.322-1.428,2.359-2.643,2.992
				c-1.215,0.633-4.054,0.469-5.395,0.747c-0.177,0.161-0.358,0.299-0.538,0.441c-1.389-2.74-2.587-5.574-3.332-8.548
				C356.561,229.635,356.44,225.169,357.884,221.143z"/>
			<path style="fill:#37474F;" d="M360.22,218.22c1.311-4.327,5.614-7.56,10.135-7.616c4.521-0.056,8.902,3.07,10.32,7.363
				c2.539,7.688-3.966,15.861-2.544,23.831c0.512,2.87,2.03,5.485,2.551,8.354c0.601,3.307-0.22,6.848-2.214,9.554
				c-1.994,2.706-5.133,4.539-8.469,4.945c1.829-2.014,1.862-5.128,0.82-7.641c-1.042-2.513-2.899-4.582-4.501-6.781
				C359.857,241.364,357.038,228.718,360.22,218.22z"/>
		</g>
		<g>
			<path style="fill:#FFA8A7;" d="M342.213,249.332c-8.98,1.816-18.073,24.786-18.073,24.786l-8.574-24.009l1.84-8.987
				c0.106-0.519,0.066-1.057-0.115-1.555l-2.037-5.59c-0.204-0.561-0.793-0.882-1.375-0.75l0,0
				c-0.668,0.151-1.069,0.836-0.874,1.493l1.523,5.125l-2.426-4.604c-0.415-0.788-1.397-1.081-2.176-0.648l-1.896,1.054
				c-0.756,0.42-1.037,1.368-0.632,2.132l2.129,4.015c-2.403,6.885-0.26,8.899-0.26,8.899l4.068,25.51
				c0.79,4.957,4.659,8.855,9.61,9.683l0,0c4.605,0.77,9.228-1.28,11.756-5.205C347.924,260.153,355.266,246.97,342.213,249.332z"/>
			<path style="opacity:0.2;" d="M322.775,278.949c0,0,0.65-3.443,1.364-4.83l-1.044-2.922
				C322.227,272.765,321.259,275.58,322.775,278.949z"/>
			<path style="fill:#BA68C8;" d="M342.213,249.332c-3.978,1.102-8.346,3.187-14.522,15.319c0.693,8.747,13.597,6.546,13.597,6.546
				c3.41-6.495,7.082-13.272,7.805-16.458C350.296,249.427,347.879,248.197,342.213,249.332z"/>
		</g>
	</g>
</g>
</svg>
