<?xml version="1.0" encoding="utf-8"?>
<!-- Generator: Adobe Illustrator 27.5.0, SVG Export Plug-In . SVG Version: 6.00 Build 0)  -->
<svg version="1.1" xmlns="http://www.w3.org/2000/svg" xmlns:xlink="http://www.w3.org/1999/xlink" x="0px" y="0px"
	 viewBox="0 0 500 500" style="enable-background:new 0 0 500 500;" xml:space="preserve">
<g id="BACKGROUND">
	<g>

	</g>
</g>
<g id="OBJECTS">
	<g>
		<g>
			<g>
				<path style="fill:#DEDFF2;" d="M413.047,251.857c0,0.007-0.004,0.011-0.004,0.019c-2.83,14.861-8.383,28.62-16.078,40.812
					c-21.257,33.687-58.869,55.415-100.674,55.415h-80.253c-32.59,0-63.686-13.367-86.089-36.872
					c-0.967-1.012-1.915-2.046-2.849-3.095c-12.482-14.058-21.489-30.771-26.294-48.769c-1.602-5.997-2.737-12.135-3.379-18.364
					c-0.015-0.149-0.03-0.295-0.045-0.444c-1.146-11.31-1.467-22.198-0.889-32.481c1.292-22.885,7.061-42.761,18.222-57.581
					c12.986-17.247,33.276-27.642,62.308-27.963c1.206-0.011,2.42-0.011,3.648,0.007c79.992,1.206,77.329,37.683,142.844,53.69
					c14.973,3.659,33.508,6.251,57.409,7.102c0.538,0.019,1.068,0.045,1.591,0.082C416.075,185.562,419.682,217.008,413.047,251.857
					z"/>
			</g>
			<g>
				<g>
					<g>
						<path style="fill:#DCDDF0;" d="M53.283,87.749c0,0,3.967-13.556,12.564-12.564c8.596,0.992,9.919,4.96,17.193,1.984
							c7.274-2.976,9.919-12.564,21.822-10.25c11.903,2.314,13.225,15.54,26.781,14.548c13.556-0.992,18.185-1.323,23.144,6.282
							H53.283L53.283,87.749z"/>
					</g>
				</g>
				<g>
					<g>
						<path style="fill:#DCDDF0;" d="M271.888,61.928c0,0,5.438-12.025,20.288-8.44c14.681,3.544,21.005-17.482,34.077-16.13
							c13.072,1.352,11.892,9.549,28.571,12.254c16.679,2.705,18,0,25.025,12.316H271.888z"/>
					</g>
				</g>
			</g>
			<g style="opacity:0.3;">
				<path style="fill:#FFFFFF;" d="M381.776,183.415c-22.668,11.837-58.081,24.506-100.734,19.887
					c-64.735-7.009-146.224-20.57-185.288,4.776c1.292-22.885,7.061-42.761,18.222-57.581c13.674-3.174,31.062-3.305,53.021,2.367
					c47.585,12.288,109.37,25.712,155.779,23.367c14.973,3.659,33.508,6.251,57.409,7.102
					C380.723,183.351,381.253,183.377,381.776,183.415z"/>
			</g>
			<g style="opacity:0.3;">
				<path style="fill:#FFFFFF;" d="M412.304,251.876c-2.83,14.861-8.383,28.62-16.078,40.812c-16.388,4.933-38.19,6.747-66.43,0.579
					c-68.995-15.074-144.67-14.801-200.586,17.964c-0.967-1.012-1.915-2.046-2.849-3.095
					c-12.482-14.058-21.488-30.771-26.294-48.769c19.54-9.257,68.476-27.235,131.557-12.837
					C298.147,261.711,374.409,273.779,412.304,251.876z"/>
			</g>
		</g>
	</g>
	<g>
		<g>
			<ellipse style="fill:#DEDFF2;" cx="252.462" cy="454.775" rx="201.818" ry="7.968"/>
		</g>
		<g>
			<g>
				<g>
					<g>
						<path style="fill:#A6A4D0;" d="M178.225,455.175c5.282-10.782,14.14-31.03,17.542-51.643
							c5.376-32.581,20.571-34.698,26.568-25.715c14.493,21.709-14.329,59.454-30.037,77.358H178.225z"/>
					</g>
					<g>
						<g>
							<path style="fill:#8383B9;" d="M203.51,420.252c-4.092,9.719-10.255,22.57-18.467,34.923h-1.744
								c8.413-12.498,14.711-25.603,18.865-35.464c6.024-14.3,8.968-25.047,8.998-25.156c0.105-0.385,0.503-0.614,0.89-0.507
								c0.387,0.103,0.615,0.502,0.509,0.889C212.533,395.044,209.567,405.867,203.51,420.252z"/>
						</g>
					</g>
				</g>
				<g>
					<g>
						<path style="fill:#CDCAE8;" d="M183.44,455.175c12.599-13.162,34.1-37.718,48.201-65.202
							c22.646-44.14,45.355-40.195,49.811-24.591c9.547,33.433-35.404,69.27-67.11,89.793H183.44z"/>
					</g>
					<g>
						<g>
							<path style="fill:#A6A4D0;" d="M197.19,455.175h-3.417c16.17-13.254,29.853-27.77,39.592-39.121
								c15.182-17.691,24.327-31.714,24.419-31.856c0.327-0.503,1.002-0.647,1.506-0.318c0.506,0.325,0.65,1.001,0.32,1.505
								c-0.089,0.141-9.3,14.263-24.567,32.06C225.648,428.399,212.602,442.281,197.19,455.175z"/>
						</g>
					</g>
				</g>
			</g>
			<g>
				<g>
					<g>
						<path style="fill:#A6A4D0;" d="M351.129,453.859c-3.516-7.175-9.41-20.651-11.675-34.369
							c-3.578-21.683-13.69-23.092-17.681-17.114c-9.646,14.448,9.536,39.568,19.99,51.484H351.129z"/>
					</g>
					<g>
						<g>
							<path style="fill:#8383B9;" d="M334.301,430.617c2.723,6.468,6.825,15.021,12.29,23.242h1.161
								c-5.599-8.317-9.791-17.039-12.555-23.602c-4.009-9.517-5.969-16.67-5.988-16.742c-0.07-0.256-0.335-0.409-0.592-0.338
								c-0.257,0.069-0.409,0.334-0.339,0.591C328.297,413.84,330.27,421.044,334.301,430.617z"/>
						</g>
					</g>
				</g>
				<g>
					<g>
						<path style="fill:#CDCAE8;" d="M347.658,453.859c-8.385-8.76-22.694-25.102-32.079-43.393
							c-15.071-29.376-30.185-26.75-33.15-16.366c-6.354,22.25,23.562,46.101,44.663,59.759H347.658z"/>
					</g>
					<g>
						<g>
							<path style="fill:#A6A4D0;" d="M338.508,453.859h2.274c-10.761-8.821-19.868-18.482-26.35-26.036
								c-10.104-11.773-16.19-21.106-16.251-21.201c-0.217-0.335-0.667-0.431-1.002-0.211c-0.337,0.216-0.432,0.666-0.213,1.001
								c0.059,0.094,6.189,9.492,16.35,21.337C319.568,436.039,328.25,445.278,338.508,453.859z"/>
						</g>
					</g>
				</g>
			</g>
			<g>
				<path style="fill:#CDCAE8;" d="M119.284,452.657h4.668l-21.523-41.817c0.387-3.986,1.525-9.54,4.458-16.251
					c5.478-12.536,9.086-26.863,0.541-24.972c-7.415,1.641-10.994,18.105-8.951,33.545l-7.528-14.627
					c-1.557-4.922-3.792-11.945-4.199-20.093c-0.942-18.879-5.312-36.579-13.855-30.698c-8.55,5.886-0.453,36.205,15.325,54.559
					l3.874,7.527c-11.265-13.577-31.032-23.468-37.578-17.576c-6.505,5.855,7.252,11.244,20.637,14.071
					c10.189,2.152,16.366,5.896,19.309,8.105l18.298,35.55c-17.9-21.449-49.118-37.029-59.475-27.706
					c-10.321,9.291,11.507,17.842,32.746,22.328c16.05,3.39,25.833,9.272,30.543,12.786L119.284,452.657z"/>
			</g>
			<g>
				<path style="fill:#CDCAE8;" d="M465.146,409.563c-11.096-9.988-44.54,6.703-63.717,29.682l19.603-38.086
					c3.153-2.366,9.77-6.377,20.686-8.683c14.34-3.029,29.078-8.802,22.109-15.075c-7.013-6.313-28.19,4.284-40.259,18.829
					l4.15-8.064c16.904-19.663,25.578-52.144,16.418-58.45c-9.152-6.301-13.834,12.663-14.843,32.888
					c-0.435,8.729-2.831,16.252-4.498,21.526l-8.065,15.67c2.188-16.542-1.645-34.18-9.59-35.938
					c-9.154-2.026-5.289,13.323,0.58,26.753c3.142,7.19,4.361,13.14,4.776,17.41l-23.28,45.23h5.001l3.126-6.075
					c5.046-3.765,15.527-10.067,32.721-13.698C452.819,428.677,476.203,419.516,465.146,409.563z"/>
			</g>
		</g>
	</g>
	<g>
		<g>
			<g>
				<g>
					<g>
						<path style="fill:#006E85;" d="M442.392,208.425c2.86,0,5.187,2.327,5.187,5.187s-2.327,5.187-5.187,5.187
							c-2.86,0-5.187-2.327-5.187-5.187S439.532,208.425,442.392,208.425z M442.392,210.052c-1.963,0-3.559,1.597-3.559,3.559
							c0,1.963,1.597,3.559,3.559,3.559s3.56-1.597,3.56-3.559C445.951,211.649,444.354,210.052,442.392,210.052z"/>
					</g>
				</g>
				<g>
					<g>
						<path style="fill:#331034;" d="M437.115,182.064c2.86,0,5.187,2.327,5.187,5.187c0,2.86-2.327,5.187-5.187,5.187
							c-2.86,0-5.187-2.327-5.187-5.187C431.929,184.391,434.255,182.064,437.115,182.064z M437.115,183.691
							c-1.963,0-3.559,1.597-3.559,3.559c0,1.963,1.597,3.559,3.559,3.559c1.963,0,3.559-1.597,3.559-3.559
							C440.675,185.288,439.078,183.691,437.115,183.691z"/>
					</g>
				</g>
				<g>
					<g>
						<g>
							<g>
								<path style="fill:#FF4950;" d="M421.338,174.76c0,0.449,0.364,0.814,0.814,0.814h3.588c0.449,0,0.814-0.364,0.814-0.814
									c0-0.449-0.364-0.813-0.814-0.813h-3.588C421.703,173.947,421.338,174.311,421.338,174.76z"/>
							</g>
						</g>
						<g>
							<g>
								<path style="fill:#FF4950;" d="M415.06,174.76c0,0.449,0.364,0.814,0.814,0.814h3.588c0.449,0,0.813-0.364,0.813-0.814
									c0-0.449-0.364-0.813-0.813-0.813h-3.588C415.424,173.947,415.06,174.311,415.06,174.76z"/>
							</g>
						</g>
					</g>
					<g>
						<g>
							<g>
								<path style="fill:#FF4950;" d="M419.993,169.724v3.223c0,0.449,0.364,0.814,0.814,0.814c0.449,0,0.814-0.364,0.814-0.814
									v-3.223c0-0.449-0.364-0.814-0.814-0.814C420.357,168.91,419.993,169.275,419.993,169.724z"/>
							</g>
						</g>
						<g>
							<g>
								<path style="fill:#FF4950;" d="M419.993,176.573v3.223c0,0.449,0.364,0.814,0.814,0.814c0.449,0,0.814-0.364,0.814-0.814
									v-3.223c0-0.449-0.364-0.814-0.814-0.814C420.357,175.76,419.993,176.124,419.993,176.573z"/>
							</g>
						</g>
					</g>
				</g>
				<g>
					<g>
						<g>
							<g>
								<path style="fill:#365592;" d="M427.189,202.462c0,0.449,0.364,0.814,0.814,0.814h3.588c0.449,0,0.814-0.364,0.814-0.814
									c0-0.449-0.364-0.814-0.814-0.814h-3.588C427.553,201.648,427.189,202.013,427.189,202.462z"/>
							</g>
						</g>
						<g>
							<g>
								<path style="fill:#365592;" d="M420.91,202.462c0,0.449,0.364,0.814,0.814,0.814h3.588c0.449,0,0.814-0.364,0.814-0.814
									c0-0.449-0.364-0.814-0.814-0.814h-3.588C421.275,201.648,420.91,202.013,420.91,202.462z"/>
							</g>
						</g>
					</g>
					<g>
						<g>
							<g>
								<path style="fill:#365592;" d="M425.844,197.426v3.223c0,0.449,0.364,0.814,0.814,0.814c0.449,0,0.814-0.364,0.814-0.814
									v-3.223c0-0.449-0.364-0.814-0.814-0.814C426.208,196.612,425.844,196.977,425.844,197.426z"/>
							</g>
						</g>
						<g>
							<g>
								<path style="fill:#365592;" d="M425.844,204.275v3.223c0,0.449,0.364,0.814,0.814,0.814c0.449,0,0.814-0.364,0.814-0.814
									v-3.223c0-0.449-0.364-0.814-0.814-0.814C426.208,203.462,425.844,203.826,425.844,204.275z"/>
							</g>
						</g>
					</g>
				</g>
			</g>
		</g>
		<g>
			<g>
				<g>
					<g>
						<path style="fill:#006E85;" d="M84.58,159.663c0,2.86-2.327,5.187-5.187,5.187s-5.187-2.327-5.187-5.187
							s2.327-5.187,5.187-5.187S84.58,156.804,84.58,159.663z M75.834,159.663c0,1.963,1.597,3.559,3.56,3.559
							s3.56-1.597,3.56-3.559c0-1.963-1.597-3.559-3.56-3.559S75.834,157.701,75.834,159.663z"/>
					</g>
				</g>
				<g>
					<g>
						<path style="fill:#331034;" d="M89.857,133.303c0,2.86-2.327,5.187-5.186,5.187c-2.86,0-5.187-2.327-5.187-5.187
							c0-2.86,2.327-5.187,5.187-5.187C87.53,128.116,89.857,130.443,89.857,133.303z M81.111,133.303
							c0,1.963,1.597,3.559,3.56,3.559c1.963,0,3.559-1.597,3.559-3.559c0-1.963-1.597-3.559-3.559-3.559
							C82.707,129.743,81.111,131.34,81.111,133.303z"/>
					</g>
				</g>
				<g>
					<g>
						<g>
							<g>
								<path style="fill:#FF4950;" d="M100.447,120.812c0,0.449-0.364,0.814-0.813,0.814h-3.588c-0.449,0-0.813-0.364-0.813-0.814
									c0-0.449,0.364-0.813,0.813-0.813h3.588C100.083,119.999,100.447,120.363,100.447,120.812z"/>
							</g>
						</g>
						<g>
							<g>
								<path style="fill:#FF4950;" d="M106.725,120.812c0,0.449-0.364,0.814-0.813,0.814h-3.588c-0.449,0-0.813-0.364-0.813-0.814
									c0-0.449,0.364-0.813,0.813-0.813h3.588C106.361,119.999,106.725,120.363,106.725,120.812z"/>
							</g>
						</g>
					</g>
					<g>
						<g>
							<g>
								<path style="fill:#FF4950;" d="M101.792,115.776v3.223c0,0.449-0.364,0.814-0.814,0.814c-0.449,0-0.813-0.364-0.813-0.814
									v-3.223c0-0.449,0.364-0.813,0.813-0.813C101.428,114.963,101.792,115.327,101.792,115.776z"/>
							</g>
						</g>
						<g>
							<g>
								<path style="fill:#FF4950;" d="M101.792,122.625v3.223c0,0.449-0.364,0.813-0.814,0.813c-0.449,0-0.813-0.364-0.813-0.813
									v-3.223c0-0.449,0.364-0.814,0.813-0.814C101.428,121.812,101.792,122.176,101.792,122.625z"/>
							</g>
						</g>
					</g>
				</g>
				<g>
					<g>
						<g>
							<g>
								<path style="fill:#365592;" d="M94.596,148.514c0,0.449-0.364,0.814-0.814,0.814h-3.588c-0.449,0-0.813-0.364-0.813-0.814
									c0-0.449,0.364-0.814,0.813-0.814h3.588C94.232,147.701,94.596,148.065,94.596,148.514z"/>
							</g>
						</g>
						<g>
							<g>
								<path style="fill:#365592;" d="M100.875,148.514c0,0.449-0.364,0.814-0.814,0.814h-3.588c-0.449,0-0.814-0.364-0.814-0.814
									c0-0.449,0.364-0.814,0.814-0.814h3.588C100.51,147.701,100.875,148.065,100.875,148.514z"/>
							</g>
						</g>
					</g>
					<g>
						<g>
							<g>
								<path style="fill:#365592;" d="M95.941,143.478v3.223c0,0.449-0.364,0.814-0.813,0.814c-0.45,0-0.814-0.364-0.814-0.814
									v-3.223c0-0.449,0.364-0.814,0.814-0.814C95.577,142.665,95.941,143.029,95.941,143.478z"/>
							</g>
						</g>
						<g>
							<g>
								<path style="fill:#365592;" d="M95.941,150.327v3.223c0,0.449-0.364,0.814-0.813,0.814c-0.45,0-0.814-0.364-0.814-0.814
									v-3.223c0-0.449,0.364-0.814,0.814-0.814C95.577,149.514,95.941,149.878,95.941,150.327z"/>
							</g>
						</g>
					</g>
				</g>
			</g>
		</g>
	</g>
	<g>
		<g>
			<g>
				<g>
					<g>
						<path style="fill:#365592;" d="M220.355,172.866c-8.526-3.789-17.636-9.02-23.857-12.79c-0.38-0.232-0.748-0.456-1.101-0.675
							c-4.003-2.446-6.557-4.132-6.557-4.132V136.1c0,0,20.092,9.812,33.652,17.722c0.529,0.305,1.045,0.609,1.552,0.911
							c0.329,0.192,0.656,0.39,0.972,0.58c0.007,0.005,0.012,0.007,0.019,0.012c0.363,0.222,0.719,0.441,1.07,0.65
							c3.911,2.407,6.881,4.501,8.014,5.88C239.075,167.915,235.218,179.474,220.355,172.866z"/>
					</g>
				</g>
				<g>
					<path style="fill:#331034;" d="M225.036,155.325l-6.503,5.982l3.96-7.485c0.529,0.305,1.045,0.609,1.552,0.911
						c0.329,0.192,0.656,0.39,0.972,0.58C225.023,155.317,225.028,155.32,225.036,155.325z"/>
				</g>
				<g>
					<g>
						<path style="fill:#152A6F;" d="M196.498,160.075c-0.38-0.231-0.747-0.454-1.102-0.673c-0.539-3.667-1.912-12.735-2.788-16.107
							c-0.067-0.266,0.092-0.536,0.357-0.606c0.266-0.069,0.536,0.092,0.603,0.358C194.546,146.807,196.076,157.153,196.498,160.075
							z"/>
					</g>
				</g>
				<g>
					<g>
						<g>
							<path style="fill:#365592;" d="M213.578,167.363c0,0,28.209-29.644,33.542-35.371c8.261-8.872,17.246-3.417,8.789,10.481
								c-12.28,20.182-14.697,27.912-23.794,31.771c-1.718,0.729-3.676,0.631-5.341-0.211L213.578,167.363z"/>
						</g>
					</g>
				</g>
				<g>
					<g>
						<g>
							<g>
								<g>
									<path style="fill:#EE7266;" d="M255.422,118.996c0,0,1.187-4.73,3.663-7.018c2.477-2.288,4.918-9.384,6.957-8.075
										c1.72,1.105-5.338,11.013-6.208,14.957C258.919,123.018,255.422,118.996,255.422,118.996z"/>
								</g>
							</g>
						</g>
					</g>
					<g>
						<g>
							<g>
								<path style="fill:#FD9B82;" d="M258.514,121.573c0,0-0.307-7.378,1.544-10.363c1.851-2.985,2.801-9.432,4.05-9.778
									c1.249-0.346,1.071,4.456-0.645,8.55C261.747,114.077,258.514,121.573,258.514,121.573z"/>
							</g>
						</g>
					</g>
					<g>
						<g>
							<g>
								<g>
									<path style="fill:#FD9B82;" d="M259.724,120.011c0,0,2.572-5.931,3.815-5.867c1.243,0.064,1.47,4.555-1.704,9.952
										c-0.94,1.598-0.986,4.299-2.153,7.347c-1.402,3.663-4.28,3.632-7.898,2.118c-0.438-0.183-1.487-0.951-1.775-1.803
										c0,0,1.766-14.285,5.082-18.337c3.316-4.052,5.645-12.357,7.071-13.247c1.426-0.891,1.136,4.349,0.29,7.921
										C261.606,111.669,259.724,120.011,259.724,120.011z"/>
								</g>
							</g>
						</g>
					</g>
				</g>
			</g>
			<g>
				<g>
					<g>
						<g>
							<g>
								<g>
									<path style="fill:#FD9B82;" d="M245.24,431.838c-1.927,4.176-10.874,5.875-10.874,5.875l-2.684-6.891l-1.445-3.708
										c1.101-5.231,11.838-6.676,11.838-6.676l0.501,1.806L245.24,431.838z"/>
								</g>
							</g>
							<g>
								<g>
									<path style="fill:#331034;" d="M242.576,422.244c-3.173,1.826-8.132,5.23-10.894,8.578l-1.445-3.708
										c1.101-5.231,11.838-6.676,11.838-6.676L242.576,422.244z"/>
								</g>
							</g>
							<g>
								<g>
									<g>
										<g>
											<g>
												<g>
													<path style="fill:#006E85;" d="M237.856,434.081c0,0,0.912-5.806,5.451-6.33c2.905-0.336,1.622,4.402,4.083,4.344
														c2.461-0.058,13.482-8.53,23.779-8.338c3.242,0.061,5.819,4.726,5.819,4.726s-8.405-0.394-15.907,6.441
														c-7.502,6.834-9.23,7.432-14.578,12.032c-3.641,3.132-5.534,6.237-7.987,5.885c-2.454-0.352-5.469-15.874-5.469-15.874
														L237.856,434.081z"/>
												</g>
											</g>
										</g>
									</g>
								</g>
							</g>
							<g>
								<g>
									<g>
										<g>
											<g>
												<g>
													<g>
														<path style="fill:#FFFFFF;" d="M248.611,430.638c-0.003-0.002-0.007-0.003-0.01-0.005
															c-0.197-0.098-0.435-0.061-0.588,0.097c-0.772,0.793-1.091,1.624-1.114,1.687c-0.097,0.264,0.039,0.556,0.302,0.652
															c0.263,0.097,0.555-0.038,0.652-0.301c0.02-0.053,0.274-0.704,0.882-1.326
															C248.974,431.196,248.919,430.792,248.611,430.638z"/>
													</g>
												</g>
											</g>
										</g>
									</g>
								</g>
							</g>
							<g>
								<g>
									<g>
										<g>
											<g>
												<g>
													<g>
														<path style="fill:#FFFFFF;" d="M251.051,429.613c-0.003-0.002-0.007-0.003-0.01-0.005
															c-0.197-0.098-0.434-0.061-0.588,0.096c-0.772,0.793-1.091,1.624-1.114,1.687c-0.097,0.264,0.039,0.556,0.302,0.652
															c0.263,0.097,0.555-0.038,0.652-0.301c0.02-0.053,0.274-0.704,0.881-1.326
															C251.414,430.171,251.358,429.767,251.051,429.613z"/>
													</g>
												</g>
											</g>
										</g>
									</g>
								</g>
							</g>
							<g>
								<g>
									<g>
										<g>
											<g>
												<g>
													<g>
														<path style="fill:#FFFFFF;" d="M253.54,428.542c-0.004-0.002-0.007-0.003-0.01-0.005
															c-0.197-0.098-0.435-0.061-0.588,0.097c-0.772,0.793-1.091,1.624-1.114,1.687c-0.097,0.264,0.039,0.556,0.302,0.652
															c0.263,0.097,0.555-0.038,0.652-0.301c0.02-0.054,0.274-0.704,0.881-1.326
															C253.903,429.1,253.847,428.696,253.54,428.542z"/>
													</g>
												</g>
											</g>
										</g>
									</g>
								</g>
							</g>
							<g>
								<g>
									<g>
										<g>
											<g>
												<g>
													<path style="fill:#124064;" d="M273.995,434.621c-5.097,4.213-14.539,10.703-18.485,13.504
														c-3.946,2.798-8.111,6.514-11.594,6.451c-3.486-0.063-5.402-1.736-5.402-1.736c2.217,0.169,4.395-2.698,7.987-5.885
														c4.235-3.757,4.328-4.173,13.121-11.209c5.388-4.311,10.783-7.489,14.487-7.831c2-0.185,3.6,0.186,3.092,2.129
														C276.847,431.401,275.955,433.002,273.995,434.621z"/>
												</g>
											</g>
										</g>
									</g>
								</g>
							</g>
						</g>
					</g>
					<g>
						<g>
							<g>
								<g>
									<g>
										<path style="fill:#331034;" d="M206.693,254.81c-11.104-3.304-26.67,7.54-33.684,14.098
											c5.345,18.16,25.079,70.212,31.194,75.774c10.138,9.217,20.315,2.246,16.455-17.54
											C218.796,317.601,209.492,265.171,206.693,254.81z"/>
									</g>
								</g>
							</g>
						</g>
					</g>
					<g>
						<g>
							<g>
								<g>
									<g>
										<path style="fill:#331034;" d="M229.005,426.709c4.041-2.956,9.197-5.524,13.391-7.533
											c-1.619-7.201-1.747-9.022-2.852-13.373c-4.666-18.378-5.732-26.238-9.255-40.219
											c-3.965-15.735-9.631-38.443-9.631-38.443c-3.788,0.767-18.956,14.08-18.956,14.08
											c-1.911,10.813,15.02,56.175,26.756,84.185C228.64,425.84,228.823,426.275,229.005,426.709z"/>
									</g>
								</g>
							</g>
						</g>
					</g>
					<g>
						<g>
							<g>
								<path style="fill:#623B61;" d="M231.751,425.325c-0.223,0-0.432-0.136-0.515-0.356c-0.091-0.241-9.179-24.333-17.343-45.559
									c-7.775-20.213-8.754-36.637-8.839-38.424c-10.666-16.036-27.429-73.384-27.597-73.963
									c-0.085-0.292,0.083-0.597,0.375-0.682c0.291-0.086,0.598,0.082,0.682,0.375c0.168,0.579,16.974,58.072,27.54,73.786
									c0.057,0.086,0.09,0.186,0.093,0.289c0.005,0.169,0.647,17.095,8.773,38.225c8.165,21.23,17.254,45.325,17.345,45.566
									c0.107,0.285-0.036,0.602-0.321,0.71C231.881,425.313,231.815,425.325,231.751,425.325z"/>
							</g>
						</g>
					</g>
					<g>
						<g>
							<path style="fill:#623B61;" d="M227.415,424.568c0,0,0.482,3.61,2.134,4.987c0,0,7.227-7.395,13.765-8.29
								c0,0,1.198-3.432-1.604-5.226C241.71,416.038,231.2,418.993,227.415,424.568z"/>
						</g>
					</g>
				</g>
				<g>
					<g>
						<g>
							<g>
								<path style="fill:#FD9B82;" d="M148.269,419.029l-0.171,5.101l-0.248,7.43c-5.622,8.424-13.437,6.53-14.748,2.849
									l0.421-7.857l0.424-7.912L148.269,419.029z"/>
							</g>
						</g>
						<g>
							<g>
								<path style="fill:#331034;" d="M148.269,419.029l-0.171,5.101c-3.609,0.906-8.909,2.007-14.574,2.423l0.424-7.912
									L148.269,419.029z"/>
							</g>
						</g>
						<g>
							<g>
								<g>
									<g>
										<g>
											<g>
												<path style="fill:#006E85;" d="M163.467,453.006c-0.256,3.654-17.321,2.863-21.998,1.889
													c-4.68-0.971-8.32-1.622-9.708-3.406c-0.312-0.406-0.499-1.467-0.582-2.891c-0.279-4.875,0.654-14.016,1.869-15.775
													c0,0,0,0.003,0.003,0.011c0.155,1.016,3.578,2.501,3.836,1.503c0.793-3.061,2.719-6.751,8.047-6.3
													c5.771,0.487,6.24,6.005,6.24,6.005s0.413,5.674,5.013,7.83c5.601,2.624,7.239,6.239,7.31,9.881
													C163.508,452.171,163.496,452.589,163.467,453.006z"/>
											</g>
										</g>
									</g>
								</g>
							</g>
							<g>
								<g>
									<g>
										<g>
											<g>
												<path style="fill:#FFFFFF;" d="M144.077,441.103c-0.154,0-0.31-0.045-0.442-0.139c-0.324-0.229-0.389-0.66-0.144-0.964
													c0.041-0.05,4.11-4.984,9.742-1.699c0.344,0.201,0.45,0.626,0.235,0.948c-0.215,0.323-0.668,0.421-1.012,0.22
													c-4.503-2.627-7.658,1.196-7.791,1.36C144.52,441.008,144.3,441.103,144.077,441.103z"/>
											</g>
										</g>
									</g>
								</g>
							</g>
							<g>
								<g>
									<g>
										<g>
											<g>
												<path style="fill:#FFFFFF;" d="M145.891,442.745c-0.154,0-0.309-0.045-0.442-0.139
													c-0.324-0.229-0.389-0.661-0.144-0.964c0.04-0.05,4.11-4.984,9.742-1.699c0.344,0.201,0.45,0.626,0.235,0.948
													c-0.215,0.322-0.668,0.421-1.012,0.22c-4.503-2.627-7.659,1.196-7.791,1.36
													C146.334,442.65,146.113,442.745,145.891,442.745z"/>
											</g>
										</g>
									</g>
								</g>
							</g>
							<g>
								<g>
									<g>
										<g>
											<g>
												<path style="fill:#FFFFFF;" d="M148.46,444.438c-0.154,0-0.31-0.045-0.442-0.139c-0.324-0.229-0.389-0.661-0.144-0.964
													c0.041-0.051,4.11-4.984,9.742-1.699c0.345,0.201,0.45,0.626,0.235,0.948c-0.215,0.322-0.668,0.421-1.012,0.22
													c-4.503-2.628-7.659,1.196-7.791,1.36C148.903,444.343,148.683,444.438,148.46,444.438z"/>
											</g>
										</g>
									</g>
								</g>
							</g>
							<g>
								<g>
									<g>
										<g>
											<g>
												<path style="fill:#124064;" d="M163.467,453.006c-0.256,3.654-17.321,2.863-21.998,1.889
													c-4.68-0.971-8.32-1.622-9.708-3.406c-0.312-0.406-0.499-1.467-0.582-2.891c2.344,1.6,6.047,3.489,10.796,3.851
													c7.794,0.593,15.425,0.957,21.523-0.696C163.508,452.171,163.496,452.589,163.467,453.006z"/>
											</g>
										</g>
									</g>
								</g>
							</g>
						</g>
					</g>
					<g>
						<g>
							<g>
								<g>
									<g>
										<path style="fill:#331034;" d="M136.731,327.807c0,0-6.585,15.193-6.249,28.823c0.336,13.631,2.191,55.058,1.568,63.702
											c0,0,12.071,4.156,17.803-0.438c2.692-31.642,5.485-62.86,9.743-87.902L136.731,327.807z"/>
									</g>
								</g>
							</g>
						</g>
					</g>
					<g>
						<g>
							<g>
								<g>
									<g>
										<path style="fill:#331034;" d="M177.82,258.825c0,0-3.523,19.158-13.357,57.931c-8.657,34.12-20.135,34.905-25.981,25.859
											c-0.356-0.545-0.69-1.13-0.999-1.745c-0.309-0.607-0.593-1.244-0.854-1.906c-4.897-12.405,6.776-84.92,6.776-84.92
											l5.51,0.765l1.383,0.192L177.82,258.825z"/>
									</g>
								</g>
							</g>
						</g>
					</g>
					<g>
						<g>
							<g>
								<g>
									<g>
										<path style="fill:#331034;" d="M170.798,290.925c0,0,20.338-26.468,35.895-34.858l-63.288-2.021
											C143.405,254.045,157.859,288.281,170.798,290.925z"/>
									</g>
								</g>
							</g>
						</g>
					</g>
					<g>
						<g>
							<g>
								<g>
									<g>
										<g>
											<path style="fill:#623B61;" d="M141.668,330.739c0.003,0.075-0.008,0.153-0.031,0.225
												c-0.028,0.095-1.619,5.304-3.155,11.651c-1.263,5.215-2.493,11.197-2.794,15.741c-0.913,13.721,0.423,61.22,0.437,61.699
												c0.011,0.384-0.292,0.704-0.676,0.715h-0.02c-0.376,0-0.685-0.301-0.696-0.676c-0.014-0.479-1.35-48.045-0.434-61.832
												c0.334-5.048,1.786-11.812,3.183-17.391c1.311-5.259,2.568-9.469,2.791-10.201c-0.837-26.591,6.342-64.501,8.64-75.859
												l1.383,0.192C148.024,266.218,140.808,304.218,141.668,330.739z"/>
										</g>
									</g>
								</g>
							</g>
						</g>
					</g>
					<g>
						<g>
							<g>
								<g>
									<g>
										<path style="fill:#623B61;" d="M130.823,417.273l-0.461,4.073c0,0,4.659,2.893,12.071,2.562
											c7.791-0.348,9.152-3.362,9.152-3.362v-3.032c0-0.744-0.704-1.284-1.422-1.089c-2.774,0.752-9.392,1.992-17.944-0.118
											C131.556,416.144,130.899,416.595,130.823,417.273z"/>
									</g>
								</g>
							</g>
						</g>
					</g>
				</g>
			</g>
			<g>
				<g>
					<g>
						<path style="fill:#365592;" d="M132.65,143.6c0,0-16.483-5.694-5.555-18.844c10.927-13.15,36.391-7.289,40.373-3.914
							c8.765,7.431,4.137,13.215,4.137,13.215S158.395,147.821,132.65,143.6z"/>
					</g>
				</g>
				<g>
					<g>
						<g>
							<path style="fill:#152A6F;" d="M132.185,131.043c-0.197,0-0.388-0.107-0.487-0.293c-0.142-0.269-0.04-0.602,0.229-0.744
								c0.445-0.236,11.023-5.763,22.132-4.777c0.303,0.027,0.527,0.294,0.5,0.597c-0.027,0.303-0.294,0.527-0.597,0.5
								c-10.783-0.955-21.413,4.597-21.52,4.653C132.36,131.022,132.272,131.043,132.185,131.043z"/>
						</g>
					</g>
					<g>
						<g>
							<path style="fill:#152A6F;" d="M147.479,126.445c-0.161,0-0.321-0.07-0.429-0.206c-1.758-2.186-7.247-3.133-7.303-3.142
								c-0.3-0.05-0.502-0.334-0.451-0.634c0.051-0.3,0.336-0.502,0.634-0.451c0.242,0.041,5.958,1.026,7.978,3.538
								c0.191,0.237,0.153,0.584-0.084,0.774C147.722,126.405,147.6,126.445,147.479,126.445z"/>
						</g>
					</g>
				</g>
			</g>
			<g>
				<g>
					<path style="fill:#365592;" d="M190.406,256.791c-20.261-0.919-50.141,12.049-51.864,6.54
						c-0.931-2.98-1.309-20.665-1.46-36.277c-0.037-3.847-0.058-7.571-0.073-10.914c-0.034-8.17-0.017-14.089-0.017-14.089
						s-0.224-2.137-0.597-5.341c-0.292-2.497-0.675-5.646-1.113-8.94c-0.787-5.867-1.757-12.198-2.717-16.14
						c-2.193-8.996-8.76-26.679-2.995-31.384c11.011-9.359,19.081-14.033,19.081-14.033l15.163-0.436c0,0,24.12,4.834,27.337,13.645
						c0.85,2.322,2.405,9.973,4.271,20.183c0.027,0.163,0.056,0.327,0.085,0.49c0.049,0.256,0.093,0.512,0.144,0.77
						c0.012,0.075,0.027,0.156,0.041,0.234c0.029,0.166,0.056,0.327,0.088,0.49c0.022,0.124,0.044,0.251,0.068,0.378
						c0.695,3.857,1.43,8.024,2.181,12.371v0.003c0.906,5.244,1.84,10.748,2.768,16.269v0.002c4.025,24.03,7.912,48.448,8.884,53.75
						C211.612,254.878,208.408,257.61,190.406,256.791z"/>
				</g>
			</g>
			<g>
				<path style="fill:#152A6F;" d="M172.314,213.694l-35.231,13.36c-0.037-3.847-0.058-7.571-0.073-10.914
					C146.805,215.473,172.314,213.694,172.314,213.694z"/>
			</g>
			<g>
				<g>
					<path style="fill:#152A6F;" d="M167.713,139.797c-0.214-0.252-0.592-0.26-0.817-0.028c-3.025,3.127-6.885,4.386-11.512,3.768
						c-0.324-0.043-0.611,0.212-0.611,0.539l0,0c0,0.271,0.2,0.505,0.469,0.54c4.953,0.64,9.19-0.728,12.426-4.06
						C167.868,140.35,167.899,140.016,167.713,139.797z"/>
				</g>
			</g>
			<g>
				<g>
					<path style="fill:#152A6F;" d="M151.118,190.113l-0.209,0.432l-7.106,14.766l-7.406-8.601
						c-0.293-2.498-0.675-5.646-1.115-8.938l5.472-11.218l10.009,13.095L151.118,190.113z"/>
				</g>
				<g>
					<polygon style="fill:#152A6F;" points="150.535,190.113 158.39,174.012 168.754,187.57 161.438,202.768 					"/>
				</g>
				<g>
					<polygon style="fill:#152A6F;" points="168.494,187.685 176.349,171.585 186.712,185.143 179.396,200.341 					"/>
				</g>
				<g>
					<path style="fill:#152A6F;" d="M200.798,190.61v0.002l-3.58,7.434l-10.724-12.449l-0.179-0.206l0.228-0.469l7.628-15.63
						l3.859,5.045v0.003C198.936,179.583,199.87,185.088,200.798,190.61z"/>
				</g>
			</g>
			<g>
				<g>
					<path style="fill:#152A6F;" d="M160.646,241.375c-0.279,0-0.518-0.21-0.547-0.494c-0.031-0.303,0.188-0.573,0.491-0.605
						c0.21-0.022,21.058-2.281,27.818-10.806c0.189-0.238,0.535-0.278,0.773-0.089c0.238,0.189,0.278,0.535,0.089,0.773
						c-7.048,8.889-27.692,11.127-28.568,11.217C160.684,241.374,160.665,241.375,160.646,241.375z"/>
				</g>
			</g>
			<g>
				<g>
					<path style="fill:#152A6F;" d="M156.734,235.869c-0.272,0-0.509-0.202-0.545-0.479c-0.04-0.302,0.173-0.578,0.474-0.618
						c0.067-0.009,6.806-0.922,14.533-4.018c7.089-2.84,16.49-8.153,21.016-17.337c0.134-0.273,0.464-0.385,0.737-0.251
						c0.273,0.134,0.385,0.464,0.251,0.737c-4.683,9.504-14.341,14.97-21.619,17.882c-7.851,3.141-14.706,4.068-14.774,4.077
						C156.782,235.867,156.758,235.869,156.734,235.869z"/>
				</g>
			</g>
			<g>
				<g>
					<path style="fill:#FFFFFF;" d="M162.084,209.865c0.314,0,0.565-0.26,0.552-0.574c-1.338-30.978-10.773-67.138-10.877-67.532
						c-0.077-0.294-0.379-0.47-0.673-0.392c-0.294,0.077-0.47,0.379-0.392,0.673c0.103,0.392,9.512,36.45,10.842,67.301
						C161.548,209.635,161.79,209.865,162.084,209.865L162.084,209.865z"/>
				</g>
			</g>
			<g>
				<g>
					<path style="fill:#FFFFFF;" d="M180.997,207.983c0.314,0,0.565-0.261,0.551-0.574c-1.359-30.948-10.767-67.004-10.87-67.397
						c-0.077-0.294-0.379-0.469-0.673-0.392c-0.294,0.077-0.47,0.379-0.392,0.673c0.103,0.392,9.484,36.346,10.835,67.167
						C180.462,207.753,180.703,207.983,180.997,207.983L180.997,207.983z"/>
				</g>
			</g>
			<g>
				<g>
					<path style="fill:#152A6F;" d="M158.319,140.145c-1.203,0-2.462-0.1-3.777-0.301c-5.545-0.849-10.034-3.158-10.223-3.256
						c-0.27-0.14-0.375-0.473-0.235-0.742c0.14-0.27,0.473-0.375,0.742-0.235c0.045,0.023,4.538,2.332,9.907,3.149
						c7.078,1.077,12.257-0.816,15.394-5.625c0.166-0.255,0.507-0.327,0.762-0.16c0.255,0.166,0.327,0.507,0.16,0.762
						C168.292,137.965,163.932,140.145,158.319,140.145z"/>
				</g>
			</g>
			<g>
				<g>
					<path style="fill:#331034;" d="M139.479,102.595c0,0-8.645,9.146-6.618,11.777c2.027,2.632,5.358-1.684,5.358-1.684
						s-3.778,5.646-0.959,6.992c2.819,1.346,6.083-4.244,6.083-4.244s-2.083,8.355,1.543,7.556c3.627-0.799,3.186-7.556,3.186-7.556
						L139.479,102.595z"/>
				</g>
				<g>
					<path style="fill:#331034;" d="M177.04,104.438c0,0,8.645,9.146,6.618,11.777c-2.027,2.632-5.357-1.684-5.357-1.684
						s3.778,5.646,0.959,6.992c-2.819,1.346-6.083-4.244-6.083-4.244s2.083,8.355-1.543,7.556c-3.627-0.799-3.186-7.556-3.186-7.556
						L177.04,104.438z"/>
				</g>
				<g>
					<g>
						<g>
							<g>
								<g>
									<g>
										<path style="fill:#FD9B82;" d="M161.493,137.519c-6.893,1.186-13.743-4.196-13.743-4.196
											c0.978-4.263,0.997-9.301,0.612-13.012c-0.194-1.876-0.413-3.105-0.413-3.105l18.375,6.742l0.684,6.854l0.167,1.675
											C167.174,132.477,167.258,136.527,161.493,137.519z"/>
									</g>
								</g>
							</g>
						</g>
					</g>
					<g>
						<g>
							<g>
								<g>
									<g>
										<path style="fill:#331034;" d="M167.008,130.802c-9.3-0.599-16.131-7.544-18.756-11.476
											c-0.194-1.876-0.303-2.12-0.303-2.12l18.375,6.742L167.008,130.802z"/>
									</g>
								</g>
							</g>
						</g>
					</g>
				</g>
				<g>
					<g>
						<g>
							<g>
								<g>
									<path style="fill:#EE7266;" d="M174.647,96.589c0,0,1.143-4.635,5.669-4.013c4.525,0.622,5.594,19.096-5.494,18.412
										L174.647,96.589z"/>
								</g>
							</g>
						</g>
					</g>
				</g>
				<g>
					<g>
						<g>
							<g>
								<g>
									<path style="fill:#FD9B82;" d="M178.848,112.005c-1.536,8.889-7.08,15.363-16.545,14.367
										c-20.676-2.18-23.912-31.154-23.912-31.154c-1.563-14.944,10.219-22.47,24.394-19.956
										c14.175,2.516,15.609,11.485,16.511,18.448c0.27,2.084,0.544,6.183,0.333,10.85c-0.035,0.73-0.077,1.473-0.138,2.227
										c-0.073,0.923-0.164,1.856-0.282,2.793C179.109,110.386,178.991,111.198,178.848,112.005z"/>
								</g>
							</g>
						</g>
					</g>
				</g>
				<g>
					<g>
						<g>
							<path style="fill:#EE7266;" d="M166.53,120.461c0.803,0.046,1.835-0.094,2.835-0.8c0.191-0.135,0.236-0.399,0.101-0.589
								c-0.135-0.19-0.399-0.236-0.589-0.101c-1.643,1.161-3.406,0.43-3.481,0.399c-0.215-0.092-0.463,0.008-0.555,0.221
								c-0.092,0.214,0.006,0.462,0.219,0.555C165.106,120.165,165.694,120.413,166.53,120.461z"/>
						</g>
					</g>
				</g>
				<g>
					<path style="fill:#331034;" d="M163.852,87.457c0,0,3.749,0.781,6.172-0.588c2.238-1.265,2.737-1.474,3.644-1.395
						c1.483,0.129,2.529,4.93,2.529,4.93l3.224,2.116c0,0-0.963-6.352-2.634-8.386c-1.67-2.034-7.023-3.266-10.688-0.249
						S163.852,87.457,163.852,87.457z"/>
				</g>
				<g>
					<path style="fill:#331034;" d="M167.043,82.503c1.564,2.282-0.45,5.337-3.19,4.954c-3.185-0.445-7.529-0.798-8.904,0.309
						c-2.257,1.817-1.795,4.287-3.021,6.231c-1.226,1.944-10.352,0.785-10.352,0.785l-0.787-6.021c0,0,19.299-8.521,23.883-7.699
						C165.819,81.268,166.566,81.808,167.043,82.503z"/>
				</g>
				<g>
					<g>
						<g>
							<g>
								<g>
									<path style="fill:#331034;" d="M176.198,90.404c0,0,0.205,2.935,1.742,4.866c0.794,0.998,1.346,2.166,1.532,3.428
										l0.226,1.538c0,0,0.761-6.369-0.701-8.671C178.3,90.714,177.282,90.493,176.198,90.404z"/>
								</g>
							</g>
						</g>
					</g>
				</g>
				<g>
					<g>
						<g>
							<g>
								<g>
									<path style="fill:#331034;" d="M149.434,98.61c-0.127,0.21-0.221,0.451-0.291,0.711c-0.086,0.33-0.132,0.696-0.153,1.08
										c-0.138,2.53,0.804,5.956-1.739,6.462c-2.943,0.586-4.142-5.574-4.334-6.695c-0.018-0.112-0.028-0.174-0.028-0.174
										c-0.192-0.267-0.402-0.511-0.62-0.734c-1.557-1.586-3.579-2.092-3.579-2.092c3.568-5.042,13.712-6.763,13.712-6.763
										C152.569,94.632,150.283,97.209,149.434,98.61z"/>
								</g>
							</g>
						</g>
					</g>
				</g>
				<g>
					<path style="fill:#FF9538;" d="M137.051,91.37c0,0-4.691-4.793,1.64-13.26c7.306-9.771,28.317-10.599,36.435,0.449
						C175.125,78.559,147.915,80.622,137.051,91.37z"/>
				</g>
				<g>
					<path style="fill:#EC7800;" d="M138.508,97.274c0,0,10.818-11.108,22.674-12.631c11.855-1.523,15.999-0.036,15.999-0.036
						s0.259-3.852-1.625-6.5c0,0-11.059-2.046-23.227,2.501c-11.859,4.432-15.743,10.55-15.743,10.55S136.698,95.945,138.508,97.274
						z"/>
				</g>
				<g>
					<g>
						<g>
							<g>
								<g>
									<path style="fill:#331034;" d="M156.066,97.822c-0.192-0.043-0.374-0.14-0.521-0.292c-0.402-0.414-0.392-1.075,0.022-1.477
										c0.141-0.137,1.427-1.339,3.258-1.498c1.915-0.167,3.14,0.364,3.274,0.426c0.524,0.24,0.754,0.86,0.514,1.384
										c-0.239,0.521-0.853,0.753-1.375,0.518c-0.034-0.014-0.888-0.365-2.231-0.248c-1.111,0.097-1.975,0.908-1.984,0.916
										C156.759,97.806,156.397,97.895,156.066,97.822z"/>
								</g>
							</g>
						</g>
					</g>
				</g>
				<g>
					<g>
						<g>
							<g>
								<g>
									<path style="fill:#331034;" d="M170.746,96.645c-0.173-0.094-0.321-0.238-0.42-0.424c-0.272-0.509-0.08-1.141,0.429-1.413
										c0.173-0.092,1.742-0.893,3.544-0.541c1.887,0.368,2.917,1.217,3.029,1.313c0.438,0.376,0.488,1.035,0.112,1.472
										c-0.373,0.435-1.028,0.488-1.465,0.118c-0.029-0.023-0.753-0.596-2.076-0.854c-1.095-0.214-2.15,0.328-2.16,0.333
										C171.416,96.822,171.044,96.808,170.746,96.645z"/>
								</g>
							</g>
						</g>
					</g>
				</g>
				<g>
					<g>
						<g>
							<g>
								<g>
									<path style="fill:#FFFFFF;" d="M160.066,113.493c0,0,8.163,0.214,12.685-0.804c0,0,0.585,5.545-6.438,5.496
										C160.503,118.144,160.066,113.493,160.066,113.493z"/>
								</g>
							</g>
						</g>
					</g>
				</g>
				<g>
					<g>
						<g>
							<g>
								<g>
									<path style="fill:#EE7266;" d="M158.978,105.774c0.025,0.666-1.76,1.273-3.985,1.355c-2.225,0.082-4.049-0.392-4.074-1.058
										c-0.025-0.666,1.759-1.273,3.985-1.355C157.13,104.634,158.953,105.108,158.978,105.774z"/>
								</g>
							</g>
						</g>
					</g>
				</g>
				<g>
					<g>
						<g>
							<g>
								<g>
									<path style="fill:#EE7266;" d="M179.492,106.787c-0.454,0.068-0.949,0.116-1.47,0.136
										c-2.225,0.081-4.051-0.392-4.074-1.059c-0.024-0.665,1.758-1.271,3.984-1.355c0.606-0.023,1.182-0.003,1.699,0.051
										C179.595,105.291,179.553,106.034,179.492,106.787z"/>
								</g>
							</g>
						</g>
					</g>
				</g>
				<g>
					<g>
						<g>
							<g>
								<g>
									<path style="fill:#331034;" d="M160.889,101.213c0.044,1.194-0.448,2.181-1.099,2.205
										c-0.651,0.024-1.214-0.924-1.258-2.118c-0.044-1.194,0.448-2.181,1.099-2.205
										C160.282,99.071,160.845,100.019,160.889,101.213z"/>
								</g>
							</g>
						</g>
					</g>
				</g>
				<g>
					<g>
						<g>
							<g>
								<g>
									<path style="fill:#331034;" d="M175.557,100.974c0.044,1.194-0.448,2.181-1.099,2.205
										c-0.651,0.024-1.215-0.924-1.259-2.118c-0.044-1.194,0.448-2.181,1.099-2.205
										C174.949,98.831,175.513,99.78,175.557,100.974z"/>
								</g>
							</g>
						</g>
					</g>
				</g>
				<g>
					<g>
						<g>
							<g>
								<g>
									<path style="fill:#EE7266;" d="M166.194,110.177c-0.306-0.052-0.548-0.307-0.571-0.63
										c-0.027-0.379,0.259-0.708,0.638-0.735c0.626-0.044,1.133-0.115,1.487-0.177c-0.326-2.284-1.267-5.385-1.278-5.419
										c-0.111-0.364,0.094-0.748,0.458-0.859c0.364-0.111,0.748,0.094,0.859,0.457c0.048,0.157,1.175,3.868,1.405,6.301
										c0.032,0.334-0.182,0.642-0.506,0.729c-0.036,0.01-0.901,0.239-2.328,0.339
										C166.302,110.189,166.247,110.186,166.194,110.177z"/>
								</g>
							</g>
						</g>
					</g>
				</g>
				<g>
					<g>
						<g>
							<g>
								<g>
									<g>
										<path style="fill:#FD9B82;" d="M142.889,99.993c0,0-2.422-4.114-6.581-2.222c-4.158,1.891,0.108,19.898,10.536,16.069
											L142.889,99.993z"/>
									</g>
								</g>
							</g>
						</g>
					</g>
					<g>
						<g>
							<g>
								<g>
									<g>
										<path style="fill:#EE7266;" d="M141.987,109.128c-0.319-0.054-0.565-0.329-0.572-0.665
											c-0.098-4.958-4.01-7.019-4.049-7.039c-0.338-0.173-0.472-0.588-0.299-0.926c0.173-0.338,0.588-0.472,0.926-0.299
											c0.191,0.098,4.683,2.465,4.798,8.237c0.007,0.38-0.294,0.694-0.674,0.702
											C142.073,109.138,142.03,109.135,141.987,109.128z"/>
									</g>
								</g>
							</g>
						</g>
					</g>
					<g>
						<g>
							<g>
								<g>
									<g>
										<path style="fill:#EE7266;" d="M138.05,105.913c-0.227-0.038-0.43-0.19-0.523-0.42c-0.143-0.352,0.026-0.754,0.378-0.897
											c0.235-0.095,2.336-0.909,3.85-0.088c0.334,0.181,0.458,0.599,0.276,0.933c-0.181,0.334-0.598,0.458-0.933,0.276
											c-0.802-0.436-2.235-0.025-2.674,0.153C138.301,105.922,138.172,105.934,138.05,105.913z"/>
									</g>
								</g>
							</g>
						</g>
					</g>
				</g>
				<g>
					<g>
						<g>
							<g>
								<g>
									<path style="fill:#FFFFFF;" d="M158.035,111.109c-1.737-0.227-3.328-1.039-4.544-2.333
										c-1.392-1.481-2.124-3.415-2.061-5.446c0.063-2.031,0.913-3.917,2.394-5.308c1.481-1.392,3.415-2.123,5.447-2.061
										c2.033,0.063,3.916,0.914,5.308,2.395c1.392,1.481,2.124,3.415,2.06,5.447c-0.063,2.031-0.913,3.916-2.394,5.308
										c-1.481,1.392-3.415,2.124-5.447,2.061C158.542,111.163,158.287,111.142,158.035,111.109z M159.93,96.817
										c-0.226-0.03-0.453-0.048-0.684-0.055c-1.818-0.056-3.548,0.598-4.873,1.843c-1.325,1.245-2.086,2.932-2.142,4.749
										c-0.056,1.817,0.598,3.548,1.843,4.873c1.245,1.325,2.93,2.087,4.749,2.142c1.817,0.056,3.548-0.598,4.873-1.843
										c1.325-1.245,2.086-2.932,2.142-4.749v0c0.056-1.817-0.598-3.548-1.843-4.873C162.908,97.747,161.484,97.02,159.93,96.817z
										"/>
								</g>
							</g>
						</g>
					</g>
					<g>
						<g>
							<g>
								<g>
									<path style="fill:#FFFFFF;" d="M174.595,109.32c-1.642-0.215-3.146-0.983-4.295-2.205c-1.316-1.4-2.007-3.229-1.948-5.149
										c0.06-1.92,0.863-3.702,2.263-5.018c1.4-1.315,3.229-2.007,5.149-1.948c3.961,0.124,7.089,3.448,6.966,7.412l0,0
										c-0.123,3.964-3.448,7.089-7.412,6.966C175.075,109.37,174.834,109.351,174.595,109.32z M176.374,95.852
										c-0.208-0.027-0.42-0.045-0.635-0.051c-1.706-0.053-3.331,0.562-4.575,1.731c-1.244,1.169-1.958,2.753-2.011,4.459
										c-0.053,1.706,0.562,3.331,1.731,4.575c1.169,1.244,2.752,1.958,4.459,2.011c3.522,0.109,6.477-2.667,6.586-6.19l0,0
										C182.032,99.079,179.589,96.272,176.374,95.852z"/>
								</g>
							</g>
						</g>
					</g>
					<g>
						<g>
							<g>
								<g>
									<path style="fill:#FFFFFF;" d="M166.018,102.591c-0.126-0.017-0.247-0.078-0.336-0.182
										c-0.19-0.223-0.167-0.556,0.054-0.748c0.056-0.049,1.405-1.193,3.24-0.249c0.262,0.135,0.366,0.457,0.231,0.719
										c-0.135,0.263-0.457,0.366-0.719,0.231c-1.178-0.606-2.018,0.079-2.053,0.109
										C166.313,102.57,166.162,102.609,166.018,102.591z"/>
								</g>
							</g>
						</g>
					</g>
					<g>
						<g>
							<g>
								<g>
									<path style="fill:#FFFFFF;" d="M152.585,101.307c-0.14,0.259-0.465,0.355-0.724,0.215c-0.026-0.013-1.201-0.636-2.87-1.121
										c-1.736-0.509-4.007-0.867-6.073-0.234c-0.018-0.112-0.028-0.174-0.028-0.174c-0.192-0.267-0.402-0.511-0.62-0.734
										c2.356-0.841,4.92-0.49,6.874,0.062c1.822,0.514,3.114,1.204,3.223,1.261C152.626,100.723,152.725,101.047,152.585,101.307
										z"/>
								</g>
							</g>
						</g>
					</g>
				</g>
			</g>
			<g>
				<g>
					<g>
						<g>
							<g>
								<path style="fill:#365592;" d="M136.501,166.669c0,0-1.295,6.963-3.289,15.762c-0.262,1.156-0.537,2.346-0.822,3.556
									c-0.863,3.661-1.827,7.51-2.852,11.22c-0.208,0.755-0.419,1.506-0.635,2.246c-0.105,0.375-0.216,0.748-0.324,1.118
									c-2.42,8.229-5.105,15.215-7.597,17.062c-5.005,3.713-17.345,3.16-11.608-21.595c0.961-4.152,2.076-8.35,3.263-12.463
									c0.619-2.15,1.29-4.267,1.909-6.356c6.814-23.046,14.29-35.869,14.29-35.869L136.501,166.669z"/>
							</g>
						</g>
					</g>
				</g>
				<g>
					<g>
						<g>
							<g>
								<path style="fill:#365592;" d="M121.546,199.907c0,0-9.685,0.962-12.115,10.716c-2.43,9.754,12.653,10.945,26.917,8.617
									c14.264-2.329,34.964-5.402,34.964-5.402l0.153-10.73c0,0-13.083,0.198-23.564-1.999
									C142.325,199.939,128.935,198.898,121.546,199.907z"/>
							</g>
						</g>
					</g>
				</g>
				<g>
					<g>
						<g>
							<path style="fill:#EE7266;" d="M181.494,205.556c0,0-1.927,2.918-4.712,4.992c0.969-0.415,1.823-0.739,2.614-0.816
								c6.332-0.613,9.889-3.483,9.197-4.543C187.906,204.129,181.494,205.556,181.494,205.556z"/>
						</g>
					</g>
					<g>
						<g>
							<g>
								<g>
									<g>
										<path style="fill:#FD9B82;" d="M180.569,203.394c0,0,4.546-1.971,7.922-1.391c3.377,0.58,10.605-1.843,10.811,0.611
											c0.174,2.07-12.177,2.512-15.893,4.252C179.492,208.7,180.569,203.394,180.569,203.394z"/>
									</g>
								</g>
							</g>
						</g>
						<g>
							<g>
								<g>
									<path style="fill:#FD9B82;" d="M180.352,207.138c0,0,6.064-4.417,9.631-4.533c3.567-0.117,9.552-2.946,10.548-2.085
										c0.996,0.861-3.164,3.417-7.592,4.273C188.51,205.648,180.352,207.138,180.352,207.138z"/>
								</g>
							</g>
						</g>
						<g>
							<g>
								<g>
									<path style="fill:#FD9B82;" d="M168.383,204.99c-0.558,0.723-0.967,1.417-1.259,2.073
										c-0.341,0.774-0.466,1.556-0.409,2.302c0.163,2.135,1.792,3.958,3.934,4.364c0.006,0,0.013,0.003,0.019,0.003
										c0.89,0.086,1.915-0.011,3.057-0.321c0.053-0.015,0.107-0.029,0.162-0.045c0.211-0.064,0.418-0.129,0.622-0.196
										c4.275-1.47,7.842-5.891,7.842-5.891s8.114-3.107,11.61-4.405c3.495-1.3,8.091-4.006,6.534-4.711
										c-1.557-0.704-9.889,2.007-15.183,1.486C180.019,199.13,168.383,204.99,168.383,204.99z"/>
								</g>
							</g>
						</g>
					</g>
				</g>
				<g>
					<g>
						<g>
							<g>
								<path style="fill:#331034;" d="M129.539,197.207c-0.208,0.755-0.419,1.506-0.635,2.246
									c-3.792-0.049-10.023,0.668-13.879,1.374C115.025,200.827,121.412,196.906,129.539,197.207z"/>
							</g>
						</g>
					</g>
				</g>
			</g>
		</g>
		<g>
			<g>
				<g>
					<g>
						<g>
							<path style="fill:#FD9B82;" d="M277.526,172.532c5.559,11.921,9.69,25.284,14.56,34.02c0.176,0.315,0.366,0.618,0.574,0.905
								c0,0-0.002,0.003,0,0.003c3.068,4.324,9.111,5.374,13.449,2.136l2.28-1.699l2.15-1.605c0,0-1.156-2.431-5.362-9.237
								c-1.341-2.169-2.991-4.784-5.016-7.905c-1.199-1.851-2.883-4.087-4.778-6.567l0-0.002c-3.945-5.167-8.799-11.4-12.07-17.431
								C278.468,156.224,267.181,150.349,277.526,172.532z"/>
						</g>
					</g>
					<g>
						<g>
							<g>
								<g>
									<path style="fill:#EE7266;" d="M277.056,149.393c0,0-0.846-4.692-3.089-7.083c-2.243-2.391-4.149-9.472-6.197-8.323
										c-1.727,0.969,4.452,11.088,5.042,14.993C273.434,153.096,277.056,149.393,277.056,149.393z"/>
								</g>
							</g>
						</g>
						<g>
							<g>
								<path style="fill:#FD9B82;" d="M273.915,151.711c0,0,0.76-7.181-0.836-10.212c-1.596-3.031-2.106-9.383-3.288-9.8
									c-1.182-0.417-1.313,4.281,0.084,8.386C271.27,144.189,273.915,151.711,273.915,151.711z"/>
							</g>
						</g>
						<g>
							<g>
								<g>
									<path style="fill:#FD9B82;" d="M272.847,150.11c0,0-2.106-5.953-3.307-5.969c-1.202-0.016-1.703,4.352,1.017,9.822
										c0.836,1.681,0.669,4.461,1.724,7.657c1.247,3.778,6.051,4.701,8.554,1.629c0.009-0.011,0.018-0.022,0.027-0.033
										c0.407-0.505,0.604-1.151,0.557-1.801c-0.219-3.008-1.169-13.865-3.692-17.44c-2.94-4.166-4.663-12.419-5.981-13.379
										c-1.318-0.96-1.368,4.172-0.778,7.712C271.558,141.848,272.847,150.11,272.847,150.11z"/>
								</g>
							</g>
						</g>
					</g>
				</g>
				<g>
					<g>
						<g>
							<g>
								<g>
									<g>
										<path style="fill:#FD9B82;" d="M335.125,180.179c0,0-0.98,1.159-2.607,3.033c-0.398,0.456-0.829,0.95-1.297,1.484
											c-0.235,0.272-0.482,0.548-0.737,0.837c-5.904,6.702-16.153,17.933-22.979,23.197
											c-10.074,7.771-17.877-1.048-10.567-9.774c1.399-1.671,3.334-3.814,5.548-6.185c0.403-0.432,0.817-0.87,1.237-1.317
											c5.031-5.337,11.171-11.556,15.751-16.151c0.587-0.589,1.149-1.149,1.678-1.678c1.195-1.193,2.231-2.223,3.045-3.033
											c1.229-1.22,1.954-1.937,1.954-1.937C333.29,171.965,335.125,180.179,335.125,180.179z"/>
									</g>
								</g>
							</g>
						</g>
					</g>
				</g>
				<g>
					<path style="fill:#331034;" d="M304.577,198.687c-0.546-3.031-2.09-5.916-2.09-5.916c0.403-0.432,0.817-0.87,1.237-1.317
						C305.011,194.436,304.577,198.687,304.577,198.687z"/>
				</g>
				<g>
					<g>
						<g>
							<g>
								<path style="fill:#331034;" d="M335.125,180.178c0,0-0.98,1.16-2.608,3.035c-4.111-2.444-8.725-6.616-11.367-9.588
									c1.195-1.192,2.232-2.224,3.046-3.032c1.229-1.221,1.954-1.938,1.954-1.938C333.29,171.964,335.125,180.178,335.125,180.178
									z"/>
							</g>
						</g>
					</g>
				</g>
			</g>
			<g>
				<g>
					<g>
						<g>
							<g>
								<path style="fill:#FF4950;" d="M321.038,171.402c0,0,5.379,4.94,10.682,9.591c0.279,0.245,0.647,0.375,0.983,0.558
									c1.885,1.047,4.021,2.091,6.384,3.035l0.869-22.769c0,0-1.286-4.862-7.672-7.358
									C332.284,154.459,324.787,162.844,321.038,171.402z"/>
							</g>
						</g>
					</g>
				</g>
				<g>
					<g>
						<g>
							<g>
								<g>
									<path style="fill:#D4313F;" d="M331.359,162.195c0.014,0.05,1.238,5.167,0.28,11.387c-0.447,2.916-0.297,5.412,0.081,7.411
										c0.319,0.189,0.647,0.375,0.983,0.558c-0.466-2.03-0.722-4.69-0.239-7.844c0.983-6.389-0.242-11.498-0.294-11.712
										c-0.056-0.222-0.281-0.358-0.505-0.305C331.442,161.745,331.306,161.97,331.359,162.195z"/>
								</g>
							</g>
						</g>
					</g>
				</g>
				<g>
					<g>
						<g>
							<g>
								<path style="fill:#FF4950;" d="M381.848,205.52c0.693,10.722,5.155,20.277,5.155,20.277s-30.289,13.908-50.351-0.393
									c0,0,4.364-17.79,3.775-26.754c-0.061-0.96-0.182-1.816-0.368-2.541c-0.104-0.398-0.221-0.786-0.354-1.164
									c-0.463-1.343-1.086-2.568-1.777-3.749c-0.754-1.292-1.588-2.534-2.376-3.821c-0.737-1.2-1.433-2.444-1.988-3.807
									c-0.468-1.147-0.837-2.376-1.048-3.741c-0.255-1.658-0.276-3.516,0.046-5.654c2.362-15.688-3.644-13.466-0.279-19.715
									c3.799-7.053,11.941-9.386,15.622-12.344c3.683-2.963,18.221-0.485,18.221-0.485s8.734,3.618,15.814,6.813
									c7.08,3.191,6.573,10.875,4.35,19.623c-0.718,2.832-1.51,6.641-2.231,10.858c-0.153,0.892-0.301,1.804-0.446,2.728
									c-0.046,0.296-0.095,0.592-0.138,0.89c-0.01,0.07-0.022,0.141-0.031,0.211c-0.184,1.22-0.359,2.459-0.521,3.705
									c-0.162,1.256-0.315,2.519-0.451,3.778c-0.133,1.246-0.255,2.488-0.356,3.712c-0.104,1.266-0.189,2.514-0.252,3.729
									C381.717,200.52,381.698,203.192,381.848,205.52z"/>
							</g>
						</g>
					</g>
				</g>
				<g>
					<g>
						<g>
							<path style="fill:#D4313F;" d="M384.06,178.923c-0.153,0.892-0.301,1.804-0.446,2.728c-0.046,0.296-0.095,0.592-0.138,0.89
								c-0.01,0.07-0.022,0.141-0.031,0.211c-7.531,1.399-16.737,1.838-25.314,1.838c-10.591,0-20.222-0.667-24.567-1.021
								c-0.468-1.147-0.837-2.376-1.048-3.741C338.197,180.313,366.844,182.488,384.06,178.923z"/>
						</g>
					</g>
					<g>
						<g>
							<path style="fill:#D4313F;" d="M382.922,186.457c-0.162,1.256-0.315,2.519-0.451,3.778
								c-7.344,1.261-16.131,1.663-24.341,1.663c-7.846,0-15.169-0.366-20.202-0.701c-0.754-1.292-1.588-2.534-2.376-3.821
								C344.773,188.05,367.768,189.301,382.922,186.457z"/>
						</g>
					</g>
					<g>
						<g>
							<path style="fill:#D4313F;" d="M382.115,193.947c-0.104,1.266-0.189,2.514-0.252,3.729c-7.175,1.157-15.62,1.53-23.529,1.53
								c-6.724,0-13.062-0.269-17.906-0.555c-0.061-0.96-0.182-1.816-0.368-2.541c-0.104-0.398-0.221-0.786-0.354-1.164
								C350.199,195.583,368.855,196.226,382.115,193.947z"/>
						</g>
					</g>
				</g>
				<g>
					<g>
						<g>
							<g>
								<g>
									<path style="fill:#D4313F;" d="M346.576,213.662c14.984,0,27.839-11.62,27.977-11.746c0.17-0.156,0.181-0.419,0.025-0.588
										c-0.156-0.17-0.419-0.181-0.589-0.026c-0.145,0.132-14.638,13.223-30.588,11.343c-0.228-0.027-0.436,0.136-0.462,0.365
										c-0.027,0.228,0.136,0.436,0.365,0.463C344.403,213.602,345.496,213.662,346.576,213.662z"/>
								</g>
							</g>
						</g>
					</g>
				</g>
				<g>
					<g>
						<g>
							<g>
								<g>
									<path style="fill:#D4313F;" d="M351.822,151.579c7.185,0,13.824-4.331,14.151-4.548c0.192-0.127,0.244-0.385,0.117-0.577
										c-0.127-0.192-0.386-0.245-0.577-0.118c-0.091,0.061-9.244,6.028-17.367,3.97c-0.224-0.056-0.45,0.079-0.506,0.301
										c-0.057,0.223,0.079,0.45,0.301,0.506C349.23,151.441,350.536,151.579,351.822,151.579z"/>
								</g>
							</g>
						</g>
					</g>
				</g>
				<g>
					<g>
						<g>
							<g>
								<g>
									<path style="fill:#D4313F;" d="M354.88,156.334c3.211,0,6.014-0.774,6.189-0.824c0.221-0.062,0.35-0.292,0.288-0.514
										c-0.063-0.221-0.293-0.35-0.514-0.288c-0.063,0.018-6.332,1.747-10.68,0.014c-0.214-0.085-0.456,0.019-0.541,0.233
										c-0.085,0.214,0.019,0.456,0.233,0.541C351.432,156.125,353.211,156.334,354.88,156.334z"/>
								</g>
							</g>
						</g>
					</g>
				</g>
				<g>
					<g>
						<g>
							<g>
								<g>
									<path style="fill:#D4313F;" d="M371.45,165.844l5.934,16.863c0.056,0.156,0.194,0.264,0.358,0.278
										c0.375,0.033,0.905,0.078,1.588,0.078c1.033,0,2.418-0.105,4.146-0.522c0.044-0.297,0.092-0.594,0.139-0.889
										c-2.674,0.686-4.523,0.605-5.534,0.525l-5.845-16.61c-0.075-0.217-0.314-0.33-0.53-0.256
										C371.488,165.388,371.374,165.627,371.45,165.844z"/>
								</g>
							</g>
						</g>
					</g>
				</g>
				<g>
					<g>
						<g>
							<g>
								<g>
									<path style="fill:#D4313F;" d="M374.146,172.667c0.101,0,0.203-0.037,0.283-0.111c0.169-0.156,0.178-0.42,0.022-0.588
										l-4.515-4.864c-0.156-0.169-0.42-0.178-0.589-0.022c-0.168,0.156-0.178,0.42-0.022,0.589l4.515,4.864
										C373.923,172.622,374.034,172.667,374.146,172.667z"/>
								</g>
							</g>
						</g>
					</g>
				</g>
				<g>
					<g>
						<g>
							<g>
								<g>
									<path style="fill:#FD9B82;" d="M377.776,171.913c0,0,1.005,3.949,2.549,9.363c0.269,0.95,0.555,1.944,0.858,2.971
										c3.016,10.291,7.428,23.761,10.665,26.882c5.404,5.209,15.73,2.433,10.529-16.616c-1.766-6.467-4.096-13.081-6.4-19.001
										c-0.306-0.783-0.611-1.552-0.914-2.308c-4.151-10.38-7.975-18.096-7.975-18.096L377.776,171.913z"/>
								</g>
							</g>
						</g>
					</g>
					<g>
						<g>
							<g>
								<g>
									<path style="fill:#331034;" d="M380.325,181.277c0.269,0.95,0.555,1.944,0.858,2.971c4.948-0.541,12.7-6.325,14.794-8.735
										c-0.306-0.783-0.611-1.552-0.914-2.308C389.358,178.075,382.419,180.591,380.325,181.277z"/>
								</g>
							</g>
						</g>
					</g>
					<g>
						<g>
							<g>
								<g>
									<path style="fill:#FF4950;" d="M386.434,152.457l9.64,20.37c0,0-4.875,8.544-17.994,9.35l-4.397-12.721
										C373.683,169.456,379.34,153.806,386.434,152.457z"/>
								</g>
							</g>
						</g>
					</g>
					<g>
						<g>
							<g>
								<g>
									<path style="fill:#331034;" d="M381.884,186.612c8.862,2.335,14.19,9.334,14.19,9.334
										c-4.357-2.944-11.331-5.554-13.247-6.243L381.884,186.612z"/>
								</g>
							</g>
						</g>
					</g>
					<g>
						<g>
							<g>
								<g>
									<path style="fill:#FD9B82;" d="M396.509,196.231c0,0,6.849,4.576,5.212,12.136c-1.638,7.56-14.13,4.346-23.186-2.109
										c-9.056-6.456-21.118-17.323-21.118-17.323l3.541-7.459c0,0,8.965,4.583,16.947,6.628
										C382.153,189.191,391.751,193.023,396.509,196.231z"/>
								</g>
							</g>
						</g>
					</g>
					<g>
						<g>
							<g>
								<path style="fill:#EE7266;" d="M351.799,176.413c0,0-0.349,3.462,0.496,6.813c-0.487-0.929-0.941-1.716-1.503-2.273
									c-4.498-4.455-5.437-8.904-4.237-9.287C347.751,171.281,351.799,176.413,351.799,176.413z"/>
							</g>
						</g>
						<g>
							<g>
								<g>
									<g>
										<g>
											<path style="fill:#FD9B82;" d="M353.872,175.327c0,0-2.267-4.378-5.236-6.054c-2.969-1.676-7.02-8.09-8.722-6.327
												c-1.436,1.487,7.812,9.594,9.584,13.273C351.366,180.097,353.872,175.327,353.872,175.327z"/>
										</g>
									</g>
								</g>
							</g>
							<g>
								<g>
									<g>
										<path style="fill:#FD9B82;" d="M351.686,178.352c0,0-1.9-7.219-4.577-9.552c-2.677-2.333-5.514-8.278-6.824-8.241
											c-1.31,0.038,0.292,4.624,3.169,8.069C346.33,172.072,351.686,178.352,351.686,178.352z"/>
									</g>
								</g>
							</g>
							<g>
								<g>
									<g>
										<path style="fill:#FD9B82;" d="M362.266,184.221c-0.025,0.909-0.145,1.701-0.332,2.39
											c-0.224,0.811-0.619,1.493-1.132,2.033c-1.468,1.544-3.871,1.925-5.778,0.891c-0.005-0.004-0.012-0.006-0.017-0.01
											c-0.741-0.494-1.47-1.213-2.156-2.17c-0.032-0.045-0.064-0.09-0.097-0.137c-0.122-0.182-0.241-0.362-0.356-0.542
											c-2.373-3.822-2.344-9.474-2.344-9.474s-4.304-7.498-6.185-10.697c-1.879-3.2-3.721-8.177-2.077-7.741
											c1.644,0.436,6.365,7.765,10.775,10.693C356.977,172.385,362.266,184.221,362.266,184.221z"/>
									</g>
								</g>
							</g>
						</g>
					</g>
				</g>
			</g>
			<g>
				<g>
					<g>
						<g>
							<g>
								<g>
									<path style="fill:#FD9B82;" d="M368.587,290.48c0.011,0.117,0.019,0.233,0.03,0.353c0.1,1.18,0.208,2.457,0.328,3.826
										c0.136,1.527,0.283,3.163,0.441,4.879c1.058,11.407,2.632,26.359,4.468,37.219c3.385,20.001,15.286,27.723,21.561,15.447
										c4.021-7.866,2.618-36.048,1.089-55.277c-0.186-2.33-0.372-4.531-0.553-6.547c-0.097-1.1-0.192-2.144-0.283-3.127
										c-0.081-0.852-0.155-1.655-0.23-2.407L368.587,290.48z"/>
								</g>
							</g>
						</g>
					</g>
					<g>
						<g>
							<g>
								<g>
									<path style="fill:#331034;" d="M368.587,290.48c0.011,0.117,0.019,0.233,0.03,0.353c0.1,1.18,0.208,2.457,0.328,3.826
										c0.136,1.527,0.283,3.163,0.441,4.879c8.125,0.537,18.133-0.454,27.118-2.61c-0.186-2.33-0.372-4.531-0.553-6.547
										c-0.097-1.1-0.192-2.144-0.283-3.127c-0.081-0.852-0.155-1.655-0.23-2.407L368.587,290.48z"/>
								</g>
							</g>
						</g>
					</g>
					<g>
						<g>
							<g>
								<g>
									<path style="fill:#FD9B82;" d="M400.351,418.423c-0.191,5.188-0.389,10.405-0.569,15.559
										c-2.392,2.245-5.878,2.07-9.664,1.229c0,0-1.664-6.962-3.538-15.095c-1.259-5.461-2.612-11.455-3.62-16.219
										c-2.605-12.321-5.568-27.635-7-40.352c-1.432-12.715-0.526-20.087-0.526-20.087c3.838-0.622,21.184,5.421,21.184,5.421
										C402.251,358.381,401.466,387.885,400.351,418.423z"/>
								</g>
							</g>
						</g>
					</g>
					<g>
						<g>
							<g>
								<g>
									<path style="fill:#FA3A66;" d="M400.351,418.423c-0.191,5.188-0.389,10.405-0.569,15.559
										c-1.883,3.641-5.707,2.597-9.664,1.229c0,0-1.664-6.962-3.538-15.095C390.189,419.27,395.916,418.168,400.351,418.423z"/>
								</g>
							</g>
						</g>
					</g>
					<g>
						<g>
							<g>
								<g>
									<g>
										<g>
											<path style="fill:#FF9538;" d="M370.324,453.012c0.248,3.546,16.813,2.779,21.353,1.834
												c4.543-0.943,8.076-1.575,9.423-3.306c0.303-0.394,0.484-1.423,0.565-2.806c0.271-4.732-0.634-13.604-1.814-15.312
												c0,0,0,0.003-0.003,0.011c-0.15,0.986-3.473,2.428-3.724,1.458c-0.77-2.971-2.639-6.552-7.811-6.115
												c-5.601,0.473-6.057,5.829-6.057,5.829s-0.401,5.507-4.866,7.6c-5.437,2.547-7.026,6.056-7.095,9.591
												C370.283,452.202,370.295,452.607,370.324,453.012z"/>
										</g>
									</g>
								</g>
							</g>
						</g>
						<g>
							<g>
								<g>
									<g>
										<g>
											<path style="fill:#FFFFFF;" d="M389.145,441.458c0.15,0,0.301-0.044,0.429-0.135c0.315-0.222,0.377-0.641,0.14-0.936
												c-0.039-0.049-3.989-4.838-9.456-1.649c-0.334,0.195-0.437,0.607-0.228,0.92c0.208,0.313,0.648,0.409,0.983,0.214
												c4.371-2.55,7.434,1.16,7.562,1.32C388.715,441.367,388.928,441.458,389.145,441.458z"/>
										</g>
									</g>
								</g>
							</g>
						</g>
						<g>
							<g>
								<g>
									<g>
										<g>
											<path style="fill:#FFFFFF;" d="M387.384,443.052c0.15,0,0.3-0.044,0.429-0.135c0.315-0.222,0.377-0.641,0.14-0.936
												c-0.039-0.049-3.99-4.838-9.456-1.649c-0.334,0.195-0.437,0.607-0.228,0.92c0.208,0.313,0.648,0.409,0.983,0.214
												c4.371-2.55,7.434,1.161,7.562,1.32C386.954,442.961,387.168,443.052,387.384,443.052z"/>
										</g>
									</g>
								</g>
							</g>
						</g>
						<g>
							<g>
								<g>
									<g>
										<g>
											<path style="fill:#FFFFFF;" d="M384.89,444.696c0.15,0,0.3-0.044,0.429-0.135c0.315-0.222,0.377-0.641,0.14-0.936
												c-0.04-0.049-3.989-4.838-9.456-1.649c-0.335,0.195-0.437,0.607-0.228,0.92c0.208,0.313,0.648,0.409,0.983,0.214
												c4.371-2.55,7.434,1.161,7.562,1.32C384.46,444.604,384.674,444.696,384.89,444.696z"/>
										</g>
									</g>
								</g>
							</g>
						</g>
						<g>
							<g>
								<g>
									<g>
										<g>
											<path style="fill:#EC7800;" d="M370.324,453.012c0.248,3.546,16.813,2.779,21.353,1.834
												c4.543-0.943,8.076-1.575,9.423-3.306c0.303-0.394,0.484-1.423,0.565-2.806c-2.276,1.553-5.869,3.387-10.479,3.738
												c-7.566,0.575-14.973,0.929-20.891-0.675C370.283,452.202,370.295,452.607,370.324,453.012z"/>
										</g>
									</g>
								</g>
							</g>
						</g>
					</g>
				</g>
				<g>
					<g>
						<g>
							<g>
								<g>
									<path style="fill:#FD9B82;" d="M333.519,358.896c6.591-7.393,13.044-41.224,16.15-59.681
										c0.184-1.089,0.355-2.123,0.515-3.097c0.663-4.051,1.116-7.025,1.307-8.31c0.067-0.456,0.103-0.697,0.103-0.697
										l-27.086-2.264c0,0-0.017,0.08-0.044,0.242c-0.152,0.814-0.659,3.615-1.357,7.653c-0.201,1.166-0.42,2.431-0.649,3.784
										c-1.958,11.575-4.779,29.352-5.893,41.972C314.781,358.703,324.342,369.185,333.519,358.896z"/>
								</g>
							</g>
						</g>
					</g>
					<g>
						<g>
							<g>
								<g>
									<path style="fill:#331034;" d="M323.107,292.741c6.338,3.324,17.046,5.379,26.562,6.473
										c0.184-1.089,0.355-2.123,0.515-3.097c0.663-4.051,1.116-7.025,1.307-8.31c0.067-0.456,0.103-0.697,0.103-0.697
										l-27.086-2.264c0,0-0.017,0.08-0.044,0.242C324.313,285.902,323.805,288.703,323.107,292.741z"/>
								</g>
							</g>
						</g>
					</g>
					<g>
						<g>
							<g>
								<g>
									<path style="fill:#FD9B82;" d="M363.726,413.894c1.4,5,2.803,10.028,4.204,14.991c-1.594,2.868-4.966,3.764-8.829,4.118
										c0,0-3.708-6.122-7.974-13.296c-2.865-4.816-5.982-10.112-8.395-14.342c-6.239-10.939-13.732-24.619-18.975-36.294
										c-5.242-11.672-6.629-18.969-6.629-18.969c3.466-1.763,21.828-1.299,21.828-1.299
										C347.22,356.134,355.472,384.471,363.726,413.894z"/>
								</g>
							</g>
						</g>
					</g>
					<g>
						<g>
							<g>
								<g>
									<path style="fill:#FA3A66;" d="M363.726,413.894c1.4,5,2.803,10.028,4.204,14.991c-0.682,4.042-4.643,4.214-8.829,4.118
										c0,0-3.708-6.122-7.974-13.296C354.306,417.8,359.424,415.004,363.726,413.894z"/>
								</g>
							</g>
						</g>
					</g>
					<g>
						<g>
							<g>
								<g>
									<g>
										<g>
											<g>
												<path style="fill:#FF9538;" d="M355.221,429.417c-0.052-0.627-0.558-2.29,0.403-2.964
													c3.029-2.126,5.671-0.17,6.554,0.262c1.104,0.539,2.431-0.995,3.207-2.072c0.548-0.76,1.982-0.925,2.567-0.194
													c3.052,3.818,5.963,9.393,6.643,12.278c0.344,1.457,0.281,2.63-0.315,3.313c-2.586,2.967-13.748,10.719-20.802,14.702
													c-8.134,4.593-15.722,2.664-15.479-0.786c0.032-0.486,0.219-0.996,0.578-1.523c1.947-2.865,5.597-3.729,10.253-11.177
													c2.695-4.313,5.67-5.398,6.201-7.697C355.034,433.536,355.408,431.676,355.221,429.417z"/>
											</g>
										</g>
									</g>
								</g>
							</g>
						</g>
						<g>
							<g>
								<g>
									<g>
										<g>
											<g>
												<path style="fill:#FFFFFF;" d="M358.949,435.77c0.073-0.244-0.02-0.516-0.245-0.66
													c-3.006-1.913-5.877-0.116-5.998-0.039c-0.272,0.175-0.35,0.535-0.176,0.806c0.174,0.271,0.534,0.35,0.805,0.177
													c0.103-0.065,2.38-1.464,4.742,0.04c0.272,0.173,0.632,0.093,0.806-0.179
													C358.912,435.869,358.934,435.82,358.949,435.77z"/>
											</g>
										</g>
									</g>
								</g>
							</g>
						</g>
						<g>
							<g>
								<g>
									<g>
										<g>
											<g>
												<path style="fill:#FFFFFF;" d="M356.638,438.365c0.073-0.244-0.02-0.517-0.245-0.66
													c-3.006-1.913-5.877-0.116-5.998-0.039c-0.272,0.175-0.35,0.535-0.176,0.806c0.174,0.271,0.534,0.349,0.805,0.177
													c0.103-0.065,2.38-1.464,4.742,0.04c0.272,0.173,0.633,0.093,0.806-0.179
													C356.601,438.464,356.623,438.415,356.638,438.365z"/>
											</g>
										</g>
									</g>
								</g>
							</g>
						</g>
						<g>
							<g>
								<g>
									<g>
										<g>
											<g>
												<path style="fill:#FFFFFF;" d="M354.562,441.208c0.073-0.244-0.02-0.517-0.245-0.66
													c-3.006-1.913-5.877-0.116-5.998-0.039c-0.272,0.175-0.35,0.535-0.176,0.806c0.174,0.271,0.534,0.35,0.805,0.177
													c0.103-0.065,2.38-1.464,4.742,0.04c0.272,0.173,0.633,0.093,0.806-0.179
													C354.525,441.308,354.547,441.259,354.562,441.208z"/>
											</g>
										</g>
									</g>
								</g>
							</g>
						</g>
						<g>
							<g>
								<g>
									<g>
										<g>
											<g>
												<path style="fill:#EC7800;" d="M353.477,454.741c7.055-3.983,18.216-11.735,20.802-14.702
													c0.596-0.684,0.659-1.856,0.315-3.313c-4.515,3.66-18.997,15.158-25.029,17.043c-5.758,1.793-9.2,1.474-11.568,0.186
													C337.755,457.405,345.343,459.335,353.477,454.741z"/>
											</g>
										</g>
									</g>
								</g>
							</g>
						</g>
					</g>
				</g>
				<g>
					<g>
						<g>
							<g>
								<path style="fill:#006E85;" d="M401.43,288.664c-11.071,9.633-38.44,6.179-38.44,6.179l-3.493-20.777l-5.786,19.459
									c-11.169,1.857-32.673-8.608-32.673-8.608c3.04-25.387,15.612-59.513,15.612-59.513c21.327,8.16,38.607,4.485,46.191,2.003
									c0.376-0.125,0.727-0.244,1.052-0.358c2.019-0.712,3.109-1.253,3.109-1.253C401.378,257.564,401.43,288.664,401.43,288.664z
									"/>
							</g>
						</g>
					</g>
				</g>
				<g>
					<path style="fill:#124064;" d="M337.351,221.39c-1.493,1.792-1.404,4.238-1.605,6.544c0,0,23.423,11.507,53.837,3.929
						c-0.304-2.694-0.927-4.947-2.083-6.458C387.5,225.405,365.397,232.091,337.351,221.39z"/>
				</g>
				<g>
					<path style="fill:#124064;" d="M356.392,251.513c0.559,5.466,1.539,13.721,3.071,22.671l-0.708,2.376
						c-1.762-9.817-2.862-19.002-3.47-24.933c-0.031-0.299,0.182-0.567,0.481-0.603c0.004,0,0.007-0.001,0.011-0.001
						C356.083,250.987,356.361,251.207,356.392,251.513z"/>
				</g>
				<g>
					<g>
						<g>
							<g>
								<path style="fill:#124064;" d="M320.221,280.845c-0.996,2.035-1.074,3.768-0.453,5.779c0,0,16.62,8.851,35.035,8.267
									c0,0,1.084-2.18,0.567-5.026C355.371,289.865,337.157,290.4,320.221,280.845z"/>
							</g>
						</g>
					</g>
				</g>
				<g>
					<g>
						<g>
							<g>
								<g>
									<path style="fill:#124064;" d="M397.579,288.943l-1.107-0.07c1.109-18.329-9.048-48.798-13.631-61.465
										c0.376-0.125,0.727-0.244,1.052-0.358C388.504,239.803,398.701,270.427,397.579,288.943z"/>
								</g>
							</g>
						</g>
					</g>
				</g>
				<g>
					<g>
						<g>
							<g>
								<path style="fill:#124064;" d="M362.485,290.087c-0.792,1.67-0.418,3.73,0.293,4.976c0,0,24.904,3.815,39.14-5.793
									c0,0,0.856-2.487-0.657-4.954C401.262,284.316,385.519,294.441,362.485,290.087z"/>
							</g>
						</g>
					</g>
				</g>
			</g>
			<g>
				<path style="fill:#FFFFFF;" d="M355.094,164.618c-0.418,0-0.843-0.034-1.276-0.101c-10.7-1.671-8.842-21.603-8.758-22.451
					c0.04-0.4,0.399-0.69,0.796-0.652c0.4,0.04,0.692,0.396,0.652,0.796c-0.019,0.194-1.814,19.409,7.535,20.87
					c1.837,0.286,3.45-0.151,4.933-1.337c6.145-4.919,7.248-20.608,7.259-20.766c0.026-0.401,0.373-0.708,0.773-0.678
					c0.401,0.026,0.704,0.373,0.678,0.773c-0.044,0.671-1.161,16.491-7.801,21.806C358.438,164.035,356.831,164.618,355.094,164.618
					z"/>
			</g>
			<g>
				<g>
					<path style="fill:#331034;" d="M375.079,91.432c-2.825,1.486-5.953,2.059-8.416,0.907c-6.125-2.866-9.095-4.815-9.095-4.815
						s-1.969-2.914-2.599-6.483c-0.672-3.792,0.172-8.324,6.503-10.875c12.286-4.951,20.51,5.208,21.036,11.224
						C382.823,84.987,379.285,89.221,375.079,91.432z"/>
				</g>
				<g>
					<path style="fill:#FF4950;" d="M375.079,91.432c-2.825,1.486-5.953,2.059-8.416,0.907c-6.125-2.866-9.095-4.815-9.095-4.815
						s-1.969-2.914-2.599-6.483C358.495,80.828,371.027,83.053,375.079,91.432z"/>
				</g>
				<g>
					<path style="fill:#331034;" d="M335.125,102.791c0,0-1.984-14.701,14.466-18.928c16.45-4.227,29.331,9.821,27.437,21.346
						c-1.894,11.525-8.914,11.237-8.914,11.237L335.125,102.791z"/>
				</g>
				<g>
					<g>
						<path style="fill:#331034;" d="M371.86,94.264l-0.035-0.969c0.045-0.002,4.515-0.208,7.367-3.452
							c1.886-2.146,2.67-5.14,2.329-8.901l0.966-0.088c0.366,4.041-0.5,7.283-2.574,9.637
							C376.779,94.049,372.06,94.257,371.86,94.264z"/>
					</g>
				</g>
				<g>
					<g>
						<g>
							<g>
								<g>
									<path style="fill:#FD9B82;" d="M347.803,141.475c0,0,0.056,3.818,5.517,4.559c6.534,0.891,12.806-4.404,12.806-4.404
										c-1.061-3.985-1.247-8.73-1.005-12.237c0.119-1.774,0.286-2.938,0.286-2.938l-0.003,0.003l-17.082,6.956l-0.278,4.337
										l-0.139,2.138L347.803,141.475z"/>
								</g>
							</g>
						</g>
					</g>
					<g>
						<g>
							<g>
								<g>
									<path style="fill:#331034;" d="M348.044,137.751c8.999-0.533,14.928-5.698,17.146-9.291
										c0.114-1.661,0.206-1.969,0.214-2.002l-17.082,6.956L348.044,137.751z"/>
								</g>
							</g>
						</g>
					</g>
				</g>
				<g>
					<g>
						<g>
							<g>
								<path style="fill:#EE7266;" d="M339.939,110.391c0,0-0.997-3.509-4.437-2.913c-3.44,0.596-3.76,14.735,4.69,13.916
									L339.939,110.391z"/>
							</g>
						</g>
					</g>
				</g>
				<g>
					<g>
						<g>
							<g>
								<path style="fill:#FD9B82;" d="M335.134,115.377c0.005,0.073,0.01,0.143,0.016,0.216c0.052,0.65,0.112,1.311,0.19,1.982
									c0.005,0.036,0.008,0.076,0.013,0.112c0.099,0.866,0.216,1.742,0.356,2.622c0.122,0.754,0.231,1.521,0.421,2.27
									c2.262,8.902,8.302,12.581,16.076,11.567c14.298-1.864,19.165-15.965,20.759-23.941c0.572-2.864,0.718-4.775,0.718-4.775
									c0.057-10.588-11.678-18.915-21.477-18.005c-13.732,1.274-16.101,9.477-16.887,15.906c-0.088,0.702-0.156,1.384-0.216,2.031
									C334.921,107.302,334.801,111.075,335.134,115.377z"/>
							</g>
						</g>
					</g>
				</g>
				<g>
					<g>
						<g>
							<path style="fill:#EE7266;" d="M346.445,128.971c0.782,0.171,1.818,0.197,2.911-0.34c0.209-0.103,0.295-0.355,0.192-0.563
								c-0.103-0.208-0.355-0.294-0.563-0.192c-1.797,0.882-3.415-0.113-3.483-0.156c-0.196-0.124-0.456-0.065-0.58,0.13
								c-0.124,0.196-0.067,0.455,0.128,0.58C345.093,128.456,345.632,128.792,346.445,128.971z"/>
						</g>
					</g>
				</g>
				<g>
					<g>
						<g>
							<g>
								<g>
									<g>
										<path style="fill:#331034;" d="M351.82,107.144c-0.188-0.064-0.351-0.201-0.441-0.395
											c-0.175-0.376-0.013-0.822,0.362-0.999c1.475-0.693,4.782-1.223,6.738,1.726c0.229,0.347,0.135,0.814-0.212,1.044
											c-0.346,0.23-0.814,0.135-1.044-0.211c-1.721-2.597-4.719-1.252-4.845-1.194
											C352.196,107.198,351.997,107.203,351.82,107.144z"/>
									</g>
								</g>
							</g>
						</g>
					</g>
				</g>
				<g>
					<g>
						<g>
							<g>
								<g>
									<g>
										<path style="fill:#331034;" d="M337.126,108.594c-0.197,0.025-0.403-0.028-0.569-0.163
											c-0.322-0.262-0.371-0.734-0.111-1.056c1.025-1.267,3.769-3.188,6.816-1.388c0.358,0.212,0.477,0.674,0.265,1.031
											c-0.211,0.359-0.673,0.477-1.031,0.265c-2.681-1.585-4.792,0.933-4.88,1.041
											C337.488,108.48,337.311,108.571,337.126,108.594z"/>
									</g>
								</g>
							</g>
						</g>
					</g>
				</g>
				<g>
					<g>
						<g>
							<g>
								<path style="fill:#331034;" d="M337.936,102.791c0,0-0.119,2.125-1.502,3.994c-0.715,0.966-1.196,2.085-1.33,3.28
									l-0.162,1.457c0,0-0.927-5.974,0.374-8.19L337.936,102.791z"/>
							</g>
						</g>
					</g>
				</g>
				<g>
					<g>
						<g>
							<g>
								<path style="fill:#FFFFFF;" d="M353.519,121.75c0,0-7.331,0.45-11.428-0.322c0,0-0.35,5.003,5.961,4.737
									C353.273,125.945,353.519,121.75,353.519,121.75z"/>
							</g>
						</g>
					</g>
				</g>
				<g>
					<g>
						<g>
							<g>
								<path style="fill:#EE7266;" d="M355.472,115.292c-0.001,0.628,1.699,1.141,3.798,1.145c2.099,0.004,3.801-0.503,3.802-1.131
									c0.001-0.628-1.699-1.141-3.798-1.145C357.175,114.157,355.473,114.664,355.472,115.292z"/>
							</g>
						</g>
					</g>
				</g>
				<g>
					<g>
						<g>
							<g>
								<path style="fill:#EE7266;" d="M335.134,115.376c0.005,0.073,0.01,0.143,0.016,0.216c0.052,0.65,0.112,1.311,0.19,1.982
									c0.317,0.016,0.65,0.021,0.996,0.016c2.309-0.042,4.195-0.585,4.208-1.217c0.013-0.629-1.846-1.108-4.156-1.071
									C335.951,115.309,335.53,115.335,335.134,115.376z"/>
							</g>
						</g>
					</g>
				</g>
				<g>
					<g>
						<g>
							<g>
								<path style="fill:#331034;" d="M353.007,111.621c-0.002,1.126,0.494,2.04,1.108,2.041c0.614,0.001,1.113-0.911,1.115-2.037
									c0.002-1.126-0.494-2.04-1.108-2.041C353.509,109.583,353.009,110.495,353.007,111.621z"/>
							</g>
						</g>
					</g>
				</g>
				<g>
					<g>
						<g>
							<g>
								<path style="fill:#331034;" d="M339.432,111.7c-0.002,1.126,0.494,2.04,1.108,2.041c0.614,0.001,1.113-0.911,1.115-2.037
									c0.002-1.126-0.494-2.04-1.108-2.041C339.934,109.662,339.434,110.574,339.432,111.7z"/>
							</g>
						</g>
					</g>
				</g>
				<g>
					<g>
						<g>
							<g>
								<path style="fill:#EE7266;" d="M347.906,120.177c0.371,0,0.678-0.294,0.691-0.668c0.014-0.382-0.285-0.703-0.668-0.716
									c-0.565-0.02-1.028-0.067-1.36-0.111c0.237-2.154,1.01-5.065,1.018-5.097c0.099-0.37-0.121-0.749-0.49-0.848
									c-0.37-0.1-0.749,0.121-0.848,0.49c-0.04,0.149-0.979,3.687-1.116,5.99c-0.02,0.337,0.206,0.639,0.535,0.716
									c0.034,0.008,0.861,0.197,2.212,0.244C347.89,120.177,347.898,120.177,347.906,120.177z"/>
							</g>
						</g>
					</g>
				</g>
				<g>
					<g>
						<g>
							<g>
								<path style="fill:#331034;" d="M365.408,106.724c0.635,3.514-1.243,10.531,0.928,10.531c2.172,0,3.628-7.722,3.628-7.722
									l3.001,0.671c0.572-2.864,0.718-4.775,0.718-4.775c0.057-10.588-11.678-18.915-21.477-18.005
									c-13.732,1.274-16.101,9.477-16.887,15.906l2.616-0.541c5.761-0.765,12.356-8.993,12.356-8.993
									C349.618,100.269,354.501,102.305,365.408,106.724z"/>
							</g>
						</g>
					</g>
				</g>
				<g>
					<g>
						<path style="fill:#331034;" d="M366.865,108.286c-10.112-1.996-16.173-5.202-18.014-9.529
							c-1.406-3.304,0.261-5.958,0.333-6.07L350,93.212l-0.408-0.262l0.409,0.261c-0.06,0.095-1.462,2.358-0.249,5.185
							c1.181,2.753,5.142,6.539,17.302,8.939L366.865,108.286z"/>
					</g>
				</g>
				<g>
					<g>
						<g>
							<g>
								<g>
									<path style="fill:#FD9B82;" d="M369.734,109.917c0,0,2.02-3.724,5.767-2.176c3.747,1.548,0.524,17.653-8.845,14.581
										L369.734,109.917z"/>
								</g>
							</g>
						</g>
					</g>
					<g>
						<g>
							<g>
								<g>
									<path style="fill:#FFFFFF;" d="M370.575,121.164c0,0.854,0.693,1.547,1.547,1.547c0.854,0,1.547-0.692,1.547-1.547
										c0-0.854-0.692-1.546-1.547-1.546C371.267,119.617,370.575,120.31,370.575,121.164z"/>
								</g>
							</g>
						</g>
					</g>
					<g>
						<g>
							<g>
								<g>
									<path style="fill:#EE7266;" d="M370.694,118.085c0.003,0,0.007,0,0.011,0c0.383-0.006,0.688-0.321,0.682-0.703
										c-0.066-4.353,3.297-6.278,3.331-6.297c0.334-0.186,0.454-0.608,0.268-0.942c-0.186-0.334-0.609-0.454-0.942-0.268
										c-0.168,0.094-4.12,2.356-4.041,7.528C370.008,117.782,370.317,118.085,370.694,118.085z"/>
								</g>
							</g>
						</g>
					</g>
					<g>
						<g>
							<g>
								<g>
									<path style="fill:#EE7266;" d="M374.087,115.112c0.282,0,0.548-0.174,0.65-0.455c0.132-0.359-0.053-0.757-0.412-0.888
										c-0.215-0.079-2.139-0.745-3.487,0.049c-0.329,0.194-0.439,0.619-0.245,0.948c0.194,0.33,0.619,0.439,0.948,0.245
										c0.671-0.396,1.922-0.082,2.307,0.059C373.928,115.098,374.008,115.112,374.087,115.112z"/>
								</g>
							</g>
						</g>
					</g>
				</g>
			</g>
			<g>
				<g>
					<g>
						<path style="fill:#FFFFFF;" d="M385.012,221.39c-0.023,0-0.046-0.001-0.069-0.003c-14.699-1.377-26.193-7.243-34.165-17.436
							c-9-11.509-11.8-26.54-12.564-37.122c-0.826-11.437,0.485-20.299,0.498-20.387c0.06-0.397,0.43-0.67,0.828-0.61
							c0.397,0.06,0.671,0.431,0.611,0.828c-0.013,0.087-1.302,8.818-0.483,20.102c0.752,10.371,3.49,25.088,12.26,36.299
							c7.715,9.863,18.868,15.542,33.15,16.879c0.4,0.037,0.694,0.392,0.657,0.792C385.7,221.107,385.383,221.39,385.012,221.39z"/>
					</g>
				</g>
				<g>
					<g>
						<g>
							<path style="fill:#331034;" d="M391.787,231.59c-27.806,7.347-37.577-9.272-37.577-9.272
								c0.383-2.568,1.084-4.908,2.197-6.956c0.242-0.446,0.504-0.875,0.786-1.292c0.757-1.12,1.661-2.134,2.733-3.028
								c16.226,6.183,30.808,8.341,30.808,8.341c0.274,1.067,0.499,2.134,0.679,3.198c0.082,0.49,0.155,0.98,0.218,1.469
								C391.952,226.57,392.005,229.083,391.787,231.59z"/>
						</g>
					</g>
					<g>
						<g>
							<circle style="fill:#623B61;" cx="374.018" cy="220.29" r="1.357"/>
						</g>
					</g>
					<g>
						<g>
							<g>
								<path style="fill:#623B61;" d="M391.629,224.049c-2.541,0.771-6.476,1.644-11.231,1.644c-1.867,0-3.862-0.136-5.948-0.465
									c-8.222-1.295-14.863-6.774-18.044-9.866c0.242-0.446,0.504-0.875,0.786-1.292c2.965,2.907,9.539,8.469,17.484,9.723
									c7.216,1.137,13.377-0.182,16.735-1.212C391.494,223.069,391.566,223.559,391.629,224.049z"/>
							</g>
						</g>
					</g>
				</g>
			</g>
		</g>
		<g>
			<g>
				<g>
					<path style="fill:#006E85;" d="M262.739,93.833c-0.672,0-1.217-0.545-1.217-1.217V76.391c0-0.672,0.545-1.217,1.217-1.217
						c0.672,0,1.217,0.545,1.217,1.217v16.225C263.956,93.288,263.411,93.833,262.739,93.833z"/>
				</g>
			</g>
			<g>
				<g>
					<path style="fill:#FF4950;" d="M242.979,99.569c-0.311,0-0.623-0.119-0.861-0.356L230.645,87.74
						c-0.475-0.475-0.475-1.246,0-1.721c0.475-0.475,1.246-0.475,1.721,0l11.473,11.473c0.475,0.475,0.475,1.246,0,1.721
						C243.602,99.45,243.29,99.569,242.979,99.569z"/>
				</g>
			</g>
			<g>
				<g>
					<path style="fill:#FF4950;" d="M280.459,99.569c-0.311,0-0.623-0.119-0.86-0.356c-0.475-0.475-0.475-1.246,0-1.721
						l11.473-11.473c0.475-0.475,1.245-0.475,1.721,0c0.475,0.475,0.475,1.246,0,1.721l-11.473,11.473
						C281.081,99.45,280.77,99.569,280.459,99.569z"/>
				</g>
			</g>
			<g>
				<g>
					<path style="fill:#FF4950;" d="M230.099,141.986c-0.311,0-0.623-0.119-0.86-0.356c-0.475-0.475-0.475-1.246,0-1.721
						l11.473-11.473c0.475-0.475,1.246-0.475,1.721,0c0.475,0.475,0.475,1.246,0,1.721l-11.473,11.473
						C230.722,141.867,230.41,141.986,230.099,141.986z"/>
				</g>
			</g>
			<g>
				<g>
					<path style="fill:#FF4950;" d="M291.931,141.986c-0.311,0-0.623-0.119-0.86-0.357l-11.473-11.473
						c-0.475-0.475-0.475-1.246,0-1.721c0.475-0.475,1.245-0.475,1.721,0l11.473,11.473c0.475,0.475,0.475,1.246,0,1.721
						C292.554,141.867,292.243,141.986,291.931,141.986z"/>
				</g>
			</g>
			<g>
				<g>
					<path style="fill:#006E85;" d="M300.021,113.466h-16.225c-0.672,0-1.217-0.545-1.217-1.217c0-0.672,0.545-1.217,1.217-1.217
						h16.225c0.672,0,1.217,0.545,1.217,1.217C301.238,112.921,300.693,113.466,300.021,113.466z"/>
				</g>
			</g>
			<g>
				<g>
					<path style="fill:#006E85;" d="M239.618,113.466h-16.225c-0.672,0-1.217-0.545-1.217-1.217c0-0.672,0.545-1.217,1.217-1.217
						h16.225c0.672,0,1.217,0.545,1.217,1.217C240.835,112.921,240.291,113.466,239.618,113.466z"/>
				</g>
			</g>
		</g>
	</g>
</g>
</svg>
