<?xml version="1.0" encoding="utf-8"?>
<!-- Generator: Adobe Illustrator 27.5.0, SVG Export Plug-In . SVG Version: 6.00 Build 0)  -->
<svg version="1.1" xmlns="http://www.w3.org/2000/svg" xmlns:xlink="http://www.w3.org/1999/xlink" x="0px" y="0px"
	 viewBox="0 0 500 500" style="enable-background:new 0 0 500 500;" xml:space="preserve">
<g id="Background_Complete">
	<path style="fill:#E0E0E0;" d="M52.083,240.812l1.655,5.634c0.269,0.915,0.984,1.63,1.899,1.899L61.271,250l-5.634,1.655
		c-0.915,0.269-1.63,0.984-1.899,1.899l-1.655,5.634l-1.655-5.634c-0.269-0.915-0.984-1.63-1.899-1.899L42.895,250l5.634-1.655
		c0.915-0.269,1.63-0.984,1.899-1.899L52.083,240.812z"/>
	<path style="fill:#E0E0E0;" d="M257.749,443.047l1.655,5.634c0.269,0.915,0.984,1.63,1.899,1.899l5.634,1.655l-5.634,1.655
		c-0.915,0.269-1.63,0.984-1.899,1.899l-1.655,5.634l-1.655-5.634c-0.269-0.915-0.984-1.63-1.899-1.899l-5.634-1.655l5.634-1.655
		c0.915-0.269,1.63-0.984,1.899-1.899L257.749,443.047z"/>
	<path style="fill:#E0E0E0;" d="M66.783,287.129l1.094,3.725c0.178,0.605,0.651,1.078,1.255,1.255l3.725,1.094l-3.725,1.094
		c-0.605,0.178-1.078,0.651-1.255,1.255l-1.094,3.725l-1.094-3.725c-0.178-0.605-0.65-1.078-1.255-1.255l-3.725-1.094l3.725-1.094
		c0.605-0.178,1.078-0.651,1.255-1.255L66.783,287.129z"/>
	<path style="fill:#E0E0E0;" d="M412.13,259.095l1.655,5.634c0.269,0.915,0.984,1.63,1.899,1.899l5.634,1.655l-5.634,1.655
		c-0.915,0.269-1.63,0.984-1.899,1.899l-1.655,5.634l-1.655-5.634c-0.269-0.915-0.984-1.63-1.899-1.899l-5.634-1.655l5.634-1.655
		c0.915-0.269,1.63-0.984,1.899-1.899L412.13,259.095z"/>
	<path style="fill:#E0E0E0;" d="M373.094,65.955l1.655,5.634c0.269,0.915,0.984,1.63,1.899,1.899l5.634,1.655l-5.634,1.655
		c-0.915,0.269-1.63,0.984-1.899,1.899l-1.655,5.634l-1.655-5.634c-0.269-0.915-0.984-1.63-1.899-1.899l-5.634-1.655l5.634-1.655
		c0.915-0.269,1.63-0.984,1.899-1.899L373.094,65.955z"/>
	<path style="fill:#E0E0E0;" d="M354.954,130.454l1.789,6.091c0.29,0.989,1.064,1.762,2.053,2.053l6.091,1.789l-6.091,1.789
		c-0.989,0.291-1.762,1.064-2.053,2.053l-1.789,6.091l-1.789-6.091c-0.29-0.989-1.064-1.762-2.053-2.053l-6.091-1.789l6.091-1.789
		c0.989-0.291,1.762-1.064,2.053-2.053L354.954,130.454z"/>
	<path style="fill:#E0E0E0;" d="M379.168,275.335l1.094,3.725c0.178,0.605,0.651,1.078,1.255,1.255l3.725,1.094l-3.725,1.094
		c-0.605,0.178-1.078,0.651-1.255,1.255l-1.094,3.725l-1.094-3.725c-0.178-0.605-0.651-1.078-1.255-1.255l-3.725-1.094l3.725-1.094
		c0.605-0.178,1.078-0.65,1.255-1.255L379.168,275.335z"/>
	<path style="fill:#E0E0E0;" d="M78.259,177.337l1.094,3.725c0.178,0.605,0.651,1.078,1.255,1.255l3.725,1.094l-3.725,1.094
		c-0.605,0.178-1.078,0.651-1.255,1.255l-1.094,3.725l-1.094-3.725c-0.178-0.605-0.65-1.078-1.255-1.255l-3.725-1.094l3.725-1.094
		c0.605-0.178,1.078-0.651,1.255-1.255L78.259,177.337z"/>
	<path style="fill:#E0E0E0;" d="M196.839,28.363l1.094,3.725c0.178,0.605,0.651,1.078,1.255,1.255l3.725,1.094l-3.725,1.094
		c-0.605,0.178-1.078,0.651-1.255,1.255l-1.094,3.725l-1.094-3.725c-0.178-0.605-0.65-1.078-1.255-1.255l-3.725-1.094l3.725-1.094
		c0.605-0.178,1.078-0.651,1.255-1.255L196.839,28.363z"/>
	<path style="fill:#E0E0E0;" d="M127.49,61.055l1.877,6.388c0.305,1.037,1.116,1.848,2.153,2.153l6.388,1.877l-6.388,1.877
		c-1.037,0.305-1.848,1.116-2.153,2.153l-1.877,6.388l-1.877-6.388c-0.305-1.037-1.116-1.848-2.153-2.153l-6.388-1.877l6.388-1.877
		c1.037-0.305,1.848-1.116,2.153-2.153L127.49,61.055z"/>
	<path style="fill:#E0E0E0;" d="M136.803,131.243l1.094,3.725c0.178,0.605,0.651,1.078,1.255,1.255l3.725,1.094l-3.725,1.094
		c-0.605,0.178-1.078,0.651-1.255,1.255l-1.094,3.725l-1.094-3.725c-0.178-0.605-0.651-1.078-1.255-1.255l-3.725-1.094l3.725-1.094
		c0.605-0.178,1.078-0.65,1.255-1.255L136.803,131.243z"/>
	<g>
		<g>
			<g>
				<g>
					<g>
						<g>
							<path style="fill:#E0E0E0;" d="M441.551,351.879c-39.291-8.339-69.975,11.861-69.975,11.861
								C402.135,378.605,441.551,351.879,441.551,351.879z"/>
						</g>
					</g>
				</g>
			</g>
			<g>
				<g>
					<g>
						<g>
							<path style="fill:#E0E0E0;" d="M329.837,349.903c-0.015,24.649,16.537,41.709,16.537,41.709
								C351.577,371.741,329.837,349.903,329.837,349.903z"/>
						</g>
					</g>
				</g>
			</g>
			<g>
				<g>
					<g>
						<g>
							<path style="fill:#E0E0E0;" d="M355.733,389.001c29.053,5.696,52.967-9.725,52.967-9.725
								C386.481,368.604,355.733,389.001,355.733,389.001z"/>
						</g>
					</g>
				</g>
			</g>
			<g>
				<g>
					<g>
						<g>
							<g>
								<path style="fill:#E0E0E0;" d="M387.883,338.026c-0.451-0.316-13.114,16.961-28.282,38.584
									c-15.173,21.631-27.105,39.416-26.655,39.731c0.45,0.316,13.111-16.958,28.284-38.589
									C376.398,356.13,388.332,338.341,387.883,338.026z"/>
							</g>
						</g>
					</g>
				</g>
			</g>
			<g>
				<g>
					<g>
						<g>
							<path style="fill:#E0E0E0;" d="M431.111,291.168c0,0-43.208,15.24-48.715,55.803
								C382.396,346.971,419.443,334.476,431.111,291.168z"/>
						</g>
					</g>
				</g>
			</g>
			<g>
				<g>
					<g>
						<g>
							<path style="fill:#E0E0E0;" d="M366.072,295.879c0,0-25.608,37.992-5.85,73.844
								C360.222,369.723,382.52,337.607,366.072,295.879z"/>
						</g>
					</g>
				</g>
			</g>
		</g>
	</g>
	<g>
		<g>
			<g>
				<g>
					<g>
						<g>
							<path style="fill:#E0E0E0;" d="M111.652,313.949c-14.065,38.208,1.749,71.922,1.749,71.922
								C132.747,357.369,111.652,313.949,111.652,313.949z"/>
						</g>
					</g>
				</g>
			</g>
			<g>
				<g>
					<g>
						<g>
							<path style="fill:#E0E0E0;" d="M95.686,431.897c24.727,3.59,44.243-10.54,44.243-10.54
								C120.748,413.254,95.686,431.897,95.686,431.897z"/>
						</g>
					</g>
				</g>
			</g>
			<g>
				<g>
					<g>
						<g>
							<path style="fill:#E0E0E0;" d="M138.667,411.588c9.928-28.321-2.073-54.548-2.073-54.548
								C122.664,377.783,138.667,411.588,138.667,411.588z"/>
						</g>
					</g>
				</g>
			</g>
			<g>
				<g>
					<g>
						<g>
							<g>
								<path style="fill:#E0E0E0;" d="M92.19,371.941c-0.382,0.406,15.114,15.616,34.606,33.97
									c19.5,18.36,35.611,32.91,35.993,32.505c0.382-0.405-15.111-15.613-34.61-33.973
									C108.687,386.089,92.572,371.536,92.19,371.941z"/>
							</g>
						</g>
					</g>
				</g>
			</g>
			<g>
				<g>
					<g>
						<g>
							<path style="fill:#E0E0E0;" d="M51.451,321.776c0,0,9.021,45.559,48.917,56.966
								C100.368,378.743,93.207,339.764,51.451,321.776z"/>
						</g>
					</g>
				</g>
			</g>
			<g>
				<g>
					<g>
						<g>
							<path style="fill:#E0E0E0;" d="M46.743,387.709c0,0,34.4,31.202,73.234,16.58C119.977,404.289,90.992,377.26,46.743,387.709z
								"/>
						</g>
					</g>
				</g>
			</g>
		</g>
	</g>
	<g>
		<g>
			<g>
				<g>
					<g>
						<g>
							<path style="fill:#E0E0E0;" d="M152.819,146.575c-16.979,34.827-5.238,68.263-5.238,68.263
								C168.629,189.706,152.819,146.575,152.819,146.575z"/>
						</g>
					</g>
				</g>
			</g>
			<g>
				<g>
					<g>
						<g>
							<path style="fill:#E0E0E0;" d="M126.396,256.716c23.067,5.769,42.899-5.738,42.899-5.738
								C151.912,241.467,126.396,256.716,126.396,256.716z"/>
						</g>
					</g>
				</g>
			</g>
			<g>
				<g>
					<g>
						<g>
							<path style="fill:#E0E0E0;" d="M169.037,241.608c12.115-25.862,3.266-51.845,3.266-51.845
								C157.126,208.068,169.037,241.608,169.037,241.608z"/>
						</g>
					</g>
				</g>
			</g>
			<g>
				<g>
					<g>
						<g>
							<g>
								<path style="fill:#E0E0E0;" d="M128.834,199.615c-0.401,0.348,12.813,16.234,29.509,35.48
									c16.702,19.253,30.562,34.573,30.962,34.225c0.401-0.347-12.81-16.231-29.512-35.483
									C143.096,214.592,129.234,199.268,128.834,199.615z"/>
							</g>
						</g>
					</g>
				</g>
			</g>
			<g>
				<g>
					<g>
						<g>
							<path style="fill:#E0E0E0;" d="M95.071,148.214c0,0,4.174,43.999,40.854,58.625
								C135.924,206.839,132.881,169.248,95.071,148.214z"/>
						</g>
					</g>
				</g>
			</g>
			<g>
				<g>
					<g>
						<g>
							<path style="fill:#E0E0E0;" d="M84.293,210.187c0,0,29.579,32.839,67.748,22.718
								C152.041,232.905,127.19,204.537,84.293,210.187z"/>
						</g>
					</g>
				</g>
			</g>
		</g>
	</g>
	<g>
		<g>
			<g>
				<g>
					<g>
						<g>
							<path style="fill:#E0E0E0;" d="M445.407,222.963c-35.842-14.715-68.458-0.859-68.458-0.859
								C403.376,241.502,445.407,222.963,445.407,222.963z"/>
						</g>
					</g>
				</g>
			</g>
			<g>
				<g>
					<g>
						<g>
							<path style="fill:#E0E0E0;" d="M333.8,203.644c-4.281,23.389,8.472,42.444,8.472,42.444
								C350.651,228.132,333.8,203.644,333.8,203.644z"/>
						</g>
					</g>
				</g>
			</g>
			<g>
				<g>
					<g>
						<g>
							<path style="fill:#E0E0E0;" d="M351.606,245.231c26.585,10.435,51.947-0.059,51.947-0.059
								C384.316,231.198,351.606,245.231,351.606,245.231z"/>
						</g>
					</g>
				</g>
			</g>
			<g>
				<g>
					<g>
						<g>
							<g>
								<path style="fill:#E0E0E0;" d="M390.941,202.422c-0.373-0.378-15.381,13.826-33.519,31.719
									c-18.144,17.9-32.546,32.712-32.174,33.089c0.372,0.378,15.378-13.823,33.522-31.722
									C376.908,217.614,391.313,202.799,390.941,202.422z"/>
							</g>
						</g>
					</g>
				</g>
			</g>
			<g>
				<g>
					<g>
						<g>
							<path style="fill:#E0E0E0;" d="M440.075,165.439c0,0-43.642,6.981-55.89,44.522
								C384.185,209.961,421.505,204.518,440.075,165.439z"/>
						</g>
					</g>
				</g>
			</g>
			<g>
				<g>
					<g>
						<g>
							<path style="fill:#E0E0E0;" d="M377.539,158.65c0,0-30.879,31.62-18.336,69.063
								C359.204,227.713,385.924,201.096,377.539,158.65z"/>
						</g>
					</g>
				</g>
			</g>
		</g>
	</g>
</g>
<g id="Background_Simple" style="display:none;">
	<path style="display:inline;fill:#F5F5F5;" d="M436.9,212.094c-30.059-3.021-58.024-22.116-71.78-49.012
		c-13.757-26.896,2.417-68.581,17.561-94.721c-19.924,12.294-52.717,15.856-77.746,4.674c-18.414-8.227-49.814-38.251-56.057-57.617
		C226.97,46.356,188.937,94.757,118.55,77.323l0,0c7.573,19.928,27.11,53.809,16.479,72.287s-29.83,31.785-50.864,35.254
		c17.505,15.663,26.098,40.679,21.914,63.792c-4.184,23.113-21.003,43.529-42.888,52.061c22.31,5.064,42.484,18.978,55.144,38.033
		c12.66,19.056,17.669,43.045,13.69,65.574c28.184-12.612,60.652-15.4,90.574-7.78s57.101,25.601,75.818,50.159
		c16.391-45.738,56.654-82.154,103.802-93.887c-17.125-20.538-19.554-50.603-11.195-76.004
		C399.383,251.412,417.134,230.104,436.9,212.094z"/>
</g>
<g id="Lines">
	<g>
		<g>
			<path style="fill:#263238;" d="M254.028,73.568c-0.144,0-0.261-11.495-0.261-25.671c0-14.181,0.117-25.674,0.261-25.674
				c0.144,0,0.26,11.492,0.26,25.674C254.288,62.073,254.172,73.568,254.028,73.568z"/>
		</g>
		<g>
			<path style="fill:#263238;" d="M205.485,87.349c-0.102,0.102-7.293-6.924-16.06-15.692c-8.77-8.77-15.795-15.959-15.693-16.061
				c0.102-0.102,7.291,6.923,16.061,15.693C198.56,80.056,205.586,87.247,205.485,87.349z"/>
		</g>
		<g>
			<path style="fill:#263238;" d="M327.688,56.069c0.102,0.101-7.773,8.264-17.588,18.229c-9.819,9.969-17.859,17.967-17.961,17.866
				c-0.102-0.101,7.771-8.262,17.59-18.231C319.544,63.967,327.586,55.968,327.688,56.069z"/>
		</g>
		<g>
			<path style="fill:#263238;" d="M224.724,73.035c-0.125,0.07-2.27-3.521-4.789-8.021c-2.52-4.501-4.46-8.205-4.335-8.276
				c0.126-0.07,2.269,3.52,4.789,8.021C222.909,69.259,224.85,72.965,224.724,73.035z"/>
		</g>
		<g>
			<path style="fill:#263238;" d="M292.088,53.583c0.063,0.048-0.736,1.173-1.973,3.022c-1.238,1.849-2.892,4.439-4.55,7.399
				c-1.655,2.962-2.998,5.727-3.925,7.749c-0.929,2.022-1.47,3.291-1.543,3.262c-0.034-0.013,0.062-0.346,0.263-0.937
				c0.199-0.593,0.519-1.438,0.943-2.472c0.845-2.068,2.143-4.877,3.808-7.857c1.668-2.977,3.381-5.553,4.702-7.355
				c0.66-0.902,1.213-1.617,1.614-2.097C291.826,53.817,292.059,53.562,292.088,53.583z"/>
		</g>
		<g>
			<path style="fill:#263238;" d="M332.057,107.616c0.043,0.137-3.472,1.375-7.851,2.764c-4.38,1.39-7.965,2.405-8.009,2.268
				c-0.043-0.137,3.471-1.374,7.851-2.764C328.427,108.494,332.013,107.479,332.057,107.616z"/>
		</g>
		<g>
			<path style="fill:#263238;" d="M173.772,113.486c-0.025,0.142-3.497-0.353-7.755-1.104c-4.259-0.752-7.69-1.475-7.665-1.617
				c0.025-0.141,3.497,0.353,7.755,1.104C170.365,112.621,173.797,113.345,173.772,113.486z"/>
		</g>
	</g>
</g>
<g id="Stars">
	<path style="fill:#FF725E;" d="M177.017,80.787l1.478,5.031c0.24,0.817,0.879,1.455,1.695,1.695l5.031,1.478l-5.031,1.478
		c-0.817,0.24-1.455,0.879-1.695,1.696l-1.478,5.031l-1.478-5.031c-0.24-0.817-0.879-1.455-1.696-1.696l-5.031-1.478l5.031-1.478
		c0.817-0.24,1.456-0.879,1.696-1.695L177.017,80.787z"/>
	<path style="fill:#FF725E;" d="M284.677,28.582l1.478,5.031c0.24,0.817,0.879,1.455,1.695,1.695l5.031,1.478l-5.031,1.478
		c-0.817,0.24-1.456,0.879-1.695,1.695l-1.478,5.031l-1.478-5.031c-0.24-0.817-0.879-1.455-1.695-1.695l-5.031-1.478l5.031-1.478
		c0.817-0.24,1.455-0.879,1.695-1.695L284.677,28.582z"/>
	<path style="fill:#FF725E;" d="M178.348,127.26l0.648,2.207c0.105,0.358,0.386,0.638,0.744,0.744l2.207,0.648l-2.207,0.648
		c-0.358,0.105-0.639,0.385-0.744,0.744l-0.648,2.207l-0.648-2.207c-0.105-0.358-0.385-0.639-0.744-0.744l-2.207-0.648l2.207-0.648
		c0.358-0.105,0.639-0.385,0.744-0.744L178.348,127.26z"/>
	<path style="fill:#FF725E;" d="M230.396,40.697l0.648,2.207c0.105,0.358,0.385,0.639,0.744,0.744l2.207,0.648l-2.207,0.648
		c-0.358,0.105-0.639,0.386-0.744,0.744l-0.648,2.207l-0.648-2.207c-0.105-0.358-0.385-0.639-0.744-0.744l-2.207-0.648l2.207-0.648
		c0.358-0.105,0.639-0.386,0.744-0.744L230.396,40.697z"/>
	<path style="fill:#FF725E;" d="M321.311,85.138l1.149,3.911c0.186,0.635,0.683,1.132,1.318,1.318l3.911,1.149l-3.911,1.149
		c-0.635,0.187-1.132,0.683-1.318,1.318l-1.149,3.911l-1.149-3.911c-0.187-0.635-0.683-1.132-1.318-1.318l-3.911-1.149l3.911-1.149
		c0.635-0.187,1.132-0.683,1.318-1.318L321.311,85.138z"/>
	<path style="fill:#FF725E;" d="M323.555,133.309l0.575,1.955c0.093,0.318,0.341,0.566,0.659,0.659l1.955,0.575l-1.955,0.574
		c-0.318,0.093-0.566,0.342-0.659,0.659l-0.575,1.955l-0.574-1.955c-0.093-0.318-0.341-0.566-0.659-0.659l-1.955-0.574l1.955-0.575
		c0.318-0.093,0.566-0.341,0.659-0.659L323.555,133.309z"/>
</g>
<g id="Hands">
	<g>
		<g>
			<path style="fill:#FF725E;" d="M278.02,422.519c0,0-3.918-4.387,0.497-11.445c0,0-7.384-16.203-7.432-16.308
				c-0.048-0.105-11.096,12.543,1.823,24.109L278.02,422.519z"/>
			<path style="opacity:0.3;" d="M278.02,422.519c0,0-3.918-4.387,0.497-11.445c0,0-7.384-16.203-7.432-16.308
				c-0.048-0.105-11.096,12.543,1.823,24.109L278.02,422.519z"/>
		</g>
		<path style="fill:#AE7461;" d="M308.833,473.155c-2.459-0.243-73.95-152.859-89.089-204.012
			c-15.139-51.154-3.564-131.943,3.787-145.102c5.896-10.554,12.517-10.164,12.517-10.164s1.652-14.73,8.354-19.12
			c5.693-3.73,10.995-0.221,10.995-0.221c9.467-10.865,21.782-3.198,22.576,7.906c0,0,10.481-11.434,19.798,7.222
			s18.633,78.837,18.633,78.837s0-25.888,17.377-24.874c1.079,0.063,1.994,0.841,2.248,1.892l3.315,21.993
			c0,0,5.159,18.12,8.652,24.138c3.494,6.018,9.75,63.742,7.421,69.043c-2.329,5.301-20.38,46.825-22.127,55.251
			c-1.747,8.425-0.582,14.443,2.911,19.258c3.494,4.815,49.494,68.606,49.494,68.606S363.567,478.571,308.833,473.155z"/>
		<g style="opacity:0.2;">
			<path d="M243.929,95.787c1.305,2.703,1.986,5.704,1.977,8.705c3.153-1.059,6.651-1.157,9.802-0.096
				c3.152,1.061,5.922,3.311,7.446,6.267c1.272,2.467,1.649,5.281,2.06,8.026c1.185,7.913,2.806,15.76,4.855,23.494h-16.427
				l-14.737-18.798l-2.859-9.51C237.62,104.786,239.802,97.464,243.929,95.787z"/>
		</g>
		<g>
			<path style="fill:#6F4439;" d="M323.334,252.437c-0.015,0.01-0.18-0.23-0.482-0.697c-0.295-0.471-0.691-1.192-1.118-2.16
				c-0.84-1.938-1.669-4.938-1.873-8.72c-0.271-3.782,0.194-8.274,0.541-13.223c0.158-2.476,0.262-5.083,0.043-7.763
				c-0.268-2.673-0.639-5.467-1.036-8.3c-0.412-2.836-0.901-5.592-1.553-8.209c-0.741-2.608-1.135-5.236-1.351-7.718
				c-0.432-4.983-0.145-9.506,0.456-13.233c0.615-3.73,1.563-6.661,2.39-8.6c0.363-0.992,0.78-1.704,1.012-2.207
				c0.248-0.496,0.386-0.752,0.402-0.744c0.016,0.008-0.091,0.28-0.308,0.789c-0.201,0.516-0.586,1.238-0.918,2.236
				c-0.764,1.952-1.65,4.876-2.215,8.584c-0.551,3.706-0.797,8.195-0.342,13.132c0.231,2.472,0.621,5.032,1.368,7.637
				c0.665,2.638,1.16,5.411,1.574,8.258c0.399,2.853,0.764,5.619,1.029,8.334c0.215,2.721,0.099,5.351-0.073,7.836
				c-0.375,4.969-0.874,9.422-0.652,13.171c0.155,3.749,0.919,6.72,1.693,8.662c0.394,0.97,0.758,1.7,1.022,2.185
				C323.214,252.169,323.349,252.427,323.334,252.437z"/>
		</g>
		<g>
			<path style="fill:#6F4439;" d="M286.442,277.44c-0.018-0.004,0.004-0.175,0.062-0.497c0.076-0.38,0.167-0.844,0.279-1.406
				c0.121-0.611,0.282-1.356,0.525-2.207c0.237-0.852,0.466-1.835,0.83-2.888c0.339-1.061,0.711-2.224,1.197-3.442
				c0.441-1.235,1.012-2.514,1.604-3.865c1.24-2.673,2.751-5.549,4.595-8.411c1.858-2.854,3.848-5.422,5.779-7.65
				c0.999-1.084,1.922-2.139,2.874-3.042c0.916-0.938,1.819-1.76,2.657-2.494c0.816-0.759,1.618-1.372,2.305-1.93
				c0.681-0.564,1.295-1.016,1.808-1.37c0.469-0.327,0.857-0.598,1.176-0.82c0.272-0.183,0.42-0.271,0.43-0.257
				c0.01,0.015-0.117,0.132-0.368,0.341c-0.302,0.243-0.669,0.538-1.115,0.896c-0.492,0.377-1.085,0.85-1.746,1.434
				c-0.666,0.576-1.447,1.206-2.242,1.978c-0.818,0.748-1.7,1.58-2.597,2.525c-0.933,0.91-1.837,1.969-2.819,3.053
				c-1.897,2.23-3.859,4.786-5.703,7.618c-1.829,2.84-3.341,5.687-4.597,8.33c-0.599,1.335-1.181,2.599-1.637,3.82
				c-0.501,1.203-0.89,2.352-1.25,3.4c-0.385,1.04-0.637,2.011-0.9,2.852c-0.268,0.84-0.457,1.575-0.608,2.176
				c-0.149,0.551-0.272,1.007-0.373,1.381C286.516,277.28,286.46,277.443,286.442,277.44z"/>
		</g>
		<g>
			<path style="fill:#6F4439;" d="M333.245,338.814c0.028,0.023-0.272,0.429-0.84,1.146c-0.562,0.721-1.423,1.726-2.528,2.931
				c-2.207,2.411-5.477,5.558-9.465,8.571c-3.993,3.009-7.918,5.289-10.848,6.739c-1.464,0.728-2.669,1.276-3.518,1.614
				c-0.846,0.345-1.32,0.52-1.335,0.487c-0.014-0.033,0.432-0.271,1.251-0.672c0.821-0.394,1.998-0.99,3.433-1.757
				c2.873-1.527,6.738-3.84,10.703-6.828c3.96-2.992,7.246-6.073,9.511-8.408c1.133-1.167,2.034-2.131,2.641-2.81
				C332.865,339.154,333.218,338.791,333.245,338.814z"/>
		</g>
		<g>
			<path style="fill:#6F4439;" d="M301.924,414.91c-0.016,0.007-0.108-0.161-0.268-0.487c-0.179-0.381-0.402-0.856-0.674-1.437
				c-0.609-1.318-1.437-3.111-2.447-5.296c-2.083-4.463-5.058-10.583-8.6-17.209c-3.547-6.626-6.987-12.499-9.545-16.707
				c-1.258-2.053-2.29-3.736-3.049-4.974c-0.332-0.549-0.604-0.997-0.822-1.358c-0.183-0.314-0.272-0.483-0.257-0.493
				c0.015-0.01,0.133,0.14,0.345,0.435c0.24,0.346,0.539,0.778,0.904,1.305c0.78,1.137,1.872,2.807,3.192,4.89
				c2.641,4.164,6.138,10.018,9.691,16.655c3.548,6.638,6.476,12.794,8.476,17.302c1.001,2.254,1.784,4.089,2.298,5.368
				c0.236,0.597,0.43,1.085,0.585,1.477C301.881,414.721,301.94,414.903,301.924,414.91z"/>
		</g>
		<g>
			<path style="fill:#6F4439;" d="M304.41,212.966c0.034,0.14-2.573,0.889-5.822,1.672c-3.25,0.784-5.911,1.306-5.945,1.166
				c-0.034-0.14,2.573-0.888,5.823-1.672C301.715,213.349,304.377,212.827,304.41,212.966z"/>
		</g>
		<g>
			<path style="fill:#6F4439;" d="M286.943,191.122c-0.009,0.003-0.039-0.071-0.09-0.218c-0.058-0.177-0.128-0.392-0.214-0.655
				c-0.178-0.579-0.455-1.429-0.766-2.536c-0.642-2.21-1.499-5.428-2.441-9.433c-1.885-8.009-4.042-19.185-5.607-31.645
				c-1.562-12.461-2.211-23.847-1.876-32.082c0.158-4.116,0.592-7.438,1.112-9.686c0.515-2.254,1.122-3.394,1.122-3.394
				c0.008,0.004-0.011,0.082-0.057,0.23c-0.058,0.177-0.129,0.391-0.215,0.653c-0.108,0.282-0.205,0.642-0.31,1.071
				c-0.113,0.426-0.245,0.917-0.342,1.483c-0.456,2.245-0.832,5.553-0.942,9.655c-0.24,8.208,0.465,19.563,2.025,32.005
				c1.563,12.44,3.659,23.609,5.45,31.627c0.895,4.01,1.696,7.238,2.278,9.462c0.283,1.078,0.507,1.933,0.671,2.561
				c0.066,0.268,0.12,0.488,0.165,0.669C286.938,191.041,286.951,191.12,286.943,191.122z"/>
		</g>
		<g>
			<path style="fill:#6F4439;" d="M271.41,209.67c-0.008,0.004-0.055-0.088-0.139-0.27c-0.092-0.21-0.211-0.478-0.359-0.814
				c-0.319-0.754-0.765-1.809-1.333-3.151c-0.287-0.689-0.605-1.451-0.952-2.282c-0.321-0.848-0.669-1.766-1.042-2.75
				c-0.731-1.98-1.62-4.215-2.43-6.746c-0.422-1.261-0.864-2.581-1.324-3.955c-0.452-1.378-0.855-2.833-1.308-4.328
				c-0.935-2.983-1.738-6.225-2.629-9.624c-1.652-6.83-3.186-14.41-4.333-22.44c-1.103-8.04-1.701-15.752-1.986-22.774
				c-0.081-3.513-0.193-6.852-0.115-9.977c0.026-1.562,0.01-3.072,0.07-4.521c0.064-1.448,0.125-2.839,0.184-4.167
				c0.082-2.656,0.324-5.049,0.48-7.154c0.088-1.049,0.169-2.027,0.245-2.931c0.104-0.895,0.199-1.715,0.285-2.456
				c0.176-1.446,0.314-2.583,0.412-3.395c0.05-0.364,0.089-0.654,0.12-0.881c0.03-0.198,0.05-0.299,0.059-0.298
				c0.009,0.001,0.007,0.104-0.006,0.305c-0.018,0.229-0.04,0.521-0.069,0.887c-0.075,0.814-0.181,1.954-0.315,3.404
				c-0.072,0.742-0.152,1.562-0.24,2.458c-0.062,0.903-0.13,1.881-0.202,2.931c-0.128,2.104-0.344,4.495-0.402,7.148
				c-0.048,1.326-0.098,2.715-0.15,4.161c-0.05,1.447-0.023,2.954-0.04,4.513c-0.059,3.119,0.069,6.45,0.163,9.956
				c0.311,7.006,0.922,14.699,2.022,22.72c1.144,8.012,2.66,15.577,4.283,22.398c0.876,3.395,1.662,6.634,2.577,9.617
				c0.444,1.495,0.837,2.949,1.277,4.329c0.448,1.376,0.879,2.697,1.29,3.959c0.786,2.535,1.649,4.775,2.354,6.761
				c0.358,0.989,0.692,1.911,1.001,2.762c0.331,0.837,0.634,1.603,0.908,2.297c0.529,1.357,0.944,2.423,1.241,3.185
				c0.128,0.344,0.231,0.619,0.311,0.834C271.388,209.568,271.419,209.667,271.41,209.67z"/>
		</g>
		<g>
			<path style="fill:#6F4439;" d="M241.719,215.782c-0.009,0.001-0.033-0.092-0.073-0.276c-0.042-0.214-0.095-0.483-0.161-0.819
				c-0.137-0.759-0.328-1.816-0.57-3.157c-0.49-2.743-1.144-6.722-1.875-11.65c-0.749-4.926-1.508-10.812-2.244-17.36
				c-0.693-6.553-1.313-13.773-1.701-21.369c-0.78-15.201-0.321-28.993,0.444-38.929c0.396-4.968,0.788-8.982,1.152-11.745
				c0.172-1.352,0.308-2.417,0.406-3.183c0.049-0.339,0.088-0.61,0.118-0.826c0.03-0.186,0.049-0.28,0.058-0.279
				c0.009,0.001,0.007,0.098-0.005,0.286c-0.017,0.217-0.04,0.491-0.067,0.832c-0.074,0.768-0.177,1.836-0.308,3.192
				c-0.302,2.768-0.637,6.784-0.986,11.749c-0.67,9.931-1.069,23.699-0.291,38.877c0.388,7.584,0.993,14.796,1.658,21.344
				c0.708,6.543,1.429,12.428,2.131,17.358c0.685,4.932,1.282,8.918,1.711,11.67c0.201,1.348,0.36,2.41,0.474,3.173
				c0.045,0.339,0.082,0.612,0.11,0.827C241.72,215.684,241.727,215.78,241.719,215.782z"/>
		</g>
		<g>
			<path style="fill:#6F4439;" d="M314.222,201.491c0.002,0.009-0.075,0.031-0.226,0.067c-0.182,0.039-0.402,0.087-0.671,0.145
				c-0.635,0.125-1.499,0.294-2.59,0.509c-2.25,0.432-5.506,1.058-9.518,1.886c-8.027,1.633-19.081,4.082-31.146,7.339
				c-6.03,1.646-11.735,3.35-16.895,4.992c-5.14,1.699-9.757,3.273-13.572,4.759c-1.922,0.708-3.638,1.402-5.143,2.02
				c-1.511,0.602-2.807,1.135-3.852,1.603c-1.021,0.436-1.831,0.782-2.426,1.036c-0.255,0.103-0.464,0.188-0.637,0.258
				c-0.145,0.055-0.221,0.08-0.225,0.072c-0.004-0.008,0.065-0.049,0.202-0.12c0.167-0.082,0.368-0.182,0.615-0.304
				c0.586-0.276,1.383-0.652,2.388-1.126c1.034-0.497,2.32-1.058,3.822-1.687c1.496-0.644,3.206-1.364,5.122-2.095
				c3.805-1.532,8.416-3.145,13.557-4.872c5.159-1.67,10.869-3.391,16.907-5.038c12.081-3.261,23.159-5.656,31.211-7.198
				c4.024-0.782,7.292-1.353,9.554-1.724c1.098-0.174,1.968-0.311,2.607-0.413c0.273-0.038,0.496-0.069,0.68-0.094
				C314.141,201.487,314.221,201.482,314.222,201.491z"/>
		</g>
		<g style="opacity:0.2;">
			<path d="M260.044,369.427c9.826-5.954,16.31-16.339,19.911-27.249c3.602-10.91,4.639-22.471,5.834-33.898
				c2.108-20.16,4.778-40.261,8.005-60.272c0,0-1.531-29.327-4.561-50.357c-3.03-21.031-7.769-40.033-9.439-38.947
				c-1.67,1.085-24.032,201.6-24.032,201.6L260.044,369.427z"/>
		</g>
		<path style="fill:#FF725E;" d="M342.693,363.735c0,0,10.105,4.865,13.266,11.339c3.159,6.472,2.668,11.203,2.668,11.203
			l-0.826,5.513c-1.946,6.41-4.77,12.15-9.167,17.109c-11.481,12.945-27.937,21.85-45.565,24.495
			c-4.368,0.655-8.824,0.736-13.18,0.003c-7.529-1.268-12.894-4.376-16.54-10.462c-1.604-2.332-6.173-11.239-6.257-12.637
			l1.68,3.013c4.93,6.886,8.961,8.454,15.247,9.896c6.42,1.472,13.172,0.798,19.569-0.75c14.974-3.624,28.464-12.04,38.259-23.931
			c3.986-4.839,7.348-10.402,8.268-16.591C350.115,381.934,352.092,371.83,342.693,363.735z"/>
		<g style="opacity:0.2;">
			<path d="M320.672,216.697c-0.227-8.979-6.09-20.405-4.197-29.186c-2.934,3.734-3.058,8.973-2.163,13.636
				c0.895,4.664,2.668,9.163,3.08,13.893c0.421,4.828-0.596,9.655-0.818,14.495c-0.222,4.841,0.512,10.071,3.793,13.637
				C319.318,234.098,320.93,226.88,320.672,216.697z"/>
		</g>
		<g>
			<path style="fill:#6F4439;" d="M301.684,154.392c0.029,0.061-0.638,0.459-1.779,0.979c-1.139,0.521-2.76,1.147-4.603,1.664
				c-1.845,0.515-3.555,0.82-4.8,0.966c-1.245,0.146-2.022,0.152-2.028,0.085c-0.018-0.157,3.045-0.523,6.688-1.552
				C298.808,155.524,301.617,154.249,301.684,154.392z"/>
		</g>
		<g>
			<path style="fill:#6F4439;" d="M297.226,129.372c0.036,0.045-0.57,0.619-1.73,1.297c-1.154,0.679-2.896,1.403-4.929,1.733
				c-2.034,0.323-3.916,0.18-5.225-0.104c-1.314-0.281-2.069-0.637-2.049-0.691c0.027-0.173,3.217,0.949,7.191,0.28
				C294.467,131.28,297.146,129.216,297.226,129.372z"/>
		</g>
		<g>
			<path style="fill:#6F4439;" d="M304.173,159.345c0.03,0.141-3.091,0.921-6.969,1.744c-3.88,0.823-7.048,1.375-7.078,1.234
				c-0.03-0.141,3.09-0.921,6.97-1.744C300.974,159.757,304.143,159.204,304.173,159.345z"/>
		</g>
		<g style="opacity:0.2;">
			<path style="fill:#6F4439;" d="M305.099,157.217c-0.644-1.4-2.401-1.813-3.923-2.056l-0.686-0.378
				c-3.678-0.845-7.653-0.324-10.99,1.439c-0.872,0.461-1.721,1.022-2.296,1.823c-0.575,0.801-0.834,1.885-0.456,2.796
				c0.498,1.204,1.883,1.75,3.151,2.047c3.806,0.892,7.867,0.663,11.549-0.651c1.101-0.393,2.202-0.904,2.979-1.777
				C305.204,159.587,305.587,158.278,305.099,157.217z"/>
		</g>
		<g>
			<path style="fill:#6F4439;" d="M274.38,158.394c0.029,0.061-0.638,0.459-1.778,0.979c-1.139,0.521-2.76,1.147-4.603,1.664
				c-1.845,0.515-3.555,0.82-4.8,0.966c-1.245,0.146-2.022,0.152-2.028,0.085c-0.018-0.157,3.045-0.524,6.688-1.553
				C271.505,159.526,274.314,158.251,274.38,158.394z"/>
		</g>
		<g>
			<path style="fill:#6F4439;" d="M276.87,163.347c0.03,0.141-3.091,0.922-6.969,1.744c-3.88,0.823-7.048,1.375-7.078,1.234
				c-0.03-0.141,3.09-0.921,6.97-1.744C273.671,163.759,276.84,163.206,276.87,163.347z"/>
		</g>
		<g style="opacity:0.2;">
			<path style="fill:#6F4439;" d="M277.796,161.219c-0.644-1.4-2.401-1.813-3.923-2.056l-0.686-0.378
				c-3.678-0.845-7.653-0.324-10.99,1.439c-0.872,0.461-1.721,1.022-2.296,1.823c-0.575,0.801-0.834,1.885-0.456,2.796
				c0.498,1.204,1.883,1.75,3.151,2.047c3.806,0.892,7.867,0.663,11.549-0.651c1.101-0.393,2.202-0.904,2.979-1.777
				C277.901,163.589,278.284,162.28,277.796,161.219z"/>
		</g>
		<g>
			<path style="fill:#6F4439;" d="M253.57,162.035c0.029,0.061-0.638,0.459-1.778,0.979c-1.139,0.521-2.76,1.147-4.603,1.664
				c-1.845,0.515-3.555,0.82-4.799,0.966c-1.245,0.146-2.022,0.152-2.028,0.085c-0.018-0.157,3.045-0.523,6.688-1.552
				C250.694,163.167,253.503,161.891,253.57,162.035z"/>
		</g>
		<g>
			<path style="fill:#6F4439;" d="M256.059,166.988c0.03,0.141-3.091,0.922-6.969,1.744c-3.88,0.823-7.048,1.375-7.078,1.234
				c-0.03-0.141,3.09-0.921,6.97-1.744C252.86,167.4,256.029,166.847,256.059,166.988z"/>
		</g>
		<g style="opacity:0.2;">
			<path style="fill:#6F4439;" d="M256.985,164.859c-0.644-1.4-2.401-1.813-3.923-2.056l-0.686-0.377
				c-3.678-0.845-7.653-0.324-10.99,1.439c-0.872,0.461-1.721,1.022-2.296,1.823s-0.834,1.885-0.456,2.796
				c0.498,1.204,1.883,1.75,3.151,2.047c3.806,0.892,7.867,0.663,11.549-0.651c1.101-0.393,2.202-0.904,2.979-1.777
				C257.09,167.23,257.474,165.921,256.985,164.859z"/>
		</g>
		<g>
			<path style="fill:#6F4439;" d="M348.786,214.661c0.028,0.141-2.456,0.757-5.549,1.376c-3.094,0.619-5.624,1.007-5.652,0.866
				c-0.028-0.141,2.456-0.757,5.55-1.376C346.228,214.908,348.758,214.52,348.786,214.661z"/>
		</g>
		<g>
			<path style="fill:#6F4439;" d="M345.346,211.509c0.027,0.141-1.091,0.476-2.497,0.748c-1.407,0.272-2.569,0.378-2.596,0.237
				c-0.027-0.141,1.09-0.476,2.497-0.748C344.157,211.474,345.319,211.367,345.346,211.509z"/>
		</g>
		<g style="opacity:0.2;">
			<path style="fill:#FFFFFF;" d="M339.042,186.004c-0.666,0.886-2.347,1.464-3.176,0.728c-0.829-0.736-1.176-1.862-1.447-2.937
				c-1.181-4.684-1.632-9.548-1.372-14.371c0.054-0.999,0.153-2.043,0.692-2.886c0.539-0.843,1.657-1.401,2.57-0.991
				L339.042,186.004z"/>
		</g>
	</g>
	<g>
		<path style="fill:#FF725E;" d="M234.665,450.381c0,0,13.985-6.024-2.47-10.462c-16.455-4.438-33.747-1.937-33.747-1.937
			l21.099,11.746L234.665,450.381z"/>
		<path style="opacity:0.3;" d="M234.665,450.381c0,0,13.985-6.024-2.47-10.462c-16.455-4.438-33.747-1.937-33.747-1.937
			l21.099,11.746L234.665,450.381z"/>
		<g>
			<path style="fill:#FFBF9D;" d="M93.767,233.446c0,0-11.126,3.055-5.225,13.746c4.318,7.824,8.875,16.164,11.414,28.575
				c1.13,5.522,7.708,12.152,9.867,16.648c5.792,12.068,11.145,22.107,19.834,32.243c8.689,10.137,35.72,27.997,35.238,40.547
				c-0.483,12.55-35.106,92.382-35.106,92.382c27.134,16.529,58.349,21.838,91.714,21.239c0,0,24.004-87.072,27.383-100.587
				c3.379-13.516,16.565-24.844,25.254-45.118c8.689-20.274,11.428-64.096,12.397-98.729c0.812-29.03-5.636-60.639-5.767-70.393
				c-0.052-3.851-0.632-7.688-1.913-11.319c-2.075-5.884-6.327-12.631-14.878-12.079c0,0,0.107-26.33-4.333-35.416
				c-1.629-3.334-7.158-5.336-11.391-4.304c-3.423,0.835-5.928,2.698-5.928,2.698s2.112-20.938-8.507-22.869
				c-4.839-0.88-9.441-0.17-12.207,3.991c-3.303,4.969-4.721,12.959-5.246,21.629c0,0-1.044-5.197-9.561-5.197
				c-5.453,0-9.712,4.068-11.982,12.583c-3.862,14.481-21.868,98.494-25.101,109.092c-2.271,7.445-19.791,59.373-24.618,59.373
				s-9.88-4.346-12.776-12.069C129.43,262.388,114.523,227.171,93.767,233.446z"/>
			<g>
				<path style="fill:#FF9A6C;" d="M193.453,222.223c-0.007-0.006,0.054-0.094,0.178-0.263c0.143-0.19,0.327-0.435,0.559-0.743
					c0.51-0.682,1.227-1.641,2.14-2.862c0.917-1.251,2.026-2.792,3.25-4.622c1.206-1.836,2.597-3.941,3.742-6.447
					c0.589-1.25,0.921-2.633,1.108-4.14c0.237-1.489,0.404-3.057,0.584-4.676c0.356-3.241,0.65-6.716,0.972-10.37
					c0.608-7.318,1.276-15.357,1.978-23.797c0.188-2.111,0.384-4.196,0.612-6.249c0.208-2.044,0.483-4.096,0.917-6.047
					c0.78-3.894,1.313-7.723,1.873-11.345c1.049-7.257,1.993-13.795,2.789-19.299c0.774-5.47,1.402-9.909,1.842-13.018
					c0.221-1.509,0.395-2.694,0.519-3.537c0.061-0.381,0.11-0.683,0.147-0.918c0.036-0.206,0.059-0.312,0.068-0.311
					s0.004,0.109-0.015,0.317c-0.025,0.237-0.056,0.542-0.096,0.925c-0.101,0.846-0.242,2.035-0.422,3.55
					c-0.401,3.115-0.973,7.561-1.678,13.041c-0.732,5.503-1.616,12.054-2.679,19.32c-0.55,3.633-1.068,7.443-1.85,11.384
					c-0.429,1.95-0.691,3.934-0.9,5.994c-0.226,2.047-0.421,4.13-0.609,6.239c-0.716,8.438-1.398,16.475-2.019,23.792
					c-0.335,3.656-0.645,7.13-1.02,10.376c-0.19,1.623-0.367,3.19-0.616,4.692c-0.194,1.499-0.559,2.969-1.169,4.228
					c-1.186,2.538-2.602,4.629-3.836,6.459c-1.251,1.821-2.385,3.347-3.329,4.581c-0.946,1.233-1.7,2.174-2.22,2.805
					c-0.249,0.295-0.446,0.529-0.6,0.712C193.535,222.151,193.459,222.229,193.453,222.223z"/>
			</g>
			<g>
				<path style="fill:#FF9A6C;" d="M265.965,140.389c0.002,0.009-0.084,0.048-0.254,0.117c-0.198,0.076-0.447,0.172-0.756,0.291
					c-0.33,0.131-0.706,0.366-1.167,0.6c-0.415,0.31-0.935,0.614-1.401,1.103c-0.979,0.917-1.934,2.297-2.627,4.08
					c-0.709,1.777-1.162,3.934-1.381,6.339c-0.471,4.821-0.018,10.609,0.761,16.971c0.352,3.191,0.934,6.512,1.015,10.052
					c-0.001,1.749-0.013,3.532-0.133,5.346c-0.107,1.822-0.496,3.641-0.847,5.449c-0.339,1.818-0.677,3.619-0.836,5.398
					c-0.166,1.785-0.206,3.561-0.215,5.303c-0.016,3.488,0.123,6.855,0.279,10.061c0.172,3.206,0.335,6.253,0.488,9.108
					c0.16,2.859,0.084,5.534-0.004,7.96c-0.19,4.859-0.467,8.781-0.665,11.492c-0.109,1.324-0.194,2.367-0.256,3.119
					c-0.034,0.331-0.061,0.598-0.083,0.81c-0.022,0.182-0.038,0.275-0.046,0.275c-0.009-0.001-0.011-0.095-0.007-0.278
					c0.008-0.213,0.018-0.481,0.031-0.813c0.038-0.753,0.091-1.798,0.158-3.124c0.136-2.713,0.357-6.638,0.499-11.491
					c0.064-2.428,0.118-5.08-0.06-7.927c-0.168-2.854-0.347-5.9-0.535-9.105c-0.17-3.209-0.319-6.583-0.31-10.087
					c0.005-1.752,0.043-3.538,0.209-5.348c0.161-1.819,0.5-3.624,0.84-5.449c0.355-1.827,0.735-3.601,0.842-5.389
					c0.12-1.788,0.135-3.565,0.139-5.309c-0.071-3.455-0.642-6.805-0.981-9.995c-0.754-6.377-1.174-12.199-0.651-17.065
					c0.244-2.427,0.729-4.61,1.477-6.411c0.732-1.806,1.737-3.206,2.76-4.12c0.487-0.488,1.028-0.787,1.459-1.088
					c0.478-0.224,0.867-0.448,1.207-0.564c0.319-0.1,0.576-0.181,0.78-0.245C265.871,140.402,265.962,140.38,265.965,140.389z"/>
			</g>
			<g>
				<path style="fill:#FF9A6C;" d="M231.627,225.055c-0.01,0.003-0.068-0.139-0.172-0.422c-0.111-0.313-0.26-0.732-0.45-1.268
					c-0.395-1.157-0.961-2.814-1.692-4.956l-0.008-0.023l0.002-0.025c0.457-5.025,1.152-12.657,2.002-22.003
					c0.208-2.345,0.469-4.795,0.662-7.335c0.188-2.544,0.292-5.19,0.424-7.917c0.145-2.725,0.26-5.541,0.736-8.402
					c0.125-0.714,0.278-1.43,0.486-2.14c0.094-0.357,0.245-0.703,0.366-1.056l0.352-1.01c0.396-1.392,0.678-2.842,0.939-4.306
					c0.709-4.184,1.18-8.313,1.561-12.303c0.374-3.991,0.66-7.85,0.783-11.528c0.026-7.382,0.753-14.014,1.388-19.552
					c0.669-5.541,1.402-10.004,2.113-13.048c0.355-1.521,0.703-2.689,1.036-3.447c0.165-0.38,0.329-0.651,0.453-0.825
					c0.147-0.157,0.224-0.232,0.23-0.225c0.006,0.007-0.059,0.095-0.186,0.256c-0.106,0.18-0.252,0.453-0.399,0.834
					c-0.298,0.76-0.612,1.93-0.935,3.451c-0.647,3.045-1.324,7.509-1.945,13.047c-0.587,5.542-1.274,12.147-1.274,19.524
					c-0.11,3.694-0.386,7.56-0.754,11.561c-0.374,4-0.842,8.135-1.555,12.344c-0.263,1.475-0.547,2.935-0.954,4.365
					c-0.241,0.727-0.509,1.4-0.719,2.066c-0.201,0.683-0.351,1.381-0.474,2.08c-0.472,2.809-0.594,5.619-0.745,8.339
					c-0.139,2.724-0.251,5.374-0.449,7.927c-0.204,2.556-0.476,5.003-0.697,7.345c-0.936,9.336-1.701,16.96-2.205,21.979
					l-0.005-0.048c0.685,2.158,1.214,3.827,1.584,4.992c0.165,0.544,0.295,0.969,0.392,1.287
					C231.599,224.903,231.637,225.052,231.627,225.055z"/>
			</g>
			<g>
				<path style="fill:#FF9A6C;" d="M251.626,179.4c0.021,0.02-0.106,0.201-0.457,0.346c-0.348,0.15-0.898,0.195-1.53,0.175
					c-1.273-0.015-3.035-0.124-4.959-0.416c-1.925-0.289-3.642-0.696-4.863-1.058c-1.222-0.361-1.953-0.659-1.933-0.724
					c0.044-0.148,3.062,0.704,6.873,1.267c1.903,0.289,3.64,0.454,4.899,0.563c0.631,0.066,1.121,0.076,1.452-0.001
					C251.438,179.481,251.601,179.366,251.626,179.4z"/>
			</g>
			<g>
				<path style="fill:#FF9A6C;" d="M254.019,185.224c0.004,0.063-1.002,0.209-2.643,0.248c-1.639,0.041-3.915-0.061-6.391-0.465
					c-2.476-0.408-4.665-1.039-6.206-1.601c-1.543-0.561-2.449-1.02-2.425-1.079c0.03-0.074,0.983,0.262,2.54,0.729
					c1.557,0.468,3.731,1.034,6.175,1.437c2.444,0.398,4.685,0.557,6.309,0.61C253.004,185.159,254.014,185.144,254.019,185.224z"/>
			</g>
			<g>
				<path style="fill:#FF9A6C;" d="M254.028,173.676c-0.044,0.158-3.559-0.912-8.039-1.297c-4.479-0.414-8.127,0.018-8.142-0.145
					c-0.008-0.064,0.894-0.255,2.376-0.389c1.481-0.135,3.546-0.185,5.812,0.016c2.265,0.204,4.289,0.617,5.722,1.013
					C253.193,173.267,254.048,173.614,254.028,173.676z"/>
			</g>
			<g>
				<path style="fill:#FF9A6C;" d="M278.121,202.238c0.017,0.063-0.757,0.351-2.056,0.648c-1.298,0.298-3.128,0.575-5.165,0.627
					c-2.038,0.048-3.88-0.139-5.19-0.372c-1.313-0.233-2.099-0.482-2.085-0.546c0.03-0.161,3.247,0.511,7.263,0.398
					C274.902,202.908,278.084,202.079,278.121,202.238z"/>
			</g>
			<g>
				<path style="fill:#FF9A6C;" d="M274.139,199.665c-0.009,0.143-2.079,0.13-4.623-0.031c-2.545-0.16-4.6-0.407-4.591-0.55
					c0.009-0.143,2.079-0.13,4.623,0.031C272.092,199.275,274.148,199.522,274.139,199.665z"/>
			</g>
			<g>
				<path style="fill:#FF9A6C;" d="M273.571,207.356c0.032,0.135-1.209,0.527-2.801,0.585c-1.592,0.064-2.86-0.231-2.838-0.368
					c0.019-0.148,1.278-0.089,2.818-0.152C272.29,207.366,273.54,207.21,273.571,207.356z"/>
			</g>
			<g>
				<path style="fill:#FF9A6C;" d="M226.938,165.633c0.032,0.124-2.68,0.749-6.076,0.528c-3.398-0.201-6.011-1.157-5.964-1.277
					c0.042-0.154,2.67,0.561,5.996,0.757C224.218,165.86,226.916,165.476,226.938,165.633z"/>
			</g>
			<g>
				<path style="fill:#FF9A6C;" d="M227.321,170.542c0.02,0.057-0.804,0.42-2.213,0.769c-1.406,0.351-3.409,0.643-5.63,0.58
					c-2.221-0.068-4.205-0.477-5.587-0.911c-1.386-0.432-2.187-0.842-2.164-0.898c0.049-0.166,3.398,1.183,7.766,1.288
					C223.859,171.523,227.282,170.374,227.321,170.542z"/>
			</g>
			<g>
				<path style="fill:#FF9A6C;" d="M230.166,160.897c-0.056,0.068-0.753-0.525-2.057-1.161c-1.296-0.651-3.221-1.251-5.416-1.624
					c-2.196-0.372-4.223-0.604-5.669-0.918c-1.45-0.298-2.312-0.622-2.293-0.685c0.021-0.075,0.907,0.12,2.356,0.323
					c1.447,0.219,3.467,0.391,5.696,0.768c2.229,0.378,4.207,1.054,5.497,1.811C229.583,160.153,230.206,160.859,230.166,160.897z"
					/>
			</g>
			<g>
				<path style="fill:#FF9A6C;" d="M194.028,171.644c0.016,0.138-1.959,0.461-4.419,0.458c-2.461,0.003-4.435-0.32-4.419-0.458
					c0.015-0.148,1.989-0.06,4.419-0.063C192.038,171.585,194.013,171.496,194.028,171.644z"/>
			</g>
			<g>
				<path style="fill:#FF9A6C;" d="M197.395,176.278c0.024,0.058-0.526,0.362-1.495,0.655c-0.965,0.297-2.353,0.535-3.888,0.581
					c-3.076,0.063-5.516-0.364-5.506-0.477c0.01-0.173,2.48,0.02,5.489-0.043C195.018,176.957,197.344,176.145,197.395,176.278z"/>
			</g>
			<g style="opacity:0.2;">
				<path style="fill:#FFFFFF;" d="M213.455,108.147c0.018,2.434-0.286,4.55-1.171,6.853c-0.885,2.303-1.724,3.638-3.616,4.634
					c-1.298,0.683-2.74,0.806-4.126,0.637c-1.49-0.182-3.025-0.753-4.007-2.127c-0.94-1.316-1.231-3.15-1.487-4.895
					c-0.265-1.801-0.515-3.753,0.15-5.42c0.475-1.19,1.36-2.063,2.299-2.705c3.153-2.158,6.43-1.758,10.068-0.599
					c0.683,0.218,1.234,0.8,1.496,1.565C213.264,106.683,213.45,107.421,213.455,108.147z"/>
			</g>
			<g style="opacity:0.2;">
				<path style="fill:#FFFFFF;" d="M256.811,108.147c0.018,2.434-0.286,4.55-1.171,6.853c-0.885,2.303-1.724,3.638-3.616,4.634
					c-1.298,0.683-2.74,0.806-4.126,0.637c-1.49-0.182-3.025-0.753-4.007-2.127c-0.94-1.316-1.231-3.15-1.487-4.895
					c-0.265-1.801-0.515-3.753,0.151-5.42c0.475-1.19,1.36-2.063,2.298-2.705c3.153-2.158,6.43-1.758,10.068-0.599
					c0.683,0.218,1.234,0.8,1.496,1.565C256.619,106.683,256.805,107.421,256.811,108.147z"/>
			</g>
			<g style="opacity:0.2;">
				<path style="fill:#FFFFFF;" d="M260.591,149.806c-0.018,2.434,0.286,4.55,1.171,6.853c0.885,2.303,1.724,3.638,3.616,4.634
					c1.298,0.683,2.74,0.806,4.126,0.637c1.49-0.182,3.025-0.752,4.007-2.127c0.94-1.316,1.231-3.15,1.488-4.895
					c0.265-1.801,0.515-3.753-0.151-5.42c-0.475-1.19-1.36-2.063-2.299-2.705c-3.153-2.158-6.43-1.758-10.068-0.599
					c-0.683,0.218-1.234,0.8-1.496,1.565C260.782,148.342,260.597,149.081,260.591,149.806z"/>
			</g>
			<g style="opacity:0.2;">
				<path style="fill:#FFFFFF;" d="M238.266,89.109c0.039,2.579-0.302,4.819-1.325,7.253c-1.022,2.433-1.998,3.842-4.213,4.883
					c-1.52,0.714-3.213,0.834-4.841,0.644c-1.751-0.204-3.558-0.82-4.721-2.284c-1.113-1.401-1.469-3.347-1.783-5.197
					c-0.325-1.91-0.632-3.98,0.137-5.742c0.549-1.257,1.583-2.176,2.68-2.85c3.687-2.263,7.538-1.816,11.82-0.56
					c0.804,0.236,1.455,0.857,1.768,1.669C238.031,87.556,238.255,88.34,238.266,89.109z"/>
			</g>
			<g>
				<path style="fill:#FF9A6C;" d="M142.842,292.415c-0.07-0.001-0.129-0.622-0.136-1.629c-0.003-1.005,0.043-2.405,0.324-3.933
					c0.279-1.529,0.803-2.865,1.341-3.736c0.531-0.876,1.001-1.309,1.045-1.271c0.067,0.052-0.292,0.559-0.721,1.446
					c-0.436,0.883-0.881,2.172-1.153,3.657C143.031,289.922,143.025,292.424,142.842,292.415z"/>
			</g>
			<g>
				<path style="fill:#FF9A6C;" d="M168.569,344.873c-0.098,0.105-5.784-5.072-12.697-11.561
					c-6.915-6.492-12.44-11.837-12.341-11.942c0.098-0.105,5.782,5.071,12.698,11.563
					C163.142,339.421,168.667,344.768,168.569,344.873z"/>
			</g>
			<g>
				<path style="fill:#FF9A6C;" d="M113.093,271.189c0.054,0.151-2.41,1.013-5.093,2.729c-2.697,1.696-4.526,3.557-4.639,3.445
					c-0.102-0.078,1.597-2.144,4.361-3.884C110.472,271.72,113.066,271.064,113.093,271.189z"/>
			</g>
			<g>
				<path style="fill:#FF9A6C;" d="M119.145,269.025c0.045-0.042,0.393,1.123-0.361,2.743c-0.356,0.797-0.935,1.664-1.646,2.542
					c-0.704,0.887-1.529,1.823-2.457,2.745c-1.856,1.847-3.771,3.263-5.221,4.168c-1.449,0.911-2.421,1.339-2.45,1.284
					c-0.04-0.071,0.864-0.611,2.245-1.59c1.383-0.974,3.231-2.413,5.058-4.231c1.799-1.832,3.369-3.608,4.138-5.077
					C119.249,270.124,119.05,269.02,119.145,269.025z"/>
			</g>
			<g>
				<path style="fill:#FF9A6C;" d="M107.647,265.12c0.089,0.119-1.541,1.481-3.488,3.225c-1.951,1.74-3.488,3.207-3.595,3.105
					c-0.102-0.094,1.278-1.736,3.248-3.493C105.778,266.195,107.565,265.008,107.647,265.12z"/>
			</g>
			<path style="opacity:0.2;fill:#FFFFFF;" d="M95.25,256.252c0.476,0.159,9.875-5.549,8.764-8.881
				c-1.111-3.332-7.549-12.28-11.041-11.922c-3.492,0.359-5.166,3.334-4.848,7.143C88.442,246.401,95.25,256.252,95.25,256.252z"/>
			<g style="opacity:0.2;">
				<path d="M205.091,199.084l6.636-61.767C205.522,156.508,203.649,178.742,205.091,199.084z"/>
			</g>
			<g style="opacity:0.2;">
				<path d="M230.136,207.664c-0.51-21.141,1.91-42.35,7.17-62.832c0.45,5.555-1.044,15.233-2.478,21.862
					c-0.736,3.403-1.598,4.135-1.878,6.982C231.16,191.902,231.559,196.253,230.136,207.664"/>
			</g>
			<path style="opacity:0.4;fill:#FF9A6C;" d="M145.048,461.121c0,0,31.789-87.978,30.45-102.707
				c-1.339-14.73-10.098-16.516-19.448-25.293c-9.318-8.747-44.68-37.824-44.921-38.022c5.313,10.882,10.496,20.19,18.527,29.56
				c8.689,10.137,35.72,27.997,35.238,40.547c-0.483,12.551-35.106,92.382-35.106,92.382L145.048,461.121z"/>
			<g style="opacity:0.4;">
				<path style="fill:#FF9A6C;" d="M258.621,230.573c-3.362-21.767-3.59-44.015-0.674-65.845c1.366,5.73,1.881,11.662,1.524,17.541
					c-0.334,5.5-1.424,10.927-1.924,16.415c-0.805,8.831-0.076,17.723,0.652,26.561"/>
			</g>
			<g style="opacity:0.2;">
				<path style="fill:#FF9A6C;" d="M247.255,172.478c-3.073-1.986-7.647-1.1-9.756,1.892c-2.108,2.991-1.406,7.597,1.498,9.824
					c1.809,1.387,4.162,1.833,6.433,2.029c1.71,0.148,3.463,0.174,5.111-0.305c1.648-0.48,3.196-1.528,3.948-3.072
					c0.994-2.042,0.414-4.565-0.858-6.445c-1.878-2.777-5.236-4.485-8.586-4.367"/>
			</g>
			<g style="opacity:0.2;">
				<path style="fill:#FF9A6C;" d="M195.359,168.997c-3.073-1.986-7.647-1.1-9.756,1.892c-2.108,2.991-1.406,7.597,1.498,9.824
					c1.809,1.387,4.162,1.833,6.433,2.029c1.71,0.148,3.463,0.174,5.111-0.305c1.648-0.48,3.196-1.528,3.947-3.072
					c0.994-2.041,0.414-4.565-0.858-6.445c-1.878-2.777-5.236-4.485-8.586-4.367"/>
			</g>
			<g style="opacity:0.2;">
				<path style="fill:#FF9A6C;" d="M222.658,157.842c-3.073-2.523-7.647-1.397-9.756,2.403c-2.108,3.8-1.406,9.651,1.498,12.48
					c1.809,1.762,4.162,2.328,6.433,2.578c1.71,0.188,3.463,0.221,5.111-0.388c1.648-0.61,3.196-1.941,3.948-3.902
					c0.994-2.593,0.414-5.799-0.858-8.188c-1.878-3.527-5.236-5.697-8.586-5.548"/>
			</g>
			<g style="opacity:0.2;">
				<path style="fill:#FF9A6C;" d="M272.69,196.421c-3.073-1.986-7.647-1.1-9.756,1.891c-2.108,2.991-1.406,7.597,1.498,9.824
					c1.809,1.387,4.162,1.833,6.433,2.029c1.71,0.148,3.463,0.174,5.111-0.305c1.648-0.48,3.196-1.528,3.948-3.072
					c0.994-2.041,0.414-4.564-0.858-6.445c-1.878-2.777-5.236-4.485-8.586-4.367"/>
			</g>
			<g style="opacity:0.3;">
				<path style="fill:#FFFFFF;" d="M212.415,113.496c0.032,0.011-0.025,0.311-0.186,0.839c-0.163,0.526-0.418,1.287-0.858,2.179
					c-0.439,0.886-1.066,1.932-2.082,2.822c-0.998,0.894-2.476,1.515-4.041,1.472c-1.564-0.018-3.021-0.64-4.016-1.549
					c-1.009-0.904-1.597-1.998-1.925-2.942c-0.318-0.956-0.392-1.773-0.379-2.329c0.012-0.558,0.091-0.858,0.118-0.855
					c0.107-0.007-0.088,1.252,0.606,3.057c0.355,0.883,0.946,1.892,1.895,2.708c0.934,0.819,2.271,1.372,3.708,1.39
					c1.442,0.036,2.775-0.507,3.722-1.317c0.961-0.806,1.599-1.785,2.067-2.627C211.962,114.636,212.326,113.463,212.415,113.496z"
					/>
			</g>
			<g style="opacity:0.3;">
				<path style="fill:#FF9A6C;" d="M237.654,92.949c0.031,0.007-0.006,0.383-0.155,1.048c-0.15,0.664-0.411,1.622-0.902,2.748
					c-0.496,1.116-1.229,2.421-2.4,3.581c-1.151,1.165-2.822,2.112-4.724,2.353c-1.893,0.283-3.824-0.27-5.07-1.398
					c-1.267-1.115-1.859-2.547-2.223-3.703c-0.356-1.177-0.508-2.154-0.601-2.827c-0.089-0.674-0.111-1.05-0.077-1.056
					c0.104-0.023,0.28,1.49,1.027,3.767c0.398,1.113,1.005,2.453,2.188,3.456c1.159,1.011,2.913,1.507,4.687,1.245
					c1.783-0.228,3.346-1.093,4.458-2.181c1.132-1.084,1.875-2.321,2.401-3.391C237.289,94.421,237.554,92.921,237.654,92.949z"/>
			</g>
			<g style="opacity:0.3;">
				<path style="fill:#FFFFFF;" d="M257,111.562c0.059,0.034-0.436,1.182-0.982,3.155c-0.301,0.975-0.633,2.173-1.346,3.378
					c-0.688,1.201-1.964,2.335-3.58,2.674c-1.596,0.37-3.201,0.085-4.452-0.544c-1.251-0.641-2.152-1.559-2.764-2.397
					c-0.618-0.843-0.961-1.62-1.165-2.158c-0.197-0.545-0.254-0.86-0.225-0.87c0.094-0.042,0.438,1.217,1.682,2.804
					c0.625,0.778,1.507,1.617,2.685,2.191c1.168,0.56,2.66,0.807,4.12,0.467c1.477-0.316,2.614-1.304,3.29-2.419
					c0.692-1.115,1.061-2.282,1.404-3.24C256.304,112.655,256.934,111.523,257,111.562z"/>
			</g>
			<g style="opacity:0.3;">
				<path style="fill:#FFFFFF;" d="M275.516,152.604c0.034,0.005,0.026,0.314-0.032,0.868c-0.062,0.553-0.157,1.356-0.384,2.334
					c-0.225,0.973-0.585,2.145-1.323,3.286c-0.721,1.146-1.934,2.176-3.431,2.677c-1.493,0.508-3.073,0.47-4.357,0
					c-1.292-0.462-2.257-1.284-2.889-2.078c-0.638-0.799-0.967-1.57-1.124-2.11c-0.153-0.545-0.162-0.859-0.135-0.864
					c0.101-0.041,0.256,1.259,1.541,2.736c0.633,0.723,1.564,1.46,2.765,1.862c1.191,0.41,2.647,0.43,4.031-0.04
					c1.389-0.469,2.5-1.39,3.2-2.451c0.713-1.055,1.101-2.17,1.366-3.112C275.251,153.815,275.426,152.587,275.516,152.604z"/>
			</g>
			<g>
				<path style="fill:#FF9A6C;" d="M96.112,236.964c-0.038,0.079-0.619-0.222-1.622-0.372c-0.988-0.157-2.446-0.092-3.787,0.64
					c-1.339,0.737-2.179,1.931-2.578,2.848c-0.414,0.926-0.472,1.577-0.559,1.567c-0.055,0.002-0.132-0.678,0.217-1.703
					c0.334-1.009,1.194-2.355,2.671-3.169c1.48-0.806,3.078-0.806,4.107-0.544C95.612,236.488,96.144,236.919,96.112,236.964z"/>
			</g>
		</g>
		<path style="fill:#FF725E;" d="M141.326,427.492l-11.538,30.095c49.738,30.922,96.674,21.284,96.674,21.284l12.863-31.628
			C206.777,451.136,172.769,445.969,141.326,427.492z"/>
		<g>
			<path style="opacity:0.2;" d="M156.758,456.11c-1.4,3.189-5.119,4.639-8.308,3.24c-3.189-1.4-4.639-5.119-3.24-8.308
				c1.4-3.189,5.119-4.639,8.308-3.24C156.707,449.202,158.158,452.921,156.758,456.11z"/>
			<path style="fill:#FFFFFF;" d="M157.289,451.101c0,3.482-2.823,6.305-6.305,6.305c-3.482,0-6.306-2.823-6.306-6.305
				c0-3.482,2.823-6.305,6.306-6.305C154.466,444.796,157.289,447.619,157.289,451.101z"/>
			<g>
				<path style="fill:#263238;" d="M156.072,451.194c-0.03,0.003,0-0.449-0.197-1.22c-0.195-0.756-0.7-1.867-1.838-2.726
					c-1.099-0.861-2.92-1.349-4.687-0.696c-1.753,0.599-3.27,2.463-3.251,4.641c-0.02,2.179,1.498,4.044,3.251,4.643
					c1.768,0.654,3.589,0.165,4.688-0.696c1.137-0.859,1.643-1.97,1.837-2.726C156.072,451.643,156.042,451.191,156.072,451.194
					c0,0,0.057,0.45-0.118,1.24c-0.174,0.774-0.668,1.923-1.827,2.823c-1.119,0.901-3.001,1.428-4.842,0.759
					c-1.825-0.611-3.415-2.551-3.394-4.823c-0.021-2.271,1.569-4.211,3.394-4.822c1.841-0.669,3.723-0.143,4.842,0.759
					c1.159,0.9,1.653,2.049,1.827,2.823C156.129,450.743,156.072,451.194,156.072,451.194z"/>
			</g>
			<circle style="fill:#263238;" cx="150.761" cy="449.428" r="1.122"/>
			<path style="fill:#263238;" d="M152.293,453.357c0,0.62-0.503,1.122-1.122,1.122s-1.122-0.502-1.122-1.122
				c0-0.62,0.503-1.122,1.122-1.122S152.293,452.737,152.293,453.357z"/>
		</g>
	</g>
</g>
</svg>
