<?xml version="1.0" encoding="utf-8"?>
<!-- Generator: Adobe Illustrator 27.5.0, SVG Export Plug-In . SVG Version: 6.00 Build 0)  -->
<svg version="1.1" xmlns="http://www.w3.org/2000/svg" xmlns:xlink="http://www.w3.org/1999/xlink" x="0px" y="0px"
	 viewBox="0 0 600 500" style="enable-background:new 0 0 600 500;" xml:space="preserve">
<g id="BACKGROUND">
	</g>
<g id="OBJECTS">
	<g>
		<g>
			<path style="fill:#A3B0CA;" d="M82.675,410.992h424.817c5.046,0,9.136-4.09,9.136-9.136V161.501c0-5.046-4.09-9.136-9.136-9.136
				H82.675c-5.046,0-9.136,4.09-9.136,9.136v240.355C73.539,406.902,77.629,410.992,82.675,410.992z"/>
			<path style="fill:#E3E7F0;" d="M90.349,389.991h409.468c4.977,0,9.011-4.034,9.011-9.011V168.422
				c0-4.977-4.034-9.011-9.011-9.011H90.349c-4.976,0-9.011,4.034-9.011,9.011v212.559
				C81.339,385.957,85.373,389.991,90.349,389.991z"/>
			<path style="fill:#EFF3F8;" d="M90.349,384.941c-2.184,0-3.96-1.776-3.96-3.96V168.422c0-2.183,1.776-3.96,3.96-3.96h409.468
				c2.183,0,3.96,1.777,3.96,3.96v212.559c0,2.183-1.776,3.96-3.96,3.96H90.349z"/>
			<path style="fill:#8995AC;" d="M300.941,402.057c0,3.235-2.622,5.857-5.858,5.857c-3.235,0-5.857-2.622-5.857-5.857
				c0-3.235,2.622-5.857,5.857-5.857C298.318,396.2,300.941,398.822,300.941,402.057z"/>
			<polygon style="fill:#A3B0CA;" points="376.457,445.269 212.829,445.269 209.462,457.054 380.666,457.054 			"/>
			<polygon style="fill:#8E9AB9;" points="316.977,445.269 273.19,445.269 281.608,410.992 308.559,410.992 			"/>
			<rect x="164.25" y="373.997" style="fill:#FFFFFF;" width="261.666" height="15.994"/>
			<polygon style="fill:#75849C;" points="310.843,420.296 308.559,410.992 281.608,410.992 279.323,420.296 			"/>
			<g>
				<path style="fill:#829EAA;" d="M187.075,383.117c0,3.272-2.652,5.924-5.924,5.924s-5.924-2.652-5.924-5.924
					c0-3.272,2.652-5.924,5.924-5.924S187.075,379.845,187.075,383.117z"/>
				<path style="fill:#FFAA8A;" d="M206.064,383.117c0,3.272-2.653,5.924-5.924,5.924c-3.272,0-5.924-2.652-5.924-5.924
					c0-3.272,2.652-5.924,5.924-5.924C203.411,377.192,206.064,379.845,206.064,383.117z"/>
				<path style="fill:#F7C6BF;" d="M225.053,383.117c0,3.272-2.653,5.924-5.924,5.924c-3.272,0-5.924-2.652-5.924-5.924
					c0-3.272,2.652-5.924,5.924-5.924C222.4,377.192,225.053,379.845,225.053,383.117z"/>
				<path style="fill:#4BC391;" d="M244.041,383.117c0,3.272-2.653,5.924-5.924,5.924c-3.272,0-5.924-2.652-5.924-5.924
					c0-3.272,2.652-5.924,5.924-5.924C241.389,377.192,244.041,379.845,244.041,383.117z"/>
				<path style="fill:#FFA02D;" d="M263.03,383.117c0,3.272-2.652,5.924-5.924,5.924c-3.272,0-5.924-2.652-5.924-5.924
					c0-3.272,2.652-5.924,5.924-5.924C260.378,377.192,263.03,379.845,263.03,383.117z"/>
				<path style="fill:#718DAA;" d="M282.019,383.117c0,3.272-2.653,5.924-5.925,5.924s-5.924-2.652-5.924-5.924
					c0-3.272,2.652-5.924,5.924-5.924S282.019,379.845,282.019,383.117z"/>
				<path style="fill:#4BC391;" d="M301.008,383.117c0,3.272-2.652,5.924-5.924,5.924s-5.924-2.652-5.924-5.924
					c0-3.272,2.652-5.924,5.924-5.924S301.008,379.845,301.008,383.117z"/>
				<path style="fill:#FFAA8A;" d="M319.997,383.117c0,3.272-2.652,5.924-5.924,5.924c-3.272,0-5.924-2.652-5.924-5.924
					c0-3.272,2.652-5.924,5.924-5.924C317.344,377.192,319.997,379.845,319.997,383.117z"/>
				<path style="fill:#FFA02D;" d="M338.985,383.117c0,3.272-2.652,5.924-5.924,5.924c-3.272,0-5.924-2.652-5.924-5.924
					c0-3.272,2.653-5.924,5.924-5.924C336.333,377.192,338.985,379.845,338.985,383.117z"/>
				<path style="fill:#F7C6BF;" d="M357.974,383.117c0,3.272-2.652,5.924-5.924,5.924c-3.272,0-5.924-2.652-5.924-5.924
					c0-3.272,2.653-5.924,5.924-5.924C355.322,377.192,357.974,379.845,357.974,383.117z"/>
				<path style="fill:#FC5938;" d="M376.963,383.117c0,3.272-2.653,5.924-5.925,5.924c-3.272,0-5.924-2.652-5.924-5.924
					c0-3.272,2.653-5.924,5.924-5.924C374.31,377.192,376.963,379.845,376.963,383.117z"/>
				<path style="fill:#A3B0CA;" d="M395.952,383.117c0,3.272-2.652,5.924-5.924,5.924c-3.272,0-5.924-2.652-5.924-5.924
					c0-3.272,2.653-5.924,5.924-5.924C393.299,377.192,395.952,379.845,395.952,383.117z"/>
				<path style="fill:#D4D4DB;" d="M414.941,383.117c0,3.272-2.652,5.924-5.924,5.924c-3.272,0-5.924-2.652-5.924-5.924
					c0-3.272,2.653-5.924,5.924-5.924C412.288,377.192,414.941,379.845,414.941,383.117z"/>
			</g>
		</g>
		<g>
			<g>
				<g>
					<path style="fill:#525B7A;" d="M432.324,198.487h-77.159c-3.551,0-6.43-2.879-6.43-6.43V52.59c0-3.551,2.879-6.43,6.43-6.43
						h77.159c3.551,0,6.43,2.879,6.43,6.43v139.467C438.754,195.608,435.875,198.487,432.324,198.487z"/>
					<rect x="348.735" y="60.931" style="fill:#E3E3EB;" width="90.019" height="122.784"/>
					<rect x="348.735" y="60.931" style="fill:#525B7A;" width="1.714" height="122.784"/>
					<rect x="437.04" y="60.931" style="fill:#525B7A;" width="1.714" height="122.784"/>
					<g>
						<rect x="354.17" y="84.111" style="fill:#C4C7DA;" width="14.696" height="43.703"/>
						<rect x="354.17" y="75.401" style="fill:#C4C7DA;" width="14.696" height="5.963"/>
						<rect x="375.654" y="84.111" style="fill:#C4C7DA;" width="14.696" height="43.703"/>
						<rect x="375.654" y="75.401" style="fill:#C4C7DA;" width="14.696" height="5.963"/>
						<rect x="397.139" y="84.111" style="fill:#C4C7DA;" width="14.696" height="43.703"/>
						<rect x="397.139" y="75.401" style="fill:#C4C7DA;" width="14.696" height="5.963"/>
						<rect x="418.623" y="84.111" style="fill:#C4C7DA;" width="14.696" height="43.703"/>
						<rect x="418.623" y="75.401" style="fill:#C4C7DA;" width="14.696" height="5.963"/>
					</g>
					<path style="fill:#43425D;" d="M398.279,191.342c0,2.504-2.03,4.535-4.534,4.535s-4.535-2.03-4.535-4.535
						c0-2.504,2.03-4.534,4.535-4.534S398.279,188.837,398.279,191.342z"/>
					<rect x="380.796" y="52.053" style="fill:#E3E3EB;" width="25.896" height="2.105"/>
					<circle style="fill:#E3E3EB;" cx="412.349" cy="53.105" r="3.157"/>
					<circle style="fill:#B4B3CC;" cx="412.349" cy="53.105" r="1.616"/>
					<circle style="fill:#E3E3EB;" cx="375.913" cy="53.105" r="1.616"/>
					<g>
						<path style="fill:#FFFFFF;" d="M418.298,65.611c-7.425,0-13.444,4.658-13.444,10.405c0,2.703,1.343,5.158,3.527,7.008
							l-1.263,5.081l4.396-3.116c1.993,0.905,4.306,1.432,6.784,1.432c7.425,0,13.444-4.659,13.444-10.405
							C431.743,70.269,425.723,65.611,418.298,65.611z"/>
						<g>
							<g>
								<polygon style="fill:#785166;" points="411.929,70.245 413.823,70.245 413.481,80.136 412.403,80.136 								"/>
								<polygon style="fill:#785166;" points="412.39,81.068 412.547,82.12 413.468,82.12 413.626,81.068 								"/>
							</g>
							<g>
								<polygon style="fill:#D34F38;" points="417.351,70.245 419.245,70.245 418.903,80.136 417.825,80.136 								"/>
								<polygon style="fill:#D34F38;" points="417.812,81.068 417.969,82.12 418.89,82.12 419.048,81.068 								"/>
							</g>
							<g>
								<polygon style="fill:#785166;" points="422.773,70.245 424.667,70.245 424.325,80.136 423.247,80.136 								"/>
								<polygon style="fill:#785166;" points="423.234,81.068 423.391,82.12 424.312,82.12 424.47,81.068 								"/>
							</g>
						</g>
					</g>
				</g>
				<g>
					<path style="fill:#EDACB1;" d="M374.691,93.222c0,0-2.76-1.324-1.406-4.691c0,0-0.12-1.122,5.843-2.806
						c5.963-1.684,14.24-1.754,16.485-1.543c2.245,0.211,5.577,5.426,2.122,6.852C394.281,92.459,374.691,93.222,374.691,93.222z"/>
					<path style="fill:#030542;" d="M376.941,110.687c0,0-5.74-6.934-2.794-16.124c2.946-9.19,15.503-5.752,15.854-6.454
						c0.351-0.701,0.772-1.403,0.982-1.333c0.211,0.07,0.281,1.403,0.772,1.193c0.491-0.211,1.333-0.421,1.403-0.211
						c0.07,0.211-0.772,1.193-0.421,1.193c0.351,0,1.754-0.351,1.754-0.351v0.631c0,0,2.806,1.052,4.349,2.806
						c1.543,1.754,5.331,12.293-0.491,17.651C392.527,115.047,376.941,110.687,376.941,110.687z"/>
					<path style="fill:#FF9A84;" d="M399.955,100.175c0,0-0.178,14.634-8.849,20.102c-2.251,1.419-5.107,1.415-7.347-0.022
						c-8.654-5.553-8.832-20.606-8.832-20.606c3.141,0,6.009,1.492,9.148,1.368c-0.086-0.387-0.225-0.761-0.427-1.102
						c0.936,0.333,1.925,0.519,2.891,0.752c1.365,0.329,2.762,0.556,4.167,0.547c-0.1-0.389-0.213-0.749-0.424-1.091
						c0.249,0.003,0.567,0.082,0.806,0.207c0.75,0.392,2.088,0.719,2.931,0.794c1.154,0.102,2.312,0.155,3.471,0.157
						c0.007-0.344-0.064-0.689-0.215-0.998c0.611,0.432,1.248,0.907,1.733,1.477C399.254,101.245,399.592,100.615,399.955,100.175z"
						/>
					<path style="fill:#FF9A84;" d="M375.328,107.263c0,0-0.726-4.914-1.016-5.317c-0.29-0.402-1.8-0.862-2.583-0.431
						C370.945,101.947,370.509,106.919,375.328,107.263z"/>
					<path style="fill:#D27D84;" d="M374.545,102.729c-0.409-0.256-1.302-0.461-1.808-0.182c-0.59,0.325-0.914,3.985,2.543,4.396
						C375.156,106.128,374.813,103.931,374.545,102.729z"/>
					<g>
						<g>
							<path style="fill:#4C3540;" d="M383.458,105.943c0,0.729-0.377,1.32-0.842,1.32c-0.465,0-0.842-0.591-0.842-1.32
								c0-0.729,0.377-1.32,0.842-1.32C383.081,104.624,383.458,105.215,383.458,105.943z"/>
							<path style="fill:#030542;" d="M382.277,103.127c0.343-0.009,0.687-0.019,1.03-0.019c0.428-0.001,0.863,0.013,1.271,0.145
								c0.086,0.028,0.175,0.064,0.232,0.134s0.071,0.184,0.007,0.247c-0.05,0.05-0.129,0.055-0.2,0.056
								c-0.677,0.007-1.352-0.102-2.028-0.072c-0.468,0.021-0.933,0.11-1.376,0.262c-0.291,0.1-1.57,0.717-1.637,0.067
								c-0.06-0.576,1.135-0.702,1.495-0.747C381.471,103.15,381.874,103.138,382.277,103.127z"/>
						</g>
						<g>
							<path style="fill:#4C3540;" d="M391.426,105.943c0,0.729,0.377,1.32,0.842,1.32s0.842-0.591,0.842-1.32
								c0-0.729-0.377-1.32-0.842-1.32S391.426,105.215,391.426,105.943z"/>
							<path style="fill:#030542;" d="M392.608,103.127c-0.343-0.009-0.687-0.019-1.03-0.019c-0.428-0.001-0.863,0.013-1.271,0.145
								c-0.086,0.028-0.175,0.064-0.232,0.134s-0.071,0.184-0.007,0.247c0.05,0.05,0.129,0.055,0.2,0.056
								c0.677,0.007,1.352-0.102,2.028-0.072c0.468,0.021,0.933,0.11,1.376,0.262c0.291,0.1,1.57,0.717,1.637,0.067
								c0.059-0.576-1.135-0.702-1.495-0.747C393.414,103.15,393.01,103.138,392.608,103.127z"/>
						</g>
					</g>
					<path style="fill:#BF7476;" d="M390.276,114.765c0.262-0.065,0.579-0.123,0.766,0.071c0.088,0.091,0.124,0.219,0.148,0.343
						c0.105,0.526,0.048,1.118-0.302,1.523c-0.354,0.409-0.925,0.547-1.461,0.616c-0.798,0.103-4.196,0.057-3.808-1.44
						c0.203-0.785,1.32-0.635,1.907-0.676C388.453,115.137,389.374,114.991,390.276,114.765z"/>
					<path style="fill:#BF7476;" d="M386.178,109.48c-0.172,0.376-0.393,0.756-0.374,1.169c0.016,0.358,0.225,0.697,0.529,0.886
						c0.304,0.189,0.694,0.226,1.034,0.114c-0.25-0.292-0.621-0.485-0.788-0.831c-0.166-0.346-0.085-0.756,0.021-1.125
						c0.118-0.413,0.264-0.819,0.333-1.243c0.069-0.424,0.055-0.875-0.135-1.26C386.724,107.948,386.496,108.789,386.178,109.48z"/>
					<path style="fill:#D34F38;" d="M374.007,78.709c0,0-1.505,6.434,0.089,8.969c0.754-0.486,2.204-1.156,5.032-1.954
						c5.963-1.684,14.24-1.754,16.485-1.543c0.286,0.027,0.589,0.136,0.894,0.307c0.088-1.784-0.321-5.773-2.157-7.322
						c-2.245-1.894-9.61-7.225-11.925-7.366c-2.315-0.14-6.664,0.982-8.558,2.525c-1.894,1.543-4.981,9.33-4.981,12.978l1.122,0.281
						C370.009,85.584,372.254,79.691,374.007,78.709z"/>
					<path style="fill:#FFFFFF;" d="M370.219,86.772c0,0.736-0.597,1.333-1.333,1.333c-0.736,0-1.333-0.597-1.333-1.333
						s0.597-1.333,1.333-1.333C369.623,85.439,370.219,86.035,370.219,86.772z"/>
					<path style="fill:#FC5938;" d="M422.146,114.703c0,0-5.156-2.006-8.944-1.796c0,0-1.473,19.572-2.631,20.729
						c-1.158,1.158-9.031-10.101-19.457-10.522l-7.78-0.21c0,0-11.38,3.788-14.852,8.313c-3.472,4.525-5.682,29.778-3.683,47.14
						c0,0,3.472,1.894,9.365,1.894v-3.157c0,0,14.205,3.788,31.146-0.21c0,0-0.105-25.043-1.052-32.935
						c0,0,9.049,3.683,13.784,1.263C422.778,142.791,422.146,114.703,422.146,114.703z"/>
					<path style="fill:#FCC9CA;" d="M394.438,123.617c-1.074-0.275-2.183-0.457-3.324-0.503l-7.78-0.21c0,0-1.232,0.411-3.006,1.121
						c-0.263,1.025-0.39,2.886,1.446,4.421c2.685,2.245,5.351,2.596,7.455,1.754C391.333,129.357,395.359,125.94,394.438,123.617z"
						/>
					<path style="fill:#AB4F38;" d="M373.118,79.549c0.302-0.377,0.602-0.678,0.889-0.839c0,0,1.087-3.683,2.771-5.893
						C376.778,72.817,374.456,73.586,373.118,79.549z"/>
					<path style="fill:#FF8E82;" d="M391.896,123.434c-0.467-0.026-0.231-2.082,0.035-3.725c-0.266,0.198-0.54,0.388-0.825,0.568
						c-2.251,1.419-5.107,1.415-7.347-0.022c-0.775-0.497-1.48-1.074-2.125-1.706c0.412,1.738,1.057,4.792,0.582,5.091
						c-0.668,0.421-1.089,0.737-0.878,1.999c0.211,1.263,3.472,4.139,6.103,3.858c2.631-0.281,6.042-3.718,5.669-5.472
						C393.11,124.026,392.597,123.474,391.896,123.434z"/>
					<path style="fill:#5E5138;" d="M374.017,177.1c-0.486-11.553,0.674-36.347,0.686-36.596l0.294,0.014
						c-0.011,0.249-1.171,25.03-0.686,36.569L374.017,177.1z"/>
					<path style="fill:#5E5138;" d="M404.235,143.955c-0.003-0.056-0.29-5.627-1.186-8.522l0.281-0.087
						c0.908,2.93,1.197,8.538,1.199,8.594L404.235,143.955z"/>
					<path style="fill:#FF9A84;" d="M426.479,98.912c-0.528,0.506-1.684,3.314-2.525,2.683c-0.362-0.272,1.421-6.969,1.526-7.456
						c0.289-1.342-0.342-1.623-1-1.435c-0.368,0.105-0.977,3.413-1.421,5.051c-0.342,1.263-0.789,3.42-1.526,3.051
						c-0.737-0.368,0.631-8.47,0.316-9.102c-0.316-0.631-1.079-1.018-1.526-0.184c-0.395,0.737-0.684,5.34-0.789,7.234
						c-0.105,1.894-0.421,3.051-1.158,2.736c-0.737-0.316-0.263-6.576-0.474-8.269c-0.21-1.692-0.877-2.264-1.605-1.622
						c-0.447,0.395-0.132,5.998-0.237,7.26c-0.105,1.263-0.158,3.841-0.894,4.248c-0.737,0.407-1.421-2.143-1.999-2.038
						c-0.579,0.105-0.684,1.158-0.684,1.158c-0.053,3.841,1.526,3.472,2.105,5.945c0.416,1.777,0.234,3.766,0.099,4.747
						c2.615,0.16,5.481,1.048,6.815,1.507c-0.017-1.772,0.321-4.251,0.795-4.976c1.919-2.936,1.314-4.634,2.208-5.461
						c0.894-0.827,2.73-3.643,2.973-4.525C427.665,98.788,427.11,98.307,426.479,98.912z"/>
					<g>
						<path style="fill:#FCC9CA;" d="M372.068,159.206c0.112,0,0.205-0.088,0.211-0.2c0.006-0.116-0.084-0.215-0.201-0.22
							l-5.73-0.28c-0.73-0.035-1.478-0.069-2.226-0.049c-0.004,0.14-0.01,0.28-0.014,0.421c0.742-0.021,1.489,0.013,2.22,0.049
							l5.73,0.28C372.061,159.206,372.064,159.206,372.068,159.206z"/>
						<path style="fill:#FCC9CA;" d="M369.771,176.54c0.112,0,0.205-0.087,0.211-0.2c0.006-0.116-0.084-0.215-0.201-0.22
							l-5.232-0.255c0.013,0.141,0.025,0.283,0.038,0.423l5.174,0.253C369.764,176.54,369.768,176.54,369.771,176.54z"/>
						<path style="fill:#FCC9CA;" d="M370.909,167.872c0.003,0,0.007,0,0.01,0c0.112,0,0.205-0.087,0.211-0.2
							c0.006-0.116-0.084-0.215-0.201-0.22l-5.73-0.279c-0.369-0.018-0.742-0.034-1.118-0.045c0.003,0.141,0.005,0.281,0.009,0.422
							c0.365,0.011,0.729,0.026,1.088,0.044L370.909,167.872z"/>
						<path style="fill:#FCC9CA;" d="M373.227,150.118l-5.73-0.279c-0.948-0.047-1.924-0.088-2.896-0.012
							c-0.012,0.141-0.022,0.283-0.034,0.424c0.966-0.082,1.952-0.039,2.909,0.008l5.731,0.279c0.003,0,0.007,0,0.01,0
							c0.112,0,0.205-0.087,0.21-0.2C373.433,150.222,373.344,150.123,373.227,150.118z"/>
						<path style="fill:#FCC9CA;" d="M378.641,137.471c6.954,0,13.858-1.35,20.563-2.661c0.114-0.022,0.188-0.133,0.166-0.247
							c-0.022-0.114-0.136-0.192-0.247-0.166c-7.66,1.497-15.582,3.048-23.514,2.562c-1.221-0.074-2.461-0.199-3.661-0.32
							c-1.765-0.177-3.571-0.35-5.387-0.38c-0.034,0.14-0.068,0.277-0.102,0.421c1.826,0.025,3.661,0.198,5.447,0.377
							c1.203,0.121,2.449,0.246,3.677,0.321C376.603,137.441,377.622,137.471,378.641,137.471z"/>
						<path style="fill:#FCC9CA;" d="M404.046,170.33c-0.019-0.114-0.121-0.191-0.243-0.172c-8.74,1.508-17.636,1.713-26.44,0.609
							c-0.125-0.018-0.221,0.067-0.235,0.183c-0.015,0.115,0.067,0.221,0.182,0.235c3.734,0.469,7.483,0.702,11.231,0.702
							c5.13,0,10.259-0.439,15.334-1.314C403.989,170.553,404.066,170.445,404.046,170.33z"/>
						<path style="fill:#FCC9CA;" d="M377.212,148.977c0.967,0.018,1.934,0.027,2.902,0.027c7.69,0,15.42-0.568,23.017-1.692
							c0.115-0.017,0.195-0.124,0.177-0.239c-0.017-0.114-0.125-0.199-0.238-0.177c-8.531,1.262-17.229,1.823-25.85,1.66
							c-0.104,0.018-0.212,0.09-0.215,0.206C377.003,148.879,377.096,148.975,377.212,148.977z"/>
						<path style="fill:#FCC9CA;" d="M376.798,160.479c-0.004,0.116,0.086,0.214,0.203,0.218c1.379,0.05,2.758,0.075,4.138,0.075
							c7.551,0,15.102-0.749,22.502-2.234c0.114-0.023,0.188-0.134,0.165-0.248c-0.023-0.113-0.127-0.19-0.247-0.165
							c-8.721,1.751-17.65,2.477-26.543,2.151C376.905,160.269,376.802,160.363,376.798,160.479z"/>
					</g>
					<g>
						<path style="fill:#FCC9CA;" d="M410.811,137.155c-0.303-1.128-0.615-2.294-0.669-3.473c0-0.003,0-0.005,0-0.008
							c-0.123-0.041-0.266-0.113-0.427-0.214c0.002,0.081,0.003,0.162,0.007,0.242c0.057,1.224,0.376,2.413,0.684,3.563
							c0.759,2.831,1.579,5.878,2.817,8.752c0.156,0.007,0.312,0.011,0.467,0.013C412.417,143.128,411.582,140.03,410.811,137.155z"
							/>
						<path style="fill:#FCC9CA;" d="M412.681,119.095c-0.013,0.138-0.026,0.28-0.039,0.421l9.508,1.615
							c0.002-0.145,0.004-0.284,0.005-0.426L412.681,119.095z"/>
						<path style="fill:#FCC9CA;" d="M421.786,130.359c-3.423-0.789-6.74-1.962-9.908-3.501c-0.018,0.148-0.036,0.296-0.054,0.442
							c3.176,1.531,6.501,2.698,9.931,3.483C421.765,130.642,421.776,130.501,421.786,130.359z"/>
					</g>
					<path style="fill:#7A4B38;" d="M374.164,177.094v3.157c-0.191,0-0.372-0.007-0.559-0.011c-0.145,1.9-0.178,3.476-0.178,3.476
						h30.954v-6.625C387.855,180.738,374.164,177.094,374.164,177.094z"/>
					<path style="fill:#FF9A84;" d="M365.581,178.712c0,0-0.079,2.19,0,5.003h7.847l0.178-3.476
						C373.606,180.239,367.554,179.805,365.581,178.712"/>
					<path style="fill:#D27D84;" d="M391.155,116.174c-0.507-0.091-1.074-0.147-1.684-0.147c-1.553,0-2.873,0.333-3.408,0.801
						c0.893,0.557,2.792,0.563,3.364,0.49c0.537-0.069,1.107-0.207,1.461-0.616C391.02,116.55,391.099,116.366,391.155,116.174z"/>
				</g>
			</g>
			<g>
				<g>
					<path style="fill:#525B7A;" d="M105.302,171.273H315.14c3.291,0,5.959-2.668,5.959-5.959V69.378
						c0-3.291-2.668-5.959-5.959-5.959H105.302c-3.291,0-5.959,2.668-5.959,5.959v95.936
						C99.343,168.605,102.011,171.273,105.302,171.273z"/>
					<path style="fill:#E0C8D4;" d="M312.405,66.215H108.036c-2.733,0-4.948,2.215-4.948,4.948v17.293
						c0,0.845,0.543,1.594,1.345,1.858l4.984,1.636c1.246,0.409,2.089,1.572,2.089,2.884v45.023c0,1.312-0.842,2.475-2.089,2.884
						l-4.984,1.636c-0.803,0.264-1.345,1.013-1.345,1.858v17.294c0,2.733,2.215,4.948,4.948,4.948h204.369
						c2.733,0,4.948-2.215,4.948-4.948V71.163C317.353,68.43,315.138,66.215,312.405,66.215z"/>
					<path style="fill:#F7EBF1;" d="M108.036,165.11c-0.872,0-1.581-0.709-1.581-1.581v-16.271l4.013-1.318
						c2.636-0.866,4.406-3.311,4.406-6.083V94.835c0-2.773-1.77-5.217-4.405-6.083l-4.013-1.318V71.163
						c0-0.872,0.709-1.581,1.581-1.581h204.369c0.872,0,1.581,0.709,1.581,1.581v92.366c0,0.872-0.709,1.581-1.581,1.581H108.036z"
						/>
					<g>
						<circle style="fill:#394261;" cx="104.982" cy="99.166" r="1.473"/>
						<path style="fill:#394261;" d="M106.024,133.69c0,0.575-0.466,1.042-1.042,1.042c-0.575,0-1.042-0.466-1.042-1.042
							s0.466-1.042,1.042-1.042C105.557,132.648,106.024,133.115,106.024,133.69z"/>
						<path style="fill:#394261;" d="M107.358,105.949c0,1.312-1.064,2.376-2.376,2.376c-1.312,0-2.376-1.064-2.376-2.376
							c0-1.312,1.064-2.376,2.376-2.376C106.294,103.573,107.358,104.636,107.358,105.949z"/>
						<path style="fill:#394261;" d="M106.455,128.208c0,0.814-0.66,1.473-1.473,1.473s-1.473-0.66-1.473-1.473
							s0.66-1.473,1.473-1.473S106.455,127.394,106.455,128.208z"/>
						<rect x="104.421" y="110.32" style="fill:#394261;" width="1.122" height="14.1"/>
					</g>
					<g>
						<path style="fill:#FC5938;" d="M135.563,161.248h-12.198c-0.467,0-0.846-0.379-0.846-0.846v-6.586
							c0-0.467,0.379-0.846,0.846-0.846h12.198c0.467,0,0.846,0.379,0.846,0.846v6.586
							C136.409,160.869,136.03,161.248,135.563,161.248z"/>
						<path style="fill:#FC5938;" d="M137.531,155.986v2.246c0,0.193,0.085,0.376,0.232,0.502l3.594,3.054
							c0.428,0.363,1.085,0.059,1.085-0.501v-8.355c0-0.561-0.657-0.865-1.085-0.502l-3.594,3.054
							C137.616,155.609,137.531,155.793,137.531,155.986z"/>
						<circle style="fill:#FC5938;" cx="112.979" cy="157.6" r="2.175"/>
					</g>
				</g>
				<g>
					<path style="fill:#D88073;" d="M151.912,95.027c0,0-1.613-2.455-1.894-4.419c-0.281-1.964-0.21-6.384,0-7.576
						c0.21-1.193-1.263-2.104-1.543-2.034c-0.281,0.07-1.894,2.736-1.824,3.858c0.07,1.122-2.034-1.052-2.455-2.315
						c-0.421-1.263-4.069-9.751-4.91-10.592c-0.842-0.842-1.894-0.211-1.964,0.701c-0.07,0.912,3.297,8.207,3.016,8.769
						c-0.281,0.561-0.772,0.281-1.192-0.21c-0.421-0.491-5.963-8.979-6.805-9.19c-0.842-0.21-1.613-0.14-1.754,0.561
						s6.103,9.891,5.893,9.891c-0.21,0-4.915-5.612-5.895-5.893c-0.98-0.281-1.19,0.772-0.98,1.403
						c0.21,0.631,6.383,7.927,6.454,8.348c0.07,0.421-0.21,0.842-1.052,0.491c-0.842-0.351-3.297-1.684-4.069-1.403
						c-0.772,0.281-0.631,1.052-0.491,1.473c0.14,0.421,2.455,1.824,3.648,2.104c1.193,0.281,2.438,3.98,4.875,5.384
						c2.124,1.223,4.082,2.401,7.839,8.313c0,0,10.996,15.626,26.148,26.99l6.311-6.942
						C179.267,122.739,159.769,107.794,151.912,95.027z"/>
					<path style="fill:#FC5938;" d="M196.001,119.369c-0.736,0.526-10.417,1.894-18.625-1.263c0,0-0.947,5.472-3.683,8.628
						c-2.736,3.157-2.841,6.629-2.841,6.629s9.365,3.472,11.364,3.893c1.999,0.421,2.631,28.2,2.315,30.936h43.946
						c0,0-4.698-38.091-3.751-38.933c0.947-0.842,8.418,0.631,8.313,0c-0.105-0.631-0.947-11.89-0.947-11.89
						s-11.065-3.293-24.029-1.525C195.098,117.613,196.001,119.369,196.001,119.369z"/>
					<path style="fill:#F7F4F6;" d="M202.63,125.682c7.937-0.835,7.918-7.41,7.573-10.085c-0.707,0.068-1.42,0.149-2.14,0.247
						c-12.965,1.768-12.062,3.524-12.062,3.524c-0.197,0.141-1.042,0.342-2.324,0.501
						C193.758,121.898,194.79,126.507,202.63,125.682z"/>
					<path style="fill:#C07573;" d="M193.704,112.865c0,0,1.981,5.452,1.56,7.03c-0.421,1.578,2.42,4.525,7.05,3.893
						c4.63-0.631,6.524-5.367,6.208-6.629c-0.316-1.263-1.263-2.525-1.789-7.155C206.207,105.374,193.704,112.865,193.704,112.865z"
						/>
					<path style="fill:#73453B;" d="M209.8,103.877c0.391,0.321,0.986,0.292,1.428,0.046c0.442-0.246,0.757-0.668,1.017-1.102
						c0.896-1.496,1.29-3.287,1.104-5.021c1.791-1.341,2.389-4.044,1.266-5.98c-0.942-1.623-2.833-2.622-3.463-4.39
						c-0.187-0.524-0.248-1.086-0.421-1.615c-0.505-1.548-2.034-2.704-3.662-2.767c-0.278-0.011-0.571,0.004-0.815-0.129
						c-0.353-0.193-0.484-0.623-0.643-0.993c-0.662-1.536-2.404-2.529-4.063-2.314c-1.934,0.25-3.456,1.903-5.385,2.191
						c-1.461,0.218-2.906-0.38-4.369-0.587c-1.463-0.207-3.262,0.193-3.776,1.578c-0.109,0.294-0.151,0.615-0.31,0.885
						c-0.585,0.994-2.105,0.608-3.189,1.004c-1.028,0.375-1.634,1.635-1.286,2.673c0.12,0.357,0.335,0.686,0.381,1.059
						c0.143,1.164-1.277,1.822-1.936,2.792c-0.709,1.043-0.394,2.642,0.658,3.338c0.338,0.223,0.752,0.381,0.949,0.735
						c0.16,0.288,0.135,0.638,0.111,0.966c-0.084,1.168-0.095,2.354,0.17,3.495c0.388,1.67,1.342,3.144,2.279,4.579
						c0.521,0.799,1.075,1.628,1.909,2.092c0.763,0.425,1.668,0.491,2.541,0.534c4.632,0.229,9.284,0.076,13.891-0.457
						C206.306,106.245,208.912,105.817,209.8,103.877z"/>
					<path style="fill:#D88073;" d="M185.794,97.798c0,0,3.578,16.836,14.205,17.993c10.628,1.157,9.996-16.941,9.996-16.941
						c-1.089,0.28-2.036-0.366-2.636-1.318c-0.6-0.951-0.77-2.104-0.912-3.219c-2.901,0.754-6.339-0.456-8.001-2.951
						c-0.693,0.932-1.468,1.96-2.527,2.436c-0.525,0.236-1.101,0.337-1.672,0.406c-0.815,0.099-1.636,0.14-2.457,0.122
						c0.042,0.844-0.526,1.602-1.185,2.131C189.247,97.547,187.535,97.798,185.794,97.798z"/>
					<path style="fill:#C07573;" d="M204.268,107.644c0.27,0.766-0.06,1.624-0.553,2.269c-1.043,1.364-2.858,2.093-4.555,1.829
						c-0.534-0.083-1.1-0.292-1.372-0.759c-0.028-0.048-0.053-0.103-0.045-0.158c0.045-0.286,1.015-0.498,1.281-0.589
						c0.613-0.21,1.22-0.43,1.815-0.689C201.17,109.404,204.365,107.922,204.268,107.644z"/>
					<path style="fill:#F7F4F6;" d="M204.268,107.644c0.097,0.277-3.098,1.759-3.429,1.903c-0.595,0.258-1.202,0.479-1.815,0.689
						c-0.266,0.091-1.236,0.303-1.281,0.589c-0.009,0.055,0.017,0.109,0.045,0.157c0.056,0.097,0.132,0.176,0.21,0.251
						c3.031-0.663,5.267-2.063,6.356-2.867C204.372,108.123,204.351,107.88,204.268,107.644z"/>
					<path style="fill:#FC5938;" d="M151.253,93.029c-0.868,1.766-2.534,2.98-4.137,4.122c-0.952,0.678-1.993,1.386-3.162,1.366
						c-0.287-0.005-0.7,0.06-0.672,0.346c0.008,0.081,0.056,0.151,0.105,0.216c0.352,0.46,0.83,0.823,1.369,1.037
						c2.747-1.005,5.171-2.879,6.833-5.285c0.244-0.353,0.512-0.772,0.472-1.199C152.02,93.204,151.682,93.016,151.253,93.029z"/>
					<path style="fill:#874438;" d="M148.191,105.012c-0.117,0.316-0.181,0.771,0.116,0.907c0.184,0.085,0.399-0.026,0.543-0.173
						c0.356-0.361,5.049-8.7,4.55-9.148c-0.735-0.66-1.62,1.164-1.857,1.547C150.207,100.308,149.081,102.612,148.191,105.012z"/>
					<path style="fill:#F7F4F6;" d="M177.376,118.106c0,0-0.947,5.472-3.683,8.628c-2.736,3.157-2.841,6.629-2.841,6.629
						s1.525,0.566,3.475,1.268c0.105-1.827,0.314-3.656,1.06-5.315c0.869-1.932,2.401-3.485,3.454-5.323
						c0.801-1.399,1.083-2.845,1.525-4.366c0.05-0.171,0.12-0.347,0.196-0.524C179.49,118.836,178.421,118.508,177.376,118.106z"/>
					<path style="fill:#FC956D;" d="M212.769,137.764c-3.035-1.917-8.307,1.438-8.307,1.438s-5.272-3.355-8.307-1.438
						c-3.035,1.917-3.834,15.335,8.307,20.128C216.603,153.1,215.804,139.681,212.769,137.764z"/>
					<path style="fill:#794553;" d="M194.3,100.731c0.261,0.646,0.176,1.29-0.19,1.438c-0.366,0.148-0.875-0.256-1.136-0.903
						c-0.261-0.646-0.176-1.29,0.19-1.438C193.531,99.681,194.039,100.085,194.3,100.731z"/>
					<path style="fill:#73453B;" d="M190.399,99.239c-0.319,0.28-0.606,0.595-0.931,0.868c-0.046,0.039-0.097,0.078-0.157,0.083
						c-0.098,0.008-0.182-0.085-0.196-0.183c-0.014-0.097,0.025-0.194,0.07-0.281c0.219-0.418,0.602-0.722,0.974-1.012
						c0.539-0.42,1.091-0.846,1.718-1.129c0.233-0.105,1.646-0.622,1.702-0.108c0.047,0.433-1.222,0.621-1.482,0.724
						C191.479,98.448,190.9,98.799,190.399,99.239z"/>
					<path style="fill:#794553;" d="M200.619,99.162c0.159,0.679,0.6,1.156,0.985,1.065c0.384-0.09,0.567-0.714,0.407-1.392
						c-0.159-0.679-0.6-1.156-0.985-1.065C200.642,97.86,200.459,98.483,200.619,99.162z"/>
					<path style="fill:#73453B;" d="M202.946,95.693c0.422,0.045,0.838,0.137,1.261,0.173c0.06,0.005,0.124,0.008,0.176-0.022
						c0.085-0.05,0.099-0.174,0.055-0.262c-0.045-0.088-0.132-0.144-0.22-0.189c-0.42-0.216-0.908-0.243-1.379-0.265
						c-0.683-0.033-1.379-0.062-2.054,0.069c-0.251,0.049-1.704,0.441-1.453,0.894c0.211,0.381,1.357-0.197,1.629-0.263
						C201.607,95.669,202.283,95.622,202.946,95.693z"/>
					<path style="fill:#C06462;" d="M197.614,101.552c0.247,1.054,0.243,2.15,0.172,3.23c-0.014,0.215-0.03,0.434,0.022,0.642
						c0.052,0.209,0.185,0.41,0.387,0.484c0.083,0.031,0.173,0.038,0.262,0.043c0.315,0.019,0.631,0.01,0.945-0.024
						c-0.201-0.247-0.56-0.214-0.833-0.378c-0.264-0.158-0.397-0.473-0.432-0.778c-0.034-0.305,0.013-0.613,0.026-0.921
						C198.196,103.056,198.036,102.228,197.614,101.552z"/>
					<path style="fill:#030542;" d="M256.784,114.598c0.344-4.976,0.584-10.369-2.195-14.512c-0.311-0.464-0.661-0.913-0.854-1.437
						c-0.437-1.185-0.002-2.49,0.055-3.751c0.11-2.438-1.368-4.874-3.582-5.901c0.062-1.813-0.163-3.689-1.048-5.272
						c-0.885-1.584-2.527-2.826-4.341-2.862c-0.844-0.017-1.683,0.219-2.525,0.15c-1.007-0.082-1.922-0.588-2.878-0.914
						c-3.533-1.206-7.806,0.357-9.728,3.558c-2.677-0.118-5.203,2.009-6.231,4.483c-1.028,2.474-0.58,5.437,0.91,7.663
						c0.307,0.459,0.664,0.913,0.757,1.457c0.086,0.505-0.069,1.018-0.234,1.504c-0.473,1.393-1.046,2.844-0.777,4.29
						c0.198,1.064,0.836,1.995,1.138,3.035c1.164,4.007-2.521,10.384-1.074,14.297c6.869,2.196,13.801,1.097,21.007,0.833
						c4.925-0.18,10.154-1.096,13.763-4.451L256.784,114.598z"/>
					<path style="fill:#FF9A84;" d="M284.694,93.527c0,0,4.374-4.896,4.7-6.202c0.326-1.306,0.199-4.873,0.852-5.591
						c0.653-0.718,1.548,0.32,1.613,2.736c0,0,1.822-1.328,5.025-7.085c0.811-1.458,1.715-0.995,1.682-0.309
						c-0.033,0.685-3.041,4.764-3.357,5.904c-0.115,0.415,0.342,0.46,0.702,0.167c0.359-0.294,4.604-6.313,5.495-6.429
						c1.144-0.149,0.57,0.72-0.05,1.536c-0.62,0.816-4.604,5.761-4.161,6.102c0.11,0.084,0.457-0.163,1.306-1.045
						s3.362-3.917,4.243-4.048c0.881-0.131,0.458,0.66-0.02,1.253c-0.574,0.711-4.236,4.554-3.841,4.946
						c0.219,0.216,1.052,0.154,1.868-0.263c0.816-0.417,1.569-0.256,1.504,0.299c-0.065,0.555-2.316,1.547-3.687,2.2
						c-1.371,0.653-3.527,2.044-4.147,2.599c-0.62,0.555-5.092,6.496-5.092,6.496L284.694,93.527z"/>
					<path style="fill:#FFA02D;" d="M237.494,113.967c0,0-9.119,2.666-11.505,4.49c-2.385,1.824-9.592,9.181-1.596,49.736h33.584
						c0,0,0.14-6.664,0-11.855c-0.14-5.191-1.122-9.961,0.717-14.58c1.167-2.93,3.913-12.919,3.913-15.584
						c0-2.666,20.413-15.328,28.2-29.849c0,0-3.928-2.981-6.594-4.104c0,0-19.642,19.081-25.254,20.343
						C253.348,113.827,242.703,112.284,237.494,113.967z"/>
					<path style="fill:#FFDEB6;" d="M245.351,125.78c5.085-0.997,5.398-8.317,4.979-12.663c-4.734-0.013-9.742-0.15-12.835,0.85
						c0,0-1.273,0.372-2.992,0.934c-1.26,0.425-2.063,0.697-2.063,0.697S238.055,127.211,245.351,125.78z"/>
					<path style="fill:#F38D84;" d="M234.969,107.513c0,0,0.421,6.85-0.351,7.809c-0.772,0.96,5.928,9.184,10.207,8.553
						c4.279-0.631,3.963-10.029,3.262-10.399c-0.701-0.37-1.683-0.37-1.683-0.37s-0.702-4.54-0.281-7.206
						C246.543,103.234,234.969,107.513,234.969,107.513z"/>
					<path style="fill:#CE8484;" d="M245.99,107.837c-3.306,0.095-6.621-0.226-9.901-0.72c-0.689,0.237-1.12,0.396-1.12,0.396
						s0.072,1.19,0.102,2.645c0.257,0.284,0.526,0.543,0.767,0.765c1.104,1.017,2.482,1.741,3.953,2.048
						c1.187,0.248,2.414,0.234,3.622,0.137c0.984-0.079,1.964-0.215,2.934-0.402C246.23,111.851,245.979,109.759,245.99,107.837z"/>
					<path style="fill:#FF9A84;" d="M232.515,90.149c2.652,2.69,6.861,3.612,10.316,2.085c0.206,0.758,0.507,1.547,1.144,2.005
						c0.32,0.23,0.702,0.357,1.084,0.458c1.229,0.324,2.461,0.496,3.49-0.251c0,0,1.304,16.111-6.214,16.494
						c-10.76,0.549-13.426-14.193-13.426-14.193C231.213,95.181,232.523,92.935,232.515,90.149z"/>
					<path style="fill:#93642D;" d="M230.185,168.199c-0.004-0.16-0.496-16.111-2.247-22.327
						c-1.766-6.273-1.479-14.156-1.476-14.235l0.421,0.016c-0.003,0.079-0.288,7.897,1.46,14.105
						c1.764,6.266,2.257,22.268,2.262,22.429L230.185,168.199z"/>
					<path style="fill:#242424;" d="M240.842,101.034c0.092,0.245,0.001,0.519-0.118,0.752c-0.119,0.233-0.269,0.46-0.3,0.72
						c0.531-0.116,0.877-0.695,0.844-1.238c-0.008-0.127-0.034-0.257-0.101-0.365c-0.105-0.17-0.292-0.266-0.464-0.367
						c-0.539-0.32-0.985-0.771-1.316-1.302c0.132,0.333,0.268,0.599,0.503,0.867C240.163,100.41,240.693,100.64,240.842,101.034z"/>
					<path style="fill:#4C3540;" d="M236.28,98.401c0.192,0.55,0.104,1.081-0.196,1.186c-0.3,0.105-0.699-0.257-0.891-0.807
						c-0.192-0.55-0.104-1.081,0.196-1.186C235.689,97.489,236.088,97.851,236.28,98.401z"/>
					<path style="fill:#4C3540;" d="M242.719,96.483c0.192,0.55,0.104,1.081-0.196,1.186c-0.3,0.105-0.699-0.257-0.891-0.807
						c-0.192-0.55-0.104-1.081,0.196-1.186C242.128,95.572,242.527,95.933,242.719,96.483z"/>
					<path style="fill:#030542;" d="M234.43,96.922c-0.512,0.243-0.946,0.624-1.331,1.04c-0.225,0.243-0.449,0.51-0.758,0.629
						c-0.051-0.138,0.033-0.286,0.117-0.406c0.759-1.081,1.974-1.928,3.295-1.903c0.127,0.002,0.267,0.018,0.356,0.109
						c0.387,0.391-0.426,0.281-0.531,0.278C235.183,96.654,234.786,96.753,234.43,96.922z"/>
					<path style="fill:#030542;" d="M241.541,94.933c0.534-0.189,1.111-0.225,1.677-0.201c0.331,0.014,0.678,0.045,0.981-0.088
						c-0.061-0.134-0.225-0.18-0.37-0.206c-1.3-0.232-2.76,0.025-3.679,0.973c-0.089,0.091-0.176,0.201-0.176,0.328
						c0.002,0.55,0.501-0.101,0.573-0.178C240.818,95.273,241.169,95.064,241.541,94.933z"/>
					<path style="fill:#955865;" d="M243.14,104.082c0.15-0.073,0.302-0.152,0.469-0.172c0.519-0.062,0.938,0.527,0.869,1.045
						c-0.069,0.518-0.475,0.929-0.914,1.213c-0.982,0.634-2.186,0.817-3.353,0.875c-0.75,0.037-1.813-0.035-2.102-0.894
						c-0.177-0.525,0.107-0.792,0.572-0.998C240.089,104.528,241.713,104.774,243.14,104.082z"/>
					<path style="fill:#AF6873;" d="M241.877,105.478c-1.549,0-2.822,0.602-3.056,1.388c0.431,0.178,0.96,0.198,1.39,0.177
						c1.167-0.058,2.371-0.241,3.353-0.875c0.125-0.081,0.244-0.174,0.356-0.275C243.373,105.637,242.663,105.478,241.877,105.478z"
						/>
				</g>
			</g>
			<g>
				<g>
					<g>
						<rect x="90.658" y="193.148" style="fill:#CED3EB;" width="188.614" height="151.628"/>
						<rect x="90.658" y="193.148" style="fill:#B5BDEB;" width="188.614" height="12.079"/>
						<g>
							<circle style="fill:#FC5938;" cx="99.428" cy="199.188" r="3.965"/>
							<circle style="fill:#FFC65C;" cx="112.422" cy="199.188" r="3.965"/>
							<circle style="fill:#469091;" cx="125.415" cy="199.188" r="3.965"/>
						</g>
					</g>
					<g>
						<polygon style="fill:#467D91;" points="161.995,268.405 138.025,344.776 185.965,344.776 						"/>
						<polygon style="fill:#469091;" points="161.995,258.48 144.074,315.577 179.916,315.577 						"/>
						<polygon style="fill:#4BAB91;" points="161.995,253.942 146.685,291.551 177.305,291.551 						"/>
					</g>
					<g>
						<polygon style="fill:#469091;" points="121.45,248.468 91.222,344.776 151.678,344.776 						"/>
						<polygon style="fill:#4BAB91;" points="121.45,235.951 98.85,307.954 144.049,307.954 						"/>
						<polygon style="fill:#4BC391;" points="121.45,230.229 102.143,277.655 140.756,277.655 						"/>
					</g>
				</g>
				<g>
					<path style="fill:#030542;" d="M229.091,200.287c1.604-2.541,1.332-5.919,0.056-8.64c-1.275-2.721-3.417-4.924-5.534-7.057
						c-1.292-1.301-2.622-2.62-4.267-3.432c-2-0.986-4.294-1.142-6.522-1.241c-2.263-0.101-4.573-0.156-6.745,0.485
						c-2.908,0.858-5.306,2.879-7.612,4.848c-1.768-0.071-3.532,0.759-4.96,1.803c-1.428,1.044-2.574,2.429-3.587,3.879
						c-0.6,0.859-1.164,1.756-1.508,2.746c-0.441,1.271-0.499,2.638-0.553,3.982c-0.102,2.549-0.06,5.459,1.844,7.157
						c-1.171,2.941-0.16,6.587,2.179,8.72c1.468,1.339,3.378,2.068,5.238,2.767c1.253,0.471,2.57,0.95,3.898,0.78
						c1.031-0.132,1.969-0.645,2.874-1.158c6.172-3.501,12.089-7.452,17.687-11.813
						C223.579,202.556,226.757,201.279,229.091,200.287z"/>
					<path style="fill:#030542;" d="M204.645,180.939l0.551,0.39c0.862-2.01,5.025-3.12,5.025-3.12
						C206.488,178.486,204.645,180.939,204.645,180.939z"/>
					<path style="fill:#FF9A84;" d="M338.516,238.08c-2.58,0.565-4.491,1.567-6.756,1.823c-0.223,0.025-0.454-0.428-0.424-0.65
						c0.015-0.114,0.129-0.18,0.224-0.244c2.247-1.51,4.549-3.56,7.569-5.643c0.418-0.288,0.675-1.235,0.483-1.705
						c-0.183-0.449-1.644-0.667-3.117,0.386c-1.891,1.351-7.05,5.752-8.228,5.743c-0.312-0.003-0.282-0.567-0.152-0.85
						c0.13-0.284,0.284-0.693,0.523-0.894c2.856-2.401,5.155-5.082,7.611-7.892c0.535-0.612,1.414-1.335,1.044-2.058
						c-0.275-0.536-1.016-0.82-1.569-0.582c-1.456,0.624-6.854,7.112-10.154,9.456c-0.369,0.262-0.781,0.519-1.234,0.508
						c-0.21-0.005-0.434-0.083-0.546-0.26c-0.156-0.247-0.041-0.572,0.097-0.831c0.627-1.176,1.632-2.094,2.516-3.09
						c1.213-1.369,2.219-2.922,2.974-4.589c0.163-0.36,0.31-0.799,0.094-1.131c-0.147-0.226-0.427-0.33-0.696-0.359
						c-1.158-0.126-2.12,0.835-2.86,1.734c-1.798,2.184-3.445,4.489-5.29,6.635c-0.927,1.078-1.897,2.169-2.987,3.087
						c-0.236,0.199-3.299,2.015-3.289,1.215c0.01-0.867,1.141-2.971,0.342-3.69c-0.276-0.249-0.709-0.16-1.059-0.035
						c-2.096,0.744-3.521,1.997-3.916,4.221c-0.417,2.354-0.428,4.7-1.474,6.909c-0.166,0.35-0.498,0.808-0.942,1.336
						l-28.893,22.105c-2.104-0.14-18.097-8.04-18.097-8.04l-7.747,11.952c0,0,22.869,12.599,31.286,8.855
						c6.597-2.935,21.573-20.352,30.99-28.478c2.428-1.964,4.624-3.362,6.443-3.867c0.257-0.071,0.51-0.153,0.76-0.245
						c1.857-0.686,3.367-2.055,4.677-3.502c1.238-1.367,2.415-1.996,4.186-2.628c2.399-0.856,4.798-1.713,7.196-2.569
						c0.451-0.161,0.926-0.338,1.227-0.711c0.301-0.373,0.332-1.006-0.062-1.277C339.052,238.077,338.769,238.025,338.516,238.08z"
						/>
					<path style="fill:#FF9A84;" d="M228.408,197.027c0,0,2.202,9.955,2.106,15.986c-0.096,6.031-3.787,21.36-16.847,17.805
						c-12.659-3.446-12.657-19.444-12.657-19.444c0.888,0,1.383-0.458,1.731-1.275c0.348-0.817,0.368-1.731,0.383-2.618
						c0.031-1.889,0.063-3.777,0.094-5.666c1.93,0.109,3.804-0.099,5.618-0.769s3.464-1.893,4.414-3.576
						c0.879,0.143,1.901,0.224,2.781,0.367c1.02,0.165,2.041,0.331,3.072,0.395C222.099,198.415,225.58,198.037,228.408,197.027z"/>
					<path style="fill:#525B7A;" d="M203.817,232.583c0,0-14.6,5.496-19.861,9.705c-5.261,4.209-7.366,21.045-9.26,34.093
						c0,0,3.578,1.894,9.47,2.104c0,0-3.578,29.042-1.473,66.291h60.777c0,0,2.357-31.567-0.168-71.973l9.119,2.946
						c0,0,7.857-13.89,8.979-17.818c0,0-14.311-10.663-19.642-16.415c-5.331-5.752-7.716-6.875-8.558-7.296
						S203.817,232.583,203.817,232.583z"/>
					<path style="fill:#737EA6;" d="M234.628,284.915c-1.143-0.778-1.934-2.074-3.224-2.574c-1.606-0.623-3.387,0.196-4.864,1.082
						c-1.477,0.886-3.07,1.901-4.777,1.674c-2.492-0.331-3.961-3.112-6.347-3.904c-2.465-0.819-5.035,0.684-7.242,2.054
						c-1.185,0.735-2.49,1.477-3.879,1.347c-2.728-0.256-4.29-3.658-7.004-4.037c-3.051-0.426-5.728,3.202-8.707,2.417
						c-0.763-0.201-1.418-0.676-2.108-1.058c-0.818-0.452-1.684-0.767-2.577-0.988c-0.519,5.07-1.631,17.722-1.836,34.598
						c1.548,0.174,3.046,0.546,4.413,1.302c0.69,0.382,1.345,0.857,2.108,1.058c2.979,0.785,5.656-2.843,8.707-2.417
						c2.713,0.379,4.276,3.781,7.004,4.037c1.388,0.13,2.694-0.611,3.879-1.347c2.207-1.37,4.777-2.873,7.242-2.054
						c2.386,0.793,3.855,3.573,6.347,3.904c1.708,0.227,3.3-0.788,4.777-1.674c1.477-0.886,3.258-1.705,4.864-1.082
						c1.29,0.5,2.08,1.796,3.224,2.574c1.687,1.148,3.989,1.028,5.86,0.213c1.477-0.643,2.743-1.66,3.948-2.741
						c0.099-9.695-0.009-21.438-0.593-34.393c-1.029,0.881-2.118,1.682-3.355,2.221
						C238.617,285.944,236.315,286.064,234.628,284.915z"/>
					<path style="fill:#737EA6;" d="M244.33,324.085c-0.683,0.461-1.397,0.875-2.17,1.192c-1.987,0.815-4.433,0.935-6.225-0.213
						c-1.215-0.778-2.055-2.074-3.424-2.574c-1.706-0.623-3.597,0.196-5.167,1.082c-1.569,0.886-3.261,1.901-5.075,1.674
						c-2.647-0.331-4.208-3.112-6.742-3.904c-2.619-0.819-5.349,0.684-7.693,2.054c-1.258,0.735-2.645,1.477-4.12,1.347
						c-2.898-0.256-4.557-3.658-7.44-4.037c-3.241-0.426-6.084,3.202-9.249,2.417c-0.81-0.201-1.506-0.676-2.239-1.058
						c-0.869-0.452-1.788-0.767-2.738-0.988c-0.006,0.053-0.012,0.09-0.018,0.138c0.002,2.132,0.018,4.315,0.053,6.552
						c0.936,0.217,1.845,0.518,2.702,0.964c0.733,0.382,1.429,0.857,2.239,1.058c3.165,0.785,6.008-2.843,9.249-2.417
						c2.882,0.379,4.542,3.781,7.44,4.037c1.475,0.13,2.862-0.611,4.12-1.347c2.344-1.37,5.074-2.873,7.693-2.054
						c2.534,0.793,4.095,3.573,6.742,3.904c1.814,0.227,3.506-0.788,5.075-1.674c1.569-0.886,3.46-1.705,5.167-1.082
						c1.37,0.5,2.21,1.796,3.424,2.574c1.792,1.148,4.238,1.028,6.225,0.213c0.703-0.289,1.357-0.66,1.985-1.07
						C244.214,328.806,244.278,326.538,244.33,324.085z"/>
					<path style="fill:#FF9A84;" d="M203.817,225.517c0,0,0.307,6.88-0.657,10.107c0,0,3.111,7.015,18.119,2.525
						c0,0,3.177-8.979,1.236-8.839S203.817,225.517,203.817,225.517z"/>
					<path style="fill:#FF9A84;" d="M199.978,211.386c-0.574-3.398-0.335-8.711-0.335-8.711s-1.149-1.149-2.919-0.814
						C194.953,202.196,194.187,210.237,199.978,211.386"/>
					<path style="fill:#D27D84;" d="M199.809,210.124c-0.219-2.064-0.23-4.443-0.206-5.948c-0.279-0.209-0.932-0.592-1.819-0.424
						C196.609,203.974,196.099,209.223,199.809,210.124z"/>
					<path style="fill:#030542;" d="M202.48,213.208c0.125,1.058,0.251,2.117,0.376,3.175c0.027,0.226,0.058,0.462,0.191,0.646
						c0.124,0.17,0.319,0.27,0.494,0.387c1.079,0.719,1.471,2.098,2.261,3.126c1.241,1.614,3.652,2.246,5.475,1.34
						c0.839-0.416,1.518-1.101,2.338-1.554c1.218-0.672,2.73-0.783,4.033-0.297c0.216,0.081,0.435,0.179,0.666,0.173
						c0.408-0.011,0.727-0.333,1.048-0.585c0.602-0.472,1.355-0.747,2.119-0.775c0.576-0.021,1.148,0.094,1.724,0.123
						c1.483,0.075,2.953-0.426,4.225-1.192c0.762-0.459,1.808-0.993,2.431-0.358c0.336,0.342,0.35,0.877,0.328,1.356
						c-0.101,2.127-0.533,4.237-1.278,6.232c-0.34,0.912-0.75,1.808-1.331,2.59c-0.63,0.849-1.444,1.54-2.251,2.224
						c-0.799,0.677-1.605,1.359-2.527,1.855c-1.138,0.612-2.414,0.917-3.681,1.171c-2.431,0.486-5.175,0.74-7.186-0.71
						c-0.526-0.379-0.98-0.864-1.555-1.163c-0.597-0.31-1.28-0.399-1.923-0.597c-1.613-0.497-2.942-1.685-3.917-3.062
						c-0.975-1.377-1.637-2.947-2.291-4.503c-0.479-1.139-0.959-2.282-1.29-3.473c-0.587-2.109-0.692-4.318-0.795-6.505
						C200.043,210.24,202.243,211.203,202.48,213.208z"/>
					<path style="fill:#4C3540;" d="M212.308,208.016c0,0.884-0.403,1.601-0.9,1.601c-0.497,0-0.9-0.717-0.9-1.601
						c0-0.884,0.403-1.6,0.9-1.6C211.905,206.415,212.308,207.132,212.308,208.016z"/>
					<path style="fill:#030542;" d="M207.986,205.75c-0.102,0.074-0.207,0.157-0.265,0.285c-0.058,0.128-0.055,0.313,0.04,0.41
						c0.055,0.057,0.13,0.074,0.201,0.078c0.412,0.027,0.771-0.278,1.131-0.51c0.979-0.631,2.132-0.764,3.255-0.756
						c0.269,0.002,1.409-0.142,0.701-0.639c-0.412-0.29-1.268-0.103-1.716-0.063C210.158,204.661,208.993,205.019,207.986,205.75z"
						/>
					<path style="fill:#4C3540;" d="M224.161,207.16c-0.047,0.883-0.488,1.577-0.984,1.55c-0.496-0.026-0.861-0.763-0.814-1.646
						c0.047-0.883,0.487-1.577,0.984-1.55C223.843,205.541,224.207,206.277,224.161,207.16z"/>
					<path style="fill:#030542;" d="M220.949,204.127c-0.117,0.048-0.238,0.104-0.325,0.214c-0.087,0.11-0.127,0.291-0.058,0.408
						c0.04,0.068,0.109,0.102,0.177,0.124c0.394,0.123,0.815-0.088,1.219-0.227c1.101-0.381,2.252-0.237,3.341,0.037
						c0.261,0.066,1.403,0.196,0.833-0.455c-0.332-0.379-1.208-0.4-1.652-0.467C223.316,203.584,222.1,203.656,220.949,204.127z"/>
					<path style="fill:#D87865;" d="M218.616,213.527c0.375,0.654,0.628,1.454,0.358,2.158c-0.166,0.433-0.507,0.771-0.838,1.095
						c0.25,0.136,0.564,0.015,0.792-0.156c0.677-0.507,0.971-1.47,0.692-2.269c-0.078-0.223-0.194-0.43-0.309-0.635
						c-0.322-0.573-0.643-1.145-0.964-1.717c-0.224-0.398-0.53-0.993-1.01-1.057C217.21,211.812,218.211,212.82,218.616,213.527z"/>
					<path style="fill:#BB6665;" d="M218.299,222.408c1.307-0.315,2.68-0.8,3.954-0.371c0.122,0.041,0.246,0.093,0.334,0.187
						c0.225,0.241,0.126,0.631-0.019,0.926c-0.874,1.79-2.847,2.805-4.803,3.183c-0.741,0.143-1.513,0.211-2.246,0.032
						c-0.733-0.179-1.426-0.637-1.745-1.321c-0.343-0.737-0.152-2.017,0.752-2.203c0.568-0.117,1.227-0.031,1.81-0.094
						C216.997,222.677,217.653,222.564,218.299,222.408z"/>
					<path style="fill:#F5F5F4;" d="M217.018,223.725c0.548-0.022,4.01-0.749,5.693-1.14c-0.002-0.134-0.03-0.261-0.123-0.361
						c-0.088-0.094-0.211-0.146-0.334-0.187c-1.274-0.429-2.648,0.057-3.954,0.371c-0.646,0.156-1.302,0.269-1.962,0.34
						c-0.584,0.063-1.242-0.023-1.81,0.094c-0.446,0.091-0.717,0.451-0.838,0.878C214.594,224.123,216.303,223.754,217.018,223.725z
						"/>
					<path style="fill:#D87865;" d="M218.518,224.181c-1.866,0.186-3.421,0.851-4.092,1.653c0.32,0.251,0.698,0.435,1.094,0.532
						c0.733,0.179,1.505,0.111,2.246-0.032c1.435-0.277,2.876-0.902,3.889-1.92C220.8,224.161,219.702,224.063,218.518,224.181z"/>
					<path style="fill:#F75F3A;" d="M198.467,185.251c1.993-1.702,4.058-3.44,6.459-4.435c-0.31-0.639-1.053-1.913-2.012-1.817
						c-1.276,0.128-6.055,3.765-5.995,4.531c0.039,0.492,0.458,1.245,0.861,1.739C198.008,185.249,198.237,185.242,198.467,185.251z
						"/>
					<path style="fill:#030542;" d="M199.468,173.83c-3.063-0.957-7.147,1.595-7.785,3.191s-0.14,6.19,6.024,5.743l4.682-3.608
						C202.389,179.156,202.531,174.788,199.468,173.83z"/>
					<path style="fill:#030542;" d="M197.393,182.783c0,0-3.014-0.497-5.072,0.7c0,0,4.403-0.814,5.6,0L197.393,182.783z"/>
					<path style="fill:#030542;" d="M202.39,179.366c0,0,0.46-2.68,1.657-3.542c0,0-2.075,1.155-2.154,2.384
						C201.814,179.436,202.39,179.366,202.39,179.366z"/>
					<path style="fill:#030542;" d="M198.467,185.251c0,0-3.179-0.812-6.146,0.529c0,0,4.403-0.718,5.6,0
						C199.117,186.498,198.467,185.251,198.467,185.251z"/>
					<path style="fill:#F75F3A;" d="M198.467,185.251c1.993-1.702,4.058-3.44,6.459-4.435c-0.31-0.639-1.053-1.913-2.012-1.817
						c-1.276,0.128-6.055,3.765-5.995,4.531c0.039,0.492,0.458,1.245,0.861,1.739C198.008,185.249,198.237,185.242,198.467,185.251z
						"/>
					<g>
						<path style="fill:#2E323D;" d="M195.124,278.695l-0.027-0.419c0.901-0.059,2.237-0.213,2.644-0.386
							c0.001-1.383,0.038-13.941,0.94-18.699l0.413,0.079c-0.943,4.973-0.933,18.606-0.933,18.743v0.105l-0.084,0.063
							C197.629,278.516,195.538,278.668,195.124,278.695z"/>
						<path style="fill:#2E323D;" d="M243.092,272.819c-0.011-0.146-1.15-14.774-3.773-21.262l0.391-0.158
							c2.647,6.549,3.791,21.24,3.803,21.388L243.092,272.819z"/>
					</g>
					<rect x="252.562" y="279.581" style="fill:#FC5938;" width="49.666" height="29.579"/>
					<rect x="252.562" y="279.581" style="fill:#BE5538;" width="49.666" height="2.71"/>
					<rect x="281.721" y="279.581" style="fill:#FC9E84;" width="10.254" height="29.579"/>
					<rect x="281.721" y="279.581" style="fill:#C48A84;" width="10.254" height="2.587"/>
					<rect x="249.609" y="271.505" style="fill:#FC5938;" width="57.594" height="8.076"/>
					<rect x="278.406" y="271.505" style="fill:#FC9E84;" width="9.654" height="8.076"/>
					<g>
						<path style="fill:#FF9A84;" d="M176.771,277.209c0,0,8.447,2.433,18.339,1.276c0,0-1.052,5.998,3.157,8.523
							c4.209,2.525,27.148,9.891,42.195,8.944c0,0,2.946-0.105,4.63-1.684c1.684-1.578,3.367-3.788,5.682-3.788
							c2.315,0,5.998,0.105,5.998,0.105s0.947,1.789-0.526,2.631c-1.473,0.842-3.262,1.578-3.262,1.578s1.862,0.737,4.088,0.737
							c2.226,0,9.591-1.578,11.275-2.21c1.684-0.631,2.736,1.64,1.578,2.714c0,0,1.894-0.863,2.525,0
							c0.631,0.863,0.105,1.916,0,2.337s-0.947,0.807-2.28,1.438c0,0,2.047,1.073,0.78,2.245c-1.052,0.973-3.657,2.052-5.551,2.736
							c0,0,1.684,0.842,0.842,2.21s-8.207,2.736-12.837,2.631c-4.63-0.105-9.681-1.368-12.311-1.368s-38.016-2.214-54.401-10.838
							C174.697,291.112,176.771,277.209,176.771,277.209z"/>
						<g>
							<path style="fill:#A87979;" d="M256.447,305.738c-0.116,0.005-0.206,0.104-0.201,0.219c0.005,0.116,0.092,0.201,0.22,0.201
								c4.057-0.174,8.15-0.824,9.413-1.038c-0.247-0.214-0.478-0.33-0.478-0.33c0.028-0.01,0.06-0.022,0.088-0.033
								C263.959,305.009,260.189,305.577,256.447,305.738z"/>
							<path style="fill:#A87979;" d="M270.674,299.368l-0.064-0.004l-0.056,0.033c-0.041,0.024-4.183,2.407-14.743,3.08
								c-0.116,0.007-0.204,0.107-0.196,0.223c0.007,0.112,0.1,0.197,0.21,0.197c0.004,0,0.009,0,0.014-0.001
								c9.043-0.576,13.356-2.357,14.563-2.946c-0.135-0.088-0.231-0.14-0.231-0.14c0.31-0.147,0.589-0.279,0.843-0.402
								C270.822,299.378,270.693,299.369,270.674,299.368z"/>
							<path style="fill:#A87979;" d="M255.087,299.358c0.003,0,0.006,0,0.01,0c14.224-0.653,15.744-3.015,15.905-3.517l0.13-0.153
								c-0.209,0.03-0.412,0.073-0.591,0.125c-0.357,0.506-2.583,2.533-15.462,3.124c-0.116,0.006-0.206,0.104-0.201,0.22
								C254.882,299.27,254.975,299.358,255.087,299.358z"/>
						</g>
						<path style="fill:#FFED51;" d="M235.621,295.688c0,0-1.578,12.575,0,13.207c1.578,0.631,2.306,0.038,2.626-0.77
							c0.32-0.808,0.636-11.543,0.425-12.436C238.462,294.795,235.728,294.781,235.621,295.688z"/>
					</g>
				</g>
			</g>
			<g>
				<g>
					<rect x="355.022" y="214.373" style="fill:#F7C6BF;" width="141.982" height="151.628"/>
					<rect x="355.022" y="214.373" style="fill:#F7A19D;" width="141.982" height="12.079"/>
					<g>
						<circle style="fill:#FC5938;" cx="363.793" cy="220.61" r="3.965"/>
						<circle style="fill:#FFFFFF;" cx="376.786" cy="220.61" r="3.965"/>
						<circle style="fill:#469091;" cx="389.779" cy="220.61" r="3.965"/>
					</g>
					<g>
						<g>
							<rect x="464.791" y="231.265" style="fill:#F7E1DC;" width="12.889" height="21.865"/>
							<rect x="480.172" y="231.265" style="fill:#F7E1DC;" width="12.889" height="21.865"/>
							<rect x="464.791" y="255.963" style="fill:#F7E1DC;" width="12.889" height="21.865"/>
							<rect x="480.172" y="255.963" style="fill:#F7E1DC;" width="12.889" height="21.865"/>
						</g>
						<g>
							<rect x="429.516" y="231.265" style="fill:#F7E1DC;" width="12.889" height="21.865"/>
							<rect x="444.897" y="231.265" style="fill:#F7E1DC;" width="12.889" height="21.865"/>
							<rect x="429.516" y="255.963" style="fill:#F7E1DC;" width="12.889" height="21.865"/>
							<rect x="444.897" y="255.963" style="fill:#F7E1DC;" width="12.889" height="21.865"/>
						</g>
						<g>
							<rect x="394.241" y="231.265" style="fill:#F7E1DC;" width="12.889" height="21.865"/>
							<rect x="409.622" y="231.265" style="fill:#F7E1DC;" width="12.889" height="21.865"/>
							<rect x="394.241" y="255.963" style="fill:#F7E1DC;" width="12.889" height="21.865"/>
							<rect x="409.622" y="255.963" style="fill:#F7E1DC;" width="12.889" height="21.865"/>
						</g>
						<g>
							<rect x="358.966" y="231.265" style="fill:#F7E1DC;" width="12.889" height="21.865"/>
							<rect x="374.347" y="231.265" style="fill:#F7E1DC;" width="12.889" height="21.865"/>
							<rect x="358.966" y="255.963" style="fill:#F7E1DC;" width="12.889" height="21.865"/>
							<rect x="374.347" y="255.963" style="fill:#F7E1DC;" width="12.889" height="21.865"/>
						</g>
					</g>
					<rect x="459.896" y="336.822" style="fill:#9F6E00;" width="37.108" height="2.131"/>
					<rect x="462.421" y="354.498" style="fill:#9F6E00;" width="34.583" height="1.691"/>
					<rect x="445.304" y="323.421" style="fill:#9F6E00;" width="51.7" height="2.783"/>
					<path style="fill:#826100;" d="M455.195,326.204h-2.736c0,0,10.522,14.171,9.154,39.797h2.736
						C465.718,340.375,455.195,326.204,455.195,326.204z"/>
					<g>
						<g>
							<g>
								<path style="fill:#5E7DA0;" d="M455.711,297.767c0,0-1.052-6.05,0.263-10.101c0,0,2.841,5.84,2.42,9.838
									C457.973,301.502,455.711,297.767,455.711,297.767z"/>
								<path style="fill:#5E7DA0;" d="M465.147,297.767c0,0,1.052-6.05-0.263-10.101c0,0-2.841,5.84-2.42,9.838
									S465.147,297.767,465.147,297.767z"/>
							</g>
							<g>
								<path style="fill:#718DAA;" d="M452.757,290.187c-1.755,10.878,3.268,21.686,3.268,21.686l4.936-1.347
									C460.962,310.525,459.797,298.663,452.757,290.187z"/>
								<path style="fill:#5777AA;" d="M457.24,306.369c-1.704-3.72-3.74-12.176-3.76-12.26l0.204-0.049
									c0.021,0.085,2.053,8.521,3.747,12.223L457.24,306.369z"/>
								<path style="fill:#718DAA;" d="M468.1,290.187c1.755,10.878-3.268,21.686-3.268,21.686l-4.936-1.347
									C459.896,310.525,461.061,298.663,468.1,290.187z"/>
								<path style="fill:#5777AA;" d="M463.276,306.388l-0.168-0.127c1.823-2.409,4.097-12.673,4.12-12.776l0.206,0.046
									C467.34,293.955,465.128,303.943,463.276,306.388z"/>
							</g>
							<path style="fill:#829EAA;" d="M460.429,287.665c-6.875,10.031-3.858,21.781-3.858,21.781h7.716
								C464.287,309.446,467.304,297.696,460.429,287.665z"/>
							<path style="fill:#A1AEAA;" d="M466.781,309.446h-12.704c0,0-1.684,11.85,3.893,13.975h4.917
								C468.464,321.296,466.781,309.446,466.781,309.446z"/>
						</g>
						<g>
							<path style="fill:#FF8D7D;" d="M489.282,312.754c0.321-0.452,0.581-0.982,0.549-1.535c-0.017-0.3-0.119-0.591-0.123-0.892
								c-0.016-1.1,1.24-1.941,1.14-3.037c-0.051-0.556-0.454-1.042-0.468-1.6c-0.023-0.929,0.979-1.523,1.376-2.362
								c0.51-1.079-0.05-2.362,0.13-3.542c0.134-0.877,0.667-1.635,0.965-2.47c0.299-0.835,0.284-1.924-0.443-2.432
								c-0.597-0.417-1.453-0.25-2.031,0.192c-0.668,0.511-1.062,1.362-1.018,2.203c0.034,0.654,0.311,1.326,0.095,1.944
								c-0.259,0.739-1.107,1.084-1.569,1.716c-0.708,0.968-0.366,2.354-0.812,3.467c-0.781,1.949-3.721,2.574-4.043,4.649
								c-0.118,0.762,0.174,1.546,0.046,2.307c-0.151,0.898-0.876,1.72-0.672,2.607
								C483.135,317.148,488.328,314.096,489.282,312.754z"/>
							<path style="fill:#AA697E;" d="M486.764,311.015l-0.182-0.134c1.626-2.218,4.475-13.265,4.503-13.376l0.219,0.056
								C491.186,298.018,488.415,308.762,486.764,311.015z"/>
							<path style="fill:#FF8D7D;" d="M476.89,313.868c-1.219-0.727-2.203-2.019-2.157-3.437c0.014-0.442,0.125-0.897-0.01-1.319
								c-0.083-0.26-0.253-0.482-0.395-0.715c-0.632-1.034-0.719-2.38-0.226-3.486c0.225-0.505,0.563-0.964,0.699-1.5
								c0.129-0.504,0.068-1.035,0.006-1.552c-0.074-0.622-0.148-1.244-0.222-1.866c-0.031-0.261-0.062-0.529-0.004-0.786
								c0.085-0.379,0.351-0.689,0.512-1.043c0.32-0.7,0.21-1.524-0.046-2.25c-0.194-0.551-0.47-1.093-0.476-1.677
								c-0.006-0.584,0.387-1.232,0.971-1.245c1.557-0.034,0.939,2.857,1.435,3.738c0.311,0.551,0.845,0.952,1.145,1.509
								c0.421,0.781,0.315,1.729,0.197,2.608c-0.056,0.418-0.109,0.864,0.075,1.243c0.108,0.221,0.286,0.398,0.444,0.588
								c0.903,1.087,1.034,2.768,0.955,4.125c-0.059,1.005-0.118,2.01-0.177,3.016c-0.059,1.012-0.1,2.101,0.442,2.958
								c0.387,0.611,2.074,2.169,0.471,2.254C479.404,315.091,477.836,314.433,476.89,313.868z"/>
							<path style="fill:#AA697E;" d="M478.855,311.201c-2.402-3.492-2.793-14.299-2.809-14.757l0.226-0.007
								c0.003,0.111,0.404,11.199,2.768,14.635L478.855,311.201z"/>
							<path style="fill:#FFB37D;" d="M479.431,306.7c-0.022-0.63-0.241-1.235-0.348-1.856c-0.108-0.621-0.086-1.316,0.309-1.808
								c0.257-0.32,0.643-0.517,0.894-0.841c0.211-0.273,0.311-0.618,0.351-0.961c0.197-1.68-0.913-3.471-0.187-4.999
								c0.227-0.478,0.618-0.872,0.798-1.37c0.246-0.681,0.06-1.431-0.08-2.141c-0.278-1.414-0.364-2.866-0.254-4.302
								c0.034-0.441,0.09-0.896,0.311-1.279c0.221-0.384,0.646-0.682,1.085-0.627c0.596,0.075,0.937,0.715,1.096,1.295
								c0.188,0.685,0.265,1.4,0.228,2.108c-0.017,0.326-0.057,0.664,0.057,0.969c0.169,0.454,0.624,0.72,0.991,1.035
								c1.086,0.933,1.485,2.584,0.945,3.91c-0.07,0.172-0.155,0.348-0.137,0.532c0.02,0.197,0.154,0.359,0.271,0.519
								c0.678,0.926,0.913,2.163,0.621,3.274c-0.189,0.718-0.587,1.409-0.523,2.149c0.073,0.84,0.725,1.52,0.925,2.339
								c0.192,0.786-0.05,1.606-0.059,2.414c-0.02,1.983,1.361,3.904,0.869,5.825c-1.196,4.665-10.13,2.894-9.355-1.98
								C478.47,309.458,479.484,308.205,479.431,306.7z"/>
							<polygon style="fill:#A1AEAA;" points="489.218,323.421 476.24,323.421 473.715,312.708 491.743,312.708 							"/>
						</g>
						<rect x="460.323" y="291.558" style="fill:#5777AA;" width="0.211" height="16.205"/>
						<rect x="482.833" y="292.427" style="fill:#FF8D7D;" width="0.226" height="19.274"/>
					</g>
				</g>
				<g>
					<path style="fill:#73453B;" d="M392.74,233.511c0,0-6.151-13.344,6.476-16.241c0,0,1.122-8.172,11.224-5.086
						c0,0,10.768-6.173,14.872,3.613c0,0,11.645-2.717,11.084,10.655c0,0,9.119,4.112,5.051,11.828c0,0,5.892,7.436-1.824,12.767
						c0,0-0.14,7.015-7.716,5.752c0,0-5.612,1.543-8.698-0.702c0,0-5.191,3.648-9.4-2.245
						C409.598,247.961,392.74,233.511,392.74,233.511z"/>
					<path style="fill:#D88073;" d="M334.661,275.827c0,0-5.209-1.998-6.261-4.182c-1.052-2.184-3.578-8.129-4.262-8.287
						c-0.684-0.158-1.789,0.684-1.789,1.631c0,0.947,1,3.315,0.894,3.578c-0.105,0.263-1.631-0.316-2.788-1.315
						c-1.158-1-8.102-6.536-9.049-6.74c-0.947-0.205-2.473,0.164-2.42,1.005c0.053,0.842,2.368,3.104,2.368,3.104
						s-3.315-2.262-4.051-2.157c-0.737,0.105-1.105,0.947-0.842,1.684c0.263,0.737,5.261,4.525,6.471,5.419
						c0,0-6.208-2.578-7.05-2.42s-1.158,1.263-0.421,1.841c0.737,0.579,7.05,3.525,7.05,3.525s0.105,0.379-0.316,0.426
						c-0.421,0.047-2.315-0.531-2.683-0.426c-0.368,0.105-0.684,0.789-0.316,1.421c0.368,0.631,3.262,1.368,5.103,1.894
						s2.946,2.157,5.314,2.262s3.42-0.053,4.893,0.316c1.473,0.368,6.997,4.472,6.997,4.472L334.661,275.827z"/>
					<path style="fill:#9F6E00;" d="M380.003,358.537c0,0-0.758,4.672-0.442,7.464h53.875c0,0,0.631-3.626-0.631-6.047
						C431.542,357.534,380.003,358.537,380.003,358.537z"/>
					<path style="fill:#FFA02D;" d="M419.63,263.095c0,0,12.416,2.683,19.572,12.223c0,0,8.207,38.442-4.209,59.276
						c0,0-2.525,17.046,0.21,27.779c0,0-42.721,3.157-56.821-4.63c0,0,6.294-27.589,7.155-36.197
						c1.052-10.522-5.051-18.73-2.315-32.409c0,0-6.715,9.042-12.522,9.26c-16.836,0.631-40.827-13.995-40.827-13.995l4.84-9.575
						c0,0,22.728,8.418,28.831,7.576c6.103-0.842,14.205-15.678,18.414-17.678c4.209-1.999,13.469-2.946,15.573-3.472
						c2.104-0.526,12.311-1.368,15.152,0C415.526,262.622,419.63,263.095,419.63,263.095z"/>
					<path style="fill:#DB892D;" d="M388.453,303.982c4.613,1.051,9.577,0.522,13.803-1.469c-0.654,1.642-2.273,2.848-4.005,3.411
						c-1.732,0.562-3.624,0.542-5.438,0.261C391.975,306.054,388.368,304.272,388.453,303.982z"/>
					<path style="fill:#FFDEB6;" d="M421.629,263.647L421.629,263.647c-1.243-0.388-1.999-0.552-1.999-0.552
						s-4.104-0.474-6.945-1.841c-2.841-1.368-13.048-0.526-15.152,0c-0.546,0.136-1.577,0.302-2.872,0.506
						c0.325,3.672,2.094,14.267,11.711,14.962C418.016,277.564,420.332,268.531,421.629,263.647z"/>
					<path style="fill:#C47473;" d="M415.841,253.01c0,0-0.527,8.138,0,8.98c0.527,0.842,3.789,1.105,3.789,1.105
						s-1.899,11.101-11.682,10.891c-9.784-0.21-11.095-12.27-10.415-12.732c0.308-0.209,1.578,0.07,2.104-0.526
						c0.642-0.728-0.421-9.155-0.421-9.155L415.841,253.01z"/>
					<path style="fill:#AF6873;" d="M415.638,260.675c-0.128-2.532,0.203-7.665,0.203-7.665l-16.625-1.437
						c0,0,0.45,3.571,0.587,6.265c2.205,1.255,5.092,1.72,7.435,2.072C410.02,260.328,412.826,260.58,415.638,260.675z"/>
					<path style="fill:#D88073;" d="M423.207,237.789c0,0-4.209,20.203-17.678,20.098c-13.469-0.105-12.837-27.358-12.837-27.358
						c0.312,0.528,0.881,0.751,1.495,0.731c0.613-0.019,1.195-0.274,1.73-0.575c1.012-0.568,1.924-1.316,2.678-2.198
						c0.388,0.451,1.031,0.677,1.624,0.734s1.19-0.059,1.758-0.236c0.897-0.279,1.753-0.718,2.447-1.351
						c0.602,1.273,1.847,2.153,3.237,2.375c1.391,0.222,2.814-0.057,4.163-0.463c0.876-0.264,1.748-0.589,2.495-1.118
						c-0.095,0.562-0.038,1.155,0.206,1.669c0.244,0.515,0.684,0.943,1.223,1.129c0.373,0.129,0.775,0.14,1.169,0.15
						c0.917,0.023,1.899,0.029,2.664-0.478c-0.628,1.274-0.573,2.867,0.052,4.142C420.256,236.316,421.816,237.504,423.207,237.789z
						"/>
					<path style="fill:#9F6E00;" d="M412.881,338.953l-0.368-0.513c22.173-15.975,17.598-53.203,17.549-53.577l0.626-0.082
						C430.737,285.159,435.362,322.755,412.881,338.953z"/>
					<path style="fill:#794553;" d="M400.911,238.206c-0.113,0.864-0.625,1.51-1.143,1.443c-0.519-0.068-0.848-0.823-0.735-1.688
						c0.113-0.864,0.625-1.51,1.143-1.442C400.695,236.587,401.024,237.342,400.911,238.206z"/>
					<path style="fill:#8E503B;" d="M400.505,233.266c1.107,0.016,2.199,0.243,3.275,0.506c0.444,0.109,0.922,0.246,1.195,0.613
						c0.137,0.184,0.209,0.43,0.138,0.648c-0.092,0.281-0.398,0.447-0.694,0.47c-0.295,0.023-0.586-0.068-0.871-0.148
						c-1.782-0.503-3.661-0.657-5.501-0.452c-1.016,0.113-1.142-0.697-0.286-1.117C398.594,233.376,399.587,233.253,400.505,233.266
						z"/>
					<path style="fill:#794553;" d="M411.834,239.768c-0.142,0.86,0.16,1.627,0.676,1.712c0.516,0.085,1.05-0.542,1.192-1.402
						c0.143-0.86-0.16-1.626-0.676-1.712C412.51,238.28,411.976,238.908,411.834,239.768z"/>
					<path style="fill:#8E503B;" d="M415.583,235.157c-1.064-0.306-2.176-0.405-3.281-0.465c-0.457-0.025-0.954-0.032-1.322,0.24
						c-0.185,0.136-0.325,0.351-0.32,0.58c0.006,0.296,0.252,0.543,0.528,0.651c0.276,0.107,0.58,0.105,0.877,0.111
						c1.851,0.035,3.695,0.432,5.397,1.161c0.939,0.403,1.295-0.337,0.597-0.986C417.38,235.816,416.465,235.41,415.583,235.157z"/>
					<path style="fill:#C1716F;" d="M406.014,240.71c-0.623,1.307-1.154,2.659-1.586,4.041c-0.088,0.281-0.172,0.569-0.159,0.863
						c0.013,0.294,0.141,0.598,0.392,0.75c0.239,0.144,0.536,0.128,0.812,0.166c-0.569-0.856-0.514-1.986-0.211-2.969
						C405.565,242.579,405.874,241.729,406.014,240.71z"/>
					<path style="fill:#9F6E00;" d="M390.211,279.516l-0.432-0.409c-2.422,4.069-6.557,10.031-6.557,10.031
						c-0.155,0.775-0.278,1.53-0.379,2.271L390.211,279.516z"/>
					<path style="fill:#AF6873;" d="M310.362,263.57v0.008c0.522,0.582,0.993,1.043,0.993,1.043s-0.421-0.287-0.992-0.649
						c0.006,0.005,7.341,6.051,7.621,5.946C318.264,269.812,310.362,263.57,310.362,263.57z"/>
					<path style="fill:#AF6873;" d="M311.706,268.643c0.526,0.401,0.967,0.732,1.227,0.924c0,0-1.03-0.427-2.305-0.922
						c0.044,0.022,4.83,2.342,4.883,2.185C315.563,270.672,311.71,268.645,311.706,268.643z"/>
					<path style="fill:#AF6873;" d="M409.681,250.893c0.231-0.011,0.474-0.014,0.677,0.097c0.403,0.221,0.453,0.822,0.213,1.213
						c-0.24,0.391-0.676,0.614-1.102,0.787c-2.204,0.894-4.768,0.926-6.948-0.025c-0.414-0.18-0.839-0.421-1.031-0.83
						c-0.912-1.946,1.98-1.343,2.801-1.181C406.068,251.307,407.894,250.976,409.681,250.893z"/>
					<path style="fill:#F5F5F4;" d="M410.661,251.407c-0.052-0.172-0.142-0.329-0.303-0.417c-0.202-0.111-0.446-0.107-0.677-0.097
						c-1.787,0.083-3.613,0.414-5.391,0.061c-0.641-0.127-2.539-0.517-2.907,0.243C402.899,251.6,407.08,252.583,410.661,251.407z"
						/>
					<path style="fill:#D88073;" d="M427.101,240.593c-0.253-1.452-2.839-1.434-2.839-1.434l-2.456,6.404
						C425.522,246.067,427.462,242.662,427.101,240.593z"/>
					<path style="fill:#AF6873;" d="M426.013,240.911c-0.29-0.632-1.427-0.705-2.162-0.682l-1.722,4.491
						C425.485,244.172,426.555,242.09,426.013,240.911z"/>
					<path style="fill:#D88073;" d="M412.876,339.537c0,0-2.787,2.915-5.172,3.125c-2.385,0.211-4.84,0.211-6.173,0.912
						c-1.333,0.702-1.473,1.403-1.403,1.964c0.07,0.561,1.964,0.982,3.227,0.982c1.263,0-0.14,1.333-0.842,1.824
						c0,0-5.331,3.928-8.558,4.981c-3.227,1.052-1.122,3.384,1.473,2.752c0,0-2.224,1.036-3.111,1.386
						c-0.887,0.351-1.238,1.964,0.516,2.245c1.754,0.281,3.999-0.631,3.999-0.631s-0.14,1.403,0.842,1.613
						c0.982,0.21,4.77-0.702,7.506-2.595c0,0-0.07,1.754,2.034,1.263c2.104-0.491,4.981-2.175,6.033-3.508
						c1.052-1.333,1.473-4.069,2.595-5.331c1.122-1.263,3.882-3.67,3.882-3.67L412.876,339.537z"/>
					<g>
						<path style="fill:#A45B68;" d="M409.376,355.637c-0.039-0.071-0.129-0.097-0.201-0.056c-1.736,0.972-4.05,2.374-4.073,2.388
							l-0.293,0.368c0.124-0.08,0.249-0.159,0.37-0.242c0,0-0.002,0.089,0.015,0.218l0.083-0.105
							c0.244-0.148,2.403-1.452,4.043-2.37C409.391,355.798,409.416,355.709,409.376,355.637z"/>
						<path style="fill:#A45B68;" d="M396.825,359.292l0.086-0.086c0.453-0.146,5.152-1.703,8.832-4.501
							c0.065-0.049,0.078-0.142,0.029-0.206c-0.05-0.065-0.142-0.076-0.206-0.029c-3.809,2.896-8.728,4.451-8.777,4.466
							l-0.257,0.252c0.188-0.066,0.301-0.111,0.301-0.111S396.823,359.162,396.825,359.292z"/>
						<path style="fill:#A45B68;" d="M395.469,356.218c0.057-0.017,5.828-1.678,9.667-5.028c0.061-0.053,0.067-0.146,0.014-0.208
							c-0.053-0.061-0.146-0.067-0.208-0.014c-3.788,3.306-9.496,4.951-9.548,4.965l-0.997,0.242
							c0.327,0.015,0.673-0.012,1.032-0.099c0,0-0.286,0.133-0.69,0.319L395.469,356.218z"/>
					</g>
					<path style="fill:#FFDEB6;" d="M338.241,276.088c-2.155-0.752-3.527-1.26-3.527-1.26l-4.84,9.575c0,0,1.402,0.853,3.752,2.133
						L338.241,276.088z"/>
					<path style="fill:#FFDEB6;" d="M416.078,335.395c-1.217,1.185-2.525,2.309-3.954,3.339l8.278,8.839
						c0,0,1.239-0.846,3.176-2.366L416.078,335.395z"/>
					<path style="fill:#D18D2D;" d="M420.401,347.573c0,0,9.52-4.27,13.581-0.995c0,0,0,0,0,0c0.214-6.611,1.01-11.983,1.01-11.983
						C427.837,342.522,420.401,347.573,420.401,347.573z"/>
					<path style="fill:#DB892D;" d="M417.585,304.094c2.826,0.192,5.733,0.375,8.429-0.496c-0.42,1.341-1.978,1.93-3.365,2.154
						c-3.46,0.559-7.098-0.045-10.193-1.692c-0.805-0.428-1.593-0.944-2.181-1.646C411.219,302.312,416.194,304,417.585,304.094z"/>
					<g>
						<path style="fill:#D34F38;" d="M416.634,274.366c1.493,4.127,0.625,8.702-0.448,12.957c-1.073,4.256-2.347,8.636-1.614,12.964
							c2.984,0.448,6.02,0.004,8.754-1.274c-0.682-2.656-0.637-5.577,0.135-8.209c0.421-1.435,1.049-2.801,1.522-4.22
							c1.531-4.593,1.358-9.732-0.478-14.211C422.003,272.849,419.136,273.89,416.634,274.366z"/>
						<path style="fill:#BA4A38;" d="M425.724,276.766c-0.145-0.88-0.33-1.753-0.588-2.606c-0.071-0.003-0.141-0.003-0.209-0.001
							c-2.696,0.102-5.369,0.745-7.821,1.87c0.346,1.62,0.389,3.291,0.248,4.97c0.856-0.857,1.768-1.632,2.865-2.144
							c1.095-0.511,2.301-0.727,3.449-1.105C424.318,277.536,425.094,277.218,425.724,276.766z"/>
						<path style="fill:#D34F38;" d="M421.266,265.755c0.846-0.329,4.24-1.43,5.15-1.129c1.667,0.552,3.247,1.365,4.665,2.4
							c0.43,0.314,0.863,0.672,1.052,1.169c0.163,0.43,0.122,0.912,0.009,1.358c-0.594,2.353-2.853,3.961-5.131,4.799
							c-25.038,9.21-37.642-6.417-38.603-7.775c-0.395-0.557-2.087-2.357-1.882-3.008c0.708-2.251,6.511-2.293,8.543-1.605
							C396.531,262.458,401.974,273.249,421.266,265.755z"/>
						<g>
							<path style="fill:#FFFFFF;" d="M409.157,268.392c0.137,2.905,0.17,5.828,0.093,8.735c0.277,0.022,0.557,0.04,0.84,0.055
								c0.078-2.934,0.046-5.885-0.092-8.817C409.714,268.378,409.43,268.391,409.157,268.392z"/>
							<path style="fill:#FFFFFF;" d="M401.807,266.994c-0.264-0.114-0.518-0.232-0.763-0.355c-1.096,2.485-1.86,5.138-2.269,7.828
								c0.26,0.118,0.53,0.231,0.8,0.345C399.963,272.127,400.714,269.474,401.807,266.994z"/>
							<path style="fill:#FFFFFF;" d="M391.284,269.622c0.206,0.184,0.425,0.372,0.653,0.562c1.308-2.384,2.822-4.77,4.808-6.677
								c-0.218-0.215-0.414-0.415-0.592-0.597C394.136,264.849,392.602,267.235,391.284,269.622z"/>
							<path style="fill:#FFFFFF;" d="M419.729,276.427c0.274-0.055,0.547-0.108,0.825-0.17c-0.626-3.145-1.54-6.355-3.278-9.155
								c-0.283,0.081-0.566,0.163-0.842,0.236C418.189,270.073,419.102,273.279,419.729,276.427z"/>
							<path style="fill:#FFFFFF;" d="M428.605,273.623c0.249-0.137,0.489-0.287,0.725-0.444c-1.405-3.14-3.611-5.91-6.354-7.99
								c-0.362,0.107-0.702,0.215-0.991,0.311C424.872,267.549,427.179,270.387,428.605,273.623z"/>
						</g>
						<g>
							<path style="fill:#FFFFFF;" d="M414.453,295.767c-0.028,0.311-0.051,0.622-0.065,0.934c2.676-1.126,5.56-1.763,8.464-1.864
								c0.006-0.281,0.021-0.562,0.041-0.842C420.006,294.086,417.134,294.692,414.453,295.767z"/>
							<path style="fill:#FFFFFF;" d="M417.215,282.265c-0.041,0.306-0.086,0.612-0.137,0.918c2.835-0.82,5.862-0.957,8.759-0.391
								c0.036-0.279,0.057-0.559,0.082-0.839C423.044,281.404,420.044,281.509,417.215,282.265z"/>
							<path style="fill:#FFFFFF;" d="M415.871,288.565c-0.078,0.304-0.153,0.609-0.23,0.915c2.689-0.573,5.524-0.495,8.182,0.223
								c0.095-0.264,0.194-0.526,0.294-0.788C421.443,288.18,418.594,288.052,415.871,288.565z"/>
						</g>
					</g>
				</g>
			</g>
		</g>
	</g>
</g>
</svg>
