<?xml version="1.0" encoding="utf-8"?>
<!-- Generator: Adobe Illustrator 27.5.0, SVG Export Plug-In . SVG Version: 6.00 Build 0)  -->
<svg version="1.1" xmlns="http://www.w3.org/2000/svg" xmlns:xlink="http://www.w3.org/1999/xlink" x="0px" y="0px"
	 viewBox="0 0 750 500" style="enable-background:new 0 0 750 500;" xml:space="preserve">
<g id="BACKGROUND">
	<g>
		
		<rect x="1.036" y="417.417" style="fill:#C2C5FF;" width="747.927" height="82.583"/>
		<path style="fill:#FFF5AA;" d="M370.912,259.42c10.861-42.823-15.094-86.838-57.818-98.084c-12.24-3.222-24.564-3.458-36.201-1.16
			c-13.78,2.722-28.049,0.21-39.915-7.305c-5.22-3.306-11.028-5.88-17.32-7.542c-22.677-5.99-45.737,1.417-60.794,17.335
			c-9.784,10.343-23.366,16.348-37.602,16.574c-26.464,0.421-50.936,17.933-58.587,45.069
			c-9.267,32.864,10.175,67.398,43.093,76.471c7.263,2.002,14.575,2.624,21.658,2.026c20.603-1.738,40.879,6.782,53.471,23.182
			c8.044,10.476,19.49,18.468,33.249,22.102c21.075,5.566,42.483-0.437,57.49-14.09c8.504-7.737,19.102-12.75,30.516-14.123
			C334.349,316.001,362.435,292.845,370.912,259.42z"/>
		<path style="fill:#FFF5AA;" d="M699.535,204.971c10.86-42.823-15.094-86.838-57.818-98.084
			c-12.24-3.222-24.564-3.458-36.201-1.159c-13.78,2.722-28.049,0.211-39.915-7.305c-5.22-3.306-11.028-5.88-17.32-7.542
			c-22.677-5.989-45.737,1.417-60.794,17.335c-9.784,10.343-23.366,16.348-37.602,16.574c-26.464,0.421-50.935,17.933-58.587,45.069
			c-9.267,32.864,10.175,67.398,43.093,76.471c7.263,2.002,14.575,2.624,21.658,2.026c20.603-1.738,40.879,6.782,53.471,23.182
			c8.044,10.476,19.49,18.468,33.249,22.102c21.075,5.566,42.483-0.437,57.49-14.09c8.504-7.737,19.102-12.75,30.516-14.124
			C662.971,261.553,691.057,238.396,699.535,204.971z"/>
	</g>
</g>
<g id="OBJECTS">
	<g>
		<g>
			<g>
				<path style="fill:#C2C5FF;" d="M598.021,264.032c-1.272-6.079-2.027-12.224-2.338-18.39c-0.12-2.383-1.68-4.455-3.911-5.303
					l-4.201-1.598l3.915-1.253c2.383-0.763,4.09-2.903,4.219-5.402c0.276-5.327,0.857-10.645,1.749-15.928
					c0.112-0.664,0.217-1.333,0.316-2.007c0.289-1.973-1.108-3.802-3.091-4.017l-8.161-0.888l10.99-8.818
					c0.845-0.678,1.342-1.715,1.319-2.798c-0.444-20.965-7.952-37.188-18.853-38.374c-13.016-1.416-25.929,19.136-28.841,45.905
					c-0.219,2.009-0.375,3.997-0.471,5.955c-0.794,16.197-4.387,32.095-10.992,46.906c-2.677,6.002-4.957,12.742-6.741,20.008
					c-0.75,3.054,0.146,6.287,2.351,8.53l7.862,7.999l-8.123,2.802c-3.481,1.201-5.919,4.39-6.111,8.068
					c-1.879,36.022,9.88,65.428,27.829,67.381c19.327,2.103,38.501-28.415,42.826-68.163
					C601.172,289.853,600.498,275.87,598.021,264.032z"/>
				<path style="fill:#AAB2F7;" d="M567.424,247.778c-0.638-4.919-0.948-9.806-0.632-14.733c0.33-4.924,1.104-9.827,2.104-14.687
					c1.992-9.731,5.026-19.264,8.704-28.534c-2.116,4.52-3.988,9.158-5.656,13.87c-1.678,4.709-3.152,9.498-4.362,14.364
					c-1.189,4.87-2.12,9.818-2.623,14.841c-0.488,5.028-0.329,10.144,0.16,15.134c0.902,10.043,3.239,19.81,4.063,29.611
					c0.924,9.798,0.022,19.63-2.385,29.131c-4.938,19.286-9.844,38.734-13.413,58.443c-1.774,9.86-3.247,19.792-4.17,29.81
					c-0.429,5.012-0.717,10.044-0.774,15.096c-0.051,1.26-0.028,2.525,0.017,3.793l0.101,3.798c0.011,0.273,0.033,0.547,0.049,0.821
					c1.351,0.096,2.662,0.309,3.92,0.635c-0.344-7.877,0.065-15.842,0.839-23.76c0.929-9.85,2.39-19.674,4.163-29.447
					c1.803-9.768,3.75-19.523,5.944-29.231c2.16-9.728,4.567-19.355,6.905-29.102c2.29-9.882,3.01-20.218,1.841-30.282
					C571.126,267.275,568.667,257.583,567.424,247.778z"/>
			</g>
			<g>
				<g>
					<g>
						<path style="fill:#AAB2F7;" d="M202.563,348.377c0.713,6.508-0.181,20.633-19.789,26.121c0,0,1-16.69,16.36-27.655
							C200.484,345.88,202.383,346.728,202.563,348.377z"/>
						<path style="fill:#AAB2F7;" d="M110.419,264.176c13.307-10.716,39.018,36.382,54.01,46.779
							c14.992,10.397,10.21,33.616,10.21,33.616c-10.492-14.267-20.415-24.211-42.725-25.477S101.925,271.016,110.419,264.176z"/>
						<g>
							<path style="fill:#C2C5FF;" d="M121.342,279.28c10.789,7.891,20.842,16.819,29.974,26.641
								c4.527,4.947,8.825,10.124,12.667,15.656c0.988,1.363,1.873,2.799,2.807,4.201c0.864,1.448,1.778,2.867,2.566,4.363
								c1.671,2.935,3.099,6.015,4.37,9.16c1.279,3.15,2.208,6.428,2.923,9.794c0.593,3.332,1.029,6.66,1.397,10.004
								c0.732,6.683,1.081,13.405,1.093,20.129c-0.007,6.723-0.301,13.457-1.096,20.148c-0.826,6.687-2.073,13.324-3.787,19.855
								l-2.413-0.653c1.655-6.403,2.856-12.922,3.645-19.5c0.746-6.584,1.116-13.215,1.14-19.85
								c0.026-6.636-0.315-13.276-0.937-19.884c-0.324-3.3-0.717-6.605-1.255-9.858c-0.639-3.171-1.49-6.357-2.693-9.415
								c-1.195-3.06-2.546-6.073-4.146-8.964c-0.748-1.473-1.642-2.868-2.453-4.309c-0.889-1.396-1.728-2.824-2.674-4.187
								c-3.669-5.524-7.817-10.738-12.206-15.738c-4.397-4.996-9.03-9.796-13.868-14.388
								C131.548,287.901,126.582,283.428,121.342,279.28z"/>
						</g>
						<path style="fill:#AAB2F7;" d="M134.992,344.68c7.215,4.71,20.852,15.802,32.047,37.609c0,0-10.946,3.698-24.34-9.75
							c-8.518-8.552-11.357-18.659-12.295-24.884C130.017,345.089,132.82,343.261,134.992,344.68z"/>
						<g>
							<path style="fill:#C2C5FF;" d="M140.783,354.369c3.73,3.012,7.312,6.205,10.81,9.489c3.53,3.255,6.863,6.715,10.153,10.227
								c3.313,3.493,6.354,7.246,9.251,11.134c2.79,3.953,5.509,8.067,7.041,12.891l-2.37,0.794l-1.378-3.143
								c-0.559-1.019-1.134-2.028-1.675-3.054c-1.22-1.996-2.459-3.986-3.862-5.888c-2.677-3.887-5.667-7.58-8.7-11.247
								c-3.036-3.667-6.226-7.213-9.431-10.755C147.392,361.297,144.117,357.811,140.783,354.369z"/>
						</g>
						<g>
							<path style="fill:#C2C5FF;" d="M192.48,356.678l-3.859,7.625c-1.281,2.538-2.57,5.068-3.795,7.627
								c-1.21,2.564-2.398,5.138-3.475,7.747c-1.061,2.613-2.072,5.247-2.825,7.928l-1.611-0.425
								c0.734-2.82,1.769-5.514,2.906-8.151c1.12-2.645,2.407-5.205,3.737-7.736c1.32-2.537,2.721-5.027,4.204-7.467
								C189.236,361.382,190.795,358.987,192.48,356.678z"/>
						</g>
					</g>
					<path style="fill:#C2C5FF;" d="M146.016,375.567c0.589,0.488,1.172,0.949,1.747,1.375c3.285-0.556,10.594-1.512,14.186,0.244
						l0.732-1.497C157.847,373.327,147.82,375.202,146.016,375.567z"/>
					<path style="fill:#C2C5FF;" d="M138.185,367.172c0.364,0.512,0.746,1.022,1.143,1.53c3.832-0.497,11.13-1.153,15.293,0.337
						l0.561-1.569C150.265,365.708,141.771,366.655,138.185,367.172z"/>
					<path style="fill:none;stroke:#C2C5FF;stroke-width:0.8332;stroke-miterlimit:10;" d="M184.392,370.597
						c0,0,7.294-3.741,12.363-3.173"/>
					<path style="fill:none;stroke:#C2C5FF;stroke-width:0.8332;stroke-miterlimit:10;" d="M188.763,362.87
						c0,0,8.037-3.358,12.135-2.025"/>
				</g>
				<g>
					<path style="fill:#ACAFFA;" d="M140.357,219.091c6.293,5.034,7.596,13.862,7.596,13.862s-8.899,0.667-15.192-4.367
						c-6.293-5.034-9.694-11.24-7.596-13.862C127.263,212.102,134.064,214.057,140.357,219.091z"/>
					<path style="fill:#ACAFFA;" d="M154.033,239.496c5.432,2.758,7.755,9.091,7.755,9.091s-6.484,1.863-11.916-0.895
						c-5.432-2.758-8.904-6.828-7.755-9.092C143.266,236.337,148.601,236.738,154.033,239.496z"/>
					<path style="fill:#ACAFFA;" d="M160.539,232.845c1.845,5.806-1.039,11.904-1.039,11.904s-5.876-3.315-7.721-9.12
						c-1.845-5.806-1.38-11.136,1.039-11.904C155.237,222.956,158.694,227.04,160.539,232.845z"/>
					<path style="fill:#ACAFFA;" d="M162.375,252.853c6.988,2.274,10.937,9.39,10.937,9.39s-7.38,3.428-14.368,1.154
						c-6.988-2.274-11.884-6.478-10.937-9.39C148.955,251.095,155.387,250.579,162.375,252.853z"/>
					<path style="fill:#ACAFFA;" d="M175.535,246.506c1.44,7.206-2.829,14.134-2.829,14.134s-6.604-4.755-8.044-11.962
						c-1.44-7.206-0.173-13.534,2.829-14.134C170.494,233.944,174.096,239.3,175.535,246.506z"/>
					<path style="fill:#ACAFFA;" d="M167.898,268.18c7.323,0.608,12.802,6.625,12.802,6.625s-6.395,5.032-13.719,4.425
						c-7.323-0.608-13.055-3.574-12.802-6.625C154.433,269.553,160.575,267.572,167.898,268.18z"/>
					<path style="fill:#ACAFFA;" d="M175.476,285.231c7.836,0.312,13.953,6.478,13.953,6.478s-6.588,5.659-14.425,5.346
						c-7.836-0.312-14.084-3.213-13.953-6.478C161.181,287.312,167.639,284.918,175.476,285.231z"/>
					<path style="fill:#ACAFFA;" d="M182.237,302.215c7.827-0.487,14.54,5.024,14.54,5.024s-5.978,6.3-13.806,6.787
						c-7.827,0.487-14.337-1.763-14.54-5.024C168.228,305.74,174.409,302.701,182.237,302.215z"/>
					<path style="fill:#ACAFFA;" d="M189.88,321.545c7.801,0.806,13.517,7.345,13.517,7.345s-6.932,5.232-14.733,4.426
						c-7.801-0.806-13.853-4.094-13.517-7.345S182.079,320.739,189.88,321.545z"/>
					<path style="fill:#ACAFFA;" d="M181.473,259.805c-3.468,6.479-1.392,14.347-1.392,14.347s7.699-2.635,11.167-9.114
						c3.468-6.479,4.091-12.902,1.392-14.347C189.941,249.246,184.941,253.326,181.473,259.805z"/>
					<path style="fill:#ACAFFA;" d="M193.597,277.105c-4.98,6.059-4.445,14.728-4.445,14.728s8.608-1.155,13.587-7.214
						c4.98-6.059,6.97-12.653,4.445-14.728C204.66,267.817,198.576,271.047,193.597,277.105z"/>
					<path style="fill:#ACAFFA;" d="M201.78,293.452c-5.57,5.521-5.921,14.199-5.921,14.199s8.681-0.273,14.251-5.794
						c5.57-5.521,8.221-11.878,5.921-14.199C213.731,285.337,207.351,287.931,201.78,293.452z"/>
					<path style="fill:#ACAFFA;" d="M206.401,314.137c-4.588,6.361-3.508,14.979-3.508,14.979s8.518-1.696,13.106-8.056
						s6.158-13.067,3.508-14.978C216.856,304.169,210.988,307.776,206.401,314.137z"/>
					<path style="fill:#ACAFFA;" d="M196.11,341.688c7.467,2.397,11.712,9.974,11.712,9.974s-7.862,3.69-15.329,1.293
						c-7.467-2.397-12.711-6.863-11.712-9.974C181.78,339.869,188.643,339.29,196.11,341.688z"/>
					<path style="fill:#ACAFFA;" d="M213.803,337.846c-5.801,5.278-6.521,13.933-6.521,13.933s8.685,0.097,14.485-5.181
						c5.801-5.278,8.72-11.516,6.521-13.933C226.089,330.248,219.604,332.568,213.803,337.846z"/>
					<path style="fill:#ACAFFA;" d="M199.255,363.257c7.236,3.024,10.821,10.934,10.821,10.934s-8.147,3.008-15.384-0.016
						c-7.236-3.024-12.081-7.919-10.821-10.935C185.131,360.226,192.018,360.233,199.255,363.257z"/>
					<path style="fill:#ACAFFA;" d="M217.211,360.935c-6.229,4.766-7.683,13.328-7.683,13.328s8.645,0.836,14.873-3.93
						c6.229-4.766,9.668-10.733,7.683-13.328C230.098,354.409,223.439,356.169,217.211,360.935z"/>
					<g>
						<path style="fill:#ACAFFA;" d="M140.988,226.329c0.378,0.249,9.399,6.26,21.072,19.767
							c10.746,12.434,25.797,33.82,36.476,65.094c15.767,46.172,13.791,89.394,12.028,106.947c-0.767,0.071-1.52,0.181-2.257,0.328
							c1.755-16.961,3.943-60.261-11.867-106.559c-20.187-59.117-56.308-83.488-56.67-83.727L140.988,226.329z"/>
					</g>
				</g>
			</g>
		</g>
		<g>
			<path style="fill:#5046AF;" d="M502.399,417.291c0,2.692-61.49,4.875-137.342,4.875s-137.342-2.182-137.342-4.875H502.399z"/>
			<g>
				<path style="fill:#41389C;" d="M347.727,347.77v59.527h53.352V347.77H347.727z M374.403,378.383L374.403,378.383
					c-6.748,0-12.219-5.47-12.219-12.219v-17.807h24.437v17.807C386.621,372.913,381.151,378.383,374.403,378.383z"/>
				<path style="fill:#5046AF;" d="M347.727,358.116v59.527h53.352v-59.527H347.727z M374.403,388.729L374.403,388.729
					c-6.748,0-12.219-5.47-12.219-12.219v-17.807h24.437v17.807C386.621,383.259,381.151,388.729,374.403,388.729z"/>
				<polygon style="fill:#41389C;" points="362.184,369.013 362.184,358.704 386.621,358.704 386.621,369.013 401.079,369.013 
					401.079,358.116 347.727,358.116 347.727,369.013 				"/>
				<rect x="313.702" y="402.082" style="fill:#5046AF;" width="121.402" height="17.972"/>
				<path style="fill:#5046AF;" d="M535.547,358.704H214.368c-8.767,0-15.874-7.107-15.874-15.874V139.427
					c0-8.767,7.107-15.874,15.874-15.874h321.179c8.767,0,15.874,7.107,15.874,15.874V342.83
					C551.421,351.597,544.314,358.704,535.547,358.704z"/>
				<rect x="211.605" y="137.714" style="fill:#C2C5FF;" width="326.705" height="204.954"/>
				<rect x="211.605" y="323.075" style="fill:#A4AAFF;" width="326.705" height="19.592"/>
				<linearGradient id="SVGID_1_" gradientUnits="userSpaceOnUse" x1="366.0594" y1="149.9968" x2="232.6389" y2="282.056">
					<stop  offset="0" style="stop-color:#FFFFFF"/>
					<stop  offset="1" style="stop-color:#FFFFFF;stop-opacity:0"/>
				</linearGradient>
				<polygon style="opacity:0.51;fill:url(#SVGID_1_);" points="322.317,146.192 216.874,251.635 216.874,344.535 217.102,344.535 
					415.445,146.192 				"/>
				
					<linearGradient id="SVGID_00000046307730184190975120000012289403175532404364_" gradientUnits="userSpaceOnUse" x1="417.8843" y1="202.3561" x2="284.4637" y2="334.4154">
					<stop  offset="0" style="stop-color:#FFFFFF"/>
					<stop  offset="1" style="stop-color:#FFFFFF;stop-opacity:0"/>
				</linearGradient>
				<polygon style="opacity:0.51;fill:url(#SVGID_00000046307730184190975120000012289403175532404364_);" points="246.342,344.535 
					304.182,344.535 502.525,146.192 444.685,146.192 				"/>
				<polygon style="opacity:0.51;fill:#FFFFFF;" points="499.881,342.667 538.31,304.239 538.31,244.471 440.114,342.667 				"/>
				<rect x="211.169" y="336.713" style="fill:#5046AF;" width="329.668" height="13.398"/>
				<path style="fill:#32285F;" d="M533.106,345.965c0,3.113-2.523,5.636-5.636,5.636s-5.636-2.523-5.636-5.636
					c0-3.112,2.523-5.636,5.636-5.636S533.106,342.852,533.106,345.965z"/>
				<path style="fill:#32285F;" d="M514.775,347.535c0,2.245-1.82,4.066-4.066,4.066c-2.245,0-4.066-1.82-4.066-4.066
					c0-2.246,1.82-4.066,4.066-4.066C512.955,343.469,514.775,345.289,514.775,347.535z"/>
			</g>
			<rect x="211.605" y="137.714" style="fill:#A4AAFF;" width="326.705" height="9.725"/>
		</g>
		<g>
			<rect x="238.01" y="113.956" style="fill:#FFFFFF;" width="271.18" height="223.353"/>
			<path style="fill:#32285F;" d="M509.19,113.956H238.01V96.469c0-5.523,4.477-10,10-10h251.18c5.523,0,10,4.477,10,10V113.956z"/>
			<path style="fill:#DC1428;" d="M500.5,108.598h-13.282c-1.049,0-1.899-0.85-1.899-1.899V93.417c0-1.049,0.85-1.899,1.899-1.899
				H500.5c1.049,0,1.899,0.85,1.899,1.899v13.282C502.399,107.748,501.549,108.598,500.5,108.598z"/>
			<polygon style="fill:#39AE96;" points="372.904,309.118 252.158,309.118 252.158,218.365 373.112,218.365 			"/>
			<rect x="372.904" y="218.365" style="fill:#C2C5FF;" width="121.163" height="90.753"/>
			<rect x="252.158" y="127.613" style="fill:#A0DCFF;" width="120.955" height="90.753"/>
			<rect x="372.904" y="127.613" style="fill:#FFF5AA;" width="121.163" height="90.753"/>
			<g>
				<defs>
					
						<rect id="SVGID_00000091006575196215938930000000643520545447320254_" x="252.158" y="127.613" width="120.955" height="90.753"/>
				</defs>
				<clipPath id="SVGID_00000069396660938605640080000007889020148105400718_">
					<use xlink:href="#SVGID_00000091006575196215938930000000643520545447320254_"  style="overflow:visible;"/>
				</clipPath>
				<g style="clip-path:url(#SVGID_00000069396660938605640080000007889020148105400718_);">
					<g>
						<path style="fill:#823214;" d="M291.181,164.722c0,0,3.91,19.566-7.067,27.026c-4.602,3.128-18.413,6.866-15.538,13.533
							c2.255,5.23,11.622,0,11.622,0s-13.295,8.943-8.614,18.265c3.766,7.502,24.841,5.985,34.224,0
							c9.383-5.985,7.021-63.876,7.021-63.876L291.181,164.722z"/>
						<path style="fill:#823214;" d="M331.003,164.722c0,0-3.91,19.566,7.067,27.026c4.602,3.128,18.413,6.866,15.538,13.533
							c-2.255,5.23-11.622,0-11.622,0s13.295,8.943,8.614,18.265c-3.767,7.502-24.841,5.985-34.224,0
							c-9.382-5.985-7.021-63.876-7.021-63.876L331.003,164.722z"/>
						<path style="fill:#0091C8;" d="M341.588,230.885c-18.918,2.608-38.235,2.661-57.979-0.01
							c-1.948-0.264-3.411-1.911-3.411-3.877v0c0-14.973,12.138-27.112,27.112-27.112h10.575c14.973,0,27.112,12.138,27.112,27.112
							v0C344.996,228.965,343.537,230.616,341.588,230.885z"/>
						<path style="fill:#FFFFFF;" d="M307.261,223.668h10.229c5.678,0,10.385-4.358,10.868-10.015
							c0.318-3.725,0.721-7.445,1.145-11.154c-3.522-1.673-7.46-2.612-11.618-2.612H307.31c-4.893,0-9.48,1.303-13.443,3.571
							c1.065,3.204,1.858,6.496,2.432,9.826c0.069,0.401,0.135,0.802,0.199,1.203C297.335,219.778,301.904,223.668,307.261,223.668z
							"/>
						<path style="fill:#FFAF82;" d="M323.869,204.234c0,3.855-5.455,8.725-12.185,8.725c-6.729,0-12.185-4.87-12.185-8.725
							c0-3.855,5.455-6.98,12.185-6.98C318.414,197.254,323.869,200.379,323.869,204.234z"/>
						<g>
							<path style="fill:#FFAF82;" d="M320.348,205.103c-5.553,2.307-11.107,2.307-16.661,0c-1.427-0.592-2.349-1.999-2.349-3.544
								v-7.596h21.358v7.596C322.697,203.104,321.774,204.511,320.348,205.103z"/>
							<path style="fill:#FF9669;" d="M322.697,199.499c-6.132,3.401-14.365,4.009-21.358,0v-5.536h21.358V199.499z"/>
						</g>
						<path style="fill:#FF9669;" d="M296.012,177.003c0,2.518-3.608,4.559-6.126,4.559s-4.559-2.041-4.559-4.559
							s2.041-4.559,4.559-4.559S296.012,174.485,296.012,177.003z"/>
						<path style="fill:#FF7350;" d="M294.605,177.003c0,0.927-1.329,1.679-2.256,1.679c-0.927,0-1.679-0.752-1.679-1.679
							s0.752-1.679,1.679-1.679C293.276,175.324,294.605,176.075,294.605,177.003z"/>
						<path style="fill:#FF9669;" d="M326.87,177.003c0,2.518,3.608,4.559,6.126,4.559s4.559-2.041,4.559-4.559
							s-2.041-4.559-4.559-4.559S326.87,174.485,326.87,177.003z"/>
						<path style="fill:#FF7350;" d="M328.277,177.003c0,0.927,1.329,1.679,2.256,1.679c0.927,0,1.679-0.752,1.679-1.679
							s-0.752-1.679-1.679-1.679C329.606,175.324,328.277,176.075,328.277,177.003z"/>
						<path style="fill:#FFAF82;" d="M311.252,198.613L311.252,198.613c-9.703,0-17.569-7.866-17.569-17.568v-20.029
							c8.999-6.227,24.351-8.303,35.137,0v20.029C328.821,190.748,320.955,198.613,311.252,198.613z"/>
						<path style="fill:#823214;" d="M311.047,178.511c-1.597,0-2.891-0.863-2.891-1.927c0-0.292,0.1-0.568,0.275-0.816
							c-0.674,0.353-1.109,0.9-1.109,1.516c0,1.064,1.294,1.927,2.891,1.927c1.159,0,2.155-0.455,2.616-1.111
							C312.337,178.357,311.72,178.511,311.047,178.511z"/>
						<path style="fill:#32285F;" d="M305.807,182.056c0.507,2.544,2.751,4.462,5.445,4.462c2.693,0,4.938-1.918,5.445-4.462
							H305.807z"/>
						<g>
							<path style="fill:#823214;" d="M302.106,174.201c0,0.953-0.441,1.725-0.986,1.725c-0.544,0-0.986-0.772-0.986-1.725
								c0-0.952,0.441-1.725,0.986-1.725C301.664,172.476,302.106,173.248,302.106,174.201z"/>
							<g>
								<path style="fill:#823214;" d="M299.202,170.747l-0.85-0.608c0.613-0.856,1.576-1.346,2.643-1.346c0,0,0.001,0,0.001,0
									c1.067,0,2.029,0.491,2.641,1.346l-0.849,0.608c-0.414-0.578-1.067-0.909-1.792-0.909c0,0,0,0-0.001,0
									C300.27,169.837,299.616,170.169,299.202,170.747z"/>
							</g>
						</g>
						<g>
							<path style="fill:#823214;" d="M322.697,174.201c0,0.953-0.441,1.725-0.986,1.725c-0.544,0-0.986-0.772-0.986-1.725
								c0-0.952,0.441-1.725,0.986-1.725C322.255,172.476,322.697,173.248,322.697,174.201z"/>
							<g>
								<path style="fill:#823214;" d="M319.793,170.747l-0.849-0.608c0.613-0.856,1.576-1.346,2.643-1.346c0,0,0,0,0.001,0
									c1.067,0,2.029,0.491,2.642,1.346l-0.849,0.608c-0.414-0.578-1.067-0.909-1.793-0.91h0
									C320.861,169.837,320.207,170.169,319.793,170.747z"/>
							</g>
						</g>
						<g>
							<path style="fill:#FF9669;" d="M298.138,181.166c0,0.218-0.177,0.395-0.395,0.395s-0.395-0.177-0.395-0.395
								c0-0.218,0.177-0.395,0.395-0.395S298.138,180.948,298.138,181.166z"/>
							<path style="fill:#FF9669;" d="M300.608,181.166c0,0.218-0.177,0.395-0.395,0.395c-0.218,0-0.395-0.177-0.395-0.395
								c0-0.218,0.177-0.395,0.395-0.395C300.431,180.771,300.608,180.948,300.608,181.166z"/>
							<path style="fill:#FF9669;" d="M303.078,181.166c0,0.218-0.177,0.395-0.395,0.395s-0.395-0.177-0.395-0.395
								c0-0.218,0.177-0.395,0.395-0.395S303.078,180.948,303.078,181.166z"/>
							<path style="fill:#FF9669;" d="M299.305,183.077c0,0.218-0.177,0.395-0.395,0.395c-0.218,0-0.395-0.177-0.395-0.395
								c0-0.218,0.177-0.395,0.395-0.395C299.128,182.682,299.305,182.859,299.305,183.077z"/>
							<path style="fill:#FF9669;" d="M301.786,183.077c0,0.218-0.177,0.395-0.395,0.395c-0.218,0-0.395-0.177-0.395-0.395
								c0-0.218,0.177-0.395,0.395-0.395C301.609,182.682,301.786,182.859,301.786,183.077z"/>
						</g>
						<g>
							<path style="fill:#FF9669;" d="M319.643,181.166c0,0.218-0.177,0.395-0.395,0.395s-0.395-0.177-0.395-0.395
								c0-0.218,0.177-0.395,0.395-0.395S319.643,180.948,319.643,181.166z"/>
							<path style="fill:#FF9669;" d="M322.112,181.166c0,0.218-0.177,0.395-0.395,0.395s-0.395-0.177-0.395-0.395
								c0-0.218,0.177-0.395,0.395-0.395S322.112,180.948,322.112,181.166z"/>
							<path style="fill:#FF9669;" d="M324.582,181.166c0,0.218-0.177,0.395-0.395,0.395c-0.218,0-0.395-0.177-0.395-0.395
								c0-0.218,0.177-0.395,0.395-0.395C324.405,180.771,324.582,180.948,324.582,181.166z"/>
							<path style="fill:#FF9669;" d="M320.81,183.077c0,0.218-0.177,0.395-0.395,0.395c-0.218,0-0.395-0.177-0.395-0.395
								c0-0.218,0.177-0.395,0.395-0.395C320.633,182.682,320.81,182.859,320.81,183.077z"/>
							<path style="fill:#FF9669;" d="M323.29,183.077c0,0.218-0.177,0.395-0.395,0.395s-0.218-0.79,0-0.79
								S323.29,182.859,323.29,183.077z"/>
						</g>
						<path style="fill:#FF9669;" d="M328.877,158.111c-3.747-5.764-10.237-9.578-17.625-9.578c-7.376,0-13.858,3.802-17.608,9.551
							v10.134c11.061,0.528,21.816,0.648,26.143-7.791c0.738,4.402,4.548,7.627,9.012,7.627h0.077V158.111z"/>
						<path style="fill:#823214;" d="M332.212,166.494c-0.769-10.909-9.856-19.521-20.96-19.521
							c-11.105,0-20.191,8.613-20.96,19.521c12.177,0.58,24.732,1.664,29.495-7.627l0,0c0.738,4.402,4.548,7.627,9.012,7.627
							H332.212z"/>
						<g>
							<defs>
								<path id="SVGID_00000013154028855341413450000009699673942282606268_" d="M305.807,182.056
									c0.507,2.544,2.751,4.462,5.445,4.462c2.693,0,4.938-1.918,5.445-4.462H305.807z"/>
							</defs>
							<clipPath id="SVGID_00000058585894863722679870000004349299152686602380_">
								<use xlink:href="#SVGID_00000013154028855341413450000009699673942282606268_"  style="overflow:visible;"/>
							</clipPath>
							<path style="clip-path:url(#SVGID_00000058585894863722679870000004349299152686602380_);fill:#FF7350;" d="M314.113,187.246
								c0,1.634-1.325,2.959-2.959,2.959c-1.634,0-2.959-1.325-2.959-2.959c0-1.634,1.325-2.959,2.959-2.959
								C312.788,184.288,314.113,185.612,314.113,187.246z"/>
						</g>
						<path style="fill:#823214;" d="M311.745,147.891c0,0-3.524-3.308-2.604-3.939c1.018-0.698,2.376,1.85,2.376,1.85
							s-0.359-3.881,0.947-3.722c1.306,0.159,0.391,3.577,0.391,3.577s1.092-0.421,1.588-0.023S311.745,147.891,311.745,147.891z"/>
						<path style="fill:#FF9669;" d="M314.634,190.434c0,0.698-6.764,0.698-6.764,0s1.514-1.263,3.382-1.263
							C313.12,189.171,314.634,189.736,314.634,190.434z"/>
					</g>
					<g>
						
							<line style="fill:none;stroke:#FFDC64;stroke-width:1.5862;stroke-miterlimit:10;" x1="281.862" y1="143.995" x2="281.862" y2="167.052"/>
						<g>
							<path style="fill:#0073D6;" d="M335.039,130.096l-31.953-10.77c-1.539-0.519-3.239-0.129-4.398,1.009l-24.064,23.621
								c-2.296,2.253-1.405,6.136,1.643,7.164l12.575,4.239c0.215-0.01,0.431-0.018,0.647-0.018h1.54
								c2.734-7.732,10.707-13.475,18.961-13.475c6.102,0,11.336,2.726,14.914,6.956l11.778-11.561
								C338.978,135.006,338.087,131.123,335.039,130.096z"/>
							<path style="fill:#1732D7;" d="M299.403,145.059c-4.121-7.409-4.876-16.465-1.509-23.945l-16.118,15.821l-7.151,7.02
								c-2.296,2.253-1.405,6.136,1.643,7.163l13.764,4.657C290.247,155.765,295.585,147.483,299.403,145.059z"/>
							<path style="fill:#1732D7;" d="M286.958,145.254c-0.621-2.708,7.096-6.79,17.238-9.116
								c10.142-2.327,18.867-2.017,19.488,0.691c0.621,2.708-7.096,6.79-17.238,9.116
								C296.304,148.272,287.579,147.962,286.958,145.254z"/>
							<path style="fill:#1732D7;" d="M308.367,154.318c7.721-1.771,14.621-2.015,17.749-0.835c0.653,0.246,1.314-0.324,1.158-1.004
								l-3.668-15.99l-36.726,8.425l3.668,15.99c0.156,0.68,1,0.905,1.48,0.399C294.329,158.877,300.646,156.089,308.367,154.318z"
								/>
						</g>
						<path style="fill:#FFDC64;" d="M284.629,179.128h-5.534v-10.951c0-1.528,1.239-2.767,2.767-2.767l0,0
							c1.528,0,2.767,1.239,2.767,2.767V179.128z"/>
						<path style="fill:#FFDC64;" d="M283.707,164.373c0,1.019-0.826,1.845-1.845,1.845c-1.019,0-1.845-0.826-1.845-1.845
							s0.826-1.845,1.845-1.845C282.881,162.528,283.707,163.354,283.707,164.373z"/>
					</g>
				</g>
			</g>
			<g>
				<defs>
					
						<rect id="SVGID_00000081639797614969196810000001554602840334977173_" x="372.904" y="127.613" width="121.163" height="90.753"/>
				</defs>
				<clipPath id="SVGID_00000034051022699033208280000014730448830337089211_">
					<use xlink:href="#SVGID_00000081639797614969196810000001554602840334977173_"  style="overflow:visible;"/>
				</clipPath>
				<g style="clip-path:url(#SVGID_00000034051022699033208280000014730448830337089211_);">
					<g>
						<path style="fill:#32285F;" d="M415.129,160.26c0,0,2.881,12.843-4.625,25.592c-5.132,8.718-16.717,15.645-23.831,13.935
							c-0.587,3.671,3.813,6.882,11.741,4.641c0,0-3.315,6.375-10.707,6.562c0,0,1.526,11.034,19.476,12.409
							c16.52,1.265,52.133,5.821,58.003-7.584c11.682-26.678-9.775-30.514-8.908-62.161L415.129,160.26z"/>
						<path style="fill:#39AE96;" d="M465.835,228.005c-18.16,2.825-38.057,2.382-59.064-0.151
							c-1.956-0.236-3.422-1.908-3.422-3.878l0,0c0-15.237,12.352-27.588,27.588-27.588h10.761
							c15.237,0,27.588,12.352,27.588,27.588l0,0C469.287,225.987,467.822,227.697,465.835,228.005z"/>
						<path style="fill:#FFFFFF;" d="M426.814,192.911c-3.674,0.824-5.534,4.932-3.662,8.199l9.437,16.472
							c1.734,3.836,6.361,3.658,7.889-0.303l7.897-16.534c1.531-3.206-0.306-6.976-3.76-7.811
							C438.912,191.554,432.982,191.527,426.814,192.911z"/>
						<path style="fill:#FFAF82;" d="M425.305,199.906l0.36,0.663c4.502,8.278,16.513,7.895,20.479-0.653l0,0L425.305,199.906z"/>
						<path style="fill:#FFA50A;" d="M422.486,163.176v-19.044v1.758c-4.063,0-7.357,3.294-7.357,7.357v9.93H422.486z"/>
						<g>
							<path style="fill:#FFAF82;" d="M444.205,201.697c-5.651,2.347-11.302,2.347-16.953,0c-1.452-0.603-2.39-2.034-2.39-3.606
								v-7.729h21.734v7.729C446.595,199.663,445.657,201.094,444.205,201.697z"/>
							<path style="fill:#FF9669;" d="M446.595,195.995c-6.24,3.461-14.617,4.079-21.734,0v-5.633h21.734V195.995z"/>
						</g>
						<path style="fill:#FF9669;" d="M419.442,173.102c0,2.562-3.672,4.639-6.234,4.639c-2.562,0-4.639-2.077-4.639-4.639
							c0-2.562,2.077-4.639,4.639-4.639C415.77,168.463,419.442,170.54,419.442,173.102z"/>
						<path style="fill:#FF7350;" d="M418.01,173.102c0,0.944-1.352,1.709-2.296,1.709s-1.709-0.765-1.709-1.709
							c0-0.944,0.765-1.709,1.709-1.709S418.01,172.158,418.01,173.102z"/>
						<path style="fill:#FF9669;" d="M450.842,173.102c0,2.562,3.672,4.639,6.234,4.639c2.562,0,4.639-2.077,4.639-4.639
							c0-2.562-2.077-4.639-4.639-4.639C454.514,168.463,450.842,170.54,450.842,173.102z"/>
						<path style="fill:#FF7350;" d="M452.273,173.102c0,0.944,1.353,1.709,2.296,1.709c0.944,0,1.709-0.765,1.709-1.709
							c0-0.944-0.765-1.709-1.709-1.709C453.626,171.393,452.273,172.158,452.273,173.102z"/>
						<path style="fill:#FFAF82;" d="M435.084,195.093L435.084,195.093c-9.874,0-17.878-8.004-17.878-17.877v-30.077h35.755v30.077
							C452.961,187.089,444.957,195.093,435.084,195.093z"/>
						<path style="fill:#823214;" d="M434.741,174.637c-1.625,0-2.942-0.878-2.942-1.961c0-0.297,0.102-0.578,0.279-0.83
							c-0.686,0.359-1.128,0.916-1.128,1.542c0,1.083,1.317,1.961,2.942,1.961c1.179,0,2.193-0.463,2.662-1.131
							C436.054,174.48,435.425,174.637,434.741,174.637z"/>
						<path style="fill:#FFFFFF;" d="M429.275,177.566c0.516,2.589,2.8,4.541,5.54,4.541c2.741,0,5.024-1.951,5.54-4.541H429.275z"
							/>
						<path style="fill:#AFE6FF;" d="M440.175,178.23c0.072-0.217,0.135-0.437,0.181-0.664h-11.081
							c0.045,0.227,0.109,0.448,0.181,0.664H440.175z"/>
						<g>
							<g>
								<path style="fill:#823214;" d="M422.255,170.508c-0.107,0-0.215-0.033-0.309-0.1c-0.239-0.171-0.294-0.503-0.123-0.742
									c0.624-0.871,1.604-1.37,2.69-1.37c0,0,0,0,0.001,0c1.085,0,2.065,0.499,2.688,1.37c0.171,0.238,0.115,0.571-0.123,0.741
									c-0.239,0.172-0.57,0.116-0.742-0.123c-0.421-0.588-1.085-0.925-1.823-0.925c-0.001,0-0.001,0-0.001,0
									c-0.739,0-1.404,0.337-1.825,0.926C422.584,170.431,422.421,170.508,422.255,170.508z"/>
							</g>
						</g>
						<g>
							<g>
								<path style="fill:#823214;" d="M443.208,170.508c-0.107,0-0.215-0.033-0.309-0.1c-0.239-0.171-0.294-0.503-0.123-0.742
									c0.614-0.858,1.62-1.37,2.69-1.37c0.001,0,0.001,0,0.001,0c1.086,0,2.066,0.499,2.689,1.37
									c0.171,0.238,0.115,0.571-0.123,0.741c-0.24,0.172-0.57,0.116-0.742-0.123c-0.421-0.588-1.085-0.925-1.824-0.925h-0.001
									c-0.739,0-1.404,0.337-1.825,0.926C443.537,170.431,443.374,170.508,443.208,170.508z"/>
							</g>
						</g>
						<path style="fill:#32285F;" d="M452.6,172.006l-0.073-14.07c-0.01-1.979-0.795-3.872-2.191-5.275
							c-0.719-0.723-1.516-1.566-2.223-2.415l0.81-6.114l0,0c0.665,0,4.788,4.769,5.338,4.452c1.626-0.936,2.202,0.631,2.019,2.904
							v16.84C456.278,170.359,454.632,172.006,452.6,172.006z"/>
						<g>
							<defs>
								<path id="SVGID_00000132785520237271488040000006138971438773314954_" d="M435.084,195.093L435.084,195.093
									c-9.874,0-17.878-8.004-17.878-17.877v-30.077h35.755v30.077C452.961,187.089,444.957,195.093,435.084,195.093z"/>
							</defs>
							<clipPath id="SVGID_00000130627050327008362480000013194823992898265734_">
								<use xlink:href="#SVGID_00000132785520237271488040000006138971438773314954_"  style="overflow:visible;"/>
							</clipPath>
							<path style="clip-path:url(#SVGID_00000130627050327008362480000013194823992898265734_);fill:#FF9669;" d="M449.896,146.729
								c-1.212-6.406-23.666-9.407-32.689-3.114c-9.316,6.498-7.858,19.998-2.077,21.403c5.781,1.405,16.64-6.604,16.64-6.604
								s-4.766,4.332-1.733,5.307c3.033,0.975,11.589-7.234,11.589-7.234s-6.842,7.338-1.27,4.635
								c3.784-1.836,6.195-5.581,7.647-8.791c0.243,0.998,0.375,2.882-0.854,5.542c-0.697,1.508,2.746,2.262,2.4-1.083
								c0,0,0.816,0.981,1.293,0.894C451.289,157.6,449.896,146.729,449.896,146.729z"/>
						</g>
						<g>
							<path style="fill:#FF9669;" d="M425.942,176.499c0,1.316-1.455,2.384-3.25,2.384c-1.795,0-3.25-1.067-3.25-2.384
								c0-1.316,1.455-2.383,3.25-2.383C424.487,174.116,425.942,175.183,425.942,176.499z"/>
							<path style="fill:#FF9669;" d="M450.879,176.499c0,1.316-1.455,2.384-3.25,2.384c-1.795,0-3.25-1.067-3.25-2.384
								c0-1.316,1.455-2.383,3.25-2.383C449.424,174.116,450.879,175.183,450.879,176.499z"/>
						</g>
						<path style="fill:#32285F;" d="M449.896,144.886c-1.212-6.406-23.666-9.407-32.689-3.114
							c-3.493,2.437-0.411,14.049-0.411,14.049c-6.24-0.534-5.279,6.476-1.666,7.354c5.781,1.405,16.64-6.604,16.64-6.604
							s-4.766,4.332-1.733,5.307c3.033,0.975,11.589-7.234,11.589-7.234s-6.842,7.338-1.27,4.635
							c3.784-1.836,6.195-5.581,7.647-8.791c0.243,0.998,0.375,2.882-0.854,5.542c-0.697,1.508,2.746,2.262,2.4-1.083
							c0,0,0.816,0.981,1.293,0.894C451.289,155.758,449.896,144.886,449.896,144.886z"/>
						
							<line style="fill:none;stroke:#FFFFFF;stroke-width:1.3586;stroke-linecap:round;stroke-miterlimit:10;" x1="413.193" y1="176.217" x2="413.193" y2="186.393"/>
						
							<line style="fill:none;stroke:#FFFFFF;stroke-width:1.3586;stroke-linecap:round;stroke-miterlimit:10;" x1="457.2" y1="176.217" x2="457.2" y2="186.393"/>
						<path style="fill:#FF9669;" d="M438.257,186.723c0,0.71-6.883,0.71-6.883,0c0-0.71,1.541-1.286,3.442-1.286
							C436.716,185.437,438.257,186.013,438.257,186.723z"/>
					</g>
					<g>
						
							<line style="fill:none;stroke:#FFDC64;stroke-width:1.6658;stroke-miterlimit:10;" x1="459.124" y1="131.949" x2="458.993" y2="156.163"/>
						<g>
							<path style="fill:#0073D6;" d="M398.665,136.786l26.585-23.394c1.281-1.127,3.085-1.438,4.67-0.806l32.891,13.121
								c3.138,1.252,3.85,5.374,1.314,7.606l-10.462,9.207c-0.213,0.077-0.425,0.158-0.634,0.245l-1.492,0.625
								c-5.784-6.381-15.838-8.711-23.833-5.363c-5.911,2.475-9.876,7.239-11.626,12.787l-16.098-6.422
								C396.841,143.14,396.129,139.018,398.665,136.786z"/>
							<path style="fill:#1732D7;" d="M439.256,136.826c0.986-8.849-1.955-17.928-8.251-23.808l22.031,8.789l9.775,3.899
								c3.138,1.252,3.85,5.374,1.314,7.606l-11.445,10.094C452.467,143.484,443.937,137.626,439.256,136.826z"/>
							<path style="fill:#1732D7;" d="M451.39,131.968c-0.497-2.876-9.628-3.699-20.396-1.839
								c-10.768,1.86-19.094,5.698-18.598,8.574c0.497,2.876,9.628,3.699,20.396,1.839
								C443.56,138.682,451.887,134.844,451.39,131.968z"/>
							<path style="fill:#1732D7;" d="M434.328,149.431c-8.198,1.416-14.981,3.979-17.532,6.39c-0.533,0.503-1.405,0.219-1.53-0.503
								l-2.932-16.977l38.994-6.735l2.932,16.977c0.125,0.722-0.601,1.283-1.272,0.987
								C449.775,148.155,442.525,148.016,434.328,149.431z"/>
						</g>
						<path style="fill:#FFDC64;" d="M456.019,168.83l5.812,0.031l0.062-11.5c0.009-1.605-1.285-2.913-2.89-2.922l0,0
							c-1.605-0.009-2.913,1.285-2.921,2.89L456.019,168.83z"/>
						<path style="fill:#FFDC64;" d="M457.071,153.34c-0.006,1.07,0.857,1.942,1.927,1.948c1.07,0.006,1.942-0.857,1.948-1.927
							c0.006-1.07-0.857-1.942-1.927-1.948C457.949,151.407,457.077,152.27,457.071,153.34z"/>
					</g>
				</g>
			</g>
			<g>
				<defs>
					
						<rect id="SVGID_00000131348242218926116820000005804528725278103959_" x="372.904" y="218.365" width="121.163" height="90.753"/>
				</defs>
				<clipPath id="SVGID_00000031912650608155407050000011318652290550076038_">
					<use xlink:href="#SVGID_00000131348242218926116820000005804528725278103959_"  style="overflow:visible;"/>
				</clipPath>
				<g style="clip-path:url(#SVGID_00000031912650608155407050000011318652290550076038_);">
					<g>
						<path style="fill:#5046AF;" d="M467.567,318.328c-21.51,3.168-42.836,3.144-63.982,0.008c-2.154-0.319-3.76-2.151-3.76-4.329
							l0,0c0-16.518,13.391-29.909,29.909-29.909H441.4c16.518,0,29.909,13.391,29.909,29.909l0,0
							C471.308,316.175,469.713,318.012,467.567,318.328z"/>
						<path style="fill:#FFFFFF;" d="M448.598,288.108c0,3.289-6.164,25.952-13.768,25.952c-7.603,0-13.767-22.663-13.767-25.952
							c0-3.289,6.164-5.955,13.767-5.955C442.434,282.152,448.598,284.819,448.598,288.108z"/>
						<g>
							<path style="fill:#FFAF82;" d="M444.117,289.853c-6.126,2.544-12.253,2.544-18.379,0c-1.574-0.654-2.591-2.205-2.591-3.909
								v-8.38h23.562v8.38C446.708,287.647,445.69,289.199,444.117,289.853z"/>
							<path style="fill:#FF9669;" d="M446.708,283.67c-6.765,3.752-15.847,4.423-23.562,0v-6.107h23.562V283.67z"/>
						</g>
						<path style="fill:#FF9669;" d="M417.27,258.853c0,2.777-3.98,5.029-6.758,5.029c-2.777,0-5.029-2.252-5.029-5.029
							s2.252-5.029,5.029-5.029C413.29,253.824,417.27,256.075,417.27,258.853z"/>
						<path style="fill:#FF7350;" d="M415.718,258.853c0,1.023-1.466,1.852-2.489,1.852s-1.852-0.829-1.852-1.852
							s0.829-1.852,1.852-1.852S415.718,257.83,415.718,258.853z"/>
						<path style="fill:#FF9669;" d="M451.312,258.853c0,2.777,3.98,5.029,6.758,5.029c2.777,0,5.029-2.252,5.029-5.029
							s-2.251-5.029-5.029-5.029C455.292,253.824,451.312,256.075,451.312,258.853z"/>
						<path style="fill:#FF7350;" d="M452.864,258.853c0,1.023,1.466,1.852,2.489,1.852c1.023,0,1.852-0.829,1.852-1.852
							S456.376,257,455.353,257C454.33,257,452.864,257.83,452.864,258.853z"/>
						<path style="fill:#FFAF82;" d="M434.228,282.693L434.228,282.693c-10.704,0-19.381-8.677-19.381-19.381v-28.3h31.203
							c4.175,0,7.559,3.384,7.559,7.559v20.741C453.609,274.016,444.932,282.693,434.228,282.693z"/>
						<path style="fill:#823214;" d="M433.856,260.517c-1.761,0-3.189-0.952-3.189-2.126c0-0.322,0.111-0.626,0.303-0.9
							c-0.744,0.389-1.223,0.993-1.223,1.672c0,1.174,1.428,2.126,3.189,2.126c1.278,0,2.377-0.502,2.886-1.226
							C435.28,260.346,434.598,260.517,433.856,260.517z"/>
						<path style="fill:#32285F;" d="M427.93,263.691c0.56,2.807,3.035,4.922,6.006,4.922c2.971,0,5.447-2.116,6.006-4.922H427.93z"
							/>
						<g>
							<ellipse style="fill:#823214;" cx="422.905" cy="255.762" rx="1.087" ry="1.903"/>
							<g>
								<path style="fill:#32285F;" d="M420.79,251.952l-0.938-0.67c0.676-0.944,1.739-1.486,2.916-1.486c0,0,0,0,0.001,0
									c1.177,0,2.239,0.542,2.914,1.486l-0.938,0.67c-0.456-0.638-1.177-1.003-1.976-1.004c-0.001,0-0.001,0-0.001,0
									C421.967,250.948,421.247,251.314,420.79,251.952z"/>
							</g>
						</g>
						<g>
							<ellipse style="fill:#823214;" cx="445.621" cy="255.762" rx="1.087" ry="1.903"/>
							<g>
								<path style="fill:#32285F;" d="M443.505,251.952l-0.938-0.67c0.666-0.931,1.756-1.486,2.916-1.486c0.001,0,0.001,0,0.001,0
									c1.177,0,2.24,0.542,2.915,1.486l-0.938,0.67c-0.456-0.638-1.177-1.003-1.977-1.004c0,0,0,0-0.001,0
									C444.683,250.948,443.962,251.314,443.505,251.952z"/>
							</g>
						</g>
						<g>
							<path style="fill:#FF9669;" d="M424.234,263.446c0,1.427-1.577,2.584-3.523,2.584c-1.946,0-3.523-1.157-3.523-2.584
								c0-1.427,1.578-2.584,3.523-2.584C422.657,260.862,424.234,262.019,424.234,263.446z"/>
							<path style="fill:#FF9669;" d="M451.269,263.446c0,1.427-1.577,2.584-3.523,2.584c-1.946,0-3.523-1.157-3.523-2.584
								c0-1.427,1.578-2.584,3.523-2.584C449.692,260.862,451.269,262.019,451.269,263.446z"/>
						</g>
						<path style="fill:#FF7350;" d="M430.924,267.821c0.89,0.504,1.917,0.793,3.012,0.793c1.334,0,2.567-0.429,3.573-1.154
							c-0.487-0.833-1.735-1.43-3.211-1.43C432.615,266.03,431.22,266.802,430.924,267.821z"/>
						<g>
							<defs>
								<path id="SVGID_00000165923677485684937360000014154827469833163926_" d="M434.228,282.693L434.228,282.693
									c-10.704,0-19.381-8.677-19.381-19.381v-28.3h30.573c4.523,0,8.189,3.666,8.189,8.189v20.111
									C453.609,274.016,444.932,282.693,434.228,282.693z"/>
							</defs>
							<clipPath id="SVGID_00000107546896653300091340000016213236386663405213_">
								<use xlink:href="#SVGID_00000165923677485684937360000014154827469833163926_"  style="overflow:visible;"/>
							</clipPath>
							<path style="clip-path:url(#SVGID_00000107546896653300091340000016213236386663405213_);fill:#FF9669;" d="M426.053,226.742
								c-8.538,0-15.459,6.167-15.459,13.774v9.152h23.765c6.859,0,12.971-2.834,16.953-7.256v15.029
								c0,2.638,2.139,4.777,4.777,4.777v-24.334c0-6.153-4.988-11.142-11.141-11.142H426.053z"/>
						</g>
						<path style="fill:#32285F;" d="M412.813,261.152L412.813,261.152V244.48h4.457v12.215
							C417.27,259.157,415.275,261.152,412.813,261.152z"/>
						<path style="fill:#32285F;" d="M426.053,224.941c-8.538,0-11.095,5.226-11.095,12.833c-3.951,1.76-4.86,5.475-4.365,10.093
							h23.765c6.859,0,12.971-2.834,16.953-7.256v15.029c0,2.638,2.139,4.777,4.777,4.777c0.357-11.873-0.062-22.153-4.808-23.534
							c0-6.153-0.18-11.942-6.334-11.942H426.053z"/>
						<g>
							<defs>
								<path id="SVGID_00000033330887569092446360000012194211971462067591_" d="M467.567,318.328
									c-21.51,3.168-42.836,3.144-63.982,0.008c-2.154-0.319-3.76-2.151-3.76-4.329l0,0c0-16.518,13.391-29.909,29.909-29.909
									H441.4c16.518,0,29.909,13.391,29.909,29.909l0,0C471.308,316.175,469.713,318.012,467.567,318.328z"/>
							</defs>
							<clipPath id="SVGID_00000128460824498090081020000009017438158331675580_">
								<use xlink:href="#SVGID_00000033330887569092446360000012194211971462067591_"  style="overflow:visible;"/>
							</clipPath>
						</g>
						<path style="fill:#32285F;" d="M447.567,224.182c-0.398-0.32-1.274,0.018-1.274,0.018s0.734-2.743-0.314-2.871
							c-1.048-0.128-0.76,2.987-0.76,2.987s-1.089-2.045-1.907-1.485c-0.738,0.506,2.09,3.161,2.09,3.161
							S447.965,224.501,447.567,224.182z"/>
						<path style="fill:#FF9669;" d="M437.948,272.843c0,0.77-7.462,0.77-7.462,0c0-0.77,1.671-1.394,3.731-1.394
							C436.278,271.449,437.948,272.073,437.948,272.843z"/>
					</g>
					<path style="fill:#32285F;" d="M438.21,299.601h-6.953c-0.691,0-1.252-0.56-1.252-1.252v-5.293c0-0.691,0.56-1.252,1.252-1.252
						h6.953c0.691,0,1.252,0.56,1.252,1.252v5.293C439.462,299.041,438.902,299.601,438.21,299.601z"/>
					<polygon style="fill:#FFFFFF;" points="423.146,281.171 434.83,291.761 429.291,299.557 417.798,286.574 					"/>
					<polygon style="fill:#FFFFFF;" points="446.611,281.171 434.927,291.761 440.466,299.557 451.959,286.574 					"/>
					<polygon style="fill:#32285F;" points="437.467,315.595 432.303,315.595 430.637,304.641 432.303,298.681 437.467,298.681 
						439.134,304.641 					"/>
					<g>
						
							<line style="fill:none;stroke:#FFDC64;stroke-width:1.5862;stroke-miterlimit:10;" x1="404.942" y1="218.234" x2="404.994" y2="241.29"/>
						<g>
							<path style="fill:#0073D6;" d="M463.759,216.743l-28.819-17.506c-1.388-0.843-3.132-0.835-4.512,0.021l-28.652,17.778
								c-2.733,1.696-2.715,5.68,0.035,7.35l11.342,6.89c0.212,0.037,0.424,0.077,0.635,0.124l1.503,0.337
								c4.361-6.945,13.398-10.804,21.451-8.996c5.954,1.336,10.464,5.142,13.029,10.053l14.023-8.701
								C466.527,222.396,466.508,218.413,463.759,216.743z"/>
							<path style="fill:#1732D7;" d="M425.71,223.539c-2.398-8.132-1.152-17.134,3.771-23.694l-19.191,11.908l-8.515,5.283
								c-2.733,1.696-2.714,5.679,0.035,7.349l12.41,7.558C414.433,231.981,421.454,225.069,425.71,223.539z"/>
							<path style="fill:#1732D7;" d="M413.525,221.005c-0.013-2.779,8.411-5.071,18.816-5.12
								c10.405-0.049,18.85,2.163,18.864,4.942c0.013,2.779-8.411,5.071-18.816,5.12
								C421.984,225.996,413.538,223.783,413.525,221.005z"/>
							<path style="fill:#1732D7;" d="M432.429,234.536c7.922-0.038,14.708,1.236,17.501,3.072c0.583,0.383,1.354-0.028,1.35-0.726
								l-0.078-16.405l-37.68,0.178l0.078,16.405c0.003,0.698,0.777,1.102,1.357,0.714
								C417.734,235.911,424.508,234.574,432.429,234.536z"/>
						</g>
						<path style="fill:#FFDC64;" d="M407.789,253.361l-5.534,0.013l-0.025-10.951c-0.004-1.528,1.232-2.77,2.761-2.773l0,0
							c1.528-0.004,2.77,1.232,2.773,2.761L407.789,253.361z"/>
						<path style="fill:#FFDC64;" d="M406.833,238.608c0.002,1.019-0.822,1.847-1.841,1.849c-1.019,0.002-1.846-0.822-1.849-1.84
							c-0.002-1.019,0.822-1.847,1.841-1.849C406.003,236.765,406.83,237.589,406.833,238.608z"/>
					</g>
				</g>
			</g>
			<g>
				<circle style="fill:#DC1428;" cx="352.409" cy="323.075" r="10.786"/>
				<circle style="fill:#6EAA50;" cx="392.427" cy="323.075" r="10.786"/>
				<path style="fill:#FFFFFF;" d="M388.371,326.42v-6.69c0-1.068,1.135-1.754,2.081-1.258l6.372,3.345
					c1.014,0.532,1.014,1.983,0,2.516l-6.372,3.345C389.506,328.174,388.371,327.488,388.371,326.42z"/>
				<path style="fill:#FFFFFF;" d="M355.556,327.675h-6.293c-0.802,0-1.453-0.65-1.453-1.453v-6.293c0-0.802,0.65-1.453,1.453-1.453
					h6.293c0.802,0,1.453,0.651,1.453,1.453v6.293C357.009,327.024,356.358,327.675,355.556,327.675z"/>
			</g>
			<g>
				<defs>
					
						<rect id="SVGID_00000132059670022854067530000004240767856826008706_" x="252.158" y="218.365" width="120.746" height="90.753"/>
				</defs>
				<clipPath id="SVGID_00000178184982722719569040000015985756846410253987_">
					<use xlink:href="#SVGID_00000132059670022854067530000004240767856826008706_"  style="overflow:visible;"/>
				</clipPath>
				<g style="clip-path:url(#SVGID_00000178184982722719569040000015985756846410253987_);">
					<path style="fill:#DC1428;" d="M358.749,278.559c-2.48-2.48-5.437-4.191-8.575-5.133c-6.633-1.992-11.658-7.384-13.742-13.989
						c-3.305-10.475-13.112-18.408-25.159-18.306c-13.323,0.113-25.23,11.548-25.853,24.857
						c-0.702,14.993,11.246,27.369,26.084,27.369c0.045,0,0.09,0,0.136,0c6.064-0.031,11.539,3.363,14.22,8.802
						c0.962,1.953,2.255,3.783,3.882,5.409c2.367,2.367,6.646,3.925,11.5,4.945c14.387,3.023,26.823-10.569,22.406-24.591
						C362.418,284.027,360.822,280.632,358.749,278.559z"/>
					<g>
						<path style="fill:#5046AF;" d="M341.65,317.115c-18.917,2.608-38.235,2.661-57.979-0.01c-1.948-0.263-3.411-1.911-3.411-3.877
							v0c0-14.973,12.138-27.112,27.112-27.112h10.575c14.973,0,27.112,12.138,27.112,27.112v0
							C345.058,315.195,343.598,316.846,341.65,317.115z"/>
						<path style="fill:#FFFFFF;" d="M307.323,309.898h10.229c5.678,0,10.385-4.358,10.868-10.015
							c0.318-3.725,0.721-7.445,1.145-11.154c-3.522-1.673-7.46-2.612-11.618-2.612h-10.575c-4.894,0-9.48,1.303-13.443,3.571
							c1.065,3.204,1.858,6.496,2.432,9.826c0.069,0.401,0.135,0.802,0.199,1.203C297.397,306.008,301.965,309.898,307.323,309.898z
							"/>
						<path style="fill:#FFAF82;" d="M323.931,290.464c0,3.855-5.455,8.725-12.185,8.725s-12.185-4.87-12.185-8.725
							c0-3.855,5.455-6.98,12.185-6.98S323.931,286.609,323.931,290.464z"/>
						<path style="fill:none;stroke:#5046AF;stroke-width:1.6664;stroke-miterlimit:10;" d="M323.931,290.464
							c0,3.855-5.455,8.725-12.185,8.725s-12.185-4.87-12.185-8.725c0-3.855,5.455-6.98,12.185-6.98
							S323.931,286.609,323.931,290.464z"/>
						<g>
							<path style="fill:#FFAF82;" d="M320.409,291.333c-5.554,2.307-11.107,2.307-16.661,0c-1.426-0.592-2.349-1.999-2.349-3.544
								v-7.596h21.358v7.596C322.758,289.335,321.836,290.741,320.409,291.333z"/>
							<path style="fill:#FF9669;" d="M322.758,285.73c-6.132,3.401-14.365,4.009-21.358,0v-5.536h21.358V285.73z"/>
						</g>
						<path style="fill:#FF9669;" d="M296.074,263.233c0,2.518-3.608,4.559-6.126,4.559s-4.559-2.041-4.559-4.559
							s2.041-4.559,4.559-4.559S296.074,260.715,296.074,263.233z"/>
						<path style="fill:#FF7350;" d="M294.667,263.233c0,0.927-1.329,1.679-2.257,1.679s-1.679-0.752-1.679-1.679
							s0.752-1.679,1.679-1.679S294.667,262.306,294.667,263.233z"/>
						<path style="fill:#FF9669;" d="M326.932,263.233c0,2.518,3.608,4.559,6.126,4.559s4.559-2.041,4.559-4.559
							s-2.041-4.559-4.559-4.559S326.932,260.715,326.932,263.233z"/>
						<path style="fill:#FF7350;" d="M328.338,263.233c0,0.927,1.329,1.679,2.257,1.679s1.679-0.752,1.679-1.679
							s-0.752-1.679-1.679-1.679S328.338,262.306,328.338,263.233z"/>
						<path style="fill:#FFAF82;" d="M311.314,284.844L311.314,284.844c-9.703,0-17.569-7.866-17.569-17.568v-20.03
							c8.999-6.227,24.351-8.303,35.137,0l0,20.03C328.882,276.978,321.016,284.844,311.314,284.844z"/>
						<path style="fill:#823214;" d="M311.108,264.741c-1.597,0-2.891-0.863-2.891-1.927c0-0.292,0.1-0.568,0.275-0.816
							c-0.674,0.353-1.109,0.9-1.109,1.516c0,1.064,1.294,1.927,2.891,1.927c1.159,0,2.155-0.455,2.616-1.111
							C312.399,264.587,311.781,264.741,311.108,264.741z"/>
						<path style="fill:#32285F;" d="M305.869,268.287c0.507,2.544,2.751,4.462,5.445,4.462c2.693,0,4.938-1.918,5.445-4.462
							H305.869z"/>
						<g>
							<path style="fill:#823214;" d="M302.167,260.431c0,0.952-0.441,1.725-0.986,1.725c-0.544,0-0.986-0.772-0.986-1.725
								c0-0.953,0.441-1.725,0.986-1.725C301.726,258.706,302.167,259.479,302.167,260.431z"/>
							<g>
								<path style="fill:#823214;" d="M299.264,256.977l-0.849-0.608c0.613-0.856,1.576-1.346,2.644-1.346c0,0,0.001,0,0.001,0
									c1.067,0,2.029,0.491,2.641,1.346l-0.849,0.608c-0.414-0.578-1.067-0.909-1.792-0.909c0,0,0,0-0.001,0
									C300.332,256.068,299.678,256.399,299.264,256.977z"/>
							</g>
						</g>
						<g>
							<path style="fill:#823214;" d="M322.758,260.431c0,0.952-0.441,1.725-0.986,1.725c-0.544,0-0.986-0.772-0.986-1.725
								c0-0.953,0.441-1.725,0.986-1.725C322.317,258.706,322.758,259.479,322.758,260.431z"/>
							<g>
								<path style="fill:#823214;" d="M319.855,256.977l-0.849-0.608c0.613-0.856,1.576-1.346,2.643-1.346c0,0,0,0,0.001,0
									c1.067,0,2.029,0.491,2.642,1.346l-0.849,0.608c-0.414-0.578-1.067-0.909-1.792-0.91h0
									C320.922,256.068,320.269,256.399,319.855,256.977z"/>
							</g>
						</g>
						<g>
							<path style="fill:#FF9669;" d="M298.2,267.397c0,0.218-0.177,0.395-0.395,0.395c-0.218,0-0.395-0.177-0.395-0.395
								c0-0.218,0.177-0.395,0.395-0.395C298.023,267.001,298.2,267.178,298.2,267.397z"/>
							<path style="fill:#FF9669;" d="M300.669,267.397c0,0.218-0.177,0.395-0.395,0.395s-0.395-0.177-0.395-0.395
								c0-0.218,0.177-0.395,0.395-0.395S300.669,267.178,300.669,267.397z"/>
							<path style="fill:#FF9669;" d="M303.139,267.397c0,0.218-0.177,0.395-0.395,0.395s-0.395-0.177-0.395-0.395
								c0-0.218,0.177-0.395,0.395-0.395S303.139,267.178,303.139,267.397z"/>
							<path style="fill:#FF9669;" d="M299.367,269.307c0,0.218-0.177,0.395-0.395,0.395c-0.218,0-0.395-0.177-0.395-0.395
								c0-0.218,0.177-0.395,0.395-0.395C299.19,268.912,299.367,269.089,299.367,269.307z"/>
							<path style="fill:#FF9669;" d="M301.847,269.307c0,0.218-0.177,0.395-0.395,0.395s-0.395-0.177-0.395-0.395
								c0-0.218,0.177-0.395,0.395-0.395S301.847,269.089,301.847,269.307z"/>
						</g>
						<g>
							<path style="fill:#FF9669;" d="M319.704,267.397c0,0.218-0.177,0.395-0.395,0.395s-0.395-0.177-0.395-0.395
								c0-0.218,0.177-0.395,0.395-0.395S319.704,267.178,319.704,267.397z"/>
							<path style="fill:#FF9669;" d="M322.174,267.397c0,0.218-0.177,0.395-0.395,0.395s-0.395-0.177-0.395-0.395
								c0-0.218,0.177-0.395,0.395-0.395S322.174,267.178,322.174,267.397z"/>
							<path style="fill:#FF9669;" d="M324.644,267.397c0,0.218-0.177,0.395-0.395,0.395c-0.218,0-0.395-0.177-0.395-0.395
								c0-0.218,0.177-0.395,0.395-0.395C324.467,267.001,324.644,267.178,324.644,267.397z"/>
							<path style="fill:#FF9669;" d="M320.871,269.307c0,0.218-0.177,0.395-0.395,0.395c-0.218,0-0.395-0.177-0.395-0.395
								c0-0.218,0.177-0.395,0.395-0.395C320.694,268.912,320.871,269.089,320.871,269.307z"/>
							<path style="fill:#FF9669;" d="M323.352,269.307c0,0.218-0.177,0.395-0.395,0.395s-0.395-0.177-0.395-0.395
								c0-0.218,0.177-0.395,0.395-0.395S323.352,269.089,323.352,269.307z"/>
						</g>
						<path style="fill:#FF9669;" d="M328.938,244.341c-3.747-5.764-10.237-9.578-17.625-9.578c-7.376,0-13.858,3.802-17.607,9.551
							v10.134c11.061,0.528,21.816,0.648,26.143-7.791c0.738,4.402,4.548,7.627,9.012,7.627h0.077V244.341z"/>
						<path style="fill:#DC1428;" d="M332.274,252.724c-0.769-10.909-9.856-19.521-20.96-19.521
							c-11.104,0-20.191,8.613-20.96,19.521c12.177,0.581,24.732,1.664,29.495-7.627l0,0c0.738,4.402,4.548,7.627,9.012,7.627
							H332.274z"/>
						<g>
							<defs>
								<path id="SVGID_00000061465805218601714340000001027815581913903488_" d="M305.869,268.287
									c0.507,2.544,2.751,4.462,5.445,4.462c2.693,0,4.938-1.918,5.445-4.462H305.869z"/>
							</defs>
							<clipPath id="SVGID_00000065066954171054577280000000844581862795420051_">
								<use xlink:href="#SVGID_00000061465805218601714340000001027815581913903488_"  style="overflow:visible;"/>
							</clipPath>
							<path style="clip-path:url(#SVGID_00000065066954171054577280000000844581862795420051_);fill:#FF7350;" d="M314.175,273.477
								c0,1.634-1.325,2.959-2.959,2.959c-1.634,0-2.959-1.325-2.959-2.959c0-1.634,1.325-2.959,2.959-2.959
								C312.85,270.518,314.175,271.842,314.175,273.477z"/>
						</g>
						<path style="fill:#823214;" d="M311.807,234.122c0,0-3.524-3.308-2.604-3.939c1.018-0.698,2.376,1.85,2.376,1.85
							s-0.36-3.881,0.947-3.722c1.306,0.159,0.391,3.577,0.391,3.577s1.092-0.421,1.588-0.023S311.807,234.122,311.807,234.122z"/>
						<path style="fill:#FF9669;" d="M314.696,276.664c0,0.698-6.764,0.698-6.764,0c0-0.698,1.514-1.263,3.382-1.263
							C313.182,275.401,314.696,275.966,314.696,276.664z"/>
					</g>
					<g>
						
							<line style="fill:none;stroke:#FFDC64;stroke-width:1.5862;stroke-miterlimit:10;" x1="282.078" y1="233.29" x2="282.078" y2="256.346"/>
						<g>
							<path style="fill:#0073D6;" d="M335.255,219.39l-31.953-10.77c-1.539-0.519-3.239-0.129-4.398,1.009L274.84,233.25
								c-2.296,2.253-1.405,6.136,1.643,7.163l12.575,4.239c0.215-0.01,0.431-0.018,0.647-0.018h1.54
								c2.734-7.732,10.707-13.475,18.961-13.475c6.102,0,11.336,2.726,14.914,6.956l11.778-11.561
								C339.194,224.301,338.303,220.418,335.255,219.39z"/>
							<path style="fill:#1732D7;" d="M299.618,234.354c-4.121-7.41-4.876-16.466-1.509-23.945l-16.118,15.821l-7.151,7.02
								c-2.296,2.253-1.405,6.136,1.643,7.163l13.764,4.657C290.463,245.06,295.8,236.778,299.618,234.354z"/>
							<path style="fill:#1732D7;" d="M287.173,234.549c-0.621-2.708,7.097-6.79,17.238-9.116
								c10.142-2.327,18.867-2.017,19.488,0.691c0.621,2.708-7.097,6.79-17.238,9.116
								C296.52,237.567,287.795,237.257,287.173,234.549z"/>
							<path style="fill:#1732D7;" d="M308.582,243.613c7.721-1.771,14.621-2.015,17.749-0.835c0.653,0.246,1.314-0.324,1.158-1.004
								l-3.668-15.99l-36.726,8.425l3.668,15.99c0.156,0.68,1,0.905,1.48,0.399C294.545,248.172,300.861,245.384,308.582,243.613z"
								/>
						</g>
						<path style="fill:#FFDC64;" d="M284.845,268.423h-5.534v-10.951c0-1.528,1.239-2.767,2.767-2.767l0,0
							c1.528,0,2.767,1.239,2.767,2.767V268.423z"/>
						<circle style="fill:#FFDC64;" cx="282.078" cy="253.668" r="1.845"/>
					</g>
					<path style="fill:none;stroke:#5046AF;stroke-width:1.6664;stroke-linejoin:round;stroke-miterlimit:10;" d="M311.746,299.189
						c0,0-3.757-10.066-5.877-8.961C303.749,291.333,306.487,297.299,311.746,299.189z"/>
					<path style="fill:none;stroke:#5046AF;stroke-width:1.6664;stroke-linejoin:round;stroke-miterlimit:10;" d="M311.746,299.189
						c0,0,6.139-10.039,8.663-7.855C322.933,293.517,311.746,299.189,311.746,299.189z"/>
					
						<polyline style="fill:none;stroke:#5046AF;stroke-width:1.6664;stroke-linecap:round;stroke-linejoin:round;stroke-miterlimit:10;" points="
						310.137,306.264 311.746,299.189 312.079,308.214 					"/>
				</g>
			</g>
			<g>
				
					<line style="fill:none;stroke:#FFFFFF;stroke-width:2.4996;stroke-linecap:round;stroke-miterlimit:10;" x1="496.475" y1="97.442" x2="491.243" y2="102.674"/>
				
					<line style="fill:none;stroke:#FFFFFF;stroke-width:2.4996;stroke-linecap:round;stroke-miterlimit:10;" x1="496.475" y1="102.674" x2="491.243" y2="97.442"/>
			</g>
		</g>
		<g>
			<g>
				<path style="fill:#AAB2F7;" d="M598.649,298.366c12-14.055,31.353-18.644,46.99-16.402c13.91,1.994,23.952,15.932,25.681,28.922
					c0.02,0.151,0.04,0.302,0.059,0.455c0.85,6.69-3.219,10.999-10.843,14.873l-4.511-4.401l0.944,3.134
					c0.449,1.492-0.293,3.08-1.731,3.68c-0.948,0.395-1.931,0.791-2.949,1.187l-2.948-3.304l0.13,1.829
					c0.105,1.48-0.786,2.845-2.18,3.353c-8.597,3.133-19.056,6.585-30.689,11.363c-26.225,10.772-30.659,39.167-31.372,50.454
					c-0.165,2.618-2.376,4.629-4.996,4.519l0,0c-2.563-0.107-4.604-2.204-4.612-4.769
					C575.535,363.57,567.831,334.459,598.649,298.366z"/>
				<path style="fill:#C2C5FF;" d="M648.857,302.379c-23.846,0.981-47.229,16.047-58.601,45.375
					c-9.067,22.953-10.995,53.479-11.955,77.646l-0.28,0.004c0.28-0.004-3.317-0.087-3.317-0.087
					c2.895-104.057,41.93-122.977,74.156-123.218L648.857,302.379z"/>
			</g>
			<g>
				<path style="fill:#ACAFFA;" d="M612.944,218.824c-6.293,5.034-7.596,13.862-7.596,13.862s8.899,0.667,15.192-4.367
					c6.293-5.034,9.694-11.24,7.596-13.862C626.038,211.835,619.236,213.79,612.944,218.824z"/>
				<path style="fill:#ACAFFA;" d="M599.268,239.229c-5.432,2.758-7.755,9.091-7.755,9.091s6.484,1.863,11.916-0.895
					c5.432-2.758,8.904-6.828,7.755-9.092C610.035,236.07,604.7,236.471,599.268,239.229z"/>
				<path style="fill:#ACAFFA;" d="M592.762,232.579c-1.845,5.806,1.039,11.904,1.039,11.904s5.876-3.315,7.721-9.12
					c1.845-5.806,1.38-11.136-1.039-11.904C598.064,222.689,594.607,226.773,592.762,232.579z"/>
				<path style="fill:#ACAFFA;" d="M590.926,252.586c-6.988,2.274-10.937,9.39-10.937,9.39s7.38,3.428,14.368,1.154
					c6.988-2.274,11.884-6.478,10.937-9.39C604.346,250.828,597.913,250.312,590.926,252.586z"/>
				<path style="fill:#ACAFFA;" d="M577.766,246.239c-1.44,7.206,2.829,14.134,2.829,14.134s6.604-4.755,8.044-11.961
					c1.44-7.206,0.173-13.534-2.83-14.134C582.807,233.678,579.205,239.033,577.766,246.239z"/>
				<path style="fill:#ACAFFA;" d="M585.403,267.913c-7.323,0.608-12.802,6.625-12.802,6.625s6.395,5.032,13.719,4.425
					c7.323-0.608,13.055-3.574,12.802-6.625C598.868,269.286,592.726,267.305,585.403,267.913z"/>
				<path style="fill:#ACAFFA;" d="M577.825,284.964c-7.836,0.312-13.953,6.478-13.953,6.478s6.588,5.659,14.425,5.346
					c7.836-0.312,14.084-3.213,13.953-6.478C592.12,287.045,585.662,284.652,577.825,284.964z"/>
				<path style="fill:#ACAFFA;" d="M571.064,301.948c-7.828-0.487-14.54,5.024-14.54,5.024s5.978,6.3,13.806,6.787
					c7.828,0.487,14.337-1.763,14.54-5.024C585.073,305.473,578.891,302.435,571.064,301.948z"/>
				<path style="fill:#ACAFFA;" d="M563.421,321.278c-7.801,0.806-13.517,7.345-13.517,7.345s6.932,5.232,14.733,4.426
					c7.801-0.806,13.853-4.094,13.517-7.345C577.818,322.454,571.222,320.472,563.421,321.278z"/>
				<path style="fill:#ACAFFA;" d="M571.828,259.538c3.468,6.479,1.392,14.347,1.392,14.347s-7.699-2.636-11.167-9.114
					c-3.468-6.479-4.091-12.902-1.392-14.347C563.36,248.979,568.36,253.06,571.828,259.538z"/>
				<path style="fill:#ACAFFA;" d="M559.704,276.839c4.98,6.059,4.445,14.728,4.445,14.728s-8.608-1.155-13.587-7.214
					c-4.98-6.059-6.97-12.653-4.445-14.727C548.641,267.55,554.725,270.78,559.704,276.839z"/>
				<path style="fill:#ACAFFA;" d="M551.521,293.185c5.57,5.521,5.921,14.199,5.921,14.199s-8.681-0.273-14.251-5.794
					c-5.57-5.521-8.221-11.878-5.921-14.199C539.57,285.07,545.95,287.664,551.521,293.185z"/>
				<path style="fill:#ACAFFA;" d="M546.9,313.871c4.588,6.361,3.508,14.978,3.508,14.978s-8.518-1.695-13.106-8.056
					c-4.588-6.361-6.158-13.067-3.508-14.979C536.445,303.903,542.312,307.51,546.9,313.871z"/>
				<path style="fill:#ACAFFA;" d="M557.191,341.421c-7.467,2.397-11.712,9.974-11.712,9.974s7.862,3.69,15.329,1.293
					c7.467-2.397,12.711-6.863,11.712-9.974C571.521,339.603,564.658,339.024,557.191,341.421z"/>
				<path style="fill:#ACAFFA;" d="M539.497,337.579c5.801,5.278,6.521,13.933,6.521,13.933s-8.685,0.097-14.485-5.181
					c-5.801-5.278-8.72-11.516-6.521-13.933C527.212,329.981,533.697,332.301,539.497,337.579z"/>
				<path style="fill:#ACAFFA;" d="M554.046,362.99c-7.236,3.024-10.821,10.935-10.821,10.935s8.147,3.008,15.384-0.016
					c7.236-3.024,12.081-7.919,10.821-10.934C568.17,359.959,561.282,359.966,554.046,362.99z"/>
				<path style="fill:#ACAFFA;" d="M536.09,360.668c6.229,4.766,7.683,13.328,7.683,13.328s-8.645,0.836-14.873-3.93
					s-9.668-10.733-7.683-13.328C523.203,354.143,529.862,355.902,536.09,360.668z"/>
				<g>
					<path style="fill:#ACAFFA;" d="M612.313,226.062c-0.378,0.249-9.399,6.26-21.072,19.767
						c-10.746,12.434-25.797,33.82-36.476,65.094c-15.767,46.172-13.791,89.394-12.028,106.947c0.767,0.071,1.52,0.181,2.257,0.328
						c-1.755-16.961-3.943-60.261,11.867-106.559c20.187-59.117,56.308-83.488,56.671-83.727L612.313,226.062z"/>
				</g>
			</g>
			<path style="fill:#AAB2F7;" d="M510.709,388.729c0,0,1.816-53.76-54.268-52.953c-21.37,0.307-32.513,15.788-38.113,28.812
				c-2.079,4.835,3.412,9.348,7.768,6.395c9.97-6.759,23.895-11.92,35.196,0.107C481.283,392.366,510.709,388.729,510.709,388.729z"
				/>
			<path style="fill:none;stroke:#C2C5FF;stroke-width:2.4996;stroke-miterlimit:10;" d="M443.228,351.6
				c0,0,12.685-4.254,31.184,2.711c19.094,7.189,43.33,32.068,46.242,60.696l1.18,8.544"/>
		</g>
		<g>
			<rect x="147.681" y="348.377" style="fill:#32285F;" width="109.438" height="69.039"/>
			<rect x="229.021" y="348.377" style="fill:#1E1632;" width="28.098" height="69.039"/>
			<polygon style="fill:#1E1632;" points="257.119,381.675 229.021,381.675 147.681,354.377 257.119,354.377 			"/>
			<rect x="124.704" y="344.562" style="fill:#32285F;" width="155.393" height="11.097"/>
			
				<line style="fill:none;stroke:#FFE678;stroke-width:4.9992;stroke-linecap:round;stroke-miterlimit:10;" x1="167.169" y1="344.185" x2="167.169" y2="427.166"/>
			<path style="fill:#FFE678;" d="M172.931,445.221h-11.524v-22.043c0-3.182,2.58-5.762,5.762-5.762l0,0
				c3.182,0,5.762,2.58,5.762,5.762V445.221z"/>
		</g>
		<g>
			<path style="fill:#FFF5AA;" d="M374.76,417.417H232.646v-28.451H374.76c7.857,0,14.226,6.369,14.226,14.226l0,0
				C388.985,411.047,382.616,417.417,374.76,417.417z"/>
			<path style="fill:#FFE678;" d="M232.646,409.185v8.231H374.76c5.712,0,10.624-3.374,12.888-8.231H232.646z"/>
			<circle style="fill:#FFE678;" cx="232.183" cy="403.191" r="14.226"/>
			<path style="fill:#DC1428;" d="M313.936,388.965h-17.497c7.857,0,14.226,6.369,14.226,14.226c0,7.857-6.369,14.226-14.226,14.226
				h17.497c7.856,0,14.226-6.369,14.226-14.226C328.162,395.334,321.793,388.965,313.936,388.965z"/>
		</g>
	</g>
</g>
</svg>
