<?xml version="1.0" encoding="utf-8"?>
<!-- Generator: Adobe Illustrator 27.5.0, SVG Export Plug-In . SVG Version: 6.00 Build 0)  -->
<svg version="1.1" xmlns="http://www.w3.org/2000/svg" xmlns:xlink="http://www.w3.org/1999/xlink" x="0px" y="0px"
	 viewBox="0 0 500 500" style="enable-background:new 0 0 500 500;" xml:space="preserve">
<g id="BACKGROUND">
	
</g>
<g id="OBJECTS">
	<g>
		<g>
			<path style="fill:none;stroke:#FFFFFF;stroke-width:1.4447;stroke-miterlimit:10;" d="M77.778,120.358
				c0,3.154-2.521,5.71-5.631,5.71c-3.11,0-5.631-2.556-5.631-5.71c0-3.154,2.521-5.71,5.631-5.71
				C75.257,114.648,77.778,117.205,77.778,120.358z"/>
			<path style="fill:none;stroke:#FFFFFF;stroke-width:1.4447;stroke-miterlimit:10;" d="M421.685,179.778
				c0,3.154-2.521,5.71-5.631,5.71s-5.631-2.556-5.631-5.71c0-3.154,2.521-5.71,5.631-5.71S421.685,176.624,421.685,179.778z"/>
			
				<line style="fill:none;stroke:#FFFFFF;stroke-width:1.4447;stroke-linecap:round;stroke-linejoin:round;stroke-miterlimit:10;" x1="388.994" y1="73.114" x2="432.308" y2="73.114"/>
			
				<line style="fill:none;stroke:#FFFFFF;stroke-width:1.4447;stroke-linecap:round;stroke-linejoin:round;stroke-miterlimit:10;" x1="27.138" y1="214.184" x2="57.659" y2="214.184"/>
			
				<line style="fill:none;stroke:#FFFFFF;stroke-width:1.4447;stroke-linecap:round;stroke-linejoin:round;stroke-miterlimit:10;" x1="259.092" y1="119.069" x2="289.613" y2="119.069"/>
		</g>
		<g>
			<path style="fill:#E9A435;" d="M102.086,75.818H47.918c-1.351,0-2.446-1.095-2.446-2.446l0,0c0-1.351,1.095-2.446,2.446-2.446
				h54.168c1.351,0,2.446,1.095,2.446,2.446l0,0C104.532,74.723,103.437,75.818,102.086,75.818z"/>
			<path style="fill:#E9A435;" d="M462.641,205.641H442.6c-1.351,0-2.446-1.095-2.446-2.446l0,0c0-1.351,1.095-2.446,2.446-2.446
				h20.041c1.351,0,2.446,1.095,2.446,2.446l0,0C465.087,204.546,463.992,205.641,462.641,205.641z"/>
			<path style="fill:#E9A435;" d="M238.725,92.887h-5.051c-1.327,0-2.403-1.076-2.403-2.403v-4.741c0-1.327,1.076-2.403,2.403-2.403
				h5.051c1.327,0,2.403,1.076,2.403,2.403v4.741C241.128,91.812,240.053,92.887,238.725,92.887z"/>
			<g>
				<g>
					<path style="fill:#F9FBFF;" d="M467.572,139.345h-71.596c-1.355,0-2.454-1.099-2.454-2.454v-19.72
						c0-1.355,1.099-2.454,2.454-2.454h71.596c1.355,0,2.454,1.099,2.454,2.454v19.72
						C470.026,138.246,468.928,139.345,467.572,139.345z"/>
					<g>
						
							<line style="fill:none;stroke:#000000;stroke-width:0.6316;stroke-linecap:round;stroke-linejoin:round;stroke-miterlimit:10;" x1="405.297" y1="123.559" x2="453.343" y2="123.559"/>
						
							<line style="fill:none;stroke:#000000;stroke-width:0.6316;stroke-linecap:round;stroke-linejoin:round;stroke-miterlimit:10;" x1="405.297" y1="129.323" x2="424.322" y2="129.323"/>
					</g>
				</g>
				<polygon style="fill:#F9FBFF;" points="402.938,136.537 402.938,146.208 415.101,136.537 				"/>
			</g>
			<g>
				<g>
					<path style="fill:#526FE0;" d="M81.642,180.794h-27.4c-3.658,0-6.623-2.965-6.623-6.623l0,0c0-3.658,2.965-6.623,6.623-6.623
						h27.4c3.658,0,6.623,2.965,6.623,6.623l0,0C88.265,177.829,85.3,180.794,81.642,180.794z"/>
				</g>
				<g>
					<path style="fill:#FFFFFF;" d="M62.369,174.189c0.003,0.936-0.753,1.697-1.689,1.7c-0.936,0.003-1.697-0.753-1.7-1.689
						c-0.003-0.936,0.753-1.697,1.689-1.7C61.605,172.497,62.366,173.253,62.369,174.189z"/>
					<path style="fill:#FFFFFF;" d="M69.637,174.166c0.003,0.936-0.753,1.697-1.689,1.7c-0.936,0.003-1.697-0.753-1.7-1.689
						c-0.003-0.936,0.753-1.697,1.689-1.7C68.873,172.474,69.634,173.23,69.637,174.166z"/>
					<path style="fill:#FFFFFF;" d="M76.905,174.144c0.003,0.936-0.753,1.697-1.689,1.7c-0.936,0.003-1.697-0.753-1.7-1.689
						c-0.003-0.936,0.753-1.697,1.689-1.7C76.141,172.451,76.902,173.208,76.905,174.144z"/>
				</g>
			</g>
			<g>
				<g>
					
						<ellipse transform="matrix(0.9739 -0.2271 0.2271 0.9739 -10.3825 38.9117)" style="fill:#526FE0;" cx="163.92" cy="64.579" rx="27.382" ry="27.382"/>
				</g>
				<g>
					<g>
						<g>
							<path style="fill:#F7F7F7;" d="M159.306,74.246c4.741,0.081,9.54,0.145,13.899-0.156c1.38-0.096,2.573-2.288,0.897-2.98
								c0.705-0.362,1.42-0.711,1.728-1.502c0.292-0.749-0.059-1.765-0.839-1.958c1.644,0.407,2.293-2.202,1.01-3.044
								c0.679-0.578,1.244-1.343,1.387-2.223c0.143-0.88-0.217-1.874-1-2.3c-0.513-0.279-1.125-0.291-1.709-0.295
								c-1.972-0.015-3.943-0.03-5.914-0.044c0.534-3.085,0.695-6.447-0.873-9.157c-0.472-0.816-1.741-1.794-2.748-1.167
								c-0.944,0.589-0.682,2.052-0.635,2.975c0.197,3.837-1.986,7.698-5.377,9.506C159.131,61.902,159.355,70.076,159.306,74.246z"
								/>
						</g>
					</g>
					<rect x="150.422" y="61.902" style="fill:#F7F7F7;" width="7.165" height="12.333"/>
				</g>
			</g>
			<g>
				<path style="fill:#778EFB;" d="M357.561,99.75h-46.479c-1.988,0-3.599-1.611-3.599-3.599V47.222
					c0-1.988,1.611-3.599,3.599-3.599h46.479c1.988,0,3.599,1.611,3.599,3.599v48.928C361.16,98.138,359.549,99.75,357.561,99.75z"
					/>
				<g>
					<path style="fill:#FAFAFA;" d="M338.083,80.954h-14.698c-1.314,0-2.38-1.065-2.38-2.38V65.889c0-1.314,1.065-2.38,2.38-2.38
						h14.698c1.314,0,2.38,1.065,2.38,2.38v12.685C340.463,79.889,339.398,80.954,338.083,80.954z"/>
					<path style="fill:#FAFAFA;" d="M342.246,69.192v5.289c0,0.286,0.157,0.549,0.409,0.685l6.228,3.351
						c0.518,0.279,1.146-0.097,1.146-0.685V66.715c0-0.549-0.554-0.925-1.065-0.722l-6.228,2.477
						C342.44,68.587,342.246,68.873,342.246,69.192z"/>
				</g>
			</g>
		</g>
	</g>
	<g>
		<g>
			<g>
				<g>
					<g>
						
							<line style="fill:none;stroke:#778EFB;stroke-width:3.1457;stroke-miterlimit:10;" x1="99.527" y1="279.392" x2="54.767" y2="457.852"/>
						
							<line style="fill:none;stroke:#778EFB;stroke-width:3.1457;stroke-miterlimit:10;" x1="105.135" y1="279.392" x2="149.896" y2="457.852"/>
					</g>
					<g>
						
							<line style="fill:none;stroke:#C3CFFA;stroke-width:3.1457;stroke-miterlimit:10;" x1="147.912" y1="279.392" x2="103.152" y2="457.852"/>
						
							<line style="fill:none;stroke:#C3CFFA;stroke-width:3.1457;stroke-miterlimit:10;" x1="153.52" y1="279.392" x2="198.28" y2="457.852"/>
					</g>
				</g>
				<g>
					<g>
						
							<line style="fill:none;stroke:#778EFB;stroke-width:3.1457;stroke-miterlimit:10;" x1="346.279" y1="279.392" x2="301.518" y2="457.852"/>
						
							<line style="fill:none;stroke:#778EFB;stroke-width:3.1457;stroke-miterlimit:10;" x1="351.887" y1="279.392" x2="396.647" y2="457.852"/>
					</g>
					<g>
						
							<line style="fill:none;stroke:#C3CFFA;stroke-width:3.1457;stroke-miterlimit:10;" x1="394.664" y1="279.392" x2="349.903" y2="457.852"/>
						
							<line style="fill:none;stroke:#C3CFFA;stroke-width:3.1457;stroke-miterlimit:10;" x1="400.271" y1="279.392" x2="445.032" y2="457.852"/>
					</g>
				</g>
				<g>
					<rect x="33.919" y="271.931" style="fill:#526FE0;" width="88.594" height="14.92"/>
					<rect x="122.512" y="271.931" style="fill:#778EFB;" width="335.604" height="14.92"/>
				</g>
			</g>
			<g>
				<path style="fill:#21187F;" d="M88.889,271.8h-6.925c-5.357,0-9.699-4.342-9.699-9.699v-18.913h26.323v18.913
					C98.588,267.457,94.245,271.8,88.889,271.8z"/>
				<path style="fill:#21187F;" d="M100.2,263.688h-3.783v-2.756h3.783c2.962,0,5.373-2.409,5.373-5.372s-2.41-5.372-5.373-5.372
					h-3.313v-2.756h3.313c4.482,0,8.129,3.647,8.129,8.129C108.328,260.041,104.681,263.688,100.2,263.688z"/>
			</g>
			<g>
				<g>
					<g>
						<path d="M267.278,248.701H123.869c-3.854,0-7.055-2.975-7.336-6.819l-10.119-94.228c-0.272-3.716,2.67-6.882,6.396-6.882
							h144.423c3.854,0,7.055,2.975,7.336,6.819l10.045,93.216C274.926,245.071,271.552,248.701,267.278,248.701z"/>
						<path style="fill:#4951F0;" d="M274.996,248.701H131.587c-3.854,0-7.055-2.975-7.336-6.819l-10.119-94.228
							c-0.272-3.716,2.67-6.882,6.396-6.882H264.95c3.854,0,7.055,2.975,7.336,6.819l10.045,93.216
							C282.644,245.071,279.27,248.701,274.996,248.701z"/>
						<path style="fill:#F9FBFF;" d="M268.916,242.048H136.815c-3.741,0-6.848-2.888-7.121-6.619l-9.27-83.765
							c-0.233-3.183,2.287-5.895,5.479-5.895h134.654c3.301,0,6.043,2.548,6.284,5.841l9.197,82.776
							C276.341,238.524,273.065,242.048,268.916,242.048z"/>
					</g>
					<g>
						<path d="M211.322,140.773h-34.117l-1.432-13.175c-0.223-2.049,1.382-3.838,3.444-3.838h27.148c1.768,0,3.252,1.332,3.444,3.09
							L211.322,140.773z"/>
						<g>
							<path style="fill:none;stroke:#4951F0;stroke-width:1.0547;stroke-miterlimit:10;" d="M200.073,132.359
								c0,2.91-2.359,5.27-5.27,5.27c-2.91,0-5.27-2.359-5.27-5.27c0-2.911,2.359-5.27,5.27-5.27
								C197.713,127.089,200.073,129.448,200.073,132.359z"/>
							<circle style="fill:#F9FBFF;" cx="194.803" cy="132.359" r="1.937"/>
						</g>
						<path style="fill:#C1422D;" d="M206.371,127.992c0,0.959-0.777,1.736-1.736,1.736c-0.959,0-1.736-0.777-1.736-1.736
							s0.777-1.736,1.736-1.736C205.594,126.256,206.371,127.033,206.371,127.992z"/>
					</g>
					<g>
						<polygon points="175.488,248.701 169.341,272.283 206.897,272.283 212.77,248.701 						"/>
						<polygon style="fill:#21187F;" points="183.194,248.701 177.047,272.283 214.603,272.283 220.476,248.701 						"/>
					</g>
				</g>
				<g>
					<path style="fill:#E6E9FC;" d="M258.362,210.641h-75.243c-2.131,0-3.901-1.645-4.056-3.77l-5.28-47.711
						c-0.133-1.813,1.302-3.357,3.12-3.357H253.6c1.88,0,3.442,1.451,3.579,3.327l5.239,47.147
						C262.59,208.634,260.725,210.641,258.362,210.641z"/>
					<g>
						<defs>
							<path id="SVGID_1_" d="M258.362,210.641h-75.243c-2.131,0-3.901-1.645-4.056-3.77l-5.28-47.711
								c-0.133-1.813,1.302-3.357,3.12-3.357H253.6c1.88,0,3.442,1.451,3.579,3.327l5.239,47.147
								C262.59,208.634,260.725,210.641,258.362,210.641z"/>
						</defs>
						<clipPath id="SVGID_00000176733443753757204390000003005156977608496519_">
							<use xlink:href="#SVGID_1_"  style="overflow:visible;"/>
						</clipPath>
						<path style="clip-path:url(#SVGID_00000176733443753757204390000003005156977608496519_);fill:#21187F;" d="M196.626,200.298
							h33.192l-4.232,21.855l-37.619-1.25l2.262-15.784C191.047,202.266,193.657,200.298,196.626,200.298z"/>
						<g style="clip-path:url(#SVGID_00000176733443753757204390000003005156977608496519_);">
							<g>
								<g>
									<g>
										<path style="fill:#4951F0;" d="M237.395,176.167c0.341,2.466-1.381,4.741-3.846,5.083
											c-2.466,0.341-4.741-1.381-5.082-3.846c-0.341-2.465,1.381-4.741,3.846-5.082
											C234.778,171.98,237.053,173.702,237.395,176.167z"/>
									</g>
								</g>
								<path d="M235.045,166.818c0,0,3.773,3.86-2.262,5.649l-3.747-5.401L235.045,166.818z"/>
								<path d="M213.083,174.616c0.215,5.865,5.37,10.436,11.514,10.212c6.145-0.225,10.952-5.161,10.738-11.025
									c-0.214-5.865-5.37-10.437-11.514-10.212C217.676,163.815,212.868,168.752,213.083,174.616z"/>
								<polygon style="fill:#EEC4A6;" points="227.59,185.176 227.788,197.494 218.365,195.154 220.878,178.372 								"/>
								<polygon style="fill:#E2886F;" points="227.698,191.874 221.671,184.423 227.59,185.176 								"/>
								<path style="fill:#EEC4A6;" d="M233.618,167.708c0.773,0.606,1.283,1.478,1.51,2.431c0.673,2.823,1.415,7.259,1.082,10.426
									c-0.394,3.743-4.257,7.297-9.444,6.506c0,0-6.197-0.397-7.752-8.171C216.535,166.516,226.999,162.516,233.618,167.708z"/>
								<polygon points="222.564,166.196 220.797,179.141 213.44,172.891 								"/>
								<path d="M222.153,169.206c0,0,16.172,0.468,14.661-4.837c-2.016-7.079-9.488-1.944-12.606-2.167
									c-2.312-0.165-7.192-0.448-8.796,3.045C212.423,171.756,222.153,169.206,222.153,169.206z"/>
								<path d="M215.413,166.818c0,0-6.167,3.946-0.961,12.54l4.189-12.54H215.413z"/>
								<path d="M237.274,163.831c0,2.563-2.203,4.641-4.919,4.641c-2.717,0-4.92-2.078-4.92-4.641c0-2.563,2.202-4.641,4.92-4.641
									C235.072,159.19,237.274,161.268,237.274,163.831z"/>
								<path d="M229.762,159.887c0,0-3.52,2.448-7.198,2.234l1.645,2.779l8.414-1.751L229.762,159.887z"/>
								<path d="M234.799,167.858c0,0-3.611,2.564-12.646,1.347l3.198-3.483L234.799,167.858z"/>
								<g>
									<g>
										
											<path style="fill:none;stroke:#000000;stroke-width:0.2573;stroke-linecap:round;stroke-linejoin:round;stroke-miterlimit:10;" d="
											M233.063,177.977l0.464,1.196c0.042,0.161-0.051,0.326-0.209,0.375l-0.729,0.163"/>
										<circle cx="229.036" cy="176.596" r="0.726"/>
										<circle cx="234.799" cy="176.346" r="0.673"/>
										<path d="M230.349,171.946l-5.233,0.886c0,0,0.951-1.679,2.459-1.927C229.083,170.657,230.349,171.946,230.349,171.946z"/>
										<path d="M232.549,171.829l4.032,0.644c0,0-0.665-1.622-1.827-1.8C233.591,170.495,232.549,171.829,232.549,171.829z"/>
										
											<path style="fill:none;stroke:#000000;stroke-width:0.2573;stroke-linecap:round;stroke-linejoin:round;stroke-miterlimit:10;" d="
											M233.063,181.493c0,0-1.915,1.004-3.831-0.576"/>
									</g>
									<g>
										
											<path style="fill:none;stroke:#FFFFFF;stroke-width:0.3792;stroke-linecap:round;stroke-linejoin:round;stroke-miterlimit:10;" d="
											M231.746,176.541c0.035,1.871-1.421,3.415-3.252,3.449c-1.831,0.034-3.343-1.455-3.378-3.326
											c-0.035-1.871,1.421-3.415,3.252-3.449C230.199,173.182,231.712,174.671,231.746,176.541z"/>
										
											<path style="fill:none;stroke:#FFFFFF;stroke-width:0.355;stroke-linecap:round;stroke-linejoin:round;stroke-miterlimit:10;" d="
											M238.455,176.391c0.033,1.797-1.054,3.274-2.429,3.299c-1.375,0.026-2.517-1.41-2.55-3.207
											c-0.034-1.797,1.054-3.274,2.429-3.299C237.279,173.159,238.421,174.595,238.455,176.391z"/>
										
											<path style="fill:none;stroke:#FFFFFF;stroke-width:0.3792;stroke-linecap:round;stroke-linejoin:round;stroke-miterlimit:10;" d="
											M231.746,176.541c0,0,0.717-0.86,1.729-0.057"/>
										
											<line style="fill:none;stroke:#FFFFFF;stroke-width:0.3792;stroke-linecap:round;stroke-linejoin:round;stroke-miterlimit:10;" x1="225.117" y1="176.665" x2="221.045" y2="177.322"/>
									</g>
								</g>
								<path style="fill:#2D3ACB;" d="M216.583,173.88c0,0-1.142-7.919,3.765-11.842c0,0,2.998-1.986,5.109-0.231
									c0,0-6.505,3.119-5.31,12.403L216.583,173.88z"/>
								<g>
									<g>
										<path style="fill:#4951F0;" d="M222.201,176.615c0.341,2.465-1.381,4.741-3.846,5.082
											c-2.466,0.341-4.741-1.381-5.082-3.846c-0.341-2.466,1.381-4.741,3.846-5.082
											C219.585,172.427,221.86,174.149,222.201,176.615z"/>
									</g>
									<g>
										<path style="fill:#2D3ACB;" d="M219.001,176.975c0.181,1.308-0.732,2.515-2.04,2.696c-1.308,0.181-2.515-0.732-2.696-2.04
											c-0.181-1.308,0.732-2.515,2.04-2.696C217.613,174.753,218.82,175.667,219.001,176.975"/>
									</g>
								</g>
							</g>
							<g>
								<g>
									<g>
										<g>
											<path style="fill:#E9A435;" d="M236.043,197.698c0,0,5.645,3.295,6.55,11.443v11.586l-9.213-0.315L236.043,197.698z"/>
										</g>
										<g>
											<path style="fill:#E9A435;" d="M229.096,195.054c0,0,4.624,0.882,6.946,2.644l0.686,41.611
												c-14.852,8.957-31.832,0.261-31.832,0.261l4.606-41.658c0,0,0.601-2.348,7.055-2.851L229.096,195.054z"/>
											<path style="fill:#EEC4A6;" d="M216.559,195.063c0,0,5.327-1.176,12.538-0.008c0,0,0.685,4.287-5.107,4.468
												C217.718,199.718,216.559,195.063,216.559,195.063z"/>
										</g>
										<g>
											<g>
												<g>
													<path style="fill:#E9A435;" d="M212.299,195.862c0,0-13.905,2.291-15.546,24.866h17.1l1.125-14.608L212.299,195.862z"
														/>
												</g>
											</g>
										</g>
									</g>
								</g>
							</g>
						</g>
					</g>
				</g>
			</g>
			<g>
				<g>
					<path d="M290.929,213.872l13.067,17.634l-14.744,11.426c-4.995,3.871-12.183,2.955-16.048-2.045l0,0
						c-3.992-5.165-2.857-12.618,2.492-16.36L290.929,213.872z"/>
					<path style="fill:#4951F0;" d="M302.165,229.127l-9.612-12.971l10.846-8.405c3.674-2.847,8.961-2.174,11.804,1.504l0,0
						c2.937,3.799,2.102,9.282-1.833,12.034L302.165,229.127z"/>
					<path style="fill:#4951F0;" d="M283.797,234.949c-0.369,2.3-2.532,3.865-4.831,3.497c-2.3-0.369-3.865-2.532-3.497-4.831
						c0.368-2.3,2.532-3.865,4.831-3.497C282.599,230.486,284.165,232.649,283.797,234.949z"/>
				</g>
				<rect x="284.879" y="236.805" width="6.961" height="35.126"/>
			</g>
		</g>
		<g>
			<g>
				<g>
					
						<path style="fill:none;stroke:#FFFFFF;stroke-width:1.1651;stroke-linecap:round;stroke-linejoin:round;stroke-miterlimit:10;" d="
						M336.717,173.657c-0.255,3.343-2.789,5.876-5.659,5.657c-2.87-0.219-4.991-3.107-4.735-6.45
						c0.255-3.343,2.789-5.876,5.659-5.657C334.852,167.426,336.973,170.314,336.717,173.657z"/>
					<polygon style="fill:#EEC4A6;" points="363.24,184.599 368.168,216.516 345.79,214.351 345.124,184.497 					"/>
					<polygon style="fill:#E2886F;" points="353.599,193.885 345.604,205.988 345.197,192.124 					"/>
					<path style="fill:#EEC4A6;" d="M351.775,150.118c0,0-19.811-3.021-20.879,14.19c-0.493,7.943-0.491,15.231-0.409,21.611
						c0.087,6.764,6.011,11.952,12.732,11.183l19.717-1.489L351.775,150.118z"/>
					<path style="fill:#EEC4A6;" d="M331.088,173.598l-3.51,6.18c-0.264,0.603,0.177,1.278,0.835,1.28l3.969,0.72L331.088,173.598z"
						/>
					<path d="M369.433,148.213l-0.001,0.001c-1.83-1.056-7.212-3.104-9.699-3.554c-15.47-2.798-40.22,2.962-17.092,14.316
						c0,0-4.954,3.829,4.496,18.077l4.464,0.567c0,0-4.056,14.894,12.354,12.322c0,0,11.587-13.715,13.777-21.967
						C381.419,154.08,369.433,148.213,369.433,148.213z"/>
					<g>
						<path d="M341.598,148.554l11.683,0.892c-0.438,5.737-6.072,10.056-12.481,9.567c-6.409-0.489-11.322-5.613-10.884-11.35
							c0.438-5.737,6.072-10.056,12.481-9.567c5.986,0.457,10.738,4.962,10.907,10.34L341.598,148.554z"/>
						<path d="M344.385,138.404c0,0,13.23,3.819,18.58,9.758c5.349,5.939-18.04,3.198-18.04,3.198L344.385,138.404z"/>
					</g>
					<polygon points="343.204,162.585 342.168,176.15 346.816,176.942 350.748,165.837 					"/>
					
						<line style="fill:none;stroke:#FFFFFF;stroke-width:1.1651;stroke-miterlimit:10;" x1="344.556" y1="176.61" x2="326.328" y2="173.962"/>
					<path d="M329.454,165.857c0.049-0.017,0.397-3.148,2.378-2.983c1.981,0.165,4.135,2.174,4.573,4.675L329.454,165.857z"/>
					<g>
						<path style="fill:#2D3ACB;" d="M346.77,169.326c0,0-1.33-17.335,10.498-24.898c0,0,4.65-1.867,8.929,2.53
							c0,0-12.054,3.026-11.583,23.94L346.77,169.326z"/>
						<g>
							<g>
								<path style="fill:#4951F0;" d="M360.94,176.29c0.178,5.56-4.185,10.212-9.745,10.39c-5.56,0.178-10.212-4.185-10.389-9.745
									c-0.178-5.56,4.185-10.212,9.745-10.39C356.11,166.368,360.762,170.731,360.94,176.29z"/>
							</g>
							<g>
								<path style="fill:#2D3ACB;" d="M354.738,176.442c0.095,2.95-2.22,5.417-5.169,5.512c-2.949,0.094-5.417-2.22-5.512-5.17
									c-0.094-2.949,2.22-5.417,5.169-5.512C352.176,171.178,354.644,173.492,354.738,176.442"/>
							</g>
						</g>
					</g>
				</g>
				<g>
					<path style="fill:#E9A435;" d="M367.061,213.066c-7.474-0.307-12.29-0.332-21.873,0.803
						c-12.659,1.499-21.286,11.182-21.259,23.93l-0.777,73.304l56.292,1.525c0,0,8.718-61.459,8.667-80.011
						C388.083,222.393,380.114,213.601,367.061,213.066z"/>
					<g>
						<g>
							<path style="fill:#E9A435;" d="M293.871,297.44l3.534-17.651l16.523-29.076l1.267-2.396l10.32-19.508
								c2.921-7.294,10.963-11.111,18.461-8.764c8.094,2.534,12.497,11.249,9.727,19.265c-1.984,5.739-6.737,15.028-11.889,24.851
								c-0.256,0.487-0.521,0.988-0.791,1.494c-6.931,13.001-18.239,31.754-18.239,31.754c-3.112,8.929-11.938,12.404-20.589,8.588
								l0,0c-1.243-0.548-2.308-1.326-3.239-2.246l-0.001,0.009l-0.015-0.025C297.39,302.199,294.607,299.65,293.871,297.44z"/>
							
								<line style="fill:none;stroke:#000000;stroke-width:0.5498;stroke-linecap:round;stroke-linejoin:round;stroke-miterlimit:10;" x1="348.619" y1="249.221" x2="323.311" y2="296.137"/>
						</g>
						<g>
							<g>
								<path style="fill:#E2886F;" d="M228.893,258.309l-19.932-4.054c-1.106-0.225-2.196,0.451-2.486,1.542l0,0
									c-0.294,1.105,0.337,2.245,1.428,2.584l9.327,2.896L228.893,258.309z"/>
								<path style="fill:#EEC4A6;" d="M262.007,267.216l-8.372-6.855c0,0-6.498-8.443-16.712-9.516
									c-6.383-0.671-10.325-2.092-12.383-3.064c-1.071-0.505-2.348-0.183-3.011,0.798l-0.007,0.01
									c-0.7,1.035-0.488,2.439,0.505,3.198c1.923,1.47,5.346,3.754,9.653,5.211l-24.819,2.242c-1.097,0.07-1.888,1.08-1.695,2.162
									l0,0c0.136,0.763,0.736,1.359,1.5,1.491l28.741,4.774c0,0,16.007,4.509,20.094,7.034L262.007,267.216z"/>
							</g>
							<g>
								<path style="fill:#E9A435;" d="M306.906,277.261c-1.221,0.208-52.894-16.941-52.894-16.941l-3.296,21.419l51.478,24.258
									L306.906,277.261z"/>
								
									<line style="fill:none;stroke:#000000;stroke-width:0.5498;stroke-linecap:round;stroke-linejoin:round;stroke-miterlimit:10;" x1="299.932" y1="275.341" x2="311.035" y2="278.348"/>
							</g>
						</g>
					</g>
				</g>
				<g>
					<g>
						<g>
							<polygon style="fill:#FFFFFF;" points="276.134,440.931 299.932,397.414 281.22,389.924 260.422,433.627 							"/>
							<g>
								<g>
									<g>
										<defs>
											<path id="XMLID_7_" d="M281.215,432.063c-4.381,1.944-9.535,2.806-15.553-0.175c0,0-4.165-8.388-9.063-3.117
												c0,0-7.748,8.598-19.22,10.878c-15.908,3.161-16.65,10.559-16.65,10.559l65.239,0.252c0,0-0.198-10.049-1.235-16.398
												C284.464,432.42,282.735,431.389,281.215,432.063z"/>
										</defs>
										<use xlink:href="#XMLID_7_"  style="overflow:visible;"/>
										<clipPath id="XMLID_00000072239011079924535420000004606681249688669608_">
											<use xlink:href="#XMLID_7_"  style="overflow:visible;"/>
										</clipPath>
									</g>
									
										<rect x="220.714" y="450.334" transform="matrix(-1 -0.0039 0.0039 -1 504.9125 909.0052)" style="fill:#FFFFFF;" width="65.239" height="7.363"/>
								</g>
								
									<path style="fill:none;stroke:#FFFFFF;stroke-width:0.9747;stroke-linecap:round;stroke-linejoin:round;stroke-miterlimit:10;" d="
									M243.711,437.668c0,0,2.554-0.023,4.541,3.48"/>
								
									<path style="fill:none;stroke:#FFFFFF;stroke-width:0.9747;stroke-linecap:round;stroke-linejoin:round;stroke-miterlimit:10;" d="
									M246.959,435.949c0,0,2.554-0.023,4.541,3.48"/>
								
									<path style="fill:none;stroke:#FFFFFF;stroke-width:0.9747;stroke-linecap:round;stroke-linejoin:round;stroke-miterlimit:10;" d="
									M250.277,433.905c0,0,2.554-0.023,4.541,3.48"/>
							</g>
						</g>
						<polygon style="fill:#2D3ACB;" points="298.272,323.816 259.715,415.427 292.699,423.095 332.88,339.097 						"/>
					</g>
					<g>
						<path style="fill:#4951F0;" d="M323.152,311.102l-41.636,2.648c-10.43,0.663-18.194,9.901-17.052,20.29v0
							c1.021,9.29,8.869,16.323,18.215,16.323h87.14c0,0,21.972-5.07,9.624-37.736L323.152,311.102z"/>
						<g>
							<g>
								<polygon style="fill:#FFFFFF;" points="230.18,440.931 253.978,397.414 235.266,389.924 214.468,433.627 								"/>
								<g>
									<g>
										<g>
											<defs>
												<path id="XMLID_4_" d="M235.261,432.063c-4.381,1.944-9.535,2.806-15.553-0.175c0,0-4.165-8.388-9.063-3.117
													c0,0-7.748,8.598-19.22,10.878c-15.908,3.161-16.65,10.559-16.65,10.559l65.239,0.252c0,0-0.198-10.049-1.235-16.398
													C238.51,432.42,236.781,431.389,235.261,432.063z"/>
											</defs>
											<use xlink:href="#XMLID_4_"  style="overflow:visible;"/>
											<clipPath id="XMLID_00000139277577006838902600000008911895640644719765_">
												<use xlink:href="#XMLID_4_"  style="overflow:visible;"/>
											</clipPath>
										</g>
										
											<rect x="174.76" y="450.334" transform="matrix(-1 -0.0039 0.0039 -1 413.0041 908.8278)" style="fill:#FFFFFF;" width="65.239" height="7.363"/>
									</g>
									
										<path style="fill:none;stroke:#FFFFFF;stroke-width:0.9747;stroke-linecap:round;stroke-linejoin:round;stroke-miterlimit:10;" d="
										M197.756,437.668c0,0,2.554-0.023,4.541,3.48"/>
									
										<path style="fill:none;stroke:#FFFFFF;stroke-width:0.9747;stroke-linecap:round;stroke-linejoin:round;stroke-miterlimit:10;" d="
										M201.005,435.949c0,0,2.554-0.023,4.541,3.48"/>
									
										<path style="fill:none;stroke:#FFFFFF;stroke-width:0.9747;stroke-linecap:round;stroke-linejoin:round;stroke-miterlimit:10;" d="
										M204.323,433.905c0,0,2.554-0.023,4.541,3.48"/>
								</g>
							</g>
							<polygon style="fill:#4951F0;" points="267.416,321.897 214.468,414.569 247.488,425.844 299.932,341.234 							"/>
						</g>
					</g>
				</g>
			</g>
			<g>
				<g>
					<g>
						<path d="M285.683,445.132L285.683,445.132c-1-2.087-0.119-4.59,1.968-5.59l55.735-19.015l3.622,7.558L291.273,447.1
							C289.186,448.1,286.684,447.219,285.683,445.132z"/>
						<path d="M296.459,450.622c0,3.934-3.189,7.123-7.123,7.123s-7.123-3.189-7.123-7.123c0-3.934,3.189-7.123,7.123-7.123
							S296.459,446.688,296.459,450.622z"/>
					</g>
					<g>
						<path d="M408.9,445.132L408.9,445.132c1-2.087,0.119-4.59-1.968-5.59l-55.734-19.015l-3.622,7.558l55.734,19.015
							C405.398,448.1,407.9,447.219,408.9,445.132z"/>
						<path d="M398.125,450.622c0,3.934,3.189,7.123,7.123,7.123c3.934,0,7.123-3.189,7.123-7.123c0-3.934-3.189-7.123-7.123-7.123
							C401.314,443.499,398.125,446.688,398.125,450.622z"/>
					</g>
					<g>
						<path d="M317.397,450.622c0,3.934-3.189,7.123-7.123,7.123c-3.934,0-7.123-3.189-7.123-7.123c0-3.934,3.189-7.123,7.123-7.123
							C314.207,443.499,317.397,446.688,317.397,450.622z"/>
						<path d="M389.452,450.622c0,3.934-3.189,7.123-7.123,7.123c-3.934,0-7.123-3.189-7.123-7.123c0-3.934,3.189-7.123,7.123-7.123
							C386.263,443.499,389.452,446.688,389.452,450.622z"/>
						<path style="fill:#21187F;" d="M347.576,428.202L347.576,428.202c-2.314,0-4.19-1.876-4.19-4.19v-45.066h8.381v45.066
							C351.766,426.326,349.89,428.202,347.576,428.202z"/>
						<path style="fill:#21187F;" d="M306.621,445.132L306.621,445.132c-1-2.087-0.119-4.59,1.968-5.59l35.874-19.015l3.622,7.558
							L312.211,447.1C310.124,448.1,307.621,447.219,306.621,445.132z"/>
						<path style="fill:#21187F;" d="M389.04,445.132L389.04,445.132c1-2.087,0.119-4.59-1.968-5.59l-35.874-19.015l-3.622,7.558
							L383.45,447.1C385.537,448.1,388.039,447.219,389.04,445.132z"/>
						<rect x="340.129" y="363.86" width="14.893" height="26.063"/>
					</g>
				</g>
				<g>
					<path style="fill:#21187F;" d="M401.839,349.731H296.03c-3.912,0-7.083,3.171-7.083,7.082v0c0,3.912,3.171,7.082,7.083,7.082
						h105.809c3.912,0,7.083-3.171,7.083-7.082v0C408.921,352.902,405.75,349.731,401.839,349.731z"/>
					<g>
						<g>
							<path d="M406.821,338.205h-59.344c-5.366,0-9.204-5.189-7.633-10.32l28.93-94.496c1.027-3.355,4.125-5.646,7.633-5.646
								h59.344c5.366,0,9.204,5.189,7.633,10.32l-28.93,94.496C413.427,335.914,410.33,338.205,406.821,338.205z"/>
							<path style="fill:#21187F;" d="M418.069,338.205h-59.344c-5.366,0-9.204-5.189-7.633-10.32l28.93-94.496
								c1.027-3.355,4.125-5.646,7.633-5.646h59.344c5.366,0,9.204,5.189,7.633,10.32l-28.93,94.496
								C424.675,335.914,421.578,338.205,418.069,338.205z"/>
						</g>
						<g>
							<polygon style="fill:#21187F;" points="361.453,338.205 357.188,350.363 387.476,350.363 391.742,338.205 							"/>
							<polygon points="361.453,338.205 391.742,338.205 390.232,342.509 359.943,342.509 							"/>
						</g>
					</g>
					<g>
						<polygon points="332.264,363.86 310.273,317.567 296.156,317.567 317.499,363.86 						"/>
						<path style="fill:#21187F;" d="M323.54,311.533h-43.211c-3.912,0-7.083,3.171-7.083,7.083l0,0
							c0,3.912,3.171,7.083,7.083,7.083h43.211c3.912,0,7.083-3.171,7.083-7.083l0,0
							C330.622,314.704,327.451,311.533,323.54,311.533z"/>
					</g>
				</g>
			</g>
		</g>
		<line style="fill:none;stroke:#AFB9E8;stroke-miterlimit:10;" x1="23.163" y1="458.013" x2="474.214" y2="458.013"/>
	</g>
</g>
</svg>
