<?xml version="1.0" encoding="utf-8"?>
<!-- Generator: Adobe Illustrator 27.5.0, SVG Export Plug-In . SVG Version: 6.00 Build 0)  -->
<svg version="1.1" xmlns="http://www.w3.org/2000/svg" xmlns:xlink="http://www.w3.org/1999/xlink" x="0px" y="0px"
	 viewBox="0 0 3710 3710" style="enable-background:new 0 0 3710 3710;" xml:space="preserve">
<g id="Background">
	<g>
			</g>
</g>
<g id="Illustration">
	<g>
		<path style="fill:#F4F7FA;" d="M3010.943,2640.402c-574.528,734.886-1920.009,746.685-2292.479,338.482
			c-148.657-162.895-187.907-442.669-245.603-853.625c-27.775-197.827-31.752-357.289-34.11-466.696
			c-8.132-372.163-12.18-558.262,47.732-684.867c171.609-362.402,767.751-503.451,1153.071-509.994
			c26.893-0.465,54.033-0.286,81.385,0.536c451.181,13.443,960.305,201.259,1274.304,602.597
			c32.457,41.403,62.765,85.094,90.751,131.11C3372.606,1669.254,3324.379,2239.529,3010.943,2640.402z"/>
		<g>
			<g>
				<path style="fill:#D8DEE8;" d="M1890.904,3003.265c-123.463-22.505-154.019-287.636-157.895-325.344
					c-9.702-94.387-21.728-211.378,46.535-310.36c98.67-143.073,266.667-105.805,306.754-224.603
					c24.636-73.009-35.996-95.438-38.856-235.03c-0.821-40.064-3.784-184.693,97.354-301.605
					c72.119-83.366,163.791-114.053,212.274-125.938c15.802-39.947,34.177-100.512,33.751-174.395
					c-0.685-118.531-49.146-164.278-24.001-227.129c28.816-72.029,131.542-109.641,209.715-108.912
					c208.23,1.94,322.329,276.664,330.144,296.204c20.195,50.498,84.177,210.489,10.951,326.923
					c-57.849,91.984-156.131,84.911-171.117,160.534c-14.953,75.454,78.468,104.834,100.562,220.006
					c18.865,98.342-22.641,215.614-96.097,281.648c-122.698,110.301-272.884,22.214-338.577,113.604
					c-76.481,106.398,77.821,294.326,9.578,357.737c-64.777,60.189-234.15-80.931-316.668-10.641
					c-59.65,50.81-4.329,152.818-84.779,234.461C2015.713,2955.316,1955.34,3015.012,1890.904,3003.265z"/>
				<path style="opacity:0.5;fill:#F4F7FA;" d="M2539.427,1032.491c79.112,18.244,115.726,256.531,73.923,460.548
					c-28.784,140.48-69.829,143.1-175.255,380.908c-142.879,322.291-89.79,367.773-193.68,480.389
					c-142.563,154.537-288.778,119.02-367.234,267.669c-53.102,100.612-37.739,214.687-14.688,298.521
					c-29.45-45.193-75.215-128.837-87.974-242.072c-8.312-73.763-23.345-207.167,53.399-288.36
					c92.091-97.43,227.739-25.945,290.942-116.526c35.831-51.353,3.63-90.661-4.659-266.038
					c-8.361-176.908-12.541-265.361,35.344-340.842c85.42-134.647,239.015-79.75,291.578-196.568
					c54.492-121.106-83.886-239.44-11.899-362.153C2452.436,1068.398,2500.388,1023.488,2539.427,1032.491z"/>
			</g>
			<g>
				<linearGradient id="SVGID_1_" gradientUnits="userSpaceOnUse" x1="1213.767" y1="1858.422" x2="2557.2146" y2="1858.422">
					<stop  offset="0" style="stop-color:#FFC444"/>
					<stop  offset="0.9964" style="stop-color:#F36F56"/>
				</linearGradient>
				<path style="fill:url(#SVGID_1_);" d="M2375.989,2971.29c135.248-24.653,168.721-315.092,172.967-356.399
					c10.628-103.396,23.802-231.554-50.977-339.984c-108.088-156.729-292.12-115.904-336.033-246.042
					c-26.988-79.978,39.431-104.547,42.565-257.463c0.899-43.888,4.146-202.322-106.647-330.393
					c-79.003-91.324-179.425-124.94-232.536-137.959c-17.31-43.76-37.44-110.106-36.973-191.041
					c0.75-129.845,53.837-179.958,26.292-248.809c-31.567-78.904-144.097-120.106-229.732-119.308
					c-228.106,2.125-353.096,303.071-361.656,324.477c-22.123,55.318-92.212,230.581-11.997,358.128
					c63.37,100.764,171.034,93.016,187.451,175.857c16.38,82.656-85.958,114.841-110.161,241.006
					c-20.665,107.729,24.803,236.194,105.269,308.531c134.41,120.83,298.931,24.334,370.894,124.448
					c83.781,116.554-85.249,322.419-10.492,391.883c70.96,65.934,256.499-88.656,346.894-11.656
					c65.343,55.66,4.742,167.404,92.871,256.841C2239.268,2918.764,2305.403,2984.158,2375.989,2971.29z"/>
				<path style="opacity:0.5;fill:#F4F7FA;" d="M1665.564,812.404c-86.663,19.986-126.772,281.017-80.979,504.508
					c31.531,153.889,76.494,156.759,191.984,417.267c156.517,353.053,98.361,402.877,212.167,526.242
					c156.171,169.288,316.342,130.38,402.287,293.219c58.17,110.216,41.342,235.178,16.09,327.014
					c32.261-49.507,82.394-141.134,96.372-265.178c9.105-80.803,25.573-226.941-58.496-315.884
					c-100.882-106.73-249.477-28.421-318.713-127.648c-39.251-56.255-3.976-99.315,5.104-291.432
					c9.159-193.794,13.738-290.69-38.718-373.375c-93.573-147.499-261.83-87.362-319.41-215.331
					c-59.694-132.665,91.893-262.295,13.035-396.72C1760.858,851.739,1708.33,802.542,1665.564,812.404z"/>
			</g>
			<g>
				
					<linearGradient id="SVGID_00000049211107455064900780000015654184161117779878_" gradientUnits="userSpaceOnUse" x1="2202.3872" y1="2145.7815" x2="3658.4275" y2="2145.7815" gradientTransform="matrix(0.9976 0.0688 -0.0688 0.9976 -284.7021 -59.6831)">
					<stop  offset="0" style="stop-color:#FF9085"/>
					<stop  offset="1" style="stop-color:#FB6FBB"/>
				</linearGradient>
				<path style="fill:url(#SVGID_00000049211107455064900780000015654184161117779878_);" d="M1833.052,3018.696
					c-73.869-12.691-114.688-194.711-98.867-335.898c6.12-54.617,12.209-108.949,51.951-158.446
					c67.074-83.537,144.596-46.927,203.591-114.303c87.116-99.493-21.282-248.579,62.567-329.465
					c61.678-59.499,139.867,2.323,213.473-62.155c85.385-74.796,33.373-204.598,106.839-237.628
					c42.675-19.186,71.46,19.56,187.016,11.409c45.206-3.189,67.809-4.784,88.487-17.248
					c72.502-43.702,37.458-142.568,95.463-203.151c63.851-66.689,202.143-46.982,284.399-10.145
					c147.381,66.003,213.71,231.266,215.962,362.71c0.482,28.158,0.71,211.547-130.765,308.654
					c-95.604,70.615-224.14,68.494-244.985,68.15c-81.218-1.34-97.488-24.915-126.32-7.864
					c-83.342,49.288,32.932,257.886-73.565,390.949c-43.481,54.328-117.557,87.894-183.262,90.904
					c-106.227,4.867-151.973-71.9-208.419-45.556c-73.025,34.083-28.852,177.688-108.912,220.007
					c-56.646,29.94-100.165-30.633-195.669-5.387C1887.25,2966.642,1876.793,3026.21,1833.052,3018.696z"/>
				<path style="opacity:0.5;fill:#F4F7FA;" d="M1837.209,2885.495c33.698,8.35,51.642-83.175,166.659-203.341
					c125.6-131.223,193.122-114.978,310.04-233.032c133.476-134.772,71.884-182.609,183.73-286.965
					c151.588-141.438,280.435-68.222,462.736-233.813c54.685-49.672,127.478-117.717,115.63-201.205
					c-10.272-72.392-82.837-146.909-165.117-147.063c-3.444-0.006-72.639,0.951-116.8,54.137
					c-54.173,65.244-7.58,133.094-57.813,182.576c-26.311,25.917-67.34,28.922-149.396,34.93
					c-118.016,8.641-137.677-16.318-169.963,5.244c-72.954,48.724-0.018,194.497-74.108,254.948
					c-63.609,51.899-155.175-24.701-210.902,25.036c-67.257,60.028,37.499,197.147-31.809,297.437
					c-59.674,86.348-171.244,33.773-251.643,123.989C1753.51,2664.907,1788.582,2873.446,1837.209,2885.495z"/>
			</g>
			<g>
				
					<linearGradient id="SVGID_00000073687623933060895360000014673390399249039254_" gradientUnits="userSpaceOnUse" x1="2286.6523" y1="2064.8845" x2="1436.3121" y2="3007.5083" gradientTransform="matrix(0.9816 -0.191 0.191 0.9816 328.3644 373.1785)">
					<stop  offset="0" style="stop-color:#FFC444"/>
					<stop  offset="0.9964" style="stop-color:#F36F56"/>
				</linearGradient>
				<path style="fill:url(#SVGID_00000073687623933060895360000014673390399249039254_);" d="M2264.551,2942.909
					c56.104,3.915,63.714-99.168,161.681-130.037c108.367-34.147,177.151,67.377,252.646,28.585
					c84.828-43.587,37.055-191.843,132.318-247.49c65.083-38.019,110.407,17.729,192.257-17.156
					c85.314-36.363,168.6-153.416,135.841-268.208c-27.331-95.769-125.875-156.484-205.181-157.062
					c-64.877-0.473-83.304,39.544-140.046,27.752c-70.693-14.691-69.019-82.4-143.09-112.89
					c-73.701-30.337-174.458-4.094-229.908,56.102c-46.108,50.055-50.815,112.648-54.918,167.243
					c-11.018,146.566,55.877,203.029,20.15,259.347c-44.578,70.272-166.705,10.709-222.366,80.383
					C2094.275,2716.677,2183.855,2937.279,2264.551,2942.909z"/>
				<path style="opacity:0.5;fill:#F4F7FA;" d="M2237.326,2835.085c20.527,4.089,26.579-62.697,91.106-118.465
					c73.981-63.939,129.664-31.151,212.436-81.64c102.565-62.56,63.587-141.278,154.896-204.75
					c127.999-88.975,287.021,8.411,329.988-64.227c25.105-42.44-3.086-119.797-48.376-145.04
					c-48.331-26.939-82.573,24.177-165.537,12.073c-77.705-11.337-82.066-61.196-177.956-86.241
					c-46.748-12.21-108.154-28.248-147.385,1.824c-76.869,58.922-35.143,269.224-22.406,333.418
					c11.717,59.057,22.583,81.994,7.209,106.044c-40.269,62.993-173.833-2.02-235.625,66.007
					C2183.994,2710.985,2210.807,2829.803,2237.326,2835.085z"/>
			</g>
		</g>
		<g>
			<g>
				<path style="fill:#26264F;" d="M3263.885,2955.089l-2748.023-23.424v69.308c0,18.811,11.986,34.807,28.219,37.657
					l777.059,136.479c9.222,1.62,18.574,2.049,27.879,1.281l1885.003-155.608c16.829-1.389,29.863-17.434,29.863-36.762V2955.089z"
					/>
				<g>
					<path style="fill:#26264F;" d="M2266.638,2844.021l-1722.359,126.79c-30.82,2.268-55.88-21.839-55.88-53.853V1634.366
						c0-32.014,25.059-57.966,55.88-57.966h1722.359c25.392,0,45.921,23.46,45.921,52.4v1159.44
						C2312.56,2817.179,2292.03,2842.151,2266.638,2844.021z"/>
					
						<linearGradient id="SVGID_00000004546662733149912850000014903689706055270272_" gradientUnits="userSpaceOnUse" x1="515.8622" y1="2273.6792" x2="2340.0225" y2="2273.6792">
						<stop  offset="0" style="stop-color:#444B8C"/>
						<stop  offset="0.9964" style="stop-color:#26264F"/>
					</linearGradient>
					<path style="fill:url(#SVGID_00000004546662733149912850000014903689706055270272_);" d="M2294.101,2844.021l-1722.359,126.79
						c-30.821,2.268-55.88-21.839-55.88-53.853V1634.366c0-32.014,25.059-57.966,55.88-57.966h1722.359
						c25.392,0,45.921,23.46,45.921,52.4v1159.44C2340.022,2817.179,2319.493,2842.151,2294.101,2844.021z"/>
					
						<linearGradient id="SVGID_00000125590989111144395450000002067261775435498662_" gradientUnits="userSpaceOnUse" x1="590.7843" y1="2261.6917" x2="2278.334" y2="2261.6917">
						<stop  offset="0" style="stop-color:#AA80F9"/>
						<stop  offset="0.9964" style="stop-color:#6165D7"/>
					</linearGradient>
					<path style="fill:url(#SVGID_00000125590989111144395450000002067261775435498662_);" d="M2240.445,2762.278L636.247,2872.412
						c-25.081,1.722-45.463-18.065-45.463-44.2V1705.301c0-26.135,20.382-47.41,45.463-47.518l1604.198-6.916
						c20.946-0.09,37.889,19.134,37.889,42.938v1022.771C2278.334,2740.379,2261.391,2760.841,2240.445,2762.278z"/>
					<path style="fill:#FFFFFF;" d="M1493.751,1611.481c0,11.917-8.865,21.607-19.812,21.641
						c-10.961,0.035-19.855-9.62-19.855-21.564c0-11.944,8.895-21.634,19.855-21.642
						C1484.886,1589.908,1493.751,1599.563,1493.751,1611.481z"/>
					<path style="opacity:0.48;fill:#FFFFFF;" d="M571.736,2970.811l1713.645-126.148l8.72-0.642
						c11.65-0.858,22.244-6.616,30.335-15.353c-123.316-6.749-199.909-50.51-249.318-95.728
						c-99.223-90.808-82.012-180.358-189.013-240.062c-133.458-74.469-238.396,19.892-339.669-73.21
						c-61.396-56.445-31.254-98.536-106.803-182.886c-83.676-93.424-138.154-62.02-222.247-146.103
						c-106.329-106.317-53.15-189.034-144.74-265.366c-111.112-92.602-230.94-6.893-336.71-95.702
						c-45.619-38.303-70.652-93.989-83.722-153.213h-80.473c-30.821,0-55.881,25.953-55.881,57.966v1282.592
						C515.862,2948.969,540.917,2973.075,571.736,2970.811z"/>
				</g>
				
					<linearGradient id="SVGID_00000122001089575466183450000002891082661700220547_" gradientUnits="userSpaceOnUse" x1="515.8622" y1="2975.0742" x2="3263.885" y2="2975.0742">
					<stop  offset="0" style="stop-color:#444B8C"/>
					<stop  offset="0.9964" style="stop-color:#26264F"/>
				</linearGradient>
				<path style="fill:url(#SVGID_00000122001089575466183450000002891082661700220547_);" d="M2362.75,2836.988L515.862,2970.446
					l805.277,141.435c9.222,1.619,18.574,2.05,27.879,1.281l1914.866-158.073l-871.756-117.194
					C2382.38,2836.584,2372.547,2836.28,2362.75,2836.988z"/>
				<polygon style="fill:#26264F;" points="785.352,2971.594 2322.941,2858.831 2798.811,2922.288 1274.468,3042.828 				"/>
			</g>
		</g>
		<g>
			<g>
				<g>
					<path style="fill:#FFFFFF;" d="M3069.849,711.007v838.717c0,38.68-26.317,70.689-59.409,71.48l-275.689,6.739l-850.348,20.795
						c-34.579,0.84-66.778-27.293-70.632-64.368c-0.307-2.825-4.11-5.656-4.11-8.575V682.207c0-15.084,7.78-28.975,14.761-40.542
						c0.198-0.329,2.225-0.6,2.422-0.907c12.157-19.464,33.561-31.887,56.749-31.261l128.993,3.42l997.636,26.463
						C3043.314,640.26,3069.849,672.307,3069.849,711.007z"/>
					
						<linearGradient id="SVGID_00000045583072259535393750000014433250507736747955_" gradientUnits="userSpaceOnUse" x1="1838.6564" y1="1129.12" x2="3051.6196" y2="1129.12">
						<stop  offset="0" style="stop-color:#FFFFFF"/>
						<stop  offset="0.9964" style="stop-color:#EBEFF2"/>
					</linearGradient>
					<path style="fill:url(#SVGID_00000045583072259535393750000014433250507736747955_);" d="M1884.518,1624.984
						c-25.263,0.588-45.862-21.691-45.862-49.664V682.826c0-27.974,20.599-50.209,45.862-49.569l1126.344,28.568
						c22.495,0.57,40.757,22.441,40.757,48.754v839.523c0,26.313-18.262,48.146-40.757,48.669L1884.518,1624.984z"/>
					<path style="fill:#D8DEE8;" d="M3010.863,639.393l-1126.344-29.88c-37.194-0.987-67.446,31.614-67.446,72.819v53.52
						l1253.606,25.405v-50.24C3070.679,672.336,3043.945,640.271,3010.863,639.393z"/>
					<path style="fill:#FFFFFF;" d="M1937.075,675.839c0,12.273-9.804,22.004-21.911,21.735
						c-12.122-0.269-21.959-10.459-21.959-22.758c0-12.299,9.837-22.03,21.959-21.734
						C1927.271,653.378,1937.075,663.566,1937.075,675.839z"/>
					<path style="fill:#FFFFFF;" d="M2013.661,677.625c0,12.227-9.73,21.922-21.747,21.655c-12.03-0.267-21.793-10.417-21.793-22.67
						c0-12.253,9.763-21.948,21.793-21.654C2003.93,655.249,2013.661,665.398,2013.661,677.625z"/>
					<path style="fill:#FFFFFF;" d="M2089.671,679.398c0,12.181-9.658,21.841-21.584,21.576c-11.94-0.265-21.63-10.376-21.63-22.583
						c0-12.207,9.69-21.866,21.63-21.575C2080.013,657.106,2089.671,667.217,2089.671,679.398z"/>
					<polygon style="fill:#D8DEE8;" points="3000.871,1551.497 1895.701,1574.491 1895.701,871.583 3000.871,886.705 					"/>
					<g style="opacity:0.5;">
						<polygon style="fill:#FFFFFF;" points="2486.629,808.987 1895.701,798.79 1895.701,836.76 2486.629,845.856 						"/>
						<polygon style="fill:#FFFFFF;" points="2937.056,816.759 2937.056,852.789 3000.871,853.771 3000.871,817.86 						"/>
					</g>
					<g style="opacity:0.5;">
						<path style="fill:#FFFFFF;" d="M2741.944,1627.94l-850.446,20.796c-34.579,0.84-67.042-27.289-70.896-64.364
							c-0.022-0.824-3.959-1.604-3.959-2.428V681.805c0-14.906,7.813-28.639,14.553-40.146c0.198-0.329,2.329-0.598,2.526-0.905
							c12.09-19.999,33.766-32.815,57.215-32.182l128.304,3.407c0.086,0.312,0.436,0.629,0.544,0.941
							c2.39,7.816,5.138,15.75,8.021,23.796c11.357,31.896,26.588,65.347,46.968,98.291c1.242,2.032,2.538,4.02,3.823,6.008
							c15.012,23.523,30.959,43.843,47.617,61.64c13.309,14.242,27.079,26.85,41.188,38.176
							c16.533,13.304,33.556,24.799,50.889,35.078c124.869,74.083,265.104,83.761,358.13,232.295
							c79.726,127.302,22.623,194.109,99.731,388.871c8.381,21.177,17.388,41.408,26.935,60.756
							c8.119,16.523,16.617,32.407,25.453,47.673C2732.915,1613.145,2737.409,1620.63,2741.944,1627.94z"/>
					</g>
				</g>
				<g>
					<defs>
						<polygon id="SVGID_00000008831353006617843300000004139962515877255609_" points="2940.688,1554.804 1959.766,1568.967 
							1959.766,553.869 2940.688,581.754 						"/>
					</defs>
					<clipPath id="SVGID_00000119106921236703258120000012978254289515219108_">
						<use xlink:href="#SVGID_00000008831353006617843300000004139962515877255609_"  style="overflow:visible;"/>
					</clipPath>
					<g style="clip-path:url(#SVGID_00000119106921236703258120000012978254289515219108_);">
						<g>
							
								<linearGradient id="SVGID_00000061451076085138840690000003197779332861322671_" gradientUnits="userSpaceOnUse" x1="2743.6692" y1="683.2505" x2="2510.7275" y2="1139.428">
								<stop  offset="0" style="stop-color:#AB316D"/>
								<stop  offset="1" style="stop-color:#792D3D"/>
							</linearGradient>
							<path style="fill:url(#SVGID_00000061451076085138840690000003197779332861322671_);" d="M2291.943,1544.724
								c-191.875-29.553-234.601-51.364-254.418-92.08c-28.832-59.24-7.859-155.656,41.379-214.981
								c43.034-51.85,96.547-61.937,94.987-97.805c-1.284-29.509-37.944-33.465-64.927-89.197
								c-7.882-16.28-23.195-47.909-16.526-85.795c9.757-55.43,59.429-83.89,63.452-86.112c51.752-28.588,81.182,5.58,119.974-20.1
								c48.399-32.04,26.477-101.33,71.768-120.389c32.873-13.833,74.787,9.994,85.702,16.2
								c36.352,20.666,32.537,40.824,63.173,53.744c35.865,15.126,52.958-7.567,94.472,2.349
								c34.197,8.168,58.908,33.403,79.038,58.685c45.142,56.694,22.718,89.736,56.02,159.217
								c46.744,97.525,117.038,86.688,129.472,164.424c6.497,40.622-10.192,59.056,2.626,121.271
								c8.65,41.984,19.53,49.453,21.458,74.149c5.544,70.99-74.672,134.183-89.692,145.338
								C2693.976,1604.883,2560.191,1586.04,2291.943,1544.724z"/>
							
								<linearGradient id="SVGID_00000021798881838530239380000008132607076739469957_" gradientUnits="userSpaceOnUse" x1="2749.2292" y1="674.4778" x2="2513.9346" y2="1135.2629">
								<stop  offset="0" style="stop-color:#AB316D"/>
								<stop  offset="1" style="stop-color:#792D3D"/>
							</linearGradient>
							<path style="opacity:0.7;fill:url(#SVGID_00000021798881838530239380000008132607076739469957_);" d="M2597.062,1352.563
								c-125.584-8.787-211.114,111.085-245.157,81.69c-32.338-27.923,58.809-123.485,27.734-234.468
								c-30.565-109.163-151.051-132.66-141.496-194.35c10.804-69.759,171.868-85.814,168.101-137.049
								c-2.223-30.235-58.995-37.562-70.371-85.825c-3.089-13.107-2.06-26.024,1.167-38.058
								c-31.337,24.903-17.087,84.965-61.177,114.152c-38.792,25.68-68.223-8.488-119.974,20.1
								c-4.022,2.222-53.695,30.682-63.452,86.112c-6.669,37.887,8.644,69.516,16.526,85.796
								c26.982,55.731,63.643,59.688,64.927,89.197c1.56,35.868-51.952,45.954-94.986,97.805
								c-49.239,59.325-70.211,155.74-41.379,214.981c19.816,40.717,62.542,62.528,254.418,92.081
								c268.248,41.315,402.033,60.158,497.958-11.083c37.023-27.495,80.557-74.105,89.884-115.284
								c-18.617,17.685-36.894,26.364-53.958,29.72C2746.116,1463.754,2709.148,1360.406,2597.062,1352.563z"/>
						</g>
						
							<linearGradient id="SVGID_00000100362819899364312030000000302090209382571707_" gradientUnits="userSpaceOnUse" x1="2515.1658" y1="2148.2017" x2="2403.4927" y2="1338.5708">
							<stop  offset="0.0036" style="stop-color:#E38DDD"/>
							<stop  offset="1" style="stop-color:#9571F6"/>
						</linearGradient>
						<path style="fill:url(#SVGID_00000100362819899364312030000000302090209382571707_);" d="M2077.933,1803.589
							c-29.091-72.932-11.352-188.115-7.615-212.378c14.571-94.613,48.872-153.314,61.355-174.155
							c85.364-142.522,214.494-141.47,311.359-140.68c47.741,0.389,97.091-0.685,157.268,21.549c0,0,47.492,17.547,87.576,46.799
							c119.368,87.112,213.271,372.335,117.333,481.809c-61.326,69.978-124.368-17.084-399.76,29.56
							c-111.43,18.874-229.346,49.703-299.637-11.184C2094.167,1834.822,2085.011,1821.334,2077.933,1803.589z"/>
						
							<linearGradient id="SVGID_00000157309493109971531630000007189442803575781545_" gradientUnits="userSpaceOnUse" x1="2443.9607" y1="1462.3995" x2="2427.615" y2="1107.7003">
							<stop  offset="0" style="stop-color:#FFC444"/>
							<stop  offset="0.9964" style="stop-color:#F36F56"/>
						</linearGradient>
						<path style="fill:url(#SVGID_00000157309493109971531630000007189442803575781545_);" d="M2392.258,1105.53
							c0,0,20.418,152.753-83.338,183.282c-12.017,3.536-15.705,19.387-6.606,28.234l127.869,124.333
							c7.703,7.49,19.838,6.861,26.92-1.386l114.572-133.422c7.477-8.707,4.204-22.536-6.256-26.557
							c-36.671-14.097-102.592-55.304-88.736-166.703L2392.258,1105.53z"/>
						
							<linearGradient id="SVGID_00000117663166635854469590000005675677101728592289_" gradientUnits="userSpaceOnUse" x1="2426.5073" y1="1150.5216" x2="2432.769" y2="910.7892">
							<stop  offset="0" style="stop-color:#FFC444"/>
							<stop  offset="0.9964" style="stop-color:#F36F56"/>
						</linearGradient>
						<path style="fill:url(#SVGID_00000117663166635854469590000005675677101728592289_);" d="M2328.666,1020.173
							c0.033,1.677,28.021,151.212,99.607,151.38c67.406,0.158,92.916-108.943,101.208-159.841
							c0.88-8.659,1.761-17.317,2.641-25.974c-4.563,1.522-15.886,4.581-29.441,0.589c-3.077-0.906-22.596-6.655-29.85-23.592
							c-8.088-18.881,6.778-33.639-1.69-50.168c-4.913-9.59-14.813-14.19-22.375-16.576c5.037,7.786,14.804,25.144,9.282,40.722
							c-3.71,10.466-14.1,20.423-37.313,26.299C2354.104,979.876,2328.01,986.305,2328.666,1020.173z"/>
						
							<linearGradient id="SVGID_00000158712311125579338720000018426092150273780905_" gradientUnits="userSpaceOnUse" x1="2328.1584" y1="1125.3345" x2="2333.9255" y2="904.5347">
							<stop  offset="0" style="stop-color:#FFC444"/>
							<stop  offset="0.9964" style="stop-color:#F36F56"/>
						</linearGradient>
						<path style="fill:url(#SVGID_00000158712311125579338720000018426092150273780905_);" d="M2346.246,1038.186
							c0,0-37.095-32.946-40.335-12.993c-6.758,41.617,25.006,64.809,42.208,52.475
							C2365.295,1065.353,2346.246,1038.186,2346.246,1038.186z"/>
						
							<linearGradient id="SVGID_00000147178826049338079740000003887331831828200878_" gradientUnits="userSpaceOnUse" x1="2522.1296" y1="1130.9899" x2="2527.8064" y2="913.655">
							<stop  offset="0" style="stop-color:#FFC444"/>
							<stop  offset="0.9964" style="stop-color:#F36F56"/>
						</linearGradient>
						<path style="fill:url(#SVGID_00000147178826049338079740000003887331831828200878_);" d="M2508.403,1039.496
							c0,0,36.462-32.021,39.636-12.215c6.614,41.275-24.541,63.846-41.483,51.398
							C2489.588,1066.213,2508.403,1039.496,2508.403,1039.496z"/>
					</g>
				</g>
				<g>
					<path style="fill:#FFFFFF;" d="M2320.634,1489.063c0,21.828-17.036,39.746-38.085,40.02
						c-21.087,0.275-38.21-17.256-38.21-39.156s17.123-39.819,38.21-40.022C2303.598,1449.703,2320.634,1467.235,2320.634,1489.063z
						"/>
					<path style="fill:#FFFFFF;" d="M2497.574,1487.06c0,21.662-16.777,39.442-37.507,39.712
						c-20.767,0.271-37.629-17.128-37.629-38.861c0-21.733,16.862-39.514,37.629-39.713
						C2480.797,1447.998,2497.574,1465.397,2497.574,1487.06z"/>
					<path style="fill:#FFFFFF;" d="M2671.842,1485.087c0,21.499-16.525,39.142-36.942,39.408
						c-20.454,0.266-37.062-17.002-37.062-38.57s16.608-39.213,37.062-39.41C2655.317,1446.318,2671.842,1463.588,2671.842,1485.087
						z"/>
				</g>
			</g>
			<g>
				<path style="fill:#FFFFFF;" d="M2895.308,1941.203v689.857c0,31.836-21.608,59.274-49.011,61.229l-227.497,16.267l-0.246,0.035
					l-696.349,49.779c-4.573,0.314-9.042,0.035-13.336-0.838c-0.803-0.14-1.572-0.349-2.373-0.524
					c-1.537-0.419-3.073-0.873-4.573-1.396c-1.502-0.559-2.968-1.152-4.433-1.85c-2.165-1.047-4.26-2.199-6.249-3.526
					c-1.326-0.873-2.618-1.815-3.84-2.793c-1.256-1.012-2.478-2.059-3.631-3.177c-9.25-8.937-15.533-21.469-17.035-35.851
					c-0.244-2.269-1.222-4.643-1.222-7.017v-728.047c0-0.663,0-1.292,0.034-1.955c0.036-0.768,0.106-1.501,0.14-2.269
					c0.908-10.577,4.749-20.456,9.74-28.974c0.14-0.279,0.733-0.524,0.908-0.768c7.996-13.275,20.589-23.006,35.077-26.493
					c1.698-0.425,3.423-0.767,5.171-1.014c1.781-0.279,3.561-0.227,5.376-0.297l104.795-2.775h0.07l226.171-6.65l593.231-17.026
					c0.629,0,1.222-0.083,1.849-0.013c0.735,0,1.468-0.024,2.2,0.046c0.697,0.035,1.43,0.093,2.129,0.163
					C2876.807,1888.19,2895.308,1911.811,2895.308,1941.203z"/>
				
					<linearGradient id="SVGID_00000121977603016976227390000011175063188240693930_" gradientUnits="userSpaceOnUse" x1="1884.8862" y1="2321.3096" x2="2880.6145" y2="2321.3096">
					<stop  offset="0" style="stop-color:#FFFFFF"/>
					<stop  offset="0.9964" style="stop-color:#EBEFF2"/>
				</linearGradient>
				<path style="fill:url(#SVGID_00000121977603016976227390000011175063188240693930_);" d="M1922.191,2739.03
					c-20.552,1.447-37.305-15.914-37.305-38.705v-727.131c0-22.791,16.753-41.826,37.305-42.431l924.657-27.244
					c18.634-0.549,33.767,16.613,33.767,38.256v690.515c0,21.643-15.133,40.316-33.767,41.628L1922.191,2739.03z"/>
				<path style="fill:#D8DEE8;" d="M2846.848,1885.073l-924.657,26.338c-30.256,0.862-54.853,28.772-54.853,62.337v43.596
					l1029.074-34.739v-41.329C2896.412,1909.456,2874.254,1884.292,2846.848,1885.073z"/>
				<path style="fill:#FFFFFF;" d="M1964.975,1963.133c0,10.007-7.984,18.375-17.841,18.692
					c-9.867,0.317-17.874-7.553-17.874-17.578c0-10.025,8.006-18.394,17.874-18.693
					C1956.991,1945.256,1964.975,1953.127,1964.975,1963.133z"/>
				<path style="fill:#FFFFFF;" d="M2027.382,1961.187c0,9.975-7.933,18.316-17.728,18.631c-9.805,0.315-17.76-7.531-17.76-17.524
					s7.956-18.335,17.76-18.632C2019.449,1943.366,2027.382,1951.212,2027.382,1961.187z"/>
				<path style="fill:#FFFFFF;" d="M2089.395,1959.253c0,9.943-7.883,18.257-17.616,18.57c-9.743,0.313-17.648-7.509-17.648-17.47
					c0-9.961,7.905-18.276,17.648-18.571C2081.512,1941.487,2089.395,1949.309,2089.395,1959.253z"/>
				<polygon style="fill:#D8DEE8;" points="2838.573,2635.439 1931.292,2697.445 1931.292,2124.517 2838.573,2088.861 				"/>
				<g style="opacity:0.5;">
					<polygon style="fill:#FFFFFF;" points="2414.452,2047.65 1931.292,2065.185 1931.292,2096.134 2414.452,2077.841 					"/>
					<polygon style="fill:#FFFFFF;" points="2785.755,2034.175 2785.755,2063.783 2838.573,2061.783 2838.573,2032.258 					"/>
				</g>
				<g style="opacity:0.5;">
					<path style="fill:#FFFFFF;" d="M2618.833,2708.627l-696.628,49.744c-4.573,0.314-9.042,0.035-13.336-0.838
						c-0.803-0.14-1.572-0.349-2.373-0.524c-1.537-0.419-3.073-0.873-4.573-1.396c-1.502-0.559-2.968-1.152-4.433-1.85
						c-2.165-1.047-4.26-2.199-6.249-3.526c-1.326-0.873-2.618-1.815-3.84-2.793c-1.256-1.012-2.478-2.059-3.631-3.177
						c-9.286-8.902-15.639-21.434-17.141-35.816c0-0.663-1.116-1.361-1.116-2.025v-733.074c0-0.663,0-1.292,0.034-1.955
						c0.036-0.768,0.106-1.501,0.14-2.269c0.839-10.577,4.713-20.422,9.566-28.974c0.14-0.279,0.839-0.524,0.977-0.768
						c9.845-16.826,26.95-28.206,46.01-28.764l103.905-2.932c0.07,0.244-0.053,0.489-0.053,0.733v0.035
						c3.491,6.283,4.486,12.602,6.825,19.025c9.25,25.518,21.825,52.153,38.478,78.125c1.011,1.606,2.151,3.177,3.197,4.748
						c12.254,18.536,25.284,34.419,38.898,48.208c10.858,11.066,22.156,20.77,33.675,29.393
						c13.51,10.158,27.415,18.816,41.588,26.426c0,0.035,0.04,0.035,0.04,0.035c21.015,11.345,42.556,20.421,64.2,28.729
						c83.674,32.116,168.783,52.537,229.523,146.021c57.982,89.226,28.033,144.206,64.058,263.732
						c3.77,12.497,8.238,25.727,13.648,39.76c1.398,3.666,2.864,7.401,4.4,11.206c6.878,17.035,14.313,33.268,22.167,48.767
						c6.702,13.23,13.718,25.937,20.979,38.12c3.631,6.074,7.295,12.009,11.032,17.803
						C2618.799,2708.592,2618.833,2708.592,2618.833,2708.627z"/>
				</g>
				<g>
					<defs>
						<polygon id="SVGID_00000115493116767887412420000007140010005206771900_" points="2787.092,2639.272 1984.202,2689.04 
							1984.202,1841.631 2787.092,1820.687 						"/>
					</defs>
					<clipPath id="SVGID_00000124132395047219789550000009603239067889275011_">
						<use xlink:href="#SVGID_00000115493116767887412420000007140010005206771900_"  style="overflow:visible;"/>
					</clipPath>
					<g style="clip-path:url(#SVGID_00000124132395047219789550000009603239067889275011_);">
						
							<linearGradient id="SVGID_00000010310655691789755740000001997489997108193928_" gradientUnits="userSpaceOnUse" x1="2329.7559" y1="1845.8813" x2="2418.0105" y2="3252.7607">
							<stop  offset="0.0036" style="stop-color:#F36F56"/>
							<stop  offset="1" style="stop-color:#FFC444"/>
						</linearGradient>
						<path style="fill:url(#SVGID_00000010310655691789755740000001997489997108193928_);" d="M2047.323,2859.29
							c-27.991-72.945,11.495-198.084,36.302-255.076c72.003-165.418,203.153-177.631,309.585-187.543
							c103.605-9.648,202.745-18.881,274.761,98.382c46.803,76.208,89.673,218.017,61.101,296.895
							c-30.127,83.171-114.201,26.243-316.654,39.339C2185.579,2865.959,2082.181,2950.129,2047.323,2859.29z"/>
						
							<linearGradient id="SVGID_00000161624690744924862700000014940914216209554561_" gradientUnits="userSpaceOnUse" x1="2386.7739" y1="2487.0303" x2="2383.9155" y2="2312.6755">
							<stop  offset="0" style="stop-color:#311944"/>
							<stop  offset="1" style="stop-color:#893976"/>
						</linearGradient>
						<path style="fill:url(#SVGID_00000161624690744924862700000014940914216209554561_);" d="M2491.031,2428.363
							c0,20.006-46.738,46.538-104.653,49.666c-58.206,3.144-105.606-18.522-105.606-38.71c0-20.188,47.4-13.61,105.606-16.615
							C2444.294,2419.713,2491.031,2408.357,2491.031,2428.363z"/>
						
							<linearGradient id="SVGID_00000046305705278280005180000014834537403325745795_" gradientUnits="userSpaceOnUse" x1="2388.1968" y1="2503.2542" x2="2387.2783" y2="2356.2703">
							<stop  offset="0" style="stop-color:#AB316D"/>
							<stop  offset="1" style="stop-color:#792D3D"/>
						</linearGradient>
						<path style="fill:url(#SVGID_00000046305705278280005180000014834537403325745795_);" d="M2347.656,2295.418
							c-16.049,0.739,20.965,116.208-37.383,135.319c-5.659,1.854-6.589,9.804-1.44,12.433
							c15.693,8.014,45.031,17.645,92.987,15.094c31.047-1.651,53.704-15.073,65.454-23.937c4.016-3.029,3.615-9.289-0.684-11.383
							c-17.806-8.676-42.567-37.965-35.173-128.395L2347.656,2295.418z"/>
						
							<linearGradient id="SVGID_00000103967907343736437100000008129762501459093155_" gradientUnits="userSpaceOnUse" x1="2375.8591" y1="2292.6003" x2="2400.2236" y2="1999.291">
							<stop  offset="0" style="stop-color:#AB316D"/>
							<stop  offset="1" style="stop-color:#792D3D"/>
						</linearGradient>
						<path style="fill:url(#SVGID_00000103967907343736437100000008129762501459093155_);" d="M2298.83,2156.763
							c0.241,1.465,5.11,108.52,28.685,160.975c6.758,15.036,40.222,11.604,61.827,8.732c18.733-2.49,48.039,3.24,56.279-10.615
							c33.068-55.605,27.47-189.253,27.47-189.253s-16.939-43.921-86.66-40.111
							C2316.288,2090.324,2298.83,2156.763,2298.83,2156.763z"/>
						
							<linearGradient id="SVGID_00000093889396156981801030000004057232769716192654_" gradientUnits="userSpaceOnUse" x1="2293.5649" y1="2287.9897" x2="2317.6062" y2="1998.5715">
							<stop  offset="0" style="stop-color:#AB316D"/>
							<stop  offset="1" style="stop-color:#792D3D"/>
						</linearGradient>
						<path style="fill:url(#SVGID_00000093889396156981801030000004057232769716192654_);" d="M2315.306,2213.677
							c0,0-14.729-17.163-28.623-18.956c-13.912-1.796-22.983,35.996-3.994,59.507c18.957,23.472,40.833,2.343,40.833,2.343
							L2315.306,2213.677z"/>
						
							<linearGradient id="SVGID_00000105408452912224440600000000970367513116966838_" gradientUnits="userSpaceOnUse" x1="2469.8901" y1="2296.2522" x2="2494.2339" y2="2003.191">
							<stop  offset="0" style="stop-color:#AB316D"/>
							<stop  offset="1" style="stop-color:#792D3D"/>
						</linearGradient>
						<path style="fill:url(#SVGID_00000105408452912224440600000000970367513116966838_);" d="M2457.858,2207.621
							c0,0,14.53-18.274,28.204-21.198c13.658-2.92,22.546,33.733,3.925,58.649c-18.652,24.956-40.25,5.901-40.25,5.901
							L2457.858,2207.621z"/>
						
							<linearGradient id="SVGID_00000136377815295532342630000006676689799317300635_" gradientUnits="userSpaceOnUse" x1="2369.645" y1="2152.3323" x2="2434.6453" y2="1950.7373">
							<stop  offset="0" style="stop-color:#311944"/>
							<stop  offset="1" style="stop-color:#6B3976"/>
						</linearGradient>
						<path style="fill:url(#SVGID_00000136377815295532342630000006676689799317300635_);" d="M2303.778,2212.83
							c1.855,3.456,3.979,6.656,5.414,6.206c5.95-1.865-17.016-61.189,4.14-83.131c10.922-11.328,23.212-1.875,67.802-5.717
							c44.731-3.855,56.146-15.447,69.619-7.43c12.261,7.295,23.224,29.044,14.143,95.123c2.529-0.719,5.057-1.438,7.585-2.156
							c-3.405-21.374,0.311-35.107,4.559-43.837c3.098-6.367,8.701-14.64,8.265-26.245c-0.27-7.192-2.55-7.425-2.925-13.309
							c-1.1-17.252,17.737-22.628,18.645-39.735c0.699-13.168-10.128-15.755-8.148-29.571c1.683-11.746,10.135-14.232,8.799-22.624
							c-1.443-9.058-12.769-15.443-20.727-17.533c-8.121-2.133-11.059,0.647-15.823-2.627c-7.704-5.294-4.001-15.289-9.572-18.765
							c-9.925-6.192-29.681,20.553-42.469,14.493c-7.75-3.672-4.765-15.517-11.627-18.137
							c-13.271-5.067-36.758,34.531-46.219,29.704c-4.533-2.313-0.162-11.923-6.519-18.673c-7.469-7.932-25.422-7.318-33.615,1.626
							c-7.643,8.344-1.153,17.777-9.244,28.302c-7.271,9.457-15.675,5.965-23.892,13.634c-13.973,13.04-9.107,41.247-7.371,51.309
							c5.974,34.63,24.557,40.947,20.389,64.863c-1.067,6.119-3.55,12.979-1.777,22.827
							C2294.949,2201.088,2299.81,2208.221,2303.778,2212.83z"/>
						<g style="opacity:0.3;">
							
								<linearGradient id="SVGID_00000104693545666280296140000012421400701020025733_" gradientUnits="userSpaceOnUse" x1="2369.8347" y1="2151.759" x2="2435.3123" y2="1948.6836">
								<stop  offset="0" style="stop-color:#311944"/>
								<stop  offset="1" style="stop-color:#6B3976"/>
							</linearGradient>
							<path style="fill:url(#SVGID_00000104693545666280296140000012421400701020025733_);" d="M2473.958,2130.954
								c-1.624-16.931,10.954-25.319,8.843-37.358c-1.696-9.672-12.223-18.038-22.119-19.545
								c-21.139-3.219-34.845,29.854-55.929,27.12c-16.329-2.117-14.518-22.762-32.974-30.365
								c-29.312-12.076-60.116,29.15-79.701,18.763c-5.892-3.125-11.854-11.5-12.277-34.801
								c-11.258,13.818-6.839,39.472-5.201,48.969c5.974,34.631,24.557,40.947,20.389,64.863c-1.067,6.119-3.55,12.979-1.777,22.827
								c1.739,9.66,6.6,16.792,10.568,21.402c1.855,3.456,3.979,6.656,5.414,6.206c5.95-1.865-17.016-61.188,4.14-83.131
								c10.922-11.328,23.213-1.874,67.802-5.717c44.73-3.855,56.146-15.447,69.619-7.43c12.261,7.296,23.224,29.044,14.143,95.123
								c2.529-0.719,5.057-1.438,7.584-2.156c-3.405-21.374,0.312-35.107,4.559-43.837c1.277-2.624,2.976-5.578,4.506-8.949
								c-0.323-5.646-1.242-11.823-3.166-18.276C2476.123,2137.094,2474.479,2136.401,2473.958,2130.954z"/>
						</g>
					</g>
				</g>
				<g>
					<path style="fill:#FFFFFF;" d="M2273.998,2597.085c0,17.855-13.96,33.17-31.205,34.209
						c-17.27,1.041-31.288-12.628-31.288-30.531s14.019-33.221,31.288-34.214
						C2260.037,2565.559,2273.998,2579.231,2273.998,2597.085z"/>
					<path style="fill:#FFFFFF;" d="M2419.217,2588.537c0,17.743-13.787,32.958-30.816,33.984
						c-17.055,1.028-30.899-12.56-30.899-30.351c0-17.791,13.844-33.009,30.899-33.989
						C2405.43,2557.202,2419.217,2570.794,2419.217,2588.537z"/>
					<path style="fill:#FFFFFF;" d="M2562.637,2580.095c0,17.633-13.616,32.748-30.436,33.762
						c-16.844,1.015-30.516-12.494-30.516-30.174s13.673-32.799,30.516-33.767
						C2549.021,2548.949,2562.637,2562.462,2562.637,2580.095z"/>
				</g>
			</g>
			<path style="fill:#D8DEE8;" d="M2252.995,1901.966v327.684c0,46.533-33.442,85.944-74.809,88.074L1931.28,2330.5l-46.393,2.374
				l-19.373,1.012v-360.533c0-0.663,0-1.292,0.034-1.955c0.036-0.768,0.106-1.501,0.14-2.269
				c0.839-10.577,4.713-20.422,9.566-28.974c0.14-0.279,0.839-0.524,0.977-0.768c9.845-16.826,26.95-28.206,46.01-28.764
				l104.271-2.932c0.07,0.244,0.21,0.489,0.314,0.733L2252.995,1901.966z"/>
			<g>
				<path style="fill:#D8DEE8;" d="M2215.12,1186.194c0-40.677-25.761-74.76-59.78-82.807c-1.215-0.287-2.563-0.538-3.799-0.758
					c-3.706-0.66-7.564-1.012-11.43-1.035l-714.494-4.179l-704.999-4.124c-1.48-0.009-2.96,0.023-4.423,0.092
					c-18.804,0.898-36.028,8.215-49.753,19.922c-0.251,0.215-0.504,0.427-0.754,0.644c-1.97,1.72-3.869,3.528-5.685,5.425
					c-0.043,0.044-0.089,0.086-0.13,0.13c-1.073,1.126-2.114,2.288-3.13,3.472c-13.703,15.984-22.065,37.186-22.065,60.501v65.056
					l0,0v1020.955c0,7.826,0.944,15.371,2.713,22.522c1.06,4.291,2.421,8.44,4.052,12.424c10.858,26.5,33.82,45.658,61.674,50.309
					c5.648,0.943,11.495,1.294,17.485,0.984l1078.881-55.869l0,0l340.812-17.639c41.254-2.136,74.824-41.551,74.824-88.039v-947.605
					l0,0V1186.194z"/>
				<g>
					<path style="fill:#FFFFFF;" d="M2218.087,1185.681v1009.046c0,46.535-33.457,85.964-74.811,88.084l-345.775,17.884
						l-1076.717,55.752c-44.132,2.279-83.051-30.838-87.974-75.813c-0.392-3.427-3.05-1097.712-3.05-1097.712
						c0-18.355,7.662-35.44,16.579-49.691c0.252-0.406,1.705-0.779,1.956-1.158c15.524-23.985,42.282-39.627,71.873-39.441
						l164.101,0.96l1258.872,7.366C2184.495,1101.204,2218.087,1139.12,2218.087,1185.681z"/>
					
						<linearGradient id="SVGID_00000089549012673060598740000013868602474281393049_" gradientUnits="userSpaceOnUse" x1="662.2438" y1="1724.5675" x2="2194.1467" y2="1724.5675">
						<stop  offset="0" style="stop-color:#FFFFFF"/>
						<stop  offset="0.9964" style="stop-color:#EBEFF2"/>
					</linearGradient>
					<path style="fill:url(#SVGID_00000089549012673060598740000013868602474281393049_);" d="M720.781,2327.554
						c-32.239,1.627-58.538-24.734-58.538-58.767V1182.966c0-34.033,26.299-61.602,58.538-61.456l1422.437,6.439
						c28.113,0.127,50.929,25.99,50.929,57.653v1010.193c0,31.663-22.815,58.573-50.929,59.991L720.781,2327.554z"/>
					<path style="fill:#D8DEE8;" d="M2143.218,1100.946l-1422.437-8.312c-47.47-0.277-86.104,40.144-86.104,90.284v65.125
						l1583.272-1.958v-60.443C2217.949,1139.107,2184.559,1101.188,2143.218,1100.946z"/>
					<path style="fill:#FFFFFF;" d="M787.805,1171.952c0,14.918-12.498,26.999-27.935,26.984
						c-15.459-0.015-28.006-12.152-28.006-27.108c0-14.956,12.548-27.037,28.006-26.984
						C775.307,1144.897,787.805,1157.033,787.805,1171.952z"/>
					<path style="fill:#FFFFFF;" d="M885.355,1172.168c0,14.852-12.387,26.879-27.686,26.864
						c-15.321-0.015-27.756-12.097-27.756-26.987c0-14.889,12.436-26.917,27.756-26.864
						C872.968,1145.234,885.355,1157.316,885.355,1172.168z"/>
					<path style="fill:#FFFFFF;" d="M982.038,1172.382c0,14.786-12.277,26.76-27.44,26.745c-15.185-0.015-27.51-12.044-27.51-26.867
						c0-14.823,12.325-26.797,27.51-26.745C969.761,1145.568,982.038,1157.597,982.038,1172.382z"/>
					<polygon style="fill:#D8DEE8;" points="2130.726,2199.222 735.047,2265.752 735.047,1411.028 2130.726,1398.918 					"/>
					<g style="opacity:0.5;">
						<polygon style="fill:#FFFFFF;" points="1484.792,1319.035 735.048,1322.514 735.048,1368.684 1484.792,1363.627 						"/>
						<polygon style="fill:#FFFFFF;" points="2050.896,1316.409 2050.896,1359.808 2130.727,1359.269 2130.727,1316.039 						"/>
					</g>
					<g style="opacity:0.5;">
						<path style="fill:#FFFFFF;" d="M1797.471,2300.679l-1076.693,55.76c-44.132,2.279-83.313-30.822-88.236-75.798
							c-0.029-1.002-2.782-1098.207-2.782-1098.207c0-18.139,7.705-35.033,16.314-49.204c0.252-0.406,1.837-0.779,2.088-1.157
							c15.44-24.635,42.543-40.762,72.467-40.573l163.223,0.963c0.11,0.376,0.413,0.754,0.551,1.13
							c3.042,9.435,6.469,19.003,10.139,28.704c14.452,38.452,33.794,78.686,59.715,118.157c1.58,2.434,3.209,4.814,4.843,7.194
							c19.085,28.161,39.345,52.401,60.511,73.555c16.906,16.924,34.388,31.849,52.301,45.205
							c20.985,15.686,42.583,29.16,64.57,41.146c158.19,86.281,335.417,94.017,452.734,270.889
							c100.387,151.353,28.499,233.866,125.552,466.561c10.541,25.283,21.866,49.396,33.87,72.423
							c10.206,19.662,20.887,38.537,31.991,56.651C1786.128,2283.145,1791.775,2292.019,1797.471,2300.679z"/>
					</g>
				</g>
				<g>
					<path style="fill:#FFFFFF;" d="M1282.356,2113.158c0,31.802-24.86,58.659-55.61,59.989
						c-30.843,1.334-55.915-23.504-55.915-55.481c0-31.977,25.072-58.842,55.915-60.002
						C1257.496,2056.51,1282.356,2081.356,1282.356,2113.158z"/>
					<path style="fill:#FFFFFF;" d="M1505.778,2104.126c0,31.453-24.316,58.003-54.393,59.304
						c-30.167,1.305-54.688-23.27-54.688-54.894s24.521-58.182,54.688-59.316C1481.462,2048.09,1505.778,2072.673,1505.778,2104.126
						z"/>
					<path style="fill:#FFFFFF;" d="M1724.343,2095.291c0,31.111-23.79,57.361-53.216,58.634
						c-29.512,1.277-53.501-23.042-53.501-54.32c0-31.278,23.989-57.536,53.501-58.645
						C1700.553,2039.853,1724.343,2064.179,1724.343,2095.291z"/>
				</g>
				<g>
					<defs>
						<polygon id="SVGID_00000080185727761554387690000002443115249582157449_" points="2050.527,2200.573 818.265,2251.755 
							818.265,1090.667 2050.527,1097.415 						"/>
					</defs>
					<clipPath id="SVGID_00000016050445137298849800000005268324009161828271_">
						<use xlink:href="#SVGID_00000080185727761554387690000002443115249582157449_"  style="overflow:visible;"/>
					</clipPath>
					<g style="clip-path:url(#SVGID_00000016050445137298849800000005268324009161828271_);">
						
							<linearGradient id="SVGID_00000008864119342652971290000016337732384825841340_" gradientUnits="userSpaceOnUse" x1="1893.7129" y1="1216.5696" x2="1242.8751" y2="2497.6948">
							<stop  offset="0" style="stop-color:#FF9085"/>
							<stop  offset="1" style="stop-color:#FB6FBB"/>
						</linearGradient>
						<path style="fill:url(#SVGID_00000008864119342652971290000016337732384825841340_);" d="M1466.827,2301.958
							c-377.801,19.787-513.052,76.025-574.826-3.855c-57.124-73.867-9.78-349.346,58.095-427.935
							c106.542-123.359,275.661-132.833,503.288-143.913c210.205-10.232,337.928-16.449,437.818,71.439
							c92.627,81.498,151.407,368.073,94.095,450.807C1931.864,2325.637,1816.812,2283.627,1466.827,2301.958z"/>
						
							<linearGradient id="SVGID_00000062150586931470425950000002736032311125685392_" gradientUnits="userSpaceOnUse" x1="1434.4308" y1="2163.6099" x2="1445.2264" y2="1574.1891">
							<stop  offset="0" style="stop-color:#311944"/>
							<stop  offset="0.5554" style="stop-color:#6F2B60"/>
							<stop  offset="1" style="stop-color:#A03976"/>
						</linearGradient>
						<path style="fill:url(#SVGID_00000062150586931470425950000002736032311125685392_);" d="M1328.308,1728.474l-44.125,12.181
							c-10.84,2.993-15.792,15.602-9.746,24.842c30.09,45.994,109.422,160.873,158.837,173.153
							c50.874,12.642,145.344-137.003,176.611-189.349c5.394-9.031,1.075-20.586-8.795-23.548l-31.63-9.493
							c-25.938-7.785-53.298-10.377-80.552-7.614l-119.433,12.108C1355.598,1722.16,1341.826,1724.743,1328.308,1728.474z"/>
						
							<linearGradient id="SVGID_00000044140042117453180330000002379157118497667206_" gradientUnits="userSpaceOnUse" x1="1451.9929" y1="1770.5822" x2="1492.8142" y2="2035.9197">
							<stop  offset="0" style="stop-color:#FFC444"/>
							<stop  offset="0.9964" style="stop-color:#F36F56"/>
						</linearGradient>
						<path style="fill:url(#SVGID_00000044140042117453180330000002379157118497667206_);" d="M1360.96,1557.496
							c0,0,24.12,172.899-9.246,190.165l94.742,100.979l95.219-124.014c0,0-35.905-26.453-26.439-169.243L1360.96,1557.496z"/>
						
							<linearGradient id="SVGID_00000142879291379913654740000013157285526134029734_" gradientUnits="userSpaceOnUse" x1="1432.6561" y1="1363.204" x2="1422.4069" y2="2039.6174">
							<stop  offset="0" style="stop-color:#FFC444"/>
							<stop  offset="0.9964" style="stop-color:#F36F56"/>
						</linearGradient>
						<path style="fill:url(#SVGID_00000142879291379913654740000013157285526134029734_);" d="M1304.761,1309.496
							c-3.45,4.662-48.357,224.265,106.354,245.12c152.755,20.592,159.443-139.6,157.513-207.51
							c-1.931-67.922-71.555-92.504-111.575-97.221C1416.899,1245.152,1316.994,1292.965,1304.761,1309.496z"/>
						
							<linearGradient id="SVGID_00000124135310389561728360000003866415757918900927_" gradientUnits="userSpaceOnUse" x1="1427.1476" y1="1407.5178" x2="1416.877" y2="2085.3396" gradientTransform="matrix(0.9936 -0.1133 0.1133 0.9936 -309.5573 89.967)">
							<stop  offset="0" style="stop-color:#FFC444"/>
							<stop  offset="0.9964" style="stop-color:#F36F56"/>
						</linearGradient>
						<path style="fill:url(#SVGID_00000124135310389561728360000003866415757918900927_);" d="M1295.759,1437.445
							c0,0-7.771-35.754-34.403-13.201c-26.691,22.603,15.728,81.525,50.605,78.677L1295.759,1437.445z"/>
						
							<linearGradient id="SVGID_00000058591310125152072420000004431984200174957192_" gradientUnits="userSpaceOnUse" x1="1573.577" y1="1364.3605" x2="1563.3486" y2="2039.4016">
							<stop  offset="0" style="stop-color:#FFC444"/>
							<stop  offset="0.9964" style="stop-color:#F36F56"/>
						</linearGradient>
						<path style="fill:url(#SVGID_00000058591310125152072420000004431984200174957192_);" d="M1563.951,1410.434
							c-4.365,3.006-16.901,86.293-16.901,86.293s21.922,2.346,37.768-27.652
							C1600.644,1439.116,1608.244,1379.936,1563.951,1410.434z"/>
						<path style="fill:#26264F;" d="M1623.468,1251.545c-15.922-26.643-56.235-13.997-68.026-39.754
							c-9.916-21.659,13.378-41.974,0.886-60.708c-10.458-15.685-36.061-15.39-40.619-15.338c-34.698,0.4-42.654,27.98-67.47,27.29
							c-30.375-0.844-31.56-42.449-71.844-60.17c-39.219-17.253-96.767-3.662-120.104,28.3
							c-18.172,24.888-2.711,43.263-26.549,75.286c-16.425,22.064-30.963,23.041-39.137,44.663
							c-7.682,20.32-2.483,39.657,1.582,54.014c9.736,34.394,27.867,49.491,55.21,85.912c12.228,16.288,28.974,40.406,46.236,72.169
							c7.224,19.132,17.556,48.728,27.11,86.143c8.685,34.007,8.158,40.926,16.267,51.852
							c27.913,37.611,91.38,32.858,117.987,30.865c30.436-2.279,68.215-5.109,87.176-31.857c10.237-14.441,8.95-27.33,11.324-61.873
							c1.694-24.651,5.191-59.248,13.132-101.229c0.153,0.003,3.532-19.24,12.334-42.951c10.985-29.592,22.381-34.361,34.75-64.901
							C1623.627,1304.789,1636.416,1273.212,1623.468,1251.545z M1497.718,1482.934c-18.779,5.289-31.465,0.854-56.993-0.345
							c-51.219-2.406-67.461,21.802-91.752,11.506c-10.141-4.299-33.625-16.403-38.603-40.042
							c-2.88-15.344-4.906-36.325-1.597-60.65c4.041-29.713,8.702-63.981,32.54-79.21c34.507-22.045,78.434,15.488,109.882-9.016
							c12-9.35,16.823-23.554,19.011-34.352c6.962,2.392,62.185,22.423,82.448,81.46c12.475,36.345,5.328,68.872-0.747,86.581
							C1540.498,1456.286,1523.068,1475.795,1497.718,1482.934z"/>
						
							<linearGradient id="SVGID_00000069378627330654699430000008944201061363680670_" gradientUnits="userSpaceOnUse" x1="1466.549" y1="1233.1898" x2="1437.2849" y2="1485.8372">
							<stop  offset="0" style="stop-color:#FFC444"/>
							<stop  offset="0.9964" style="stop-color:#F36F56"/>
						</linearGradient>
						<path style="fill:url(#SVGID_00000069378627330654699430000008944201061363680670_);" d="M1391.728,1520.126
							c19.785,5.888,49.495,9.669,82.686-3.345c3.441-1.349,6.379,2.385,3.509,4.469c-11.851,8.604-29.181,17.808-48.059,16.65
							c-15.623-0.959-29.991-6.811-41.07-12.958C1385.618,1523.179,1388.128,1519.055,1391.728,1520.126z"/>
					</g>
				</g>
				<g>
					<path style="fill:#FFFFFF;" d="M1274.488,2112.929c0,26.441-21.568,48.706-48.225,49.732
						c-26.716,1.028-48.417-19.657-48.417-46.203c0-26.546,21.701-48.816,48.417-49.739
						C1252.921,2065.798,1274.488,2086.488,1274.488,2112.929z"/>
					<path style="fill:#FFFFFF;" d="M1498.103,2104.764c0,26.198-21.172,48.25-47.341,49.257
						c-26.225,1.009-47.527-19.492-47.527-45.793c0-26.301,21.302-48.358,47.527-49.264
						C1476.931,2058.06,1498.103,2078.566,1498.103,2104.764z"/>
					<path style="fill:#FFFFFF;" d="M1717.639,2096.748c0,25.959-20.787,47.803-46.48,48.792
						c-25.748,0.991-46.662-19.33-46.662-45.391c0-26.06,20.914-47.909,46.662-48.798
						C1696.851,2050.463,1717.639,2070.789,1717.639,2096.748z"/>
				</g>
			</g>
		</g>
		<g>
			<g>
				
					<linearGradient id="SVGID_00000064326572064680309480000009500855563820290724_" gradientUnits="userSpaceOnUse" x1="-3937.2017" y1="1086.583" x2="-3282.5168" y2="1086.583" gradientTransform="matrix(1 0 0 1 4428.1245 0)">
					<stop  offset="0" style="stop-color:#AA80F9"/>
					<stop  offset="0.9964" style="stop-color:#6165D7"/>
				</linearGradient>
				<path style="fill:url(#SVGID_00000064326572064680309480000009500855563820290724_);" d="M1098.177,1215.864
					c30.098-37.693,47.43-81.945,47.43-129.281c0-137.644-146.557-249.226-327.342-249.226s-327.342,111.582-327.342,249.226
					s146.557,249.227,327.342,249.227c67.757,0,130.704-15.674,182.93-42.519c34.521,5.889,88.107,15.784,116.384,21.047
					c8.326,1.549,15.148-6.592,12.167-14.52L1098.177,1215.864z"/>
				<g style="opacity:0.3;">
					
						<linearGradient id="SVGID_00000003070307933985965160000006797660182006803884_" gradientUnits="userSpaceOnUse" x1="-3850.7883" y1="914.365" x2="-3282.6626" y2="1662.5747" gradientTransform="matrix(1 0 0 1 4428.1245 0)">
						<stop  offset="0" style="stop-color:#AA80F9"/>
						<stop  offset="0.9964" style="stop-color:#6165D7"/>
					</linearGradient>
					<path style="fill:url(#SVGID_00000003070307933985965160000006797660182006803884_);" d="M997.395,1139.324
						c-73.401-30.85-154.116,34.271-204.579-11.159c-50.869-45.795,4.084-136.336-44.635-200.859
						c-23.229-30.765-62.257-45.32-106.904-50.408c-90.45,44.347-150.354,121.688-150.354,209.685
						c0,137.644,146.557,249.227,327.342,249.227c67.757,0,130.704-15.674,182.93-42.519c27.238,4.647,66.335,11.786,95.515,17.177
						C1075.185,1198.872,1035.593,1155.379,997.395,1139.324z"/>
				</g>
			</g>
			<g>
				<path style="fill:#FFFFFF;" d="M1035.352,995.498c0,6.94-5.626,12.567-12.567,12.567H624.839
					c-6.94,0-12.567-5.626-12.567-12.567l0,0c0-6.94,5.626-12.567,12.567-12.567h397.946
					C1029.726,982.932,1035.352,988.558,1035.352,995.498L1035.352,995.498z"/>
				<g>
					<path style="fill:#FFFFFF;" d="M1035.352,1070.899c0,6.94-5.626,12.567-12.567,12.567H624.839
						c-6.94,0-12.567-5.626-12.567-12.567l0,0c0-6.94,5.626-12.567,12.567-12.567h397.946
						C1029.726,1058.332,1035.352,1063.958,1035.352,1070.899L1035.352,1070.899z"/>
					<path style="fill:#FFFFFF;" d="M846.851,1146.299c0,6.941-5.626,12.567-12.567,12.567H624.839
						c-6.94,0-12.567-5.626-12.567-12.567l0,0c0-6.94,5.626-12.567,12.567-12.567h209.445
						C841.225,1133.732,846.851,1139.359,846.851,1146.299L846.851,1146.299z"/>
				</g>
			</g>
		</g>
	</g>
</g>
</svg>
